<?xml version="1.0"?>
<svg version="1.1" xmlns="http://www.w3.org/2000/svg"><path d=" M 98,0 L 294,0 L 392,170 L 294,340 L 98,340 L 0,170 Z" fill="#B46301" stroke="#B46301" stroke-width="1" stroke-linejoin="round"/><text x="245" y="318" dy="0.3em" fill="#000000" stroke="#000000" text-anchor="middle" font-family="Arial" font-size="31" font-weight="bold">35</text><circle cx="206" cy="76" r="51" fill="#FFFFFF" stroke="#FFFFFF" stroke-width="12"/><circle cx="206" cy="264" r="51" fill="#FFFFFF" stroke="#FFFFFF" stroke-width="12"/><path d="M 196,0 A 294,294 0 0,0 206,76" fill="none" stroke="#FFFFFF" stroke-width="34" stroke-linecap="butt" stroke-linejoin="round"/><path d="M 206,76 A 294,294 0 0,0 343,255" fill="none" stroke="#FFFFFF" stroke-width="34" stroke-linecap="butt" stroke-linejoin="round"/><path d="M 206,264 A 294,294 0 0,0 196,340" fill="none" stroke="#FFFFFF" stroke-width="34" stroke-linecap="butt" stroke-linejoin="round"/><path d="M 196,0 A 294,294 0 0,0 206,76" fill="none" stroke="#000000" stroke-width="26" stroke-linecap="butt" stroke-linejoin="round"/><path d="M 206,76 A 294,294 0 0,0 343,255" fill="none" stroke="#000000" stroke-width="26" stroke-linecap="butt" stroke-linejoin="round"/><path d="M 206,264 A 294,294 0 0,0 196,340" fill="none" stroke="#000000" stroke-width="26" stroke-linecap="butt" stroke-linejoin="round"/><path d="M 343,85 A 294,294 0 0,0 206,264" fill="none" stroke="#FFFFFF" stroke-width="34" stroke-linecap="butt" stroke-linejoin="round"/><path d="M 343,85 A 294,294 0 0,0 206,264" fill="none" stroke="#000000" stroke-width="26" stroke-linecap="butt" stroke-linejoin="round"/><circle cx="206" cy="76" r="51" fill="#FFFFFF" stroke="#000000" stroke-width="4"/><ellipse rx="31" ry="30" cx="86" cy="107" fill="#FFFFFF" stroke="#000000" stroke-width="2" stroke-linejoin="round"/><text x="86" y="107" dy="0.3em" fill="#000000" stroke="#000000" text-anchor="middle" font-family="Bookman Old Style" font-size="43">40</text><circle cx="206" cy="264" r="51" fill="#FFFFFF" stroke="#000000" stroke-width="4"/><ellipse rx="31" ry="30" cx="86" cy="233" fill="#FFFFFF" stroke="#000000" stroke-width="2" stroke-linejoin="round"/><text x="86" y="233" dy="0.3em" fill="#000000" stroke="#000000" text-anchor="middle" font-family="Bookman Old Style" font-size="43">40</text><path d=" M 98,0 L 294,0 L 392,170 L 294,340 L 98,340 L 0,170 Z" fill="none" stroke="black" stroke-width="1" stroke-linejoin="round"/></svg>
