<?xml version="1.0" encoding="UTF-8" standalone="no"?>
<svg
   xmlns:dc="http://purl.org/dc/elements/1.1/"
   xmlns:cc="http://creativecommons.org/ns#"
   xmlns:rdf="http://www.w3.org/1999/02/22-rdf-syntax-ns#"
   xmlns:svg="http://www.w3.org/2000/svg"
   xmlns="http://www.w3.org/2000/svg"
   xmlns:sodipodi="http://sodipodi.sourceforge.net/DTD/sodipodi-0.dtd"
   xmlns:inkscape="http://www.inkscape.org/namespaces/inkscape"
   inkscape:version="1.0 (4035a4fb49, 2020-05-01)"
   height="357"
   width="393"
   sodipodi:docname="tile-37010.svg"
   id="svg38"
   version="1.1">
  <metadata
     id="metadata44">
    <rdf:RDF>
      <cc:Work
         rdf:about="">
        <dc:format>image/svg+xml</dc:format>
        <dc:type
           rdf:resource="http://purl.org/dc/dcmitype/StillImage" />
        <dc:title></dc:title>
      </cc:Work>
    </rdf:RDF>
  </metadata>
  <defs
     id="defs42" />
  <sodipodi:namedview
     inkscape:current-layer="svg38"
     inkscape:window-maximized="1"
     inkscape:window-y="-9"
     inkscape:window-x="-9"
     inkscape:cy="129.15162"
     inkscape:cx="150"
     inkscape:zoom="3.6933333"
     showgrid="false"
     id="namedview40"
     inkscape:window-height="2081"
     inkscape:window-width="3840"
     inkscape:pageshadow="2"
     inkscape:pageopacity="0"
     guidetolerance="10"
     gridtolerance="10"
     objecttolerance="10"
     borderopacity="1"
     bordercolor="#666666"
     pagecolor="#ffffff" />
  <path
     id="path2"
     stroke-linejoin="round"
     stroke-width="1"
     stroke="#ffff00"
     fill="#ffff00"
     d="m 98,0 h 196 l 98,170 -98,170 H 98 L 0,170 Z" />
  <circle
     id="circle4"
     stroke-width="12"
     stroke="#ffffff"
     fill="#ffffff"
     r="51"
     cy="137"
     cx="140" />
  <circle
     id="circle6"
     stroke-width="12"
     stroke="#ffffff"
     fill="#ffffff"
     r="51"
     cy="255"
     cx="245" />
  <path
     id="path8"
     stroke-linejoin="round"
     stroke-linecap="butt"
     stroke-width="34"
     stroke="#ffffff"
     fill="none"
     d="m 245,255 a 98,98 0 0 0 -49,85" />
  <path
     id="path10"
     stroke-linejoin="round"
     stroke-linecap="butt"
     stroke-width="34"
     stroke="#ffffff"
     fill="none"
     d="m 343,255 a 98,98 0 0 0 -98,0" />
  <path
     id="path12"
     stroke-linejoin="round"
     stroke-linecap="butt"
     stroke-width="34"
     stroke="#ffffff"
     fill="none"
     d="M 49,255 A 294,294 0 0 0 157,147" />
  <path
     id="path14"
     stroke-linejoin="round"
     stroke-linecap="butt"
     stroke-width="34"
     stroke="#ffffff"
     fill="none"
     d="M 157,147 A 294,294 0 0 0 196,0" />
  <path
     id="path16"
     stroke-linejoin="round"
     stroke-linecap="butt"
     stroke-width="26"
     stroke="#000000"
     fill="none"
     d="m 245,255 a 98,98 0 0 0 -49,85" />
  <path
     id="path18"
     stroke-linejoin="round"
     stroke-linecap="butt"
     stroke-width="26"
     stroke="#000000"
     fill="none"
     d="m 343,255 a 98,98 0 0 0 -98,0" />
  <path
     id="path20"
     stroke-linejoin="round"
     stroke-linecap="butt"
     stroke-width="26"
     stroke="#000000"
     fill="none"
     d="M 49,255 A 294,294 0 0 0 157,147" />
  <path
     id="path22"
     stroke-linejoin="round"
     stroke-linecap="butt"
     stroke-width="26"
     stroke="#000000"
     fill="none"
     d="M 157,147 A 294,294 0 0 0 196,0" />
  <circle
     id="circle24"
     stroke-width="4"
     stroke="#000000"
     fill="#ffffff"
     r="51"
     cy="137"
     cx="140" />
  <ellipse
     id="ellipse26"
     stroke-linejoin="round"
     stroke-width="2"
     stroke="#000000"
     fill="#ffffff"
     cy="128"
     cx="269"
     ry="34"
     rx="38" />
  <text
     id="text28"
     font-size="51px"
     font-family="'Bookman Old Style'"
     text-anchor="middle"
     stroke="#000000"
     fill="#000000"
     dy="0.30000001em"
     y="128"
     x="269">40</text>
  <circle
     id="circle30"
     stroke-width="4"
     stroke="#000000"
     fill="#ffffff"
     r="51"
     cy="255"
     cx="245" />
  <ellipse
     id="ellipse32"
     stroke-linejoin="round"
     stroke-width="2"
     stroke="#000000"
     fill="#ffffff"
     cy="128"
     cx="269"
     ry="34"
     rx="38" />
  <text
     id="text34"
     font-size="51px"
     font-family="'Bookman Old Style'"
     text-anchor="middle"
     stroke="#000000"
     fill="#000000"
     dy="0.30000001em"
     y="128"
     x="269">40</text>
  <path
     id="path36"
     stroke-linejoin="round"
     stroke-width="1"
     stroke="#000000"
     fill="none"
     d="m 98,0 h 196 l 98,170 -98,170 H 98 L 0,170 Z" />
</svg>
