<?xml version="1.0"?>
<svg version="1.1" xmlns="http://www.w3.org/2000/svg"><path d=" M 98,0 L 294,0 L 392,170 L 294,340 L 98,340 L 0,170 Z" fill="#808080" stroke="#808080" stroke-width="1" stroke-linejoin="round"/><text x="245" y="318" dy="0.3em" fill="#000000" stroke="#000000" text-anchor="middle" font-family="Arial" font-size="31" font-weight="bold">110</text><circle cx="196" cy="43" r="51" fill="#FFFFFF" stroke="#FFFFFF" stroke-width="12"/><circle cx="306" cy="107" r="51" fill="#FFFFFF" stroke="#FFFFFF" stroke-width="12"/><circle cx="306" cy="233" r="51" fill="#FFFFFF" stroke="#FFFFFF" stroke-width="12"/><circle cx="196" cy="297" r="51" fill="#FFFFFF" stroke="#FFFFFF" stroke-width="12"/><circle cx="86" cy="233" r="51" fill="#FFFFFF" stroke="#FFFFFF" stroke-width="12"/><circle cx="86" cy="107" r="51" fill="#FFFFFF" stroke="#FFFFFF" stroke-width="12"/><path d="M 196,43 L 196,0" fill="none" stroke="#FFFFFF" stroke-width="34" stroke-linecap="butt" stroke-linejoin="round"/><path d="M 306,107 L 343,85" fill="none" stroke="#FFFFFF" stroke-width="34" stroke-linecap="butt" stroke-linejoin="round"/><path d="M 306,233 L 343,255" fill="none" stroke="#FFFFFF" stroke-width="34" stroke-linecap="butt" stroke-linejoin="round"/><path d="M 196,297 L 196,340" fill="none" stroke="#FFFFFF" stroke-width="34" stroke-linecap="butt" stroke-linejoin="round"/><path d="M 86,233 L 49,255" fill="none" stroke="#FFFFFF" stroke-width="34" stroke-linecap="butt" stroke-linejoin="round"/><path d="M 86,107 L 49,85" fill="none" stroke="#FFFFFF" stroke-width="34" stroke-linecap="butt" stroke-linejoin="round"/><path d="M 196,43 L 196,0" fill="none" stroke="#000000" stroke-width="26" stroke-linecap="butt" stroke-linejoin="round"/><path d="M 306,107 L 343,85" fill="none" stroke="#000000" stroke-width="26" stroke-linecap="butt" stroke-linejoin="round"/><path d="M 306,233 L 343,255" fill="none" stroke="#000000" stroke-width="26" stroke-linecap="butt" stroke-linejoin="round"/><path d="M 196,297 L 196,340" fill="none" stroke="#000000" stroke-width="26" stroke-linecap="butt" stroke-linejoin="round"/><path d="M 86,233 L 49,255" fill="none" stroke="#000000" stroke-width="26" stroke-linecap="butt" stroke-linejoin="round"/><path d="M 86,107 L 49,85" fill="none" stroke="#000000" stroke-width="26" stroke-linecap="butt" stroke-linejoin="round"/><path d="M 196,43 L 196,0" fill="none" stroke="#FFFFFF" stroke-width="18" stroke-linecap="butt" stroke-linejoin="round"/><path d="M 306,107 L 343,85" fill="none" stroke="#FFFFFF" stroke-width="18" stroke-linecap="butt" stroke-linejoin="round"/><path d="M 306,233 L 343,255" fill="none" stroke="#FFFFFF" stroke-width="18" stroke-linecap="butt" stroke-linejoin="round"/><path d="M 196,297 L 196,340" fill="none" stroke="#FFFFFF" stroke-width="18" stroke-linecap="butt" stroke-linejoin="round"/><path d="M 86,233 L 49,255" fill="none" stroke="#FFFFFF" stroke-width="18" stroke-linecap="butt" stroke-linejoin="round"/><path d="M 86,107 L 49,85" fill="none" stroke="#FFFFFF" stroke-width="18" stroke-linecap="butt" stroke-linejoin="round"/><circle cx="196" cy="43" r="51" fill="#FFFFFF" stroke="#000000" stroke-width="4"/><ellipse rx="46" ry="30" cx="235" cy="193" fill="#FFFFFF" stroke="#000000" stroke-width="2" stroke-linejoin="round"/><text x="235" y="193" dy="0.3em" fill="#000000" stroke="#000000" text-anchor="middle" font-family="Bookman Old Style" font-size="43">100</text><circle cx="306" cy="107" r="51" fill="#FFFFFF" stroke="#000000" stroke-width="4"/><ellipse rx="46" ry="30" cx="235" cy="193" fill="#FFFFFF" stroke="#000000" stroke-width="2" stroke-linejoin="round"/><text x="235" y="193" dy="0.3em" fill="#000000" stroke="#000000" text-anchor="middle" font-family="Bookman Old Style" font-size="43">100</text><circle cx="306" cy="233" r="51" fill="#FFFFFF" stroke="#000000" stroke-width="4"/><ellipse rx="46" ry="30" cx="235" cy="193" fill="#FFFFFF" stroke="#000000" stroke-width="2" stroke-linejoin="round"/><text x="235" y="193" dy="0.3em" fill="#000000" stroke="#000000" text-anchor="middle" font-family="Bookman Old Style" font-size="43">100</text><circle cx="196" cy="297" r="51" fill="#FFFFFF" stroke="#000000" stroke-width="4"/><ellipse rx="46" ry="30" cx="235" cy="193" fill="#FFFFFF" stroke="#000000" stroke-width="2" stroke-linejoin="round"/><text x="235" y="193" dy="0.3em" fill="#000000" stroke="#000000" text-anchor="middle" font-family="Bookman Old Style" font-size="43">100</text><circle cx="86" cy="233" r="51" fill="#FFFFFF" stroke="#000000" stroke-width="4"/><ellipse rx="46" ry="30" cx="235" cy="193" fill="#FFFFFF" stroke="#000000" stroke-width="2" stroke-linejoin="round"/><text x="235" y="193" dy="0.3em" fill="#000000" stroke="#000000" text-anchor="middle" font-family="Bookman Old Style" font-size="43">100</text><circle cx="86" cy="107" r="51" fill="#FFFFFF" stroke="#000000" stroke-width="4"/><ellipse rx="46" ry="30" cx="235" cy="193" fill="#FFFFFF" stroke="#000000" stroke-width="2" stroke-linejoin="round"/><text x="235" y="193" dy="0.3em" fill="#000000" stroke="#000000" text-anchor="middle" font-family="Bookman Old Style" font-size="43">100</text><text x="157" y="147" dy="0.3em" fill="#000000" stroke="#000000" text-anchor="middle" font-family="TimpaniHeavy" font-size="54">CD</text><path d=" M 98,0 L 294,0 L 392,170 L 294,340 L 98,340 L 0,170 Z" fill="none" stroke="black" stroke-width="1" stroke-linejoin="round"/></svg>
