<?xml version="1.0" encoding="UTF-8" standalone="no"?>
<svg
   xmlns:dc="http://purl.org/dc/elements/1.1/"
   xmlns:cc="http://creativecommons.org/ns#"
   xmlns:rdf="http://www.w3.org/1999/02/22-rdf-syntax-ns#"
   xmlns:svg="http://www.w3.org/2000/svg"
   xmlns="http://www.w3.org/2000/svg"
   version="1.1"
   id="svg2">
  <metadata
     id="metadata44">
    <rdf:RDF>
      <cc:Work
         rdf:about="">
        <dc:format>image/svg+xml</dc:format>
        <dc:type
           rdf:resource="http://purl.org/dc/dcmitype/StillImage" />
        <dc:title></dc:title>
      </cc:Work>
    </rdf:RDF>
  </metadata>
  <defs
     id="defs42" />
  <path
     style="fill:#ffff00;stroke:#ffff00;stroke-width:1;stroke-linejoin:round"
     d="M 392.2237716262,169.5189087503 294.7524376101,339.5640176042 98.52866598392,340.0451088539 -0.2237716262354,170.4810912499 97.24756238979,0.4359823959373 293.471334016,-0.0451088538239 Z"
     id="path4" />
  <circle
     style="fill:#ffffff;stroke:#ffffff;stroke-width:12"
     cx="99.01676940918"
     cy="-169.5865783691"
     r="51"
     id="circle8"
     transform="matrix(-0.4973027245716,0.8675770859893,-0.8675770859893,-0.4973027245716,0,0)" />
  <path
     style="fill:none;stroke:#ffffff;stroke-width:34;stroke-linecap:butt;stroke-linejoin:round"
     d="M 97.88811418682,170.240545625 A 98,98 0 0 0 48.51189538177,85.4585368229"
     id="path10" />
  <path
     style="fill:none;stroke:#000000;stroke-width:26;stroke-linecap:butt;stroke-linejoin:round"
     d="M 97.88811418682,170.240545625 A 98,98 0 0 0 48.51189538177,85.4585368229"
     id="path18" />
  <g
     id="g4182"
     transform="matrix(-0.4973027245716,0.8675770859894,-0.8675770859894,-0.4973027245716,440.9594386342,84.49635432332)">
    <path
       style="fill:none;stroke:#ffffff;stroke-width:34;stroke-linecap:butt;stroke-linejoin:round"
       id="path12"
       d="m 343,255 a 98,98 0 0 0 -98,0" />
    <path
       style="fill:none;stroke:#000000;stroke-width:26;stroke-linecap:butt;stroke-linejoin:round"
       id="path20"
       d="m 343,255 a 98,98 0 0 0 -98,0" />
  </g>
  <circle
     style="fill:#ffffff;stroke:#000000;stroke-width:4"
     cx="99.01676940918"
     cy="-169.5865783691"
     r="51"
     id="circle32"
     transform="matrix(-0.4973027245716,0.8675770859893,-0.8675770859893,-0.4973027245716,0,0)" />
  <ellipse
     rx="38"
     ry="34"
     cx="127.8107147217"
     cy="-330.1441955566"
     id="ellipse34"
     style="fill:#ffffff;stroke:#000000;stroke-width:2;stroke-linejoin:round"
     transform="matrix(-0.4973027245716,0.8675770859893,-0.8675770859893,-0.4973027245716,0,0)" />
  <text
     x="-37.125443"
     y="369.03687"
     dy="0"
     font-size="51"
     id="text36"
     style="font-style:normal;font-variant:normal;font-weight:normal;font-stretch:normal;font-size:51px;line-height:125%;font-family:'Bookman Old Style';-inkscape-font-specification:'Bookman Old Style, Normal';text-align:center;writing-mode:lr-tb;text-anchor:middle;fill:#000000;stroke:#000000"
     transform="matrix(0.708245352866,-0.7059663732387,0.7059663732387,0.708245352866,0,0)">
    <tspan
       id="tspan4172"
       x="-37.125443"
       y="369.03687">20</tspan>
  </text>
  <path
     style="fill:none;stroke:#000000;stroke-width:1;stroke-linejoin:round"
     d="M 392.2237716262,169.5189087503 294.7524376101,339.5640176042 98.52866598392,340.0451088539 -0.2237716262354,170.4810912499 97.24756238979,0.4359823959373 293.471334016,-0.0451088538239 Z"
     id="path38" />
  <circle
     cx="-8.411948204041"
     cy="-331.9566040039"
     r="51"
     id="circle6"
     style="fill:#ffffff;stroke:#ffffff;stroke-width:12"
     transform="matrix(-0.4973027245716,0.8675770859893,-0.8675770859893,-0.4973027245716,0,0)" />
  <g
     id="g4186"
     transform="matrix(0.5012029284404,-0.8653297779014,0.8653297779014,0.5012029284404,-61.55371417232,234.4249036832)">
    <path
       d="m 343,255 a 98,98 0 0 0 -98,0"
       id="path4188"
       style="fill:none;stroke:#ffffff;stroke-width:34;stroke-linecap:butt;stroke-linejoin:round" />
    <path
       d="m 343,255 a 98,98 0 0 0 -98,0"
       id="path4190"
       style="fill:none;stroke:#000000;stroke-width:26;stroke-linecap:butt;stroke-linejoin:round" />
  </g>
  <circle
     cx="-8.411932945251"
     cy="-331.9566040039"
     r="51"
     id="circle26"
     style="fill:#ffffff;stroke:#000000;stroke-width:4"
     transform="matrix(-0.4973027245716,0.8675770859893,-0.8675770859893,-0.4973027245716,0,0)" />
</svg>
