<?xml version="1.0" encoding="UTF-8" standalone="no"?>
<svg
   xmlns:dc="http://purl.org/dc/elements/1.1/"
   xmlns:cc="http://creativecommons.org/ns#"
   xmlns:rdf="http://www.w3.org/1999/02/22-rdf-syntax-ns#"
   xmlns:svg="http://www.w3.org/2000/svg"
   xmlns="http://www.w3.org/2000/svg"
   xmlns:sodipodi="http://sodipodi.sourceforge.net/DTD/sodipodi-0.dtd"
   xmlns:inkscape="http://www.inkscape.org/namespaces/inkscape"
   inkscape:version="1.0 (4035a4fb49, 2020-05-01)"
   height="357"
   width="393"
   sodipodi:docname="tile-10001.svg"
   id="svg26"
   version="1.1">
  <metadata
     id="metadata32">
    <rdf:RDF>
      <cc:Work
         rdf:about="">
        <dc:format>image/svg+xml</dc:format>
        <dc:type
           rdf:resource="http://purl.org/dc/dcmitype/StillImage" />
        <dc:title></dc:title>
      </cc:Work>
    </rdf:RDF>
  </metadata>
  <defs
     id="defs30" />
  <sodipodi:namedview
     inkscape:current-layer="svg26"
     inkscape:window-maximized="0"
     inkscape:window-y="88"
     inkscape:window-x="1021"
     inkscape:cy="237.95487"
     inkscape:cx="150.49999"
     inkscape:zoom="3.6933333"
     fit-margin-bottom="0"
     fit-margin-right="0"
     fit-margin-left="0"
     fit-margin-top="0"
     showgrid="false"
     id="namedview28"
     inkscape:window-height="1573"
     inkscape:window-width="2078"
     inkscape:pageshadow="2"
     inkscape:pageopacity="0"
     guidetolerance="10"
     gridtolerance="10"
     objecttolerance="10"
     borderopacity="1"
     bordercolor="#666666"
     pagecolor="#ffffff" />
  <path
     id="path2"
     stroke-linejoin="round"
     stroke-width="1"
     stroke="#c0c0c0"
     fill="#c0c0c0"
     d="M 98.499992,0.5 H 294.49999 l 98,170 -98,170 H 98.499992 L 0.49999229,170.5 Z" />
  <circle
     id="circle4"
     stroke-width="12"
     stroke="#ffffff"
     fill="#ffffff"
     r="51"
     cy="137.5"
     cx="140.49998" />
  <path
     id="path6"
     stroke-linejoin="round"
     stroke-linecap="butt"
     stroke-width="34"
     stroke="#ffffff"
     fill="none"
     d="m 343.49999,85.5 a 294,294 0 0 0 -147,255" />
  <path
     id="path8"
     stroke-linejoin="round"
     stroke-linecap="butt"
     stroke-width="34"
     stroke="#ffffff"
     fill="none"
     d="m 343.49999,85.5 a 294,294 0 0 1 -147,39 45,45 0 0 0 -39,23" />
  <path
     id="path10"
     stroke-linejoin="round"
     stroke-linecap="butt"
     stroke-width="34"
     stroke="#ffffff"
     fill="none"
     d="m 196.49999,340.5 a 294,294 0 0 0 -39,-147 45,45 0 0 1 0,-46" />
  <path
     id="path12"
     stroke-linejoin="round"
     stroke-linecap="butt"
     stroke-width="26"
     stroke="#000000"
     fill="none"
     d="m 343.49999,85.5 a 294,294 0 0 0 -147,255" />
  <path
     id="path14"
     stroke-linejoin="round"
     stroke-linecap="butt"
     stroke-width="26"
     stroke="#000000"
     fill="none"
     d="m 343.49999,85.5 a 294,294 0 0 1 -147,39 45,45 0 0 0 -39,23" />
  <path
     id="path16"
     stroke-linejoin="round"
     stroke-linecap="butt"
     stroke-width="26"
     stroke="#000000"
     fill="none"
     d="m 196.49999,340.5 a 294,294 0 0 0 -39,-147 45,45 0 0 1 0,-46" />
  <circle
     id="circle18"
     stroke-width="4"
     stroke="#000000"
     fill="#ffffff"
     r="51"
     cy="137.5"
     cx="140.49998" />
  <ellipse
     id="ellipse20"
     stroke-linejoin="round"
     stroke-width="2"
     stroke="#000000"
     fill="#ffffff"
     cy="43.5"
     cx="123.49999"
     ry="34"
     rx="38" />
  <text
     id="text22"
     font-size="51px"
     font-family="'Bookman Old Style'"
     text-anchor="middle"
     stroke="#000000"
     fill="#000000"
     dy="15.3"
     y="43.5"
     x="123.49999">30</text>
  <path
     id="path24"
     stroke-linejoin="round"
     stroke-width="1"
     stroke="#000000"
     fill="none"
     d="M 98.499992,0.5 H 294.49999 l 98,170 -98,170 H 98.499992 L 0.49999229,170.5 Z" />
</svg>
