<?xml version="1.0"?>
<svg version="1.1" xmlns="http://www.w3.org/2000/svg"><path d=" M 98,0 L 294,0 L 392,170 L 294,340 L 98,340 L 0,170 Z" fill="#38AC00" stroke="#38AC00" stroke-width="1" stroke-linejoin="round"/><text x="245" y="318" dy="0.3em" fill="#000000" stroke="#000000" text-anchor="middle" font-family="Arial" font-size="34">1454</text><polygon points="145,119 247,119 247,221 145,221" fill="#FFFFFF" stroke="#FFFFFF" stroke-width="12"/><circle cx="145" cy="170" r="51" fill="#FFFFFF" stroke="#FFFFFF" stroke-width="12"/><circle cx="247" cy="170" r="51" fill="#FFFFFF" stroke="#FFFFFF" stroke-width="12"/><path d="M 196,170 L 343,255" fill="none" stroke="#FFFFFF" stroke-width="34" stroke-linecap="butt" stroke-linejoin="round"/><path d="M 196,170 L 196,340" fill="none" stroke="#FFFFFF" stroke-width="34" stroke-linecap="butt" stroke-linejoin="round"/><path d="M 196,170 L 49,255" fill="none" stroke="#FFFFFF" stroke-width="34" stroke-linecap="butt" stroke-linejoin="round"/><path d="M 196,170 L 343,255" fill="none" stroke="#000000" stroke-width="26" stroke-linecap="butt" stroke-linejoin="round"/><path d="M 196,170 L 196,340" fill="none" stroke="#000000" stroke-width="26" stroke-linecap="butt" stroke-linejoin="round"/><path d="M 196,170 L 49,255" fill="none" stroke="#000000" stroke-width="26" stroke-linecap="butt" stroke-linejoin="round"/><polygon points="145,119 247,119 247,221 145,221" fill="#FFFFFF" stroke="#000000" stroke-width="4"/><circle cx="145" cy="170" r="51" fill="#FFFFFF" stroke="#000000" stroke-width="4"/><circle cx="247" cy="170" r="51" fill="#FFFFFF" stroke="#000000" stroke-width="4"/><ellipse rx="38" ry="34" cx="123" cy="297" fill="#FFFFFF" stroke="#000000" stroke-width="2" stroke-linejoin="round"/><text x="123" y="297" dy="0.3em" fill="#000000" stroke="#000000" text-anchor="middle" font-family="Bookman Old Style" font-size="51">30</text><text x="196" y="43" dy="0.3em" fill="#000000" stroke="#000000" text-anchor="middle" font-family="TimpaniHeavy" font-size="51">Savannah</text><path d=" M 98,0 L 294,0 L 392,170 L 294,340 L 98,340 L 0,170 Z" fill="none" stroke="black" stroke-width="1" stroke-linejoin="round"/></svg>
