<?xml version="1.0"?>
<svg version="1.1" xmlns="http://www.w3.org/2000/svg"><path d=" M 98,0 L 294,0 L 392,170 L 294,340 L 98,340 L 0,170 Z" fill="#38AC00" stroke="#38AC00" stroke-width="1" stroke-linejoin="round"/><text x="245" y="318" dy="0.3em" fill="#000000" stroke="#000000" text-anchor="middle" font-family="Arial" font-size="17">3904</text><line x1="166" y1="170" x2="226" y2="170" stroke="#FFFFFF" stroke-width="34" stroke-linecap="butt"/><line x1="131" y1="208" x2="183" y2="178" stroke="#FFFFFF" stroke-width="34" stroke-linecap="butt"/><path d="M 196,340 L 196,170" fill="none" stroke="#FFFFFF" stroke-width="34" stroke-linecap="butt" stroke-linejoin="round"/><path d="M 196,170 L 196,0" fill="none" stroke="#FFFFFF" stroke-width="34" stroke-linecap="butt" stroke-linejoin="round"/><path d="M 196,340 A 294,294 0 0,0 157,193" fill="none" stroke="#FFFFFF" stroke-width="34" stroke-linecap="butt" stroke-linejoin="round"/><path d="M 157,193 A 294,294 0 0,0 49,85" fill="none" stroke="#FFFFFF" stroke-width="34" stroke-linecap="butt" stroke-linejoin="round"/><path d="M 196,340 L 196,170" fill="none" stroke="#000000" stroke-width="26" stroke-linecap="butt" stroke-linejoin="round"/><path d="M 196,170 L 196,0" fill="none" stroke="#000000" stroke-width="26" stroke-linecap="butt" stroke-linejoin="round"/><path d="M 196,340 A 294,294 0 0,0 157,193" fill="none" stroke="#000000" stroke-width="26" stroke-linecap="butt" stroke-linejoin="round"/><path d="M 157,193 A 294,294 0 0,0 49,85" fill="none" stroke="#000000" stroke-width="26" stroke-linecap="butt" stroke-linejoin="round"/><line x1="170" y1="170" x2="222" y2="170" stroke="#000000" stroke-width="26" stroke-linecap="butt"/><ellipse rx="13" ry="13" cx="294" cy="170" fill="#FFFFFF" stroke="#000000" stroke-width="2" stroke-linejoin="round"/><text x="294" y="170" dy="0.3em" fill="#000000" stroke="#000000" text-anchor="middle" font-family="Bookman Old Style" font-size="17">10</text><line x1="134" y1="206" x2="180" y2="180" stroke="#000000" stroke-width="26" stroke-linecap="butt"/><ellipse rx="13" ry="13" cx="86" cy="233" fill="#FFFFFF" stroke="#000000" stroke-width="2" stroke-linejoin="round"/><text x="86" y="233" dy="0.3em" fill="#000000" stroke="#000000" text-anchor="middle" font-family="Bookman Old Style" font-size="17">10</text><path d=" M 98,0 L 294,0 L 392,170 L 294,340 L 98,340 L 0,170 Z" fill="none" stroke="black" stroke-width="1" stroke-linejoin="round"/></svg>
