<?xml version="1.0" encoding="UTF-8" standalone="no"?>
<svg
   xmlns:dc="http://purl.org/dc/elements/1.1/"
   xmlns:cc="http://creativecommons.org/ns#"
   xmlns:rdf="http://www.w3.org/1999/02/22-rdf-syntax-ns#"
   xmlns:svg="http://www.w3.org/2000/svg"
   xmlns:sodipodi="http://sodipodi.sourceforge.net/DTD/sodipodi-0.dtd"
   xmlns:inkscape="http://www.inkscape.org/namespaces/inkscape"
   version="1.1"
   id="svg2"
   inkscape:version="0.48.4 r9939"
   width="393.00897"
   height="357.5"
   sodipodi:docname="tile298.svg">
  <metadata
     id="metadata76">
    <rdf:RDF>
      <cc:Work
         rdf:about="">
        <dc:format>image/svg+xml</dc:format>
        <dc:type
           rdf:resource="http://purl.org/dc/dcmitype/StillImage" />
        <dc:title></dc:title>
      </cc:Work>
    </rdf:RDF>
  </metadata>
  <defs
     id="defs74" />
  <sodipodi:namedview
     pagecolor="#ffffff"
     bordercolor="#666666"
     borderopacity="1"
     objecttolerance="10"
     gridtolerance="10"
     guidetolerance="10"
     inkscape:pageopacity="0"
     inkscape:pageshadow="2"
     inkscape:window-width="1615"
     inkscape:window-height="1026"
     id="namedview72"
     showgrid="false"
     inkscape:zoom="3.3332155"
     inkscape:cx="196"
     inkscape:cy="834.36049"
     inkscape:window-x="65"
     inkscape:window-y="24"
     inkscape:window-maximized="1"
     inkscape:current-layer="svg2" />
  <path
     d=" M 98,0 L 294,0 L 392,170 L 294,340 L 98,340 L 0,170 Z"
     id="path4"
     stroke-linejoin="round"
     stroke-width="1"
     stroke="#38AC00"
     fill="#38AC00" />
  <text
     x="263"
     y="318"
     dy="0"
     font-size="17"
     id="text6"
     style="font-size:17px;text-anchor:middle;fill:#000000;stroke:#000000;font-family:Arial">298</text>
  <circle
     cx="196"
     cy="43"
     r="51"
     id="circle8"
     sodipodi:cx="196"
     sodipodi:cy="43"
     sodipodi:rx="51"
     sodipodi:ry="51"
     transform="matrix(0.86821811,0,0,0.87387868,18.328986,12.623471)"
     style="fill:#ffffff;stroke:#ffffff;stroke-width:12" />
  <circle
     cx="269"
     cy="128"
     r="51"
     id="circle10"
     sodipodi:cx="269"
     sodipodi:cy="128"
     sodipodi:rx="51"
     sodipodi:ry="51"
     transform="matrix(0.96471944,0,0,0.9221423,19.690832,-3.0846765)"
     style="fill:#ffffff;stroke:#ffffff;stroke-width:12" />
  <circle
     cx="271"
     cy="226"
     r="51"
     id="circle12"
     sodipodi:cx="271"
     sodipodi:cy="226"
     sodipodi:rx="51"
     sodipodi:ry="51"
     transform="matrix(0.91258914,0,0,1.0059887,28.488514,-1.5034436)"
     style="fill:#ffffff;stroke:#ffffff;stroke-width:12" />
  <circle
     cx="196"
     cy="297"
     r="51"
     id="circle14"
     sodipodi:cx="196"
     sodipodi:cy="297"
     sodipodi:rx="51"
     sodipodi:ry="51"
     transform="matrix(0.92250252,0,0,0.88245398,10.650671,28.329858)"
     style="fill:#ffffff;stroke:#ffffff;stroke-width:12" />
  <path
     d="m 49.25235,84.387599 a 98.695342,100.42411 0 0 0 98.69534,0"
     id="path16"
     inkscape:connector-curvature="0"
     style="fill:none;stroke:#ffffff;stroke-width:34.53982925;stroke-linecap:butt;stroke-linejoin:round" />
  <path
     d="M 147,85 A 98,98 0 0,0 196,0"
     fill="none"
     stroke="#FFFFFF"
     stroke-width="34"
     stroke-linecap="butt"
     stroke-linejoin="round"
     id="path18" />
  <path
     d="M 157,193 A 294,294 0 0,0 49,85"
     fill="none"
     stroke="#FFFFFF"
     stroke-width="34"
     stroke-linecap="butt"
     stroke-linejoin="round"
     id="path20" />
  <path
     d="M 195.80483,339.80484 A 297.90069,296.85043 0 0 0 156.28739,191.37962"
     id="path22"
     inkscape:connector-curvature="0"
     style="fill:none;stroke:#ffffff;stroke-width:34.39031601;stroke-linecap:butt;stroke-linejoin:round" />
  <path
     d="M 49,85 L 343,255"
     fill="none"
     stroke="#FFFFFF"
     stroke-width="34"
     stroke-linecap="butt"
     stroke-linejoin="round"
     id="path24" />
  <path
     d="M 49,85 A 294,294 0 0,0 196,124"
     fill="none"
     stroke="#FFFFFF"
     stroke-width="34"
     stroke-linecap="butt"
     stroke-linejoin="round"
     id="path26" />
  <path
     d="M 194.85562,123.96265 A 296.17742,293.43687 0 0 0 342.94433,85.037351"
     id="path28"
     inkscape:connector-curvature="0"
     style="fill:none;stroke:#ffffff;stroke-width:34.09297562;stroke-linecap:butt;stroke-linejoin:round" />
  <path
     d="m 49.25235,84.387599 a 98.695342,100.42411 0 0 0 98.69534,0"
     id="path30"
     inkscape:connector-curvature="0"
     style="fill:none;stroke:#000000;stroke-width:26.41280937;stroke-linecap:butt;stroke-linejoin:round" />
  <path
     d="M 147,85 A 98,98 0 0,0 196,0"
     id="path32"
     stroke-linejoin="round"
     stroke-linecap="butt"
     stroke-width="26"
     stroke="#000000"
     fill="none" />
  <path
     d="M 157,193 A 294,294 0 0,0 49,85"
     id="path34"
     stroke-linejoin="round"
     stroke-linecap="butt"
     stroke-width="26"
     stroke="#000000"
     fill="none" />
  <path
     d="M 195.72438,339.88516 A 298.60145,296.12858 0.09821111 0 0 156.36784,191.75319"
     id="path36"
     inkscape:connector-curvature="0"
     style="fill:none;stroke:#000000;stroke-width:26.29735947;stroke-linecap:butt;stroke-linejoin:round" />
  <path
     d="M 49,85 L 343,255"
     fill="none"
     stroke="#000000"
     stroke-width="26"
     stroke-linecap="butt"
     stroke-linejoin="round"
     id="path38" />
  <path
     d="M 49,85 A 294,294 0 0,0 196,124"
     fill="none"
     stroke="#000000"
     stroke-width="26"
     stroke-linecap="butt"
     stroke-linejoin="round"
     id="path40" />
  <path
     d="M 192.64013,123.89258 A 300.46695,292.38039 0 0 0 342.8736,85.107425"
     id="path42"
     inkscape:connector-curvature="0"
     style="fill:none;stroke:#000000;stroke-width:26.2118988;stroke-linecap:butt;stroke-linejoin:round" />
  <circle
     cx="196"
     cy="43"
     r="51"
     id="circle44"
     sodipodi:cx="196"
     sodipodi:cy="43"
     sodipodi:rx="51"
     sodipodi:ry="51"
     transform="matrix(0.86821811,0,0,0.87387868,18.328986,12.623471)"
     style="fill:#ffffff;stroke:#000000;stroke-width:4" />
  <ellipse
     rx="13"
     ry="13"
     cx="123"
     cy="43"
     fill="#FFFFFF"
     stroke="#000000"
     stroke-width="2"
     stroke-linejoin="round"
     id="ellipse46" />
  <text
     x="123"
     y="43"
     dy="0.3em"
     fill="#000000"
     stroke="#000000"
     text-anchor="middle"
     font-family="Bookman Old Style"
     font-size="17"
     id="text48">40</text>
  <circle
     cx="269"
     cy="128"
     r="51"
     id="circle50"
     sodipodi:cx="269"
     sodipodi:cy="128"
     sodipodi:rx="51"
     sodipodi:ry="51"
     transform="matrix(0.96471944,0,0,0.9221423,19.690832,-3.0846765)"
     style="fill:#ffffff;stroke:#000000;stroke-width:4" />
  <ellipse
     rx="13"
     ry="13"
     cx="123"
     cy="43"
     fill="#FFFFFF"
     stroke="#000000"
     stroke-width="2"
     stroke-linejoin="round"
     id="ellipse52" />
  <text
     x="123"
     y="43"
     dy="0.3em"
     fill="#000000"
     stroke="#000000"
     text-anchor="middle"
     font-family="Bookman Old Style"
     font-size="17"
     id="text54">40</text>
  <circle
     cx="271"
     cy="226"
     r="51"
     id="circle56"
     sodipodi:cx="271"
     sodipodi:cy="226"
     sodipodi:rx="51"
     sodipodi:ry="51"
     transform="matrix(0.91258914,0,0,1.0059887,28.488514,-1.5034436)"
     style="fill:#ffffff;stroke:#000000;stroke-width:4" />
  <ellipse
     rx="13"
     ry="13"
     cx="123"
     cy="43"
     fill="#FFFFFF"
     stroke="#000000"
     stroke-width="2"
     stroke-linejoin="round"
     id="ellipse58" />
  <text
     x="123"
     y="43"
     dy="0.3em"
     fill="#000000"
     stroke="#000000"
     text-anchor="middle"
     font-family="Bookman Old Style"
     font-size="17"
     id="text60">40</text>
  <circle
     cx="196"
     cy="297"
     r="51"
     id="circle62"
     sodipodi:cx="196"
     sodipodi:cy="297"
     sodipodi:rx="51"
     sodipodi:ry="51"
     transform="matrix(0.93251165,0,0,0.87911359,9.5966495,29.548896)"
     style="fill:#ffffff;stroke:#000000;stroke-width:4" />
  <ellipse
     rx="13"
     ry="13"
     cx="123"
     cy="43"
     fill="#FFFFFF"
     stroke="#000000"
     stroke-width="2"
     stroke-linejoin="round"
     id="ellipse64" />
  <text
     x="123"
     y="49"
     dy="0"
     font-size="17"
     id="text66"
     style="font-size:17px;text-anchor:middle;fill:#000000;stroke:#000000;font-family:Bookman Old Style">40</text>
  <text
     x="49"
     y="170"
     dy="0.3em"
     fill="#000000"
     stroke="#000000"
     text-anchor="middle"
     font-family="TimpaniHeavy"
     font-size="34"
     id="text68">Chi</text>
  <path
     d=" M 98,0 L 294,0 L 392,170 L 294,340 L 98,340 L 0,170 Z"
     fill="none"
     stroke="black"
     stroke-width="1"
     stroke-linejoin="round"
     id="path70" />
</svg>
