<?xml version="1.0"?>
<svg version="1.1" xmlns="http://www.w3.org/2000/svg"><path d=" M 98,0 L 294,0 L 392,170 L 294,340 L 98,340 L 0,170 Z" fill="#FF0000" stroke="#FF0000" stroke-width="1" stroke-linejoin="round"/><circle cx="269" cy="212" r="51" fill="#FFFFFF" stroke="#FFFFFF" stroke-width="12"/><path d="M 343,85 A 98,98 0 0,0 294,170 L 269,212" fill="none" stroke="#FFFFFF" stroke-width="34" stroke-linecap="butt" stroke-linejoin="round"/><path d="M 269,212 L 343,255" fill="none" stroke="#FFFFFF" stroke-width="34" stroke-linecap="butt" stroke-linejoin="round"/><path d="M 196,340 A 98,98 0 0,1 245,255 L 269,212" fill="none" stroke="#FFFFFF" stroke-width="34" stroke-linecap="butt" stroke-linejoin="round"/><path d="M 343,85 A 98,98 0 0,0 294,170 L 269,212" fill="none" stroke="#000000" stroke-width="26" stroke-linecap="butt" stroke-linejoin="round"/><path d="M 269,212 L 343,255" fill="none" stroke="#000000" stroke-width="26" stroke-linecap="butt" stroke-linejoin="round"/><path d="M 196,340 A 98,98 0 0,1 245,255 L 269,212" fill="none" stroke="#000000" stroke-width="26" stroke-linecap="butt" stroke-linejoin="round"/><circle cx="269" cy="212" r="51" fill="#FFFFFF" stroke="#000000" stroke-width="4"/><text x="196" y="43" dy="0.3em" fill="#000000" stroke="#000000" text-anchor="middle" font-family="TimpaniHeavy" font-size="51">Hamburg</text><path d=" M 98,0 L 294,0 L 392,170 L 294,340 L 98,340 L 0,170 Z" fill="none" stroke="black" stroke-width="1" stroke-linejoin="round"/></svg>
