<?xml version="1.0"?>
<svg version="1.1" xmlns="http://www.w3.org/2000/svg"><path d=" M 98,0 L 294,0 L 392,170 L 294,340 L 98,340 L 0,170 Z" fill="#FFFF00" stroke="#FFFF00" stroke-width="1" stroke-linejoin="round"/><text x="245" y="318" dy="0.3em" fill="#000000" stroke="#000000" text-anchor="middle" font-family="Arial" font-size="34">8856</text><line x1="177" y1="257" x2="235" y2="271" stroke="#FFFFFF" stroke-width="34" stroke-linecap="butt"/><line x1="177" y1="83" x2="235" y2="69" stroke="#FFFFFF" stroke-width="34" stroke-linecap="butt"/><path d="M 206,264 A 294,294 0 0,0 196,340" fill="none" stroke="#FFFFFF" stroke-width="34" stroke-linecap="butt" stroke-linejoin="round"/><path d="M 196,0 A 294,294 0 0,0 206,76" fill="none" stroke="#FFFFFF" stroke-width="34" stroke-linecap="butt" stroke-linejoin="round"/><path d="M 343,85 A 294,294 0 0,0 206,264" fill="none" stroke="#FFFFFF" stroke-width="34" stroke-linecap="butt" stroke-linejoin="round"/><path d="M 206,76 A 294,294 0 0,0 343,255" fill="none" stroke="#FFFFFF" stroke-width="34" stroke-linecap="butt" stroke-linejoin="round"/><path d="M 206,264 A 294,294 0 0,0 196,340" fill="none" stroke="#000000" stroke-width="26" stroke-linecap="butt" stroke-linejoin="round"/><path d="M 196,0 A 294,294 0 0,0 206,76" fill="none" stroke="#000000" stroke-width="26" stroke-linecap="butt" stroke-linejoin="round"/><path d="M 343,85 A 294,294 0 0,0 206,264" fill="none" stroke="#000000" stroke-width="26" stroke-linecap="butt" stroke-linejoin="round"/><path d="M 206,76 A 294,294 0 0,0 343,255" fill="none" stroke="#000000" stroke-width="26" stroke-linecap="butt" stroke-linejoin="round"/><line x1="181" y1="258" x2="231" y2="270" stroke="#000000" stroke-width="26" stroke-linecap="butt"/><ellipse rx="38" ry="34" cx="123" cy="43" fill="#FFFFFF" stroke="#000000" stroke-width="2" stroke-linejoin="round"/><text x="123" y="43" dy="0.3em" fill="#000000" stroke="#000000" text-anchor="middle" font-family="Bookman Old Style" font-size="51">20</text><line x1="181" y1="82" x2="231" y2="70" stroke="#000000" stroke-width="26" stroke-linecap="butt"/><ellipse rx="38" ry="34" cx="269" cy="297" fill="#FFFFFF" stroke="#000000" stroke-width="2" stroke-linejoin="round"/><text x="269" y="297" dy="0.3em" fill="#000000" stroke="#000000" text-anchor="middle" font-family="Bookman Old Style" font-size="51">20</text><path d=" M 98,0 L 294,0 L 392,170 L 294,340 L 98,340 L 0,170 Z" fill="none" stroke="black" stroke-width="1" stroke-linejoin="round"/></svg>
