<?xml version="1.0"?>
<svg version="1.1" xmlns="http://www.w3.org/2000/svg"><path d=" M 98,0 L 294,0 L 392,170 L 294,340 L 98,340 L 0,170 Z" fill="#C0C0C0" stroke="#C0C0C0" stroke-width="1" stroke-linejoin="round"/><line x1="166" y1="170" x2="226" y2="170" stroke="#FFFFFF" stroke-width="34" stroke-linecap="butt"/><line x1="111" y1="234" x2="59" y2="204" stroke="#FFFFFF" stroke-width="34" stroke-linecap="butt"/><path d="M 196,170 L 196,0" fill="none" stroke="#FFFFFF" stroke-width="34" stroke-linecap="butt" stroke-linejoin="round"/><path d="M 49,255 A 98,98 0 0,0 85,219" fill="none" stroke="#FFFFFF" stroke-width="34" stroke-linecap="butt" stroke-linejoin="round"/><path d="M 85,219 A 98,98 0 0,0 49,85" fill="none" stroke="#FFFFFF" stroke-width="34" stroke-linecap="butt" stroke-linejoin="round"/><path d="M 196,170 L 196,0" fill="none" stroke="#000000" stroke-width="26" stroke-linecap="butt" stroke-linejoin="round"/><path d="M 49,255 A 98,98 0 0,0 85,219" fill="none" stroke="#000000" stroke-width="26" stroke-linecap="butt" stroke-linejoin="round"/><path d="M 85,219 A 98,98 0 0,0 49,85" fill="none" stroke="#000000" stroke-width="26" stroke-linecap="butt" stroke-linejoin="round"/><line x1="170" y1="170" x2="222" y2="170" stroke="#000000" stroke-width="26" stroke-linecap="butt"/><line x1="108" y1="232" x2="62" y2="206" stroke="#000000" stroke-width="26" stroke-linecap="butt"/><ellipse rx="38" ry="34" cx="123" cy="297" fill="#FFFFFF" stroke="#000000" stroke-width="2" stroke-linejoin="round"/><text x="123" y="297" dy="0.3em" fill="#000000" stroke="#000000" text-anchor="middle" font-family="Bookman Old Style" font-size="51">10</text><path d=" M 98,0 L 294,0 L 392,170 L 294,340 L 98,340 L 0,170 Z" fill="none" stroke="black" stroke-width="1" stroke-linejoin="round"/></svg>
