<?xml version="1.0"?>
<svg version="1.1" xmlns="http://www.w3.org/2000/svg"><path d=" M 98,0 L 294,0 L 392,170 L 294,340 L 98,340 L 0,170 Z" fill="#FFFF00" stroke="#FFFF00" stroke-width="1" stroke-linejoin="round"/><circle cx="140" cy="137" r="51" fill="#FFFFFF" stroke="#FFFFFF" stroke-width="12"/><circle cx="245" cy="255" r="51" fill="#FFFFFF" stroke="#FFFFFF" stroke-width="12"/><path d="M 245,255 A 98,98 0 0,0 196,340" fill="none" stroke="#FFFFFF" stroke-width="34" stroke-linecap="butt" stroke-linejoin="round"/><path d="M 343,255 A 98,98 0 0,0 245,255" fill="none" stroke="#FFFFFF" stroke-width="34" stroke-linecap="butt" stroke-linejoin="round"/><path d="M 49,255 A 294,294 0 0,0 157,147" fill="none" stroke="#FFFFFF" stroke-width="34" stroke-linecap="butt" stroke-linejoin="round"/><path d="M 157,147 A 294,294 0 0,0 196,0" fill="none" stroke="#FFFFFF" stroke-width="34" stroke-linecap="butt" stroke-linejoin="round"/><path d="M 245,255 A 98,98 0 0,0 196,340" fill="none" stroke="#000000" stroke-width="26" stroke-linecap="butt" stroke-linejoin="round"/><path d="M 343,255 A 98,98 0 0,0 245,255" fill="none" stroke="#000000" stroke-width="26" stroke-linecap="butt" stroke-linejoin="round"/><path d="M 49,255 A 294,294 0 0,0 157,147" fill="none" stroke="#000000" stroke-width="26" stroke-linecap="butt" stroke-linejoin="round"/><path d="M 157,147 A 294,294 0 0,0 196,0" fill="none" stroke="#000000" stroke-width="26" stroke-linecap="butt" stroke-linejoin="round"/><circle cx="140" cy="137" r="51" fill="#FFFFFF" stroke="#000000" stroke-width="4"/><ellipse rx="38" ry="34" cx="269" cy="128" fill="#FFFFFF" stroke="#000000" stroke-width="2" stroke-linejoin="round"/><text x="269" y="128" dy="0.3em" fill="#000000" stroke="#000000" text-anchor="middle" font-family="Bookman Old Style" font-size="51">40</text><circle cx="245" cy="255" r="51" fill="#FFFFFF" stroke="#000000" stroke-width="4"/><ellipse rx="38" ry="34" cx="269" cy="128" fill="#FFFFFF" stroke="#000000" stroke-width="2" stroke-linejoin="round"/><text x="269" y="128" dy="0.3em" fill="#000000" stroke="#000000" text-anchor="middle" font-family="Bookman Old Style" font-size="51">40</text><path d=" M 98,0 L 294,0 L 392,170 L 294,340 L 98,340 L 0,170 Z" fill="none" stroke="black" stroke-width="1" stroke-linejoin="round"/></svg>
