<?xml version="1.0"?>
<svg version="1.1" xmlns="http://www.w3.org/2000/svg">
<path d=" M 98,0 L 294,0 L 392,170 L 294,340 L 98,340 L 0,170 Z" fill="#FF0000" stroke="#FF0000" stroke-width="1" stroke-linejoin="round"/>
<polygon points="145,90 247,90 291,167 240,255 152,255 101,167" fill="#FFFFFF" stroke="#FFFFFF" stroke-width="12"/>
<circle cx="145" cy="141" r="51" fill="#FFFFFF" stroke="#FFFFFF" stroke-width="12"/>
<circle cx="247" cy="141" r="51" fill="#FFFFFF" stroke="#FFFFFF" stroke-width="12"/>
<circle cx="196" cy="229" r="51" fill="#FFFFFF" stroke="#FFFFFF" stroke-width="12"/>
<path d="M 196,170 L 196,0" fill="none" stroke="#FFFFFF" stroke-width="34" stroke-linecap="butt" stroke-linejoin="round"/>
<path d="M 196,170 L 343,85" fill="none" stroke="#FFFFFF" stroke-width="34" stroke-linecap="butt" stroke-linejoin="round"/>
<path d="M 196,170 L 49,85" fill="none" stroke="#FFFFFF" stroke-width="34" stroke-linecap="butt" stroke-linejoin="round"/>
<path d="M 196,170 L 196,0" fill="none" stroke="#000000" stroke-width="26" stroke-linecap="butt" stroke-linejoin="round"/>
<path d="M 196,170 L 343,85" fill="none" stroke="#000000" stroke-width="26" stroke-linecap="butt" stroke-linejoin="round"/>
<path d="M 196,170 L 49,85" fill="none" stroke="#000000" stroke-width="26" stroke-linecap="butt" stroke-linejoin="round"/>
<polygon points="145,90 247,90 291,167 240,255 152,255 101,167" fill="#FFFFFF" stroke="#000000" stroke-width="4"/>
<circle cx="145" cy="141" r="51" fill="#FFFFFF" stroke="#000000" stroke-width="4"/>
<circle cx="247" cy="141" r="51" fill="#FFFFFF" stroke="#000000" stroke-width="4"/>
<circle cx="196" cy="229" r="51" fill="#FFFFFF" stroke="#000000" stroke-width="4"/>
<path d=" M 98,0 L 294,0 L 392,170 L 294,340 L 98,340 L 0,170 Z" fill="none" stroke="black" stroke-width="1" stroke-linejoin="round"/></svg>
