<?xml version="1.0"?>
<svg version="1.1" xmlns="http://www.w3.org/2000/svg"><path d=" M 98,0 L 294,0 L 392,170 L 294,340 L 98,340 L 0,170 Z" fill="#FFFF00" stroke="#FFFF00" stroke-width="1" stroke-linejoin="round"/><text x="245" y="318" dy="0.3em" fill="#000000" stroke="#000000" text-anchor="middle" font-family="Arial" font-size="31" font-weight="bold">71</text><line x1="279" y1="197" x2="263" y2="255" stroke="#FFFFFF" stroke-width="34" stroke-linecap="butt"/><line x1="113" y1="197" x2="129" y2="255" stroke="#FFFFFF" stroke-width="34" stroke-linecap="butt"/><path d="M 271,226 A 294,294 0 0,0 121,226" fill="none" stroke="#FFFFFF" stroke-width="34" stroke-linecap="butt" stroke-linejoin="round"/><path d="M 343,255 A 294,294 0 0,0 271,226" fill="none" stroke="#FFFFFF" stroke-width="34" stroke-linecap="butt" stroke-linejoin="round"/><path d="M 121,226 A 294,294 0 0,0 49,255" fill="none" stroke="#FFFFFF" stroke-width="34" stroke-linecap="butt" stroke-linejoin="round"/><path d="M 271,226 A 294,294 0 0,0 121,226" fill="none" stroke="#000000" stroke-width="26" stroke-linecap="butt" stroke-linejoin="round"/><path d="M 343,255 A 294,294 0 0,0 271,226" fill="none" stroke="#000000" stroke-width="26" stroke-linecap="butt" stroke-linejoin="round"/><path d="M 121,226 A 294,294 0 0,0 49,255" fill="none" stroke="#000000" stroke-width="26" stroke-linecap="butt" stroke-linejoin="round"/><path d="M 271,226 A 294,294 0 0,0 121,226" fill="none" stroke="#FFFFFF" stroke-width="18" stroke-linecap="butt" stroke-linejoin="round" stroke-dasharray="26"/><path d="M 343,255 A 294,294 0 0,0 271,226" fill="none" stroke="#FFFFFF" stroke-width="18" stroke-linecap="butt" stroke-linejoin="round" stroke-dasharray="26"/><path d="M 121,226 A 294,294 0 0,0 49,255" fill="none" stroke="#FFFFFF" stroke-width="18" stroke-linecap="butt" stroke-linejoin="round" stroke-dasharray="26"/><line x1="278" y1="201" x2="264" y2="251" stroke="#000000" stroke-width="26" stroke-linecap="butt"/><ellipse rx="31" ry="30" cx="343" cy="170" fill="#FFFFFF" stroke="#000000" stroke-width="2" stroke-linejoin="round"/><text x="343" y="170" dy="0.3em" fill="#000000" stroke="#000000" text-anchor="middle" font-family="Bookman Old Style" font-size="43">10</text><line x1="114" y1="201" x2="128" y2="251" stroke="#000000" stroke-width="26" stroke-linecap="butt"/><ellipse rx="31" ry="30" cx="49" cy="170" fill="#FFFFFF" stroke="#000000" stroke-width="2" stroke-linejoin="round"/><text x="49" y="170" dy="0.3em" fill="#000000" stroke="#000000" text-anchor="middle" font-family="Bookman Old Style" font-size="43">10</text><path d=" M 98,0 L 294,0 L 392,170 L 294,340 L 98,340 L 0,170 Z" fill="none" stroke="black" stroke-width="1" stroke-linejoin="round"/></svg>
