<?xml version="1.0" encoding="UTF-8" standalone="no"?>
<svg
   xmlns:dc="http://purl.org/dc/elements/1.1/"
   xmlns:cc="http://creativecommons.org/ns#"
   xmlns:rdf="http://www.w3.org/1999/02/22-rdf-syntax-ns#"
   xmlns:svg="http://www.w3.org/2000/svg"
   xmlns="http://www.w3.org/2000/svg"
   xmlns:sodipodi="http://sodipodi.sourceforge.net/DTD/sodipodi-0.dtd"
   xmlns:inkscape="http://www.inkscape.org/namespaces/inkscape"
   version="1.1"
   id="svg2"
   inkscape:version="0.48.2 r9819"
   width="100%"
   height="100%"
   sodipodi:docname="tile-30003.svg">
  <metadata
     id="metadata44">
    <rdf:RDF>
      <cc:Work
         rdf:about="">
        <dc:format>image/svg+xml</dc:format>
        <dc:type
           rdf:resource="http://purl.org/dc/dcmitype/StillImage" />
      </cc:Work>
    </rdf:RDF>
  </metadata>
  <defs
     id="defs42" />
  <sodipodi:namedview
     pagecolor="#ffffff"
     bordercolor="#666666"
     borderopacity="1"
     objecttolerance="10"
     gridtolerance="10"
     guidetolerance="10"
     inkscape:pageopacity="0"
     inkscape:pageshadow="2"
     inkscape:window-width="1745"
     inkscape:window-height="1038"
     id="namedview40"
     showgrid="false"
     inkscape:object-nodes="true"
     inkscape:zoom="1.2685914"
     inkscape:cx="275.0738"
     inkscape:cy="867.32838"
     inkscape:window-x="164"
     inkscape:window-y="-11"
     inkscape:window-maximized="1"
     inkscape:current-layer="svg2" />
  <path
     d=" M 98,0 L 294,0 L 392,170 L 294,340 L 98,340 L 0,170 Z"
     fill="#C0C0C0"
     stroke="#C0C0C0"
     stroke-width="1"
     stroke-linejoin="round"
     id="path4" />
  <circle
     cx="147"
     cy="85"
     r="51"
     fill="#FFFFFF"
     stroke="#FFFFFF"
     stroke-width="12"
     id="circle6" />
  <path
     d="M 343,255 A 294,294 0 0,0 49,255"
     fill="none"
     stroke="#FFFFFF"
     stroke-width="34"
     stroke-linecap="butt"
     stroke-linejoin="round"
     id="path10" />
  <path
     d="M 343,85 A 98,98 0 0,0 343,255"
     fill="none"
     stroke="#FFFFFF"
     stroke-width="34"
     stroke-linecap="butt"
     stroke-linejoin="round"
     id="path12" />
  <path
     d="M 49,255 A 98,98 0 0,0 98,170 A 98,98 0 0,1 147,85"
     fill="none"
     stroke="#FFFFFF"
     stroke-width="34"
     stroke-linecap="butt"
     stroke-linejoin="round"
     id="path14" />
  <path
     d="M 343,85 A 98,98 0 0,1 245,85 A 98,98 0 0,0 147,85"
     fill="none"
     stroke="#FFFFFF"
     stroke-width="34"
     stroke-linecap="butt"
     stroke-linejoin="round"
     id="path16" />
  <ellipse
     rx="38"
     ry="34"
     cx="123"
     cy="297"
     fill="#FFFFFF"
     stroke="#000000"
     stroke-width="2"
     stroke-linejoin="round"
     id="ellipse34" />
  <text
     x="123"
     y="297"
     dy="0.3em"
     fill="#000000"
     stroke="#000000"
     text-anchor="middle"
     font-family="Bookman Old Style"
     font-size="51"
     id="text36">10</text>
  <path
     d=" M 98,0 L 294,0 L 392,170 L 294,340 L 98,340 L 0,170 Z"
     fill="none"
     stroke="black"
     stroke-width="1"
     stroke-linejoin="round"
     id="path38" />
  <path
     style="fill:none;stroke:#ffffff;stroke-width:34;stroke-linecap:butt;stroke-linejoin:miter;stroke-opacity:1;color:#000000;stroke-miterlimit:4;stroke-dasharray:none;stroke-dashoffset:0;marker:none;visibility:visible;display:inline;overflow:visible;enable-background:accumulate"
     d="M 343,255 307.12477,234.94208 147,85"
     id="path3826"
     inkscape:connector-curvature="0"
     sodipodi:nodetypes="ccc" />
  <path
     style="color:#000000;fill:none;stroke:#000000;stroke-width:26;stroke-linecap:butt;stroke-linejoin:miter;stroke-miterlimit:4;stroke-opacity:1;stroke-dasharray:none;stroke-dashoffset:0;marker:none;visibility:visible;display:inline;overflow:visible;enable-background:accumulate"
     d="M 343,255 307.12477,234.94208 147,84.999999"
     id="path3826-8"
     inkscape:connector-curvature="0"
     sodipodi:nodetypes="ccc" />
  <path
     d="M 49,255 L 343,85"
     fill="none"
     stroke="#FFFFFF"
     stroke-width="34"
     stroke-linecap="butt"
     stroke-linejoin="round"
     id="path8" />
  <path
     d="M 343,85 A 98,98 0 0,0 343,255"
     fill="none"
     stroke="#000000"
     stroke-width="26"
     stroke-linecap="butt"
     stroke-linejoin="round"
     id="path24" />
  <path
     d="M 343,85 A 98,98 0 0,1 245,85 A 98,98 0 0,0 147,85"
     id="path28"
     stroke-linejoin="round"
     stroke-linecap="butt"
     stroke-width="26"
     stroke="#000000"
     fill="none" />
  <path
     d="M 49,255 A 98,98 0 0,0 98,170 A 98,98 0 0,1 147,85"
     fill="none"
     stroke="#000000"
     stroke-width="26"
     stroke-linecap="butt"
     stroke-linejoin="round"
     id="path26" />
  <circle
     cx="147"
     cy="85"
     r="51"
     fill="#FFFFFF"
     stroke="#000000"
     stroke-width="4"
     id="circle32" />
  <path
     d="M 343,255 A 294,294 0 0,0 49,255"
     fill="none"
     stroke="#000000"
     stroke-width="26"
     stroke-linecap="butt"
     stroke-linejoin="round"
     id="path22" />
  <path
     d="M 49,255 L 343,85"
     fill="none"
     stroke="#000000"
     stroke-width="26"
     stroke-linecap="butt"
     stroke-linejoin="round"
     id="path20" />
</svg>
