<?xml version="1.0"?>
<svg version="1.1" xmlns="http://www.w3.org/2000/svg"><path d=" M 98,0 L 294,0 L 392,170 L 294,340 L 98,340 L 0,170 Z" fill="#FFFF00" stroke="#FFFF00" stroke-width="1" stroke-linejoin="round"/><text x="245" y="318" dy="0.3em" fill="#000000" stroke="#000000" text-anchor="middle" font-family="Arial" font-size="31" font-weight="bold">630</text><line x1="261" y1="132" x2="209" y2="162" stroke="#FFFFFF" stroke-width="34" stroke-linecap="butt"/><line x1="68" y1="170" x2="128" y2="170" stroke="#FFFFFF" stroke-width="34" stroke-linecap="butt"/><path d="M 196,0 A 294,294 0 0,0 235,147" fill="none" stroke="#FFFFFF" stroke-width="34" stroke-linecap="butt" stroke-linejoin="round"/><path d="M 235,147 A 294,294 0 0,0 343,255" fill="none" stroke="#FFFFFF" stroke-width="34" stroke-linecap="butt" stroke-linejoin="round"/><path d="M 49,255 A 98,98 0 0,0 98,170" fill="none" stroke="#FFFFFF" stroke-width="34" stroke-linecap="butt" stroke-linejoin="round"/><path d="M 98,170 A 98,98 0 0,0 49,85" fill="none" stroke="#FFFFFF" stroke-width="34" stroke-linecap="butt" stroke-linejoin="round"/><path d="M 196,0 A 294,294 0 0,0 235,147" fill="none" stroke="#000000" stroke-width="26" stroke-linecap="butt" stroke-linejoin="round"/><path d="M 235,147 A 294,294 0 0,0 343,255" fill="none" stroke="#000000" stroke-width="26" stroke-linecap="butt" stroke-linejoin="round"/><path d="M 49,255 A 98,98 0 0,0 98,170" fill="none" stroke="#000000" stroke-width="26" stroke-linecap="butt" stroke-linejoin="round"/><path d="M 98,170 A 98,98 0 0,0 49,85" fill="none" stroke="#000000" stroke-width="26" stroke-linecap="butt" stroke-linejoin="round"/><line x1="258" y1="134" x2="212" y2="160" stroke="#000000" stroke-width="26" stroke-linecap="butt"/><ellipse rx="31" ry="30" cx="343" cy="170" fill="#FFFFFF" stroke="#000000" stroke-width="2" stroke-linejoin="round"/><text x="343" y="170" dy="0.3em" fill="#000000" stroke="#000000" text-anchor="middle" font-family="Bookman Old Style" font-size="43">10</text><line x1="72" y1="170" x2="124" y2="170" stroke="#000000" stroke-width="26" stroke-linecap="butt"/><ellipse rx="31" ry="30" cx="123" cy="43" fill="#FFFFFF" stroke="#000000" stroke-width="2" stroke-linejoin="round"/><text x="123" y="43" dy="0.3em" fill="#000000" stroke="#000000" text-anchor="middle" font-family="Bookman Old Style" font-size="43">10</text><path d=" M 98,0 L 294,0 L 392,170 L 294,340 L 98,340 L 0,170 Z" fill="none" stroke="black" stroke-width="1" stroke-linejoin="round"/></svg>
