<?xml version="1.0"?>
<svg version="1.1" xmlns="http://www.w3.org/2000/svg"><path d=" M 98,0 L 294,0 L 392,170 L 294,340 L 98,340 L 0,170 Z" fill="#38AC00" stroke="#38AC00" stroke-width="1" stroke-linejoin="round"/><text x="245" y="318" dy="0.3em" fill="#000000" stroke="#000000" text-anchor="middle" font-family="Arial" font-size="31" font-weight="bold">311</text><circle cx="245" cy="85" r="51" fill="#FFFFFF" stroke="#FFFFFF" stroke-width="12"/><polygon points="177,303 89,251 141,163 229,215" fill="#FFFFFF" stroke="#FFFFFF" stroke-width="12"/><circle cx="203" cy="259" r="51" fill="#FFFFFF" stroke="#FFFFFF" stroke-width="12"/><circle cx="115" cy="207" r="51" fill="#FFFFFF" stroke="#FFFFFF" stroke-width="12"/><path d="M 196,0 A 98,98 0 0,0 245,85" fill="none" stroke="#FFFFFF" stroke-width="34" stroke-linecap="butt" stroke-linejoin="round"/><path d="M 343,255 A 294,294 0 0,0 172,212" fill="none" stroke="#FFFFFF" stroke-width="34" stroke-linecap="butt" stroke-linejoin="round"/><path d="M 172,212 A 294,294 0 0,0 49,255" fill="none" stroke="#FFFFFF" stroke-width="34" stroke-linecap="butt" stroke-linejoin="round"/><path d="M 172,212 A 294,294 0 0,0 49,85" fill="none" stroke="#FFFFFF" stroke-width="34" stroke-linecap="butt" stroke-linejoin="round"/><path d="M 196,0 A 98,98 0 0,0 245,85" fill="none" stroke="#000000" stroke-width="26" stroke-linecap="butt" stroke-linejoin="round"/><path d="M 343,255 A 294,294 0 0,0 172,212" fill="none" stroke="#000000" stroke-width="26" stroke-linecap="butt" stroke-linejoin="round"/><path d="M 172,212 A 294,294 0 0,0 49,255" fill="none" stroke="#000000" stroke-width="26" stroke-linecap="butt" stroke-linejoin="round"/><path d="M 172,212 A 294,294 0 0,0 49,85" fill="none" stroke="#000000" stroke-width="26" stroke-linecap="butt" stroke-linejoin="round"/><circle cx="245" cy="85" r="51" fill="#FFFFFF" stroke="#000000" stroke-width="4"/><ellipse rx="31" ry="30" cx="123" cy="43" fill="#FFFFFF" stroke="#000000" stroke-width="2" stroke-linejoin="round"/><text x="123" y="43" dy="0.3em" fill="#000000" stroke="#000000" text-anchor="middle" font-family="Bookman Old Style" font-size="43">60</text><polygon points="177,303 89,251 141,163 229,215" fill="#FFFFFF" stroke="#000000" stroke-width="4"/><circle cx="203" cy="259" r="51" fill="#FFFFFF" stroke="#000000" stroke-width="4"/><circle cx="115" cy="207" r="51" fill="#FFFFFF" stroke="#000000" stroke-width="4"/><ellipse rx="31" ry="30" cx="123" cy="43" fill="#FFFFFF" stroke="#000000" stroke-width="2" stroke-linejoin="round"/><text x="123" y="43" dy="0.3em" fill="#000000" stroke="#000000" text-anchor="middle" font-family="Bookman Old Style" font-size="43">60</text><text x="343" y="170" dy="0.3em" fill="#000000" stroke="#000000" text-anchor="middle" font-family="TimpaniHeavy" font-size="54">HH</text><path d=" M 98,0 L 294,0 L 392,170 L 294,340 L 98,340 L 0,170 Z" fill="none" stroke="black" stroke-width="1" stroke-linejoin="round"/></svg>
