<?xml version="1.0"?>
<svg version="1.1" xmlns="http://www.w3.org/2000/svg"><path d=" M 98,0 L 294,0 L 392,170 L 294,340 L 98,340 L 0,170 Z" fill="#B46301" stroke="#B46301" stroke-width="1" stroke-linejoin="round"/><polygon points="145,68 247,68 298,119 298,221 247,272 145,272 94,221 94,119" fill="#FFFFFF" stroke="#FFFFFF" stroke-width="12"/><circle cx="145" cy="119" r="51" fill="#FFFFFF" stroke="#FFFFFF" stroke-width="12"/><circle cx="247" cy="119" r="51" fill="#FFFFFF" stroke="#FFFFFF" stroke-width="12"/><circle cx="247" cy="221" r="51" fill="#FFFFFF" stroke="#FFFFFF" stroke-width="12"/><circle cx="145" cy="221" r="51" fill="#FFFFFF" stroke="#FFFFFF" stroke-width="12"/><path d="M 196,170 L 196,340" fill="none" stroke="#FFFFFF" stroke-width="34" stroke-linecap="butt" stroke-linejoin="round"/><path d="M 196,170 L 343,255" fill="none" stroke="#FFFFFF" stroke-width="34" stroke-linecap="butt" stroke-linejoin="round"/><path d="M 196,170 L 343,85" fill="none" stroke="#FFFFFF" stroke-width="34" stroke-linecap="butt" stroke-linejoin="round"/><path d="M 196,170 L 196,0" fill="none" stroke="#FFFFFF" stroke-width="34" stroke-linecap="butt" stroke-linejoin="round"/><path d="M 196,170 L 196,340" fill="none" stroke="#000000" stroke-width="26" stroke-linecap="butt" stroke-linejoin="round"/><path d="M 196,170 L 343,255" fill="none" stroke="#000000" stroke-width="26" stroke-linecap="butt" stroke-linejoin="round"/><path d="M 196,170 L 343,85" fill="none" stroke="#000000" stroke-width="26" stroke-linecap="butt" stroke-linejoin="round"/><path d="M 196,170 L 196,0" fill="none" stroke="#000000" stroke-width="26" stroke-linecap="butt" stroke-linejoin="round"/><polygon points="145,68 247,68 298,119 298,221 247,272 145,272 94,221 94,119" fill="#FFFFFF" stroke="#000000" stroke-width="4"/><circle cx="145" cy="119" r="51" fill="#FFFFFF" stroke="#000000" stroke-width="4"/><circle cx="247" cy="119" r="51" fill="#FFFFFF" stroke="#000000" stroke-width="4"/><circle cx="247" cy="221" r="51" fill="#FFFFFF" stroke="#000000" stroke-width="4"/><circle cx="145" cy="221" r="51" fill="#FFFFFF" stroke="#000000" stroke-width="4"/><ellipse rx="38" ry="34" cx="343" cy="170" fill="#FFFFFF" stroke="#000000" stroke-width="2" stroke-linejoin="round"/><text x="343" y="170" dy="0.3em" fill="#000000" stroke="#000000" text-anchor="middle" font-family="Bookman Old Style" font-size="51">80</text><text x="49" y="170" dy="0.3em" fill="#000000" stroke="#000000" text-anchor="middle" font-family="TimpaniHeavy" font-size="51">NY</text><path d=" M 98,0 L 294,0 L 392,170 L 294,340 L 98,340 L 0,170 Z" fill="none" stroke="black" stroke-width="1" stroke-linejoin="round"/></svg>
