<?xml version="1.0"?>
<svg version="1.1" xmlns="http://www.w3.org/2000/svg"><path d=" M 98,0 L 294,0 L 392,170 L 294,340 L 98,340 L 0,170 Z" fill="#38AC00" stroke="#38AC00" stroke-width="1" stroke-linejoin="round"/><circle cx="86" cy="233" r="51" fill="#FFFFFF" stroke="#FFFFFF" stroke-width="12"/><circle cx="86" cy="107" r="51" fill="#FFFFFF" stroke="#FFFFFF" stroke-width="12"/><circle cx="196" cy="43" r="51" fill="#FFFFFF" stroke="#FFFFFF" stroke-width="12"/><circle cx="306" cy="107" r="51" fill="#FFFFFF" stroke="#FFFFFF" stroke-width="12"/><circle cx="306" cy="233" r="51" fill="#FFFFFF" stroke="#FFFFFF" stroke-width="12"/><circle cx="196" cy="297" r="51" fill="#FFFFFF" stroke="#FFFFFF" stroke-width="12"/><path d="M 49,85 L 86,107" fill="none" stroke="#FFFFFF" stroke-width="34" stroke-linecap="butt" stroke-linejoin="round"/><path d="M 49,255 L 86,233" fill="none" stroke="#FFFFFF" stroke-width="34" stroke-linecap="butt" stroke-linejoin="round"/><path d="M 196,340 L 196,297" fill="none" stroke="#FFFFFF" stroke-width="34" stroke-linecap="butt" stroke-linejoin="round"/><path d="M 343,255 L 306,233" fill="none" stroke="#FFFFFF" stroke-width="34" stroke-linecap="butt" stroke-linejoin="round"/><path d="M 343,85 L 306,107" fill="none" stroke="#FFFFFF" stroke-width="34" stroke-linecap="butt" stroke-linejoin="round"/><path d="M 196,0 L 196,43" fill="none" stroke="#FFFFFF" stroke-width="34" stroke-linecap="butt" stroke-linejoin="round"/><path d="M 49,85 L 86,107" fill="none" stroke="#000000" stroke-width="26" stroke-linecap="butt" stroke-linejoin="round"/><path d="M 49,255 L 86,233" fill="none" stroke="#000000" stroke-width="26" stroke-linecap="butt" stroke-linejoin="round"/><path d="M 196,340 L 196,297" fill="none" stroke="#000000" stroke-width="26" stroke-linecap="butt" stroke-linejoin="round"/><path d="M 343,255 L 306,233" fill="none" stroke="#000000" stroke-width="26" stroke-linecap="butt" stroke-linejoin="round"/><path d="M 343,85 L 306,107" fill="none" stroke="#000000" stroke-width="26" stroke-linecap="butt" stroke-linejoin="round"/><path d="M 196,0 L 196,43" fill="none" stroke="#000000" stroke-width="26" stroke-linecap="butt" stroke-linejoin="round"/><circle cx="86" cy="233" r="51" fill="#FFFFFF" stroke="#000000" stroke-width="4"/><ellipse rx="38" ry="34" cx="196" cy="170" fill="#FFFFFF" stroke="#000000" stroke-width="2" stroke-linejoin="round"/><text x="196" y="170" dy="0.3em" fill="#000000" stroke="#000000" text-anchor="middle" font-family="Bookman Old Style" font-size="51">50</text><circle cx="86" cy="107" r="51" fill="#FFFFFF" stroke="#000000" stroke-width="4"/><ellipse rx="38" ry="34" cx="196" cy="170" fill="#FFFFFF" stroke="#000000" stroke-width="2" stroke-linejoin="round"/><text x="196" y="170" dy="0.3em" fill="#000000" stroke="#000000" text-anchor="middle" font-family="Bookman Old Style" font-size="51">50</text><circle cx="196" cy="43" r="51" fill="#FFFFFF" stroke="#000000" stroke-width="4"/><ellipse rx="38" ry="34" cx="196" cy="170" fill="#FFFFFF" stroke="#000000" stroke-width="2" stroke-linejoin="round"/><text x="196" y="170" dy="0.3em" fill="#000000" stroke="#000000" text-anchor="middle" font-family="Bookman Old Style" font-size="51">50</text><circle cx="306" cy="107" r="51" fill="#FFFFFF" stroke="#000000" stroke-width="4"/><ellipse rx="38" ry="34" cx="196" cy="170" fill="#FFFFFF" stroke="#000000" stroke-width="2" stroke-linejoin="round"/><text x="196" y="170" dy="0.3em" fill="#000000" stroke="#000000" text-anchor="middle" font-family="Bookman Old Style" font-size="51">50</text><circle cx="306" cy="233" r="51" fill="#FFFFFF" stroke="#000000" stroke-width="4"/><ellipse rx="38" ry="34" cx="196" cy="170" fill="#FFFFFF" stroke="#000000" stroke-width="2" stroke-linejoin="round"/><text x="196" y="170" dy="0.3em" fill="#000000" stroke="#000000" text-anchor="middle" font-family="Bookman Old Style" font-size="51">50</text><circle cx="196" cy="297" r="51" fill="#FFFFFF" stroke="#000000" stroke-width="4"/><ellipse rx="38" ry="34" cx="196" cy="170" fill="#FFFFFF" stroke="#000000" stroke-width="2" stroke-linejoin="round"/><text x="196" y="170" dy="0.3em" fill="#000000" stroke="#000000" text-anchor="middle" font-family="Bookman Old Style" font-size="51">50</text><text x="196" y="124" dy="0.3em" fill="#000000" stroke="#000000" text-anchor="middle" font-family="TimpaniHeavy" font-size="51">London</text><path d=" M 98,0 L 294,0 L 392,170 L 294,340 L 98,340 L 0,170 Z" fill="none" stroke="black" stroke-width="1" stroke-linejoin="round"/></svg>
