<?xml version="1.0" encoding="UTF-8" standalone="no"?>
<svg
   xmlns:dc="http://purl.org/dc/elements/1.1/"
   xmlns:cc="http://web.resource.org/cc/"
   xmlns:rdf="http://www.w3.org/1999/02/22-rdf-syntax-ns#"
   xmlns:svg="http://www.w3.org/2000/svg"
   xmlns="http://www.w3.org/2000/svg"
   xmlns:sodipodi="http://sodipodi.sourceforge.net/DTD/sodipodi-0.dtd"
   xmlns:inkscape="http://www.inkscape.org/namespaces/inkscape"
   width="100"
   height="100"
   viewBox="0 0 1 1"
   preserveAspectRatio="none"
   id="svg4292"
   sodipodi:version="0.32"
   inkscape:version="0.45.1"
   sodipodi:docname="tile40.svg"
   sodipodi:docbase="C:\Documents and Settings\Brett\workspace\18xx\tiles\svg"
   version="1.0"
   inkscape:output_extension="org.inkscape.output.svg.inkscape">
  <metadata
     id="metadata4323">
    <rdf:RDF>
      <cc:Work
         rdf:about="">
        <dc:format>image/svg+xml</dc:format>
        <dc:type
           rdf:resource="http://purl.org/dc/dcmitype/StillImage" />
      </cc:Work>
    </rdf:RDF>
  </metadata>
  <defs
     id="defs4321" />
  <sodipodi:namedview
     inkscape:window-height="579"
     inkscape:window-width="749"
     inkscape:pageshadow="2"
     inkscape:pageopacity="0.0"
     borderopacity="1.0"
     bordercolor="#666666"
     pagecolor="#ffffff"
     id="base"
     inkscape:zoom="2.3846385"
     inkscape:cx="55.384616"
     inkscape:cy="33.421751"
     inkscape:window-x="110"
     inkscape:window-y="110"
     inkscape:current-layer="svg4292" />
  <title
     id="title4294">SVG drawing</title>
  <desc
     id="desc4296">This was produced by version 4.1 of GNU libplot, a free library for exporting 2-D vector graphics.</desc>
  <g
     transform="matrix(5.4170789e-3,0,0,-6.1397809e-3,-1.0798147e-3,0.9989655)"
     xml:space="preserve"
     style="font-style:normal;font-variant:normal;font-weight:normal;font-stretch:normal;letter-spacing:normal;word-spacing:normal;text-anchor:start;fill:none;fill-opacity:1;stroke:#000000;stroke-linecap:butt;stroke-linejoin:miter;stroke-miterlimit:10.43299961;stroke-dasharray:none;stroke-dashoffset:0;stroke-opacity:1"
     id="g4300">
<polygon
   points="46.5,160.5 138.5,160.5 184.5,80.5 138.5,0.5 46.5,0.5 0.5,80.5 46.5,160.5 "
   style="fill:#b46301;fill-rule:nonzero;stroke:#b46301;stroke-width:0;stroke-linejoin:round"
   id="polygon4302" />
<text
   transform="matrix(1,0,0,-1,111.22,7.9141)"
   style="font-size:8px;fill:#000000;stroke:none;font-family:&quot;Helvetica&quot;, sans-serif"
   id="text4304">40</text>


<path
   d="M 161.5,120.5 L 161.71,120.13 C 118.9,95.516 92.5,49.887 92.5,0.5"
   style="stroke:#ffffff;stroke-width:16;stroke-linecap:round;stroke-linejoin:round"
   id="path4306" />
<path
   d="M 23.5,120.5 L 23.711,120.87 C 44.637,108.84 68.359,102.5 92.5,102.5 C 116.64,102.5 140.37,108.84 161.3,120.87"
   style="stroke:#ffffff;stroke-width:16;stroke-linecap:round;stroke-linejoin:round"
   id="path4308" />
<path
   d="M 92.5,0.5 L 92.5,0.5 C 92.5,49.887 66.105,95.512 23.297,120.13"
   style="stroke:#ffffff;stroke-width:16;stroke-linecap:round;stroke-linejoin:round"
   id="path4310" />
<path
   d="M 161.5,120.5 L 161.71,120.13 C 118.9,95.516 92.5,49.887 92.5,0.5"
   style="stroke-width:12;stroke-linecap:round;stroke-linejoin:round"
   id="path4312" />
<path
   d="M 23.5,120.5 L 23.711,120.87 C 44.637,108.84 68.359,102.5 92.5,102.5 C 116.64,102.5 140.37,108.84 161.3,120.87"
   style="stroke-width:12;stroke-linecap:round;stroke-linejoin:round"
   id="path4314" />
<path
   d="M 92.5,0.5 L 92.5,0.5 C 92.5,49.887 66.105,95.512 23.297,120.13"
   style="stroke-width:12;stroke-linecap:round;stroke-linejoin:round"
   id="path4316" />
<polygon
   points="46.5,160.5 138.5,160.5 184.5,80.5 138.5,0.5 46.5,0.5 0.5,80.5 46.5,160.5 "
   style="stroke-width:1;stroke-linejoin:round"
   id="polygon4318" />
</g></svg>
