<?xml version="1.0" encoding="UTF-8" standalone="no"?>
<svg
   xmlns:dc="http://purl.org/dc/elements/1.1/"
   xmlns:cc="http://web.resource.org/cc/"
   xmlns:rdf="http://www.w3.org/1999/02/22-rdf-syntax-ns#"
   xmlns:svg="http://www.w3.org/2000/svg"
   xmlns="http://www.w3.org/2000/svg"
   xmlns:sodipodi="http://sodipodi.sourceforge.net/DTD/sodipodi-0.dtd"
   xmlns:inkscape="http://www.inkscape.org/namespaces/inkscape"
   width="100"
   height="100"
   viewBox="0 0 1 1"
   preserveAspectRatio="none"
   id="svg7956"
   sodipodi:version="0.32"
   inkscape:version="0.45.1"
   sodipodi:docname="tile65.svg"
   sodipodi:docbase="C:\Documents and Settings\Brett\workspace\18xx\tiles\svg"
   version="1.0"
   inkscape:output_extension="org.inkscape.output.svg.inkscape">
  <metadata
     id="metadata8021">
    <rdf:RDF>
      <cc:Work
         rdf:about="">
        <dc:format>image/svg+xml</dc:format>
        <dc:type
           rdf:resource="http://purl.org/dc/dcmitype/StillImage" />
      </cc:Work>
    </rdf:RDF>
  </metadata>
  <defs
     id="defs8019" />
  <sodipodi:namedview
     inkscape:window-height="579"
     inkscape:window-width="749"
     inkscape:pageshadow="2"
     inkscape:pageopacity="0.0"
     borderopacity="1.0"
     bordercolor="#666666"
     pagecolor="#ffffff"
     id="base"
     inkscape:zoom="2.8273557"
     inkscape:cx="73.955109"
     inkscape:cy="48.583144"
     inkscape:window-x="88"
     inkscape:window-y="88"
     inkscape:current-layer="svg7956" />
  <title
     id="title7958">SVG drawing</title>
  <desc
     id="desc7960">This was produced by version 4.1 of GNU libplot, a free library for exporting 2-D vector graphics.</desc>
  <g
     transform="matrix(5.4158853e-3,0,0,-6.1804261e-3,-9.6940964e-4,1.0010969)"
     xml:space="preserve"
     style="font-style:normal;font-variant:normal;font-weight:normal;font-stretch:normal;letter-spacing:normal;word-spacing:normal;text-anchor:start;fill:none;fill-opacity:1;stroke:#000000;stroke-linecap:butt;stroke-linejoin:miter;stroke-miterlimit:10.43299961;stroke-dasharray:none;stroke-dashoffset:0;stroke-opacity:1"
     id="g7964">
<polygon
   points="46.5,160.5 138.5,160.5 184.5,80.5 138.5,0.5 46.5,0.5 0.5,80.5 46.5,160.5 "
   style="fill:#b46301;fill-rule:nonzero;stroke:#b46301;stroke-width:0;stroke-linejoin:round"
   id="polygon7966" />
<text
   transform="matrix(1,0,0,-1,111.19,7.9141)"
   style="font-size:8px;fill:#000000;stroke:none;font-family:&quot;Helvetica&quot;, sans-serif"
   id="text7968">65</text>


<path
   d="M 90.5,95.5 L 90.469,96.735 L 90.376,97.954 L 90.223,99.155 L 90.012,100.34 L 89.744,101.5 L 89.421,102.64 L 89.044,103.75 L 88.614,104.84 L 88.133,105.9 L 87.603,106.94 L 87.025,107.94 L 86.401,108.92 L 85.732,109.86 L 85.019,110.77 L 84.265,111.64 L 83.47,112.47 L 82.637,113.26 L 81.766,114.02 L 80.859,114.73 L 79.918,115.4 L 78.944,116.03 L 77.939,116.6 L 76.905,117.13 L 75.841,117.61 L 74.752,118.04 L 73.637,118.42 L 72.498,118.74 L 71.337,119.01 L 70.155,119.22 L 68.954,119.38 L 67.735,119.47 L 66.5,119.5 C 53.246,119.5 42.5,108.75 42.5,95.5 C 42.5,82.246 53.246,71.5 66.5,71.5 C 79.754,71.5 90.5,82.246 90.5,95.5 z "
   style="fill:#ffffff;fill-rule:nonzero;stroke:#ffffff;stroke-width:0;stroke-linecap:round;stroke-linejoin:round"
   id="path7970" />
<path
   d="M 90.5,95.5 L 90.469,96.735 L 90.376,97.954 L 90.223,99.155 L 90.012,100.34 L 89.744,101.5 L 89.421,102.64 L 89.044,103.75 L 88.614,104.84 L 88.133,105.9 L 87.603,106.94 L 87.025,107.94 L 86.401,108.92 L 85.732,109.86 L 85.019,110.77 L 84.265,111.64 L 83.47,112.47 L 82.637,113.26 L 81.766,114.02 L 80.859,114.73 L 79.918,115.4 L 78.944,116.03 L 77.939,116.6 L 76.905,117.13 L 75.841,117.61 L 74.752,118.04 L 73.637,118.42 L 72.498,118.74 L 71.337,119.01 L 70.155,119.22 L 68.954,119.38 L 67.735,119.47 L 66.5,119.5 C 53.246,119.5 42.5,108.75 42.5,95.5 C 42.5,82.246 53.246,71.5 66.5,71.5 C 79.754,71.5 90.5,82.246 90.5,95.5 z "
   style="stroke:#ffffff;stroke-width:6;stroke-linecap:round;stroke-linejoin:round"
   id="path7972" />
<path
   d="M 139.5,40.5 L 139.47,41.735 L 139.38,42.954 L 139.22,44.155 L 139.01,45.337 L 138.74,46.498 L 138.42,47.637 L 138.04,48.752 L 137.61,49.841 L 137.13,50.905 L 136.6,51.939 L 136.03,52.944 L 135.4,53.918 L 134.73,54.859 L 134.02,55.766 L 133.26,56.637 L 132.47,57.47 L 131.64,58.265 L 130.77,59.019 L 129.86,59.732 L 128.92,60.401 L 127.94,61.025 L 126.94,61.603 L 125.9,62.133 L 124.84,62.614 L 123.75,63.044 L 122.64,63.421 L 121.5,63.744 L 120.34,64.012 L 119.15,64.223 L 117.95,64.376 L 116.73,64.469 L 115.5,64.5 C 102.25,64.5 91.5,53.754 91.5,40.5 C 91.5,27.246 102.25,16.5 115.5,16.5 C 128.75,16.5 139.5,27.246 139.5,40.5 z "
   style="fill:#ffffff;fill-rule:nonzero;stroke:#ffffff;stroke-width:0;stroke-linecap:round;stroke-linejoin:round"
   id="path7974" />
<path
   d="M 139.5,40.5 L 139.47,41.735 L 139.38,42.954 L 139.22,44.155 L 139.01,45.337 L 138.74,46.498 L 138.42,47.637 L 138.04,48.752 L 137.61,49.841 L 137.13,50.905 L 136.6,51.939 L 136.03,52.944 L 135.4,53.918 L 134.73,54.859 L 134.02,55.766 L 133.26,56.637 L 132.47,57.47 L 131.64,58.265 L 130.77,59.019 L 129.86,59.732 L 128.92,60.401 L 127.94,61.025 L 126.94,61.603 L 125.9,62.133 L 124.84,62.614 L 123.75,63.044 L 122.64,63.421 L 121.5,63.744 L 120.34,64.012 L 119.15,64.223 L 117.95,64.376 L 116.73,64.469 L 115.5,64.5 C 102.25,64.5 91.5,53.754 91.5,40.5 C 91.5,27.246 102.25,16.5 115.5,16.5 C 128.75,16.5 139.5,27.246 139.5,40.5 z "
   style="stroke:#ffffff;stroke-width:6;stroke-linecap:round;stroke-linejoin:round"
   id="path7976" />
<path
   d="M 23.5,40.5 L 23.297,40.871 C 44.289,52.941 61.738,70.332 73.883,91.281"
   style="stroke:#ffffff;stroke-width:16;stroke-linecap:round;stroke-linejoin:round"
   id="path7978" />
<path
   d="M 73.5,91.5 L 73.883,91.281 C 86.074,112.31 92.5,136.19 92.5,160.5"
   style="stroke:#ffffff;stroke-width:16;stroke-linecap:round;stroke-linejoin:round"
   id="path7980" />
<path
   d="M 161.5,40.5 L 161.43,40.375 C 154.46,44.387 146.55,46.5 138.5,46.5 C 130.46,46.5 122.55,44.387 115.57,40.379"
   style="stroke:#ffffff;stroke-width:16;stroke-linecap:round;stroke-linejoin:round"
   id="path7982" />
<path
   d="M 115.5,40.5 L 115.57,40.379 C 101.3,32.176 92.5,16.961 92.5,0.5"
   style="stroke:#ffffff;stroke-width:16;stroke-linecap:round;stroke-linejoin:round"
   id="path7984" />
<path
   d="M 23.5,40.5 L 23.297,40.871 C 44.289,52.941 61.738,70.332 73.883,91.281"
   style="stroke-width:12;stroke-linecap:round;stroke-linejoin:round"
   id="path7986" />
<path
   d="M 73.5,91.5 L 73.883,91.281 C 86.074,112.31 92.5,136.19 92.5,160.5"
   style="stroke-width:12;stroke-linecap:round;stroke-linejoin:round"
   id="path7988" />
<path
   d="M 161.5,40.5 L 161.43,40.375 C 154.46,44.387 146.55,46.5 138.5,46.5 C 130.46,46.5 122.55,44.387 115.57,40.379"
   style="stroke-width:12;stroke-linecap:round;stroke-linejoin:round"
   id="path7990" />
<path
   d="M 115.5,40.5 L 115.57,40.379 C 101.3,32.176 92.5,16.961 92.5,0.5"
   style="stroke-width:12;stroke-linecap:round;stroke-linejoin:round"
   id="path7992" />
<path
   d="M 90.5,95.5 L 90.469,96.735 L 90.376,97.954 L 90.223,99.155 L 90.012,100.34 L 89.744,101.5 L 89.421,102.64 L 89.044,103.75 L 88.614,104.84 L 88.133,105.9 L 87.603,106.94 L 87.025,107.94 L 86.401,108.92 L 85.732,109.86 L 85.019,110.77 L 84.265,111.64 L 83.47,112.47 L 82.637,113.26 L 81.766,114.02 L 80.859,114.73 L 79.918,115.4 L 78.944,116.03 L 77.939,116.6 L 76.905,117.13 L 75.841,117.61 L 74.752,118.04 L 73.637,118.42 L 72.498,118.74 L 71.337,119.01 L 70.155,119.22 L 68.954,119.38 L 67.735,119.47 L 66.5,119.5 C 53.246,119.5 42.5,108.75 42.5,95.5 C 42.5,82.246 53.246,71.5 66.5,71.5 C 79.754,71.5 90.5,82.246 90.5,95.5 z "
   style="fill:#ffffff;fill-rule:nonzero;stroke:#ffffff;stroke-width:0;stroke-linecap:round;stroke-linejoin:round"
   id="path7994" />
<path
   d="M 90.5,95.5 L 90.469,96.735 L 90.376,97.954 L 90.223,99.155 L 90.012,100.34 L 89.744,101.5 L 89.421,102.64 L 89.044,103.75 L 88.614,104.84 L 88.133,105.9 L 87.603,106.94 L 87.025,107.94 L 86.401,108.92 L 85.732,109.86 L 85.019,110.77 L 84.265,111.64 L 83.47,112.47 L 82.637,113.26 L 81.766,114.02 L 80.859,114.73 L 79.918,115.4 L 78.944,116.03 L 77.939,116.6 L 76.905,117.13 L 75.841,117.61 L 74.752,118.04 L 73.637,118.42 L 72.498,118.74 L 71.337,119.01 L 70.155,119.22 L 68.954,119.38 L 67.735,119.47 L 66.5,119.5 C 53.246,119.5 42.5,108.75 42.5,95.5 C 42.5,82.246 53.246,71.5 66.5,71.5 C 79.754,71.5 90.5,82.246 90.5,95.5 z "
   style="stroke-width:2;stroke-linecap:round;stroke-linejoin:round"
   id="path7996" />
<path
   d="M 66.992,140.5 L 66.981,140.72 L 66.948,140.93 L 66.894,141.14 L 66.82,141.35 L 66.725,141.56 L 66.61,141.76 L 66.477,141.95 L 66.324,142.15 L 66.154,142.33 L 65.967,142.52 L 65.762,142.69 L 65.541,142.87 L 65.304,143.03 L 65.052,143.19 L 64.785,143.35 L 64.504,143.49 L 64.209,143.63 L 63.901,143.77 L 63.58,143.89 L 63.247,144.01 L 62.902,144.12 L 62.547,144.22 L 62.181,144.32 L 61.804,144.4 L 61.419,144.48 L 61.024,144.54 L 60.621,144.6 L 60.211,144.65 L 59.793,144.69 L 59.368,144.71 L 58.937,144.73 L 58.5,144.73 C 53.812,144.73 50.008,142.84 50.008,140.5 C 50.008,138.16 53.812,136.27 58.5,136.27 C 63.188,136.27 66.992,138.16 66.992,140.5 z "
   style="fill:#ffffff;fill-rule:nonzero;stroke:#ffffff;stroke-width:0;stroke-linecap:round;stroke-linejoin:round"
   id="path7998" />
<path
   d="M 66.992,140.5 L 66.981,140.72 L 66.948,140.93 L 66.894,141.14 L 66.82,141.35 L 66.725,141.56 L 66.61,141.76 L 66.477,141.95 L 66.324,142.15 L 66.154,142.33 L 65.967,142.52 L 65.762,142.69 L 65.541,142.87 L 65.304,143.03 L 65.052,143.19 L 64.785,143.35 L 64.504,143.49 L 64.209,143.63 L 63.901,143.77 L 63.58,143.89 L 63.247,144.01 L 62.902,144.12 L 62.547,144.22 L 62.181,144.32 L 61.804,144.4 L 61.419,144.48 L 61.024,144.54 L 60.621,144.6 L 60.211,144.65 L 59.793,144.69 L 59.368,144.71 L 58.937,144.73 L 58.5,144.73 C 53.812,144.73 50.008,142.84 50.008,140.5 C 50.008,138.16 53.812,136.27 58.5,136.27 C 63.188,136.27 66.992,138.16 66.992,140.5 z "
   style="stroke-width:0.84906;stroke-linecap:round;stroke-linejoin:round"
   id="path8000" />
<text
   transform="matrix(1,0,0,-1,53.191,137.85)"
   style="font-size:8px;fill:#000000;stroke:none;font-family:&quot;Helvetica&quot;, sans-serif"
   id="text8002">50</text>


<path
   d="M 139.5,40.5 L 139.47,41.735 L 139.38,42.954 L 139.22,44.155 L 139.01,45.337 L 138.74,46.498 L 138.42,47.637 L 138.04,48.752 L 137.61,49.841 L 137.13,50.905 L 136.6,51.939 L 136.03,52.944 L 135.4,53.918 L 134.73,54.859 L 134.02,55.766 L 133.26,56.637 L 132.47,57.47 L 131.64,58.265 L 130.77,59.019 L 129.86,59.732 L 128.92,60.401 L 127.94,61.025 L 126.94,61.603 L 125.9,62.133 L 124.84,62.614 L 123.75,63.044 L 122.64,63.421 L 121.5,63.744 L 120.34,64.012 L 119.15,64.223 L 117.95,64.376 L 116.73,64.469 L 115.5,64.5 C 102.25,64.5 91.5,53.754 91.5,40.5 C 91.5,27.246 102.25,16.5 115.5,16.5 C 128.75,16.5 139.5,27.246 139.5,40.5 z "
   style="fill:#ffffff;fill-rule:nonzero;stroke:#ffffff;stroke-width:0;stroke-linecap:round;stroke-linejoin:round"
   id="path8004" />
<path
   d="M 139.5,40.5 L 139.47,41.735 L 139.38,42.954 L 139.22,44.155 L 139.01,45.337 L 138.74,46.498 L 138.42,47.637 L 138.04,48.752 L 137.61,49.841 L 137.13,50.905 L 136.6,51.939 L 136.03,52.944 L 135.4,53.918 L 134.73,54.859 L 134.02,55.766 L 133.26,56.637 L 132.47,57.47 L 131.64,58.265 L 130.77,59.019 L 129.86,59.732 L 128.92,60.401 L 127.94,61.025 L 126.94,61.603 L 125.9,62.133 L 124.84,62.614 L 123.75,63.044 L 122.64,63.421 L 121.5,63.744 L 120.34,64.012 L 119.15,64.223 L 117.95,64.376 L 116.73,64.469 L 115.5,64.5 C 102.25,64.5 91.5,53.754 91.5,40.5 C 91.5,27.246 102.25,16.5 115.5,16.5 C 128.75,16.5 139.5,27.246 139.5,40.5 z "
   style="stroke-width:2;stroke-linecap:round;stroke-linejoin:round"
   id="path8006" />
<path
   d="M 169.99,80.5 L 169.98,80.718 L 169.95,80.932 L 169.89,81.144 L 169.82,81.353 L 169.72,81.557 L 169.61,81.758 L 169.48,81.955 L 169.32,82.147 L 169.15,82.335 L 168.97,82.517 L 168.76,82.694 L 168.54,82.866 L 168.3,83.032 L 168.05,83.192 L 167.79,83.346 L 167.5,83.493 L 167.21,83.633 L 166.9,83.767 L 166.58,83.892 L 166.25,84.011 L 165.9,84.121 L 165.55,84.223 L 165.18,84.316 L 164.8,84.401 L 164.42,84.477 L 164.02,84.544 L 163.62,84.601 L 163.21,84.648 L 162.79,84.686 L 162.37,84.713 L 161.94,84.729 L 161.5,84.734 C 156.81,84.734 153.01,82.836 153.01,80.5 C 153.01,78.164 156.81,76.266 161.5,76.266 C 166.19,76.266 169.99,78.164 169.99,80.5 z "
   style="fill:#ffffff;fill-rule:nonzero;stroke:#ffffff;stroke-width:0;stroke-linecap:round;stroke-linejoin:round"
   id="path8008" />
<path
   d="M 169.99,80.5 L 169.98,80.718 L 169.95,80.932 L 169.89,81.144 L 169.82,81.353 L 169.72,81.557 L 169.61,81.758 L 169.48,81.955 L 169.32,82.147 L 169.15,82.335 L 168.97,82.517 L 168.76,82.694 L 168.54,82.866 L 168.3,83.032 L 168.05,83.192 L 167.79,83.346 L 167.5,83.493 L 167.21,83.633 L 166.9,83.767 L 166.58,83.892 L 166.25,84.011 L 165.9,84.121 L 165.55,84.223 L 165.18,84.316 L 164.8,84.401 L 164.42,84.477 L 164.02,84.544 L 163.62,84.601 L 163.21,84.648 L 162.79,84.686 L 162.37,84.713 L 161.94,84.729 L 161.5,84.734 C 156.81,84.734 153.01,82.836 153.01,80.5 C 153.01,78.164 156.81,76.266 161.5,76.266 C 166.19,76.266 169.99,78.164 169.99,80.5 z "
   style="stroke-width:0.84906;stroke-linecap:round;stroke-linejoin:round"
   id="path8010" />
<text
   transform="matrix(1,0,0,-1,156.19,77.855)"
   style="font-size:8px;fill:#000000;stroke:none;font-family:&quot;Helvetica&quot;, sans-serif"
   id="text8012">50</text>


<text
   transform="matrix(1,0,0,-1,114.31,134.82)"
   style="font-size:16px;fill:#000000;stroke:none;font-family:&quot;Helvetica&quot;, sans-serif"
   id="text8014">OO</text>


<polygon
   points="46.5,160.5 138.5,160.5 184.5,80.5 138.5,0.5 46.5,0.5 0.5,80.5 46.5,160.5 "
   style="stroke-width:1;stroke-linejoin:round"
   id="polygon8016" />
</g></svg>
