<?xml version="1.0" encoding="UTF-8" standalone="no"?>
<svg
   xmlns:dc="http://purl.org/dc/elements/1.1/"
   xmlns:cc="http://web.resource.org/cc/"
   xmlns:rdf="http://www.w3.org/1999/02/22-rdf-syntax-ns#"
   xmlns:svg="http://www.w3.org/2000/svg"
   xmlns="http://www.w3.org/2000/svg"
   xmlns:sodipodi="http://inkscape.sourceforge.net/DTD/sodipodi-0.dtd"
   xmlns:inkscape="http://www.inkscape.org/namespaces/inkscape"
   width="100"
   height="100"
   viewBox="0 0 1 1"
   preserveAspectRatio="none"
   id="svg2411"
   sodipodi:version="0.32"
   inkscape:version="0.43"
   sodipodi:docname="tile615.svg"
   sodipodi:docbase="C:\Documents and Settings\lentz\Desktop\TileDesigner"
   version="1.0">
  <metadata
     id="metadata2450">
    <rdf:RDF>
      <cc:Work
         rdf:about="">
        <dc:format>image/svg+xml</dc:format>
        <dc:type
           rdf:resource="http://purl.org/dc/dcmitype/StillImage" />
      </cc:Work>
    </rdf:RDF>
  </metadata>
  <defs
     id="defs2448" />
  <sodipodi:namedview
     inkscape:window-height="540"
     inkscape:window-width="749"
     inkscape:pageshadow="2"
     inkscape:pageopacity="0.0"
     borderopacity="1.0"
     bordercolor="#666666"
     pagecolor="#ffffff"
     id="base"
     inkscape:zoom="0.52361111"
     inkscape:cx="360"
     inkscape:cy="360"
     inkscape:window-x="132"
     inkscape:window-y="132"
     inkscape:current-layer="svg2411" />
  <title
     id="title2413">SVG drawing</title>
  <desc
     id="desc2415">This was produced by version 4.1 of GNU libplot, a free library for exporting 2-D vector graphics.</desc>
  <rect
     x="0"
     y="0"
     width="1"
     height="1"
     style="fill:#ffffff;stroke:none"
     id="rect2417" />
  <g
     transform="matrix(5.418114e-3,0,0,-5.739835e-3,-1.175565e-3,0.934679)"
     xml:space="preserve"
     style="font-style:normal;font-variant:normal;font-weight:normal;font-stretch:normal;letter-spacing:normal;word-spacing:normal;text-anchor:start;fill:none;fill-opacity:1;stroke:#000000;stroke-linecap:butt;stroke-linejoin:miter;stroke-miterlimit:10.43299961;stroke-dasharray:none;stroke-dashoffset:0;stroke-opacity:1"
     id="g2419">
<polygon
   points="46.5,160.5 138.5,160.5 184.5,80.5 138.5,0.5 46.5,0.5 0.5,80.5 46.5,160.5 "
   style="fill:#38ac00;fill-rule:nonzero;stroke:#38ac00;stroke-width:0;stroke-linejoin:round"
   id="polygon2421" />
<text
   transform="matrix(1,0,0,-1,109.19,7.9141)"
   style="font-size:8px;fill:#000000;stroke:none;font-family:&quot;Helvetica&quot;, sans-serif"
   id="text2423">615</text>

<path
   d="M 116.5,80.5 L 116.47,81.735 L 116.38,82.954 L 116.22,84.155 L 116.01,85.337 L 115.74,86.498 L 115.42,87.637 L 115.04,88.752 L 114.61,89.841 L 114.13,90.905 L 113.6,91.939 L 113.03,92.944 L 112.4,93.918 L 111.73,94.859 L 111.02,95.766 L 110.26,96.637 L 109.47,97.47 L 108.64,98.265 L 107.77,99.019 L 106.86,99.732 L 105.92,100.4 L 104.94,101.03 L 103.94,101.6 L 102.9,102.13 L 101.84,102.61 L 100.75,103.04 L 99.637,103.42 L 98.498,103.74 L 97.337,104.01 L 96.155,104.22 L 94.954,104.38 L 93.735,104.47 L 92.5,104.5 C 79.246,104.5 68.5,93.754 68.5,80.5 C 68.5,67.246 79.246,56.5 92.5,56.5 C 105.75,56.5 116.5,67.246 116.5,80.5 z "
   style="fill:#ffffff;fill-rule:nonzero;stroke:#ffffff;stroke-width:0;stroke-linecap:round;stroke-linejoin:round"
   id="path2425" />
<path
   d="M 116.5,80.5 L 116.47,81.735 L 116.38,82.954 L 116.22,84.155 L 116.01,85.337 L 115.74,86.498 L 115.42,87.637 L 115.04,88.752 L 114.61,89.841 L 114.13,90.905 L 113.6,91.939 L 113.03,92.944 L 112.4,93.918 L 111.73,94.859 L 111.02,95.766 L 110.26,96.637 L 109.47,97.47 L 108.64,98.265 L 107.77,99.019 L 106.86,99.732 L 105.92,100.4 L 104.94,101.03 L 103.94,101.6 L 102.9,102.13 L 101.84,102.61 L 100.75,103.04 L 99.637,103.42 L 98.498,103.74 L 97.337,104.01 L 96.155,104.22 L 94.954,104.38 L 93.735,104.47 L 92.5,104.5 C 79.246,104.5 68.5,93.754 68.5,80.5 C 68.5,67.246 79.246,56.5 92.5,56.5 C 105.75,56.5 116.5,67.246 116.5,80.5 z "
   style="stroke:#ffffff;stroke-width:6;stroke-linecap:round;stroke-linejoin:round"
   id="path2427" />
<line
   x1="92.5"
   y1="80.5"
   x2="161.5"
   y2="40.5"
   style="stroke:#ffffff;stroke-width:16;stroke-linecap:round"
   id="line2429" />
<line
   x1="92.5"
   y1="80.5"
   x2="92.5"
   y2="0.5"
   style="stroke:#ffffff;stroke-width:16;stroke-linecap:round"
   id="line2431" />
<line
   x1="92.5"
   y1="80.5"
   x2="161.5"
   y2="40.5"
   style="stroke:#808080;stroke-width:12;stroke-linecap:round"
   id="line2433" />
<line
   x1="92.5"
   y1="80.5"
   x2="92.5"
   y2="0.5"
   style="stroke:#808080;stroke-width:12;stroke-linecap:round"
   id="line2435" />
<line
   x1="92.5"
   y1="80.5"
   x2="161.5"
   y2="40.5"
   style="stroke:#c0c0c0;stroke-width:8;stroke-linecap:round"
   id="line2437" />
<line
   x1="92.5"
   y1="80.5"
   x2="92.5"
   y2="0.5"
   style="stroke:#c0c0c0;stroke-width:8;stroke-linecap:round"
   id="line2439" />
<path
   d="M 116.5,80.5 L 116.47,81.735 L 116.38,82.954 L 116.22,84.155 L 116.01,85.337 L 115.74,86.498 L 115.42,87.637 L 115.04,88.752 L 114.61,89.841 L 114.13,90.905 L 113.6,91.939 L 113.03,92.944 L 112.4,93.918 L 111.73,94.859 L 111.02,95.766 L 110.26,96.637 L 109.47,97.47 L 108.64,98.265 L 107.77,99.019 L 106.86,99.732 L 105.92,100.4 L 104.94,101.03 L 103.94,101.6 L 102.9,102.13 L 101.84,102.61 L 100.75,103.04 L 99.637,103.42 L 98.498,103.74 L 97.337,104.01 L 96.155,104.22 L 94.954,104.38 L 93.735,104.47 L 92.5,104.5 C 79.246,104.5 68.5,93.754 68.5,80.5 C 68.5,67.246 79.246,56.5 92.5,56.5 C 105.75,56.5 116.5,67.246 116.5,80.5 z "
   style="fill:#ffffff;fill-rule:nonzero;stroke:#ffffff;stroke-width:0;stroke-linecap:round;stroke-linejoin:round"
   id="path2441" />
<path
   d="M 116.5,80.5 L 116.47,81.735 L 116.38,82.954 L 116.22,84.155 L 116.01,85.337 L 115.74,86.498 L 115.42,87.637 L 115.04,88.752 L 114.61,89.841 L 114.13,90.905 L 113.6,91.939 L 113.03,92.944 L 112.4,93.918 L 111.73,94.859 L 111.02,95.766 L 110.26,96.637 L 109.47,97.47 L 108.64,98.265 L 107.77,99.019 L 106.86,99.732 L 105.92,100.4 L 104.94,101.03 L 103.94,101.6 L 102.9,102.13 L 101.84,102.61 L 100.75,103.04 L 99.637,103.42 L 98.498,103.74 L 97.337,104.01 L 96.155,104.22 L 94.954,104.38 L 93.735,104.47 L 92.5,104.5 C 79.246,104.5 68.5,93.754 68.5,80.5 C 68.5,67.246 79.246,56.5 92.5,56.5 C 105.75,56.5 116.5,67.246 116.5,80.5 z "
   style="stroke-width:2;stroke-linecap:round;stroke-linejoin:round"
   id="path2443" />
<polygon
   points="46.5,160.5 138.5,160.5 184.5,80.5 138.5,0.5 46.5,0.5 0.5,80.5 46.5,160.5 "
   style="stroke-width:1;stroke-linejoin:round"
   id="polygon2445" />
</g></svg>
