<?xml version="1.0"?>
<svg version="1.1" xmlns="http://www.w3.org/2000/svg"><path d=" M 98,0 L 294,0 L 392,170 L 294,340 L 98,340 L 0,170 Z" fill="#38AC00" stroke="#38AC00" stroke-width="1" stroke-linejoin="round"/><text x="245" y="318" dy="0.3em" fill="#000000" stroke="#000000" text-anchor="middle" font-family="Arial" font-size="31" font-weight="bold">312</text><polygon points="214,36 302,88 250,176 162,124" fill="#FFFFFF" stroke="#FFFFFF" stroke-width="12"/><circle cx="188" cy="80" r="51" fill="#FFFFFF" stroke="#FFFFFF" stroke-width="12"/><circle cx="276" cy="132" r="51" fill="#FFFFFF" stroke="#FFFFFF" stroke-width="12"/><circle cx="147" cy="255" r="51" fill="#FFFFFF" stroke="#FFFFFF" stroke-width="12"/><path d="M 196,0 A 294,294 0 0,0 220,128" fill="none" stroke="#FFFFFF" stroke-width="34" stroke-linecap="butt" stroke-linejoin="round"/><path d="M 220,128 A 294,294 0 0,0 343,255" fill="none" stroke="#FFFFFF" stroke-width="34" stroke-linecap="butt" stroke-linejoin="round"/><path d="M 49,85 A 294,294 0 0,0 220,128" fill="none" stroke="#FFFFFF" stroke-width="34" stroke-linecap="butt" stroke-linejoin="round"/><path d="M 147,255 A 98,98 0 0,0 49,255" fill="none" stroke="#FFFFFF" stroke-width="34" stroke-linecap="butt" stroke-linejoin="round"/><path d="M 196,0 A 294,294 0 0,0 220,128" fill="none" stroke="#000000" stroke-width="26" stroke-linecap="butt" stroke-linejoin="round"/><path d="M 220,128 A 294,294 0 0,0 343,255" fill="none" stroke="#000000" stroke-width="26" stroke-linecap="butt" stroke-linejoin="round"/><path d="M 49,85 A 294,294 0 0,0 220,128" fill="none" stroke="#000000" stroke-width="26" stroke-linecap="butt" stroke-linejoin="round"/><path d="M 147,255 A 98,98 0 0,0 49,255" fill="none" stroke="#000000" stroke-width="26" stroke-linecap="butt" stroke-linejoin="round"/><polygon points="214,36 302,88 250,176 162,124" fill="#FFFFFF" stroke="#000000" stroke-width="4"/><circle cx="188" cy="80" r="51" fill="#FFFFFF" stroke="#000000" stroke-width="4"/><circle cx="276" cy="132" r="51" fill="#FFFFFF" stroke="#000000" stroke-width="4"/><ellipse rx="31" ry="30" cx="49" cy="170" fill="#FFFFFF" stroke="#000000" stroke-width="2" stroke-linejoin="round"/><text x="49" y="170" dy="0.3em" fill="#000000" stroke="#000000" text-anchor="middle" font-family="Bookman Old Style" font-size="43">60</text><circle cx="147" cy="255" r="51" fill="#FFFFFF" stroke="#000000" stroke-width="4"/><ellipse rx="31" ry="30" cx="49" cy="170" fill="#FFFFFF" stroke="#000000" stroke-width="2" stroke-linejoin="round"/><text x="49" y="170" dy="0.3em" fill="#000000" stroke="#000000" text-anchor="middle" font-family="Bookman Old Style" font-size="43">60</text><text x="269" y="297" dy="0.3em" fill="#000000" stroke="#000000" text-anchor="middle" font-family="TimpaniHeavy" font-size="54">HH</text><path d=" M 98,0 L 294,0 L 392,170 L 294,340 L 98,340 L 0,170 Z" fill="none" stroke="black" stroke-width="1" stroke-linejoin="round"/></svg>
