<?xml version="1.0" encoding="UTF-8" standalone="no"?>
<svg
   xmlns:dc="http://purl.org/dc/elements/1.1/"
   xmlns:cc="http://web.resource.org/cc/"
   xmlns:rdf="http://www.w3.org/1999/02/22-rdf-syntax-ns#"
   xmlns:svg="http://www.w3.org/2000/svg"
   xmlns="http://www.w3.org/2000/svg"
   xmlns:sodipodi="http://inkscape.sourceforge.net/DTD/sodipodi-0.dtd"
   xmlns:inkscape="http://www.inkscape.org/namespaces/inkscape"
   width="100"
   height="100"
   viewBox="0 0 1 1"
   preserveAspectRatio="none"
   id="svg7049"
   sodipodi:version="0.32"
   inkscape:version="0.43"
   sodipodi:docname="tile262.svg"
   sodipodi:docbase="C:\Documents and Settings\lentz\Desktop\TileDesigner"
   version="1.0">
  <metadata
     id="metadata7164">
    <rdf:RDF>
      <cc:Work
         rdf:about="">
        <dc:format>image/svg+xml</dc:format>
        <dc:type
           rdf:resource="http://purl.org/dc/dcmitype/StillImage" />
      </cc:Work>
    </rdf:RDF>
  </metadata>
  <defs
     id="defs7162" />
  <sodipodi:namedview
     inkscape:window-height="540"
     inkscape:window-width="749"
     inkscape:pageshadow="2"
     inkscape:pageopacity="0.0"
     borderopacity="1.0"
     bordercolor="#666666"
     pagecolor="#ffffff"
     id="base"
     inkscape:zoom="0.52361111"
     inkscape:cx="360"
     inkscape:cy="360"
     inkscape:window-x="154"
     inkscape:window-y="154"
     inkscape:current-layer="svg7049" />
  <title
     id="title7051">SVG drawing</title>
  <desc
     id="desc7053">This was produced by version 4.1 of GNU libplot, a free library for exporting 2-D vector graphics.</desc>
  <g
     transform="matrix(5.418114e-3,0,0,-5.333139e-3,-1.175565e-3,0.939964)"
     xml:space="preserve"
     style="font-style:normal;font-variant:normal;font-weight:normal;font-stretch:normal;letter-spacing:normal;word-spacing:normal;text-anchor:start;fill:none;fill-opacity:1;stroke:#000000;stroke-linecap:butt;stroke-linejoin:miter;stroke-miterlimit:10.43299961;stroke-dasharray:none;stroke-dashoffset:0;stroke-opacity:1"
     id="g7057">
<polygon
   points="46.5,160.5 138.5,160.5 184.5,80.5 138.5,0.5 46.5,0.5 0.5,80.5 46.5,160.5 "
   style="fill:#b46301;fill-rule:nonzero;stroke:#b46301;stroke-width:0;stroke-linejoin:round"
   id="polygon7059" />
<text
   transform="matrix(1,0,0,-1,109.2,7.9141)"
   style="font-size:8px;fill:#000000;stroke:none;font-family:&quot;Helvetica&quot;, sans-serif"
   id="text7061">262</text>

<polygon
   points="60.5,87.5 102.5,111.5 78.5,153.5 36.5,129.5 60.5,87.5 "
   style="fill:#ffffff;fill-rule:nonzero;stroke:#ffffff;stroke-width:0;stroke-linejoin:round"
   id="polygon7063" />
<polygon
   points="60.5,87.5 102.5,111.5 78.5,153.5 36.5,129.5 60.5,87.5 "
   style="stroke:#ffffff;stroke-width:6;stroke-linejoin:round"
   id="polygon7065" />
<path
   d="M 72.5,108.5 L 72.469,109.73 L 72.376,110.95 L 72.223,112.15 L 72.012,113.34 L 71.744,114.5 L 71.421,115.64 L 71.044,116.75 L 70.614,117.84 L 70.133,118.9 L 69.603,119.94 L 69.025,120.94 L 68.401,121.92 L 67.732,122.86 L 67.019,123.77 L 66.265,124.64 L 65.47,125.47 L 64.637,126.26 L 63.766,127.02 L 62.859,127.73 L 61.918,128.4 L 60.944,129.03 L 59.939,129.6 L 58.905,130.13 L 57.841,130.61 L 56.752,131.04 L 55.637,131.42 L 54.498,131.74 L 53.337,132.01 L 52.155,132.22 L 50.954,132.38 L 49.735,132.47 L 48.5,132.5 C 35.246,132.5 24.5,121.75 24.5,108.5 C 24.5,95.246 35.246,84.5 48.5,84.5 C 61.754,84.5 72.5,95.246 72.5,108.5 z "
   style="fill:#ffffff;fill-rule:nonzero;stroke:#ffffff;stroke-width:0;stroke-linecap:round;stroke-linejoin:round"
   id="path7067" />
<path
   d="M 72.5,108.5 L 72.469,109.73 L 72.376,110.95 L 72.223,112.15 L 72.012,113.34 L 71.744,114.5 L 71.421,115.64 L 71.044,116.75 L 70.614,117.84 L 70.133,118.9 L 69.603,119.94 L 69.025,120.94 L 68.401,121.92 L 67.732,122.86 L 67.019,123.77 L 66.265,124.64 L 65.47,125.47 L 64.637,126.26 L 63.766,127.02 L 62.859,127.73 L 61.918,128.4 L 60.944,129.03 L 59.939,129.6 L 58.905,130.13 L 57.841,130.61 L 56.752,131.04 L 55.637,131.42 L 54.498,131.74 L 53.337,132.01 L 52.155,132.22 L 50.954,132.38 L 49.735,132.47 L 48.5,132.5 C 35.246,132.5 24.5,121.75 24.5,108.5 C 24.5,95.246 35.246,84.5 48.5,84.5 C 61.754,84.5 72.5,95.246 72.5,108.5 z "
   style="stroke:#ffffff;stroke-width:6;stroke-linecap:round;stroke-linejoin:round"
   id="path7069" />
<path
   d="M 114.5,132.5 L 114.47,133.73 L 114.38,134.95 L 114.22,136.15 L 114.01,137.34 L 113.74,138.5 L 113.42,139.64 L 113.04,140.75 L 112.61,141.84 L 112.13,142.9 L 111.6,143.94 L 111.03,144.94 L 110.4,145.92 L 109.73,146.86 L 109.02,147.77 L 108.26,148.64 L 107.47,149.47 L 106.64,150.26 L 105.77,151.02 L 104.86,151.73 L 103.92,152.4 L 102.94,153.03 L 101.94,153.6 L 100.9,154.13 L 99.842,154.61 L 98.752,155.04 L 97.637,155.42 L 96.498,155.74 L 95.337,156.01 L 94.155,156.22 L 92.954,156.38 L 91.735,156.47 L 90.5,156.5 C 77.246,156.5 66.5,145.75 66.5,132.5 C 66.5,119.25 77.246,108.5 90.5,108.5 C 103.75,108.5 114.5,119.25 114.5,132.5 z "
   style="fill:#ffffff;fill-rule:nonzero;stroke:#ffffff;stroke-width:0;stroke-linecap:round;stroke-linejoin:round"
   id="path7071" />
<path
   d="M 114.5,132.5 L 114.47,133.73 L 114.38,134.95 L 114.22,136.15 L 114.01,137.34 L 113.74,138.5 L 113.42,139.64 L 113.04,140.75 L 112.61,141.84 L 112.13,142.9 L 111.6,143.94 L 111.03,144.94 L 110.4,145.92 L 109.73,146.86 L 109.02,147.77 L 108.26,148.64 L 107.47,149.47 L 106.64,150.26 L 105.77,151.02 L 104.86,151.73 L 103.92,152.4 L 102.94,153.03 L 101.94,153.6 L 100.9,154.13 L 99.842,154.61 L 98.752,155.04 L 97.637,155.42 L 96.498,155.74 L 95.337,156.01 L 94.155,156.22 L 92.954,156.38 L 91.735,156.47 L 90.5,156.5 C 77.246,156.5 66.5,145.75 66.5,132.5 C 66.5,119.25 77.246,108.5 90.5,108.5 C 103.75,108.5 114.5,119.25 114.5,132.5 z "
   style="stroke:#ffffff;stroke-width:6;stroke-linecap:round;stroke-linejoin:round"
   id="path7073" />
<polygon
   points="114.5,56.5 162.5,56.5 162.5,104.5 114.5,104.5 114.5,56.5 "
   style="fill:#ffffff;fill-rule:nonzero;stroke:#ffffff;stroke-width:0;stroke-linejoin:round"
   id="polygon7075" />
<polygon
   points="114.5,56.5 162.5,56.5 162.5,104.5 114.5,104.5 114.5,56.5 "
   style="stroke:#ffffff;stroke-width:6;stroke-linejoin:round"
   id="polygon7077" />
<path
   d="M 162.5,104.5 L 162.47,105.73 L 162.38,106.95 L 162.22,108.15 L 162.01,109.34 L 161.74,110.5 L 161.42,111.64 L 161.04,112.75 L 160.61,113.84 L 160.13,114.9 L 159.6,115.94 L 159.03,116.94 L 158.4,117.92 L 157.73,118.86 L 157.02,119.77 L 156.26,120.64 L 155.47,121.47 L 154.64,122.26 L 153.77,123.02 L 152.86,123.73 L 151.92,124.4 L 150.94,125.03 L 149.94,125.6 L 148.9,126.13 L 147.84,126.61 L 146.75,127.04 L 145.64,127.42 L 144.5,127.74 L 143.34,128.01 L 142.15,128.22 L 140.95,128.38 L 139.73,128.47 L 138.5,128.5 C 125.25,128.5 114.5,117.75 114.5,104.5 C 114.5,91.246 125.25,80.5 138.5,80.5 C 151.75,80.5 162.5,91.246 162.5,104.5 z "
   style="fill:#ffffff;fill-rule:nonzero;stroke:#ffffff;stroke-width:0;stroke-linecap:round;stroke-linejoin:round"
   id="path7079" />
<path
   d="M 162.5,104.5 L 162.47,105.73 L 162.38,106.95 L 162.22,108.15 L 162.01,109.34 L 161.74,110.5 L 161.42,111.64 L 161.04,112.75 L 160.61,113.84 L 160.13,114.9 L 159.6,115.94 L 159.03,116.94 L 158.4,117.92 L 157.73,118.86 L 157.02,119.77 L 156.26,120.64 L 155.47,121.47 L 154.64,122.26 L 153.77,123.02 L 152.86,123.73 L 151.92,124.4 L 150.94,125.03 L 149.94,125.6 L 148.9,126.13 L 147.84,126.61 L 146.75,127.04 L 145.64,127.42 L 144.5,127.74 L 143.34,128.01 L 142.15,128.22 L 140.95,128.38 L 139.73,128.47 L 138.5,128.5 C 125.25,128.5 114.5,117.75 114.5,104.5 C 114.5,91.246 125.25,80.5 138.5,80.5 C 151.75,80.5 162.5,91.246 162.5,104.5 z "
   style="stroke:#ffffff;stroke-width:6;stroke-linecap:round;stroke-linejoin:round"
   id="path7081" />
<path
   d="M 162.5,56.5 L 162.47,57.735 L 162.38,58.954 L 162.22,60.155 L 162.01,61.337 L 161.74,62.498 L 161.42,63.637 L 161.04,64.752 L 160.61,65.841 L 160.13,66.905 L 159.6,67.939 L 159.03,68.944 L 158.4,69.918 L 157.73,70.859 L 157.02,71.766 L 156.26,72.637 L 155.47,73.47 L 154.64,74.265 L 153.77,75.019 L 152.86,75.732 L 151.92,76.401 L 150.94,77.025 L 149.94,77.603 L 148.9,78.133 L 147.84,78.614 L 146.75,79.044 L 145.64,79.421 L 144.5,79.744 L 143.34,80.012 L 142.15,80.223 L 140.95,80.376 L 139.73,80.469 L 138.5,80.5 C 125.25,80.5 114.5,69.754 114.5,56.5 C 114.5,43.246 125.25,32.5 138.5,32.5 C 151.75,32.5 162.5,43.246 162.5,56.5 z "
   style="fill:#ffffff;fill-rule:nonzero;stroke:#ffffff;stroke-width:0;stroke-linecap:round;stroke-linejoin:round"
   id="path7083" />
<path
   d="M 162.5,56.5 L 162.47,57.735 L 162.38,58.954 L 162.22,60.155 L 162.01,61.337 L 161.74,62.498 L 161.42,63.637 L 161.04,64.752 L 160.61,65.841 L 160.13,66.905 L 159.6,67.939 L 159.03,68.944 L 158.4,69.918 L 157.73,70.859 L 157.02,71.766 L 156.26,72.637 L 155.47,73.47 L 154.64,74.265 L 153.77,75.019 L 152.86,75.732 L 151.92,76.401 L 150.94,77.025 L 149.94,77.603 L 148.9,78.133 L 147.84,78.614 L 146.75,79.044 L 145.64,79.421 L 144.5,79.744 L 143.34,80.012 L 142.15,80.223 L 140.95,80.376 L 139.73,80.469 L 138.5,80.5 C 125.25,80.5 114.5,69.754 114.5,56.5 C 114.5,43.246 125.25,32.5 138.5,32.5 C 151.75,32.5 162.5,43.246 162.5,56.5 z "
   style="stroke:#ffffff;stroke-width:6;stroke-linecap:round;stroke-linejoin:round"
   id="path7085" />
<path
   d="M 93.5,40.5 L 93.469,41.735 L 93.376,42.954 L 93.223,44.155 L 93.012,45.337 L 92.744,46.498 L 92.421,47.637 L 92.044,48.752 L 91.614,49.841 L 91.133,50.905 L 90.603,51.939 L 90.025,52.944 L 89.401,53.918 L 88.732,54.859 L 88.019,55.766 L 87.265,56.637 L 86.47,57.47 L 85.637,58.265 L 84.766,59.019 L 83.859,59.732 L 82.918,60.401 L 81.944,61.025 L 80.939,61.603 L 79.905,62.133 L 78.841,62.614 L 77.752,63.044 L 76.637,63.421 L 75.498,63.744 L 74.337,64.012 L 73.155,64.223 L 71.954,64.376 L 70.735,64.469 L 69.5,64.5 C 56.246,64.5 45.5,53.754 45.5,40.5 C 45.5,27.246 56.246,16.5 69.5,16.5 C 82.754,16.5 93.5,27.246 93.5,40.5 z "
   style="fill:#ffffff;fill-rule:nonzero;stroke:#ffffff;stroke-width:0;stroke-linecap:round;stroke-linejoin:round"
   id="path7087" />
<path
   d="M 93.5,40.5 L 93.469,41.735 L 93.376,42.954 L 93.223,44.155 L 93.012,45.337 L 92.744,46.498 L 92.421,47.637 L 92.044,48.752 L 91.614,49.841 L 91.133,50.905 L 90.603,51.939 L 90.025,52.944 L 89.401,53.918 L 88.732,54.859 L 88.019,55.766 L 87.265,56.637 L 86.47,57.47 L 85.637,58.265 L 84.766,59.019 L 83.859,59.732 L 82.918,60.401 L 81.944,61.025 L 80.939,61.603 L 79.905,62.133 L 78.841,62.614 L 77.752,63.044 L 76.637,63.421 L 75.498,63.744 L 74.337,64.012 L 73.155,64.223 L 71.954,64.376 L 70.735,64.469 L 69.5,64.5 C 56.246,64.5 45.5,53.754 45.5,40.5 C 45.5,27.246 56.246,16.5 69.5,16.5 C 82.754,16.5 93.5,27.246 93.5,40.5 z "
   style="stroke:#ffffff;stroke-width:6;stroke-linecap:round;stroke-linejoin:round"
   id="path7089" />
<path
   d="M 23.5,120.5 L 23.57,120.62 C 30.547,116.61 38.457,114.5 46.5,114.5 C 54.547,114.5 62.457,116.61 69.434,120.62"
   style="stroke:#ffffff;stroke-width:16;stroke-linecap:round;stroke-linejoin:round"
   id="path7091" />
<path
   d="M 69.5,120.5 L 69.434,120.62 C 83.703,128.83 92.5,144.04 92.5,160.5"
   style="stroke:#ffffff;stroke-width:16;stroke-linecap:round;stroke-linejoin:round"
   id="path7093" />
<path
   d="M 161.5,120.5 L 161.57,120.38 C 147.3,112.18 138.5,96.961 138.5,80.5"
   style="stroke:#ffffff;stroke-width:16;stroke-linecap:round;stroke-linejoin:round"
   id="path7095" />
<path
   d="M 138.5,80.5 L 138.5,80.5 C 138.5,64.039 147.3,48.828 161.57,40.625"
   style="stroke:#ffffff;stroke-width:16;stroke-linecap:round;stroke-linejoin:round"
   id="path7097" />
<path
   d="M 92.5,0.5 L 92.5,0.5 C 92.5,16.961 83.703,32.172 69.434,40.375"
   style="stroke:#ffffff;stroke-width:16;stroke-linecap:round;stroke-linejoin:round"
   id="path7099" />
<path
   d="M 23.5,120.5 L 23.57,120.62 C 30.547,116.61 38.457,114.5 46.5,114.5 C 54.547,114.5 62.457,116.61 69.434,120.62"
   style="stroke-width:12;stroke-linecap:round;stroke-linejoin:round"
   id="path7101" />
<path
   d="M 69.5,120.5 L 69.434,120.62 C 83.703,128.83 92.5,144.04 92.5,160.5"
   style="stroke-width:12;stroke-linecap:round;stroke-linejoin:round"
   id="path7103" />
<path
   d="M 161.5,120.5 L 161.57,120.38 C 147.3,112.18 138.5,96.961 138.5,80.5"
   style="stroke-width:12;stroke-linecap:round;stroke-linejoin:round"
   id="path7105" />
<path
   d="M 138.5,80.5 L 138.5,80.5 C 138.5,64.039 147.3,48.828 161.57,40.625"
   style="stroke-width:12;stroke-linecap:round;stroke-linejoin:round"
   id="path7107" />
<path
   d="M 92.5,0.5 L 92.5,0.5 C 92.5,16.961 83.703,32.172 69.434,40.375"
   style="stroke-width:12;stroke-linecap:round;stroke-linejoin:round"
   id="path7109" />
<polygon
   points="60.5,87.5 102.5,111.5 78.5,153.5 36.5,129.5 60.5,87.5 "
   style="fill:#ffffff;fill-rule:nonzero;stroke:#ffffff;stroke-width:0;stroke-linejoin:round"
   id="polygon7111" />
<polygon
   points="60.5,87.5 102.5,111.5 78.5,153.5 36.5,129.5 60.5,87.5 "
   style="stroke-width:2;stroke-linejoin:round"
   id="polygon7113" />
<path
   d="M 72.5,108.5 L 72.469,109.73 L 72.376,110.95 L 72.223,112.15 L 72.012,113.34 L 71.744,114.5 L 71.421,115.64 L 71.044,116.75 L 70.614,117.84 L 70.133,118.9 L 69.603,119.94 L 69.025,120.94 L 68.401,121.92 L 67.732,122.86 L 67.019,123.77 L 66.265,124.64 L 65.47,125.47 L 64.637,126.26 L 63.766,127.02 L 62.859,127.73 L 61.918,128.4 L 60.944,129.03 L 59.939,129.6 L 58.905,130.13 L 57.841,130.61 L 56.752,131.04 L 55.637,131.42 L 54.498,131.74 L 53.337,132.01 L 52.155,132.22 L 50.954,132.38 L 49.735,132.47 L 48.5,132.5 C 35.246,132.5 24.5,121.75 24.5,108.5 C 24.5,95.246 35.246,84.5 48.5,84.5 C 61.754,84.5 72.5,95.246 72.5,108.5 z "
   style="fill:#ffffff;fill-rule:nonzero;stroke:#ffffff;stroke-width:0;stroke-linecap:round;stroke-linejoin:round"
   id="path7115" />
<path
   d="M 72.5,108.5 L 72.469,109.73 L 72.376,110.95 L 72.223,112.15 L 72.012,113.34 L 71.744,114.5 L 71.421,115.64 L 71.044,116.75 L 70.614,117.84 L 70.133,118.9 L 69.603,119.94 L 69.025,120.94 L 68.401,121.92 L 67.732,122.86 L 67.019,123.77 L 66.265,124.64 L 65.47,125.47 L 64.637,126.26 L 63.766,127.02 L 62.859,127.73 L 61.918,128.4 L 60.944,129.03 L 59.939,129.6 L 58.905,130.13 L 57.841,130.61 L 56.752,131.04 L 55.637,131.42 L 54.498,131.74 L 53.337,132.01 L 52.155,132.22 L 50.954,132.38 L 49.735,132.47 L 48.5,132.5 C 35.246,132.5 24.5,121.75 24.5,108.5 C 24.5,95.246 35.246,84.5 48.5,84.5 C 61.754,84.5 72.5,95.246 72.5,108.5 z "
   style="stroke-width:2;stroke-linecap:round;stroke-linejoin:round"
   id="path7117" />
<path
   d="M 114.5,132.5 L 114.47,133.73 L 114.38,134.95 L 114.22,136.15 L 114.01,137.34 L 113.74,138.5 L 113.42,139.64 L 113.04,140.75 L 112.61,141.84 L 112.13,142.9 L 111.6,143.94 L 111.03,144.94 L 110.4,145.92 L 109.73,146.86 L 109.02,147.77 L 108.26,148.64 L 107.47,149.47 L 106.64,150.26 L 105.77,151.02 L 104.86,151.73 L 103.92,152.4 L 102.94,153.03 L 101.94,153.6 L 100.9,154.13 L 99.842,154.61 L 98.752,155.04 L 97.637,155.42 L 96.498,155.74 L 95.337,156.01 L 94.155,156.22 L 92.954,156.38 L 91.735,156.47 L 90.5,156.5 C 77.246,156.5 66.5,145.75 66.5,132.5 C 66.5,119.25 77.246,108.5 90.5,108.5 C 103.75,108.5 114.5,119.25 114.5,132.5 z "
   style="fill:#ffffff;fill-rule:nonzero;stroke:#ffffff;stroke-width:0;stroke-linecap:round;stroke-linejoin:round"
   id="path7119" />
<path
   d="M 114.5,132.5 L 114.47,133.73 L 114.38,134.95 L 114.22,136.15 L 114.01,137.34 L 113.74,138.5 L 113.42,139.64 L 113.04,140.75 L 112.61,141.84 L 112.13,142.9 L 111.6,143.94 L 111.03,144.94 L 110.4,145.92 L 109.73,146.86 L 109.02,147.77 L 108.26,148.64 L 107.47,149.47 L 106.64,150.26 L 105.77,151.02 L 104.86,151.73 L 103.92,152.4 L 102.94,153.03 L 101.94,153.6 L 100.9,154.13 L 99.842,154.61 L 98.752,155.04 L 97.637,155.42 L 96.498,155.74 L 95.337,156.01 L 94.155,156.22 L 92.954,156.38 L 91.735,156.47 L 90.5,156.5 C 77.246,156.5 66.5,145.75 66.5,132.5 C 66.5,119.25 77.246,108.5 90.5,108.5 C 103.75,108.5 114.5,119.25 114.5,132.5 z "
   style="stroke-width:2;stroke-linecap:round;stroke-linejoin:round"
   id="path7121" />
<path
   d="M 100.99,80.5 L 100.98,80.708 L 100.95,80.913 L 100.89,81.115 L 100.82,81.314 L 100.72,81.509 L 100.61,81.701 L 100.48,81.889 L 100.32,82.072 L 100.15,82.251 L 99.967,82.425 L 99.762,82.594 L 99.541,82.758 L 99.304,82.917 L 99.052,83.069 L 98.785,83.216 L 98.504,83.356 L 98.209,83.49 L 97.901,83.617 L 97.58,83.737 L 97.247,83.849 L 96.902,83.954 L 96.547,84.052 L 96.181,84.141 L 95.804,84.222 L 95.419,84.294 L 95.024,84.357 L 94.621,84.412 L 94.211,84.457 L 93.793,84.493 L 93.368,84.518 L 92.937,84.534 L 92.5,84.539 C 87.812,84.539 84.008,82.73 84.008,80.5 C 84.008,78.27 87.812,76.461 92.5,76.461 C 97.188,76.461 100.99,78.27 100.99,80.5 z "
   style="fill:#ffffff;fill-rule:nonzero;stroke:#ffffff;stroke-width:0;stroke-linecap:round;stroke-linejoin:round"
   id="path7123" />
<path
   d="M 100.99,80.5 L 100.98,80.708 L 100.95,80.913 L 100.89,81.115 L 100.82,81.314 L 100.72,81.509 L 100.61,81.701 L 100.48,81.889 L 100.32,82.072 L 100.15,82.251 L 99.967,82.425 L 99.762,82.594 L 99.541,82.758 L 99.304,82.917 L 99.052,83.069 L 98.785,83.216 L 98.504,83.356 L 98.209,83.49 L 97.901,83.617 L 97.58,83.737 L 97.247,83.849 L 96.902,83.954 L 96.547,84.052 L 96.181,84.141 L 95.804,84.222 L 95.419,84.294 L 95.024,84.357 L 94.621,84.412 L 94.211,84.457 L 93.793,84.493 L 93.368,84.518 L 92.937,84.534 L 92.5,84.539 C 87.812,84.539 84.008,82.73 84.008,80.5 C 84.008,78.27 87.812,76.461 92.5,76.461 C 97.188,76.461 100.99,78.27 100.99,80.5 z "
   style="stroke-width:0.84906;stroke-linecap:round;stroke-linejoin:round"
   id="path7125" />
<text
   transform="matrix(1,0,0,-1,87.191,77.977)"
   style="font-size:8px;fill:#000000;stroke:none;font-family:&quot;Helvetica&quot;, sans-serif"
   id="text7127">80</text>

<polygon
   points="114.5,56.5 162.5,56.5 162.5,104.5 114.5,104.5 114.5,56.5 "
   style="fill:#ffffff;fill-rule:nonzero;stroke:#ffffff;stroke-width:0;stroke-linejoin:round"
   id="polygon7129" />
<polygon
   points="114.5,56.5 162.5,56.5 162.5,104.5 114.5,104.5 114.5,56.5 "
   style="stroke-width:2;stroke-linejoin:round"
   id="polygon7131" />
<path
   d="M 162.5,104.5 L 162.47,105.73 L 162.38,106.95 L 162.22,108.15 L 162.01,109.34 L 161.74,110.5 L 161.42,111.64 L 161.04,112.75 L 160.61,113.84 L 160.13,114.9 L 159.6,115.94 L 159.03,116.94 L 158.4,117.92 L 157.73,118.86 L 157.02,119.77 L 156.26,120.64 L 155.47,121.47 L 154.64,122.26 L 153.77,123.02 L 152.86,123.73 L 151.92,124.4 L 150.94,125.03 L 149.94,125.6 L 148.9,126.13 L 147.84,126.61 L 146.75,127.04 L 145.64,127.42 L 144.5,127.74 L 143.34,128.01 L 142.15,128.22 L 140.95,128.38 L 139.73,128.47 L 138.5,128.5 C 125.25,128.5 114.5,117.75 114.5,104.5 C 114.5,91.246 125.25,80.5 138.5,80.5 C 151.75,80.5 162.5,91.246 162.5,104.5 z "
   style="fill:#ffffff;fill-rule:nonzero;stroke:#ffffff;stroke-width:0;stroke-linecap:round;stroke-linejoin:round"
   id="path7133" />
<path
   d="M 162.5,104.5 L 162.47,105.73 L 162.38,106.95 L 162.22,108.15 L 162.01,109.34 L 161.74,110.5 L 161.42,111.64 L 161.04,112.75 L 160.61,113.84 L 160.13,114.9 L 159.6,115.94 L 159.03,116.94 L 158.4,117.92 L 157.73,118.86 L 157.02,119.77 L 156.26,120.64 L 155.47,121.47 L 154.64,122.26 L 153.77,123.02 L 152.86,123.73 L 151.92,124.4 L 150.94,125.03 L 149.94,125.6 L 148.9,126.13 L 147.84,126.61 L 146.75,127.04 L 145.64,127.42 L 144.5,127.74 L 143.34,128.01 L 142.15,128.22 L 140.95,128.38 L 139.73,128.47 L 138.5,128.5 C 125.25,128.5 114.5,117.75 114.5,104.5 C 114.5,91.246 125.25,80.5 138.5,80.5 C 151.75,80.5 162.5,91.246 162.5,104.5 z "
   style="stroke-width:2;stroke-linecap:round;stroke-linejoin:round"
   id="path7135" />
<path
   d="M 162.5,56.5 L 162.47,57.735 L 162.38,58.954 L 162.22,60.155 L 162.01,61.337 L 161.74,62.498 L 161.42,63.637 L 161.04,64.752 L 160.61,65.841 L 160.13,66.905 L 159.6,67.939 L 159.03,68.944 L 158.4,69.918 L 157.73,70.859 L 157.02,71.766 L 156.26,72.637 L 155.47,73.47 L 154.64,74.265 L 153.77,75.019 L 152.86,75.732 L 151.92,76.401 L 150.94,77.025 L 149.94,77.603 L 148.9,78.133 L 147.84,78.614 L 146.75,79.044 L 145.64,79.421 L 144.5,79.744 L 143.34,80.012 L 142.15,80.223 L 140.95,80.376 L 139.73,80.469 L 138.5,80.5 C 125.25,80.5 114.5,69.754 114.5,56.5 C 114.5,43.246 125.25,32.5 138.5,32.5 C 151.75,32.5 162.5,43.246 162.5,56.5 z "
   style="fill:#ffffff;fill-rule:nonzero;stroke:#ffffff;stroke-width:0;stroke-linecap:round;stroke-linejoin:round"
   id="path7137" />
<path
   d="M 162.5,56.5 L 162.47,57.735 L 162.38,58.954 L 162.22,60.155 L 162.01,61.337 L 161.74,62.498 L 161.42,63.637 L 161.04,64.752 L 160.61,65.841 L 160.13,66.905 L 159.6,67.939 L 159.03,68.944 L 158.4,69.918 L 157.73,70.859 L 157.02,71.766 L 156.26,72.637 L 155.47,73.47 L 154.64,74.265 L 153.77,75.019 L 152.86,75.732 L 151.92,76.401 L 150.94,77.025 L 149.94,77.603 L 148.9,78.133 L 147.84,78.614 L 146.75,79.044 L 145.64,79.421 L 144.5,79.744 L 143.34,80.012 L 142.15,80.223 L 140.95,80.376 L 139.73,80.469 L 138.5,80.5 C 125.25,80.5 114.5,69.754 114.5,56.5 C 114.5,43.246 125.25,32.5 138.5,32.5 C 151.75,32.5 162.5,43.246 162.5,56.5 z "
   style="stroke-width:2;stroke-linecap:round;stroke-linejoin:round"
   id="path7139" />
<path
   d="M 100.99,80.5 L 100.98,80.708 L 100.95,80.913 L 100.89,81.115 L 100.82,81.314 L 100.72,81.509 L 100.61,81.701 L 100.48,81.889 L 100.32,82.072 L 100.15,82.251 L 99.967,82.425 L 99.762,82.594 L 99.541,82.758 L 99.304,82.917 L 99.052,83.069 L 98.785,83.216 L 98.504,83.356 L 98.209,83.49 L 97.901,83.617 L 97.58,83.737 L 97.247,83.849 L 96.902,83.954 L 96.547,84.052 L 96.181,84.141 L 95.804,84.222 L 95.419,84.294 L 95.024,84.357 L 94.621,84.412 L 94.211,84.457 L 93.793,84.493 L 93.368,84.518 L 92.937,84.534 L 92.5,84.539 C 87.812,84.539 84.008,82.73 84.008,80.5 C 84.008,78.27 87.812,76.461 92.5,76.461 C 97.188,76.461 100.99,78.27 100.99,80.5 z "
   style="fill:#ffffff;fill-rule:nonzero;stroke:#ffffff;stroke-width:0;stroke-linecap:round;stroke-linejoin:round"
   id="path7141" />
<path
   d="M 100.99,80.5 L 100.98,80.708 L 100.95,80.913 L 100.89,81.115 L 100.82,81.314 L 100.72,81.509 L 100.61,81.701 L 100.48,81.889 L 100.32,82.072 L 100.15,82.251 L 99.967,82.425 L 99.762,82.594 L 99.541,82.758 L 99.304,82.917 L 99.052,83.069 L 98.785,83.216 L 98.504,83.356 L 98.209,83.49 L 97.901,83.617 L 97.58,83.737 L 97.247,83.849 L 96.902,83.954 L 96.547,84.052 L 96.181,84.141 L 95.804,84.222 L 95.419,84.294 L 95.024,84.357 L 94.621,84.412 L 94.211,84.457 L 93.793,84.493 L 93.368,84.518 L 92.937,84.534 L 92.5,84.539 C 87.812,84.539 84.008,82.73 84.008,80.5 C 84.008,78.27 87.812,76.461 92.5,76.461 C 97.188,76.461 100.99,78.27 100.99,80.5 z "
   style="stroke-width:0.84906;stroke-linecap:round;stroke-linejoin:round"
   id="path7143" />
<text
   transform="matrix(1,0,0,-1,87.191,77.977)"
   style="font-size:8px;fill:#000000;stroke:none;font-family:&quot;Helvetica&quot;, sans-serif"
   id="text7145">80</text>

<path
   d="M 93.5,40.5 L 93.469,41.735 L 93.376,42.954 L 93.223,44.155 L 93.012,45.337 L 92.744,46.498 L 92.421,47.637 L 92.044,48.752 L 91.614,49.841 L 91.133,50.905 L 90.603,51.939 L 90.025,52.944 L 89.401,53.918 L 88.732,54.859 L 88.019,55.766 L 87.265,56.637 L 86.47,57.47 L 85.637,58.265 L 84.766,59.019 L 83.859,59.732 L 82.918,60.401 L 81.944,61.025 L 80.939,61.603 L 79.905,62.133 L 78.841,62.614 L 77.752,63.044 L 76.637,63.421 L 75.498,63.744 L 74.337,64.012 L 73.155,64.223 L 71.954,64.376 L 70.735,64.469 L 69.5,64.5 C 56.246,64.5 45.5,53.754 45.5,40.5 C 45.5,27.246 56.246,16.5 69.5,16.5 C 82.754,16.5 93.5,27.246 93.5,40.5 z "
   style="fill:#ffffff;fill-rule:nonzero;stroke:#ffffff;stroke-width:0;stroke-linecap:round;stroke-linejoin:round"
   id="path7147" />
<path
   d="M 93.5,40.5 L 93.469,41.735 L 93.376,42.954 L 93.223,44.155 L 93.012,45.337 L 92.744,46.498 L 92.421,47.637 L 92.044,48.752 L 91.614,49.841 L 91.133,50.905 L 90.603,51.939 L 90.025,52.944 L 89.401,53.918 L 88.732,54.859 L 88.019,55.766 L 87.265,56.637 L 86.47,57.47 L 85.637,58.265 L 84.766,59.019 L 83.859,59.732 L 82.918,60.401 L 81.944,61.025 L 80.939,61.603 L 79.905,62.133 L 78.841,62.614 L 77.752,63.044 L 76.637,63.421 L 75.498,63.744 L 74.337,64.012 L 73.155,64.223 L 71.954,64.376 L 70.735,64.469 L 69.5,64.5 C 56.246,64.5 45.5,53.754 45.5,40.5 C 45.5,27.246 56.246,16.5 69.5,16.5 C 82.754,16.5 93.5,27.246 93.5,40.5 z "
   style="stroke-width:2;stroke-linecap:round;stroke-linejoin:round"
   id="path7149" />
<path
   d="M 100.99,80.5 L 100.98,80.708 L 100.95,80.913 L 100.89,81.115 L 100.82,81.314 L 100.72,81.509 L 100.61,81.701 L 100.48,81.889 L 100.32,82.072 L 100.15,82.251 L 99.967,82.425 L 99.762,82.594 L 99.541,82.758 L 99.304,82.917 L 99.052,83.069 L 98.785,83.216 L 98.504,83.356 L 98.209,83.49 L 97.901,83.617 L 97.58,83.737 L 97.247,83.849 L 96.902,83.954 L 96.547,84.052 L 96.181,84.141 L 95.804,84.222 L 95.419,84.294 L 95.024,84.357 L 94.621,84.412 L 94.211,84.457 L 93.793,84.493 L 93.368,84.518 L 92.937,84.534 L 92.5,84.539 C 87.812,84.539 84.008,82.73 84.008,80.5 C 84.008,78.27 87.812,76.461 92.5,76.461 C 97.188,76.461 100.99,78.27 100.99,80.5 z "
   style="fill:#ffffff;fill-rule:nonzero;stroke:#ffffff;stroke-width:0;stroke-linecap:round;stroke-linejoin:round"
   id="path7151" />
<path
   d="M 100.99,80.5 L 100.98,80.708 L 100.95,80.913 L 100.89,81.115 L 100.82,81.314 L 100.72,81.509 L 100.61,81.701 L 100.48,81.889 L 100.32,82.072 L 100.15,82.251 L 99.967,82.425 L 99.762,82.594 L 99.541,82.758 L 99.304,82.917 L 99.052,83.069 L 98.785,83.216 L 98.504,83.356 L 98.209,83.49 L 97.901,83.617 L 97.58,83.737 L 97.247,83.849 L 96.902,83.954 L 96.547,84.052 L 96.181,84.141 L 95.804,84.222 L 95.419,84.294 L 95.024,84.357 L 94.621,84.412 L 94.211,84.457 L 93.793,84.493 L 93.368,84.518 L 92.937,84.534 L 92.5,84.539 C 87.812,84.539 84.008,82.73 84.008,80.5 C 84.008,78.27 87.812,76.461 92.5,76.461 C 97.188,76.461 100.99,78.27 100.99,80.5 z "
   style="stroke-width:0.84906;stroke-linecap:round;stroke-linejoin:round"
   id="path7153" />
<text
   transform="matrix(1,0,0,-1,87.191,77.977)"
   style="font-size:8px;fill:#000000;stroke:none;font-family:&quot;Helvetica&quot;, sans-serif"
   id="text7155">80</text>

<text
   transform="matrix(1,0,0,-1,18.184,74.918)"
   style="font-size:16px;fill:#000000;stroke:none;font-family:&quot;Helvetica&quot;, sans-serif"
   id="text7157">P</text>

<polygon
   points="46.5,160.5 138.5,160.5 184.5,80.5 138.5,0.5 46.5,0.5 0.5,80.5 46.5,160.5 "
   style="stroke-width:1;stroke-linejoin:round"
   id="polygon7159" />
</g></svg>
