<?xml version="1.0" encoding="UTF-8" standalone="no"?>
<svg
   xmlns:dc="http://purl.org/dc/elements/1.1/"
   xmlns:cc="http://web.resource.org/cc/"
   xmlns:rdf="http://www.w3.org/1999/02/22-rdf-syntax-ns#"
   xmlns:svg="http://www.w3.org/2000/svg"
   xmlns="http://www.w3.org/2000/svg"
   xmlns:sodipodi="http://inkscape.sourceforge.net/DTD/sodipodi-0.dtd"
   xmlns:inkscape="http://www.inkscape.org/namespaces/inkscape"
   width="100"
   height="100"
   viewBox="0 0 1 1"
   preserveAspectRatio="none"
   id="svg7494"
   sodipodi:version="0.32"
   inkscape:version="0.43"
   sodipodi:docname="tile313.svg"
   sodipodi:docbase="C:\Documents and Settings\lentz\Desktop\TileDesigner"
   version="1.0">
  <metadata
     id="metadata7575">
    <rdf:RDF>
      <cc:Work
         rdf:about="">
        <dc:format>image/svg+xml</dc:format>
        <dc:type
           rdf:resource="http://purl.org/dc/dcmitype/StillImage" />
      </cc:Work>
    </rdf:RDF>
  </metadata>
  <defs
     id="defs7573" />
  <sodipodi:namedview
     inkscape:window-height="540"
     inkscape:window-width="749"
     inkscape:pageshadow="2"
     inkscape:pageopacity="0.0"
     borderopacity="1.0"
     bordercolor="#666666"
     pagecolor="#ffffff"
     id="base"
     inkscape:zoom="0.52361111"
     inkscape:cx="360"
     inkscape:cy="360"
     inkscape:window-x="132"
     inkscape:window-y="132"
     inkscape:current-layer="svg7494" />
  <title
     id="title7496">SVG drawing</title>
  <desc
     id="desc7498">This was produced by version 4.1 of GNU libplot, a free library for exporting 2-D vector graphics.</desc>
  <g
     transform="matrix(5.418114e-3,0,0,-5.739835e-3,-1.175565e-3,0.934679)"
     xml:space="preserve"
     style="font-style:normal;font-variant:normal;font-weight:normal;font-stretch:normal;letter-spacing:normal;word-spacing:normal;text-anchor:start;fill:none;fill-opacity:1;stroke:#000000;stroke-linecap:butt;stroke-linejoin:miter;stroke-miterlimit:10.43299961;stroke-dasharray:none;stroke-dashoffset:0;stroke-opacity:1"
     id="g7502">
<polygon
   points="46.5,160.5 138.5,160.5 184.5,80.5 138.5,0.5 46.5,0.5 0.5,80.5 46.5,160.5 "
   style="fill:#38ac00;fill-rule:nonzero;stroke:#38ac00;stroke-width:0;stroke-linejoin:round"
   id="polygon7504" />
<text
   transform="matrix(1,0,0,-1,109.23,7.9141)"
   style="font-size:8px;fill:#000000;stroke:none;font-family:&quot;Helvetica&quot;, sans-serif"
   id="text7506">313</text>

<polygon
   points="109.5,98.5 85.5,56.5 127.5,32.5 151.5,74.5 109.5,98.5 "
   style="fill:#ffffff;fill-rule:nonzero;stroke:#ffffff;stroke-width:0;stroke-linejoin:round"
   id="polygon7508" />
<polygon
   points="109.5,98.5 85.5,56.5 127.5,32.5 151.5,74.5 109.5,98.5 "
   style="stroke:#ffffff;stroke-width:6;stroke-linejoin:round"
   id="polygon7510" />
<path
   d="M 154.5,86.5 L 154.47,87.735 L 154.38,88.954 L 154.22,90.155 L 154.01,91.337 L 153.74,92.498 L 153.42,93.637 L 153.04,94.752 L 152.61,95.841 L 152.13,96.905 L 151.6,97.939 L 151.03,98.944 L 150.4,99.918 L 149.73,100.86 L 149.02,101.77 L 148.26,102.64 L 147.47,103.47 L 146.64,104.26 L 145.77,105.02 L 144.86,105.73 L 143.92,106.4 L 142.94,107.03 L 141.94,107.6 L 140.9,108.13 L 139.84,108.61 L 138.75,109.04 L 137.64,109.42 L 136.5,109.74 L 135.34,110.01 L 134.15,110.22 L 132.95,110.38 L 131.73,110.47 L 130.5,110.5 C 117.25,110.5 106.5,99.754 106.5,86.5 C 106.5,73.246 117.25,62.5 130.5,62.5 C 143.75,62.5 154.5,73.246 154.5,86.5 z "
   style="fill:#ffffff;fill-rule:nonzero;stroke:#ffffff;stroke-width:0;stroke-linecap:round;stroke-linejoin:round"
   id="path7512" />
<path
   d="M 154.5,86.5 L 154.47,87.735 L 154.38,88.954 L 154.22,90.155 L 154.01,91.337 L 153.74,92.498 L 153.42,93.637 L 153.04,94.752 L 152.61,95.841 L 152.13,96.905 L 151.6,97.939 L 151.03,98.944 L 150.4,99.918 L 149.73,100.86 L 149.02,101.77 L 148.26,102.64 L 147.47,103.47 L 146.64,104.26 L 145.77,105.02 L 144.86,105.73 L 143.92,106.4 L 142.94,107.03 L 141.94,107.6 L 140.9,108.13 L 139.84,108.61 L 138.75,109.04 L 137.64,109.42 L 136.5,109.74 L 135.34,110.01 L 134.15,110.22 L 132.95,110.38 L 131.73,110.47 L 130.5,110.5 C 117.25,110.5 106.5,99.754 106.5,86.5 C 106.5,73.246 117.25,62.5 130.5,62.5 C 143.75,62.5 154.5,73.246 154.5,86.5 z "
   style="stroke:#ffffff;stroke-width:6;stroke-linecap:round;stroke-linejoin:round"
   id="path7514" />
<path
   d="M 130.5,44.5 L 130.47,45.735 L 130.38,46.954 L 130.22,48.155 L 130.01,49.337 L 129.74,50.498 L 129.42,51.637 L 129.04,52.752 L 128.61,53.841 L 128.13,54.905 L 127.6,55.939 L 127.03,56.944 L 126.4,57.918 L 125.73,58.859 L 125.02,59.766 L 124.26,60.637 L 123.47,61.47 L 122.64,62.265 L 121.77,63.019 L 120.86,63.732 L 119.92,64.401 L 118.94,65.025 L 117.94,65.603 L 116.9,66.133 L 115.84,66.614 L 114.75,67.044 L 113.64,67.421 L 112.5,67.744 L 111.34,68.012 L 110.15,68.223 L 108.95,68.376 L 107.73,68.469 L 106.5,68.5 C 93.246,68.5 82.5,57.754 82.5,44.5 C 82.5,31.246 93.246,20.5 106.5,20.5 C 119.75,20.5 130.5,31.246 130.5,44.5 z "
   style="fill:#ffffff;fill-rule:nonzero;stroke:#ffffff;stroke-width:0;stroke-linecap:round;stroke-linejoin:round"
   id="path7516" />
<path
   d="M 130.5,44.5 L 130.47,45.735 L 130.38,46.954 L 130.22,48.155 L 130.01,49.337 L 129.74,50.498 L 129.42,51.637 L 129.04,52.752 L 128.61,53.841 L 128.13,54.905 L 127.6,55.939 L 127.03,56.944 L 126.4,57.918 L 125.73,58.859 L 125.02,59.766 L 124.26,60.637 L 123.47,61.47 L 122.64,62.265 L 121.77,63.019 L 120.86,63.732 L 119.92,64.401 L 118.94,65.025 L 117.94,65.603 L 116.9,66.133 L 115.84,66.614 L 114.75,67.044 L 113.64,67.421 L 112.5,67.744 L 111.34,68.012 L 110.15,68.223 L 108.95,68.376 L 107.73,68.469 L 106.5,68.5 C 93.246,68.5 82.5,57.754 82.5,44.5 C 82.5,31.246 93.246,20.5 106.5,20.5 C 119.75,20.5 130.5,31.246 130.5,44.5 z "
   style="stroke:#ffffff;stroke-width:6;stroke-linecap:round;stroke-linejoin:round"
   id="path7518" />
<path
   d="M 82.5,100.5 L 82.469,101.73 L 82.376,102.95 L 82.223,104.15 L 82.012,105.34 L 81.744,106.5 L 81.421,107.64 L 81.044,108.75 L 80.614,109.84 L 80.133,110.9 L 79.603,111.94 L 79.025,112.94 L 78.401,113.92 L 77.732,114.86 L 77.019,115.77 L 76.265,116.64 L 75.47,117.47 L 74.637,118.26 L 73.766,119.02 L 72.859,119.73 L 71.918,120.4 L 70.944,121.03 L 69.939,121.6 L 68.905,122.13 L 67.841,122.61 L 66.752,123.04 L 65.637,123.42 L 64.498,123.74 L 63.337,124.01 L 62.155,124.22 L 60.954,124.38 L 59.735,124.47 L 58.5,124.5 C 45.246,124.5 34.5,113.75 34.5,100.5 C 34.5,87.246 45.246,76.5 58.5,76.5 C 71.754,76.5 82.5,87.246 82.5,100.5 z "
   style="fill:#ffffff;fill-rule:nonzero;stroke:#ffffff;stroke-width:0;stroke-linecap:round;stroke-linejoin:round"
   id="path7520" />
<path
   d="M 82.5,100.5 L 82.469,101.73 L 82.376,102.95 L 82.223,104.15 L 82.012,105.34 L 81.744,106.5 L 81.421,107.64 L 81.044,108.75 L 80.614,109.84 L 80.133,110.9 L 79.603,111.94 L 79.025,112.94 L 78.401,113.92 L 77.732,114.86 L 77.019,115.77 L 76.265,116.64 L 75.47,117.47 L 74.637,118.26 L 73.766,119.02 L 72.859,119.73 L 71.918,120.4 L 70.944,121.03 L 69.939,121.6 L 68.905,122.13 L 67.841,122.61 L 66.752,123.04 L 65.637,123.42 L 64.498,123.74 L 63.337,124.01 L 62.155,124.22 L 60.954,124.38 L 59.735,124.47 L 58.5,124.5 C 45.246,124.5 34.5,113.75 34.5,100.5 C 34.5,87.246 45.246,76.5 58.5,76.5 C 71.754,76.5 82.5,87.246 82.5,100.5 z "
   style="stroke:#ffffff;stroke-width:6;stroke-linecap:round;stroke-linejoin:round"
   id="path7522" />
<path
   d="M 161.5,120.5 L 161.71,120.13 C 140.72,108.06 123.27,90.676 111.12,69.727"
   style="stroke:#ffffff;stroke-width:16;stroke-linecap:round;stroke-linejoin:round"
   id="path7524" />
<line
   x1="111.5"
   y1="69.5"
   x2="161.5"
   y2="40.5"
   style="stroke:#ffffff;stroke-width:16;stroke-linecap:round"
   id="line7526" />
<path
   d="M 111.5,69.5 L 111.12,69.727 C 98.926,48.695 92.5,24.812 92.5,0.5"
   style="stroke:#ffffff;stroke-width:16;stroke-linecap:round;stroke-linejoin:round"
   id="path7528" />
<line
   x1="58.5"
   y1="100.5"
   x2="23.5"
   y2="120.5"
   style="stroke:#ffffff;stroke-width:16;stroke-linecap:round"
   id="line7530" />
<path
   d="M 161.5,120.5 L 161.71,120.13 C 140.72,108.06 123.27,90.676 111.12,69.727"
   style="stroke-width:12;stroke-linecap:round;stroke-linejoin:round"
   id="path7532" />
<line
   x1="111.5"
   y1="69.5"
   x2="161.5"
   y2="40.5"
   style="stroke-width:12;stroke-linecap:round"
   id="line7534" />
<path
   d="M 111.5,69.5 L 111.12,69.727 C 98.926,48.695 92.5,24.812 92.5,0.5"
   style="stroke-width:12;stroke-linecap:round;stroke-linejoin:round"
   id="path7536" />
<line
   x1="58.5"
   y1="100.5"
   x2="23.5"
   y2="120.5"
   style="stroke-width:12;stroke-linecap:round"
   id="line7538" />
<polygon
   points="109.5,98.5 85.5,56.5 127.5,32.5 151.5,74.5 109.5,98.5 "
   style="fill:#ffffff;fill-rule:nonzero;stroke:#ffffff;stroke-width:0;stroke-linejoin:round"
   id="polygon7540" />
<polygon
   points="109.5,98.5 85.5,56.5 127.5,32.5 151.5,74.5 109.5,98.5 "
   style="stroke-width:2;stroke-linejoin:round"
   id="polygon7542" />
<path
   d="M 154.5,86.5 L 154.47,87.735 L 154.38,88.954 L 154.22,90.155 L 154.01,91.337 L 153.74,92.498 L 153.42,93.637 L 153.04,94.752 L 152.61,95.841 L 152.13,96.905 L 151.6,97.939 L 151.03,98.944 L 150.4,99.918 L 149.73,100.86 L 149.02,101.77 L 148.26,102.64 L 147.47,103.47 L 146.64,104.26 L 145.77,105.02 L 144.86,105.73 L 143.92,106.4 L 142.94,107.03 L 141.94,107.6 L 140.9,108.13 L 139.84,108.61 L 138.75,109.04 L 137.64,109.42 L 136.5,109.74 L 135.34,110.01 L 134.15,110.22 L 132.95,110.38 L 131.73,110.47 L 130.5,110.5 C 117.25,110.5 106.5,99.754 106.5,86.5 C 106.5,73.246 117.25,62.5 130.5,62.5 C 143.75,62.5 154.5,73.246 154.5,86.5 z "
   style="fill:#ffffff;fill-rule:nonzero;stroke:#ffffff;stroke-width:0;stroke-linecap:round;stroke-linejoin:round"
   id="path7544" />
<path
   d="M 154.5,86.5 L 154.47,87.735 L 154.38,88.954 L 154.22,90.155 L 154.01,91.337 L 153.74,92.498 L 153.42,93.637 L 153.04,94.752 L 152.61,95.841 L 152.13,96.905 L 151.6,97.939 L 151.03,98.944 L 150.4,99.918 L 149.73,100.86 L 149.02,101.77 L 148.26,102.64 L 147.47,103.47 L 146.64,104.26 L 145.77,105.02 L 144.86,105.73 L 143.92,106.4 L 142.94,107.03 L 141.94,107.6 L 140.9,108.13 L 139.84,108.61 L 138.75,109.04 L 137.64,109.42 L 136.5,109.74 L 135.34,110.01 L 134.15,110.22 L 132.95,110.38 L 131.73,110.47 L 130.5,110.5 C 117.25,110.5 106.5,99.754 106.5,86.5 C 106.5,73.246 117.25,62.5 130.5,62.5 C 143.75,62.5 154.5,73.246 154.5,86.5 z "
   style="stroke-width:2;stroke-linecap:round;stroke-linejoin:round"
   id="path7546" />
<path
   d="M 130.5,44.5 L 130.47,45.735 L 130.38,46.954 L 130.22,48.155 L 130.01,49.337 L 129.74,50.498 L 129.42,51.637 L 129.04,52.752 L 128.61,53.841 L 128.13,54.905 L 127.6,55.939 L 127.03,56.944 L 126.4,57.918 L 125.73,58.859 L 125.02,59.766 L 124.26,60.637 L 123.47,61.47 L 122.64,62.265 L 121.77,63.019 L 120.86,63.732 L 119.92,64.401 L 118.94,65.025 L 117.94,65.603 L 116.9,66.133 L 115.84,66.614 L 114.75,67.044 L 113.64,67.421 L 112.5,67.744 L 111.34,68.012 L 110.15,68.223 L 108.95,68.376 L 107.73,68.469 L 106.5,68.5 C 93.246,68.5 82.5,57.754 82.5,44.5 C 82.5,31.246 93.246,20.5 106.5,20.5 C 119.75,20.5 130.5,31.246 130.5,44.5 z "
   style="fill:#ffffff;fill-rule:nonzero;stroke:#ffffff;stroke-width:0;stroke-linecap:round;stroke-linejoin:round"
   id="path7548" />
<path
   d="M 130.5,44.5 L 130.47,45.735 L 130.38,46.954 L 130.22,48.155 L 130.01,49.337 L 129.74,50.498 L 129.42,51.637 L 129.04,52.752 L 128.61,53.841 L 128.13,54.905 L 127.6,55.939 L 127.03,56.944 L 126.4,57.918 L 125.73,58.859 L 125.02,59.766 L 124.26,60.637 L 123.47,61.47 L 122.64,62.265 L 121.77,63.019 L 120.86,63.732 L 119.92,64.401 L 118.94,65.025 L 117.94,65.603 L 116.9,66.133 L 115.84,66.614 L 114.75,67.044 L 113.64,67.421 L 112.5,67.744 L 111.34,68.012 L 110.15,68.223 L 108.95,68.376 L 107.73,68.469 L 106.5,68.5 C 93.246,68.5 82.5,57.754 82.5,44.5 C 82.5,31.246 93.246,20.5 106.5,20.5 C 119.75,20.5 130.5,31.246 130.5,44.5 z "
   style="stroke-width:2;stroke-linecap:round;stroke-linejoin:round"
   id="path7550" />
<path
   d="M 134.99,140.5 L 134.98,140.71 L 134.95,140.91 L 134.89,141.11 L 134.82,141.31 L 134.72,141.51 L 134.61,141.7 L 134.48,141.89 L 134.32,142.07 L 134.15,142.25 L 133.97,142.42 L 133.76,142.59 L 133.54,142.76 L 133.3,142.92 L 133.05,143.07 L 132.79,143.22 L 132.5,143.36 L 132.21,143.49 L 131.9,143.62 L 131.58,143.74 L 131.25,143.85 L 130.9,143.95 L 130.55,144.05 L 130.18,144.14 L 129.8,144.22 L 129.42,144.29 L 129.02,144.36 L 128.62,144.41 L 128.21,144.46 L 127.79,144.49 L 127.37,144.52 L 126.94,144.53 L 126.5,144.54 C 121.81,144.54 118.01,142.73 118.01,140.5 C 118.01,138.27 121.81,136.46 126.5,136.46 C 131.19,136.46 134.99,138.27 134.99,140.5 z "
   style="fill:#ffffff;fill-rule:nonzero;stroke:#ffffff;stroke-width:0;stroke-linecap:round;stroke-linejoin:round"
   id="path7552" />
<path
   d="M 134.99,140.5 L 134.98,140.71 L 134.95,140.91 L 134.89,141.11 L 134.82,141.31 L 134.72,141.51 L 134.61,141.7 L 134.48,141.89 L 134.32,142.07 L 134.15,142.25 L 133.97,142.42 L 133.76,142.59 L 133.54,142.76 L 133.3,142.92 L 133.05,143.07 L 132.79,143.22 L 132.5,143.36 L 132.21,143.49 L 131.9,143.62 L 131.58,143.74 L 131.25,143.85 L 130.9,143.95 L 130.55,144.05 L 130.18,144.14 L 129.8,144.22 L 129.42,144.29 L 129.02,144.36 L 128.62,144.41 L 128.21,144.46 L 127.79,144.49 L 127.37,144.52 L 126.94,144.53 L 126.5,144.54 C 121.81,144.54 118.01,142.73 118.01,140.5 C 118.01,138.27 121.81,136.46 126.5,136.46 C 131.19,136.46 134.99,138.27 134.99,140.5 z "
   style="stroke-width:0.84906;stroke-linecap:round;stroke-linejoin:round"
   id="path7554" />
<text
   transform="matrix(1,0,0,-1,121.19,137.98)"
   style="font-size:8px;fill:#000000;stroke:none;font-family:&quot;Helvetica&quot;, sans-serif"
   id="text7556">60</text>

<path
   d="M 82.5,100.5 L 82.469,101.73 L 82.376,102.95 L 82.223,104.15 L 82.012,105.34 L 81.744,106.5 L 81.421,107.64 L 81.044,108.75 L 80.614,109.84 L 80.133,110.9 L 79.603,111.94 L 79.025,112.94 L 78.401,113.92 L 77.732,114.86 L 77.019,115.77 L 76.265,116.64 L 75.47,117.47 L 74.637,118.26 L 73.766,119.02 L 72.859,119.73 L 71.918,120.4 L 70.944,121.03 L 69.939,121.6 L 68.905,122.13 L 67.841,122.61 L 66.752,123.04 L 65.637,123.42 L 64.498,123.74 L 63.337,124.01 L 62.155,124.22 L 60.954,124.38 L 59.735,124.47 L 58.5,124.5 C 45.246,124.5 34.5,113.75 34.5,100.5 C 34.5,87.246 45.246,76.5 58.5,76.5 C 71.754,76.5 82.5,87.246 82.5,100.5 z "
   style="fill:#ffffff;fill-rule:nonzero;stroke:#ffffff;stroke-width:0;stroke-linecap:round;stroke-linejoin:round"
   id="path7558" />
<path
   d="M 82.5,100.5 L 82.469,101.73 L 82.376,102.95 L 82.223,104.15 L 82.012,105.34 L 81.744,106.5 L 81.421,107.64 L 81.044,108.75 L 80.614,109.84 L 80.133,110.9 L 79.603,111.94 L 79.025,112.94 L 78.401,113.92 L 77.732,114.86 L 77.019,115.77 L 76.265,116.64 L 75.47,117.47 L 74.637,118.26 L 73.766,119.02 L 72.859,119.73 L 71.918,120.4 L 70.944,121.03 L 69.939,121.6 L 68.905,122.13 L 67.841,122.61 L 66.752,123.04 L 65.637,123.42 L 64.498,123.74 L 63.337,124.01 L 62.155,124.22 L 60.954,124.38 L 59.735,124.47 L 58.5,124.5 C 45.246,124.5 34.5,113.75 34.5,100.5 C 34.5,87.246 45.246,76.5 58.5,76.5 C 71.754,76.5 82.5,87.246 82.5,100.5 z "
   style="stroke-width:2;stroke-linecap:round;stroke-linejoin:round"
   id="path7560" />
<path
   d="M 134.99,140.5 L 134.98,140.71 L 134.95,140.91 L 134.89,141.11 L 134.82,141.31 L 134.72,141.51 L 134.61,141.7 L 134.48,141.89 L 134.32,142.07 L 134.15,142.25 L 133.97,142.42 L 133.76,142.59 L 133.54,142.76 L 133.3,142.92 L 133.05,143.07 L 132.79,143.22 L 132.5,143.36 L 132.21,143.49 L 131.9,143.62 L 131.58,143.74 L 131.25,143.85 L 130.9,143.95 L 130.55,144.05 L 130.18,144.14 L 129.8,144.22 L 129.42,144.29 L 129.02,144.36 L 128.62,144.41 L 128.21,144.46 L 127.79,144.49 L 127.37,144.52 L 126.94,144.53 L 126.5,144.54 C 121.81,144.54 118.01,142.73 118.01,140.5 C 118.01,138.27 121.81,136.46 126.5,136.46 C 131.19,136.46 134.99,138.27 134.99,140.5 z "
   style="fill:#ffffff;fill-rule:nonzero;stroke:#ffffff;stroke-width:0;stroke-linecap:round;stroke-linejoin:round"
   id="path7562" />
<path
   d="M 134.99,140.5 L 134.98,140.71 L 134.95,140.91 L 134.89,141.11 L 134.82,141.31 L 134.72,141.51 L 134.61,141.7 L 134.48,141.89 L 134.32,142.07 L 134.15,142.25 L 133.97,142.42 L 133.76,142.59 L 133.54,142.76 L 133.3,142.92 L 133.05,143.07 L 132.79,143.22 L 132.5,143.36 L 132.21,143.49 L 131.9,143.62 L 131.58,143.74 L 131.25,143.85 L 130.9,143.95 L 130.55,144.05 L 130.18,144.14 L 129.8,144.22 L 129.42,144.29 L 129.02,144.36 L 128.62,144.41 L 128.21,144.46 L 127.79,144.49 L 127.37,144.52 L 126.94,144.53 L 126.5,144.54 C 121.81,144.54 118.01,142.73 118.01,140.5 C 118.01,138.27 121.81,136.46 126.5,136.46 C 131.19,136.46 134.99,138.27 134.99,140.5 z "
   style="stroke-width:0.84906;stroke-linecap:round;stroke-linejoin:round"
   id="path7564" />
<text
   transform="matrix(1,0,0,-1,121.19,137.98)"
   style="font-size:8px;fill:#000000;stroke:none;font-family:&quot;Helvetica&quot;, sans-serif"
   id="text7566">60</text>

<text
   transform="matrix(1,0,0,-1,47.492,14.918)"
   style="font-size:16px;fill:#000000;stroke:none;font-family:&quot;Helvetica&quot;, sans-serif"
   id="text7568">HH</text>

<polygon
   points="46.5,160.5 138.5,160.5 184.5,80.5 138.5,0.5 46.5,0.5 0.5,80.5 46.5,160.5 "
   style="stroke-width:1;stroke-linejoin:round"
   id="polygon7570" />
</g></svg>
