<?xml version="1.0" encoding="UTF-8" standalone="no"?>
<svg
   xmlns:dc="http://purl.org/dc/elements/1.1/"
   xmlns:cc="http://web.resource.org/cc/"
   xmlns:rdf="http://www.w3.org/1999/02/22-rdf-syntax-ns#"
   xmlns:svg="http://www.w3.org/2000/svg"
   xmlns="http://www.w3.org/2000/svg"
   xmlns:sodipodi="http://inkscape.sourceforge.net/DTD/sodipodi-0.dtd"
   xmlns:inkscape="http://www.inkscape.org/namespaces/inkscape"
   width="100"
   height="100"
   viewBox="0 0 1 1"
   preserveAspectRatio="none"
   id="svg5208"
   sodipodi:version="0.32"
   inkscape:version="0.43"
   sodipodi:docname="tile-113.svg"
   sodipodi:docbase="C:\Documents and Settings\lentz\Desktop\TileDesigner"
   version="1.0">
  <metadata
     id="metadata5253">
    <rdf:RDF>
      <cc:Work
         rdf:about="">
        <dc:format>image/svg+xml</dc:format>
        <dc:type
           rdf:resource="http://purl.org/dc/dcmitype/StillImage" />
      </cc:Work>
    </rdf:RDF>
  </metadata>
  <defs
     id="defs5251" />
  <sodipodi:namedview
     inkscape:window-height="540"
     inkscape:window-width="749"
     inkscape:pageshadow="2"
     inkscape:pageopacity="0.0"
     borderopacity="1.0"
     bordercolor="#666666"
     pagecolor="#ffffff"
     id="base"
     inkscape:zoom="0.52361111"
     inkscape:cx="360"
     inkscape:cy="335.00053"
     inkscape:window-x="110"
     inkscape:window-y="110"
     inkscape:current-layer="g5216" />
  <title
     id="title5210">SVG drawing</title>
  <desc
     id="desc5212">This was produced by version 4.1 of GNU libplot, a free library for exporting 2-D vector graphics.</desc>
  <rect
     x="0"
     y="0"
     width="1"
     height="1"
     style="fill:#ffffff;stroke:none"
     id="rect5214" />
  <g
     transform="matrix(1.7361e-3,0,0,-1.7361e-3,-3.125e-2,1.1875)"
     xml:space="preserve"
     style="font-style:normal;font-variant:normal;font-weight:normal;font-stretch:normal;letter-spacing:normal;word-spacing:normal;text-anchor:start;fill:none;fill-opacity:1;stroke:#000000;stroke-linecap:butt;stroke-linejoin:miter;stroke-miterlimit:10.43299961;stroke-dasharray:none;stroke-dashoffset:0;stroke-opacity:1"
     id="g5216">
<polygon
   points="46.5,160.5 138.5,160.5 184.5,80.5 138.5,0.5 46.5,0.5 0.5,80.5 46.5,160.5 "
   style="fill:#c0c0c0;fill-rule:nonzero;stroke:#c0c0c0;stroke-width:0;stroke-linejoin:round"
   id="polygon5218"
   transform="matrix(3.16372,0,0,3.394914,13.35782,139.1268)" />
<text
   transform="scale(0.96535,-1.035894)"
   style="font-size:26.2182312px;fill:#000000;stroke:none;font-family:&quot;Helvetica&quot;, sans-serif"
   id="text5220"
   x="366.89853"
   y="-160.24263">-113</text>

<path
   d="M 381.93125,412.41735 L 381.83634,416.61007 L 381.55161,420.74847 L 381.04541,424.82576 L 380.38103,428.83855 L 379.52683,432.78005 L 378.51444,436.64685 L 377.31222,440.43218 L 375.95182,444.12924 L 374.43324,447.74143 L 372.75646,451.25177 L 370.95314,454.66366 L 368.96,457.97031 L 366.84031,461.16492 L 364.59407,464.24411 L 362.18964,467.20108 L 359.6903,470.02904 L 357.06441,472.728 L 354.31197,475.28777 L 351.43299,477.70834 L 348.45909,479.97614 L 345.35865,482.11494 L 342.19492,484.05004 L 338.90466,485.84934 L 335.55111,487.4789 L 332.10266,488.93872 L 328.58144,490.22878 L 324.97796,491.31516 L 321.30488,492.23178 L 317.56536,492.94472 L 313.76573,493.4879 L 309.90916,493.79344 L 306.00196,493.89529 C 264.07,493.89529 230.07266,457.41354 230.07266,412.41735 C 230.07266,367.42116 264.07,330.93941 306.00196,330.93941 C 347.92126,330.93941 381.93125,367.42116 381.93125,412.41735 z "
   style="fill:#ffffff;fill-rule:nonzero;stroke:#ffffff;stroke-width:0;stroke-linecap:round;stroke-linejoin:round"
   id="path5222" />
<path
   d="M 381.93125,412.41735 L 381.83634,416.61007 L 381.55161,420.74847 L 381.04541,424.82576 L 380.38103,428.83855 L 379.52683,432.78005 L 378.51444,436.64685 L 377.31222,440.43218 L 375.95182,444.12924 L 374.43324,447.74143 L 372.75646,451.25177 L 370.95314,454.66366 L 368.96,457.97031 L 366.84031,461.16492 L 364.59407,464.24411 L 362.18964,467.20108 L 359.6903,470.02904 L 357.06441,472.728 L 354.31197,475.28777 L 351.43299,477.70834 L 348.45909,479.97614 L 345.35865,482.11494 L 342.19492,484.05004 L 338.90466,485.84934 L 335.55111,487.4789 L 332.10266,488.93872 L 328.58144,490.22878 L 324.97796,491.31516 L 321.30488,492.23178 L 317.56536,492.94472 L 313.76573,493.4879 L 309.90916,493.79344 L 306.00196,493.89529 C 264.07,493.89529 230.07266,457.41354 230.07266,412.41735 C 230.07266,367.42116 264.07,330.93941 306.00196,330.93941 C 347.92126,330.93941 381.93125,367.42116 381.93125,412.41735 z "
   style="stroke:#ffffff;stroke-width:19.66367722;stroke-linecap:round;stroke-linejoin:round"
   id="path5224" />
<line
   x1="306.00192"
   y1="412.41733"
   x2="87.705238"
   y2="548.21393"
   style="stroke:#ffffff;stroke-width:52.43646622;stroke-linecap:round"
   id="line5226" />
<line
   x1="306.00192"
   y1="412.41733"
   x2="524.29871"
   y2="548.21393"
   style="stroke:#ffffff;stroke-width:52.43646622;stroke-linecap:round"
   id="line5228" />
<line
   x1="306.00192"
   y1="412.41733"
   x2="306.00192"
   y2="140.8242"
   style="stroke:#ffffff;stroke-width:52.43646622;stroke-linecap:round"
   id="line5230" />
<line
   x1="306.00192"
   y1="412.41733"
   x2="87.705238"
   y2="548.21393"
   style="stroke-width:39.32735443;stroke-linecap:round"
   id="line5232" />
<line
   x1="306.00192"
   y1="412.41733"
   x2="524.29871"
   y2="548.21393"
   style="stroke-width:39.32735443;stroke-linecap:round"
   id="line5234" />
<line
   x1="306.00192"
   y1="412.41733"
   x2="306.00192"
   y2="140.8242"
   style="stroke-width:39.32735443;stroke-linecap:round"
   id="line5236" />
<path
   d="M 381.93125,412.41735 L 381.83634,416.61007 L 381.55161,420.74847 L 381.04541,424.82576 L 380.38103,428.83855 L 379.52683,432.78005 L 378.51444,436.64685 L 377.31222,440.43218 L 375.95182,444.12924 L 374.43324,447.74143 L 372.75646,451.25177 L 370.95314,454.66366 L 368.96,457.97031 L 366.84031,461.16492 L 364.59407,464.24411 L 362.18964,467.20108 L 359.6903,470.02904 L 357.06441,472.728 L 354.31197,475.28777 L 351.43299,477.70834 L 348.45909,479.97614 L 345.35865,482.11494 L 342.19492,484.05004 L 338.90466,485.84934 L 335.55111,487.4789 L 332.10266,488.93872 L 328.58144,490.22878 L 324.97796,491.31516 L 321.30488,492.23178 L 317.56536,492.94472 L 313.76573,493.4879 L 309.90916,493.79344 L 306.00196,493.89529 C 264.07,493.89529 230.07266,457.41354 230.07266,412.41735 C 230.07266,367.42116 264.07,330.93941 306.00196,330.93941 C 347.92126,330.93941 381.93125,367.42116 381.93125,412.41735 z "
   style="fill:#ffffff;fill-rule:nonzero;stroke:#ffffff;stroke-width:0;stroke-linecap:round;stroke-linejoin:round"
   id="path5238" />
<path
   d="M 381.93125,412.41735 L 381.83634,416.61007 L 381.55161,420.74847 L 381.04541,424.82576 L 380.38103,428.83855 L 379.52683,432.78005 L 378.51444,436.64685 L 377.31222,440.43218 L 375.95182,444.12924 L 374.43324,447.74143 L 372.75646,451.25177 L 370.95314,454.66366 L 368.96,457.97031 L 366.84031,461.16492 L 364.59407,464.24411 L 362.18964,467.20108 L 359.6903,470.02904 L 357.06441,472.728 L 354.31197,475.28777 L 351.43299,477.70834 L 348.45909,479.97614 L 345.35865,482.11494 L 342.19492,484.05004 L 338.90466,485.84934 L 335.55111,487.4789 L 332.10266,488.93872 L 328.58144,490.22878 L 324.97796,491.31516 L 321.30488,492.23178 L 317.56536,492.94472 L 313.76573,493.4879 L 309.90916,493.79344 L 306.00196,493.89529 C 264.07,493.89529 230.07266,457.41354 230.07266,412.41735 C 230.07266,367.42116 264.07,330.93941 306.00196,330.93941 C 347.92126,330.93941 381.93125,367.42116 381.93125,412.41735 z "
   style="stroke-width:6.55455828;stroke-linecap:round;stroke-linejoin:round"
   id="path5240" />
<path
   d="M 225.30177,616.1122 L 225.26697,616.82514 L 225.16256,617.50412 L 224.99172,618.1831 L 224.75761,618.86208 L 224.45705,619.54107 L 224.09323,620.1861 L 223.67245,620.83113 L 223.1884,621.44222 L 222.65057,622.0533 L 222.05895,622.63044 L 221.41039,623.20757 L 220.71121,623.78471 L 219.96141,624.3279 L 219.16415,624.83713 L 218.31944,625.34637 L 217.43043,625.82166 L 216.49713,626.263 L 215.52271,626.70434 L 214.50715,627.11173 L 213.45363,627.48517 L 212.36215,627.82466 L 211.23903,628.16415 L 210.08111,628.46969 L 208.88839,628.74129 L 207.67035,628.97893 L 206.42068,629.21657 L 205.1457,629.38632 L 203.84858,629.55606 L 202.52614,629.65791 L 201.18156,629.75976 L 199.818,629.79371 L 198.43545,629.82766 C 183.60393,629.82766 171.56914,623.68286 171.56914,616.1122 C 171.56914,608.54155 183.60393,602.39675 198.43545,602.39675 C 213.26697,602.39675 225.30177,608.54155 225.30177,616.1122 z "
   style="fill:#ffffff;fill-rule:nonzero;stroke:#ffffff;stroke-width:0;stroke-linecap:round;stroke-linejoin:round"
   id="path5242" />
<path
   d="M 225.30177,616.1122 L 225.26697,616.82514 L 225.16256,617.50412 L 224.99172,618.1831 L 224.75761,618.86208 L 224.45705,619.54107 L 224.09323,620.1861 L 223.67245,620.83113 L 223.1884,621.44222 L 222.65057,622.0533 L 222.05895,622.63044 L 221.41039,623.20757 L 220.71121,623.78471 L 219.96141,624.3279 L 219.16415,624.83713 L 218.31944,625.34637 L 217.43043,625.82166 L 216.49713,626.263 L 215.52271,626.70434 L 214.50715,627.11173 L 213.45363,627.48517 L 212.36215,627.82466 L 211.23903,628.16415 L 210.08111,628.46969 L 208.88839,628.74129 L 207.67035,628.97893 L 206.42068,629.21657 L 205.1457,629.38632 L 203.84858,629.55606 L 202.52614,629.65791 L 201.18156,629.75976 L 199.818,629.79371 L 198.43545,629.82766 C 183.60393,629.82766 171.56914,623.68286 171.56914,616.1122 C 171.56914,608.54155 183.60393,602.39675 198.43545,602.39675 C 213.26697,602.39675 225.30177,608.54155 225.30177,616.1122 z "
   style="stroke-width:2.7826066;stroke-linecap:round;stroke-linejoin:round"
   id="path5244" />
<text
   transform="scale(0.96535,-1.035894)"
   style="font-size:26.2182312px;fill:#000000;stroke:none;font-family:&quot;Helvetica&quot;, sans-serif"
   id="text5246"
   x="188.15903"
   y="-586.50488">30</text>

<polygon
   points="46.5,160.5 138.5,160.5 184.5,80.5 138.5,0.5 46.5,0.5 0.5,80.5 46.5,160.5 "
   style="stroke-width:1;stroke-linejoin:round"
   id="polygon5248"
   transform="matrix(3.16372,0,0,3.394914,13.35782,139.1268)" />
</g></svg>
