<?xml version="1.0" encoding="UTF-8" standalone="no"?>
<svg
   xmlns:dc="http://purl.org/dc/elements/1.1/"
   xmlns:cc="http://web.resource.org/cc/"
   xmlns:rdf="http://www.w3.org/1999/02/22-rdf-syntax-ns#"
   xmlns:svg="http://www.w3.org/2000/svg"
   xmlns="http://www.w3.org/2000/svg"
   xmlns:sodipodi="http://inkscape.sourceforge.net/DTD/sodipodi-0.dtd"
   xmlns:inkscape="http://www.inkscape.org/namespaces/inkscape"
   width="100"
   height="100"
   viewBox="0 0 1 1"
   preserveAspectRatio="none"
   id="svg8157"
   sodipodi:version="0.32"
   inkscape:version="0.43"
   sodipodi:docname="tile68.svg"
   sodipodi:docbase="C:\Documents and Settings\lentz\Desktop\TileDesigner"
   version="1.0">
  <metadata
     id="metadata8222">
    <rdf:RDF>
      <cc:Work
         rdf:about="">
        <dc:format>image/svg+xml</dc:format>
        <dc:type
           rdf:resource="http://purl.org/dc/dcmitype/StillImage" />
      </cc:Work>
    </rdf:RDF>
  </metadata>
  <defs
     id="defs8220" />
  <sodipodi:namedview
     inkscape:window-height="540"
     inkscape:window-width="749"
     inkscape:pageshadow="2"
     inkscape:pageopacity="0.0"
     borderopacity="1.0"
     bordercolor="#666666"
     pagecolor="#ffffff"
     id="base"
     inkscape:zoom="0.52361111"
     inkscape:cx="360"
     inkscape:cy="360"
     inkscape:window-x="220"
     inkscape:window-y="220"
     inkscape:current-layer="svg8157" />
  <title
     id="title8159">SVG drawing</title>
  <desc
     id="desc8161">This was produced by version 4.1 of GNU libplot, a free library for exporting 2-D vector graphics.</desc>
  <rect
     x="0"
     y="0"
     width="1"
     height="1"
     style="fill:#ffffff;stroke:none"
     id="rect8163" />
  <g
     transform="matrix(5.418114e-3,0,0,-5.333139e-3,-1.175565e-3,0.939964)"
     xml:space="preserve"
     style="font-style:normal;font-variant:normal;font-weight:normal;font-stretch:normal;letter-spacing:normal;word-spacing:normal;text-anchor:start;fill:none;fill-opacity:1;stroke:#000000;stroke-linecap:butt;stroke-linejoin:miter;stroke-miterlimit:10.43299961;stroke-dasharray:none;stroke-dashoffset:0;stroke-opacity:1"
     id="g8165">
<polygon
   points="46.5,160.5 138.5,160.5 184.5,80.5 138.5,0.5 46.5,0.5 0.5,80.5 46.5,160.5 "
   style="fill:#b46301;fill-rule:nonzero;stroke:#b46301;stroke-width:0;stroke-linejoin:round"
   id="polygon8167" />
<text
   transform="matrix(1,0,0,-1,111.19,7.9141)"
   style="font-size:8px;fill:#000000;stroke:none;font-family:&quot;Helvetica&quot;, sans-serif"
   id="text8169">68</text>

<path
   d="M 116.5,40.5 L 116.47,41.735 L 116.38,42.954 L 116.22,44.155 L 116.01,45.337 L 115.74,46.498 L 115.42,47.637 L 115.04,48.752 L 114.61,49.841 L 114.13,50.905 L 113.6,51.939 L 113.03,52.944 L 112.4,53.918 L 111.73,54.859 L 111.02,55.766 L 110.26,56.637 L 109.47,57.47 L 108.64,58.265 L 107.77,59.019 L 106.86,59.732 L 105.92,60.401 L 104.94,61.025 L 103.94,61.603 L 102.9,62.133 L 101.84,62.614 L 100.75,63.044 L 99.637,63.421 L 98.498,63.744 L 97.337,64.012 L 96.155,64.223 L 94.954,64.376 L 93.735,64.469 L 92.5,64.5 C 79.246,64.5 68.5,53.754 68.5,40.5 C 68.5,27.246 79.246,16.5 92.5,16.5 C 105.75,16.5 116.5,27.246 116.5,40.5 z "
   style="fill:#ffffff;fill-rule:nonzero;stroke:#ffffff;stroke-width:0;stroke-linecap:round;stroke-linejoin:round"
   id="path8171" />
<path
   d="M 116.5,40.5 L 116.47,41.735 L 116.38,42.954 L 116.22,44.155 L 116.01,45.337 L 115.74,46.498 L 115.42,47.637 L 115.04,48.752 L 114.61,49.841 L 114.13,50.905 L 113.6,51.939 L 113.03,52.944 L 112.4,53.918 L 111.73,54.859 L 111.02,55.766 L 110.26,56.637 L 109.47,57.47 L 108.64,58.265 L 107.77,59.019 L 106.86,59.732 L 105.92,60.401 L 104.94,61.025 L 103.94,61.603 L 102.9,62.133 L 101.84,62.614 L 100.75,63.044 L 99.637,63.421 L 98.498,63.744 L 97.337,64.012 L 96.155,64.223 L 94.954,64.376 L 93.735,64.469 L 92.5,64.5 C 79.246,64.5 68.5,53.754 68.5,40.5 C 68.5,27.246 79.246,16.5 92.5,16.5 C 105.75,16.5 116.5,27.246 116.5,40.5 z "
   style="stroke:#ffffff;stroke-width:6;stroke-linecap:round;stroke-linejoin:round"
   id="path8173" />
<path
   d="M 82.5,100.5 L 82.469,101.73 L 82.376,102.95 L 82.223,104.15 L 82.012,105.34 L 81.744,106.5 L 81.421,107.64 L 81.044,108.75 L 80.614,109.84 L 80.133,110.9 L 79.603,111.94 L 79.025,112.94 L 78.401,113.92 L 77.732,114.86 L 77.019,115.77 L 76.265,116.64 L 75.47,117.47 L 74.637,118.26 L 73.766,119.02 L 72.859,119.73 L 71.918,120.4 L 70.944,121.03 L 69.939,121.6 L 68.905,122.13 L 67.841,122.61 L 66.752,123.04 L 65.637,123.42 L 64.498,123.74 L 63.337,124.01 L 62.155,124.22 L 60.954,124.38 L 59.735,124.47 L 58.5,124.5 C 45.246,124.5 34.5,113.75 34.5,100.5 C 34.5,87.246 45.246,76.5 58.5,76.5 C 71.754,76.5 82.5,87.246 82.5,100.5 z "
   style="fill:#ffffff;fill-rule:nonzero;stroke:#ffffff;stroke-width:0;stroke-linecap:round;stroke-linejoin:round"
   id="path8175" />
<path
   d="M 82.5,100.5 L 82.469,101.73 L 82.376,102.95 L 82.223,104.15 L 82.012,105.34 L 81.744,106.5 L 81.421,107.64 L 81.044,108.75 L 80.614,109.84 L 80.133,110.9 L 79.603,111.94 L 79.025,112.94 L 78.401,113.92 L 77.732,114.86 L 77.019,115.77 L 76.265,116.64 L 75.47,117.47 L 74.637,118.26 L 73.766,119.02 L 72.859,119.73 L 71.918,120.4 L 70.944,121.03 L 69.939,121.6 L 68.905,122.13 L 67.841,122.61 L 66.752,123.04 L 65.637,123.42 L 64.498,123.74 L 63.337,124.01 L 62.155,124.22 L 60.954,124.38 L 59.735,124.47 L 58.5,124.5 C 45.246,124.5 34.5,113.75 34.5,100.5 C 34.5,87.246 45.246,76.5 58.5,76.5 C 71.754,76.5 82.5,87.246 82.5,100.5 z "
   style="stroke:#ffffff;stroke-width:6;stroke-linecap:round;stroke-linejoin:round"
   id="path8177" />
<line
   x1="92.5"
   y1="40.5"
   x2="92.5"
   y2="0.5"
   style="stroke:#ffffff;stroke-width:16;stroke-linecap:round"
   id="line8179" />
<line
   x1="58.5"
   y1="100.5"
   x2="161.5"
   y2="40.5"
   style="stroke:#ffffff;stroke-width:16;stroke-linecap:round"
   id="line8181" />
<line
   x1="58.5"
   y1="100.5"
   x2="23.5"
   y2="120.5"
   style="stroke:#ffffff;stroke-width:16;stroke-linecap:round"
   id="line8183" />
<line
   x1="92.5"
   y1="40.5"
   x2="92.5"
   y2="0.5"
   style="stroke-width:12;stroke-linecap:round"
   id="line8185" />
<line
   x1="58.5"
   y1="100.5"
   x2="161.5"
   y2="40.5"
   style="stroke-width:12;stroke-linecap:round"
   id="line8187" />
<line
   x1="58.5"
   y1="100.5"
   x2="23.5"
   y2="120.5"
   style="stroke-width:12;stroke-linecap:round"
   id="line8189" />
<line
   x1="92.5"
   y1="40.5"
   x2="92.5"
   y2="160.5"
   style="stroke:#ffffff;stroke-width:16;stroke-linecap:round"
   id="line8191" />
<line
   x1="92.5"
   y1="40.5"
   x2="92.5"
   y2="160.5"
   style="stroke-width:12;stroke-linecap:round"
   id="line8193" />
<path
   d="M 116.5,40.5 L 116.47,41.735 L 116.38,42.954 L 116.22,44.155 L 116.01,45.337 L 115.74,46.498 L 115.42,47.637 L 115.04,48.752 L 114.61,49.841 L 114.13,50.905 L 113.6,51.939 L 113.03,52.944 L 112.4,53.918 L 111.73,54.859 L 111.02,55.766 L 110.26,56.637 L 109.47,57.47 L 108.64,58.265 L 107.77,59.019 L 106.86,59.732 L 105.92,60.401 L 104.94,61.025 L 103.94,61.603 L 102.9,62.133 L 101.84,62.614 L 100.75,63.044 L 99.637,63.421 L 98.498,63.744 L 97.337,64.012 L 96.155,64.223 L 94.954,64.376 L 93.735,64.469 L 92.5,64.5 C 79.246,64.5 68.5,53.754 68.5,40.5 C 68.5,27.246 79.246,16.5 92.5,16.5 C 105.75,16.5 116.5,27.246 116.5,40.5 z "
   style="fill:#ffffff;fill-rule:nonzero;stroke:#ffffff;stroke-width:0;stroke-linecap:round;stroke-linejoin:round"
   id="path8195" />
<path
   d="M 116.5,40.5 L 116.47,41.735 L 116.38,42.954 L 116.22,44.155 L 116.01,45.337 L 115.74,46.498 L 115.42,47.637 L 115.04,48.752 L 114.61,49.841 L 114.13,50.905 L 113.6,51.939 L 113.03,52.944 L 112.4,53.918 L 111.73,54.859 L 111.02,55.766 L 110.26,56.637 L 109.47,57.47 L 108.64,58.265 L 107.77,59.019 L 106.86,59.732 L 105.92,60.401 L 104.94,61.025 L 103.94,61.603 L 102.9,62.133 L 101.84,62.614 L 100.75,63.044 L 99.637,63.421 L 98.498,63.744 L 97.337,64.012 L 96.155,64.223 L 94.954,64.376 L 93.735,64.469 L 92.5,64.5 C 79.246,64.5 68.5,53.754 68.5,40.5 C 68.5,27.246 79.246,16.5 92.5,16.5 C 105.75,16.5 116.5,27.246 116.5,40.5 z "
   style="stroke-width:2;stroke-linecap:round;stroke-linejoin:round"
   id="path8197" />
<path
   d="M 66.992,20.5 L 66.981,20.718 L 66.948,20.932 L 66.894,21.144 L 66.82,21.353 L 66.725,21.557 L 66.61,21.758 L 66.477,21.955 L 66.324,22.147 L 66.154,22.335 L 65.967,22.517 L 65.762,22.694 L 65.541,22.866 L 65.304,23.032 L 65.052,23.192 L 64.785,23.346 L 64.504,23.493 L 64.209,23.633 L 63.901,23.767 L 63.58,23.892 L 63.247,24.011 L 62.902,24.121 L 62.547,24.223 L 62.181,24.316 L 61.804,24.401 L 61.419,24.477 L 61.024,24.544 L 60.621,24.601 L 60.211,24.648 L 59.793,24.686 L 59.368,24.713 L 58.937,24.729 L 58.5,24.734 C 53.812,24.734 50.008,22.836 50.008,20.5 C 50.008,18.164 53.812,16.266 58.5,16.266 C 63.188,16.266 66.992,18.164 66.992,20.5 z "
   style="fill:#ffffff;fill-rule:nonzero;stroke:#ffffff;stroke-width:0;stroke-linecap:round;stroke-linejoin:round"
   id="path8199" />
<path
   d="M 66.992,20.5 L 66.981,20.718 L 66.948,20.932 L 66.894,21.144 L 66.82,21.353 L 66.725,21.557 L 66.61,21.758 L 66.477,21.955 L 66.324,22.147 L 66.154,22.335 L 65.967,22.517 L 65.762,22.694 L 65.541,22.866 L 65.304,23.032 L 65.052,23.192 L 64.785,23.346 L 64.504,23.493 L 64.209,23.633 L 63.901,23.767 L 63.58,23.892 L 63.247,24.011 L 62.902,24.121 L 62.547,24.223 L 62.181,24.316 L 61.804,24.401 L 61.419,24.477 L 61.024,24.544 L 60.621,24.601 L 60.211,24.648 L 59.793,24.686 L 59.368,24.713 L 58.937,24.729 L 58.5,24.734 C 53.812,24.734 50.008,22.836 50.008,20.5 C 50.008,18.164 53.812,16.266 58.5,16.266 C 63.188,16.266 66.992,18.164 66.992,20.5 z "
   style="stroke-width:0.84906;stroke-linecap:round;stroke-linejoin:round"
   id="path8201" />
<text
   transform="matrix(1,0,0,-1,53.191,17.855)"
   style="font-size:8px;fill:#000000;stroke:none;font-family:&quot;Helvetica&quot;, sans-serif"
   id="text8203">50</text>

<path
   d="M 82.5,100.5 L 82.469,101.73 L 82.376,102.95 L 82.223,104.15 L 82.012,105.34 L 81.744,106.5 L 81.421,107.64 L 81.044,108.75 L 80.614,109.84 L 80.133,110.9 L 79.603,111.94 L 79.025,112.94 L 78.401,113.92 L 77.732,114.86 L 77.019,115.77 L 76.265,116.64 L 75.47,117.47 L 74.637,118.26 L 73.766,119.02 L 72.859,119.73 L 71.918,120.4 L 70.944,121.03 L 69.939,121.6 L 68.905,122.13 L 67.841,122.61 L 66.752,123.04 L 65.637,123.42 L 64.498,123.74 L 63.337,124.01 L 62.155,124.22 L 60.954,124.38 L 59.735,124.47 L 58.5,124.5 C 45.246,124.5 34.5,113.75 34.5,100.5 C 34.5,87.246 45.246,76.5 58.5,76.5 C 71.754,76.5 82.5,87.246 82.5,100.5 z "
   style="fill:#ffffff;fill-rule:nonzero;stroke:#ffffff;stroke-width:0;stroke-linecap:round;stroke-linejoin:round"
   id="path8205" />
<path
   d="M 82.5,100.5 L 82.469,101.73 L 82.376,102.95 L 82.223,104.15 L 82.012,105.34 L 81.744,106.5 L 81.421,107.64 L 81.044,108.75 L 80.614,109.84 L 80.133,110.9 L 79.603,111.94 L 79.025,112.94 L 78.401,113.92 L 77.732,114.86 L 77.019,115.77 L 76.265,116.64 L 75.47,117.47 L 74.637,118.26 L 73.766,119.02 L 72.859,119.73 L 71.918,120.4 L 70.944,121.03 L 69.939,121.6 L 68.905,122.13 L 67.841,122.61 L 66.752,123.04 L 65.637,123.42 L 64.498,123.74 L 63.337,124.01 L 62.155,124.22 L 60.954,124.38 L 59.735,124.47 L 58.5,124.5 C 45.246,124.5 34.5,113.75 34.5,100.5 C 34.5,87.246 45.246,76.5 58.5,76.5 C 71.754,76.5 82.5,87.246 82.5,100.5 z "
   style="stroke-width:2;stroke-linecap:round;stroke-linejoin:round"
   id="path8207" />
<path
   d="M 66.992,140.5 L 66.981,140.72 L 66.948,140.93 L 66.894,141.14 L 66.82,141.35 L 66.725,141.56 L 66.61,141.76 L 66.477,141.95 L 66.324,142.15 L 66.154,142.33 L 65.967,142.52 L 65.762,142.69 L 65.541,142.87 L 65.304,143.03 L 65.052,143.19 L 64.785,143.35 L 64.504,143.49 L 64.209,143.63 L 63.901,143.77 L 63.58,143.89 L 63.247,144.01 L 62.902,144.12 L 62.547,144.22 L 62.181,144.32 L 61.804,144.4 L 61.419,144.48 L 61.024,144.54 L 60.621,144.6 L 60.211,144.65 L 59.793,144.69 L 59.368,144.71 L 58.937,144.73 L 58.5,144.73 C 53.812,144.73 50.008,142.84 50.008,140.5 C 50.008,138.16 53.812,136.27 58.5,136.27 C 63.188,136.27 66.992,138.16 66.992,140.5 z "
   style="fill:#ffffff;fill-rule:nonzero;stroke:#ffffff;stroke-width:0;stroke-linecap:round;stroke-linejoin:round"
   id="path8209" />
<path
   d="M 66.992,140.5 L 66.981,140.72 L 66.948,140.93 L 66.894,141.14 L 66.82,141.35 L 66.725,141.56 L 66.61,141.76 L 66.477,141.95 L 66.324,142.15 L 66.154,142.33 L 65.967,142.52 L 65.762,142.69 L 65.541,142.87 L 65.304,143.03 L 65.052,143.19 L 64.785,143.35 L 64.504,143.49 L 64.209,143.63 L 63.901,143.77 L 63.58,143.89 L 63.247,144.01 L 62.902,144.12 L 62.547,144.22 L 62.181,144.32 L 61.804,144.4 L 61.419,144.48 L 61.024,144.54 L 60.621,144.6 L 60.211,144.65 L 59.793,144.69 L 59.368,144.71 L 58.937,144.73 L 58.5,144.73 C 53.812,144.73 50.008,142.84 50.008,140.5 C 50.008,138.16 53.812,136.27 58.5,136.27 C 63.188,136.27 66.992,138.16 66.992,140.5 z "
   style="stroke-width:0.84906;stroke-linecap:round;stroke-linejoin:round"
   id="path8211" />
<text
   transform="matrix(1,0,0,-1,53.191,137.85)"
   style="font-size:8px;fill:#000000;stroke:none;font-family:&quot;Helvetica&quot;, sans-serif"
   id="text8213">50</text>

<text
   transform="matrix(1,0,0,-1,149.31,74.824)"
   style="font-size:16px;fill:#000000;stroke:none;font-family:&quot;Helvetica&quot;, sans-serif"
   id="text8215">OO</text>

<polygon
   points="46.5,160.5 138.5,160.5 184.5,80.5 138.5,0.5 46.5,0.5 0.5,80.5 46.5,160.5 "
   style="stroke-width:1;stroke-linejoin:round"
   id="polygon8217" />
</g></svg>
