<?xml version="1.0" encoding="UTF-8" standalone="no"?>
<svg
   xmlns:dc="http://purl.org/dc/elements/1.1/"
   xmlns:cc="http://web.resource.org/cc/"
   xmlns:rdf="http://www.w3.org/1999/02/22-rdf-syntax-ns#"
   xmlns:svg="http://www.w3.org/2000/svg"
   xmlns="http://www.w3.org/2000/svg"
   xmlns:sodipodi="http://sodipodi.sourceforge.net/DTD/sodipodi-0.dtd"
   xmlns:inkscape="http://www.inkscape.org/namespaces/inkscape"
   width="80pt"
   height="80pt"
   viewBox="0 0 1 1"
   preserveAspectRatio="none"
   id="svg2"
   sodipodi:version="0.32"
   inkscape:version="0.45.1"
   sodipodi:docname="tile-802.svg"
   sodipodi:docbase="C:\Documents and Settings\Brett\workspace\18xx\tiles\svg"
   version="1.0"
   inkscape:output_extension="org.inkscape.output.svg.inkscape">
  <metadata
     id="metadata59">
    <rdf:RDF>
      <cc:Work
         rdf:about="">
        <dc:format>image/svg+xml</dc:format>
        <dc:type
           rdf:resource="http://purl.org/dc/dcmitype/StillImage" />
      </cc:Work>
    </rdf:RDF>
  </metadata>
  <defs
     id="defs57" />
  <sodipodi:namedview
     inkscape:window-height="579"
     inkscape:window-width="749"
     inkscape:pageshadow="2"
     inkscape:pageopacity="0.0"
     borderopacity="1.0"
     bordercolor="#666666"
     pagecolor="#ffffff"
     id="base"
     inkscape:zoom="2.2238764"
     inkscape:cx="75.437666"
     inkscape:cy="42.657572"
     inkscape:window-x="110"
     inkscape:window-y="110"
     inkscape:current-layer="svg2" />
  <title
     id="title4">SVG drawing</title>
  <desc
     id="desc6">This was produced by version 4.1 of GNU libplot, a free library for exporting 2-D vector graphics.</desc>
  <g
     transform="matrix(5.4158884e-3,0,0,-6.1792168e-3,1.8454387e-4,1.0016534)"
     xml:space="preserve"
     style="font-style:normal;font-variant:normal;font-weight:normal;font-stretch:normal;letter-spacing:normal;word-spacing:normal;text-anchor:start;fill:none;fill-opacity:1;stroke:#000000;stroke-linecap:butt;stroke-linejoin:miter;stroke-miterlimit:10.43299961;stroke-dasharray:none;stroke-dashoffset:0;stroke-opacity:1"
     id="g10">
<polygon
   points="46.5,160.5 138.5,160.5 184.5,80.5 138.5,0.5 46.5,0.5 0.5,80.5 46.5,160.5 "
   style="fill:#c0c0c0;fill-rule:nonzero;stroke:#c0c0c0;stroke-width:0;stroke-linejoin:round"
   id="polygon12" />
<polygon
   points="108.37,9.9219 110.27,9.9219 110.27,10.496 108.37,10.496 108.37,9.9219 "
   style="fill:#000000;stroke-width:0;stroke-linejoin:round"
   id="polygon14" />
<path
   d="M 113.13,10.984 L 113.18,11.017 L 113.23,11.05 L 113.28,11.082 L 113.33,11.114 L 113.37,11.146 L 113.42,11.178 L 113.46,11.209 L 113.5,11.241 L 113.53,11.273 L 113.57,11.305 L 113.6,11.337 L 113.63,11.37 L 113.66,11.403 L 113.69,11.436 L 113.71,11.469 L 113.73,11.503 L 113.76,11.538 L 113.78,11.573 L 113.79,11.609 L 113.81,11.646 L 113.83,11.683 L 113.84,11.721 L 113.85,11.76 L 113.86,11.8 L 113.87,11.841 L 113.88,11.883 L 113.89,11.926 L 113.89,11.97 L 113.9,12.016 L 113.9,12.063 L 113.9,12.111 L 113.9,12.16 C 113.9,13.047 113.21,13.672 112.2,13.672 C 111.2,13.672 110.5,13.047 110.5,12.16 C 110.5,11.633 110.69,11.344 111.27,10.984 C 110.62,10.672 110.3,10.199 110.3,9.5742 C 110.3,8.5352 111.08,7.8164 112.2,7.8164 C 113.32,7.8164 114.11,8.5352 114.11,9.5664 C 114.11,10.199 113.79,10.672 113.13,10.984 z "
   style="fill:#000000;stroke-width:0;stroke-linecap:round;stroke-linejoin:round"
   id="path16" />
<path
   d="M 112.2,13.047 L 112.25,13.046 L 112.31,13.043 L 112.36,13.038 L 112.41,13.031 L 112.46,13.022 L 112.51,13.011 L 112.56,12.998 L 112.61,12.983 L 112.65,12.967 L 112.69,12.949 L 112.74,12.928 L 112.78,12.907 L 112.81,12.883 L 112.85,12.858 L 112.88,12.831 L 112.92,12.802 L 112.95,12.772 L 112.98,12.74 L 113.01,12.707 L 113.03,12.672 L 113.05,12.636 L 113.08,12.598 L 113.1,12.559 L 113.11,12.518 L 113.13,12.476 L 113.14,12.432 L 113.16,12.388 L 113.17,12.341 L 113.17,12.294 L 113.18,12.245 L 113.18,12.196 L 113.18,12.144 C 113.18,11.617 112.79,11.266 112.2,11.266 C 111.61,11.266 111.21,11.617 111.21,12.152 C 111.21,12.695 111.61,13.047 112.2,13.047 z "
   style="fill:#000000;stroke-width:0;stroke-linecap:round;stroke-linejoin:round"
   id="path18" />
<path
   d="M 112.2,10.672 L 112.26,10.671 L 112.33,10.667 L 112.39,10.66 L 112.45,10.651 L 112.51,10.64 L 112.57,10.626 L 112.63,10.61 L 112.68,10.591 L 112.73,10.571 L 112.79,10.547 L 112.83,10.522 L 112.88,10.495 L 112.93,10.465 L 112.97,10.434 L 113.01,10.4 L 113.05,10.364 L 113.09,10.327 L 113.13,10.287 L 113.16,10.246 L 113.19,10.203 L 113.22,10.158 L 113.25,10.111 L 113.27,10.063 L 113.3,10.013 L 113.32,9.9611 L 113.33,9.9079 L 113.35,9.8533 L 113.36,9.7971 L 113.37,9.7395 L 113.38,9.6805 L 113.38,9.6202 L 113.38,9.5586 C 113.38,8.8867 112.9,8.4414 112.18,8.4414 C 111.5,8.4414 111.02,8.8945 111.02,9.5586 C 111.02,10.223 111.5,10.672 112.2,10.672 z "
   style="fill:#000000;stroke-width:0;stroke-linecap:round;stroke-linejoin:round"
   id="path20" />
<path
   d="M 117.2,13.672 L 117.15,13.671 L 117.1,13.669 L 117.05,13.666 L 117,13.661 L 116.96,13.655 L 116.91,13.648 L 116.86,13.64 L 116.81,13.63 L 116.77,13.619 L 116.72,13.606 L 116.68,13.593 L 116.63,13.578 L 116.59,13.562 L 116.55,13.545 L 116.5,13.527 L 116.46,13.507 L 116.42,13.487 L 116.38,13.465 L 116.34,13.442 L 116.3,13.418 L 116.26,13.393 L 116.22,13.367 L 116.19,13.339 L 116.15,13.311 L 116.11,13.282 L 116.08,13.251 L 116.05,13.22 L 116.01,13.187 L 115.98,13.153 L 115.95,13.119 L 115.92,13.083 L 115.89,13.047 C 115.53,12.551 115.34,11.793 115.34,10.742 C 115.34,8.832 115.98,7.8164 117.2,7.8164 C 118.4,7.8164 119.06,8.832 119.06,10.695 C 119.06,11.801 118.88,12.535 118.5,13.047 C 118.21,13.449 117.73,13.672 117.2,13.672 z "
   style="fill:#000000;stroke-width:0;stroke-linecap:round;stroke-linejoin:round"
   id="path22" />
<path
   d="M 117.2,13.047 L 117.27,13.045 L 117.34,13.038 L 117.4,13.027 L 117.47,13.011 L 117.53,12.991 L 117.59,12.966 L 117.64,12.937 L 117.7,12.904 L 117.75,12.865 L 117.8,12.823 L 117.85,12.776 L 117.89,12.724 L 117.94,12.669 L 117.98,12.608 L 118.02,12.543 L 118.05,12.474 L 118.09,12.4 L 118.12,12.322 L 118.15,12.24 L 118.18,12.153 L 118.2,12.061 L 118.23,11.965 L 118.25,11.865 L 118.27,11.76 L 118.28,11.651 L 118.3,11.537 L 118.31,11.419 L 118.32,11.296 L 118.33,11.169 L 118.33,11.038 L 118.33,10.902 L 118.34,10.762 C 118.34,9.1523 117.97,8.3984 117.18,8.3984 C 116.44,8.3984 116.06,9.1836 116.06,10.734 C 116.06,12.289 116.44,13.047 117.2,13.047 z "
   style="fill:#000000;stroke-width:0;stroke-linecap:round;stroke-linejoin:round"
   id="path24" />
<path
   d="M 123.05,8.6953 L 120.06,8.6953 C 120.14,9.1602 120.39,9.457 121.09,9.8633 L 121.89,10.297 C 122.68,10.727 123.09,11.312 123.09,12.008 C 123.09,12.481 122.89,12.922 122.56,13.223 C 122.22,13.527 121.81,13.672 121.27,13.672 C 120.55,13.672 120.02,13.414 119.7,12.938 C 119.5,12.633 119.41,12.281 119.4,11.703 L 120.11,11.703 C 120.13,12.09 120.18,12.32 120.27,12.504 C 120.46,12.848 120.82,13.055 121.25,13.055 C 121.89,13.055 122.37,12.602 122.37,11.992 C 122.37,11.543 122.11,11.16 121.6,10.871 L 120.86,10.457 C 119.68,9.7852 119.34,9.2461 119.27,8 L 123.05,8 L 123.05,8.6953 z "
   style="fill:#000000;stroke-width:0;stroke-linecap:round;stroke-linejoin:round"
   id="path26" />
<line
   x1="123.5"
   y1="98.5"
   x2="99.5"
   y2="84.5"
   style="stroke:#ffffff;stroke-width:16"
   id="line28" />
<path
   d="M 111.5,91.5 L 111.12,91.273 C 123.27,70.324 140.72,52.938 161.71,40.867"
   style="stroke:#ffffff;stroke-width:16;stroke-linecap:round;stroke-linejoin:round"
   id="path30" />
<path
   d="M 92.5,160.5 L 92.5,160.5 C 92.5,136.19 98.926,112.31 111.12,91.281"
   style="stroke:#ffffff;stroke-width:16;stroke-linecap:round;stroke-linejoin:round"
   id="path32" />
<path
   d="M 92.5,0.5 L 92.5,0.5 C 92.5,25.902 71.902,46.5 46.5,46.5 C 38.457,46.5 30.547,44.387 23.57,40.379"
   style="stroke:#ffffff;stroke-width:16;stroke-linecap:round;stroke-linejoin:round"
   id="path34" />
<path
   d="M 111.5,91.5 L 111.12,91.273 C 123.27,70.324 140.72,52.938 161.71,40.867"
   style="stroke-width:12;stroke-linecap:round;stroke-linejoin:round"
   id="path36" />
<path
   d="M 92.5,160.5 L 92.5,160.5 C 92.5,136.19 98.926,112.31 111.12,91.281"
   style="stroke-width:12;stroke-linecap:round;stroke-linejoin:round"
   id="path38" />
<path
   d="M 92.5,0.5 L 92.5,0.5 C 92.5,25.902 71.902,46.5 46.5,46.5 C 38.457,46.5 30.547,44.387 23.57,40.379"
   style="stroke-width:12;stroke-linecap:round;stroke-linejoin:round"
   id="path40" />
<line
   x1="121.5"
   y1="97.5"
   x2="101.5"
   y2="85.5"
   style="stroke-width:12"
   id="line42" />
<path
   d="M 151.99,110.5 L 151.98,110.71 L 151.95,110.91 L 151.89,111.11 L 151.82,111.31 L 151.72,111.51 L 151.61,111.7 L 151.48,111.89 L 151.32,112.07 L 151.15,112.25 L 150.97,112.42 L 150.76,112.59 L 150.54,112.76 L 150.3,112.92 L 150.05,113.07 L 149.79,113.22 L 149.5,113.36 L 149.21,113.49 L 148.9,113.62 L 148.58,113.74 L 148.25,113.85 L 147.9,113.95 L 147.55,114.05 L 147.18,114.14 L 146.8,114.22 L 146.42,114.29 L 146.02,114.36 L 145.62,114.41 L 145.21,114.46 L 144.79,114.49 L 144.37,114.52 L 143.94,114.53 L 143.5,114.54 C 138.81,114.54 135.01,112.73 135.01,110.5 C 135.01,108.27 138.81,106.46 143.5,106.46 C 148.19,106.46 151.99,108.27 151.99,110.5 z "
   style="fill:#ffffff;fill-rule:nonzero;stroke:#ffffff;stroke-width:0;stroke-linecap:round;stroke-linejoin:round"
   id="path44" />
<path
   d="M 151.99,110.5 L 151.98,110.71 L 151.95,110.91 L 151.89,111.11 L 151.82,111.31 L 151.72,111.51 L 151.61,111.7 L 151.48,111.89 L 151.32,112.07 L 151.15,112.25 L 150.97,112.42 L 150.76,112.59 L 150.54,112.76 L 150.3,112.92 L 150.05,113.07 L 149.79,113.22 L 149.5,113.36 L 149.21,113.49 L 148.9,113.62 L 148.58,113.74 L 148.25,113.85 L 147.9,113.95 L 147.55,114.05 L 147.18,114.14 L 146.8,114.22 L 146.42,114.29 L 146.02,114.36 L 145.62,114.41 L 145.21,114.46 L 144.79,114.49 L 144.37,114.52 L 143.94,114.53 L 143.5,114.54 C 138.81,114.54 135.01,112.73 135.01,110.5 C 135.01,108.27 138.81,106.46 143.5,106.46 C 148.19,106.46 151.99,108.27 151.99,110.5 z "
   style="stroke-width:0.84906;stroke-linecap:round;stroke-linejoin:round"
   id="path46" />
<path
   d="M 141.52,113.45 L 141.14,113.45 C 141.09,113.44 141.03,113.43 141,113.41 C 140.27,113.25 140.15,113.22 139.8,113.2 C 139.25,113.17 139.25,113.17 139.22,113.17 C 139.19,113.17 139.15,113.17 139.1,113.18 L 139.1,112.55 L 139.21,112.54 C 140.1,112.5 140.12,112.49 140.12,111.97 L 140.12,109.27 C 140.12,108.79 140.04,108.73 139.3,108.67 L 139.1,108.66 L 139.1,108 L 142.54,108 L 142.54,108.66 L 142.36,108.67 C 142.34,108.67 142.27,108.68 142.18,108.69 C 141.62,108.73 141.52,108.82 141.52,109.27 L 141.52,113.45 z "
   style="fill:#000000;stroke-width:0;stroke-linecap:round;stroke-linejoin:round"
   id="path48" />
<path
   d="M 145.71,113.55 L 145.64,113.55 L 145.58,113.55 L 145.51,113.54 L 145.45,113.54 L 145.38,113.53 L 145.32,113.52 L 145.25,113.51 L 145.19,113.5 L 145.13,113.49 L 145.07,113.47 L 145.01,113.46 L 144.94,113.44 L 144.88,113.42 L 144.83,113.4 L 144.77,113.38 L 144.71,113.36 L 144.65,113.33 L 144.6,113.31 L 144.54,113.28 L 144.49,113.25 L 144.44,113.22 L 144.39,113.19 L 144.34,113.15 L 144.29,113.12 L 144.24,113.09 L 144.19,113.05 L 144.15,113.01 L 144.1,112.97 L 144.06,112.93 L 144.02,112.89 L 143.98,112.85 L 143.94,112.8 C 143.5,112.31 143.24,111.51 143.24,110.69 C 143.24,108.97 144.18,107.89 145.67,107.89 C 147.16,107.89 148.11,109 148.11,110.74 C 148.11,112.44 147.16,113.55 145.71,113.55 z "
   style="fill:#000000;stroke-width:0;stroke-linecap:round;stroke-linejoin:round"
   id="path50" />
<path
   d="M 145.67,112.82 L 145.73,112.81 L 145.78,112.81 L 145.84,112.8 L 145.89,112.78 L 145.94,112.76 L 145.99,112.74 L 146.03,112.71 L 146.08,112.68 L 146.12,112.64 L 146.16,112.6 L 146.2,112.55 L 146.24,112.5 L 146.27,112.45 L 146.31,112.39 L 146.34,112.33 L 146.37,112.27 L 146.4,112.2 L 146.43,112.13 L 146.45,112.05 L 146.48,111.97 L 146.5,111.89 L 146.52,111.8 L 146.54,111.71 L 146.55,111.61 L 146.57,111.51 L 146.58,111.41 L 146.59,111.3 L 146.6,111.19 L 146.61,111.08 L 146.61,110.96 L 146.62,110.84 L 146.62,110.72 C 146.62,109.38 146.28,108.63 145.67,108.63 C 145.06,108.63 144.73,109.38 144.73,110.75 C 144.73,112.06 145.08,112.82 145.67,112.82 z "
   style="fill:#000000;stroke-width:0;stroke-linecap:round;stroke-linejoin:round"
   id="path52" />
<polygon
   points="46.5,160.5 138.5,160.5 184.5,80.5 138.5,0.5 46.5,0.5 0.5,80.5 46.5,160.5 "
   style="stroke-width:1;stroke-linejoin:round"
   id="polygon54" />
</g></svg>
