<?xml version="1.0" encoding="UTF-8" standalone="no"?>
<svg
   xmlns:dc="http://purl.org/dc/elements/1.1/"
   xmlns:cc="http://web.resource.org/cc/"
   xmlns:rdf="http://www.w3.org/1999/02/22-rdf-syntax-ns#"
   xmlns:svg="http://www.w3.org/2000/svg"
   xmlns="http://www.w3.org/2000/svg"
   xmlns:sodipodi="http://inkscape.sourceforge.net/DTD/sodipodi-0.dtd"
   xmlns:inkscape="http://www.inkscape.org/namespaces/inkscape"
   width="100"
   height="100"
   viewBox="0 0 1 1"
   preserveAspectRatio="none"
   id="svg2133"
   sodipodi:version="0.32"
   inkscape:version="0.43"
   sodipodi:docname="tile3.svg"
   sodipodi:docbase="C:\Documents and Settings\lentz\Desktop\TileDesigner"
   version="1.0">
  <metadata
     id="metadata2170">
    <rdf:RDF>
      <cc:Work
         rdf:about="">
        <dc:format>image/svg+xml</dc:format>
        <dc:type
           rdf:resource="http://purl.org/dc/dcmitype/StillImage" />
      </cc:Work>
    </rdf:RDF>
  </metadata>
  <defs
     id="defs2168" />
  <sodipodi:namedview
     inkscape:window-height="540"
     inkscape:window-width="749"
     inkscape:pageshadow="2"
     inkscape:pageopacity="0.0"
     borderopacity="1.0"
     bordercolor="#666666"
     pagecolor="#ffffff"
     id="base"
     inkscape:zoom="0.52361111"
     inkscape:cx="360"
     inkscape:cy="360"
     inkscape:window-x="110"
     inkscape:window-y="110"
     inkscape:current-layer="svg2133" />
  <title
     id="title2135">SVG drawing</title>
  <desc
     id="desc2137">This was produced by version 4.1 of GNU libplot, a free library for exporting 2-D vector graphics.</desc>
  <rect
     x="0"
     y="0"
     width="1"
     height="1"
     style="fill:#ffffff;stroke:none"
     id="rect2139" />
  <g
     transform="matrix(5.418114e-3,0,0,-5.739835e-3,-1.175565e-3,0.934679)"
     xml:space="preserve"
     style="font-style:normal;font-variant:normal;font-weight:normal;font-stretch:normal;letter-spacing:normal;word-spacing:normal;text-anchor:start;fill:none;fill-opacity:1;stroke:#000000;stroke-linecap:butt;stroke-linejoin:miter;stroke-miterlimit:10.43299961;stroke-dasharray:none;stroke-dashoffset:0;stroke-opacity:1"
     id="g2141">
<polygon
   points="46.5,160.5 138.5,160.5 184.5,80.5 138.5,0.5 46.5,0.5 0.5,80.5 46.5,160.5 "
   style="fill:#ffff00;fill-rule:nonzero;stroke:#ffff00;stroke-width:0;stroke-linejoin:round"
   id="polygon2143" />
<text
   transform="matrix(1,0,0,-1,113.23,7.9141)"
   style="font-size:8px;fill:#000000;stroke:none;font-family:&quot;Helvetica&quot;, sans-serif"
   id="text2145">3</text>

<line
   x1="62.5"
   y1="28.5"
   x2="76.5"
   y2="52.5"
   style="stroke:#ffffff;stroke-width:16"
   id="line2147" />
<path
   d="M 92.5,0.5 L 92.5,0.5 C 92.5,16.961 83.703,32.172 69.434,40.375"
   style="stroke:#ffffff;stroke-width:16;stroke-linecap:round;stroke-linejoin:round"
   id="path2149" />
<path
   d="M 69.5,40.5 L 69.434,40.375 C 62.457,44.387 54.547,46.5 46.5,46.5 C 38.457,46.5 30.547,44.387 23.57,40.379"
   style="stroke:#ffffff;stroke-width:16;stroke-linecap:round;stroke-linejoin:round"
   id="path2151" />
<path
   d="M 92.5,0.5 L 92.5,0.5 C 92.5,16.961 83.703,32.172 69.434,40.375"
   style="stroke-width:12;stroke-linecap:round;stroke-linejoin:round"
   id="path2153" />
<path
   d="M 69.5,40.5 L 69.434,40.375 C 62.457,44.387 54.547,46.5 46.5,46.5 C 38.457,46.5 30.547,44.387 23.57,40.379"
   style="stroke-width:12;stroke-linecap:round;stroke-linejoin:round"
   id="path2155" />
<line
   x1="63.5"
   y1="30.5"
   x2="75.5"
   y2="50.5"
   style="stroke-width:12"
   id="line2157" />
<path
   d="M 134.99,140.5 L 134.98,140.71 L 134.95,140.91 L 134.89,141.11 L 134.82,141.31 L 134.72,141.51 L 134.61,141.7 L 134.48,141.89 L 134.32,142.07 L 134.15,142.25 L 133.97,142.42 L 133.76,142.59 L 133.54,142.76 L 133.3,142.92 L 133.05,143.07 L 132.79,143.22 L 132.5,143.36 L 132.21,143.49 L 131.9,143.62 L 131.58,143.74 L 131.25,143.85 L 130.9,143.95 L 130.55,144.05 L 130.18,144.14 L 129.8,144.22 L 129.42,144.29 L 129.02,144.36 L 128.62,144.41 L 128.21,144.46 L 127.79,144.49 L 127.37,144.52 L 126.94,144.53 L 126.5,144.54 C 121.81,144.54 118.01,142.73 118.01,140.5 C 118.01,138.27 121.81,136.46 126.5,136.46 C 131.19,136.46 134.99,138.27 134.99,140.5 z "
   style="fill:#ffffff;fill-rule:nonzero;stroke:#ffffff;stroke-width:0;stroke-linecap:round;stroke-linejoin:round"
   id="path2159" />
<path
   d="M 134.99,140.5 L 134.98,140.71 L 134.95,140.91 L 134.89,141.11 L 134.82,141.31 L 134.72,141.51 L 134.61,141.7 L 134.48,141.89 L 134.32,142.07 L 134.15,142.25 L 133.97,142.42 L 133.76,142.59 L 133.54,142.76 L 133.3,142.92 L 133.05,143.07 L 132.79,143.22 L 132.5,143.36 L 132.21,143.49 L 131.9,143.62 L 131.58,143.74 L 131.25,143.85 L 130.9,143.95 L 130.55,144.05 L 130.18,144.14 L 129.8,144.22 L 129.42,144.29 L 129.02,144.36 L 128.62,144.41 L 128.21,144.46 L 127.79,144.49 L 127.37,144.52 L 126.94,144.53 L 126.5,144.54 C 121.81,144.54 118.01,142.73 118.01,140.5 C 118.01,138.27 121.81,136.46 126.5,136.46 C 131.19,136.46 134.99,138.27 134.99,140.5 z "
   style="stroke-width:0.84906;stroke-linecap:round;stroke-linejoin:round"
   id="path2161" />
<text
   transform="matrix(1,0,0,-1,121.19,137.98)"
   style="font-size:8px;fill:#000000;stroke:none;font-family:&quot;Helvetica&quot;, sans-serif"
   id="text2163">10</text>

<polygon
   points="46.5,160.5 138.5,160.5 184.5,80.5 138.5,0.5 46.5,0.5 0.5,80.5 46.5,160.5 "
   style="stroke-width:1;stroke-linejoin:round"
   id="polygon2165" />
</g></svg>
