<?xml version="1.0" encoding="UTF-8" standalone="no"?>
<svg
   xmlns:dc="http://purl.org/dc/elements/1.1/"
   xmlns:cc="http://web.resource.org/cc/"
   xmlns:rdf="http://www.w3.org/1999/02/22-rdf-syntax-ns#"
   xmlns:svg="http://www.w3.org/2000/svg"
   xmlns="http://www.w3.org/2000/svg"
   xmlns:sodipodi="http://inkscape.sourceforge.net/DTD/sodipodi-0.dtd"
   xmlns:inkscape="http://www.inkscape.org/namespaces/inkscape"
   width="100"
   height="100"
   viewBox="0 0 1 1"
   preserveAspectRatio="none"
   id="svg8090"
   sodipodi:version="0.32"
   inkscape:version="0.43"
   sodipodi:docname="tile67.svg"
   sodipodi:docbase="C:\Documents and Settings\lentz\Desktop\TileDesigner"
   version="1.0">
  <metadata
     id="metadata8155">
    <rdf:RDF>
      <cc:Work
         rdf:about="">
        <dc:format>image/svg+xml</dc:format>
        <dc:type
           rdf:resource="http://purl.org/dc/dcmitype/StillImage" />
      </cc:Work>
    </rdf:RDF>
  </metadata>
  <defs
     id="defs8153" />
  <sodipodi:namedview
     inkscape:window-height="540"
     inkscape:window-width="749"
     inkscape:pageshadow="2"
     inkscape:pageopacity="0.0"
     borderopacity="1.0"
     bordercolor="#666666"
     pagecolor="#ffffff"
     id="base"
     inkscape:zoom="0.52361111"
     inkscape:cx="360"
     inkscape:cy="360"
     inkscape:window-x="176"
     inkscape:window-y="176"
     inkscape:current-layer="svg8090" />
  <title
     id="title8092">SVG drawing</title>
  <desc
     id="desc8094">This was produced by version 4.1 of GNU libplot, a free library for exporting 2-D vector graphics.</desc>
  <g
     transform="matrix(5.418114e-3,0,0,-5.739835e-3,-1.175565e-3,0.934679)"
     xml:space="preserve"
     style="font-style:normal;font-variant:normal;font-weight:normal;font-stretch:normal;letter-spacing:normal;word-spacing:normal;text-anchor:start;fill:none;fill-opacity:1;stroke:#000000;stroke-linecap:butt;stroke-linejoin:miter;stroke-miterlimit:10.43299961;stroke-dasharray:none;stroke-dashoffset:0;stroke-opacity:1"
     id="g8098">
<polygon
   points="46.5,160.5 138.5,160.5 184.5,80.5 138.5,0.5 46.5,0.5 0.5,80.5 46.5,160.5 "
   style="fill:#b46301;fill-rule:nonzero;stroke:#b46301;stroke-width:0;stroke-linejoin:round"
   id="polygon8100" />
<text
   transform="matrix(1,0,0,-1,111.17,7.9141)"
   style="font-size:8px;fill:#000000;stroke:none;font-family:&quot;Helvetica&quot;, sans-serif"
   id="text8102">67</text>

<path
   d="M 121.5,36.5 L 121.47,37.735 L 121.38,38.954 L 121.22,40.155 L 121.01,41.337 L 120.74,42.498 L 120.42,43.637 L 120.04,44.752 L 119.61,45.841 L 119.13,46.905 L 118.6,47.939 L 118.03,48.944 L 117.4,49.918 L 116.73,50.859 L 116.02,51.766 L 115.26,52.637 L 114.47,53.47 L 113.64,54.265 L 112.77,55.019 L 111.86,55.732 L 110.92,56.401 L 109.94,57.025 L 108.94,57.603 L 107.9,58.133 L 106.84,58.614 L 105.75,59.044 L 104.64,59.421 L 103.5,59.744 L 102.34,60.012 L 101.15,60.223 L 99.954,60.376 L 98.735,60.469 L 97.5,60.5 C 84.246,60.5 73.5,49.754 73.5,36.5 C 73.5,23.246 84.246,12.5 97.5,12.5 C 110.75,12.5 121.5,23.246 121.5,36.5 z "
   style="fill:#ffffff;fill-rule:nonzero;stroke:#ffffff;stroke-width:0;stroke-linecap:round;stroke-linejoin:round"
   id="path8104" />
<path
   d="M 121.5,36.5 L 121.47,37.735 L 121.38,38.954 L 121.22,40.155 L 121.01,41.337 L 120.74,42.498 L 120.42,43.637 L 120.04,44.752 L 119.61,45.841 L 119.13,46.905 L 118.6,47.939 L 118.03,48.944 L 117.4,49.918 L 116.73,50.859 L 116.02,51.766 L 115.26,52.637 L 114.47,53.47 L 113.64,54.265 L 112.77,55.019 L 111.86,55.732 L 110.92,56.401 L 109.94,57.025 L 108.94,57.603 L 107.9,58.133 L 106.84,58.614 L 105.75,59.044 L 104.64,59.421 L 103.5,59.744 L 102.34,60.012 L 101.15,60.223 L 99.954,60.376 L 98.735,60.469 L 97.5,60.5 C 84.246,60.5 73.5,49.754 73.5,36.5 C 73.5,23.246 84.246,12.5 97.5,12.5 C 110.75,12.5 121.5,23.246 121.5,36.5 z "
   style="stroke:#ffffff;stroke-width:6;stroke-linecap:round;stroke-linejoin:round"
   id="path8106" />
<path
   d="M 82.5,100.5 L 82.469,101.73 L 82.376,102.95 L 82.223,104.15 L 82.012,105.34 L 81.744,106.5 L 81.421,107.64 L 81.044,108.75 L 80.614,109.84 L 80.133,110.9 L 79.603,111.94 L 79.025,112.94 L 78.401,113.92 L 77.732,114.86 L 77.019,115.77 L 76.265,116.64 L 75.47,117.47 L 74.637,118.26 L 73.766,119.02 L 72.859,119.73 L 71.918,120.4 L 70.944,121.03 L 69.939,121.6 L 68.905,122.13 L 67.841,122.61 L 66.752,123.04 L 65.637,123.42 L 64.498,123.74 L 63.337,124.01 L 62.155,124.22 L 60.954,124.38 L 59.735,124.47 L 58.5,124.5 C 45.246,124.5 34.5,113.75 34.5,100.5 C 34.5,87.246 45.246,76.5 58.5,76.5 C 71.754,76.5 82.5,87.246 82.5,100.5 z "
   style="fill:#ffffff;fill-rule:nonzero;stroke:#ffffff;stroke-width:0;stroke-linecap:round;stroke-linejoin:round"
   id="path8108" />
<path
   d="M 82.5,100.5 L 82.469,101.73 L 82.376,102.95 L 82.223,104.15 L 82.012,105.34 L 81.744,106.5 L 81.421,107.64 L 81.044,108.75 L 80.614,109.84 L 80.133,110.9 L 79.603,111.94 L 79.025,112.94 L 78.401,113.92 L 77.732,114.86 L 77.019,115.77 L 76.265,116.64 L 75.47,117.47 L 74.637,118.26 L 73.766,119.02 L 72.859,119.73 L 71.918,120.4 L 70.944,121.03 L 69.939,121.6 L 68.905,122.13 L 67.841,122.61 L 66.752,123.04 L 65.637,123.42 L 64.498,123.74 L 63.337,124.01 L 62.155,124.22 L 60.954,124.38 L 59.735,124.47 L 58.5,124.5 C 45.246,124.5 34.5,113.75 34.5,100.5 C 34.5,87.246 45.246,76.5 58.5,76.5 C 71.754,76.5 82.5,87.246 82.5,100.5 z "
   style="stroke:#ffffff;stroke-width:6;stroke-linecap:round;stroke-linejoin:round"
   id="path8110" />
<path
   d="M 161.5,120.5 L 161.71,120.13 C 130.02,101.91 106.85,71.848 97.297,36.562"
   style="stroke:#ffffff;stroke-width:16;stroke-linecap:round;stroke-linejoin:round"
   id="path8112" />
<path
   d="M 97.5,36.5 L 97.297,36.562 C 94.113,24.809 92.5,12.68 92.5,0.5"
   style="stroke:#ffffff;stroke-width:16;stroke-linecap:round;stroke-linejoin:round"
   id="path8114" />
<line
   x1="58.5"
   y1="100.5"
   x2="23.5"
   y2="120.5"
   style="stroke:#ffffff;stroke-width:16;stroke-linecap:round"
   id="line8116" />
<path
   d="M 161.5,120.5 L 161.71,120.13 C 130.02,101.91 106.85,71.848 97.297,36.562"
   style="stroke-width:12;stroke-linecap:round;stroke-linejoin:round"
   id="path8118" />
<path
   d="M 97.5,36.5 L 97.297,36.562 C 94.113,24.809 92.5,12.68 92.5,0.5"
   style="stroke-width:12;stroke-linecap:round;stroke-linejoin:round"
   id="path8120" />
<line
   x1="58.5"
   y1="100.5"
   x2="23.5"
   y2="120.5"
   style="stroke-width:12;stroke-linecap:round"
   id="line8122" />
<line
   x1="58.5"
   y1="100.5"
   x2="161.5"
   y2="40.5"
   style="stroke:#ffffff;stroke-width:16;stroke-linecap:round"
   id="line8124" />
<line
   x1="58.5"
   y1="100.5"
   x2="161.5"
   y2="40.5"
   style="stroke-width:12;stroke-linecap:round"
   id="line8126" />
<path
   d="M 121.5,36.5 L 121.47,37.735 L 121.38,38.954 L 121.22,40.155 L 121.01,41.337 L 120.74,42.498 L 120.42,43.637 L 120.04,44.752 L 119.61,45.841 L 119.13,46.905 L 118.6,47.939 L 118.03,48.944 L 117.4,49.918 L 116.73,50.859 L 116.02,51.766 L 115.26,52.637 L 114.47,53.47 L 113.64,54.265 L 112.77,55.019 L 111.86,55.732 L 110.92,56.401 L 109.94,57.025 L 108.94,57.603 L 107.9,58.133 L 106.84,58.614 L 105.75,59.044 L 104.64,59.421 L 103.5,59.744 L 102.34,60.012 L 101.15,60.223 L 99.954,60.376 L 98.735,60.469 L 97.5,60.5 C 84.246,60.5 73.5,49.754 73.5,36.5 C 73.5,23.246 84.246,12.5 97.5,12.5 C 110.75,12.5 121.5,23.246 121.5,36.5 z "
   style="fill:#ffffff;fill-rule:nonzero;stroke:#ffffff;stroke-width:0;stroke-linecap:round;stroke-linejoin:round"
   id="path8128" />
<path
   d="M 121.5,36.5 L 121.47,37.735 L 121.38,38.954 L 121.22,40.155 L 121.01,41.337 L 120.74,42.498 L 120.42,43.637 L 120.04,44.752 L 119.61,45.841 L 119.13,46.905 L 118.6,47.939 L 118.03,48.944 L 117.4,49.918 L 116.73,50.859 L 116.02,51.766 L 115.26,52.637 L 114.47,53.47 L 113.64,54.265 L 112.77,55.019 L 111.86,55.732 L 110.92,56.401 L 109.94,57.025 L 108.94,57.603 L 107.9,58.133 L 106.84,58.614 L 105.75,59.044 L 104.64,59.421 L 103.5,59.744 L 102.34,60.012 L 101.15,60.223 L 99.954,60.376 L 98.735,60.469 L 97.5,60.5 C 84.246,60.5 73.5,49.754 73.5,36.5 C 73.5,23.246 84.246,12.5 97.5,12.5 C 110.75,12.5 121.5,23.246 121.5,36.5 z "
   style="stroke-width:2;stroke-linecap:round;stroke-linejoin:round"
   id="path8130" />
<path
   d="M 66.992,20.5 L 66.981,20.718 L 66.948,20.932 L 66.894,21.144 L 66.82,21.353 L 66.725,21.557 L 66.61,21.758 L 66.477,21.955 L 66.324,22.147 L 66.154,22.335 L 65.967,22.517 L 65.762,22.694 L 65.541,22.866 L 65.304,23.032 L 65.052,23.192 L 64.785,23.346 L 64.504,23.493 L 64.209,23.633 L 63.901,23.767 L 63.58,23.892 L 63.247,24.011 L 62.902,24.121 L 62.547,24.223 L 62.181,24.316 L 61.804,24.401 L 61.419,24.477 L 61.024,24.544 L 60.621,24.601 L 60.211,24.648 L 59.793,24.686 L 59.368,24.713 L 58.937,24.729 L 58.5,24.734 C 53.812,24.734 50.008,22.836 50.008,20.5 C 50.008,18.164 53.812,16.266 58.5,16.266 C 63.188,16.266 66.992,18.164 66.992,20.5 z "
   style="fill:#ffffff;fill-rule:nonzero;stroke:#ffffff;stroke-width:0;stroke-linecap:round;stroke-linejoin:round"
   id="path8132" />
<path
   d="M 66.992,20.5 L 66.981,20.718 L 66.948,20.932 L 66.894,21.144 L 66.82,21.353 L 66.725,21.557 L 66.61,21.758 L 66.477,21.955 L 66.324,22.147 L 66.154,22.335 L 65.967,22.517 L 65.762,22.694 L 65.541,22.866 L 65.304,23.032 L 65.052,23.192 L 64.785,23.346 L 64.504,23.493 L 64.209,23.633 L 63.901,23.767 L 63.58,23.892 L 63.247,24.011 L 62.902,24.121 L 62.547,24.223 L 62.181,24.316 L 61.804,24.401 L 61.419,24.477 L 61.024,24.544 L 60.621,24.601 L 60.211,24.648 L 59.793,24.686 L 59.368,24.713 L 58.937,24.729 L 58.5,24.734 C 53.812,24.734 50.008,22.836 50.008,20.5 C 50.008,18.164 53.812,16.266 58.5,16.266 C 63.188,16.266 66.992,18.164 66.992,20.5 z "
   style="stroke-width:0.84906;stroke-linecap:round;stroke-linejoin:round"
   id="path8134" />
<text
   transform="matrix(1,0,0,-1,53.191,17.855)"
   style="font-size:8px;fill:#000000;stroke:none;font-family:&quot;Helvetica&quot;, sans-serif"
   id="text8136">50</text>

<path
   d="M 82.5,100.5 L 82.469,101.73 L 82.376,102.95 L 82.223,104.15 L 82.012,105.34 L 81.744,106.5 L 81.421,107.64 L 81.044,108.75 L 80.614,109.84 L 80.133,110.9 L 79.603,111.94 L 79.025,112.94 L 78.401,113.92 L 77.732,114.86 L 77.019,115.77 L 76.265,116.64 L 75.47,117.47 L 74.637,118.26 L 73.766,119.02 L 72.859,119.73 L 71.918,120.4 L 70.944,121.03 L 69.939,121.6 L 68.905,122.13 L 67.841,122.61 L 66.752,123.04 L 65.637,123.42 L 64.498,123.74 L 63.337,124.01 L 62.155,124.22 L 60.954,124.38 L 59.735,124.47 L 58.5,124.5 C 45.246,124.5 34.5,113.75 34.5,100.5 C 34.5,87.246 45.246,76.5 58.5,76.5 C 71.754,76.5 82.5,87.246 82.5,100.5 z "
   style="fill:#ffffff;fill-rule:nonzero;stroke:#ffffff;stroke-width:0;stroke-linecap:round;stroke-linejoin:round"
   id="path8138" />
<path
   d="M 82.5,100.5 L 82.469,101.73 L 82.376,102.95 L 82.223,104.15 L 82.012,105.34 L 81.744,106.5 L 81.421,107.64 L 81.044,108.75 L 80.614,109.84 L 80.133,110.9 L 79.603,111.94 L 79.025,112.94 L 78.401,113.92 L 77.732,114.86 L 77.019,115.77 L 76.265,116.64 L 75.47,117.47 L 74.637,118.26 L 73.766,119.02 L 72.859,119.73 L 71.918,120.4 L 70.944,121.03 L 69.939,121.6 L 68.905,122.13 L 67.841,122.61 L 66.752,123.04 L 65.637,123.42 L 64.498,123.74 L 63.337,124.01 L 62.155,124.22 L 60.954,124.38 L 59.735,124.47 L 58.5,124.5 C 45.246,124.5 34.5,113.75 34.5,100.5 C 34.5,87.246 45.246,76.5 58.5,76.5 C 71.754,76.5 82.5,87.246 82.5,100.5 z "
   style="stroke-width:2;stroke-linecap:round;stroke-linejoin:round"
   id="path8140" />
<path
   d="M 31.992,80.5 L 31.981,80.718 L 31.948,80.932 L 31.894,81.144 L 31.82,81.353 L 31.725,81.557 L 31.61,81.758 L 31.477,81.955 L 31.324,82.147 L 31.154,82.335 L 30.967,82.517 L 30.762,82.694 L 30.541,82.866 L 30.304,83.032 L 30.052,83.192 L 29.785,83.346 L 29.504,83.493 L 29.209,83.633 L 28.901,83.767 L 28.58,83.892 L 28.247,84.011 L 27.902,84.121 L 27.547,84.223 L 27.181,84.316 L 26.804,84.401 L 26.419,84.477 L 26.024,84.544 L 25.621,84.601 L 25.211,84.648 L 24.793,84.686 L 24.368,84.713 L 23.937,84.729 L 23.5,84.734 C 18.812,84.734 15.008,82.836 15.008,80.5 C 15.008,78.164 18.812,76.266 23.5,76.266 C 28.188,76.266 31.992,78.164 31.992,80.5 z "
   style="fill:#ffffff;fill-rule:nonzero;stroke:#ffffff;stroke-width:0;stroke-linecap:round;stroke-linejoin:round"
   id="path8142" />
<path
   d="M 31.992,80.5 L 31.981,80.718 L 31.948,80.932 L 31.894,81.144 L 31.82,81.353 L 31.725,81.557 L 31.61,81.758 L 31.477,81.955 L 31.324,82.147 L 31.154,82.335 L 30.967,82.517 L 30.762,82.694 L 30.541,82.866 L 30.304,83.032 L 30.052,83.192 L 29.785,83.346 L 29.504,83.493 L 29.209,83.633 L 28.901,83.767 L 28.58,83.892 L 28.247,84.011 L 27.902,84.121 L 27.547,84.223 L 27.181,84.316 L 26.804,84.401 L 26.419,84.477 L 26.024,84.544 L 25.621,84.601 L 25.211,84.648 L 24.793,84.686 L 24.368,84.713 L 23.937,84.729 L 23.5,84.734 C 18.812,84.734 15.008,82.836 15.008,80.5 C 15.008,78.164 18.812,76.266 23.5,76.266 C 28.188,76.266 31.992,78.164 31.992,80.5 z "
   style="stroke-width:0.84906;stroke-linecap:round;stroke-linejoin:round"
   id="path8144" />
<text
   transform="matrix(1,0,0,-1,18.191,77.855)"
   style="font-size:8px;fill:#000000;stroke:none;font-family:&quot;Helvetica&quot;, sans-serif"
   id="text8146">50</text>

<text
   transform="matrix(1,0,0,-1,114.31,134.82)"
   style="font-size:16px;fill:#000000;stroke:none;font-family:&quot;Helvetica&quot;, sans-serif"
   id="text8148">OO</text>

<polygon
   points="46.5,160.5 138.5,160.5 184.5,80.5 138.5,0.5 46.5,0.5 0.5,80.5 46.5,160.5 "
   style="stroke-width:1;stroke-linejoin:round"
   id="polygon8150" />
</g></svg>
