<?xml version="1.0" encoding="UTF-8" standalone="no"?>
<svg
   xmlns:dc="http://purl.org/dc/elements/1.1/"
   xmlns:cc="http://web.resource.org/cc/"
   xmlns:rdf="http://www.w3.org/1999/02/22-rdf-syntax-ns#"
   xmlns:svg="http://www.w3.org/2000/svg"
   xmlns="http://www.w3.org/2000/svg"
   xmlns:sodipodi="http://sodipodi.sourceforge.net/DTD/sodipodi-0.dtd"
   xmlns:inkscape="http://www.inkscape.org/namespaces/inkscape"
   width="100"
   height="100"
   viewBox="0 0 1 1"
   preserveAspectRatio="none"
   id="svg5045"
   sodipodi:version="0.32"
   inkscape:version="0.45.1"
   sodipodi:docname="tile190.svg"
   sodipodi:docbase="C:\Documents and Settings\Brett\workspace\18xx\tiles\svg"
   version="1.0"
   inkscape:output_extension="org.inkscape.output.svg.inkscape">
  <metadata
     id="metadata5132">
    <rdf:RDF>
      <cc:Work
         rdf:about="">
        <dc:format>image/svg+xml</dc:format>
        <dc:type
           rdf:resource="http://purl.org/dc/dcmitype/StillImage" />
      </cc:Work>
    </rdf:RDF>
  </metadata>
  <defs
     id="defs5130" />
  <sodipodi:namedview
     inkscape:window-height="579"
     inkscape:window-width="749"
     inkscape:pageshadow="2"
     inkscape:pageopacity="0.0"
     borderopacity="1.0"
     bordercolor="#666666"
     pagecolor="#ffffff"
     id="base"
     inkscape:zoom="2.2491477"
     inkscape:cx="74.482759"
     inkscape:cy="43.92573"
     inkscape:window-x="22"
     inkscape:window-y="22"
     inkscape:current-layer="svg5045" />
  <title
     id="title5047">SVG drawing</title>
  <desc
     id="desc5049">This was produced by version 4.1 of GNU libplot, a free library for exporting 2-D vector graphics.</desc>
  <g
     transform="matrix(5.4159118e-3,0,0,-6.1699933e-3,-9.7185841e-4,1.0006615)"
     xml:space="preserve"
     style="font-style:normal;font-variant:normal;font-weight:normal;font-stretch:normal;letter-spacing:normal;word-spacing:normal;text-anchor:start;fill:none;fill-opacity:1;stroke:#000000;stroke-linecap:butt;stroke-linejoin:miter;stroke-miterlimit:10.43299961;stroke-dasharray:none;stroke-dashoffset:0;stroke-opacity:1"
     id="g5053">
<polygon
   points="46.5,160.5 138.5,160.5 184.5,80.5 138.5,0.5 46.5,0.5 0.5,80.5 46.5,160.5 "
   style="fill:#38ac00;fill-rule:nonzero;stroke:#38ac00;stroke-width:0;stroke-linejoin:round"
   id="polygon5055" />
<text
   transform="matrix(1,0,0,-1,109.22,7.9141)"
   style="font-size:8px;fill:#000000;stroke:none;font-family:&quot;Helvetica&quot;, sans-serif"
   id="text5057">190</text>


<path
   d="M 116.5,120.5 L 116.47,121.73 L 116.38,122.95 L 116.22,124.15 L 116.01,125.34 L 115.74,126.5 L 115.42,127.64 L 115.04,128.75 L 114.61,129.84 L 114.13,130.9 L 113.6,131.94 L 113.03,132.94 L 112.4,133.92 L 111.73,134.86 L 111.02,135.77 L 110.26,136.64 L 109.47,137.47 L 108.64,138.26 L 107.77,139.02 L 106.86,139.73 L 105.92,140.4 L 104.94,141.03 L 103.94,141.6 L 102.9,142.13 L 101.84,142.61 L 100.75,143.04 L 99.637,143.42 L 98.498,143.74 L 97.337,144.01 L 96.155,144.22 L 94.954,144.38 L 93.735,144.47 L 92.5,144.5 C 79.246,144.5 68.5,133.75 68.5,120.5 C 68.5,107.25 79.246,96.5 92.5,96.5 C 105.75,96.5 116.5,107.25 116.5,120.5 z "
   style="fill:#ffffff;fill-rule:nonzero;stroke:#ffffff;stroke-width:0;stroke-linecap:round;stroke-linejoin:round"
   id="path5059" />
<path
   d="M 116.5,120.5 L 116.47,121.73 L 116.38,122.95 L 116.22,124.15 L 116.01,125.34 L 115.74,126.5 L 115.42,127.64 L 115.04,128.75 L 114.61,129.84 L 114.13,130.9 L 113.6,131.94 L 113.03,132.94 L 112.4,133.92 L 111.73,134.86 L 111.02,135.77 L 110.26,136.64 L 109.47,137.47 L 108.64,138.26 L 107.77,139.02 L 106.86,139.73 L 105.92,140.4 L 104.94,141.03 L 103.94,141.6 L 102.9,142.13 L 101.84,142.61 L 100.75,143.04 L 99.637,143.42 L 98.498,143.74 L 97.337,144.01 L 96.155,144.22 L 94.954,144.38 L 93.735,144.47 L 92.5,144.5 C 79.246,144.5 68.5,133.75 68.5,120.5 C 68.5,107.25 79.246,96.5 92.5,96.5 C 105.75,96.5 116.5,107.25 116.5,120.5 z "
   style="stroke:#ffffff;stroke-width:6;stroke-linecap:round;stroke-linejoin:round"
   id="path5061" />
<path
   d="M 150.5,60.5 L 150.47,61.735 L 150.38,62.954 L 150.22,64.155 L 150.01,65.337 L 149.74,66.498 L 149.42,67.637 L 149.04,68.752 L 148.61,69.841 L 148.13,70.905 L 147.6,71.939 L 147.03,72.944 L 146.4,73.918 L 145.73,74.859 L 145.02,75.766 L 144.26,76.637 L 143.47,77.47 L 142.64,78.265 L 141.77,79.019 L 140.86,79.732 L 139.92,80.401 L 138.94,81.025 L 137.94,81.603 L 136.9,82.133 L 135.84,82.614 L 134.75,83.044 L 133.64,83.421 L 132.5,83.744 L 131.34,84.012 L 130.15,84.223 L 128.95,84.376 L 127.73,84.469 L 126.5,84.5 C 113.25,84.5 102.5,73.754 102.5,60.5 C 102.5,47.246 113.25,36.5 126.5,36.5 C 139.75,36.5 150.5,47.246 150.5,60.5 z "
   style="fill:#ffffff;fill-rule:nonzero;stroke:#ffffff;stroke-width:0;stroke-linecap:round;stroke-linejoin:round"
   id="path5063" />
<path
   d="M 150.5,60.5 L 150.47,61.735 L 150.38,62.954 L 150.22,64.155 L 150.01,65.337 L 149.74,66.498 L 149.42,67.637 L 149.04,68.752 L 148.61,69.841 L 148.13,70.905 L 147.6,71.939 L 147.03,72.944 L 146.4,73.918 L 145.73,74.859 L 145.02,75.766 L 144.26,76.637 L 143.47,77.47 L 142.64,78.265 L 141.77,79.019 L 140.86,79.732 L 139.92,80.401 L 138.94,81.025 L 137.94,81.603 L 136.9,82.133 L 135.84,82.614 L 134.75,83.044 L 133.64,83.421 L 132.5,83.744 L 131.34,84.012 L 130.15,84.223 L 128.95,84.376 L 127.73,84.469 L 126.5,84.5 C 113.25,84.5 102.5,73.754 102.5,60.5 C 102.5,47.246 113.25,36.5 126.5,36.5 C 139.75,36.5 150.5,47.246 150.5,60.5 z "
   style="stroke:#ffffff;stroke-width:6;stroke-linecap:round;stroke-linejoin:round"
   id="path5065" />
<path
   d="M 82.5,60.5 L 82.469,61.735 L 82.376,62.954 L 82.223,64.155 L 82.012,65.337 L 81.744,66.498 L 81.421,67.637 L 81.044,68.752 L 80.614,69.841 L 80.133,70.905 L 79.603,71.939 L 79.025,72.944 L 78.401,73.918 L 77.732,74.859 L 77.019,75.766 L 76.265,76.637 L 75.47,77.47 L 74.637,78.265 L 73.766,79.019 L 72.859,79.732 L 71.918,80.401 L 70.944,81.025 L 69.939,81.603 L 68.905,82.133 L 67.841,82.614 L 66.752,83.044 L 65.637,83.421 L 64.498,83.744 L 63.337,84.012 L 62.155,84.223 L 60.954,84.376 L 59.735,84.469 L 58.5,84.5 C 45.246,84.5 34.5,73.754 34.5,60.5 C 34.5,47.246 45.246,36.5 58.5,36.5 C 71.754,36.5 82.5,47.246 82.5,60.5 z "
   style="fill:#ffffff;fill-rule:nonzero;stroke:#ffffff;stroke-width:0;stroke-linecap:round;stroke-linejoin:round"
   id="path5067" />
<path
   d="M 82.5,60.5 L 82.469,61.735 L 82.376,62.954 L 82.223,64.155 L 82.012,65.337 L 81.744,66.498 L 81.421,67.637 L 81.044,68.752 L 80.614,69.841 L 80.133,70.905 L 79.603,71.939 L 79.025,72.944 L 78.401,73.918 L 77.732,74.859 L 77.019,75.766 L 76.265,76.637 L 75.47,77.47 L 74.637,78.265 L 73.766,79.019 L 72.859,79.732 L 71.918,80.401 L 70.944,81.025 L 69.939,81.603 L 68.905,82.133 L 67.841,82.614 L 66.752,83.044 L 65.637,83.421 L 64.498,83.744 L 63.337,84.012 L 62.155,84.223 L 60.954,84.376 L 59.735,84.469 L 58.5,84.5 C 45.246,84.5 34.5,73.754 34.5,60.5 C 34.5,47.246 45.246,36.5 58.5,36.5 C 71.754,36.5 82.5,47.246 82.5,60.5 z "
   style="stroke:#ffffff;stroke-width:6;stroke-linecap:round;stroke-linejoin:round"
   id="path5069" />
<line
   x1="126.5"
   y1="60.5"
   x2="161.5"
   y2="40.5"
   style="stroke:#ffffff;stroke-width:16;stroke-linecap:round"
   id="line5071" />
<line
   x1="126.5"
   y1="60.5"
   x2="23.5"
   y2="120.5"
   style="stroke:#ffffff;stroke-width:16;stroke-linecap:round"
   id="line5073" />
<line
   x1="126.5"
   y1="60.5"
   x2="161.5"
   y2="40.5"
   style="stroke-width:12;stroke-linecap:round"
   id="line5075" />
<line
   x1="126.5"
   y1="60.5"
   x2="23.5"
   y2="120.5"
   style="stroke-width:12;stroke-linecap:round"
   id="line5077" />
<line
   x1="92.5"
   y1="120.5"
   x2="92.5"
   y2="160.5"
   style="stroke:#ffffff;stroke-width:16;stroke-linecap:round"
   id="line5079" />
<line
   x1="92.5"
   y1="120.5"
   x2="92.5"
   y2="0.5"
   style="stroke:#ffffff;stroke-width:16;stroke-linecap:round"
   id="line5081" />
<line
   x1="92.5"
   y1="120.5"
   x2="92.5"
   y2="160.5"
   style="stroke-width:12;stroke-linecap:round"
   id="line5083" />
<line
   x1="92.5"
   y1="120.5"
   x2="92.5"
   y2="0.5"
   style="stroke-width:12;stroke-linecap:round"
   id="line5085" />
<line
   x1="58.5"
   y1="60.5"
   x2="161.5"
   y2="120.5"
   style="stroke:#ffffff;stroke-width:16;stroke-linecap:round"
   id="line5087" />
<line
   x1="58.5"
   y1="60.5"
   x2="23.5"
   y2="40.5"
   style="stroke:#ffffff;stroke-width:16;stroke-linecap:round"
   id="line5089" />
<line
   x1="58.5"
   y1="60.5"
   x2="161.5"
   y2="120.5"
   style="stroke-width:12;stroke-linecap:round"
   id="line5091" />
<line
   x1="58.5"
   y1="60.5"
   x2="23.5"
   y2="40.5"
   style="stroke-width:12;stroke-linecap:round"
   id="line5093" />
<path
   d="M 116.5,120.5 L 116.47,121.73 L 116.38,122.95 L 116.22,124.15 L 116.01,125.34 L 115.74,126.5 L 115.42,127.64 L 115.04,128.75 L 114.61,129.84 L 114.13,130.9 L 113.6,131.94 L 113.03,132.94 L 112.4,133.92 L 111.73,134.86 L 111.02,135.77 L 110.26,136.64 L 109.47,137.47 L 108.64,138.26 L 107.77,139.02 L 106.86,139.73 L 105.92,140.4 L 104.94,141.03 L 103.94,141.6 L 102.9,142.13 L 101.84,142.61 L 100.75,143.04 L 99.637,143.42 L 98.498,143.74 L 97.337,144.01 L 96.155,144.22 L 94.954,144.38 L 93.735,144.47 L 92.5,144.5 C 79.246,144.5 68.5,133.75 68.5,120.5 C 68.5,107.25 79.246,96.5 92.5,96.5 C 105.75,96.5 116.5,107.25 116.5,120.5 z "
   style="fill:#ffffff;fill-rule:nonzero;stroke:#ffffff;stroke-width:0;stroke-linecap:round;stroke-linejoin:round"
   id="path5095" />
<path
   d="M 116.5,120.5 L 116.47,121.73 L 116.38,122.95 L 116.22,124.15 L 116.01,125.34 L 115.74,126.5 L 115.42,127.64 L 115.04,128.75 L 114.61,129.84 L 114.13,130.9 L 113.6,131.94 L 113.03,132.94 L 112.4,133.92 L 111.73,134.86 L 111.02,135.77 L 110.26,136.64 L 109.47,137.47 L 108.64,138.26 L 107.77,139.02 L 106.86,139.73 L 105.92,140.4 L 104.94,141.03 L 103.94,141.6 L 102.9,142.13 L 101.84,142.61 L 100.75,143.04 L 99.637,143.42 L 98.498,143.74 L 97.337,144.01 L 96.155,144.22 L 94.954,144.38 L 93.735,144.47 L 92.5,144.5 C 79.246,144.5 68.5,133.75 68.5,120.5 C 68.5,107.25 79.246,96.5 92.5,96.5 C 105.75,96.5 116.5,107.25 116.5,120.5 z "
   style="stroke-width:2;stroke-linecap:round;stroke-linejoin:round"
   id="path5097" />
<path
   d="M 66.992,140.5 L 66.981,140.71 L 66.948,140.91 L 66.894,141.11 L 66.82,141.31 L 66.725,141.51 L 66.61,141.7 L 66.477,141.89 L 66.324,142.07 L 66.154,142.25 L 65.967,142.42 L 65.762,142.59 L 65.541,142.76 L 65.304,142.92 L 65.052,143.07 L 64.785,143.22 L 64.504,143.36 L 64.209,143.49 L 63.901,143.62 L 63.58,143.74 L 63.247,143.85 L 62.902,143.95 L 62.547,144.05 L 62.181,144.14 L 61.804,144.22 L 61.419,144.29 L 61.024,144.36 L 60.621,144.41 L 60.211,144.46 L 59.793,144.49 L 59.368,144.52 L 58.937,144.53 L 58.5,144.54 C 53.812,144.54 50.008,142.73 50.008,140.5 C 50.008,138.27 53.812,136.46 58.5,136.46 C 63.188,136.46 66.992,138.27 66.992,140.5 z "
   style="fill:#ffffff;fill-rule:nonzero;stroke:#ffffff;stroke-width:0;stroke-linecap:round;stroke-linejoin:round"
   id="path5099" />
<path
   d="M 66.992,140.5 L 66.981,140.71 L 66.948,140.91 L 66.894,141.11 L 66.82,141.31 L 66.725,141.51 L 66.61,141.7 L 66.477,141.89 L 66.324,142.07 L 66.154,142.25 L 65.967,142.42 L 65.762,142.59 L 65.541,142.76 L 65.304,142.92 L 65.052,143.07 L 64.785,143.22 L 64.504,143.36 L 64.209,143.49 L 63.901,143.62 L 63.58,143.74 L 63.247,143.85 L 62.902,143.95 L 62.547,144.05 L 62.181,144.14 L 61.804,144.22 L 61.419,144.29 L 61.024,144.36 L 60.621,144.41 L 60.211,144.46 L 59.793,144.49 L 59.368,144.52 L 58.937,144.53 L 58.5,144.54 C 53.812,144.54 50.008,142.73 50.008,140.5 C 50.008,138.27 53.812,136.46 58.5,136.46 C 63.188,136.46 66.992,138.27 66.992,140.5 z "
   style="stroke-width:0.84906;stroke-linecap:round;stroke-linejoin:round"
   id="path5101" />
<text
   transform="matrix(1,0,0,-1,53.191,137.98)"
   style="font-size:8px;fill:#000000;stroke:none;font-family:&quot;Helvetica&quot;, sans-serif"
   id="text5103">40</text>


<path
   d="M 150.5,60.5 L 150.47,61.735 L 150.38,62.954 L 150.22,64.155 L 150.01,65.337 L 149.74,66.498 L 149.42,67.637 L 149.04,68.752 L 148.61,69.841 L 148.13,70.905 L 147.6,71.939 L 147.03,72.944 L 146.4,73.918 L 145.73,74.859 L 145.02,75.766 L 144.26,76.637 L 143.47,77.47 L 142.64,78.265 L 141.77,79.019 L 140.86,79.732 L 139.92,80.401 L 138.94,81.025 L 137.94,81.603 L 136.9,82.133 L 135.84,82.614 L 134.75,83.044 L 133.64,83.421 L 132.5,83.744 L 131.34,84.012 L 130.15,84.223 L 128.95,84.376 L 127.73,84.469 L 126.5,84.5 C 113.25,84.5 102.5,73.754 102.5,60.5 C 102.5,47.246 113.25,36.5 126.5,36.5 C 139.75,36.5 150.5,47.246 150.5,60.5 z "
   style="fill:#ffffff;fill-rule:nonzero;stroke:#ffffff;stroke-width:0;stroke-linecap:round;stroke-linejoin:round"
   id="path5105" />
<path
   d="M 150.5,60.5 L 150.47,61.735 L 150.38,62.954 L 150.22,64.155 L 150.01,65.337 L 149.74,66.498 L 149.42,67.637 L 149.04,68.752 L 148.61,69.841 L 148.13,70.905 L 147.6,71.939 L 147.03,72.944 L 146.4,73.918 L 145.73,74.859 L 145.02,75.766 L 144.26,76.637 L 143.47,77.47 L 142.64,78.265 L 141.77,79.019 L 140.86,79.732 L 139.92,80.401 L 138.94,81.025 L 137.94,81.603 L 136.9,82.133 L 135.84,82.614 L 134.75,83.044 L 133.64,83.421 L 132.5,83.744 L 131.34,84.012 L 130.15,84.223 L 128.95,84.376 L 127.73,84.469 L 126.5,84.5 C 113.25,84.5 102.5,73.754 102.5,60.5 C 102.5,47.246 113.25,36.5 126.5,36.5 C 139.75,36.5 150.5,47.246 150.5,60.5 z "
   style="stroke-width:2;stroke-linecap:round;stroke-linejoin:round"
   id="path5107" />
<path
   d="M 66.992,140.5 L 66.981,140.71 L 66.948,140.91 L 66.894,141.11 L 66.82,141.31 L 66.725,141.51 L 66.61,141.7 L 66.477,141.89 L 66.324,142.07 L 66.154,142.25 L 65.967,142.42 L 65.762,142.59 L 65.541,142.76 L 65.304,142.92 L 65.052,143.07 L 64.785,143.22 L 64.504,143.36 L 64.209,143.49 L 63.901,143.62 L 63.58,143.74 L 63.247,143.85 L 62.902,143.95 L 62.547,144.05 L 62.181,144.14 L 61.804,144.22 L 61.419,144.29 L 61.024,144.36 L 60.621,144.41 L 60.211,144.46 L 59.793,144.49 L 59.368,144.52 L 58.937,144.53 L 58.5,144.54 C 53.812,144.54 50.008,142.73 50.008,140.5 C 50.008,138.27 53.812,136.46 58.5,136.46 C 63.188,136.46 66.992,138.27 66.992,140.5 z "
   style="fill:#ffffff;fill-rule:nonzero;stroke:#ffffff;stroke-width:0;stroke-linecap:round;stroke-linejoin:round"
   id="path5109" />
<path
   d="M 66.992,140.5 L 66.981,140.71 L 66.948,140.91 L 66.894,141.11 L 66.82,141.31 L 66.725,141.51 L 66.61,141.7 L 66.477,141.89 L 66.324,142.07 L 66.154,142.25 L 65.967,142.42 L 65.762,142.59 L 65.541,142.76 L 65.304,142.92 L 65.052,143.07 L 64.785,143.22 L 64.504,143.36 L 64.209,143.49 L 63.901,143.62 L 63.58,143.74 L 63.247,143.85 L 62.902,143.95 L 62.547,144.05 L 62.181,144.14 L 61.804,144.22 L 61.419,144.29 L 61.024,144.36 L 60.621,144.41 L 60.211,144.46 L 59.793,144.49 L 59.368,144.52 L 58.937,144.53 L 58.5,144.54 C 53.812,144.54 50.008,142.73 50.008,140.5 C 50.008,138.27 53.812,136.46 58.5,136.46 C 63.188,136.46 66.992,138.27 66.992,140.5 z "
   style="stroke-width:0.84906;stroke-linecap:round;stroke-linejoin:round"
   id="path5111" />
<text
   transform="matrix(1,0,0,-1,53.191,137.98)"
   style="font-size:8px;fill:#000000;stroke:none;font-family:&quot;Helvetica&quot;, sans-serif"
   id="text5113">40</text>


<path
   d="M 82.5,60.5 L 82.469,61.735 L 82.376,62.954 L 82.223,64.155 L 82.012,65.337 L 81.744,66.498 L 81.421,67.637 L 81.044,68.752 L 80.614,69.841 L 80.133,70.905 L 79.603,71.939 L 79.025,72.944 L 78.401,73.918 L 77.732,74.859 L 77.019,75.766 L 76.265,76.637 L 75.47,77.47 L 74.637,78.265 L 73.766,79.019 L 72.859,79.732 L 71.918,80.401 L 70.944,81.025 L 69.939,81.603 L 68.905,82.133 L 67.841,82.614 L 66.752,83.044 L 65.637,83.421 L 64.498,83.744 L 63.337,84.012 L 62.155,84.223 L 60.954,84.376 L 59.735,84.469 L 58.5,84.5 C 45.246,84.5 34.5,73.754 34.5,60.5 C 34.5,47.246 45.246,36.5 58.5,36.5 C 71.754,36.5 82.5,47.246 82.5,60.5 z "
   style="fill:#ffffff;fill-rule:nonzero;stroke:#ffffff;stroke-width:0;stroke-linecap:round;stroke-linejoin:round"
   id="path5115" />
<path
   d="M 82.5,60.5 L 82.469,61.735 L 82.376,62.954 L 82.223,64.155 L 82.012,65.337 L 81.744,66.498 L 81.421,67.637 L 81.044,68.752 L 80.614,69.841 L 80.133,70.905 L 79.603,71.939 L 79.025,72.944 L 78.401,73.918 L 77.732,74.859 L 77.019,75.766 L 76.265,76.637 L 75.47,77.47 L 74.637,78.265 L 73.766,79.019 L 72.859,79.732 L 71.918,80.401 L 70.944,81.025 L 69.939,81.603 L 68.905,82.133 L 67.841,82.614 L 66.752,83.044 L 65.637,83.421 L 64.498,83.744 L 63.337,84.012 L 62.155,84.223 L 60.954,84.376 L 59.735,84.469 L 58.5,84.5 C 45.246,84.5 34.5,73.754 34.5,60.5 C 34.5,47.246 45.246,36.5 58.5,36.5 C 71.754,36.5 82.5,47.246 82.5,60.5 z "
   style="stroke-width:2;stroke-linecap:round;stroke-linejoin:round"
   id="path5117" />
<path
   d="M 66.992,140.5 L 66.981,140.71 L 66.948,140.91 L 66.894,141.11 L 66.82,141.31 L 66.725,141.51 L 66.61,141.7 L 66.477,141.89 L 66.324,142.07 L 66.154,142.25 L 65.967,142.42 L 65.762,142.59 L 65.541,142.76 L 65.304,142.92 L 65.052,143.07 L 64.785,143.22 L 64.504,143.36 L 64.209,143.49 L 63.901,143.62 L 63.58,143.74 L 63.247,143.85 L 62.902,143.95 L 62.547,144.05 L 62.181,144.14 L 61.804,144.22 L 61.419,144.29 L 61.024,144.36 L 60.621,144.41 L 60.211,144.46 L 59.793,144.49 L 59.368,144.52 L 58.937,144.53 L 58.5,144.54 C 53.812,144.54 50.008,142.73 50.008,140.5 C 50.008,138.27 53.812,136.46 58.5,136.46 C 63.188,136.46 66.992,138.27 66.992,140.5 z "
   style="fill:#ffffff;fill-rule:nonzero;stroke:#ffffff;stroke-width:0;stroke-linecap:round;stroke-linejoin:round"
   id="path5119" />
<path
   d="M 66.992,140.5 L 66.981,140.71 L 66.948,140.91 L 66.894,141.11 L 66.82,141.31 L 66.725,141.51 L 66.61,141.7 L 66.477,141.89 L 66.324,142.07 L 66.154,142.25 L 65.967,142.42 L 65.762,142.59 L 65.541,142.76 L 65.304,142.92 L 65.052,143.07 L 64.785,143.22 L 64.504,143.36 L 64.209,143.49 L 63.901,143.62 L 63.58,143.74 L 63.247,143.85 L 62.902,143.95 L 62.547,144.05 L 62.181,144.14 L 61.804,144.22 L 61.419,144.29 L 61.024,144.36 L 60.621,144.41 L 60.211,144.46 L 59.793,144.49 L 59.368,144.52 L 58.937,144.53 L 58.5,144.54 C 53.812,144.54 50.008,142.73 50.008,140.5 C 50.008,138.27 53.812,136.46 58.5,136.46 C 63.188,136.46 66.992,138.27 66.992,140.5 z "
   style="stroke-width:0.84906;stroke-linecap:round;stroke-linejoin:round"
   id="path5121" />
<text
   transform="matrix(1,0,0,-1,53.191,137.98)"
   style="font-size:8px;fill:#000000;stroke:none;font-family:&quot;Helvetica&quot;, sans-serif"
   id="text5123">40</text>


<text
   transform="matrix(1,0,0,-1,52.625,14.918)"
   style="font-size:16px;fill:#000000;stroke:none;font-family:&quot;Helvetica&quot;, sans-serif"
   id="text5125">A</text>


<polygon
   points="46.5,160.5 138.5,160.5 184.5,80.5 138.5,0.5 46.5,0.5 0.5,80.5 46.5,160.5 "
   style="stroke-width:1;stroke-linejoin:round"
   id="polygon5127" />
</g></svg>
