<?xml version="1.0" encoding="UTF-8" standalone="no"?>
<svg
   xmlns:dc="http://purl.org/dc/elements/1.1/"
   xmlns:cc="http://web.resource.org/cc/"
   xmlns:rdf="http://www.w3.org/1999/02/22-rdf-syntax-ns#"
   xmlns:svg="http://www.w3.org/2000/svg"
   xmlns="http://www.w3.org/2000/svg"
   xmlns:sodipodi="http://inkscape.sourceforge.net/DTD/sodipodi-0.dtd"
   xmlns:inkscape="http://www.inkscape.org/namespaces/inkscape"
   width="100"
   height="100"
   viewBox="0 0 1 1"
   preserveAspectRatio="none"
   id="svg3926"
   sodipodi:version="0.32"
   inkscape:version="0.43"
   sodipodi:docname="tile36.svg"
   sodipodi:docbase="C:\Documents and Settings\lentz\Desktop\TileDesigner"
   version="1.0">
  <metadata
     id="metadata3989">
    <rdf:RDF>
      <cc:Work
         rdf:about="">
        <dc:format>image/svg+xml</dc:format>
        <dc:type
           rdf:resource="http://purl.org/dc/dcmitype/StillImage" />
      </cc:Work>
    </rdf:RDF>
  </metadata>
  <defs
     id="defs3987" />
  <sodipodi:namedview
     inkscape:window-height="540"
     inkscape:window-width="749"
     inkscape:pageshadow="2"
     inkscape:pageopacity="0.0"
     borderopacity="1.0"
     bordercolor="#666666"
     pagecolor="#ffffff"
     id="base"
     inkscape:zoom="0.52361111"
     inkscape:cx="360"
     inkscape:cy="360"
     inkscape:window-x="176"
     inkscape:window-y="176"
     inkscape:current-layer="svg3926" />
  <title
     id="title3928">SVG drawing</title>
  <desc
     id="desc3930">This was produced by version 4.1 of GNU libplot, a free library for exporting 2-D vector graphics.</desc>
  <g
     transform="matrix(5.418113e-3,0,0,-5.33314e-3,-2.13272e-5,0.959663)"
     xml:space="preserve"
     style="font-style:normal;font-variant:normal;font-weight:normal;font-stretch:normal;letter-spacing:normal;word-spacing:normal;text-anchor:start;fill:none;fill-opacity:1;stroke:#000000;stroke-linecap:butt;stroke-linejoin:miter;stroke-miterlimit:10.43299961;stroke-dasharray:none;stroke-dashoffset:0;stroke-opacity:1"
     id="g3934">
<polygon
   points="46.5,160.5 138.5,160.5 184.5,80.5 138.5,0.5 46.5,0.5 0.5,80.5 46.5,160.5 "
   style="fill:#b46301;fill-rule:nonzero;stroke:#b46301;stroke-width:0;stroke-linejoin:round"
   id="polygon3936" />
<text
   transform="matrix(1,0,0,-1,111.19,7.9141)"
   style="font-size:8px;fill:#000000;stroke:none;font-family:&quot;Helvetica&quot;, sans-serif"
   id="text3938">36</text>

<path
   d="M 121.5,124.5 L 121.47,125.73 L 121.38,126.95 L 121.22,128.15 L 121.01,129.34 L 120.74,130.5 L 120.42,131.64 L 120.04,132.75 L 119.61,133.84 L 119.13,134.9 L 118.6,135.94 L 118.03,136.94 L 117.4,137.92 L 116.73,138.86 L 116.02,139.77 L 115.26,140.64 L 114.47,141.47 L 113.64,142.26 L 112.77,143.02 L 111.86,143.73 L 110.92,144.4 L 109.94,145.03 L 108.94,145.6 L 107.9,146.13 L 106.84,146.61 L 105.75,147.04 L 104.64,147.42 L 103.5,147.74 L 102.34,148.01 L 101.15,148.22 L 99.954,148.38 L 98.735,148.47 L 97.5,148.5 C 84.246,148.5 73.5,137.75 73.5,124.5 C 73.5,111.25 84.246,100.5 97.5,100.5 C 110.75,100.5 121.5,111.25 121.5,124.5 z "
   style="fill:#ffffff;fill-rule:nonzero;stroke:#ffffff;stroke-width:0;stroke-linecap:round;stroke-linejoin:round"
   id="path3940" />
<path
   d="M 121.5,124.5 L 121.47,125.73 L 121.38,126.95 L 121.22,128.15 L 121.01,129.34 L 120.74,130.5 L 120.42,131.64 L 120.04,132.75 L 119.61,133.84 L 119.13,134.9 L 118.6,135.94 L 118.03,136.94 L 117.4,137.92 L 116.73,138.86 L 116.02,139.77 L 115.26,140.64 L 114.47,141.47 L 113.64,142.26 L 112.77,143.02 L 111.86,143.73 L 110.92,144.4 L 109.94,145.03 L 108.94,145.6 L 107.9,146.13 L 106.84,146.61 L 105.75,147.04 L 104.64,147.42 L 103.5,147.74 L 102.34,148.01 L 101.15,148.22 L 99.954,148.38 L 98.735,148.47 L 97.5,148.5 C 84.246,148.5 73.5,137.75 73.5,124.5 C 73.5,111.25 84.246,100.5 97.5,100.5 C 110.75,100.5 121.5,111.25 121.5,124.5 z "
   style="stroke:#ffffff;stroke-width:6;stroke-linecap:round;stroke-linejoin:round"
   id="path3942" />
<path
   d="M 111.5,36.5 L 111.47,37.735 L 111.38,38.954 L 111.22,40.155 L 111.01,41.337 L 110.74,42.498 L 110.42,43.637 L 110.04,44.752 L 109.61,45.841 L 109.13,46.905 L 108.6,47.939 L 108.03,48.944 L 107.4,49.918 L 106.73,50.859 L 106.02,51.766 L 105.26,52.637 L 104.47,53.47 L 103.64,54.265 L 102.77,55.019 L 101.86,55.732 L 100.92,56.401 L 99.945,57.025 L 98.939,57.603 L 97.905,58.133 L 96.842,58.614 L 95.752,59.044 L 94.637,59.421 L 93.498,59.744 L 92.337,60.012 L 91.155,60.223 L 89.954,60.376 L 88.735,60.469 L 87.5,60.5 C 74.246,60.5 63.5,49.754 63.5,36.5 C 63.5,23.246 74.246,12.5 87.5,12.5 C 100.75,12.5 111.5,23.246 111.5,36.5 z "
   style="fill:#ffffff;fill-rule:nonzero;stroke:#ffffff;stroke-width:0;stroke-linecap:round;stroke-linejoin:round"
   id="path3944" />
<path
   d="M 111.5,36.5 L 111.47,37.735 L 111.38,38.954 L 111.22,40.155 L 111.01,41.337 L 110.74,42.498 L 110.42,43.637 L 110.04,44.752 L 109.61,45.841 L 109.13,46.905 L 108.6,47.939 L 108.03,48.944 L 107.4,49.918 L 106.73,50.859 L 106.02,51.766 L 105.26,52.637 L 104.47,53.47 L 103.64,54.265 L 102.77,55.019 L 101.86,55.732 L 100.92,56.401 L 99.945,57.025 L 98.939,57.603 L 97.905,58.133 L 96.842,58.614 L 95.752,59.044 L 94.637,59.421 L 93.498,59.744 L 92.337,60.012 L 91.155,60.223 L 89.954,60.376 L 88.735,60.469 L 87.5,60.5 C 74.246,60.5 63.5,49.754 63.5,36.5 C 63.5,23.246 74.246,12.5 87.5,12.5 C 100.75,12.5 111.5,23.246 111.5,36.5 z "
   style="stroke:#ffffff;stroke-width:6;stroke-linecap:round;stroke-linejoin:round"
   id="path3946" />
<path
   d="M 92.5,160.5 L 92.5,160.5 C 92.5,148.33 94.113,136.2 97.293,124.44"
   style="stroke:#ffffff;stroke-width:16;stroke-linecap:round;stroke-linejoin:round"
   id="path3948" />
<path
   d="M 97.5,124.5 L 97.297,124.44 C 106.85,89.152 130.02,59.09 161.71,40.867"
   style="stroke:#ffffff;stroke-width:16;stroke-linecap:round;stroke-linejoin:round"
   id="path3950" />
<path
   d="M 92.5,0.5 L 92.5,0.5 C 92.5,12.672 90.887,24.801 87.707,36.555"
   style="stroke:#ffffff;stroke-width:16;stroke-linecap:round;stroke-linejoin:round"
   id="path3952" />
<path
   d="M 87.5,36.5 L 87.707,36.555 C 78.156,71.84 54.988,101.9 23.297,120.13"
   style="stroke:#ffffff;stroke-width:16;stroke-linecap:round;stroke-linejoin:round"
   id="path3954" />
<path
   d="M 92.5,160.5 L 92.5,160.5 C 92.5,148.33 94.113,136.2 97.293,124.44"
   style="stroke-width:12;stroke-linecap:round;stroke-linejoin:round"
   id="path3956" />
<path
   d="M 97.5,124.5 L 97.297,124.44 C 106.85,89.152 130.02,59.09 161.71,40.867"
   style="stroke-width:12;stroke-linecap:round;stroke-linejoin:round"
   id="path3958" />
<path
   d="M 92.5,0.5 L 92.5,0.5 C 92.5,12.672 90.887,24.801 87.707,36.555"
   style="stroke-width:12;stroke-linecap:round;stroke-linejoin:round"
   id="path3960" />
<path
   d="M 87.5,36.5 L 87.707,36.555 C 78.156,71.84 54.988,101.9 23.297,120.13"
   style="stroke-width:12;stroke-linecap:round;stroke-linejoin:round"
   id="path3962" />
<path
   d="M 121.5,124.5 L 121.47,125.73 L 121.38,126.95 L 121.22,128.15 L 121.01,129.34 L 120.74,130.5 L 120.42,131.64 L 120.04,132.75 L 119.61,133.84 L 119.13,134.9 L 118.6,135.94 L 118.03,136.94 L 117.4,137.92 L 116.73,138.86 L 116.02,139.77 L 115.26,140.64 L 114.47,141.47 L 113.64,142.26 L 112.77,143.02 L 111.86,143.73 L 110.92,144.4 L 109.94,145.03 L 108.94,145.6 L 107.9,146.13 L 106.84,146.61 L 105.75,147.04 L 104.64,147.42 L 103.5,147.74 L 102.34,148.01 L 101.15,148.22 L 99.954,148.38 L 98.735,148.47 L 97.5,148.5 C 84.246,148.5 73.5,137.75 73.5,124.5 C 73.5,111.25 84.246,100.5 97.5,100.5 C 110.75,100.5 121.5,111.25 121.5,124.5 z "
   style="fill:#ffffff;fill-rule:nonzero;stroke:#ffffff;stroke-width:0;stroke-linecap:round;stroke-linejoin:round"
   id="path3964" />
<path
   d="M 121.5,124.5 L 121.47,125.73 L 121.38,126.95 L 121.22,128.15 L 121.01,129.34 L 120.74,130.5 L 120.42,131.64 L 120.04,132.75 L 119.61,133.84 L 119.13,134.9 L 118.6,135.94 L 118.03,136.94 L 117.4,137.92 L 116.73,138.86 L 116.02,139.77 L 115.26,140.64 L 114.47,141.47 L 113.64,142.26 L 112.77,143.02 L 111.86,143.73 L 110.92,144.4 L 109.94,145.03 L 108.94,145.6 L 107.9,146.13 L 106.84,146.61 L 105.75,147.04 L 104.64,147.42 L 103.5,147.74 L 102.34,148.01 L 101.15,148.22 L 99.954,148.38 L 98.735,148.47 L 97.5,148.5 C 84.246,148.5 73.5,137.75 73.5,124.5 C 73.5,111.25 84.246,100.5 97.5,100.5 C 110.75,100.5 121.5,111.25 121.5,124.5 z "
   style="stroke-width:2;stroke-linecap:round;stroke-linejoin:round"
   id="path3966" />
<path
   d="M 169.99,80.5 L 169.98,80.708 L 169.95,80.913 L 169.89,81.115 L 169.82,81.314 L 169.72,81.509 L 169.61,81.701 L 169.48,81.889 L 169.32,82.072 L 169.15,82.251 L 168.97,82.425 L 168.76,82.594 L 168.54,82.758 L 168.3,82.917 L 168.05,83.069 L 167.79,83.216 L 167.5,83.356 L 167.21,83.49 L 166.9,83.617 L 166.58,83.737 L 166.25,83.849 L 165.9,83.954 L 165.55,84.052 L 165.18,84.141 L 164.8,84.222 L 164.42,84.294 L 164.02,84.357 L 163.62,84.412 L 163.21,84.457 L 162.79,84.493 L 162.37,84.518 L 161.94,84.534 L 161.5,84.539 C 156.81,84.539 153.01,82.73 153.01,80.5 C 153.01,78.27 156.81,76.461 161.5,76.461 C 166.19,76.461 169.99,78.27 169.99,80.5 z "
   style="fill:#ffffff;fill-rule:nonzero;stroke:#ffffff;stroke-width:0;stroke-linecap:round;stroke-linejoin:round"
   id="path3968" />
<path
   d="M 169.99,80.5 L 169.98,80.708 L 169.95,80.913 L 169.89,81.115 L 169.82,81.314 L 169.72,81.509 L 169.61,81.701 L 169.48,81.889 L 169.32,82.072 L 169.15,82.251 L 168.97,82.425 L 168.76,82.594 L 168.54,82.758 L 168.3,82.917 L 168.05,83.069 L 167.79,83.216 L 167.5,83.356 L 167.21,83.49 L 166.9,83.617 L 166.58,83.737 L 166.25,83.849 L 165.9,83.954 L 165.55,84.052 L 165.18,84.141 L 164.8,84.222 L 164.42,84.294 L 164.02,84.357 L 163.62,84.412 L 163.21,84.457 L 162.79,84.493 L 162.37,84.518 L 161.94,84.534 L 161.5,84.539 C 156.81,84.539 153.01,82.73 153.01,80.5 C 153.01,78.27 156.81,76.461 161.5,76.461 C 166.19,76.461 169.99,78.27 169.99,80.5 z "
   style="stroke-width:0.84906;stroke-linecap:round;stroke-linejoin:round"
   id="path3970" />
<text
   transform="matrix(1,0,0,-1,156.19,77.977)"
   style="font-size:8px;fill:#000000;stroke:none;font-family:&quot;Helvetica&quot;, sans-serif"
   id="text3972">40</text>

<path
   d="M 111.5,36.5 L 111.47,37.735 L 111.38,38.954 L 111.22,40.155 L 111.01,41.337 L 110.74,42.498 L 110.42,43.637 L 110.04,44.752 L 109.61,45.841 L 109.13,46.905 L 108.6,47.939 L 108.03,48.944 L 107.4,49.918 L 106.73,50.859 L 106.02,51.766 L 105.26,52.637 L 104.47,53.47 L 103.64,54.265 L 102.77,55.019 L 101.86,55.732 L 100.92,56.401 L 99.945,57.025 L 98.939,57.603 L 97.905,58.133 L 96.842,58.614 L 95.752,59.044 L 94.637,59.421 L 93.498,59.744 L 92.337,60.012 L 91.155,60.223 L 89.954,60.376 L 88.735,60.469 L 87.5,60.5 C 74.246,60.5 63.5,49.754 63.5,36.5 C 63.5,23.246 74.246,12.5 87.5,12.5 C 100.75,12.5 111.5,23.246 111.5,36.5 z "
   style="fill:#ffffff;fill-rule:nonzero;stroke:#ffffff;stroke-width:0;stroke-linecap:round;stroke-linejoin:round"
   id="path3974" />
<path
   d="M 111.5,36.5 L 111.47,37.735 L 111.38,38.954 L 111.22,40.155 L 111.01,41.337 L 110.74,42.498 L 110.42,43.637 L 110.04,44.752 L 109.61,45.841 L 109.13,46.905 L 108.6,47.939 L 108.03,48.944 L 107.4,49.918 L 106.73,50.859 L 106.02,51.766 L 105.26,52.637 L 104.47,53.47 L 103.64,54.265 L 102.77,55.019 L 101.86,55.732 L 100.92,56.401 L 99.945,57.025 L 98.939,57.603 L 97.905,58.133 L 96.842,58.614 L 95.752,59.044 L 94.637,59.421 L 93.498,59.744 L 92.337,60.012 L 91.155,60.223 L 89.954,60.376 L 88.735,60.469 L 87.5,60.5 C 74.246,60.5 63.5,49.754 63.5,36.5 C 63.5,23.246 74.246,12.5 87.5,12.5 C 100.75,12.5 111.5,23.246 111.5,36.5 z "
   style="stroke-width:2;stroke-linecap:round;stroke-linejoin:round"
   id="path3976" />
<path
   d="M 31.992,80.5 L 31.981,80.708 L 31.948,80.913 L 31.894,81.115 L 31.82,81.314 L 31.725,81.509 L 31.61,81.701 L 31.477,81.889 L 31.324,82.072 L 31.154,82.251 L 30.967,82.425 L 30.762,82.594 L 30.541,82.758 L 30.304,82.917 L 30.052,83.069 L 29.785,83.216 L 29.504,83.356 L 29.209,83.49 L 28.901,83.617 L 28.58,83.737 L 28.247,83.849 L 27.902,83.954 L 27.547,84.052 L 27.181,84.141 L 26.804,84.222 L 26.419,84.294 L 26.024,84.357 L 25.621,84.412 L 25.211,84.457 L 24.793,84.493 L 24.368,84.518 L 23.937,84.534 L 23.5,84.539 C 18.812,84.539 15.008,82.73 15.008,80.5 C 15.008,78.27 18.812,76.461 23.5,76.461 C 28.188,76.461 31.992,78.27 31.992,80.5 z "
   style="fill:#ffffff;fill-rule:nonzero;stroke:#ffffff;stroke-width:0;stroke-linecap:round;stroke-linejoin:round"
   id="path3978" />
<path
   d="M 31.992,80.5 L 31.981,80.708 L 31.948,80.913 L 31.894,81.115 L 31.82,81.314 L 31.725,81.509 L 31.61,81.701 L 31.477,81.889 L 31.324,82.072 L 31.154,82.251 L 30.967,82.425 L 30.762,82.594 L 30.541,82.758 L 30.304,82.917 L 30.052,83.069 L 29.785,83.216 L 29.504,83.356 L 29.209,83.49 L 28.901,83.617 L 28.58,83.737 L 28.247,83.849 L 27.902,83.954 L 27.547,84.052 L 27.181,84.141 L 26.804,84.222 L 26.419,84.294 L 26.024,84.357 L 25.621,84.412 L 25.211,84.457 L 24.793,84.493 L 24.368,84.518 L 23.937,84.534 L 23.5,84.539 C 18.812,84.539 15.008,82.73 15.008,80.5 C 15.008,78.27 18.812,76.461 23.5,76.461 C 28.188,76.461 31.992,78.27 31.992,80.5 z "
   style="stroke-width:0.84906;stroke-linecap:round;stroke-linejoin:round"
   id="path3980" />
<text
   transform="matrix(1,0,0,-1,18.191,77.977)"
   style="font-size:8px;fill:#000000;stroke:none;font-family:&quot;Helvetica&quot;, sans-serif"
   id="text3982">40</text>

<polygon
   points="46.5,160.5 138.5,160.5 184.5,80.5 138.5,0.5 46.5,0.5 0.5,80.5 46.5,160.5 "
   style="stroke-width:1;stroke-linejoin:round"
   id="polygon3984" />
</g></svg>
