<?xml version="1.0" encoding="UTF-8" standalone="no"?>
<svg
   xmlns:dc="http://purl.org/dc/elements/1.1/"
   xmlns:cc="http://web.resource.org/cc/"
   xmlns:rdf="http://www.w3.org/1999/02/22-rdf-syntax-ns#"
   xmlns:svg="http://www.w3.org/2000/svg"
   xmlns="http://www.w3.org/2000/svg"
   xmlns:sodipodi="http://sodipodi.sourceforge.net/DTD/sodipodi-0.dtd"
   xmlns:inkscape="http://www.inkscape.org/namespaces/inkscape"
   width="100"
   height="100"
   viewBox="0 0 1 1"
   preserveAspectRatio="none"
   id="svg8736"
   sodipodi:version="0.32"
   inkscape:version="0.45.1"
   sodipodi:docname="tile362.svg"
   sodipodi:docbase="C:\Documents and Settings\Brett\workspace\18xx\tiles\svg"
   version="1.0"
   inkscape:output_extension="org.inkscape.output.svg.inkscape">
  <metadata
     id="metadata8813">
    <rdf:RDF>
      <cc:Work
         rdf:about="">
        <dc:format>image/svg+xml</dc:format>
        <dc:type
           rdf:resource="http://purl.org/dc/dcmitype/StillImage" />
      </cc:Work>
    </rdf:RDF>
  </metadata>
  <defs
     id="defs8811" />
  <sodipodi:namedview
     inkscape:window-height="579"
     inkscape:window-width="749"
     inkscape:pageshadow="2"
     inkscape:pageopacity="0.0"
     borderopacity="1.0"
     bordercolor="#666666"
     pagecolor="#ffffff"
     id="base"
     inkscape:zoom="3.0925781"
     inkscape:cx="49.655173"
     inkscape:cy="57.29443"
     inkscape:window-x="110"
     inkscape:window-y="110"
     inkscape:current-layer="svg8736" />
  <title
     id="title8738">SVG drawing</title>
  <desc
     id="desc8740">This was produced by version 4.1 of GNU libplot, a free library for exporting 2-D vector graphics.</desc>
  <g
     transform="matrix(5.4169687e-3,0,0,-6.1831508e-3,-1.0696226e-3,1.0008633)"
     xml:space="preserve"
     style="font-style:normal;font-variant:normal;font-weight:normal;font-stretch:normal;letter-spacing:normal;word-spacing:normal;text-anchor:start;fill:none;fill-opacity:1;stroke:#000000;stroke-linecap:butt;stroke-linejoin:miter;stroke-miterlimit:10.43299961;stroke-dasharray:none;stroke-dashoffset:0;stroke-opacity:1"
     id="g8744">
<polygon
   points="46.5,160.5 138.5,160.5 184.5,80.5 138.5,0.5 46.5,0.5 0.5,80.5 46.5,160.5 "
   style="fill:#b46301;fill-rule:nonzero;stroke:#b46301;stroke-width:0;stroke-linejoin:round"
   id="polygon8746" />
<text
   transform="matrix(1,0,0,-1,109.2,7.9141)"
   style="font-size:8px;fill:#000000;stroke:none;font-family:&quot;Helvetica&quot;, sans-serif"
   id="text8748">362</text>


<polygon
   points="102.5,56.5 150.5,56.5 150.5,104.5 102.5,104.5 102.5,56.5 "
   style="fill:#ffffff;fill-rule:nonzero;stroke:#ffffff;stroke-width:0;stroke-linejoin:round"
   id="polygon8750" />
<polygon
   points="102.5,56.5 150.5,56.5 150.5,104.5 102.5,104.5 102.5,56.5 "
   style="stroke:#ffffff;stroke-width:6;stroke-linejoin:round"
   id="polygon8752" />
<path
   d="M 150.5,104.5 L 150.47,105.73 L 150.38,106.95 L 150.22,108.15 L 150.01,109.34 L 149.74,110.5 L 149.42,111.64 L 149.04,112.75 L 148.61,113.84 L 148.13,114.9 L 147.6,115.94 L 147.03,116.94 L 146.4,117.92 L 145.73,118.86 L 145.02,119.77 L 144.26,120.64 L 143.47,121.47 L 142.64,122.26 L 141.77,123.02 L 140.86,123.73 L 139.92,124.4 L 138.94,125.03 L 137.94,125.6 L 136.9,126.13 L 135.84,126.61 L 134.75,127.04 L 133.64,127.42 L 132.5,127.74 L 131.34,128.01 L 130.15,128.22 L 128.95,128.38 L 127.73,128.47 L 126.5,128.5 C 113.25,128.5 102.5,117.75 102.5,104.5 C 102.5,91.246 113.25,80.5 126.5,80.5 C 139.75,80.5 150.5,91.246 150.5,104.5 z "
   style="fill:#ffffff;fill-rule:nonzero;stroke:#ffffff;stroke-width:0;stroke-linecap:round;stroke-linejoin:round"
   id="path8754" />
<path
   d="M 150.5,104.5 L 150.47,105.73 L 150.38,106.95 L 150.22,108.15 L 150.01,109.34 L 149.74,110.5 L 149.42,111.64 L 149.04,112.75 L 148.61,113.84 L 148.13,114.9 L 147.6,115.94 L 147.03,116.94 L 146.4,117.92 L 145.73,118.86 L 145.02,119.77 L 144.26,120.64 L 143.47,121.47 L 142.64,122.26 L 141.77,123.02 L 140.86,123.73 L 139.92,124.4 L 138.94,125.03 L 137.94,125.6 L 136.9,126.13 L 135.84,126.61 L 134.75,127.04 L 133.64,127.42 L 132.5,127.74 L 131.34,128.01 L 130.15,128.22 L 128.95,128.38 L 127.73,128.47 L 126.5,128.5 C 113.25,128.5 102.5,117.75 102.5,104.5 C 102.5,91.246 113.25,80.5 126.5,80.5 C 139.75,80.5 150.5,91.246 150.5,104.5 z "
   style="stroke:#ffffff;stroke-width:6;stroke-linecap:round;stroke-linejoin:round"
   id="path8756" />
<path
   d="M 150.5,56.5 L 150.47,57.735 L 150.38,58.954 L 150.22,60.155 L 150.01,61.337 L 149.74,62.498 L 149.42,63.637 L 149.04,64.752 L 148.61,65.841 L 148.13,66.905 L 147.6,67.939 L 147.03,68.944 L 146.4,69.918 L 145.73,70.859 L 145.02,71.766 L 144.26,72.637 L 143.47,73.47 L 142.64,74.265 L 141.77,75.019 L 140.86,75.732 L 139.92,76.401 L 138.94,77.025 L 137.94,77.603 L 136.9,78.133 L 135.84,78.614 L 134.75,79.044 L 133.64,79.421 L 132.5,79.744 L 131.34,80.012 L 130.15,80.223 L 128.95,80.376 L 127.73,80.469 L 126.5,80.5 C 113.25,80.5 102.5,69.754 102.5,56.5 C 102.5,43.246 113.25,32.5 126.5,32.5 C 139.75,32.5 150.5,43.246 150.5,56.5 z "
   style="fill:#ffffff;fill-rule:nonzero;stroke:#ffffff;stroke-width:0;stroke-linecap:round;stroke-linejoin:round"
   id="path8758" />
<path
   d="M 150.5,56.5 L 150.47,57.735 L 150.38,58.954 L 150.22,60.155 L 150.01,61.337 L 149.74,62.498 L 149.42,63.637 L 149.04,64.752 L 148.61,65.841 L 148.13,66.905 L 147.6,67.939 L 147.03,68.944 L 146.4,69.918 L 145.73,70.859 L 145.02,71.766 L 144.26,72.637 L 143.47,73.47 L 142.64,74.265 L 141.77,75.019 L 140.86,75.732 L 139.92,76.401 L 138.94,77.025 L 137.94,77.603 L 136.9,78.133 L 135.84,78.614 L 134.75,79.044 L 133.64,79.421 L 132.5,79.744 L 131.34,80.012 L 130.15,80.223 L 128.95,80.376 L 127.73,80.469 L 126.5,80.5 C 113.25,80.5 102.5,69.754 102.5,56.5 C 102.5,43.246 113.25,32.5 126.5,32.5 C 139.75,32.5 150.5,43.246 150.5,56.5 z "
   style="stroke:#ffffff;stroke-width:6;stroke-linecap:round;stroke-linejoin:round"
   id="path8760" />
<path
   d="M 70.5,80.5 L 70.469,81.735 L 70.376,82.954 L 70.223,84.155 L 70.012,85.337 L 69.744,86.498 L 69.421,87.637 L 69.044,88.752 L 68.614,89.841 L 68.133,90.905 L 67.603,91.939 L 67.025,92.944 L 66.401,93.918 L 65.732,94.859 L 65.019,95.766 L 64.265,96.637 L 63.47,97.47 L 62.637,98.265 L 61.766,99.019 L 60.859,99.732 L 59.918,100.4 L 58.944,101.03 L 57.939,101.6 L 56.905,102.13 L 55.841,102.61 L 54.752,103.04 L 53.637,103.42 L 52.498,103.74 L 51.337,104.01 L 50.155,104.22 L 48.954,104.38 L 47.735,104.47 L 46.5,104.5 C 33.246,104.5 22.5,93.754 22.5,80.5 C 22.5,67.246 33.246,56.5 46.5,56.5 C 59.754,56.5 70.5,67.246 70.5,80.5 z "
   style="fill:#ffffff;fill-rule:nonzero;stroke:#ffffff;stroke-width:0;stroke-linecap:round;stroke-linejoin:round"
   id="path8762" />
<path
   d="M 70.5,80.5 L 70.469,81.735 L 70.376,82.954 L 70.223,84.155 L 70.012,85.337 L 69.744,86.498 L 69.421,87.637 L 69.044,88.752 L 68.614,89.841 L 68.133,90.905 L 67.603,91.939 L 67.025,92.944 L 66.401,93.918 L 65.732,94.859 L 65.019,95.766 L 64.265,96.637 L 63.47,97.47 L 62.637,98.265 L 61.766,99.019 L 60.859,99.732 L 59.918,100.4 L 58.944,101.03 L 57.939,101.6 L 56.905,102.13 L 55.841,102.61 L 54.752,103.04 L 53.637,103.42 L 52.498,103.74 L 51.337,104.01 L 50.155,104.22 L 48.954,104.38 L 47.735,104.47 L 46.5,104.5 C 33.246,104.5 22.5,93.754 22.5,80.5 C 22.5,67.246 33.246,56.5 46.5,56.5 C 59.754,56.5 70.5,67.246 70.5,80.5 z "
   style="stroke:#ffffff;stroke-width:6;stroke-linecap:round;stroke-linejoin:round"
   id="path8764" />
<path
   d="M 92.5,160.5 L 92.5,160.5 C 92.5,132.33 101.12,104.82 117.21,81.695"
   style="stroke:#ffffff;stroke-width:16;stroke-linecap:round;stroke-linejoin:round"
   id="path8766" />
<path
   d="M 161.5,120.5 L 161.71,120.13 C 144.05,109.98 128.85,96.035 117.22,79.312"
   style="stroke:#ffffff;stroke-width:16;stroke-linecap:round;stroke-linejoin:round"
   id="path8768" />
<path
   d="M 46.5,80.5 L 46.5,80.5 C 46.5,96.961 37.703,112.17 23.434,120.38"
   style="stroke:#ffffff;stroke-width:16;stroke-linecap:round;stroke-linejoin:round"
   id="path8770" />
<path
   d="M 92.5,160.5 L 92.5,160.5 C 92.5,132.33 101.12,104.82 117.21,81.695"
   style="stroke-width:12;stroke-linecap:round;stroke-linejoin:round"
   id="path8772" />
<path
   d="M 161.5,120.5 L 161.71,120.13 C 144.05,109.98 128.85,96.035 117.22,79.312"
   style="stroke-width:12;stroke-linecap:round;stroke-linejoin:round"
   id="path8774" />
<path
   d="M 46.5,80.5 L 46.5,80.5 C 46.5,96.961 37.703,112.17 23.434,120.38"
   style="stroke-width:12;stroke-linecap:round;stroke-linejoin:round"
   id="path8776" />
<polygon
   points="102.5,56.5 150.5,56.5 150.5,104.5 102.5,104.5 102.5,56.5 "
   style="fill:#ffffff;fill-rule:nonzero;stroke:#ffffff;stroke-width:0;stroke-linejoin:round"
   id="polygon8778" />
<polygon
   points="102.5,56.5 150.5,56.5 150.5,104.5 102.5,104.5 102.5,56.5 "
   style="stroke-width:2;stroke-linejoin:round"
   id="polygon8780" />
<path
   d="M 150.5,104.5 L 150.47,105.73 L 150.38,106.95 L 150.22,108.15 L 150.01,109.34 L 149.74,110.5 L 149.42,111.64 L 149.04,112.75 L 148.61,113.84 L 148.13,114.9 L 147.6,115.94 L 147.03,116.94 L 146.4,117.92 L 145.73,118.86 L 145.02,119.77 L 144.26,120.64 L 143.47,121.47 L 142.64,122.26 L 141.77,123.02 L 140.86,123.73 L 139.92,124.4 L 138.94,125.03 L 137.94,125.6 L 136.9,126.13 L 135.84,126.61 L 134.75,127.04 L 133.64,127.42 L 132.5,127.74 L 131.34,128.01 L 130.15,128.22 L 128.95,128.38 L 127.73,128.47 L 126.5,128.5 C 113.25,128.5 102.5,117.75 102.5,104.5 C 102.5,91.246 113.25,80.5 126.5,80.5 C 139.75,80.5 150.5,91.246 150.5,104.5 z "
   style="fill:#ffffff;fill-rule:nonzero;stroke:#ffffff;stroke-width:0;stroke-linecap:round;stroke-linejoin:round"
   id="path8782" />
<path
   d="M 150.5,104.5 L 150.47,105.73 L 150.38,106.95 L 150.22,108.15 L 150.01,109.34 L 149.74,110.5 L 149.42,111.64 L 149.04,112.75 L 148.61,113.84 L 148.13,114.9 L 147.6,115.94 L 147.03,116.94 L 146.4,117.92 L 145.73,118.86 L 145.02,119.77 L 144.26,120.64 L 143.47,121.47 L 142.64,122.26 L 141.77,123.02 L 140.86,123.73 L 139.92,124.4 L 138.94,125.03 L 137.94,125.6 L 136.9,126.13 L 135.84,126.61 L 134.75,127.04 L 133.64,127.42 L 132.5,127.74 L 131.34,128.01 L 130.15,128.22 L 128.95,128.38 L 127.73,128.47 L 126.5,128.5 C 113.25,128.5 102.5,117.75 102.5,104.5 C 102.5,91.246 113.25,80.5 126.5,80.5 C 139.75,80.5 150.5,91.246 150.5,104.5 z "
   style="stroke-width:2;stroke-linecap:round;stroke-linejoin:round"
   id="path8784" />
<path
   d="M 150.5,56.5 L 150.47,57.735 L 150.38,58.954 L 150.22,60.155 L 150.01,61.337 L 149.74,62.498 L 149.42,63.637 L 149.04,64.752 L 148.61,65.841 L 148.13,66.905 L 147.6,67.939 L 147.03,68.944 L 146.4,69.918 L 145.73,70.859 L 145.02,71.766 L 144.26,72.637 L 143.47,73.47 L 142.64,74.265 L 141.77,75.019 L 140.86,75.732 L 139.92,76.401 L 138.94,77.025 L 137.94,77.603 L 136.9,78.133 L 135.84,78.614 L 134.75,79.044 L 133.64,79.421 L 132.5,79.744 L 131.34,80.012 L 130.15,80.223 L 128.95,80.376 L 127.73,80.469 L 126.5,80.5 C 113.25,80.5 102.5,69.754 102.5,56.5 C 102.5,43.246 113.25,32.5 126.5,32.5 C 139.75,32.5 150.5,43.246 150.5,56.5 z "
   style="fill:#ffffff;fill-rule:nonzero;stroke:#ffffff;stroke-width:0;stroke-linecap:round;stroke-linejoin:round"
   id="path8786" />
<path
   d="M 150.5,56.5 L 150.47,57.735 L 150.38,58.954 L 150.22,60.155 L 150.01,61.337 L 149.74,62.498 L 149.42,63.637 L 149.04,64.752 L 148.61,65.841 L 148.13,66.905 L 147.6,67.939 L 147.03,68.944 L 146.4,69.918 L 145.73,70.859 L 145.02,71.766 L 144.26,72.637 L 143.47,73.47 L 142.64,74.265 L 141.77,75.019 L 140.86,75.732 L 139.92,76.401 L 138.94,77.025 L 137.94,77.603 L 136.9,78.133 L 135.84,78.614 L 134.75,79.044 L 133.64,79.421 L 132.5,79.744 L 131.34,80.012 L 130.15,80.223 L 128.95,80.376 L 127.73,80.469 L 126.5,80.5 C 113.25,80.5 102.5,69.754 102.5,56.5 C 102.5,43.246 113.25,32.5 126.5,32.5 C 139.75,32.5 150.5,43.246 150.5,56.5 z "
   style="stroke-width:2;stroke-linecap:round;stroke-linejoin:round"
   id="path8788" />
<path
   d="M 66.992,140.5 L 66.981,140.71 L 66.948,140.91 L 66.894,141.11 L 66.82,141.31 L 66.725,141.51 L 66.61,141.7 L 66.477,141.89 L 66.324,142.07 L 66.154,142.25 L 65.967,142.42 L 65.762,142.59 L 65.541,142.76 L 65.304,142.92 L 65.052,143.07 L 64.785,143.22 L 64.504,143.36 L 64.209,143.49 L 63.901,143.62 L 63.58,143.74 L 63.247,143.85 L 62.902,143.95 L 62.547,144.05 L 62.181,144.14 L 61.804,144.22 L 61.419,144.29 L 61.024,144.36 L 60.621,144.41 L 60.211,144.46 L 59.793,144.49 L 59.368,144.52 L 58.937,144.53 L 58.5,144.54 C 53.812,144.54 50.008,142.73 50.008,140.5 C 50.008,138.27 53.812,136.46 58.5,136.46 C 63.188,136.46 66.992,138.27 66.992,140.5 z "
   style="fill:#ffffff;fill-rule:nonzero;stroke:#ffffff;stroke-width:0;stroke-linecap:round;stroke-linejoin:round"
   id="path8790" />
<path
   d="M 66.992,140.5 L 66.981,140.71 L 66.948,140.91 L 66.894,141.11 L 66.82,141.31 L 66.725,141.51 L 66.61,141.7 L 66.477,141.89 L 66.324,142.07 L 66.154,142.25 L 65.967,142.42 L 65.762,142.59 L 65.541,142.76 L 65.304,142.92 L 65.052,143.07 L 64.785,143.22 L 64.504,143.36 L 64.209,143.49 L 63.901,143.62 L 63.58,143.74 L 63.247,143.85 L 62.902,143.95 L 62.547,144.05 L 62.181,144.14 L 61.804,144.22 L 61.419,144.29 L 61.024,144.36 L 60.621,144.41 L 60.211,144.46 L 59.793,144.49 L 59.368,144.52 L 58.937,144.53 L 58.5,144.54 C 53.812,144.54 50.008,142.73 50.008,140.5 C 50.008,138.27 53.812,136.46 58.5,136.46 C 63.188,136.46 66.992,138.27 66.992,140.5 z "
   style="stroke-width:0.84906;stroke-linecap:round;stroke-linejoin:round"
   id="path8792" />
<text
   transform="matrix(1,0,0,-1,53.191,137.98)"
   style="font-size:8px;fill:#000000;stroke:none;font-family:&quot;Helvetica&quot;, sans-serif"
   id="text8794">70</text>


<path
   d="M 70.5,80.5 L 70.469,81.735 L 70.376,82.954 L 70.223,84.155 L 70.012,85.337 L 69.744,86.498 L 69.421,87.637 L 69.044,88.752 L 68.614,89.841 L 68.133,90.905 L 67.603,91.939 L 67.025,92.944 L 66.401,93.918 L 65.732,94.859 L 65.019,95.766 L 64.265,96.637 L 63.47,97.47 L 62.637,98.265 L 61.766,99.019 L 60.859,99.732 L 59.918,100.4 L 58.944,101.03 L 57.939,101.6 L 56.905,102.13 L 55.841,102.61 L 54.752,103.04 L 53.637,103.42 L 52.498,103.74 L 51.337,104.01 L 50.155,104.22 L 48.954,104.38 L 47.735,104.47 L 46.5,104.5 C 33.246,104.5 22.5,93.754 22.5,80.5 C 22.5,67.246 33.246,56.5 46.5,56.5 C 59.754,56.5 70.5,67.246 70.5,80.5 z "
   style="fill:#ffffff;fill-rule:nonzero;stroke:#ffffff;stroke-width:0;stroke-linecap:round;stroke-linejoin:round"
   id="path8796" />
<path
   d="M 70.5,80.5 L 70.469,81.735 L 70.376,82.954 L 70.223,84.155 L 70.012,85.337 L 69.744,86.498 L 69.421,87.637 L 69.044,88.752 L 68.614,89.841 L 68.133,90.905 L 67.603,91.939 L 67.025,92.944 L 66.401,93.918 L 65.732,94.859 L 65.019,95.766 L 64.265,96.637 L 63.47,97.47 L 62.637,98.265 L 61.766,99.019 L 60.859,99.732 L 59.918,100.4 L 58.944,101.03 L 57.939,101.6 L 56.905,102.13 L 55.841,102.61 L 54.752,103.04 L 53.637,103.42 L 52.498,103.74 L 51.337,104.01 L 50.155,104.22 L 48.954,104.38 L 47.735,104.47 L 46.5,104.5 C 33.246,104.5 22.5,93.754 22.5,80.5 C 22.5,67.246 33.246,56.5 46.5,56.5 C 59.754,56.5 70.5,67.246 70.5,80.5 z "
   style="stroke-width:2;stroke-linecap:round;stroke-linejoin:round"
   id="path8798" />
<path
   d="M 66.992,140.5 L 66.981,140.71 L 66.948,140.91 L 66.894,141.11 L 66.82,141.31 L 66.725,141.51 L 66.61,141.7 L 66.477,141.89 L 66.324,142.07 L 66.154,142.25 L 65.967,142.42 L 65.762,142.59 L 65.541,142.76 L 65.304,142.92 L 65.052,143.07 L 64.785,143.22 L 64.504,143.36 L 64.209,143.49 L 63.901,143.62 L 63.58,143.74 L 63.247,143.85 L 62.902,143.95 L 62.547,144.05 L 62.181,144.14 L 61.804,144.22 L 61.419,144.29 L 61.024,144.36 L 60.621,144.41 L 60.211,144.46 L 59.793,144.49 L 59.368,144.52 L 58.937,144.53 L 58.5,144.54 C 53.812,144.54 50.008,142.73 50.008,140.5 C 50.008,138.27 53.812,136.46 58.5,136.46 C 63.188,136.46 66.992,138.27 66.992,140.5 z "
   style="fill:#ffffff;fill-rule:nonzero;stroke:#ffffff;stroke-width:0;stroke-linecap:round;stroke-linejoin:round"
   id="path8800" />
<path
   d="M 66.992,140.5 L 66.981,140.71 L 66.948,140.91 L 66.894,141.11 L 66.82,141.31 L 66.725,141.51 L 66.61,141.7 L 66.477,141.89 L 66.324,142.07 L 66.154,142.25 L 65.967,142.42 L 65.762,142.59 L 65.541,142.76 L 65.304,142.92 L 65.052,143.07 L 64.785,143.22 L 64.504,143.36 L 64.209,143.49 L 63.901,143.62 L 63.58,143.74 L 63.247,143.85 L 62.902,143.95 L 62.547,144.05 L 62.181,144.14 L 61.804,144.22 L 61.419,144.29 L 61.024,144.36 L 60.621,144.41 L 60.211,144.46 L 59.793,144.49 L 59.368,144.52 L 58.937,144.53 L 58.5,144.54 C 53.812,144.54 50.008,142.73 50.008,140.5 C 50.008,138.27 53.812,136.46 58.5,136.46 C 63.188,136.46 66.992,138.27 66.992,140.5 z "
   style="stroke-width:0.84906;stroke-linecap:round;stroke-linejoin:round"
   id="path8802" />
<text
   transform="matrix(1,0,0,-1,53.191,137.98)"
   style="font-size:8px;fill:#000000;stroke:none;font-family:&quot;Helvetica&quot;, sans-serif"
   id="text8804">70</text>


<text
   transform="matrix(1,0,0,-1,48.562,14.824)"
   style="font-size:16px;fill:#000000;stroke:none;font-family:&quot;Helvetica&quot;, sans-serif"
   id="text8806">SF</text>


<polygon
   points="46.5,160.5 138.5,160.5 184.5,80.5 138.5,0.5 46.5,0.5 0.5,80.5 46.5,160.5 "
   style="stroke-width:1;stroke-linejoin:round"
   id="polygon8808" />
</g></svg>
