<?xml version="1.0" encoding="UTF-8" standalone="no"?>
<svg
   xmlns:dc="http://purl.org/dc/elements/1.1/"
   xmlns:cc="http://web.resource.org/cc/"
   xmlns:rdf="http://www.w3.org/1999/02/22-rdf-syntax-ns#"
   xmlns:svg="http://www.w3.org/2000/svg"
   xmlns="http://www.w3.org/2000/svg"
   xmlns:sodipodi="http://inkscape.sourceforge.net/DTD/sodipodi-0.dtd"
   xmlns:inkscape="http://www.inkscape.org/namespaces/inkscape"
   width="100"
   height="100"
   viewBox="0 0 1 1"
   preserveAspectRatio="none"
   id="svg11254"
   sodipodi:version="0.32"
   inkscape:version="0.43"
   sodipodi:docname="tile421.svg"
   sodipodi:docbase="C:\Documents and Settings\lentz\Desktop\TileDesigner"
   version="1.0">
  <metadata
     id="metadata11295">
    <rdf:RDF>
      <cc:Work
         rdf:about="">
        <dc:format>image/svg+xml</dc:format>
        <dc:type
           rdf:resource="http://purl.org/dc/dcmitype/StillImage" />
      </cc:Work>
    </rdf:RDF>
  </metadata>
  <defs
     id="defs11293" />
  <sodipodi:namedview
     inkscape:window-height="540"
     inkscape:window-width="749"
     inkscape:pageshadow="2"
     inkscape:pageopacity="0.0"
     borderopacity="1.0"
     bordercolor="#666666"
     pagecolor="#ffffff"
     id="base"
     inkscape:zoom="0.52361111"
     inkscape:cx="360"
     inkscape:cy="360"
     inkscape:window-x="154"
     inkscape:window-y="154"
     inkscape:current-layer="svg11254" />
  <title
     id="title11256">SVG drawing</title>
  <desc
     id="desc11258">This was produced by version 4.1 of GNU libplot, a free library for exporting 2-D vector graphics.</desc>
  <rect
     x="0"
     y="0"
     width="1"
     height="1"
     style="fill:#ffffff;stroke:none"
     id="rect11260" />
  <g
     transform="matrix(5.418114e-3,0,0,-5.739835e-3,-1.175565e-3,0.934679)"
     xml:space="preserve"
     style="font-style:normal;font-variant:normal;font-weight:normal;font-stretch:normal;letter-spacing:normal;word-spacing:normal;text-anchor:start;fill:none;fill-opacity:1;stroke:#000000;stroke-linecap:butt;stroke-linejoin:miter;stroke-miterlimit:10.43299961;stroke-dasharray:none;stroke-dashoffset:0;stroke-opacity:1"
     id="g11262">
<polygon
   points="46.5,160.5 138.5,160.5 184.5,80.5 138.5,0.5 46.5,0.5 0.5,80.5 46.5,160.5 "
   style="fill:#38ac00;fill-rule:nonzero;stroke:#38ac00;stroke-width:0;stroke-linejoin:round"
   id="polygon11264" />
<text
   transform="matrix(1,0,0,-1,109.86,7.9141)"
   style="font-size:8px;fill:#000000;stroke:none;font-family:&quot;Helvetica&quot;, sans-serif"
   id="text11266">421</text>

<line
   x1="53.5"
   y1="66.5"
   x2="61.5"
   y2="40.5"
   style="stroke:#ffffff;stroke-width:16"
   id="line11268" />
<path
   d="M 161.5,40.5 L 161.3,40.129 C 140.37,52.164 116.64,58.5 92.5,58.5 C 80.648,58.5 68.844,56.973 57.383,53.957"
   style="stroke:#ffffff;stroke-width:16;stroke-linecap:round;stroke-linejoin:round"
   id="path11270" />
<path
   d="M 57.5,53.5 L 57.383,53.957 C 45.602,50.859 34.273,46.207 23.711,40.133"
   style="stroke:#ffffff;stroke-width:16;stroke-linecap:round;stroke-linejoin:round"
   id="path11272" />
<path
   d="M 161.5,40.5 L 161.43,40.375 C 154.46,44.387 146.55,46.5 138.5,46.5 C 113.1,46.5 92.5,25.902 92.5,0.5"
   style="stroke:#ffffff;stroke-width:16;stroke-linecap:round;stroke-linejoin:round"
   id="path11274" />
<path
   d="M 161.5,40.5 L 161.3,40.129 C 140.37,52.164 116.64,58.5 92.5,58.5 C 80.648,58.5 68.844,56.973 57.383,53.957"
   style="stroke-width:12;stroke-linecap:round;stroke-linejoin:round"
   id="path11276" />
<path
   d="M 57.5,53.5 L 57.383,53.957 C 45.602,50.859 34.273,46.207 23.711,40.133"
   style="stroke-width:12;stroke-linecap:round;stroke-linejoin:round"
   id="path11278" />
<path
   d="M 161.5,40.5 L 161.43,40.375 C 154.46,44.387 146.55,46.5 138.5,46.5 C 113.1,46.5 92.5,25.902 92.5,0.5"
   style="stroke-width:12;stroke-linecap:round;stroke-linejoin:round"
   id="path11280" />
<line
   x1="54.5"
   y1="65.5"
   x2="60.5"
   y2="41.5"
   style="stroke-width:12"
   id="line11282" />
<path
   d="M 31.992,80.5 L 31.981,80.708 L 31.948,80.913 L 31.894,81.115 L 31.82,81.314 L 31.725,81.509 L 31.61,81.701 L 31.477,81.889 L 31.324,82.072 L 31.154,82.251 L 30.967,82.425 L 30.762,82.594 L 30.541,82.758 L 30.304,82.917 L 30.052,83.069 L 29.785,83.216 L 29.504,83.356 L 29.209,83.49 L 28.901,83.617 L 28.58,83.737 L 28.247,83.849 L 27.902,83.954 L 27.547,84.052 L 27.181,84.141 L 26.804,84.222 L 26.419,84.294 L 26.024,84.357 L 25.621,84.412 L 25.211,84.457 L 24.793,84.493 L 24.368,84.518 L 23.937,84.534 L 23.5,84.539 C 18.812,84.539 15.008,82.73 15.008,80.5 C 15.008,78.27 18.812,76.461 23.5,76.461 C 28.188,76.461 31.992,78.27 31.992,80.5 z "
   style="fill:#ffffff;fill-rule:nonzero;stroke:#ffffff;stroke-width:0;stroke-linecap:round;stroke-linejoin:round"
   id="path11284" />
<path
   d="M 31.992,80.5 L 31.981,80.708 L 31.948,80.913 L 31.894,81.115 L 31.82,81.314 L 31.725,81.509 L 31.61,81.701 L 31.477,81.889 L 31.324,82.072 L 31.154,82.251 L 30.967,82.425 L 30.762,82.594 L 30.541,82.758 L 30.304,82.917 L 30.052,83.069 L 29.785,83.216 L 29.504,83.356 L 29.209,83.49 L 28.901,83.617 L 28.58,83.737 L 28.247,83.849 L 27.902,83.954 L 27.547,84.052 L 27.181,84.141 L 26.804,84.222 L 26.419,84.294 L 26.024,84.357 L 25.621,84.412 L 25.211,84.457 L 24.793,84.493 L 24.368,84.518 L 23.937,84.534 L 23.5,84.539 C 18.812,84.539 15.008,82.73 15.008,80.5 C 15.008,78.27 18.812,76.461 23.5,76.461 C 28.188,76.461 31.992,78.27 31.992,80.5 z "
   style="stroke-width:0.84906;stroke-linecap:round;stroke-linejoin:round"
   id="path11286" />
<text
   transform="matrix(1,0,0,-1,18.191,77.977)"
   style="font-size:8px;fill:#000000;stroke:none;font-family:&quot;Helvetica&quot;, sans-serif"
   id="text11288">10</text>

<polygon
   points="46.5,160.5 138.5,160.5 184.5,80.5 138.5,0.5 46.5,0.5 0.5,80.5 46.5,160.5 "
   style="stroke-width:1;stroke-linejoin:round"
   id="polygon11290" />
</g></svg>
