<?xml version="1.0" encoding="UTF-8" standalone="no"?>
<svg
   xmlns:dc="http://purl.org/dc/elements/1.1/"
   xmlns:cc="http://web.resource.org/cc/"
   xmlns:rdf="http://www.w3.org/1999/02/22-rdf-syntax-ns#"
   xmlns:svg="http://www.w3.org/2000/svg"
   xmlns="http://www.w3.org/2000/svg"
   xmlns:sodipodi="http://inkscape.sourceforge.net/DTD/sodipodi-0.dtd"
   xmlns:inkscape="http://www.inkscape.org/namespaces/inkscape"
   width="100"
   height="100"
   viewBox="0 0 1 1"
   preserveAspectRatio="none"
   id="svg4654"
   sodipodi:version="0.32"
   inkscape:version="0.43"
   sodipodi:docname="tile167.svg"
   sodipodi:docbase="C:\Documents and Settings\lentz\Desktop\TileDesigner"
   version="1.0">
  <metadata
     id="metadata4733">
    <rdf:RDF>
      <cc:Work
         rdf:about="">
        <dc:format>image/svg+xml</dc:format>
        <dc:type
           rdf:resource="http://purl.org/dc/dcmitype/StillImage" />
      </cc:Work>
    </rdf:RDF>
  </metadata>
  <defs
     id="defs4731" />
  <sodipodi:namedview
     inkscape:window-height="540"
     inkscape:window-width="749"
     inkscape:pageshadow="2"
     inkscape:pageopacity="0.0"
     borderopacity="1.0"
     bordercolor="#666666"
     pagecolor="#ffffff"
     id="base"
     inkscape:zoom="0.52361111"
     inkscape:cx="360"
     inkscape:cy="360"
     inkscape:window-x="44"
     inkscape:window-y="44"
     inkscape:current-layer="svg4654" />
  <title
     id="title4656">SVG drawing</title>
  <desc
     id="desc4658">This was produced by version 4.1 of GNU libplot, a free library for exporting 2-D vector graphics.</desc>
  <g
     transform="matrix(5.418114e-3,0,0,-5.333139e-3,-1.175565e-3,0.939964)"
     xml:space="preserve"
     style="font-style:normal;font-variant:normal;font-weight:normal;font-stretch:normal;letter-spacing:normal;word-spacing:normal;text-anchor:start;fill:none;fill-opacity:1;stroke:#000000;stroke-linecap:butt;stroke-linejoin:miter;stroke-miterlimit:10.43299961;stroke-dasharray:none;stroke-dashoffset:0;stroke-opacity:1"
     id="g4662">
<polygon
   points="46.5,160.5 138.5,160.5 184.5,80.5 138.5,0.5 46.5,0.5 0.5,80.5 46.5,160.5 "
   style="fill:#808080;fill-rule:nonzero;stroke:#808080;stroke-width:0;stroke-linejoin:round"
   id="polygon4664" />
<text
   transform="matrix(1,0,0,-1,109.17,7.9141)"
   style="font-size:8px;fill:#000000;stroke:none;font-family:&quot;Helvetica&quot;, sans-serif"
   id="text4666">167</text>

<path
   d="M 150.5,100.5 L 150.47,101.73 L 150.38,102.95 L 150.22,104.15 L 150.01,105.34 L 149.74,106.5 L 149.42,107.64 L 149.04,108.75 L 148.61,109.84 L 148.13,110.9 L 147.6,111.94 L 147.03,112.94 L 146.4,113.92 L 145.73,114.86 L 145.02,115.77 L 144.26,116.64 L 143.47,117.47 L 142.64,118.26 L 141.77,119.02 L 140.86,119.73 L 139.92,120.4 L 138.94,121.03 L 137.94,121.6 L 136.9,122.13 L 135.84,122.61 L 134.75,123.04 L 133.64,123.42 L 132.5,123.74 L 131.34,124.01 L 130.15,124.22 L 128.95,124.38 L 127.73,124.47 L 126.5,124.5 C 113.25,124.5 102.5,113.75 102.5,100.5 C 102.5,87.246 113.25,76.5 126.5,76.5 C 139.75,76.5 150.5,87.246 150.5,100.5 z "
   style="fill:#ffffff;fill-rule:nonzero;stroke:#ffffff;stroke-width:0;stroke-linecap:round;stroke-linejoin:round"
   id="path4668" />
<path
   d="M 150.5,100.5 L 150.47,101.73 L 150.38,102.95 L 150.22,104.15 L 150.01,105.34 L 149.74,106.5 L 149.42,107.64 L 149.04,108.75 L 148.61,109.84 L 148.13,110.9 L 147.6,111.94 L 147.03,112.94 L 146.4,113.92 L 145.73,114.86 L 145.02,115.77 L 144.26,116.64 L 143.47,117.47 L 142.64,118.26 L 141.77,119.02 L 140.86,119.73 L 139.92,120.4 L 138.94,121.03 L 137.94,121.6 L 136.9,122.13 L 135.84,122.61 L 134.75,123.04 L 133.64,123.42 L 132.5,123.74 L 131.34,124.01 L 130.15,124.22 L 128.95,124.38 L 127.73,124.47 L 126.5,124.5 C 113.25,124.5 102.5,113.75 102.5,100.5 C 102.5,87.246 113.25,76.5 126.5,76.5 C 139.75,76.5 150.5,87.246 150.5,100.5 z "
   style="stroke:#ffffff;stroke-width:6;stroke-linecap:round;stroke-linejoin:round"
   id="path4670" />
<path
   d="M 82.5,60.5 L 82.469,61.735 L 82.376,62.954 L 82.223,64.155 L 82.012,65.337 L 81.744,66.498 L 81.421,67.637 L 81.044,68.752 L 80.614,69.841 L 80.133,70.905 L 79.603,71.939 L 79.025,72.944 L 78.401,73.918 L 77.732,74.859 L 77.019,75.766 L 76.265,76.637 L 75.47,77.47 L 74.637,78.265 L 73.766,79.019 L 72.859,79.732 L 71.918,80.401 L 70.944,81.025 L 69.939,81.603 L 68.905,82.133 L 67.841,82.614 L 66.752,83.044 L 65.637,83.421 L 64.498,83.744 L 63.337,84.012 L 62.155,84.223 L 60.954,84.376 L 59.735,84.469 L 58.5,84.5 C 45.246,84.5 34.5,73.754 34.5,60.5 C 34.5,47.246 45.246,36.5 58.5,36.5 C 71.754,36.5 82.5,47.246 82.5,60.5 z "
   style="fill:#ffffff;fill-rule:nonzero;stroke:#ffffff;stroke-width:0;stroke-linecap:round;stroke-linejoin:round"
   id="path4672" />
<path
   d="M 82.5,60.5 L 82.469,61.735 L 82.376,62.954 L 82.223,64.155 L 82.012,65.337 L 81.744,66.498 L 81.421,67.637 L 81.044,68.752 L 80.614,69.841 L 80.133,70.905 L 79.603,71.939 L 79.025,72.944 L 78.401,73.918 L 77.732,74.859 L 77.019,75.766 L 76.265,76.637 L 75.47,77.47 L 74.637,78.265 L 73.766,79.019 L 72.859,79.732 L 71.918,80.401 L 70.944,81.025 L 69.939,81.603 L 68.905,82.133 L 67.841,82.614 L 66.752,83.044 L 65.637,83.421 L 64.498,83.744 L 63.337,84.012 L 62.155,84.223 L 60.954,84.376 L 59.735,84.469 L 58.5,84.5 C 45.246,84.5 34.5,73.754 34.5,60.5 C 34.5,47.246 45.246,36.5 58.5,36.5 C 71.754,36.5 82.5,47.246 82.5,60.5 z "
   style="stroke:#ffffff;stroke-width:6;stroke-linecap:round;stroke-linejoin:round"
   id="path4674" />
<line
   x1="103.5"
   y1="100.5"
   x2="126.5"
   y2="100.5"
   style="stroke:#ffffff;stroke-width:16;stroke-linecap:round"
   id="line4676" />
<line
   x1="126.5"
   y1="100.5"
   x2="161.5"
   y2="120.5"
   style="stroke:#ffffff;stroke-width:16;stroke-linecap:round"
   id="line4678" />
<path
   d="M 161.5,40.5 L 161.57,40.625 C 147.3,48.828 138.5,64.039 138.5,80.5 L 126.5,100.5"
   style="stroke:#ffffff;stroke-width:16;stroke-linecap:round;stroke-linejoin:round"
   id="path4680" />
<line
   x1="58.5"
   y1="60.5"
   x2="69.5"
   y2="80.5"
   style="stroke:#ffffff;stroke-width:16;stroke-linecap:round"
   id="line4682" />
<line
   x1="58.5"
   y1="60.5"
   x2="23.5"
   y2="40.5"
   style="stroke:#ffffff;stroke-width:16;stroke-linecap:round"
   id="line4684" />
<path
   d="M 92.5,0.5 L 92.5,0.5 C 92.5,16.961 83.703,32.172 69.434,40.375 L 58.5,60.5"
   style="stroke:#ffffff;stroke-width:16;stroke-linecap:round;stroke-linejoin:round"
   id="path4686" />
<path
   d="M 69.5,80.5 L 67.785,81.695 C 83.875,104.82 92.5,132.33 92.5,160.5"
   style="stroke:#ffffff;stroke-width:16;stroke-linecap:round;stroke-linejoin:round"
   id="path4688" />
<line
   x1="103.5"
   y1="100.5"
   x2="126.5"
   y2="100.5"
   style="stroke-width:12;stroke-linecap:round"
   id="line4690" />
<line
   x1="126.5"
   y1="100.5"
   x2="161.5"
   y2="120.5"
   style="stroke-width:12;stroke-linecap:round"
   id="line4692" />
<path
   d="M 161.5,40.5 L 161.57,40.625 C 147.3,48.828 138.5,64.039 138.5,80.5 L 126.5,100.5"
   style="stroke-width:12;stroke-linecap:round;stroke-linejoin:round"
   id="path4694" />
<line
   x1="58.5"
   y1="60.5"
   x2="69.5"
   y2="80.5"
   style="stroke-width:12;stroke-linecap:round"
   id="line4696" />
<line
   x1="58.5"
   y1="60.5"
   x2="23.5"
   y2="40.5"
   style="stroke-width:12;stroke-linecap:round"
   id="line4698" />
<path
   d="M 92.5,0.5 L 92.5,0.5 C 92.5,16.961 83.703,32.172 69.434,40.375 L 58.5,60.5"
   style="stroke-width:12;stroke-linecap:round;stroke-linejoin:round"
   id="path4700" />
<path
   d="M 69.5,80.5 L 67.785,81.695 C 83.875,104.82 92.5,132.33 92.5,160.5"
   style="stroke-width:12;stroke-linecap:round;stroke-linejoin:round"
   id="path4702" />
<path
   d="M 23.5,120.5 L 23.711,120.87 C 44.637,108.84 68.359,102.5 92.5,102.5 C 96.109,102.5 99.723,102.64 103.32,102.93"
   style="stroke:#ffffff;stroke-width:16;stroke-linecap:round;stroke-linejoin:round"
   id="path4704" />
<path
   d="M 23.5,120.5 L 23.711,120.87 C 44.637,108.84 68.359,102.5 92.5,102.5 C 96.109,102.5 99.723,102.64 103.32,102.93"
   style="stroke-width:12;stroke-linecap:round;stroke-linejoin:round"
   id="path4706" />
<path
   d="M 150.5,100.5 L 150.47,101.73 L 150.38,102.95 L 150.22,104.15 L 150.01,105.34 L 149.74,106.5 L 149.42,107.64 L 149.04,108.75 L 148.61,109.84 L 148.13,110.9 L 147.6,111.94 L 147.03,112.94 L 146.4,113.92 L 145.73,114.86 L 145.02,115.77 L 144.26,116.64 L 143.47,117.47 L 142.64,118.26 L 141.77,119.02 L 140.86,119.73 L 139.92,120.4 L 138.94,121.03 L 137.94,121.6 L 136.9,122.13 L 135.84,122.61 L 134.75,123.04 L 133.64,123.42 L 132.5,123.74 L 131.34,124.01 L 130.15,124.22 L 128.95,124.38 L 127.73,124.47 L 126.5,124.5 C 113.25,124.5 102.5,113.75 102.5,100.5 C 102.5,87.246 113.25,76.5 126.5,76.5 C 139.75,76.5 150.5,87.246 150.5,100.5 z "
   style="fill:#ffffff;fill-rule:nonzero;stroke:#ffffff;stroke-width:0;stroke-linecap:round;stroke-linejoin:round"
   id="path4708" />
<path
   d="M 150.5,100.5 L 150.47,101.73 L 150.38,102.95 L 150.22,104.15 L 150.01,105.34 L 149.74,106.5 L 149.42,107.64 L 149.04,108.75 L 148.61,109.84 L 148.13,110.9 L 147.6,111.94 L 147.03,112.94 L 146.4,113.92 L 145.73,114.86 L 145.02,115.77 L 144.26,116.64 L 143.47,117.47 L 142.64,118.26 L 141.77,119.02 L 140.86,119.73 L 139.92,120.4 L 138.94,121.03 L 137.94,121.6 L 136.9,122.13 L 135.84,122.61 L 134.75,123.04 L 133.64,123.42 L 132.5,123.74 L 131.34,124.01 L 130.15,124.22 L 128.95,124.38 L 127.73,124.47 L 126.5,124.5 C 113.25,124.5 102.5,113.75 102.5,100.5 C 102.5,87.246 113.25,76.5 126.5,76.5 C 139.75,76.5 150.5,87.246 150.5,100.5 z "
   style="stroke-width:2;stroke-linecap:round;stroke-linejoin:round"
   id="path4710" />
<path
   d="M 134.99,20.5 L 134.98,20.708 L 134.95,20.913 L 134.89,21.115 L 134.82,21.314 L 134.72,21.509 L 134.61,21.701 L 134.48,21.889 L 134.32,22.072 L 134.15,22.251 L 133.97,22.425 L 133.76,22.594 L 133.54,22.758 L 133.3,22.917 L 133.05,23.069 L 132.79,23.216 L 132.5,23.356 L 132.21,23.49 L 131.9,23.617 L 131.58,23.737 L 131.25,23.849 L 130.9,23.954 L 130.55,24.052 L 130.18,24.141 L 129.8,24.222 L 129.42,24.294 L 129.02,24.357 L 128.62,24.412 L 128.21,24.457 L 127.79,24.493 L 127.37,24.518 L 126.94,24.534 L 126.5,24.539 C 121.81,24.539 118.01,22.73 118.01,20.5 C 118.01,18.27 121.81,16.461 126.5,16.461 C 131.19,16.461 134.99,18.27 134.99,20.5 z "
   style="fill:#ffffff;fill-rule:nonzero;stroke:#ffffff;stroke-width:0;stroke-linecap:round;stroke-linejoin:round"
   id="path4712" />
<path
   d="M 134.99,20.5 L 134.98,20.708 L 134.95,20.913 L 134.89,21.115 L 134.82,21.314 L 134.72,21.509 L 134.61,21.701 L 134.48,21.889 L 134.32,22.072 L 134.15,22.251 L 133.97,22.425 L 133.76,22.594 L 133.54,22.758 L 133.3,22.917 L 133.05,23.069 L 132.79,23.216 L 132.5,23.356 L 132.21,23.49 L 131.9,23.617 L 131.58,23.737 L 131.25,23.849 L 130.9,23.954 L 130.55,24.052 L 130.18,24.141 L 129.8,24.222 L 129.42,24.294 L 129.02,24.357 L 128.62,24.412 L 128.21,24.457 L 127.79,24.493 L 127.37,24.518 L 126.94,24.534 L 126.5,24.539 C 121.81,24.539 118.01,22.73 118.01,20.5 C 118.01,18.27 121.81,16.461 126.5,16.461 C 131.19,16.461 134.99,18.27 134.99,20.5 z "
   style="stroke-width:0.84906;stroke-linecap:round;stroke-linejoin:round"
   id="path4714" />
<text
   transform="matrix(1,0,0,-1,121.19,17.977)"
   style="font-size:8px;fill:#000000;stroke:none;font-family:&quot;Helvetica&quot;, sans-serif"
   id="text4716">70</text>

<path
   d="M 82.5,60.5 L 82.469,61.735 L 82.376,62.954 L 82.223,64.155 L 82.012,65.337 L 81.744,66.498 L 81.421,67.637 L 81.044,68.752 L 80.614,69.841 L 80.133,70.905 L 79.603,71.939 L 79.025,72.944 L 78.401,73.918 L 77.732,74.859 L 77.019,75.766 L 76.265,76.637 L 75.47,77.47 L 74.637,78.265 L 73.766,79.019 L 72.859,79.732 L 71.918,80.401 L 70.944,81.025 L 69.939,81.603 L 68.905,82.133 L 67.841,82.614 L 66.752,83.044 L 65.637,83.421 L 64.498,83.744 L 63.337,84.012 L 62.155,84.223 L 60.954,84.376 L 59.735,84.469 L 58.5,84.5 C 45.246,84.5 34.5,73.754 34.5,60.5 C 34.5,47.246 45.246,36.5 58.5,36.5 C 71.754,36.5 82.5,47.246 82.5,60.5 z "
   style="fill:#ffffff;fill-rule:nonzero;stroke:#ffffff;stroke-width:0;stroke-linecap:round;stroke-linejoin:round"
   id="path4718" />
<path
   d="M 82.5,60.5 L 82.469,61.735 L 82.376,62.954 L 82.223,64.155 L 82.012,65.337 L 81.744,66.498 L 81.421,67.637 L 81.044,68.752 L 80.614,69.841 L 80.133,70.905 L 79.603,71.939 L 79.025,72.944 L 78.401,73.918 L 77.732,74.859 L 77.019,75.766 L 76.265,76.637 L 75.47,77.47 L 74.637,78.265 L 73.766,79.019 L 72.859,79.732 L 71.918,80.401 L 70.944,81.025 L 69.939,81.603 L 68.905,82.133 L 67.841,82.614 L 66.752,83.044 L 65.637,83.421 L 64.498,83.744 L 63.337,84.012 L 62.155,84.223 L 60.954,84.376 L 59.735,84.469 L 58.5,84.5 C 45.246,84.5 34.5,73.754 34.5,60.5 C 34.5,47.246 45.246,36.5 58.5,36.5 C 71.754,36.5 82.5,47.246 82.5,60.5 z "
   style="stroke-width:2;stroke-linecap:round;stroke-linejoin:round"
   id="path4720" />
<path
   d="M 66.992,140.5 L 66.981,140.71 L 66.948,140.91 L 66.894,141.11 L 66.82,141.31 L 66.725,141.51 L 66.61,141.7 L 66.477,141.89 L 66.324,142.07 L 66.154,142.25 L 65.967,142.42 L 65.762,142.59 L 65.541,142.76 L 65.304,142.92 L 65.052,143.07 L 64.785,143.22 L 64.504,143.36 L 64.209,143.49 L 63.901,143.62 L 63.58,143.74 L 63.247,143.85 L 62.902,143.95 L 62.547,144.05 L 62.181,144.14 L 61.804,144.22 L 61.419,144.29 L 61.024,144.36 L 60.621,144.41 L 60.211,144.46 L 59.793,144.49 L 59.368,144.52 L 58.937,144.53 L 58.5,144.54 C 53.812,144.54 50.008,142.73 50.008,140.5 C 50.008,138.27 53.812,136.46 58.5,136.46 C 63.188,136.46 66.992,138.27 66.992,140.5 z "
   style="fill:#ffffff;fill-rule:nonzero;stroke:#ffffff;stroke-width:0;stroke-linecap:round;stroke-linejoin:round"
   id="path4722" />
<path
   d="M 66.992,140.5 L 66.981,140.71 L 66.948,140.91 L 66.894,141.11 L 66.82,141.31 L 66.725,141.51 L 66.61,141.7 L 66.477,141.89 L 66.324,142.07 L 66.154,142.25 L 65.967,142.42 L 65.762,142.59 L 65.541,142.76 L 65.304,142.92 L 65.052,143.07 L 64.785,143.22 L 64.504,143.36 L 64.209,143.49 L 63.901,143.62 L 63.58,143.74 L 63.247,143.85 L 62.902,143.95 L 62.547,144.05 L 62.181,144.14 L 61.804,144.22 L 61.419,144.29 L 61.024,144.36 L 60.621,144.41 L 60.211,144.46 L 59.793,144.49 L 59.368,144.52 L 58.937,144.53 L 58.5,144.54 C 53.812,144.54 50.008,142.73 50.008,140.5 C 50.008,138.27 53.812,136.46 58.5,136.46 C 63.188,136.46 66.992,138.27 66.992,140.5 z "
   style="stroke-width:0.84906;stroke-linecap:round;stroke-linejoin:round"
   id="path4724" />
<text
   transform="matrix(1,0,0,-1,53.191,137.98)"
   style="font-size:8px;fill:#000000;stroke:none;font-family:&quot;Helvetica&quot;, sans-serif"
   id="text4726">70</text>

<polygon
   points="46.5,160.5 138.5,160.5 184.5,80.5 138.5,0.5 46.5,0.5 0.5,80.5 46.5,160.5 "
   style="stroke-width:1;stroke-linejoin:round"
   id="polygon4728" />
</g></svg>
