<?xml version="1.0" encoding="UTF-8" standalone="no"?>
<svg
   xmlns:dc="http://purl.org/dc/elements/1.1/"
   xmlns:cc="http://web.resource.org/cc/"
   xmlns:rdf="http://www.w3.org/1999/02/22-rdf-syntax-ns#"
   xmlns:svg="http://www.w3.org/2000/svg"
   xmlns="http://www.w3.org/2000/svg"
   xmlns:sodipodi="http://inkscape.sourceforge.net/DTD/sodipodi-0.dtd"
   xmlns:inkscape="http://www.inkscape.org/namespaces/inkscape"
   width="100"
   height="100"
   viewBox="0 0 1 1"
   preserveAspectRatio="none"
   id="svg4163"
   sodipodi:version="0.32"
   inkscape:version="0.43"
   sodipodi:docname="tile-2.svg"
   sodipodi:docbase="C:\Documents and Settings\lentz\workspace\18xx\tiles\svg"
   version="1.0">
  <metadata
     id="metadata4190">
    <rdf:RDF>
      <cc:Work
         rdf:about="">
        <dc:format>image/svg+xml</dc:format>
        <dc:type
           rdf:resource="http://purl.org/dc/dcmitype/StillImage" />
      </cc:Work>
    </rdf:RDF>
  </metadata>
  <defs
     id="defs4188" />
  <sodipodi:namedview
     inkscape:window-height="540"
     inkscape:window-width="749"
     inkscape:pageshadow="2"
     inkscape:pageopacity="0.0"
     borderopacity="1.0"
     bordercolor="#666666"
     pagecolor="#ffffff"
     id="base"
     inkscape:zoom="0.52361111"
     inkscape:cx="360"
     inkscape:cy="360"
     inkscape:window-x="154"
     inkscape:window-y="154"
     inkscape:current-layer="svg4163" />
  <title
     id="title4165">SVG drawing</title>
  <desc
     id="desc4167">This was produced by version 4.1 of GNU libplot, a free library for exporting 2-D vector graphics.</desc>
  <g
     transform="matrix(5.418114e-3,0,0,-6.213736e-3,-1.175565e-3,1.000871)"
     xml:space="preserve"
     style="font-style:normal;font-variant:normal;font-weight:normal;font-stretch:normal;letter-spacing:normal;word-spacing:normal;text-anchor:start;fill:none;fill-opacity:1;stroke:#000000;stroke-linecap:butt;stroke-linejoin:miter;stroke-miterlimit:10.43299961;stroke-dasharray:none;stroke-dashoffset:0;stroke-opacity:1"
     id="g4171">
<polygon
   points="46.5,160.5 138.5,160.5 184.5,80.5 138.5,0.5 46.5,0.5 0.5,80.5 46.5,160.5 "
   style="fill:#c0dcc0;fill-rule:nonzero;stroke:#c0dcc0;stroke-width:0;stroke-linejoin:round"
   id="polygon4173" />
<text
   transform="matrix(1,0,0,-1,112.2,7.9141)"
   style="font-size:8px;fill:#000000;stroke:none;font-family:&quot;Helvetica&quot;, sans-serif"
   id="text4175">-2</text>


<path
   d="M 136.5,100.5 L 136.49,101.01 L 136.45,101.52 L 136.38,102.02 L 136.3,102.51 L 136.18,103 L 136.05,103.47 L 135.89,103.94 L 135.71,104.39 L 135.51,104.83 L 135.29,105.27 L 135.05,105.68 L 134.79,106.09 L 134.51,106.48 L 134.22,106.86 L 133.9,107.22 L 133.57,107.57 L 133.22,107.9 L 132.86,108.22 L 132.48,108.51 L 132.09,108.79 L 131.68,109.05 L 131.27,109.29 L 130.83,109.51 L 130.39,109.71 L 129.94,109.89 L 129.47,110.05 L 129,110.18 L 128.51,110.3 L 128.02,110.38 L 127.52,110.45 L 127.01,110.49 L 126.5,110.5 C 120.98,110.5 116.5,106.02 116.5,100.5 C 116.5,94.98 120.98,90.5 126.5,90.5 C 132.02,90.5 136.5,94.98 136.5,100.5 z "
   style="fill:#000000;fill-rule:nonzero;stroke-width:0;stroke-linecap:round;stroke-linejoin:round"
   id="path4177" />
<path
   d="M 136.5,100.5 L 136.49,101.01 L 136.45,101.52 L 136.38,102.02 L 136.3,102.51 L 136.18,103 L 136.05,103.47 L 135.89,103.94 L 135.71,104.39 L 135.51,104.83 L 135.29,105.27 L 135.05,105.68 L 134.79,106.09 L 134.51,106.48 L 134.22,106.86 L 133.9,107.22 L 133.57,107.57 L 133.22,107.9 L 132.86,108.22 L 132.48,108.51 L 132.09,108.79 L 131.68,109.05 L 131.27,109.29 L 130.83,109.51 L 130.39,109.71 L 129.94,109.89 L 129.47,110.05 L 129,110.18 L 128.51,110.3 L 128.02,110.38 L 127.52,110.45 L 127.01,110.49 L 126.5,110.5 C 120.98,110.5 116.5,106.02 116.5,100.5 C 116.5,94.98 120.98,90.5 126.5,90.5 C 132.02,90.5 136.5,94.98 136.5,100.5 z "
   style="stroke:#ffffff;stroke-width:2;stroke-linecap:round;stroke-linejoin:round"
   id="path4179" />
<path
   d="M 102.5,40.5 L 102.49,41.014 L 102.45,41.522 L 102.38,42.022 L 102.3,42.514 L 102.18,42.998 L 102.05,43.472 L 101.89,43.937 L 101.71,44.391 L 101.51,44.834 L 101.29,45.265 L 101.05,45.684 L 100.79,46.09 L 100.51,46.482 L 100.22,46.86 L 99.901,47.222 L 99.57,47.57 L 99.222,47.901 L 98.86,48.215 L 98.482,48.512 L 98.09,48.791 L 97.684,49.051 L 97.265,49.292 L 96.834,49.513 L 96.391,49.714 L 95.937,49.893 L 95.472,50.05 L 94.998,50.185 L 94.514,50.297 L 94.022,50.385 L 93.522,50.448 L 93.014,50.487 L 92.5,50.5 C 86.98,50.5 82.5,46.02 82.5,40.5 C 82.5,34.98 86.98,30.5 92.5,30.5 C 98.02,30.5 102.5,34.98 102.5,40.5 z "
   style="fill:#000000;fill-rule:nonzero;stroke-width:0;stroke-linecap:round;stroke-linejoin:round"
   id="path4181" />
<path
   d="M 102.5,40.5 L 102.49,41.014 L 102.45,41.522 L 102.38,42.022 L 102.3,42.514 L 102.18,42.998 L 102.05,43.472 L 101.89,43.937 L 101.71,44.391 L 101.51,44.834 L 101.29,45.265 L 101.05,45.684 L 100.79,46.09 L 100.51,46.482 L 100.22,46.86 L 99.901,47.222 L 99.57,47.57 L 99.222,47.901 L 98.86,48.215 L 98.482,48.512 L 98.09,48.791 L 97.684,49.051 L 97.265,49.292 L 96.834,49.513 L 96.391,49.714 L 95.937,49.893 L 95.472,50.05 L 94.998,50.185 L 94.514,50.297 L 94.022,50.385 L 93.522,50.448 L 93.014,50.487 L 92.5,50.5 C 86.98,50.5 82.5,46.02 82.5,40.5 C 82.5,34.98 86.98,30.5 92.5,30.5 C 98.02,30.5 102.5,34.98 102.5,40.5 z "
   style="stroke:#ffffff;stroke-width:2;stroke-linecap:round;stroke-linejoin:round"
   id="path4183" />
<polygon
   points="46.5,160.5 138.5,160.5 184.5,80.5 138.5,0.5 46.5,0.5 0.5,80.5 46.5,160.5 "
   style="stroke-width:1;stroke-linejoin:round"
   id="polygon4185" />
</g></svg>
