<?xml version="1.0" encoding="UTF-8" standalone="no"?>
<svg
   xmlns:dc="http://purl.org/dc/elements/1.1/"
   xmlns:cc="http://web.resource.org/cc/"
   xmlns:rdf="http://www.w3.org/1999/02/22-rdf-syntax-ns#"
   xmlns:svg="http://www.w3.org/2000/svg"
   xmlns="http://www.w3.org/2000/svg"
   xmlns:sodipodi="http://sodipodi.sourceforge.net/DTD/sodipodi-0.dtd"
   xmlns:inkscape="http://www.inkscape.org/namespaces/inkscape"
   width="100"
   height="100"
   viewBox="0 0 1 1"
   preserveAspectRatio="none"
   id="svg8023"
   sodipodi:version="0.32"
   inkscape:version="0.45.1"
   sodipodi:docname="tile66.svg"
   sodipodi:docbase="C:\Documents and Settings\Brett\workspace\18xx\tiles\svg"
   version="1.0"
   inkscape:output_extension="org.inkscape.output.svg.inkscape">
  <metadata
     id="metadata8088">
    <rdf:RDF>
      <cc:Work
         rdf:about="">
        <dc:format>image/svg+xml</dc:format>
        <dc:type
           rdf:resource="http://purl.org/dc/dcmitype/StillImage" />
      </cc:Work>
    </rdf:RDF>
  </metadata>
  <defs
     id="defs8086" />
  <sodipodi:namedview
     inkscape:window-height="579"
     inkscape:window-width="749"
     inkscape:pageshadow="2"
     inkscape:pageopacity="0.0"
     borderopacity="1.0"
     bordercolor="#666666"
     pagecolor="#ffffff"
     id="base"
     inkscape:zoom="2.2040017"
     inkscape:cx="53.891693"
     inkscape:cy="50.598873"
     inkscape:window-x="132"
     inkscape:window-y="132"
     inkscape:current-layer="svg8023" />
  <title
     id="title8025">SVG drawing</title>
  <desc
     id="desc8027">This was produced by version 4.1 of GNU libplot, a free library for exporting 2-D vector graphics.</desc>
  <g
     transform="matrix(5.4021421e-3,0,0,-6.1566224e-3,3.0185014e-4,1.0002944)"
     xml:space="preserve"
     style="font-style:normal;font-variant:normal;font-weight:normal;font-stretch:normal;letter-spacing:normal;word-spacing:normal;text-anchor:start;fill:none;fill-opacity:1;stroke:#000000;stroke-linecap:butt;stroke-linejoin:miter;stroke-miterlimit:10.43299961;stroke-dasharray:none;stroke-dashoffset:0;stroke-opacity:1"
     id="g8031">
<polygon
   points="46.5,160.5 138.5,160.5 184.5,80.5 138.5,0.5 46.5,0.5 0.5,80.5 46.5,160.5 "
   style="fill:#b46301;fill-rule:nonzero;stroke:#b46301;stroke-width:0;stroke-linejoin:round"
   id="polygon8033" />
<text
   transform="matrix(1,0,0,-1,111.19,7.9141)"
   style="font-size:8px;fill:#000000;stroke:none;font-family:&quot;Helvetica&quot;, sans-serif"
   id="text8035">66</text>


<path
   d="M 116.5,120.5 L 116.47,121.73 L 116.38,122.95 L 116.22,124.15 L 116.01,125.34 L 115.74,126.5 L 115.42,127.64 L 115.04,128.75 L 114.61,129.84 L 114.13,130.9 L 113.6,131.94 L 113.03,132.94 L 112.4,133.92 L 111.73,134.86 L 111.02,135.77 L 110.26,136.64 L 109.47,137.47 L 108.64,138.26 L 107.77,139.02 L 106.86,139.73 L 105.92,140.4 L 104.94,141.03 L 103.94,141.6 L 102.9,142.13 L 101.84,142.61 L 100.75,143.04 L 99.637,143.42 L 98.498,143.74 L 97.337,144.01 L 96.155,144.22 L 94.954,144.38 L 93.735,144.47 L 92.5,144.5 C 79.246,144.5 68.5,133.75 68.5,120.5 C 68.5,107.25 79.246,96.5 92.5,96.5 C 105.75,96.5 116.5,107.25 116.5,120.5 z "
   style="fill:#ffffff;fill-rule:nonzero;stroke:#ffffff;stroke-width:0;stroke-linecap:round;stroke-linejoin:round"
   id="path8037" />
<path
   d="M 116.5,120.5 L 116.47,121.73 L 116.38,122.95 L 116.22,124.15 L 116.01,125.34 L 115.74,126.5 L 115.42,127.64 L 115.04,128.75 L 114.61,129.84 L 114.13,130.9 L 113.6,131.94 L 113.03,132.94 L 112.4,133.92 L 111.73,134.86 L 111.02,135.77 L 110.26,136.64 L 109.47,137.47 L 108.64,138.26 L 107.77,139.02 L 106.86,139.73 L 105.92,140.4 L 104.94,141.03 L 103.94,141.6 L 102.9,142.13 L 101.84,142.61 L 100.75,143.04 L 99.637,143.42 L 98.498,143.74 L 97.337,144.01 L 96.155,144.22 L 94.954,144.38 L 93.735,144.47 L 92.5,144.5 C 79.246,144.5 68.5,133.75 68.5,120.5 C 68.5,107.25 79.246,96.5 92.5,96.5 C 105.75,96.5 116.5,107.25 116.5,120.5 z "
   style="stroke:#ffffff;stroke-width:6;stroke-linecap:round;stroke-linejoin:round"
   id="path8039" />
<path
   d="M 70.5,80.5 L 70.469,81.735 L 70.376,82.954 L 70.223,84.155 L 70.012,85.337 L 69.744,86.498 L 69.421,87.637 L 69.044,88.752 L 68.614,89.841 L 68.133,90.905 L 67.603,91.939 L 67.025,92.944 L 66.401,93.918 L 65.732,94.859 L 65.019,95.766 L 64.265,96.637 L 63.47,97.47 L 62.637,98.265 L 61.766,99.019 L 60.859,99.732 L 59.918,100.4 L 58.944,101.03 L 57.939,101.6 L 56.905,102.13 L 55.841,102.61 L 54.752,103.04 L 53.637,103.42 L 52.498,103.74 L 51.337,104.01 L 50.155,104.22 L 48.954,104.38 L 47.735,104.47 L 46.5,104.5 C 33.246,104.5 22.5,93.754 22.5,80.5 C 22.5,67.246 33.246,56.5 46.5,56.5 C 59.754,56.5 70.5,67.246 70.5,80.5 z "
   style="fill:#ffffff;fill-rule:nonzero;stroke:#ffffff;stroke-width:0;stroke-linecap:round;stroke-linejoin:round"
   id="path8041" />
<path
   d="M 70.5,80.5 L 70.469,81.735 L 70.376,82.954 L 70.223,84.155 L 70.012,85.337 L 69.744,86.498 L 69.421,87.637 L 69.044,88.752 L 68.614,89.841 L 68.133,90.905 L 67.603,91.939 L 67.025,92.944 L 66.401,93.918 L 65.732,94.859 L 65.019,95.766 L 64.265,96.637 L 63.47,97.47 L 62.637,98.265 L 61.766,99.019 L 60.859,99.732 L 59.918,100.4 L 58.944,101.03 L 57.939,101.6 L 56.905,102.13 L 55.841,102.61 L 54.752,103.04 L 53.637,103.42 L 52.498,103.74 L 51.337,104.01 L 50.155,104.22 L 48.954,104.38 L 47.735,104.47 L 46.5,104.5 C 33.246,104.5 22.5,93.754 22.5,80.5 C 22.5,67.246 33.246,56.5 46.5,56.5 C 59.754,56.5 70.5,67.246 70.5,80.5 z "
   style="stroke:#ffffff;stroke-width:6;stroke-linecap:round;stroke-linejoin:round"
   id="path8043" />
<line
   x1="92.5"
   y1="120.5"
   x2="92.5"
   y2="0.5"
   style="stroke:#ffffff;stroke-width:16;stroke-linecap:round"
   id="line8045" />
<line
   x1="92.5"
   y1="120.5"
   x2="92.5"
   y2="160.5"
   style="stroke:#ffffff;stroke-width:16;stroke-linecap:round"
   id="line8047" />
<path
   d="M 23.5,40.5 L 23.434,40.625 C 37.703,48.828 46.5,64.039 46.5,80.5"
   style="stroke:#ffffff;stroke-width:16;stroke-linecap:round;stroke-linejoin:round"
   id="path8049" />
<path
   d="M 46.5,80.5 L 46.5,80.5 C 46.5,96.961 37.703,112.17 23.434,120.38"
   style="stroke:#ffffff;stroke-width:16;stroke-linecap:round;stroke-linejoin:round"
   id="path8051" />
<line
   x1="92.5"
   y1="120.5"
   x2="92.5"
   y2="0.5"
   style="stroke-width:12;stroke-linecap:round"
   id="line8053" />
<line
   x1="92.5"
   y1="120.5"
   x2="92.5"
   y2="160.5"
   style="stroke-width:12;stroke-linecap:round"
   id="line8055" />
<path
   d="M 23.5,40.5 L 23.434,40.625 C 37.703,48.828 46.5,64.039 46.5,80.5"
   style="stroke-width:12;stroke-linecap:round;stroke-linejoin:round"
   id="path8057" />
<path
   d="M 46.5,80.5 L 46.5,80.5 C 46.5,96.961 37.703,112.17 23.434,120.38"
   style="stroke-width:12;stroke-linecap:round;stroke-linejoin:round"
   id="path8059" />
<path
   d="M 116.5,120.5 L 116.47,121.73 L 116.38,122.95 L 116.22,124.15 L 116.01,125.34 L 115.74,126.5 L 115.42,127.64 L 115.04,128.75 L 114.61,129.84 L 114.13,130.9 L 113.6,131.94 L 113.03,132.94 L 112.4,133.92 L 111.73,134.86 L 111.02,135.77 L 110.26,136.64 L 109.47,137.47 L 108.64,138.26 L 107.77,139.02 L 106.86,139.73 L 105.92,140.4 L 104.94,141.03 L 103.94,141.6 L 102.9,142.13 L 101.84,142.61 L 100.75,143.04 L 99.637,143.42 L 98.498,143.74 L 97.337,144.01 L 96.155,144.22 L 94.954,144.38 L 93.735,144.47 L 92.5,144.5 C 79.246,144.5 68.5,133.75 68.5,120.5 C 68.5,107.25 79.246,96.5 92.5,96.5 C 105.75,96.5 116.5,107.25 116.5,120.5 z "
   style="fill:#ffffff;fill-rule:nonzero;stroke:#ffffff;stroke-width:0;stroke-linecap:round;stroke-linejoin:round"
   id="path8061" />
<path
   d="M 116.5,120.5 L 116.47,121.73 L 116.38,122.95 L 116.22,124.15 L 116.01,125.34 L 115.74,126.5 L 115.42,127.64 L 115.04,128.75 L 114.61,129.84 L 114.13,130.9 L 113.6,131.94 L 113.03,132.94 L 112.4,133.92 L 111.73,134.86 L 111.02,135.77 L 110.26,136.64 L 109.47,137.47 L 108.64,138.26 L 107.77,139.02 L 106.86,139.73 L 105.92,140.4 L 104.94,141.03 L 103.94,141.6 L 102.9,142.13 L 101.84,142.61 L 100.75,143.04 L 99.637,143.42 L 98.498,143.74 L 97.337,144.01 L 96.155,144.22 L 94.954,144.38 L 93.735,144.47 L 92.5,144.5 C 79.246,144.5 68.5,133.75 68.5,120.5 C 68.5,107.25 79.246,96.5 92.5,96.5 C 105.75,96.5 116.5,107.25 116.5,120.5 z "
   style="stroke-width:2;stroke-linecap:round;stroke-linejoin:round"
   id="path8063" />
<path
   d="M 66.992,140.5 L 66.981,140.72 L 66.948,140.93 L 66.894,141.14 L 66.82,141.35 L 66.725,141.56 L 66.61,141.76 L 66.477,141.95 L 66.324,142.15 L 66.154,142.33 L 65.967,142.52 L 65.762,142.69 L 65.541,142.87 L 65.304,143.03 L 65.052,143.19 L 64.785,143.35 L 64.504,143.49 L 64.209,143.63 L 63.901,143.77 L 63.58,143.89 L 63.247,144.01 L 62.902,144.12 L 62.547,144.22 L 62.181,144.32 L 61.804,144.4 L 61.419,144.48 L 61.024,144.54 L 60.621,144.6 L 60.211,144.65 L 59.793,144.69 L 59.368,144.71 L 58.937,144.73 L 58.5,144.73 C 53.812,144.73 50.008,142.84 50.008,140.5 C 50.008,138.16 53.812,136.27 58.5,136.27 C 63.188,136.27 66.992,138.16 66.992,140.5 z "
   style="fill:#ffffff;fill-rule:nonzero;stroke:#ffffff;stroke-width:0;stroke-linecap:round;stroke-linejoin:round"
   id="path8065" />
<path
   d="M 66.992,140.5 L 66.981,140.72 L 66.948,140.93 L 66.894,141.14 L 66.82,141.35 L 66.725,141.56 L 66.61,141.76 L 66.477,141.95 L 66.324,142.15 L 66.154,142.33 L 65.967,142.52 L 65.762,142.69 L 65.541,142.87 L 65.304,143.03 L 65.052,143.19 L 64.785,143.35 L 64.504,143.49 L 64.209,143.63 L 63.901,143.77 L 63.58,143.89 L 63.247,144.01 L 62.902,144.12 L 62.547,144.22 L 62.181,144.32 L 61.804,144.4 L 61.419,144.48 L 61.024,144.54 L 60.621,144.6 L 60.211,144.65 L 59.793,144.69 L 59.368,144.71 L 58.937,144.73 L 58.5,144.73 C 53.812,144.73 50.008,142.84 50.008,140.5 C 50.008,138.16 53.812,136.27 58.5,136.27 C 63.188,136.27 66.992,138.16 66.992,140.5 z "
   style="stroke-width:0.84906;stroke-linecap:round;stroke-linejoin:round"
   id="path8067" />
<text
   transform="matrix(1,0,0,-1,53.191,137.85)"
   style="font-size:8px;fill:#000000;stroke:none;font-family:&quot;Helvetica&quot;, sans-serif"
   id="text8069">50</text>


<path
   d="M 70.5,80.5 L 70.469,81.735 L 70.376,82.954 L 70.223,84.155 L 70.012,85.337 L 69.744,86.498 L 69.421,87.637 L 69.044,88.752 L 68.614,89.841 L 68.133,90.905 L 67.603,91.939 L 67.025,92.944 L 66.401,93.918 L 65.732,94.859 L 65.019,95.766 L 64.265,96.637 L 63.47,97.47 L 62.637,98.265 L 61.766,99.019 L 60.859,99.732 L 59.918,100.4 L 58.944,101.03 L 57.939,101.6 L 56.905,102.13 L 55.841,102.61 L 54.752,103.04 L 53.637,103.42 L 52.498,103.74 L 51.337,104.01 L 50.155,104.22 L 48.954,104.38 L 47.735,104.47 L 46.5,104.5 C 33.246,104.5 22.5,93.754 22.5,80.5 C 22.5,67.246 33.246,56.5 46.5,56.5 C 59.754,56.5 70.5,67.246 70.5,80.5 z "
   style="fill:#ffffff;fill-rule:nonzero;stroke:#ffffff;stroke-width:0;stroke-linecap:round;stroke-linejoin:round"
   id="path8071" />
<path
   d="M 70.5,80.5 L 70.469,81.735 L 70.376,82.954 L 70.223,84.155 L 70.012,85.337 L 69.744,86.498 L 69.421,87.637 L 69.044,88.752 L 68.614,89.841 L 68.133,90.905 L 67.603,91.939 L 67.025,92.944 L 66.401,93.918 L 65.732,94.859 L 65.019,95.766 L 64.265,96.637 L 63.47,97.47 L 62.637,98.265 L 61.766,99.019 L 60.859,99.732 L 59.918,100.4 L 58.944,101.03 L 57.939,101.6 L 56.905,102.13 L 55.841,102.61 L 54.752,103.04 L 53.637,103.42 L 52.498,103.74 L 51.337,104.01 L 50.155,104.22 L 48.954,104.38 L 47.735,104.47 L 46.5,104.5 C 33.246,104.5 22.5,93.754 22.5,80.5 C 22.5,67.246 33.246,56.5 46.5,56.5 C 59.754,56.5 70.5,67.246 70.5,80.5 z "
   style="stroke-width:2;stroke-linecap:round;stroke-linejoin:round"
   id="path8073" />
<path
   d="M 66.992,20.5 L 66.981,20.718 L 66.948,20.932 L 66.894,21.144 L 66.82,21.353 L 66.725,21.557 L 66.61,21.758 L 66.477,21.955 L 66.324,22.147 L 66.154,22.335 L 65.967,22.517 L 65.762,22.694 L 65.541,22.866 L 65.304,23.032 L 65.052,23.192 L 64.785,23.346 L 64.504,23.493 L 64.209,23.633 L 63.901,23.767 L 63.58,23.892 L 63.247,24.011 L 62.902,24.121 L 62.547,24.223 L 62.181,24.316 L 61.804,24.401 L 61.419,24.477 L 61.024,24.544 L 60.621,24.601 L 60.211,24.648 L 59.793,24.686 L 59.368,24.713 L 58.937,24.729 L 58.5,24.734 C 53.812,24.734 50.008,22.836 50.008,20.5 C 50.008,18.164 53.812,16.266 58.5,16.266 C 63.188,16.266 66.992,18.164 66.992,20.5 z "
   style="fill:#ffffff;fill-rule:nonzero;stroke:#ffffff;stroke-width:0;stroke-linecap:round;stroke-linejoin:round"
   id="path8075" />
<path
   d="M 66.992,20.5 L 66.981,20.718 L 66.948,20.932 L 66.894,21.144 L 66.82,21.353 L 66.725,21.557 L 66.61,21.758 L 66.477,21.955 L 66.324,22.147 L 66.154,22.335 L 65.967,22.517 L 65.762,22.694 L 65.541,22.866 L 65.304,23.032 L 65.052,23.192 L 64.785,23.346 L 64.504,23.493 L 64.209,23.633 L 63.901,23.767 L 63.58,23.892 L 63.247,24.011 L 62.902,24.121 L 62.547,24.223 L 62.181,24.316 L 61.804,24.401 L 61.419,24.477 L 61.024,24.544 L 60.621,24.601 L 60.211,24.648 L 59.793,24.686 L 59.368,24.713 L 58.937,24.729 L 58.5,24.734 C 53.812,24.734 50.008,22.836 50.008,20.5 C 50.008,18.164 53.812,16.266 58.5,16.266 C 63.188,16.266 66.992,18.164 66.992,20.5 z "
   style="stroke-width:0.84906;stroke-linecap:round;stroke-linejoin:round"
   id="path8077" />
<text
   transform="matrix(1,0,0,-1,53.191,17.855)"
   style="font-size:8px;fill:#000000;stroke:none;font-family:&quot;Helvetica&quot;, sans-serif"
   id="text8079">50</text>


<text
   transform="matrix(1,0,0,-1,149.31,74.824)"
   style="font-size:16px;fill:#000000;stroke:none;font-family:&quot;Helvetica&quot;, sans-serif"
   id="text8081">OO</text>


<polygon
   points="46.5,160.5 138.5,160.5 184.5,80.5 138.5,0.5 46.5,0.5 0.5,80.5 46.5,160.5 "
   style="stroke-width:1;stroke-linejoin:round"
   id="polygon8083" />
</g></svg>
