<?xml version="1.0" encoding="UTF-8" standalone="no"?>
<svg
   xmlns:dc="http://purl.org/dc/elements/1.1/"
   xmlns:cc="http://web.resource.org/cc/"
   xmlns:rdf="http://www.w3.org/1999/02/22-rdf-syntax-ns#"
   xmlns:svg="http://www.w3.org/2000/svg"
   xmlns="http://www.w3.org/2000/svg"
   xmlns:sodipodi="http://inkscape.sourceforge.net/DTD/sodipodi-0.dtd"
   xmlns:inkscape="http://www.inkscape.org/namespaces/inkscape"
   width="100"
   height="100"
   viewBox="0 0 1 1"
   preserveAspectRatio="none"
   id="svg3101"
   sodipodi:version="0.32"
   inkscape:version="0.43"
   sodipodi:docname="tile128.svg"
   sodipodi:docbase="C:\Documents and Settings\lentz\Desktop\TileDesigner"
   version="1.0">
  <metadata
     id="metadata3158">
    <rdf:RDF>
      <cc:Work
         rdf:about="">
        <dc:format>image/svg+xml</dc:format>
        <dc:type
           rdf:resource="http://purl.org/dc/dcmitype/StillImage" />
      </cc:Work>
    </rdf:RDF>
  </metadata>
  <defs
     id="defs3156" />
  <sodipodi:namedview
     inkscape:window-height="540"
     inkscape:window-width="749"
     inkscape:pageshadow="2"
     inkscape:pageopacity="0.0"
     borderopacity="1.0"
     bordercolor="#666666"
     pagecolor="#ffffff"
     id="base"
     inkscape:zoom="0.52361111"
     inkscape:cx="360"
     inkscape:cy="360"
     inkscape:window-x="198"
     inkscape:window-y="198"
     inkscape:current-layer="svg3101" />
  <title
     id="title3103">SVG drawing</title>
  <desc
     id="desc3105">This was produced by version 4.1 of GNU libplot, a free library for exporting 2-D vector graphics.</desc>
  <g
     transform="matrix(5.418114e-3,0,0,-6.213736e-3,-1.175565e-3,1.000871)"
     xml:space="preserve"
     style="font-style:normal;font-variant:normal;font-weight:normal;font-stretch:normal;letter-spacing:normal;word-spacing:normal;text-anchor:start;fill:none;fill-opacity:1;stroke:#000000;stroke-linecap:butt;stroke-linejoin:miter;stroke-miterlimit:10.43299961;stroke-dasharray:none;stroke-dashoffset:0;stroke-opacity:1"
     id="g3109">
<polygon
   points="46.5,160.5 138.5,160.5 184.5,80.5 138.5,0.5 46.5,0.5 0.5,80.5 46.5,160.5 "
   style="fill:#ffff00;fill-rule:nonzero;stroke:#ffff00;stroke-width:0;stroke-linejoin:round"
   id="polygon3111" />
<text
   transform="matrix(1,0,0,-1,109.19,7.9141)"
   style="font-size:8px;fill:#000000;stroke:none;font-family:&quot;Helvetica&quot;, sans-serif"
   id="text3113">128</text>

<path
   d="M 162.5,80.5 L 162.47,81.735 L 162.38,82.954 L 162.22,84.155 L 162.01,85.337 L 161.74,86.498 L 161.42,87.637 L 161.04,88.752 L 160.61,89.841 L 160.13,90.905 L 159.6,91.939 L 159.03,92.944 L 158.4,93.918 L 157.73,94.859 L 157.02,95.766 L 156.26,96.637 L 155.47,97.47 L 154.64,98.265 L 153.77,99.019 L 152.86,99.732 L 151.92,100.4 L 150.94,101.03 L 149.94,101.6 L 148.9,102.13 L 147.84,102.61 L 146.75,103.04 L 145.64,103.42 L 144.5,103.74 L 143.34,104.01 L 142.15,104.22 L 140.95,104.38 L 139.73,104.47 L 138.5,104.5 C 125.25,104.5 114.5,93.754 114.5,80.5 C 114.5,67.246 125.25,56.5 138.5,56.5 C 151.75,56.5 162.5,67.246 162.5,80.5 z "
   style="fill:#ffffff;fill-rule:nonzero;stroke:#ffffff;stroke-width:0;stroke-linecap:round;stroke-linejoin:round"
   id="path3115" />
<path
   d="M 162.5,80.5 L 162.47,81.735 L 162.38,82.954 L 162.22,84.155 L 162.01,85.337 L 161.74,86.498 L 161.42,87.637 L 161.04,88.752 L 160.61,89.841 L 160.13,90.905 L 159.6,91.939 L 159.03,92.944 L 158.4,93.918 L 157.73,94.859 L 157.02,95.766 L 156.26,96.637 L 155.47,97.47 L 154.64,98.265 L 153.77,99.019 L 152.86,99.732 L 151.92,100.4 L 150.94,101.03 L 149.94,101.6 L 148.9,102.13 L 147.84,102.61 L 146.75,103.04 L 145.64,103.42 L 144.5,103.74 L 143.34,104.01 L 142.15,104.22 L 140.95,104.38 L 139.73,104.47 L 138.5,104.5 C 125.25,104.5 114.5,93.754 114.5,80.5 C 114.5,67.246 125.25,56.5 138.5,56.5 C 151.75,56.5 162.5,67.246 162.5,80.5 z "
   style="stroke:#ffffff;stroke-width:6;stroke-linecap:round;stroke-linejoin:round"
   id="path3117" />
<path
   d="M 70.5,80.5 L 70.469,81.735 L 70.376,82.954 L 70.223,84.155 L 70.012,85.337 L 69.744,86.498 L 69.421,87.637 L 69.044,88.752 L 68.614,89.841 L 68.133,90.905 L 67.603,91.939 L 67.025,92.944 L 66.401,93.918 L 65.732,94.859 L 65.019,95.766 L 64.265,96.637 L 63.47,97.47 L 62.637,98.265 L 61.766,99.019 L 60.859,99.732 L 59.918,100.4 L 58.944,101.03 L 57.939,101.6 L 56.905,102.13 L 55.841,102.61 L 54.752,103.04 L 53.637,103.42 L 52.498,103.74 L 51.337,104.01 L 50.155,104.22 L 48.954,104.38 L 47.735,104.47 L 46.5,104.5 C 33.246,104.5 22.5,93.754 22.5,80.5 C 22.5,67.246 33.246,56.5 46.5,56.5 C 59.754,56.5 70.5,67.246 70.5,80.5 z "
   style="fill:#ffffff;fill-rule:nonzero;stroke:#ffffff;stroke-width:0;stroke-linecap:round;stroke-linejoin:round"
   id="path3119" />
<path
   d="M 70.5,80.5 L 70.469,81.735 L 70.376,82.954 L 70.223,84.155 L 70.012,85.337 L 69.744,86.498 L 69.421,87.637 L 69.044,88.752 L 68.614,89.841 L 68.133,90.905 L 67.603,91.939 L 67.025,92.944 L 66.401,93.918 L 65.732,94.859 L 65.019,95.766 L 64.265,96.637 L 63.47,97.47 L 62.637,98.265 L 61.766,99.019 L 60.859,99.732 L 59.918,100.4 L 58.944,101.03 L 57.939,101.6 L 56.905,102.13 L 55.841,102.61 L 54.752,103.04 L 53.637,103.42 L 52.498,103.74 L 51.337,104.01 L 50.155,104.22 L 48.954,104.38 L 47.735,104.47 L 46.5,104.5 C 33.246,104.5 22.5,93.754 22.5,80.5 C 22.5,67.246 33.246,56.5 46.5,56.5 C 59.754,56.5 70.5,67.246 70.5,80.5 z "
   style="stroke:#ffffff;stroke-width:6;stroke-linecap:round;stroke-linejoin:round"
   id="path3121" />
<path
   d="M 138.5,80.5 L 138.5,80.5 C 138.5,64.039 147.3,48.828 161.57,40.625"
   style="stroke:#ffffff;stroke-width:16;stroke-linecap:round;stroke-linejoin:round"
   id="path3123" />
<path
   d="M 23.5,40.5 L 23.434,40.625 C 37.703,48.828 46.5,64.039 46.5,80.5"
   style="stroke:#ffffff;stroke-width:16;stroke-linecap:round;stroke-linejoin:round"
   id="path3125" />
<path
   d="M 138.5,80.5 L 138.5,80.5 C 138.5,64.039 147.3,48.828 161.57,40.625"
   style="stroke-width:12;stroke-linecap:round;stroke-linejoin:round"
   id="path3127" />
<path
   d="M 23.5,40.5 L 23.434,40.625 C 37.703,48.828 46.5,64.039 46.5,80.5"
   style="stroke-width:12;stroke-linecap:round;stroke-linejoin:round"
   id="path3129" />
<path
   d="M 162.5,80.5 L 162.47,81.735 L 162.38,82.954 L 162.22,84.155 L 162.01,85.337 L 161.74,86.498 L 161.42,87.637 L 161.04,88.752 L 160.61,89.841 L 160.13,90.905 L 159.6,91.939 L 159.03,92.944 L 158.4,93.918 L 157.73,94.859 L 157.02,95.766 L 156.26,96.637 L 155.47,97.47 L 154.64,98.265 L 153.77,99.019 L 152.86,99.732 L 151.92,100.4 L 150.94,101.03 L 149.94,101.6 L 148.9,102.13 L 147.84,102.61 L 146.75,103.04 L 145.64,103.42 L 144.5,103.74 L 143.34,104.01 L 142.15,104.22 L 140.95,104.38 L 139.73,104.47 L 138.5,104.5 C 125.25,104.5 114.5,93.754 114.5,80.5 C 114.5,67.246 125.25,56.5 138.5,56.5 C 151.75,56.5 162.5,67.246 162.5,80.5 z "
   style="fill:#ffffff;fill-rule:nonzero;stroke:#ffffff;stroke-width:0;stroke-linecap:round;stroke-linejoin:round"
   id="path3131" />
<path
   d="M 162.5,80.5 L 162.47,81.735 L 162.38,82.954 L 162.22,84.155 L 162.01,85.337 L 161.74,86.498 L 161.42,87.637 L 161.04,88.752 L 160.61,89.841 L 160.13,90.905 L 159.6,91.939 L 159.03,92.944 L 158.4,93.918 L 157.73,94.859 L 157.02,95.766 L 156.26,96.637 L 155.47,97.47 L 154.64,98.265 L 153.77,99.019 L 152.86,99.732 L 151.92,100.4 L 150.94,101.03 L 149.94,101.6 L 148.9,102.13 L 147.84,102.61 L 146.75,103.04 L 145.64,103.42 L 144.5,103.74 L 143.34,104.01 L 142.15,104.22 L 140.95,104.38 L 139.73,104.47 L 138.5,104.5 C 125.25,104.5 114.5,93.754 114.5,80.5 C 114.5,67.246 125.25,56.5 138.5,56.5 C 151.75,56.5 162.5,67.246 162.5,80.5 z "
   style="stroke-width:2;stroke-linecap:round;stroke-linejoin:round"
   id="path3133" />
<path
   d="M 134.99,20.5 L 134.98,20.708 L 134.95,20.913 L 134.89,21.115 L 134.82,21.314 L 134.72,21.509 L 134.61,21.701 L 134.48,21.889 L 134.32,22.072 L 134.15,22.251 L 133.97,22.425 L 133.76,22.594 L 133.54,22.758 L 133.3,22.917 L 133.05,23.069 L 132.79,23.216 L 132.5,23.356 L 132.21,23.49 L 131.9,23.617 L 131.58,23.737 L 131.25,23.849 L 130.9,23.954 L 130.55,24.052 L 130.18,24.141 L 129.8,24.222 L 129.42,24.294 L 129.02,24.357 L 128.62,24.412 L 128.21,24.457 L 127.79,24.493 L 127.37,24.518 L 126.94,24.534 L 126.5,24.539 C 121.81,24.539 118.01,22.73 118.01,20.5 C 118.01,18.27 121.81,16.461 126.5,16.461 C 131.19,16.461 134.99,18.27 134.99,20.5 z "
   style="fill:#ffffff;fill-rule:nonzero;stroke:#ffffff;stroke-width:0;stroke-linecap:round;stroke-linejoin:round"
   id="path3135" />
<path
   d="M 134.99,20.5 L 134.98,20.708 L 134.95,20.913 L 134.89,21.115 L 134.82,21.314 L 134.72,21.509 L 134.61,21.701 L 134.48,21.889 L 134.32,22.072 L 134.15,22.251 L 133.97,22.425 L 133.76,22.594 L 133.54,22.758 L 133.3,22.917 L 133.05,23.069 L 132.79,23.216 L 132.5,23.356 L 132.21,23.49 L 131.9,23.617 L 131.58,23.737 L 131.25,23.849 L 130.9,23.954 L 130.55,24.052 L 130.18,24.141 L 129.8,24.222 L 129.42,24.294 L 129.02,24.357 L 128.62,24.412 L 128.21,24.457 L 127.79,24.493 L 127.37,24.518 L 126.94,24.534 L 126.5,24.539 C 121.81,24.539 118.01,22.73 118.01,20.5 C 118.01,18.27 121.81,16.461 126.5,16.461 C 131.19,16.461 134.99,18.27 134.99,20.5 z "
   style="stroke-width:0.84906;stroke-linecap:round;stroke-linejoin:round"
   id="path3137" />
<text
   transform="matrix(1,0,0,-1,121.19,17.977)"
   style="font-size:8px;fill:#000000;stroke:none;font-family:&quot;Helvetica&quot;, sans-serif"
   id="text3139">30</text>

<path
   d="M 70.5,80.5 L 70.469,81.735 L 70.376,82.954 L 70.223,84.155 L 70.012,85.337 L 69.744,86.498 L 69.421,87.637 L 69.044,88.752 L 68.614,89.841 L 68.133,90.905 L 67.603,91.939 L 67.025,92.944 L 66.401,93.918 L 65.732,94.859 L 65.019,95.766 L 64.265,96.637 L 63.47,97.47 L 62.637,98.265 L 61.766,99.019 L 60.859,99.732 L 59.918,100.4 L 58.944,101.03 L 57.939,101.6 L 56.905,102.13 L 55.841,102.61 L 54.752,103.04 L 53.637,103.42 L 52.498,103.74 L 51.337,104.01 L 50.155,104.22 L 48.954,104.38 L 47.735,104.47 L 46.5,104.5 C 33.246,104.5 22.5,93.754 22.5,80.5 C 22.5,67.246 33.246,56.5 46.5,56.5 C 59.754,56.5 70.5,67.246 70.5,80.5 z "
   style="fill:#ffffff;fill-rule:nonzero;stroke:#ffffff;stroke-width:0;stroke-linecap:round;stroke-linejoin:round"
   id="path3141" />
<path
   d="M 70.5,80.5 L 70.469,81.735 L 70.376,82.954 L 70.223,84.155 L 70.012,85.337 L 69.744,86.498 L 69.421,87.637 L 69.044,88.752 L 68.614,89.841 L 68.133,90.905 L 67.603,91.939 L 67.025,92.944 L 66.401,93.918 L 65.732,94.859 L 65.019,95.766 L 64.265,96.637 L 63.47,97.47 L 62.637,98.265 L 61.766,99.019 L 60.859,99.732 L 59.918,100.4 L 58.944,101.03 L 57.939,101.6 L 56.905,102.13 L 55.841,102.61 L 54.752,103.04 L 53.637,103.42 L 52.498,103.74 L 51.337,104.01 L 50.155,104.22 L 48.954,104.38 L 47.735,104.47 L 46.5,104.5 C 33.246,104.5 22.5,93.754 22.5,80.5 C 22.5,67.246 33.246,56.5 46.5,56.5 C 59.754,56.5 70.5,67.246 70.5,80.5 z "
   style="stroke-width:2;stroke-linecap:round;stroke-linejoin:round"
   id="path3143" />
<path
   d="M 66.992,140.5 L 66.981,140.71 L 66.948,140.91 L 66.894,141.11 L 66.82,141.31 L 66.725,141.51 L 66.61,141.7 L 66.477,141.89 L 66.324,142.07 L 66.154,142.25 L 65.967,142.42 L 65.762,142.59 L 65.541,142.76 L 65.304,142.92 L 65.052,143.07 L 64.785,143.22 L 64.504,143.36 L 64.209,143.49 L 63.901,143.62 L 63.58,143.74 L 63.247,143.85 L 62.902,143.95 L 62.547,144.05 L 62.181,144.14 L 61.804,144.22 L 61.419,144.29 L 61.024,144.36 L 60.621,144.41 L 60.211,144.46 L 59.793,144.49 L 59.368,144.52 L 58.937,144.53 L 58.5,144.54 C 53.812,144.54 50.008,142.73 50.008,140.5 C 50.008,138.27 53.812,136.46 58.5,136.46 C 63.188,136.46 66.992,138.27 66.992,140.5 z "
   style="fill:#ffffff;fill-rule:nonzero;stroke:#ffffff;stroke-width:0;stroke-linecap:round;stroke-linejoin:round"
   id="path3145" />
<path
   d="M 66.992,140.5 L 66.981,140.71 L 66.948,140.91 L 66.894,141.11 L 66.82,141.31 L 66.725,141.51 L 66.61,141.7 L 66.477,141.89 L 66.324,142.07 L 66.154,142.25 L 65.967,142.42 L 65.762,142.59 L 65.541,142.76 L 65.304,142.92 L 65.052,143.07 L 64.785,143.22 L 64.504,143.36 L 64.209,143.49 L 63.901,143.62 L 63.58,143.74 L 63.247,143.85 L 62.902,143.95 L 62.547,144.05 L 62.181,144.14 L 61.804,144.22 L 61.419,144.29 L 61.024,144.36 L 60.621,144.41 L 60.211,144.46 L 59.793,144.49 L 59.368,144.52 L 58.937,144.53 L 58.5,144.54 C 53.812,144.54 50.008,142.73 50.008,140.5 C 50.008,138.27 53.812,136.46 58.5,136.46 C 63.188,136.46 66.992,138.27 66.992,140.5 z "
   style="stroke-width:0.84906;stroke-linecap:round;stroke-linejoin:round"
   id="path3147" />
<text
   transform="matrix(1,0,0,-1,53.191,137.98)"
   style="font-size:8px;fill:#000000;stroke:none;font-family:&quot;Helvetica&quot;, sans-serif"
   id="text3149">30</text>

<text
   transform="matrix(1,0,0,-1,52.77,14.824)"
   style="font-size:16px;fill:#000000;stroke:none;font-family:&quot;Helvetica&quot;, sans-serif"
   id="text3151">C</text>

<polygon
   points="46.5,160.5 138.5,160.5 184.5,80.5 138.5,0.5 46.5,0.5 0.5,80.5 46.5,160.5 "
   style="stroke-width:1;stroke-linejoin:round"
   id="polygon3153" />
</g></svg>
