<?xml version="1.0" encoding="UTF-8" standalone="no"?>
<svg
   xmlns:dc="http://purl.org/dc/elements/1.1/"
   xmlns:cc="http://web.resource.org/cc/"
   xmlns:rdf="http://www.w3.org/1999/02/22-rdf-syntax-ns#"
   xmlns:svg="http://www.w3.org/2000/svg"
   xmlns="http://www.w3.org/2000/svg"
   xmlns:sodipodi="http://inkscape.sourceforge.net/DTD/sodipodi-0.dtd"
   xmlns:inkscape="http://www.inkscape.org/namespaces/inkscape"
   width="100"
   height="100"
   viewBox="0 0 1 1"
   preserveAspectRatio="none"
   id="svg3703"
   sodipodi:version="0.32"
   inkscape:version="0.43"
   sodipodi:docname="tile33.svg"
   sodipodi:docbase="C:\Documents and Settings\lentz\Desktop\TileDesigner"
   version="1.0">
  <metadata
     id="metadata3778">
    <rdf:RDF>
      <cc:Work
         rdf:about="">
        <dc:format>image/svg+xml</dc:format>
        <dc:type
           rdf:resource="http://purl.org/dc/dcmitype/StillImage" />
      </cc:Work>
    </rdf:RDF>
  </metadata>
  <defs
     id="defs3776" />
  <sodipodi:namedview
     inkscape:window-height="540"
     inkscape:window-width="749"
     inkscape:pageshadow="2"
     inkscape:pageopacity="0.0"
     borderopacity="1.0"
     bordercolor="#666666"
     pagecolor="#ffffff"
     id="base"
     inkscape:zoom="0.52361111"
     inkscape:cx="360"
     inkscape:cy="360"
     inkscape:window-x="44"
     inkscape:window-y="44"
     inkscape:current-layer="svg3703" />
  <title
     id="title3705">SVG drawing</title>
  <desc
     id="desc3707">This was produced by version 4.1 of GNU libplot, a free library for exporting 2-D vector graphics.</desc>
  <g
     transform="matrix(5.418114e-3,0,0,-5.739835e-3,-1.175565e-3,0.934679)"
     xml:space="preserve"
     style="font-style:normal;font-variant:normal;font-weight:normal;font-stretch:normal;letter-spacing:normal;word-spacing:normal;text-anchor:start;fill:none;fill-opacity:1;stroke:#000000;stroke-linecap:butt;stroke-linejoin:miter;stroke-miterlimit:10.43299961;stroke-dasharray:none;stroke-dashoffset:0;stroke-opacity:1"
     id="g3711">
<polygon
   points="46.5,160.5 138.5,160.5 184.5,80.5 138.5,0.5 46.5,0.5 0.5,80.5 46.5,160.5 "
   style="fill:#b46301;fill-rule:nonzero;stroke:#b46301;stroke-width:0;stroke-linejoin:round"
   id="polygon3713" />
<text
   transform="matrix(1,0,0,-1,111.23,7.9141)"
   style="font-size:8px;fill:#000000;stroke:none;font-family:&quot;Helvetica&quot;, sans-serif"
   id="text3715">33</text>

<path
   d="M 150.5,100.5 L 150.47,101.73 L 150.38,102.95 L 150.22,104.15 L 150.01,105.34 L 149.74,106.5 L 149.42,107.64 L 149.04,108.75 L 148.61,109.84 L 148.13,110.9 L 147.6,111.94 L 147.03,112.94 L 146.4,113.92 L 145.73,114.86 L 145.02,115.77 L 144.26,116.64 L 143.47,117.47 L 142.64,118.26 L 141.77,119.02 L 140.86,119.73 L 139.92,120.4 L 138.94,121.03 L 137.94,121.6 L 136.9,122.13 L 135.84,122.61 L 134.75,123.04 L 133.64,123.42 L 132.5,123.74 L 131.34,124.01 L 130.15,124.22 L 128.95,124.38 L 127.73,124.47 L 126.5,124.5 C 113.25,124.5 102.5,113.75 102.5,100.5 C 102.5,87.246 113.25,76.5 126.5,76.5 C 139.75,76.5 150.5,87.246 150.5,100.5 z "
   style="fill:#ffffff;fill-rule:nonzero;stroke:#ffffff;stroke-width:0;stroke-linecap:round;stroke-linejoin:round"
   id="path3717" />
<path
   d="M 150.5,100.5 L 150.47,101.73 L 150.38,102.95 L 150.22,104.15 L 150.01,105.34 L 149.74,106.5 L 149.42,107.64 L 149.04,108.75 L 148.61,109.84 L 148.13,110.9 L 147.6,111.94 L 147.03,112.94 L 146.4,113.92 L 145.73,114.86 L 145.02,115.77 L 144.26,116.64 L 143.47,117.47 L 142.64,118.26 L 141.77,119.02 L 140.86,119.73 L 139.92,120.4 L 138.94,121.03 L 137.94,121.6 L 136.9,122.13 L 135.84,122.61 L 134.75,123.04 L 133.64,123.42 L 132.5,123.74 L 131.34,124.01 L 130.15,124.22 L 128.95,124.38 L 127.73,124.47 L 126.5,124.5 C 113.25,124.5 102.5,113.75 102.5,100.5 C 102.5,87.246 113.25,76.5 126.5,76.5 C 139.75,76.5 150.5,87.246 150.5,100.5 z "
   style="stroke:#ffffff;stroke-width:6;stroke-linecap:round;stroke-linejoin:round"
   id="path3719" />
<path
   d="M 116.5,40.5 L 116.47,41.735 L 116.38,42.954 L 116.22,44.155 L 116.01,45.337 L 115.74,46.498 L 115.42,47.637 L 115.04,48.752 L 114.61,49.841 L 114.13,50.905 L 113.6,51.939 L 113.03,52.944 L 112.4,53.918 L 111.73,54.859 L 111.02,55.766 L 110.26,56.637 L 109.47,57.47 L 108.64,58.265 L 107.77,59.019 L 106.86,59.732 L 105.92,60.401 L 104.94,61.025 L 103.94,61.603 L 102.9,62.133 L 101.84,62.614 L 100.75,63.044 L 99.637,63.421 L 98.498,63.744 L 97.337,64.012 L 96.155,64.223 L 94.954,64.376 L 93.735,64.469 L 92.5,64.5 C 79.246,64.5 68.5,53.754 68.5,40.5 C 68.5,27.246 79.246,16.5 92.5,16.5 C 105.75,16.5 116.5,27.246 116.5,40.5 z "
   style="fill:#ffffff;fill-rule:nonzero;stroke:#ffffff;stroke-width:0;stroke-linecap:round;stroke-linejoin:round"
   id="path3721" />
<path
   d="M 116.5,40.5 L 116.47,41.735 L 116.38,42.954 L 116.22,44.155 L 116.01,45.337 L 115.74,46.498 L 115.42,47.637 L 115.04,48.752 L 114.61,49.841 L 114.13,50.905 L 113.6,51.939 L 113.03,52.944 L 112.4,53.918 L 111.73,54.859 L 111.02,55.766 L 110.26,56.637 L 109.47,57.47 L 108.64,58.265 L 107.77,59.019 L 106.86,59.732 L 105.92,60.401 L 104.94,61.025 L 103.94,61.603 L 102.9,62.133 L 101.84,62.614 L 100.75,63.044 L 99.637,63.421 L 98.498,63.744 L 97.337,64.012 L 96.155,64.223 L 94.954,64.376 L 93.735,64.469 L 92.5,64.5 C 79.246,64.5 68.5,53.754 68.5,40.5 C 68.5,27.246 79.246,16.5 92.5,16.5 C 105.75,16.5 116.5,27.246 116.5,40.5 z "
   style="stroke:#ffffff;stroke-width:6;stroke-linecap:round;stroke-linejoin:round"
   id="path3723" />
<path
   d="M 82.5,100.5 L 82.469,101.73 L 82.376,102.95 L 82.223,104.15 L 82.012,105.34 L 81.744,106.5 L 81.421,107.64 L 81.044,108.75 L 80.614,109.84 L 80.133,110.9 L 79.603,111.94 L 79.025,112.94 L 78.401,113.92 L 77.732,114.86 L 77.019,115.77 L 76.265,116.64 L 75.47,117.47 L 74.637,118.26 L 73.766,119.02 L 72.859,119.73 L 71.918,120.4 L 70.944,121.03 L 69.939,121.6 L 68.905,122.13 L 67.841,122.61 L 66.752,123.04 L 65.637,123.42 L 64.498,123.74 L 63.337,124.01 L 62.155,124.22 L 60.954,124.38 L 59.735,124.47 L 58.5,124.5 C 45.246,124.5 34.5,113.75 34.5,100.5 C 34.5,87.246 45.246,76.5 58.5,76.5 C 71.754,76.5 82.5,87.246 82.5,100.5 z "
   style="fill:#ffffff;fill-rule:nonzero;stroke:#ffffff;stroke-width:0;stroke-linecap:round;stroke-linejoin:round"
   id="path3725" />
<path
   d="M 82.5,100.5 L 82.469,101.73 L 82.376,102.95 L 82.223,104.15 L 82.012,105.34 L 81.744,106.5 L 81.421,107.64 L 81.044,108.75 L 80.614,109.84 L 80.133,110.9 L 79.603,111.94 L 79.025,112.94 L 78.401,113.92 L 77.732,114.86 L 77.019,115.77 L 76.265,116.64 L 75.47,117.47 L 74.637,118.26 L 73.766,119.02 L 72.859,119.73 L 71.918,120.4 L 70.944,121.03 L 69.939,121.6 L 68.905,122.13 L 67.841,122.61 L 66.752,123.04 L 65.637,123.42 L 64.498,123.74 L 63.337,124.01 L 62.155,124.22 L 60.954,124.38 L 59.735,124.47 L 58.5,124.5 C 45.246,124.5 34.5,113.75 34.5,100.5 C 34.5,87.246 45.246,76.5 58.5,76.5 C 71.754,76.5 82.5,87.246 82.5,100.5 z "
   style="stroke:#ffffff;stroke-width:6;stroke-linecap:round;stroke-linejoin:round"
   id="path3727" />
<path
   d="M 161.5,40.5 L 161.57,40.625 C 147.3,48.828 138.5,64.039 138.5,80.5 L 126.5,100.5"
   style="stroke:#ffffff;stroke-width:16;stroke-linecap:round;stroke-linejoin:round"
   id="path3729" />
<line
   x1="92.5"
   y1="40.5"
   x2="92.5"
   y2="0.5"
   style="stroke:#ffffff;stroke-width:16;stroke-linecap:round"
   id="line3731" />
<path
   d="M 23.5,40.5 L 23.434,40.625 C 37.703,48.828 46.5,64.039 46.5,80.5 L 58.5,100.5"
   style="stroke:#ffffff;stroke-width:16;stroke-linecap:round;stroke-linejoin:round"
   id="path3733" />
<path
   d="M 161.5,40.5 L 161.57,40.625 C 147.3,48.828 138.5,64.039 138.5,80.5 L 126.5,100.5"
   style="stroke-width:12;stroke-linecap:round;stroke-linejoin:round"
   id="path3735" />
<line
   x1="92.5"
   y1="40.5"
   x2="92.5"
   y2="0.5"
   style="stroke-width:12;stroke-linecap:round"
   id="line3737" />
<path
   d="M 23.5,40.5 L 23.434,40.625 C 37.703,48.828 46.5,64.039 46.5,80.5 L 58.5,100.5"
   style="stroke-width:12;stroke-linecap:round;stroke-linejoin:round"
   id="path3739" />
<path
   d="M 150.5,100.5 L 150.47,101.73 L 150.38,102.95 L 150.22,104.15 L 150.01,105.34 L 149.74,106.5 L 149.42,107.64 L 149.04,108.75 L 148.61,109.84 L 148.13,110.9 L 147.6,111.94 L 147.03,112.94 L 146.4,113.92 L 145.73,114.86 L 145.02,115.77 L 144.26,116.64 L 143.47,117.47 L 142.64,118.26 L 141.77,119.02 L 140.86,119.73 L 139.92,120.4 L 138.94,121.03 L 137.94,121.6 L 136.9,122.13 L 135.84,122.61 L 134.75,123.04 L 133.64,123.42 L 132.5,123.74 L 131.34,124.01 L 130.15,124.22 L 128.95,124.38 L 127.73,124.47 L 126.5,124.5 C 113.25,124.5 102.5,113.75 102.5,100.5 C 102.5,87.246 113.25,76.5 126.5,76.5 C 139.75,76.5 150.5,87.246 150.5,100.5 z "
   style="fill:#ffffff;fill-rule:nonzero;stroke:#ffffff;stroke-width:0;stroke-linecap:round;stroke-linejoin:round"
   id="path3741" />
<path
   d="M 150.5,100.5 L 150.47,101.73 L 150.38,102.95 L 150.22,104.15 L 150.01,105.34 L 149.74,106.5 L 149.42,107.64 L 149.04,108.75 L 148.61,109.84 L 148.13,110.9 L 147.6,111.94 L 147.03,112.94 L 146.4,113.92 L 145.73,114.86 L 145.02,115.77 L 144.26,116.64 L 143.47,117.47 L 142.64,118.26 L 141.77,119.02 L 140.86,119.73 L 139.92,120.4 L 138.94,121.03 L 137.94,121.6 L 136.9,122.13 L 135.84,122.61 L 134.75,123.04 L 133.64,123.42 L 132.5,123.74 L 131.34,124.01 L 130.15,124.22 L 128.95,124.38 L 127.73,124.47 L 126.5,124.5 C 113.25,124.5 102.5,113.75 102.5,100.5 C 102.5,87.246 113.25,76.5 126.5,76.5 C 139.75,76.5 150.5,87.246 150.5,100.5 z "
   style="stroke-width:2;stroke-linecap:round;stroke-linejoin:round"
   id="path3743" />
<path
   d="M 100.99,140.5 L 100.98,140.72 L 100.95,140.93 L 100.89,141.14 L 100.82,141.35 L 100.72,141.56 L 100.61,141.76 L 100.48,141.95 L 100.32,142.15 L 100.15,142.33 L 99.967,142.52 L 99.762,142.69 L 99.541,142.87 L 99.304,143.03 L 99.052,143.19 L 98.785,143.35 L 98.504,143.49 L 98.209,143.63 L 97.901,143.77 L 97.58,143.89 L 97.247,144.01 L 96.902,144.12 L 96.547,144.22 L 96.181,144.32 L 95.804,144.4 L 95.419,144.48 L 95.024,144.54 L 94.621,144.6 L 94.211,144.65 L 93.793,144.69 L 93.368,144.71 L 92.937,144.73 L 92.5,144.73 C 87.812,144.73 84.008,142.84 84.008,140.5 C 84.008,138.16 87.812,136.27 92.5,136.27 C 97.188,136.27 100.99,138.16 100.99,140.5 z "
   style="fill:#ffffff;fill-rule:nonzero;stroke:#ffffff;stroke-width:0;stroke-linecap:round;stroke-linejoin:round"
   id="path3745" />
<path
   d="M 100.99,140.5 L 100.98,140.72 L 100.95,140.93 L 100.89,141.14 L 100.82,141.35 L 100.72,141.56 L 100.61,141.76 L 100.48,141.95 L 100.32,142.15 L 100.15,142.33 L 99.967,142.52 L 99.762,142.69 L 99.541,142.87 L 99.304,143.03 L 99.052,143.19 L 98.785,143.35 L 98.504,143.49 L 98.209,143.63 L 97.901,143.77 L 97.58,143.89 L 97.247,144.01 L 96.902,144.12 L 96.547,144.22 L 96.181,144.32 L 95.804,144.4 L 95.419,144.48 L 95.024,144.54 L 94.621,144.6 L 94.211,144.65 L 93.793,144.69 L 93.368,144.71 L 92.937,144.73 L 92.5,144.73 C 87.812,144.73 84.008,142.84 84.008,140.5 C 84.008,138.16 87.812,136.27 92.5,136.27 C 97.188,136.27 100.99,138.16 100.99,140.5 z "
   style="stroke-width:0.84906;stroke-linecap:round;stroke-linejoin:round"
   id="path3747" />
<text
   transform="matrix(1,0,0,-1,87.191,137.85)"
   style="font-size:8px;fill:#000000;stroke:none;font-family:&quot;Helvetica&quot;, sans-serif"
   id="text3749">50</text>

<path
   d="M 116.5,40.5 L 116.47,41.735 L 116.38,42.954 L 116.22,44.155 L 116.01,45.337 L 115.74,46.498 L 115.42,47.637 L 115.04,48.752 L 114.61,49.841 L 114.13,50.905 L 113.6,51.939 L 113.03,52.944 L 112.4,53.918 L 111.73,54.859 L 111.02,55.766 L 110.26,56.637 L 109.47,57.47 L 108.64,58.265 L 107.77,59.019 L 106.86,59.732 L 105.92,60.401 L 104.94,61.025 L 103.94,61.603 L 102.9,62.133 L 101.84,62.614 L 100.75,63.044 L 99.637,63.421 L 98.498,63.744 L 97.337,64.012 L 96.155,64.223 L 94.954,64.376 L 93.735,64.469 L 92.5,64.5 C 79.246,64.5 68.5,53.754 68.5,40.5 C 68.5,27.246 79.246,16.5 92.5,16.5 C 105.75,16.5 116.5,27.246 116.5,40.5 z "
   style="fill:#ffffff;fill-rule:nonzero;stroke:#ffffff;stroke-width:0;stroke-linecap:round;stroke-linejoin:round"
   id="path3751" />
<path
   d="M 116.5,40.5 L 116.47,41.735 L 116.38,42.954 L 116.22,44.155 L 116.01,45.337 L 115.74,46.498 L 115.42,47.637 L 115.04,48.752 L 114.61,49.841 L 114.13,50.905 L 113.6,51.939 L 113.03,52.944 L 112.4,53.918 L 111.73,54.859 L 111.02,55.766 L 110.26,56.637 L 109.47,57.47 L 108.64,58.265 L 107.77,59.019 L 106.86,59.732 L 105.92,60.401 L 104.94,61.025 L 103.94,61.603 L 102.9,62.133 L 101.84,62.614 L 100.75,63.044 L 99.637,63.421 L 98.498,63.744 L 97.337,64.012 L 96.155,64.223 L 94.954,64.376 L 93.735,64.469 L 92.5,64.5 C 79.246,64.5 68.5,53.754 68.5,40.5 C 68.5,27.246 79.246,16.5 92.5,16.5 C 105.75,16.5 116.5,27.246 116.5,40.5 z "
   style="stroke-width:2;stroke-linecap:round;stroke-linejoin:round"
   id="path3753" />
<path
   d="M 100.99,140.5 L 100.98,140.72 L 100.95,140.93 L 100.89,141.14 L 100.82,141.35 L 100.72,141.56 L 100.61,141.76 L 100.48,141.95 L 100.32,142.15 L 100.15,142.33 L 99.967,142.52 L 99.762,142.69 L 99.541,142.87 L 99.304,143.03 L 99.052,143.19 L 98.785,143.35 L 98.504,143.49 L 98.209,143.63 L 97.901,143.77 L 97.58,143.89 L 97.247,144.01 L 96.902,144.12 L 96.547,144.22 L 96.181,144.32 L 95.804,144.4 L 95.419,144.48 L 95.024,144.54 L 94.621,144.6 L 94.211,144.65 L 93.793,144.69 L 93.368,144.71 L 92.937,144.73 L 92.5,144.73 C 87.812,144.73 84.008,142.84 84.008,140.5 C 84.008,138.16 87.812,136.27 92.5,136.27 C 97.188,136.27 100.99,138.16 100.99,140.5 z "
   style="fill:#ffffff;fill-rule:nonzero;stroke:#ffffff;stroke-width:0;stroke-linecap:round;stroke-linejoin:round"
   id="path3755" />
<path
   d="M 100.99,140.5 L 100.98,140.72 L 100.95,140.93 L 100.89,141.14 L 100.82,141.35 L 100.72,141.56 L 100.61,141.76 L 100.48,141.95 L 100.32,142.15 L 100.15,142.33 L 99.967,142.52 L 99.762,142.69 L 99.541,142.87 L 99.304,143.03 L 99.052,143.19 L 98.785,143.35 L 98.504,143.49 L 98.209,143.63 L 97.901,143.77 L 97.58,143.89 L 97.247,144.01 L 96.902,144.12 L 96.547,144.22 L 96.181,144.32 L 95.804,144.4 L 95.419,144.48 L 95.024,144.54 L 94.621,144.6 L 94.211,144.65 L 93.793,144.69 L 93.368,144.71 L 92.937,144.73 L 92.5,144.73 C 87.812,144.73 84.008,142.84 84.008,140.5 C 84.008,138.16 87.812,136.27 92.5,136.27 C 97.188,136.27 100.99,138.16 100.99,140.5 z "
   style="stroke-width:0.84906;stroke-linecap:round;stroke-linejoin:round"
   id="path3757" />
<text
   transform="matrix(1,0,0,-1,87.191,137.85)"
   style="font-size:8px;fill:#000000;stroke:none;font-family:&quot;Helvetica&quot;, sans-serif"
   id="text3759">50</text>

<path
   d="M 82.5,100.5 L 82.469,101.73 L 82.376,102.95 L 82.223,104.15 L 82.012,105.34 L 81.744,106.5 L 81.421,107.64 L 81.044,108.75 L 80.614,109.84 L 80.133,110.9 L 79.603,111.94 L 79.025,112.94 L 78.401,113.92 L 77.732,114.86 L 77.019,115.77 L 76.265,116.64 L 75.47,117.47 L 74.637,118.26 L 73.766,119.02 L 72.859,119.73 L 71.918,120.4 L 70.944,121.03 L 69.939,121.6 L 68.905,122.13 L 67.841,122.61 L 66.752,123.04 L 65.637,123.42 L 64.498,123.74 L 63.337,124.01 L 62.155,124.22 L 60.954,124.38 L 59.735,124.47 L 58.5,124.5 C 45.246,124.5 34.5,113.75 34.5,100.5 C 34.5,87.246 45.246,76.5 58.5,76.5 C 71.754,76.5 82.5,87.246 82.5,100.5 z "
   style="fill:#ffffff;fill-rule:nonzero;stroke:#ffffff;stroke-width:0;stroke-linecap:round;stroke-linejoin:round"
   id="path3761" />
<path
   d="M 82.5,100.5 L 82.469,101.73 L 82.376,102.95 L 82.223,104.15 L 82.012,105.34 L 81.744,106.5 L 81.421,107.64 L 81.044,108.75 L 80.614,109.84 L 80.133,110.9 L 79.603,111.94 L 79.025,112.94 L 78.401,113.92 L 77.732,114.86 L 77.019,115.77 L 76.265,116.64 L 75.47,117.47 L 74.637,118.26 L 73.766,119.02 L 72.859,119.73 L 71.918,120.4 L 70.944,121.03 L 69.939,121.6 L 68.905,122.13 L 67.841,122.61 L 66.752,123.04 L 65.637,123.42 L 64.498,123.74 L 63.337,124.01 L 62.155,124.22 L 60.954,124.38 L 59.735,124.47 L 58.5,124.5 C 45.246,124.5 34.5,113.75 34.5,100.5 C 34.5,87.246 45.246,76.5 58.5,76.5 C 71.754,76.5 82.5,87.246 82.5,100.5 z "
   style="stroke-width:2;stroke-linecap:round;stroke-linejoin:round"
   id="path3763" />
<path
   d="M 100.99,140.5 L 100.98,140.72 L 100.95,140.93 L 100.89,141.14 L 100.82,141.35 L 100.72,141.56 L 100.61,141.76 L 100.48,141.95 L 100.32,142.15 L 100.15,142.33 L 99.967,142.52 L 99.762,142.69 L 99.541,142.87 L 99.304,143.03 L 99.052,143.19 L 98.785,143.35 L 98.504,143.49 L 98.209,143.63 L 97.901,143.77 L 97.58,143.89 L 97.247,144.01 L 96.902,144.12 L 96.547,144.22 L 96.181,144.32 L 95.804,144.4 L 95.419,144.48 L 95.024,144.54 L 94.621,144.6 L 94.211,144.65 L 93.793,144.69 L 93.368,144.71 L 92.937,144.73 L 92.5,144.73 C 87.812,144.73 84.008,142.84 84.008,140.5 C 84.008,138.16 87.812,136.27 92.5,136.27 C 97.188,136.27 100.99,138.16 100.99,140.5 z "
   style="fill:#ffffff;fill-rule:nonzero;stroke:#ffffff;stroke-width:0;stroke-linecap:round;stroke-linejoin:round"
   id="path3765" />
<path
   d="M 100.99,140.5 L 100.98,140.72 L 100.95,140.93 L 100.89,141.14 L 100.82,141.35 L 100.72,141.56 L 100.61,141.76 L 100.48,141.95 L 100.32,142.15 L 100.15,142.33 L 99.967,142.52 L 99.762,142.69 L 99.541,142.87 L 99.304,143.03 L 99.052,143.19 L 98.785,143.35 L 98.504,143.49 L 98.209,143.63 L 97.901,143.77 L 97.58,143.89 L 97.247,144.01 L 96.902,144.12 L 96.547,144.22 L 96.181,144.32 L 95.804,144.4 L 95.419,144.48 L 95.024,144.54 L 94.621,144.6 L 94.211,144.65 L 93.793,144.69 L 93.368,144.71 L 92.937,144.73 L 92.5,144.73 C 87.812,144.73 84.008,142.84 84.008,140.5 C 84.008,138.16 87.812,136.27 92.5,136.27 C 97.188,136.27 100.99,138.16 100.99,140.5 z "
   style="stroke-width:0.84906;stroke-linecap:round;stroke-linejoin:round"
   id="path3767" />
<text
   transform="matrix(1,0,0,-1,87.191,137.85)"
   style="font-size:8px;fill:#000000;stroke:none;font-family:&quot;Helvetica&quot;, sans-serif"
   id="text3769">50</text>

<text
   transform="matrix(1,0,0,-1,18.617,74.918)"
   style="font-size:16px;fill:#000000;stroke:none;font-family:&quot;Helvetica&quot;, sans-serif"
   id="text3771">L</text>

<polygon
   points="46.5,160.5 138.5,160.5 184.5,80.5 138.5,0.5 46.5,0.5 0.5,80.5 46.5,160.5 "
   style="stroke-width:1;stroke-linejoin:round"
   id="polygon3773" />
</g></svg>
