<?xml version="1.0" encoding="UTF-8" standalone="no"?>
<svg
   xmlns:dc="http://purl.org/dc/elements/1.1/"
   xmlns:cc="http://web.resource.org/cc/"
   xmlns:rdf="http://www.w3.org/1999/02/22-rdf-syntax-ns#"
   xmlns:svg="http://www.w3.org/2000/svg"
   xmlns="http://www.w3.org/2000/svg"
   xmlns:sodipodi="http://inkscape.sourceforge.net/DTD/sodipodi-0.dtd"
   xmlns:inkscape="http://www.inkscape.org/namespaces/inkscape"
   width="100"
   height="100"
   viewBox="0 0 1 1"
   preserveAspectRatio="none"
   id="svg7328"
   sodipodi:version="0.32"
   inkscape:version="0.43"
   sodipodi:docname="tile311.svg"
   sodipodi:docbase="C:\Documents and Settings\lentz\Desktop\TileDesigner"
   version="1.0">
  <metadata
     id="metadata7409">
    <rdf:RDF>
      <cc:Work
         rdf:about="">
        <dc:format>image/svg+xml</dc:format>
        <dc:type
           rdf:resource="http://purl.org/dc/dcmitype/StillImage" />
      </cc:Work>
    </rdf:RDF>
  </metadata>
  <defs
     id="defs7407" />
  <sodipodi:namedview
     inkscape:window-height="540"
     inkscape:window-width="749"
     inkscape:pageshadow="2"
     inkscape:pageopacity="0.0"
     borderopacity="1.0"
     bordercolor="#666666"
     pagecolor="#ffffff"
     id="base"
     inkscape:zoom="0.52361111"
     inkscape:cx="360"
     inkscape:cy="360"
     inkscape:window-x="44"
     inkscape:window-y="44"
     inkscape:current-layer="svg7328" />
  <title
     id="title7330">SVG drawing</title>
  <desc
     id="desc7332">This was produced by version 4.1 of GNU libplot, a free library for exporting 2-D vector graphics.</desc>
  <rect
     x="0"
     y="0"
     width="1"
     height="1"
     style="fill:#ffffff;stroke:none"
     id="rect7334" />
  <g
     transform="matrix(5.418114e-3,0,0,-5.739835e-3,-1.175565e-3,1.000747)"
     xml:space="preserve"
     style="font-style:normal;font-variant:normal;font-weight:normal;font-stretch:normal;letter-spacing:normal;word-spacing:normal;text-anchor:start;fill:none;fill-opacity:1;stroke:#000000;stroke-linecap:butt;stroke-linejoin:miter;stroke-miterlimit:10.43299961;stroke-dasharray:none;stroke-dashoffset:0;stroke-opacity:1"
     id="g7336">
<polygon
   points="46.5,160.5 138.5,160.5 184.5,80.5 138.5,0.5 46.5,0.5 0.5,80.5 46.5,160.5 "
   style="fill:#38ac00;fill-rule:nonzero;stroke:#38ac00;stroke-width:0;stroke-linejoin:round"
   id="polygon7338" />
<text
   transform="matrix(1,0,0,-1,109.86,7.9141)"
   style="font-size:8px;fill:#000000;stroke:none;font-family:&quot;Helvetica&quot;, sans-serif"
   id="text7340">311</text>

<path
   d="M 139.5,120.5 L 139.47,121.73 L 139.38,122.95 L 139.22,124.15 L 139.01,125.34 L 138.74,126.5 L 138.42,127.64 L 138.04,128.75 L 137.61,129.84 L 137.13,130.9 L 136.6,131.94 L 136.03,132.94 L 135.4,133.92 L 134.73,134.86 L 134.02,135.77 L 133.26,136.64 L 132.47,137.47 L 131.64,138.26 L 130.77,139.02 L 129.86,139.73 L 128.92,140.4 L 127.94,141.03 L 126.94,141.6 L 125.9,142.13 L 124.84,142.61 L 123.75,143.04 L 122.64,143.42 L 121.5,143.74 L 120.34,144.01 L 119.15,144.22 L 117.95,144.38 L 116.73,144.47 L 115.5,144.5 C 102.25,144.5 91.5,133.75 91.5,120.5 C 91.5,107.25 102.25,96.5 115.5,96.5 C 128.75,96.5 139.5,107.25 139.5,120.5 z "
   style="fill:#ffffff;fill-rule:nonzero;stroke:#ffffff;stroke-width:0;stroke-linecap:round;stroke-linejoin:round"
   id="path7342" />
<path
   d="M 139.5,120.5 L 139.47,121.73 L 139.38,122.95 L 139.22,124.15 L 139.01,125.34 L 138.74,126.5 L 138.42,127.64 L 138.04,128.75 L 137.61,129.84 L 137.13,130.9 L 136.6,131.94 L 136.03,132.94 L 135.4,133.92 L 134.73,134.86 L 134.02,135.77 L 133.26,136.64 L 132.47,137.47 L 131.64,138.26 L 130.77,139.02 L 129.86,139.73 L 128.92,140.4 L 127.94,141.03 L 126.94,141.6 L 125.9,142.13 L 124.84,142.61 L 123.75,143.04 L 122.64,143.42 L 121.5,143.74 L 120.34,144.01 L 119.15,144.22 L 117.95,144.38 L 116.73,144.47 L 115.5,144.5 C 102.25,144.5 91.5,133.75 91.5,120.5 C 91.5,107.25 102.25,96.5 115.5,96.5 C 128.75,96.5 139.5,107.25 139.5,120.5 z "
   style="stroke:#ffffff;stroke-width:6;stroke-linecap:round;stroke-linejoin:round"
   id="path7344" />
<polygon
   points="108.5,59.5 66.5,83.5 42.5,41.5 84.5,17.5 108.5,59.5 "
   style="fill:#ffffff;fill-rule:nonzero;stroke:#ffffff;stroke-width:0;stroke-linejoin:round"
   id="polygon7346" />
<polygon
   points="108.5,59.5 66.5,83.5 42.5,41.5 84.5,17.5 108.5,59.5 "
   style="stroke:#ffffff;stroke-width:6;stroke-linejoin:round"
   id="polygon7348" />
<path
   d="M 120.5,38.5 L 120.47,39.735 L 120.38,40.954 L 120.22,42.155 L 120.01,43.337 L 119.74,44.498 L 119.42,45.637 L 119.04,46.752 L 118.61,47.841 L 118.13,48.905 L 117.6,49.939 L 117.03,50.944 L 116.4,51.918 L 115.73,52.859 L 115.02,53.766 L 114.26,54.637 L 113.47,55.47 L 112.64,56.265 L 111.77,57.019 L 110.86,57.732 L 109.92,58.401 L 108.94,59.025 L 107.94,59.603 L 106.9,60.133 L 105.84,60.614 L 104.75,61.044 L 103.64,61.421 L 102.5,61.744 L 101.34,62.012 L 100.15,62.223 L 98.954,62.376 L 97.735,62.469 L 96.5,62.5 C 83.246,62.5 72.5,51.754 72.5,38.5 C 72.5,25.246 83.246,14.5 96.5,14.5 C 109.75,14.5 120.5,25.246 120.5,38.5 z "
   style="fill:#ffffff;fill-rule:nonzero;stroke:#ffffff;stroke-width:0;stroke-linecap:round;stroke-linejoin:round"
   id="path7350" />
<path
   d="M 120.5,38.5 L 120.47,39.735 L 120.38,40.954 L 120.22,42.155 L 120.01,43.337 L 119.74,44.498 L 119.42,45.637 L 119.04,46.752 L 118.61,47.841 L 118.13,48.905 L 117.6,49.939 L 117.03,50.944 L 116.4,51.918 L 115.73,52.859 L 115.02,53.766 L 114.26,54.637 L 113.47,55.47 L 112.64,56.265 L 111.77,57.019 L 110.86,57.732 L 109.92,58.401 L 108.94,59.025 L 107.94,59.603 L 106.9,60.133 L 105.84,60.614 L 104.75,61.044 L 103.64,61.421 L 102.5,61.744 L 101.34,62.012 L 100.15,62.223 L 98.954,62.376 L 97.735,62.469 L 96.5,62.5 C 83.246,62.5 72.5,51.754 72.5,38.5 C 72.5,25.246 83.246,14.5 96.5,14.5 C 109.75,14.5 120.5,25.246 120.5,38.5 z "
   style="stroke:#ffffff;stroke-width:6;stroke-linecap:round;stroke-linejoin:round"
   id="path7352" />
<path
   d="M 78.5,62.5 L 78.469,63.735 L 78.376,64.954 L 78.223,66.155 L 78.012,67.337 L 77.744,68.498 L 77.421,69.637 L 77.044,70.752 L 76.614,71.841 L 76.133,72.905 L 75.603,73.939 L 75.025,74.944 L 74.401,75.918 L 73.732,76.859 L 73.019,77.766 L 72.265,78.637 L 71.47,79.47 L 70.637,80.265 L 69.766,81.019 L 68.859,81.732 L 67.918,82.401 L 66.944,83.025 L 65.939,83.603 L 64.905,84.133 L 63.841,84.614 L 62.752,85.044 L 61.637,85.421 L 60.498,85.744 L 59.337,86.012 L 58.155,86.223 L 56.954,86.376 L 55.735,86.469 L 54.5,86.5 C 41.246,86.5 30.5,75.754 30.5,62.5 C 30.5,49.246 41.246,38.5 54.5,38.5 C 67.754,38.5 78.5,49.246 78.5,62.5 z "
   style="fill:#ffffff;fill-rule:nonzero;stroke:#ffffff;stroke-width:0;stroke-linecap:round;stroke-linejoin:round"
   id="path7354" />
<path
   d="M 78.5,62.5 L 78.469,63.735 L 78.376,64.954 L 78.223,66.155 L 78.012,67.337 L 77.744,68.498 L 77.421,69.637 L 77.044,70.752 L 76.614,71.841 L 76.133,72.905 L 75.603,73.939 L 75.025,74.944 L 74.401,75.918 L 73.732,76.859 L 73.019,77.766 L 72.265,78.637 L 71.47,79.47 L 70.637,80.265 L 69.766,81.019 L 68.859,81.732 L 67.918,82.401 L 66.944,83.025 L 65.939,83.603 L 64.905,84.133 L 63.841,84.614 L 62.752,85.044 L 61.637,85.421 L 60.498,85.744 L 59.337,86.012 L 58.155,86.223 L 56.954,86.376 L 55.735,86.469 L 54.5,86.5 C 41.246,86.5 30.5,75.754 30.5,62.5 C 30.5,49.246 41.246,38.5 54.5,38.5 C 67.754,38.5 78.5,49.246 78.5,62.5 z "
   style="stroke:#ffffff;stroke-width:6;stroke-linecap:round;stroke-linejoin:round"
   id="path7356" />
<path
   d="M 92.5,160.5 L 92.5,160.5 C 92.5,144.04 101.3,128.83 115.57,120.62"
   style="stroke:#ffffff;stroke-width:16;stroke-linecap:round;stroke-linejoin:round"
   id="path7358" />
<path
   d="M 161.5,40.5 L 161.3,40.129 C 140.37,52.164 116.64,58.5 92.5,58.5 C 88.895,58.5 85.285,58.355 81.691,58.074"
   style="stroke:#ffffff;stroke-width:16;stroke-linecap:round;stroke-linejoin:round"
   id="path7360" />
<path
   d="M 81.5,60.5 L 81.691,58.074 C 61.273,56.473 41.465,50.34 23.711,40.133"
   style="stroke:#ffffff;stroke-width:16;stroke-linecap:round;stroke-linejoin:round"
   id="path7362" />
<path
   d="M 81.5,60.5 L 79.277,59.441 C 67.25,84.91 47.711,106.09 23.297,120.13"
   style="stroke:#ffffff;stroke-width:16;stroke-linecap:round;stroke-linejoin:round"
   id="path7364" />
<path
   d="M 92.5,160.5 L 92.5,160.5 C 92.5,144.04 101.3,128.83 115.57,120.62"
   style="stroke-width:12;stroke-linecap:round;stroke-linejoin:round"
   id="path7366" />
<path
   d="M 161.5,40.5 L 161.3,40.129 C 140.37,52.164 116.64,58.5 92.5,58.5 C 88.895,58.5 85.285,58.355 81.691,58.074"
   style="stroke-width:12;stroke-linecap:round;stroke-linejoin:round"
   id="path7368" />
<path
   d="M 81.5,60.5 L 81.691,58.074 C 61.273,56.473 41.465,50.34 23.711,40.133"
   style="stroke-width:12;stroke-linecap:round;stroke-linejoin:round"
   id="path7370" />
<path
   d="M 81.5,60.5 L 79.277,59.441 C 67.25,84.91 47.711,106.09 23.297,120.13"
   style="stroke-width:12;stroke-linecap:round;stroke-linejoin:round"
   id="path7372" />
<path
   d="M 139.5,120.5 L 139.47,121.73 L 139.38,122.95 L 139.22,124.15 L 139.01,125.34 L 138.74,126.5 L 138.42,127.64 L 138.04,128.75 L 137.61,129.84 L 137.13,130.9 L 136.6,131.94 L 136.03,132.94 L 135.4,133.92 L 134.73,134.86 L 134.02,135.77 L 133.26,136.64 L 132.47,137.47 L 131.64,138.26 L 130.77,139.02 L 129.86,139.73 L 128.92,140.4 L 127.94,141.03 L 126.94,141.6 L 125.9,142.13 L 124.84,142.61 L 123.75,143.04 L 122.64,143.42 L 121.5,143.74 L 120.34,144.01 L 119.15,144.22 L 117.95,144.38 L 116.73,144.47 L 115.5,144.5 C 102.25,144.5 91.5,133.75 91.5,120.5 C 91.5,107.25 102.25,96.5 115.5,96.5 C 128.75,96.5 139.5,107.25 139.5,120.5 z "
   style="fill:#ffffff;fill-rule:nonzero;stroke:#ffffff;stroke-width:0;stroke-linecap:round;stroke-linejoin:round"
   id="path7374" />
<path
   d="M 139.5,120.5 L 139.47,121.73 L 139.38,122.95 L 139.22,124.15 L 139.01,125.34 L 138.74,126.5 L 138.42,127.64 L 138.04,128.75 L 137.61,129.84 L 137.13,130.9 L 136.6,131.94 L 136.03,132.94 L 135.4,133.92 L 134.73,134.86 L 134.02,135.77 L 133.26,136.64 L 132.47,137.47 L 131.64,138.26 L 130.77,139.02 L 129.86,139.73 L 128.92,140.4 L 127.94,141.03 L 126.94,141.6 L 125.9,142.13 L 124.84,142.61 L 123.75,143.04 L 122.64,143.42 L 121.5,143.74 L 120.34,144.01 L 119.15,144.22 L 117.95,144.38 L 116.73,144.47 L 115.5,144.5 C 102.25,144.5 91.5,133.75 91.5,120.5 C 91.5,107.25 102.25,96.5 115.5,96.5 C 128.75,96.5 139.5,107.25 139.5,120.5 z "
   style="stroke-width:2;stroke-linecap:round;stroke-linejoin:round"
   id="path7376" />
<path
   d="M 66.992,140.5 L 66.981,140.71 L 66.948,140.91 L 66.894,141.11 L 66.82,141.31 L 66.725,141.51 L 66.61,141.7 L 66.477,141.89 L 66.324,142.07 L 66.154,142.25 L 65.967,142.42 L 65.762,142.59 L 65.541,142.76 L 65.304,142.92 L 65.052,143.07 L 64.785,143.22 L 64.504,143.36 L 64.209,143.49 L 63.901,143.62 L 63.58,143.74 L 63.247,143.85 L 62.902,143.95 L 62.547,144.05 L 62.181,144.14 L 61.804,144.22 L 61.419,144.29 L 61.024,144.36 L 60.621,144.41 L 60.211,144.46 L 59.793,144.49 L 59.368,144.52 L 58.937,144.53 L 58.5,144.54 C 53.812,144.54 50.008,142.73 50.008,140.5 C 50.008,138.27 53.812,136.46 58.5,136.46 C 63.188,136.46 66.992,138.27 66.992,140.5 z "
   style="fill:#ffffff;fill-rule:nonzero;stroke:#ffffff;stroke-width:0;stroke-linecap:round;stroke-linejoin:round"
   id="path7378" />
<path
   d="M 66.992,140.5 L 66.981,140.71 L 66.948,140.91 L 66.894,141.11 L 66.82,141.31 L 66.725,141.51 L 66.61,141.7 L 66.477,141.89 L 66.324,142.07 L 66.154,142.25 L 65.967,142.42 L 65.762,142.59 L 65.541,142.76 L 65.304,142.92 L 65.052,143.07 L 64.785,143.22 L 64.504,143.36 L 64.209,143.49 L 63.901,143.62 L 63.58,143.74 L 63.247,143.85 L 62.902,143.95 L 62.547,144.05 L 62.181,144.14 L 61.804,144.22 L 61.419,144.29 L 61.024,144.36 L 60.621,144.41 L 60.211,144.46 L 59.793,144.49 L 59.368,144.52 L 58.937,144.53 L 58.5,144.54 C 53.812,144.54 50.008,142.73 50.008,140.5 C 50.008,138.27 53.812,136.46 58.5,136.46 C 63.188,136.46 66.992,138.27 66.992,140.5 z "
   style="stroke-width:0.84906;stroke-linecap:round;stroke-linejoin:round"
   id="path7380" />
<text
   transform="matrix(1,0,0,-1,53.191,137.98)"
   style="font-size:8px;fill:#000000;stroke:none;font-family:&quot;Helvetica&quot;, sans-serif"
   id="text7382">60</text>

<polygon
   points="108.5,59.5 66.5,83.5 42.5,41.5 84.5,17.5 108.5,59.5 "
   style="fill:#ffffff;fill-rule:nonzero;stroke:#ffffff;stroke-width:0;stroke-linejoin:round"
   id="polygon7384" />
<polygon
   points="108.5,59.5 66.5,83.5 42.5,41.5 84.5,17.5 108.5,59.5 "
   style="stroke-width:2;stroke-linejoin:round"
   id="polygon7386" />
<path
   d="M 120.5,38.5 L 120.47,39.735 L 120.38,40.954 L 120.22,42.155 L 120.01,43.337 L 119.74,44.498 L 119.42,45.637 L 119.04,46.752 L 118.61,47.841 L 118.13,48.905 L 117.6,49.939 L 117.03,50.944 L 116.4,51.918 L 115.73,52.859 L 115.02,53.766 L 114.26,54.637 L 113.47,55.47 L 112.64,56.265 L 111.77,57.019 L 110.86,57.732 L 109.92,58.401 L 108.94,59.025 L 107.94,59.603 L 106.9,60.133 L 105.84,60.614 L 104.75,61.044 L 103.64,61.421 L 102.5,61.744 L 101.34,62.012 L 100.15,62.223 L 98.954,62.376 L 97.735,62.469 L 96.5,62.5 C 83.246,62.5 72.5,51.754 72.5,38.5 C 72.5,25.246 83.246,14.5 96.5,14.5 C 109.75,14.5 120.5,25.246 120.5,38.5 z "
   style="fill:#ffffff;fill-rule:nonzero;stroke:#ffffff;stroke-width:0;stroke-linecap:round;stroke-linejoin:round"
   id="path7388" />
<path
   d="M 120.5,38.5 L 120.47,39.735 L 120.38,40.954 L 120.22,42.155 L 120.01,43.337 L 119.74,44.498 L 119.42,45.637 L 119.04,46.752 L 118.61,47.841 L 118.13,48.905 L 117.6,49.939 L 117.03,50.944 L 116.4,51.918 L 115.73,52.859 L 115.02,53.766 L 114.26,54.637 L 113.47,55.47 L 112.64,56.265 L 111.77,57.019 L 110.86,57.732 L 109.92,58.401 L 108.94,59.025 L 107.94,59.603 L 106.9,60.133 L 105.84,60.614 L 104.75,61.044 L 103.64,61.421 L 102.5,61.744 L 101.34,62.012 L 100.15,62.223 L 98.954,62.376 L 97.735,62.469 L 96.5,62.5 C 83.246,62.5 72.5,51.754 72.5,38.5 C 72.5,25.246 83.246,14.5 96.5,14.5 C 109.75,14.5 120.5,25.246 120.5,38.5 z "
   style="stroke-width:2;stroke-linecap:round;stroke-linejoin:round"
   id="path7390" />
<path
   d="M 78.5,62.5 L 78.469,63.735 L 78.376,64.954 L 78.223,66.155 L 78.012,67.337 L 77.744,68.498 L 77.421,69.637 L 77.044,70.752 L 76.614,71.841 L 76.133,72.905 L 75.603,73.939 L 75.025,74.944 L 74.401,75.918 L 73.732,76.859 L 73.019,77.766 L 72.265,78.637 L 71.47,79.47 L 70.637,80.265 L 69.766,81.019 L 68.859,81.732 L 67.918,82.401 L 66.944,83.025 L 65.939,83.603 L 64.905,84.133 L 63.841,84.614 L 62.752,85.044 L 61.637,85.421 L 60.498,85.744 L 59.337,86.012 L 58.155,86.223 L 56.954,86.376 L 55.735,86.469 L 54.5,86.5 C 41.246,86.5 30.5,75.754 30.5,62.5 C 30.5,49.246 41.246,38.5 54.5,38.5 C 67.754,38.5 78.5,49.246 78.5,62.5 z "
   style="fill:#ffffff;fill-rule:nonzero;stroke:#ffffff;stroke-width:0;stroke-linecap:round;stroke-linejoin:round"
   id="path7392" />
<path
   d="M 78.5,62.5 L 78.469,63.735 L 78.376,64.954 L 78.223,66.155 L 78.012,67.337 L 77.744,68.498 L 77.421,69.637 L 77.044,70.752 L 76.614,71.841 L 76.133,72.905 L 75.603,73.939 L 75.025,74.944 L 74.401,75.918 L 73.732,76.859 L 73.019,77.766 L 72.265,78.637 L 71.47,79.47 L 70.637,80.265 L 69.766,81.019 L 68.859,81.732 L 67.918,82.401 L 66.944,83.025 L 65.939,83.603 L 64.905,84.133 L 63.841,84.614 L 62.752,85.044 L 61.637,85.421 L 60.498,85.744 L 59.337,86.012 L 58.155,86.223 L 56.954,86.376 L 55.735,86.469 L 54.5,86.5 C 41.246,86.5 30.5,75.754 30.5,62.5 C 30.5,49.246 41.246,38.5 54.5,38.5 C 67.754,38.5 78.5,49.246 78.5,62.5 z "
   style="stroke-width:2;stroke-linecap:round;stroke-linejoin:round"
   id="path7394" />
<path
   d="M 66.992,140.5 L 66.981,140.71 L 66.948,140.91 L 66.894,141.11 L 66.82,141.31 L 66.725,141.51 L 66.61,141.7 L 66.477,141.89 L 66.324,142.07 L 66.154,142.25 L 65.967,142.42 L 65.762,142.59 L 65.541,142.76 L 65.304,142.92 L 65.052,143.07 L 64.785,143.22 L 64.504,143.36 L 64.209,143.49 L 63.901,143.62 L 63.58,143.74 L 63.247,143.85 L 62.902,143.95 L 62.547,144.05 L 62.181,144.14 L 61.804,144.22 L 61.419,144.29 L 61.024,144.36 L 60.621,144.41 L 60.211,144.46 L 59.793,144.49 L 59.368,144.52 L 58.937,144.53 L 58.5,144.54 C 53.812,144.54 50.008,142.73 50.008,140.5 C 50.008,138.27 53.812,136.46 58.5,136.46 C 63.188,136.46 66.992,138.27 66.992,140.5 z "
   style="fill:#ffffff;fill-rule:nonzero;stroke:#ffffff;stroke-width:0;stroke-linecap:round;stroke-linejoin:round"
   id="path7396" />
<path
   d="M 66.992,140.5 L 66.981,140.71 L 66.948,140.91 L 66.894,141.11 L 66.82,141.31 L 66.725,141.51 L 66.61,141.7 L 66.477,141.89 L 66.324,142.07 L 66.154,142.25 L 65.967,142.42 L 65.762,142.59 L 65.541,142.76 L 65.304,142.92 L 65.052,143.07 L 64.785,143.22 L 64.504,143.36 L 64.209,143.49 L 63.901,143.62 L 63.58,143.74 L 63.247,143.85 L 62.902,143.95 L 62.547,144.05 L 62.181,144.14 L 61.804,144.22 L 61.419,144.29 L 61.024,144.36 L 60.621,144.41 L 60.211,144.46 L 59.793,144.49 L 59.368,144.52 L 58.937,144.53 L 58.5,144.54 C 53.812,144.54 50.008,142.73 50.008,140.5 C 50.008,138.27 53.812,136.46 58.5,136.46 C 63.188,136.46 66.992,138.27 66.992,140.5 z "
   style="stroke-width:0.84906;stroke-linecap:round;stroke-linejoin:round"
   id="path7398" />
<text
   transform="matrix(1,0,0,-1,53.191,137.98)"
   style="font-size:8px;fill:#000000;stroke:none;font-family:&quot;Helvetica&quot;, sans-serif"
   id="text7400">60</text>

<text
   transform="matrix(1,0,0,-1,150.49,74.918)"
   style="font-size:16px;fill:#000000;stroke:none;font-family:&quot;Helvetica&quot;, sans-serif"
   id="text7402">HH</text>

<polygon
   points="46.5,160.5 138.5,160.5 184.5,80.5 138.5,0.5 46.5,0.5 0.5,80.5 46.5,160.5 "
   style="stroke-width:1;stroke-linejoin:round"
   id="polygon7404" />
</g></svg>
