<?xml version="1.0" encoding="UTF-8" standalone="no"?>
<svg
   xmlns:dc="http://purl.org/dc/elements/1.1/"
   xmlns:cc="http://web.resource.org/cc/"
   xmlns:rdf="http://www.w3.org/1999/02/22-rdf-syntax-ns#"
   xmlns:svg="http://www.w3.org/2000/svg"
   xmlns="http://www.w3.org/2000/svg"
   xmlns:sodipodi="http://sodipodi.sourceforge.net/DTD/sodipodi-0.dtd"
   xmlns:inkscape="http://www.inkscape.org/namespaces/inkscape"
   width="100"
   height="100"
   viewBox="0 0 1 1"
   preserveAspectRatio="none"
   id="svg7776"
   sodipodi:version="0.32"
   inkscape:version="0.45.1"
   sodipodi:docname="tile326.svg"
   sodipodi:docbase="C:\Documents and Settings\Brett\workspace\18xx\tiles\svg"
   version="1.0"
   inkscape:output_extension="org.inkscape.output.svg.inkscape">
  <metadata
     id="metadata7827">
    <rdf:RDF>
      <cc:Work
         rdf:about="">
        <dc:format>image/svg+xml</dc:format>
        <dc:type
           rdf:resource="http://purl.org/dc/dcmitype/StillImage" />
      </cc:Work>
    </rdf:RDF>
  </metadata>
  <defs
     id="defs7825" />
  <sodipodi:namedview
     inkscape:window-height="579"
     inkscape:window-width="749"
     inkscape:pageshadow="2"
     inkscape:pageopacity="0.0"
     borderopacity="1.0"
     bordercolor="#666666"
     pagecolor="#ffffff"
     id="base"
     inkscape:zoom="2.3285294"
     inkscape:cx="49.655173"
     inkscape:cy="31.511936"
     inkscape:window-x="66"
     inkscape:window-y="66"
     inkscape:current-layer="svg7776" />
  <title
     id="title7778">SVG drawing</title>
  <desc
     id="desc7780">This was produced by version 4.1 of GNU libplot, a free library for exporting 2-D vector graphics.</desc>
  <g
     transform="matrix(5.4170543e-3,0,0,-6.1494186e-3,-1.0775467e-3,1.0005147)"
     xml:space="preserve"
     style="font-style:normal;font-variant:normal;font-weight:normal;font-stretch:normal;letter-spacing:normal;word-spacing:normal;text-anchor:start;fill:none;fill-opacity:1;stroke:#000000;stroke-linecap:butt;stroke-linejoin:miter;stroke-miterlimit:10.43299961;stroke-dasharray:none;stroke-dashoffset:0;stroke-opacity:1"
     id="g7784">
<polygon
   points="46.5,160.5 138.5,160.5 184.5,80.5 138.5,0.5 46.5,0.5 0.5,80.5 46.5,160.5 "
   style="fill:#b46301;fill-rule:nonzero;stroke:#b46301;stroke-width:0;stroke-linejoin:round"
   id="polygon7786" />
<text
   transform="matrix(1,0,0,-1,109.19,7.9141)"
   style="font-size:8px;fill:#000000;stroke:none;font-family:&quot;Helvetica&quot;, sans-serif"
   id="text7788">326</text>


<path
   d="M 142.5,65.5 L 142.47,66.735 L 142.38,67.954 L 142.22,69.155 L 142.01,70.337 L 141.74,71.498 L 141.42,72.637 L 141.04,73.752 L 140.61,74.841 L 140.13,75.905 L 139.6,76.939 L 139.03,77.944 L 138.4,78.918 L 137.73,79.859 L 137.02,80.766 L 136.26,81.637 L 135.47,82.47 L 134.64,83.265 L 133.77,84.019 L 132.86,84.732 L 131.92,85.401 L 130.94,86.025 L 129.94,86.603 L 128.9,87.133 L 127.84,87.614 L 126.75,88.044 L 125.64,88.421 L 124.5,88.744 L 123.34,89.012 L 122.15,89.223 L 120.95,89.376 L 119.73,89.469 L 118.5,89.5 C 105.25,89.5 94.5,78.754 94.5,65.5 C 94.5,52.246 105.25,41.5 118.5,41.5 C 131.75,41.5 142.5,52.246 142.5,65.5 z "
   style="fill:#ffffff;fill-rule:nonzero;stroke:#ffffff;stroke-width:0;stroke-linecap:round;stroke-linejoin:round"
   id="path7790" />
<path
   d="M 142.5,65.5 L 142.47,66.735 L 142.38,67.954 L 142.22,69.155 L 142.01,70.337 L 141.74,71.498 L 141.42,72.637 L 141.04,73.752 L 140.61,74.841 L 140.13,75.905 L 139.6,76.939 L 139.03,77.944 L 138.4,78.918 L 137.73,79.859 L 137.02,80.766 L 136.26,81.637 L 135.47,82.47 L 134.64,83.265 L 133.77,84.019 L 132.86,84.732 L 131.92,85.401 L 130.94,86.025 L 129.94,86.603 L 128.9,87.133 L 127.84,87.614 L 126.75,88.044 L 125.64,88.421 L 124.5,88.744 L 123.34,89.012 L 122.15,89.223 L 120.95,89.376 L 119.73,89.469 L 118.5,89.5 C 105.25,89.5 94.5,78.754 94.5,65.5 C 94.5,52.246 105.25,41.5 118.5,41.5 C 131.75,41.5 142.5,52.246 142.5,65.5 z "
   style="stroke:#ffffff;stroke-width:6;stroke-linecap:round;stroke-linejoin:round"
   id="path7792" />
<path
   d="M 161.5,120.5 L 161.71,120.13 C 140.72,108.06 123.27,90.676 111.12,69.727"
   style="stroke:#ffffff;stroke-width:16;stroke-linecap:round;stroke-linejoin:round"
   id="path7794" />
<line
   x1="111.5"
   y1="69.5"
   x2="161.5"
   y2="40.5"
   style="stroke:#ffffff;stroke-width:16;stroke-linecap:round"
   id="line7796" />
<path
   d="M 111.5,69.5 L 111.12,69.727 C 98.926,48.695 92.5,24.812 92.5,0.5"
   style="stroke:#ffffff;stroke-width:16;stroke-linecap:round;stroke-linejoin:round"
   id="path7798" />
<line
   x1="111.5"
   y1="69.5"
   x2="23.5"
   y2="120.5"
   style="stroke:#ffffff;stroke-width:16;stroke-linecap:round"
   id="line7800" />
<path
   d="M 161.5,120.5 L 161.71,120.13 C 140.72,108.06 123.27,90.676 111.12,69.727"
   style="stroke-width:12;stroke-linecap:round;stroke-linejoin:round"
   id="path7802" />
<line
   x1="111.5"
   y1="69.5"
   x2="161.5"
   y2="40.5"
   style="stroke-width:12;stroke-linecap:round"
   id="line7804" />
<path
   d="M 111.5,69.5 L 111.12,69.727 C 98.926,48.695 92.5,24.812 92.5,0.5"
   style="stroke-width:12;stroke-linecap:round;stroke-linejoin:round"
   id="path7806" />
<line
   x1="111.5"
   y1="69.5"
   x2="23.5"
   y2="120.5"
   style="stroke-width:12;stroke-linecap:round"
   id="line7808" />
<path
   d="M 142.5,65.5 L 142.47,66.735 L 142.38,67.954 L 142.22,69.155 L 142.01,70.337 L 141.74,71.498 L 141.42,72.637 L 141.04,73.752 L 140.61,74.841 L 140.13,75.905 L 139.6,76.939 L 139.03,77.944 L 138.4,78.918 L 137.73,79.859 L 137.02,80.766 L 136.26,81.637 L 135.47,82.47 L 134.64,83.265 L 133.77,84.019 L 132.86,84.732 L 131.92,85.401 L 130.94,86.025 L 129.94,86.603 L 128.9,87.133 L 127.84,87.614 L 126.75,88.044 L 125.64,88.421 L 124.5,88.744 L 123.34,89.012 L 122.15,89.223 L 120.95,89.376 L 119.73,89.469 L 118.5,89.5 C 105.25,89.5 94.5,78.754 94.5,65.5 C 94.5,52.246 105.25,41.5 118.5,41.5 C 131.75,41.5 142.5,52.246 142.5,65.5 z "
   style="fill:#ffffff;fill-rule:nonzero;stroke:#ffffff;stroke-width:0;stroke-linecap:round;stroke-linejoin:round"
   id="path7810" />
<path
   d="M 142.5,65.5 L 142.47,66.735 L 142.38,67.954 L 142.22,69.155 L 142.01,70.337 L 141.74,71.498 L 141.42,72.637 L 141.04,73.752 L 140.61,74.841 L 140.13,75.905 L 139.6,76.939 L 139.03,77.944 L 138.4,78.918 L 137.73,79.859 L 137.02,80.766 L 136.26,81.637 L 135.47,82.47 L 134.64,83.265 L 133.77,84.019 L 132.86,84.732 L 131.92,85.401 L 130.94,86.025 L 129.94,86.603 L 128.9,87.133 L 127.84,87.614 L 126.75,88.044 L 125.64,88.421 L 124.5,88.744 L 123.34,89.012 L 122.15,89.223 L 120.95,89.376 L 119.73,89.469 L 118.5,89.5 C 105.25,89.5 94.5,78.754 94.5,65.5 C 94.5,52.246 105.25,41.5 118.5,41.5 C 131.75,41.5 142.5,52.246 142.5,65.5 z "
   style="stroke-width:2;stroke-linecap:round;stroke-linejoin:round"
   id="path7812" />
<path
   d="M 134.99,140.5 L 134.98,140.71 L 134.95,140.91 L 134.89,141.11 L 134.82,141.31 L 134.72,141.51 L 134.61,141.7 L 134.48,141.89 L 134.32,142.07 L 134.15,142.25 L 133.97,142.42 L 133.76,142.59 L 133.54,142.76 L 133.3,142.92 L 133.05,143.07 L 132.79,143.22 L 132.5,143.36 L 132.21,143.49 L 131.9,143.62 L 131.58,143.74 L 131.25,143.85 L 130.9,143.95 L 130.55,144.05 L 130.18,144.14 L 129.8,144.22 L 129.42,144.29 L 129.02,144.36 L 128.62,144.41 L 128.21,144.46 L 127.79,144.49 L 127.37,144.52 L 126.94,144.53 L 126.5,144.54 C 121.81,144.54 118.01,142.73 118.01,140.5 C 118.01,138.27 121.81,136.46 126.5,136.46 C 131.19,136.46 134.99,138.27 134.99,140.5 z "
   style="fill:#ffffff;fill-rule:nonzero;stroke:#ffffff;stroke-width:0;stroke-linecap:round;stroke-linejoin:round"
   id="path7814" />
<path
   d="M 134.99,140.5 L 134.98,140.71 L 134.95,140.91 L 134.89,141.11 L 134.82,141.31 L 134.72,141.51 L 134.61,141.7 L 134.48,141.89 L 134.32,142.07 L 134.15,142.25 L 133.97,142.42 L 133.76,142.59 L 133.54,142.76 L 133.3,142.92 L 133.05,143.07 L 132.79,143.22 L 132.5,143.36 L 132.21,143.49 L 131.9,143.62 L 131.58,143.74 L 131.25,143.85 L 130.9,143.95 L 130.55,144.05 L 130.18,144.14 L 129.8,144.22 L 129.42,144.29 L 129.02,144.36 L 128.62,144.41 L 128.21,144.46 L 127.79,144.49 L 127.37,144.52 L 126.94,144.53 L 126.5,144.54 C 121.81,144.54 118.01,142.73 118.01,140.5 C 118.01,138.27 121.81,136.46 126.5,136.46 C 131.19,136.46 134.99,138.27 134.99,140.5 z "
   style="stroke-width:0.84906;stroke-linecap:round;stroke-linejoin:round"
   id="path7816" />
<text
   transform="matrix(1,0,0,-1,121.19,137.98)"
   style="font-size:8px;fill:#000000;stroke:none;font-family:&quot;Helvetica&quot;, sans-serif"
   id="text7818">30</text>


<text
   transform="matrix(1,0,0,-1,52.992,14.918)"
   style="font-size:16px;fill:#000000;stroke:none;font-family:&quot;Helvetica&quot;, sans-serif"
   id="text7820">H</text>


<polygon
   points="46.5,160.5 138.5,160.5 184.5,80.5 138.5,0.5 46.5,0.5 0.5,80.5 46.5,160.5 "
   style="stroke-width:1;stroke-linejoin:round"
   id="polygon7822" />
</g></svg>
