<?xml version="1.0" encoding="UTF-8" standalone="no"?>
<svg
   xmlns:dc="http://purl.org/dc/elements/1.1/"
   xmlns:cc="http://web.resource.org/cc/"
   xmlns:rdf="http://www.w3.org/1999/02/22-rdf-syntax-ns#"
   xmlns:svg="http://www.w3.org/2000/svg"
   xmlns="http://www.w3.org/2000/svg"
   xmlns:sodipodi="http://inkscape.sourceforge.net/DTD/sodipodi-0.dtd"
   xmlns:inkscape="http://www.inkscape.org/namespaces/inkscape"
   width="100"
   height="100"
   viewBox="0 0 1 1"
   preserveAspectRatio="none"
   id="svg7247"
   sodipodi:version="0.32"
   inkscape:version="0.43"
   sodipodi:docname="tile302.svg"
   sodipodi:docbase="C:\Documents and Settings\lentz\Desktop\TileDesigner"
   version="1.0">
  <metadata
     id="metadata7326">
    <rdf:RDF>
      <cc:Work
         rdf:about="">
        <dc:format>image/svg+xml</dc:format>
        <dc:type
           rdf:resource="http://purl.org/dc/dcmitype/StillImage" />
      </cc:Work>
    </rdf:RDF>
  </metadata>
  <defs
     id="defs7324" />
  <sodipodi:namedview
     inkscape:window-height="540"
     inkscape:window-width="749"
     inkscape:pageshadow="2"
     inkscape:pageopacity="0.0"
     borderopacity="1.0"
     bordercolor="#666666"
     pagecolor="#ffffff"
     id="base"
     inkscape:zoom="0.52361111"
     inkscape:cx="360"
     inkscape:cy="360"
     inkscape:window-x="242"
     inkscape:window-y="242"
     inkscape:current-layer="svg7247" />
  <title
     id="title7249">SVG drawing</title>
  <desc
     id="desc7251">This was produced by version 4.1 of GNU libplot, a free library for exporting 2-D vector graphics.</desc>
  <rect
     x="0"
     y="0"
     width="1"
     height="1"
     style="fill:#ffffff;stroke:none"
     id="rect7253" />
  <g
     transform="matrix(5.418114e-3,0,0,-5.739835e-3,-1.175565e-3,1.000747)"
     xml:space="preserve"
     style="font-style:normal;font-variant:normal;font-weight:normal;font-stretch:normal;letter-spacing:normal;word-spacing:normal;text-anchor:start;fill:none;fill-opacity:1;stroke:#000000;stroke-linecap:butt;stroke-linejoin:miter;stroke-miterlimit:10.43299961;stroke-dasharray:none;stroke-dashoffset:0;stroke-opacity:1"
     id="g7255">
<polygon
   points="46.5,160.5 138.5,160.5 184.5,80.5 138.5,0.5 46.5,0.5 0.5,80.5 46.5,160.5 "
   style="fill:#ffff00;fill-rule:nonzero;stroke:#ffff00;stroke-width:0;stroke-linejoin:round"
   id="polygon7257" />
<text
   transform="matrix(1,0,0,-1,109.2,7.9141)"
   style="font-size:8px;fill:#000000;stroke:none;font-family:&quot;Helvetica&quot;, sans-serif"
   id="text7259">302</text>

<path
   d="M 93.5,120.5 L 93.469,121.73 L 93.376,122.95 L 93.223,124.15 L 93.012,125.34 L 92.744,126.5 L 92.421,127.64 L 92.044,128.75 L 91.614,129.84 L 91.133,130.9 L 90.603,131.94 L 90.025,132.94 L 89.401,133.92 L 88.732,134.86 L 88.019,135.77 L 87.265,136.64 L 86.47,137.47 L 85.637,138.26 L 84.766,139.02 L 83.859,139.73 L 82.918,140.4 L 81.944,141.03 L 80.939,141.6 L 79.905,142.13 L 78.841,142.61 L 77.752,143.04 L 76.637,143.42 L 75.498,143.74 L 74.337,144.01 L 73.155,144.22 L 71.954,144.38 L 70.735,144.47 L 69.5,144.5 C 56.246,144.5 45.5,133.75 45.5,120.5 C 45.5,107.25 56.246,96.5 69.5,96.5 C 82.754,96.5 93.5,107.25 93.5,120.5 z "
   style="fill:#ffffff;fill-rule:nonzero;stroke:#ffffff;stroke-width:0;stroke-linecap:round;stroke-linejoin:round"
   id="path7261" />
<path
   d="M 93.5,120.5 L 93.469,121.73 L 93.376,122.95 L 93.223,124.15 L 93.012,125.34 L 92.744,126.5 L 92.421,127.64 L 92.044,128.75 L 91.614,129.84 L 91.133,130.9 L 90.603,131.94 L 90.025,132.94 L 89.401,133.92 L 88.732,134.86 L 88.019,135.77 L 87.265,136.64 L 86.47,137.47 L 85.637,138.26 L 84.766,139.02 L 83.859,139.73 L 82.918,140.4 L 81.944,141.03 L 80.939,141.6 L 79.905,142.13 L 78.841,142.61 L 77.752,143.04 L 76.637,143.42 L 75.498,143.74 L 74.337,144.01 L 73.155,144.22 L 71.954,144.38 L 70.735,144.47 L 69.5,144.5 C 56.246,144.5 45.5,133.75 45.5,120.5 C 45.5,107.25 56.246,96.5 69.5,96.5 C 82.754,96.5 93.5,107.25 93.5,120.5 z "
   style="stroke:#ffffff;stroke-width:6;stroke-linecap:round;stroke-linejoin:round"
   id="path7263" />
<path
   d="M 162.5,80.5 L 162.47,81.735 L 162.38,82.954 L 162.22,84.155 L 162.01,85.337 L 161.74,86.498 L 161.42,87.637 L 161.04,88.752 L 160.61,89.841 L 160.13,90.905 L 159.6,91.939 L 159.03,92.944 L 158.4,93.918 L 157.73,94.859 L 157.02,95.766 L 156.26,96.637 L 155.47,97.47 L 154.64,98.265 L 153.77,99.019 L 152.86,99.732 L 151.92,100.4 L 150.94,101.03 L 149.94,101.6 L 148.9,102.13 L 147.84,102.61 L 146.75,103.04 L 145.64,103.42 L 144.5,103.74 L 143.34,104.01 L 142.15,104.22 L 140.95,104.38 L 139.73,104.47 L 138.5,104.5 C 125.25,104.5 114.5,93.754 114.5,80.5 C 114.5,67.246 125.25,56.5 138.5,56.5 C 151.75,56.5 162.5,67.246 162.5,80.5 z "
   style="fill:#ffffff;fill-rule:nonzero;stroke:#ffffff;stroke-width:0;stroke-linecap:round;stroke-linejoin:round"
   id="path7265" />
<path
   d="M 162.5,80.5 L 162.47,81.735 L 162.38,82.954 L 162.22,84.155 L 162.01,85.337 L 161.74,86.498 L 161.42,87.637 L 161.04,88.752 L 160.61,89.841 L 160.13,90.905 L 159.6,91.939 L 159.03,92.944 L 158.4,93.918 L 157.73,94.859 L 157.02,95.766 L 156.26,96.637 L 155.47,97.47 L 154.64,98.265 L 153.77,99.019 L 152.86,99.732 L 151.92,100.4 L 150.94,101.03 L 149.94,101.6 L 148.9,102.13 L 147.84,102.61 L 146.75,103.04 L 145.64,103.42 L 144.5,103.74 L 143.34,104.01 L 142.15,104.22 L 140.95,104.38 L 139.73,104.47 L 138.5,104.5 C 125.25,104.5 114.5,93.754 114.5,80.5 C 114.5,67.246 125.25,56.5 138.5,56.5 C 151.75,56.5 162.5,67.246 162.5,80.5 z "
   style="stroke:#ffffff;stroke-width:6;stroke-linecap:round;stroke-linejoin:round"
   id="path7267" />
<path
   d="M 93.5,40.5 L 93.469,41.735 L 93.376,42.954 L 93.223,44.155 L 93.012,45.337 L 92.744,46.498 L 92.421,47.637 L 92.044,48.752 L 91.614,49.841 L 91.133,50.905 L 90.603,51.939 L 90.025,52.944 L 89.401,53.918 L 88.732,54.859 L 88.019,55.766 L 87.265,56.637 L 86.47,57.47 L 85.637,58.265 L 84.766,59.019 L 83.859,59.732 L 82.918,60.401 L 81.944,61.025 L 80.939,61.603 L 79.905,62.133 L 78.841,62.614 L 77.752,63.044 L 76.637,63.421 L 75.498,63.744 L 74.337,64.012 L 73.155,64.223 L 71.954,64.376 L 70.735,64.469 L 69.5,64.5 C 56.246,64.5 45.5,53.754 45.5,40.5 C 45.5,27.246 56.246,16.5 69.5,16.5 C 82.754,16.5 93.5,27.246 93.5,40.5 z "
   style="fill:#ffffff;fill-rule:nonzero;stroke:#ffffff;stroke-width:0;stroke-linecap:round;stroke-linejoin:round"
   id="path7269" />
<path
   d="M 93.5,40.5 L 93.469,41.735 L 93.376,42.954 L 93.223,44.155 L 93.012,45.337 L 92.744,46.498 L 92.421,47.637 L 92.044,48.752 L 91.614,49.841 L 91.133,50.905 L 90.603,51.939 L 90.025,52.944 L 89.401,53.918 L 88.732,54.859 L 88.019,55.766 L 87.265,56.637 L 86.47,57.47 L 85.637,58.265 L 84.766,59.019 L 83.859,59.732 L 82.918,60.401 L 81.944,61.025 L 80.939,61.603 L 79.905,62.133 L 78.841,62.614 L 77.752,63.044 L 76.637,63.421 L 75.498,63.744 L 74.337,64.012 L 73.155,64.223 L 71.954,64.376 L 70.735,64.469 L 69.5,64.5 C 56.246,64.5 45.5,53.754 45.5,40.5 C 45.5,27.246 56.246,16.5 69.5,16.5 C 82.754,16.5 93.5,27.246 93.5,40.5 z "
   style="stroke:#ffffff;stroke-width:6;stroke-linecap:round;stroke-linejoin:round"
   id="path7271" />
<path
   d="M 69.5,120.5 L 69.434,120.62 C 83.703,128.83 92.5,144.04 92.5,160.5"
   style="stroke:#ffffff;stroke-width:16;stroke-linecap:round;stroke-linejoin:round"
   id="path7273" />
<path
   d="M 23.5,120.5 L 23.57,120.62 C 30.547,116.61 38.457,114.5 46.5,114.5 C 54.547,114.5 62.457,116.61 69.434,120.62"
   style="stroke:#ffffff;stroke-width:16;stroke-linecap:round;stroke-linejoin:round"
   id="path7275" />
<path
   d="M 138.5,80.5 L 138.5,80.5 C 138.5,64.039 147.3,48.828 161.57,40.625"
   style="stroke:#ffffff;stroke-width:16;stroke-linecap:round;stroke-linejoin:round"
   id="path7277" />
<path
   d="M 69.5,40.5 L 69.434,40.375 C 62.457,44.387 54.547,46.5 46.5,46.5 C 38.457,46.5 30.547,44.387 23.57,40.379"
   style="stroke:#ffffff;stroke-width:16;stroke-linecap:round;stroke-linejoin:round"
   id="path7279" />
<path
   d="M 69.5,120.5 L 69.434,120.62 C 83.703,128.83 92.5,144.04 92.5,160.5"
   style="stroke-width:12;stroke-linecap:round;stroke-linejoin:round"
   id="path7281" />
<path
   d="M 23.5,120.5 L 23.57,120.62 C 30.547,116.61 38.457,114.5 46.5,114.5 C 54.547,114.5 62.457,116.61 69.434,120.62"
   style="stroke-width:12;stroke-linecap:round;stroke-linejoin:round"
   id="path7283" />
<path
   d="M 138.5,80.5 L 138.5,80.5 C 138.5,64.039 147.3,48.828 161.57,40.625"
   style="stroke-width:12;stroke-linecap:round;stroke-linejoin:round"
   id="path7285" />
<path
   d="M 69.5,40.5 L 69.434,40.375 C 62.457,44.387 54.547,46.5 46.5,46.5 C 38.457,46.5 30.547,44.387 23.57,40.379"
   style="stroke-width:12;stroke-linecap:round;stroke-linejoin:round"
   id="path7287" />
<path
   d="M 93.5,120.5 L 93.469,121.73 L 93.376,122.95 L 93.223,124.15 L 93.012,125.34 L 92.744,126.5 L 92.421,127.64 L 92.044,128.75 L 91.614,129.84 L 91.133,130.9 L 90.603,131.94 L 90.025,132.94 L 89.401,133.92 L 88.732,134.86 L 88.019,135.77 L 87.265,136.64 L 86.47,137.47 L 85.637,138.26 L 84.766,139.02 L 83.859,139.73 L 82.918,140.4 L 81.944,141.03 L 80.939,141.6 L 79.905,142.13 L 78.841,142.61 L 77.752,143.04 L 76.637,143.42 L 75.498,143.74 L 74.337,144.01 L 73.155,144.22 L 71.954,144.38 L 70.735,144.47 L 69.5,144.5 C 56.246,144.5 45.5,133.75 45.5,120.5 C 45.5,107.25 56.246,96.5 69.5,96.5 C 82.754,96.5 93.5,107.25 93.5,120.5 z "
   style="fill:#ffffff;fill-rule:nonzero;stroke:#ffffff;stroke-width:0;stroke-linecap:round;stroke-linejoin:round"
   id="path7289" />
<path
   d="M 93.5,120.5 L 93.469,121.73 L 93.376,122.95 L 93.223,124.15 L 93.012,125.34 L 92.744,126.5 L 92.421,127.64 L 92.044,128.75 L 91.614,129.84 L 91.133,130.9 L 90.603,131.94 L 90.025,132.94 L 89.401,133.92 L 88.732,134.86 L 88.019,135.77 L 87.265,136.64 L 86.47,137.47 L 85.637,138.26 L 84.766,139.02 L 83.859,139.73 L 82.918,140.4 L 81.944,141.03 L 80.939,141.6 L 79.905,142.13 L 78.841,142.61 L 77.752,143.04 L 76.637,143.42 L 75.498,143.74 L 74.337,144.01 L 73.155,144.22 L 71.954,144.38 L 70.735,144.47 L 69.5,144.5 C 56.246,144.5 45.5,133.75 45.5,120.5 C 45.5,107.25 56.246,96.5 69.5,96.5 C 82.754,96.5 93.5,107.25 93.5,120.5 z "
   style="stroke-width:2;stroke-linecap:round;stroke-linejoin:round"
   id="path7291" />
<path
   d="M 31.992,80.5 L 31.981,80.718 L 31.948,80.932 L 31.894,81.144 L 31.82,81.353 L 31.725,81.557 L 31.61,81.758 L 31.477,81.955 L 31.324,82.147 L 31.154,82.335 L 30.967,82.517 L 30.762,82.694 L 30.541,82.866 L 30.304,83.032 L 30.052,83.192 L 29.785,83.346 L 29.504,83.493 L 29.209,83.633 L 28.901,83.767 L 28.58,83.892 L 28.247,84.011 L 27.902,84.121 L 27.547,84.223 L 27.181,84.316 L 26.804,84.401 L 26.419,84.477 L 26.024,84.544 L 25.621,84.601 L 25.211,84.648 L 24.793,84.686 L 24.368,84.713 L 23.937,84.729 L 23.5,84.734 C 18.812,84.734 15.008,82.836 15.008,80.5 C 15.008,78.164 18.812,76.266 23.5,76.266 C 28.188,76.266 31.992,78.164 31.992,80.5 z "
   style="fill:#ffffff;fill-rule:nonzero;stroke:#ffffff;stroke-width:0;stroke-linecap:round;stroke-linejoin:round"
   id="path7293" />
<path
   d="M 31.992,80.5 L 31.981,80.718 L 31.948,80.932 L 31.894,81.144 L 31.82,81.353 L 31.725,81.557 L 31.61,81.758 L 31.477,81.955 L 31.324,82.147 L 31.154,82.335 L 30.967,82.517 L 30.762,82.694 L 30.541,82.866 L 30.304,83.032 L 30.052,83.192 L 29.785,83.346 L 29.504,83.493 L 29.209,83.633 L 28.901,83.767 L 28.58,83.892 L 28.247,84.011 L 27.902,84.121 L 27.547,84.223 L 27.181,84.316 L 26.804,84.401 L 26.419,84.477 L 26.024,84.544 L 25.621,84.601 L 25.211,84.648 L 24.793,84.686 L 24.368,84.713 L 23.937,84.729 L 23.5,84.734 C 18.812,84.734 15.008,82.836 15.008,80.5 C 15.008,78.164 18.812,76.266 23.5,76.266 C 28.188,76.266 31.992,78.164 31.992,80.5 z "
   style="stroke-width:0.84906;stroke-linecap:round;stroke-linejoin:round"
   id="path7295" />
<text
   transform="matrix(1,0,0,-1,18.191,77.855)"
   style="font-size:8px;fill:#000000;stroke:none;font-family:&quot;Helvetica&quot;, sans-serif"
   id="text7297">50</text>

<path
   d="M 162.5,80.5 L 162.47,81.735 L 162.38,82.954 L 162.22,84.155 L 162.01,85.337 L 161.74,86.498 L 161.42,87.637 L 161.04,88.752 L 160.61,89.841 L 160.13,90.905 L 159.6,91.939 L 159.03,92.944 L 158.4,93.918 L 157.73,94.859 L 157.02,95.766 L 156.26,96.637 L 155.47,97.47 L 154.64,98.265 L 153.77,99.019 L 152.86,99.732 L 151.92,100.4 L 150.94,101.03 L 149.94,101.6 L 148.9,102.13 L 147.84,102.61 L 146.75,103.04 L 145.64,103.42 L 144.5,103.74 L 143.34,104.01 L 142.15,104.22 L 140.95,104.38 L 139.73,104.47 L 138.5,104.5 C 125.25,104.5 114.5,93.754 114.5,80.5 C 114.5,67.246 125.25,56.5 138.5,56.5 C 151.75,56.5 162.5,67.246 162.5,80.5 z "
   style="fill:#ffffff;fill-rule:nonzero;stroke:#ffffff;stroke-width:0;stroke-linecap:round;stroke-linejoin:round"
   id="path7299" />
<path
   d="M 162.5,80.5 L 162.47,81.735 L 162.38,82.954 L 162.22,84.155 L 162.01,85.337 L 161.74,86.498 L 161.42,87.637 L 161.04,88.752 L 160.61,89.841 L 160.13,90.905 L 159.6,91.939 L 159.03,92.944 L 158.4,93.918 L 157.73,94.859 L 157.02,95.766 L 156.26,96.637 L 155.47,97.47 L 154.64,98.265 L 153.77,99.019 L 152.86,99.732 L 151.92,100.4 L 150.94,101.03 L 149.94,101.6 L 148.9,102.13 L 147.84,102.61 L 146.75,103.04 L 145.64,103.42 L 144.5,103.74 L 143.34,104.01 L 142.15,104.22 L 140.95,104.38 L 139.73,104.47 L 138.5,104.5 C 125.25,104.5 114.5,93.754 114.5,80.5 C 114.5,67.246 125.25,56.5 138.5,56.5 C 151.75,56.5 162.5,67.246 162.5,80.5 z "
   style="stroke-width:2;stroke-linecap:round;stroke-linejoin:round"
   id="path7301" />
<path
   d="M 31.992,80.5 L 31.981,80.718 L 31.948,80.932 L 31.894,81.144 L 31.82,81.353 L 31.725,81.557 L 31.61,81.758 L 31.477,81.955 L 31.324,82.147 L 31.154,82.335 L 30.967,82.517 L 30.762,82.694 L 30.541,82.866 L 30.304,83.032 L 30.052,83.192 L 29.785,83.346 L 29.504,83.493 L 29.209,83.633 L 28.901,83.767 L 28.58,83.892 L 28.247,84.011 L 27.902,84.121 L 27.547,84.223 L 27.181,84.316 L 26.804,84.401 L 26.419,84.477 L 26.024,84.544 L 25.621,84.601 L 25.211,84.648 L 24.793,84.686 L 24.368,84.713 L 23.937,84.729 L 23.5,84.734 C 18.812,84.734 15.008,82.836 15.008,80.5 C 15.008,78.164 18.812,76.266 23.5,76.266 C 28.188,76.266 31.992,78.164 31.992,80.5 z "
   style="fill:#ffffff;fill-rule:nonzero;stroke:#ffffff;stroke-width:0;stroke-linecap:round;stroke-linejoin:round"
   id="path7303" />
<path
   d="M 31.992,80.5 L 31.981,80.718 L 31.948,80.932 L 31.894,81.144 L 31.82,81.353 L 31.725,81.557 L 31.61,81.758 L 31.477,81.955 L 31.324,82.147 L 31.154,82.335 L 30.967,82.517 L 30.762,82.694 L 30.541,82.866 L 30.304,83.032 L 30.052,83.192 L 29.785,83.346 L 29.504,83.493 L 29.209,83.633 L 28.901,83.767 L 28.58,83.892 L 28.247,84.011 L 27.902,84.121 L 27.547,84.223 L 27.181,84.316 L 26.804,84.401 L 26.419,84.477 L 26.024,84.544 L 25.621,84.601 L 25.211,84.648 L 24.793,84.686 L 24.368,84.713 L 23.937,84.729 L 23.5,84.734 C 18.812,84.734 15.008,82.836 15.008,80.5 C 15.008,78.164 18.812,76.266 23.5,76.266 C 28.188,76.266 31.992,78.164 31.992,80.5 z "
   style="stroke-width:0.84906;stroke-linecap:round;stroke-linejoin:round"
   id="path7305" />
<text
   transform="matrix(1,0,0,-1,18.191,77.855)"
   style="font-size:8px;fill:#000000;stroke:none;font-family:&quot;Helvetica&quot;, sans-serif"
   id="text7307">50</text>

<path
   d="M 93.5,40.5 L 93.469,41.735 L 93.376,42.954 L 93.223,44.155 L 93.012,45.337 L 92.744,46.498 L 92.421,47.637 L 92.044,48.752 L 91.614,49.841 L 91.133,50.905 L 90.603,51.939 L 90.025,52.944 L 89.401,53.918 L 88.732,54.859 L 88.019,55.766 L 87.265,56.637 L 86.47,57.47 L 85.637,58.265 L 84.766,59.019 L 83.859,59.732 L 82.918,60.401 L 81.944,61.025 L 80.939,61.603 L 79.905,62.133 L 78.841,62.614 L 77.752,63.044 L 76.637,63.421 L 75.498,63.744 L 74.337,64.012 L 73.155,64.223 L 71.954,64.376 L 70.735,64.469 L 69.5,64.5 C 56.246,64.5 45.5,53.754 45.5,40.5 C 45.5,27.246 56.246,16.5 69.5,16.5 C 82.754,16.5 93.5,27.246 93.5,40.5 z "
   style="fill:#ffffff;fill-rule:nonzero;stroke:#ffffff;stroke-width:0;stroke-linecap:round;stroke-linejoin:round"
   id="path7309" />
<path
   d="M 93.5,40.5 L 93.469,41.735 L 93.376,42.954 L 93.223,44.155 L 93.012,45.337 L 92.744,46.498 L 92.421,47.637 L 92.044,48.752 L 91.614,49.841 L 91.133,50.905 L 90.603,51.939 L 90.025,52.944 L 89.401,53.918 L 88.732,54.859 L 88.019,55.766 L 87.265,56.637 L 86.47,57.47 L 85.637,58.265 L 84.766,59.019 L 83.859,59.732 L 82.918,60.401 L 81.944,61.025 L 80.939,61.603 L 79.905,62.133 L 78.841,62.614 L 77.752,63.044 L 76.637,63.421 L 75.498,63.744 L 74.337,64.012 L 73.155,64.223 L 71.954,64.376 L 70.735,64.469 L 69.5,64.5 C 56.246,64.5 45.5,53.754 45.5,40.5 C 45.5,27.246 56.246,16.5 69.5,16.5 C 82.754,16.5 93.5,27.246 93.5,40.5 z "
   style="stroke-width:2;stroke-linecap:round;stroke-linejoin:round"
   id="path7311" />
<path
   d="M 31.992,80.5 L 31.981,80.718 L 31.948,80.932 L 31.894,81.144 L 31.82,81.353 L 31.725,81.557 L 31.61,81.758 L 31.477,81.955 L 31.324,82.147 L 31.154,82.335 L 30.967,82.517 L 30.762,82.694 L 30.541,82.866 L 30.304,83.032 L 30.052,83.192 L 29.785,83.346 L 29.504,83.493 L 29.209,83.633 L 28.901,83.767 L 28.58,83.892 L 28.247,84.011 L 27.902,84.121 L 27.547,84.223 L 27.181,84.316 L 26.804,84.401 L 26.419,84.477 L 26.024,84.544 L 25.621,84.601 L 25.211,84.648 L 24.793,84.686 L 24.368,84.713 L 23.937,84.729 L 23.5,84.734 C 18.812,84.734 15.008,82.836 15.008,80.5 C 15.008,78.164 18.812,76.266 23.5,76.266 C 28.188,76.266 31.992,78.164 31.992,80.5 z "
   style="fill:#ffffff;fill-rule:nonzero;stroke:#ffffff;stroke-width:0;stroke-linecap:round;stroke-linejoin:round"
   id="path7313" />
<path
   d="M 31.992,80.5 L 31.981,80.718 L 31.948,80.932 L 31.894,81.144 L 31.82,81.353 L 31.725,81.557 L 31.61,81.758 L 31.477,81.955 L 31.324,82.147 L 31.154,82.335 L 30.967,82.517 L 30.762,82.694 L 30.541,82.866 L 30.304,83.032 L 30.052,83.192 L 29.785,83.346 L 29.504,83.493 L 29.209,83.633 L 28.901,83.767 L 28.58,83.892 L 28.247,84.011 L 27.902,84.121 L 27.547,84.223 L 27.181,84.316 L 26.804,84.401 L 26.419,84.477 L 26.024,84.544 L 25.621,84.601 L 25.211,84.648 L 24.793,84.686 L 24.368,84.713 L 23.937,84.729 L 23.5,84.734 C 18.812,84.734 15.008,82.836 15.008,80.5 C 15.008,78.164 18.812,76.266 23.5,76.266 C 28.188,76.266 31.992,78.164 31.992,80.5 z "
   style="stroke-width:0.84906;stroke-linecap:round;stroke-linejoin:round"
   id="path7315" />
<text
   transform="matrix(1,0,0,-1,18.191,77.855)"
   style="font-size:8px;fill:#000000;stroke:none;font-family:&quot;Helvetica&quot;, sans-serif"
   id="text7317">50</text>

<text
   transform="matrix(1,0,0,-1,115.49,14.918)"
   style="font-size:16px;fill:#000000;stroke:none;font-family:&quot;Helvetica&quot;, sans-serif"
   id="text7319">HH</text>

<polygon
   points="46.5,160.5 138.5,160.5 184.5,80.5 138.5,0.5 46.5,0.5 0.5,80.5 46.5,160.5 "
   style="stroke-width:1;stroke-linejoin:round"
   id="polygon7321" />
</g></svg>
