<?xml version="1.0" encoding="UTF-8" standalone="no"?>
<svg
   xmlns:dc="http://purl.org/dc/elements/1.1/"
   xmlns:cc="http://web.resource.org/cc/"
   xmlns:rdf="http://www.w3.org/1999/02/22-rdf-syntax-ns#"
   xmlns:svg="http://www.w3.org/2000/svg"
   xmlns="http://www.w3.org/2000/svg"
   xmlns:sodipodi="http://sodipodi.sourceforge.net/DTD/sodipodi-0.dtd"
   xmlns:inkscape="http://www.inkscape.org/namespaces/inkscape"
   width="100"
   height="100"
   viewBox="0 0 1 1"
   preserveAspectRatio="none"
   id="svg9425"
   sodipodi:version="0.32"
   inkscape:version="0.45.1"
   sodipodi:docname="tile391.svg"
   sodipodi:docbase="C:\Documents and Settings\Brett\workspace\18xx\tiles\svg"
   version="1.0"
   inkscape:output_extension="org.inkscape.output.svg.inkscape">
  <metadata
     id="metadata9500">
    <rdf:RDF>
      <cc:Work
         rdf:about="">
        <dc:format>image/svg+xml</dc:format>
        <dc:type
           rdf:resource="http://purl.org/dc/dcmitype/StillImage" />
      </cc:Work>
    </rdf:RDF>
  </metadata>
  <defs
     id="defs9498" />
  <sodipodi:namedview
     inkscape:window-height="579"
     inkscape:window-width="749"
     inkscape:pageshadow="2"
     inkscape:pageopacity="0.0"
     borderopacity="1.0"
     bordercolor="#666666"
     pagecolor="#ffffff"
     id="base"
     inkscape:zoom="2.9763158"
     inkscape:cx="63.672768"
     inkscape:cy="53.147409"
     inkscape:window-x="22"
     inkscape:window-y="22"
     inkscape:current-layer="svg9425" />
  <title
     id="title9427">SVG drawing</title>
  <desc
     id="desc9429">This was produced by version 4.1 of GNU libplot, a free library for exporting 2-D vector graphics.</desc>
  <g
     transform="matrix(5.4169248e-3,0,0,-6.2004687e-3,-1.0655629e-3,1.0008679)"
     xml:space="preserve"
     style="font-style:normal;font-variant:normal;font-weight:normal;font-stretch:normal;letter-spacing:normal;word-spacing:normal;text-anchor:start;fill:none;fill-opacity:1;stroke:#000000;stroke-linecap:butt;stroke-linejoin:miter;stroke-miterlimit:10.43299961;stroke-dasharray:none;stroke-dashoffset:0;stroke-opacity:1"
     id="g9433">
<polygon
   points="46.5,160.5 138.5,160.5 184.5,80.5 138.5,0.5 46.5,0.5 0.5,80.5 46.5,160.5 "
   style="fill:#ffff00;fill-rule:nonzero;stroke:#ffff00;stroke-width:0;stroke-linejoin:round"
   id="polygon9435" />
<text
   transform="matrix(1,0,0,-1,109.86,7.9141)"
   style="font-size:8px;fill:#000000;stroke:none;font-family:&quot;Helvetica&quot;, sans-serif"
   id="text9437">391</text>


<path
   d="M 150.5,60.5 L 150.47,61.735 L 150.38,62.954 L 150.22,64.155 L 150.01,65.337 L 149.74,66.498 L 149.42,67.637 L 149.04,68.752 L 148.61,69.841 L 148.13,70.905 L 147.6,71.939 L 147.03,72.944 L 146.4,73.918 L 145.73,74.859 L 145.02,75.766 L 144.26,76.637 L 143.47,77.47 L 142.64,78.265 L 141.77,79.019 L 140.86,79.732 L 139.92,80.401 L 138.94,81.025 L 137.94,81.603 L 136.9,82.133 L 135.84,82.614 L 134.75,83.044 L 133.64,83.421 L 132.5,83.744 L 131.34,84.012 L 130.15,84.223 L 128.95,84.376 L 127.73,84.469 L 126.5,84.5 C 113.25,84.5 102.5,73.754 102.5,60.5 C 102.5,47.246 113.25,36.5 126.5,36.5 C 139.75,36.5 150.5,47.246 150.5,60.5 z "
   style="fill:#ffffff;fill-rule:nonzero;stroke:#ffffff;stroke-width:0;stroke-linecap:round;stroke-linejoin:round"
   id="path9439" />
<path
   d="M 150.5,60.5 L 150.47,61.735 L 150.38,62.954 L 150.22,64.155 L 150.01,65.337 L 149.74,66.498 L 149.42,67.637 L 149.04,68.752 L 148.61,69.841 L 148.13,70.905 L 147.6,71.939 L 147.03,72.944 L 146.4,73.918 L 145.73,74.859 L 145.02,75.766 L 144.26,76.637 L 143.47,77.47 L 142.64,78.265 L 141.77,79.019 L 140.86,79.732 L 139.92,80.401 L 138.94,81.025 L 137.94,81.603 L 136.9,82.133 L 135.84,82.614 L 134.75,83.044 L 133.64,83.421 L 132.5,83.744 L 131.34,84.012 L 130.15,84.223 L 128.95,84.376 L 127.73,84.469 L 126.5,84.5 C 113.25,84.5 102.5,73.754 102.5,60.5 C 102.5,47.246 113.25,36.5 126.5,36.5 C 139.75,36.5 150.5,47.246 150.5,60.5 z "
   style="stroke:#ffffff;stroke-width:6;stroke-linecap:round;stroke-linejoin:round"
   id="path9441" />
<path
   d="M 116.5,120.5 L 116.47,121.73 L 116.38,122.95 L 116.22,124.15 L 116.01,125.34 L 115.74,126.5 L 115.42,127.64 L 115.04,128.75 L 114.61,129.84 L 114.13,130.9 L 113.6,131.94 L 113.03,132.94 L 112.4,133.92 L 111.73,134.86 L 111.02,135.77 L 110.26,136.64 L 109.47,137.47 L 108.64,138.26 L 107.77,139.02 L 106.86,139.73 L 105.92,140.4 L 104.94,141.03 L 103.94,141.6 L 102.9,142.13 L 101.84,142.61 L 100.75,143.04 L 99.637,143.42 L 98.498,143.74 L 97.337,144.01 L 96.155,144.22 L 94.954,144.38 L 93.735,144.47 L 92.5,144.5 C 79.246,144.5 68.5,133.75 68.5,120.5 C 68.5,107.25 79.246,96.5 92.5,96.5 C 105.75,96.5 116.5,107.25 116.5,120.5 z "
   style="fill:#ffffff;fill-rule:nonzero;stroke:#ffffff;stroke-width:0;stroke-linecap:round;stroke-linejoin:round"
   id="path9443" />
<path
   d="M 116.5,120.5 L 116.47,121.73 L 116.38,122.95 L 116.22,124.15 L 116.01,125.34 L 115.74,126.5 L 115.42,127.64 L 115.04,128.75 L 114.61,129.84 L 114.13,130.9 L 113.6,131.94 L 113.03,132.94 L 112.4,133.92 L 111.73,134.86 L 111.02,135.77 L 110.26,136.64 L 109.47,137.47 L 108.64,138.26 L 107.77,139.02 L 106.86,139.73 L 105.92,140.4 L 104.94,141.03 L 103.94,141.6 L 102.9,142.13 L 101.84,142.61 L 100.75,143.04 L 99.637,143.42 L 98.498,143.74 L 97.337,144.01 L 96.155,144.22 L 94.954,144.38 L 93.735,144.47 L 92.5,144.5 C 79.246,144.5 68.5,133.75 68.5,120.5 C 68.5,107.25 79.246,96.5 92.5,96.5 C 105.75,96.5 116.5,107.25 116.5,120.5 z "
   style="stroke:#ffffff;stroke-width:6;stroke-linecap:round;stroke-linejoin:round"
   id="path9445" />
<path
   d="M 82.5,60.5 L 82.469,61.735 L 82.376,62.954 L 82.223,64.155 L 82.012,65.337 L 81.744,66.498 L 81.421,67.637 L 81.044,68.752 L 80.614,69.841 L 80.133,70.905 L 79.603,71.939 L 79.025,72.944 L 78.401,73.918 L 77.732,74.859 L 77.019,75.766 L 76.265,76.637 L 75.47,77.47 L 74.637,78.265 L 73.766,79.019 L 72.859,79.732 L 71.918,80.401 L 70.944,81.025 L 69.939,81.603 L 68.905,82.133 L 67.841,82.614 L 66.752,83.044 L 65.637,83.421 L 64.498,83.744 L 63.337,84.012 L 62.155,84.223 L 60.954,84.376 L 59.735,84.469 L 58.5,84.5 C 45.246,84.5 34.5,73.754 34.5,60.5 C 34.5,47.246 45.246,36.5 58.5,36.5 C 71.754,36.5 82.5,47.246 82.5,60.5 z "
   style="fill:#ffffff;fill-rule:nonzero;stroke:#ffffff;stroke-width:0;stroke-linecap:round;stroke-linejoin:round"
   id="path9447" />
<path
   d="M 82.5,60.5 L 82.469,61.735 L 82.376,62.954 L 82.223,64.155 L 82.012,65.337 L 81.744,66.498 L 81.421,67.637 L 81.044,68.752 L 80.614,69.841 L 80.133,70.905 L 79.603,71.939 L 79.025,72.944 L 78.401,73.918 L 77.732,74.859 L 77.019,75.766 L 76.265,76.637 L 75.47,77.47 L 74.637,78.265 L 73.766,79.019 L 72.859,79.732 L 71.918,80.401 L 70.944,81.025 L 69.939,81.603 L 68.905,82.133 L 67.841,82.614 L 66.752,83.044 L 65.637,83.421 L 64.498,83.744 L 63.337,84.012 L 62.155,84.223 L 60.954,84.376 L 59.735,84.469 L 58.5,84.5 C 45.246,84.5 34.5,73.754 34.5,60.5 C 34.5,47.246 45.246,36.5 58.5,36.5 C 71.754,36.5 82.5,47.246 82.5,60.5 z "
   style="stroke:#ffffff;stroke-width:6;stroke-linecap:round;stroke-linejoin:round"
   id="path9449" />
<line
   x1="126.5"
   y1="60.5"
   x2="161.5"
   y2="40.5"
   style="stroke:#ffffff;stroke-width:16;stroke-linecap:round"
   id="line9451" />
<line
   x1="92.5"
   y1="120.5"
   x2="92.5"
   y2="160.5"
   style="stroke:#ffffff;stroke-width:16;stroke-linecap:round"
   id="line9453" />
<line
   x1="58.5"
   y1="60.5"
   x2="23.5"
   y2="40.5"
   style="stroke:#ffffff;stroke-width:16;stroke-linecap:round"
   id="line9455" />
<line
   x1="126.5"
   y1="60.5"
   x2="161.5"
   y2="40.5"
   style="stroke-width:12;stroke-linecap:round"
   id="line9457" />
<line
   x1="92.5"
   y1="120.5"
   x2="92.5"
   y2="160.5"
   style="stroke-width:12;stroke-linecap:round"
   id="line9459" />
<line
   x1="58.5"
   y1="60.5"
   x2="23.5"
   y2="40.5"
   style="stroke-width:12;stroke-linecap:round"
   id="line9461" />
<path
   d="M 150.5,60.5 L 150.47,61.735 L 150.38,62.954 L 150.22,64.155 L 150.01,65.337 L 149.74,66.498 L 149.42,67.637 L 149.04,68.752 L 148.61,69.841 L 148.13,70.905 L 147.6,71.939 L 147.03,72.944 L 146.4,73.918 L 145.73,74.859 L 145.02,75.766 L 144.26,76.637 L 143.47,77.47 L 142.64,78.265 L 141.77,79.019 L 140.86,79.732 L 139.92,80.401 L 138.94,81.025 L 137.94,81.603 L 136.9,82.133 L 135.84,82.614 L 134.75,83.044 L 133.64,83.421 L 132.5,83.744 L 131.34,84.012 L 130.15,84.223 L 128.95,84.376 L 127.73,84.469 L 126.5,84.5 C 113.25,84.5 102.5,73.754 102.5,60.5 C 102.5,47.246 113.25,36.5 126.5,36.5 C 139.75,36.5 150.5,47.246 150.5,60.5 z "
   style="fill:#ffffff;fill-rule:nonzero;stroke:#ffffff;stroke-width:0;stroke-linecap:round;stroke-linejoin:round"
   id="path9463" />
<path
   d="M 150.5,60.5 L 150.47,61.735 L 150.38,62.954 L 150.22,64.155 L 150.01,65.337 L 149.74,66.498 L 149.42,67.637 L 149.04,68.752 L 148.61,69.841 L 148.13,70.905 L 147.6,71.939 L 147.03,72.944 L 146.4,73.918 L 145.73,74.859 L 145.02,75.766 L 144.26,76.637 L 143.47,77.47 L 142.64,78.265 L 141.77,79.019 L 140.86,79.732 L 139.92,80.401 L 138.94,81.025 L 137.94,81.603 L 136.9,82.133 L 135.84,82.614 L 134.75,83.044 L 133.64,83.421 L 132.5,83.744 L 131.34,84.012 L 130.15,84.223 L 128.95,84.376 L 127.73,84.469 L 126.5,84.5 C 113.25,84.5 102.5,73.754 102.5,60.5 C 102.5,47.246 113.25,36.5 126.5,36.5 C 139.75,36.5 150.5,47.246 150.5,60.5 z "
   style="stroke-width:2;stroke-linecap:round;stroke-linejoin:round"
   id="path9465" />
<path
   d="M 49.992,110.5 L 49.981,110.71 L 49.948,110.91 L 49.894,111.11 L 49.82,111.31 L 49.725,111.51 L 49.61,111.7 L 49.477,111.89 L 49.324,112.07 L 49.154,112.25 L 48.967,112.42 L 48.762,112.59 L 48.541,112.76 L 48.304,112.92 L 48.052,113.07 L 47.785,113.22 L 47.504,113.36 L 47.209,113.49 L 46.901,113.62 L 46.58,113.74 L 46.247,113.85 L 45.902,113.95 L 45.547,114.05 L 45.181,114.14 L 44.804,114.22 L 44.419,114.29 L 44.024,114.36 L 43.621,114.41 L 43.211,114.46 L 42.793,114.49 L 42.368,114.52 L 41.937,114.53 L 41.5,114.54 C 36.812,114.54 33.008,112.73 33.008,110.5 C 33.008,108.27 36.812,106.46 41.5,106.46 C 46.188,106.46 49.992,108.27 49.992,110.5 z "
   style="fill:#ffffff;fill-rule:nonzero;stroke:#ffffff;stroke-width:0;stroke-linecap:round;stroke-linejoin:round"
   id="path9467" />
<path
   d="M 49.992,110.5 L 49.981,110.71 L 49.948,110.91 L 49.894,111.11 L 49.82,111.31 L 49.725,111.51 L 49.61,111.7 L 49.477,111.89 L 49.324,112.07 L 49.154,112.25 L 48.967,112.42 L 48.762,112.59 L 48.541,112.76 L 48.304,112.92 L 48.052,113.07 L 47.785,113.22 L 47.504,113.36 L 47.209,113.49 L 46.901,113.62 L 46.58,113.74 L 46.247,113.85 L 45.902,113.95 L 45.547,114.05 L 45.181,114.14 L 44.804,114.22 L 44.419,114.29 L 44.024,114.36 L 43.621,114.41 L 43.211,114.46 L 42.793,114.49 L 42.368,114.52 L 41.937,114.53 L 41.5,114.54 C 36.812,114.54 33.008,112.73 33.008,110.5 C 33.008,108.27 36.812,106.46 41.5,106.46 C 46.188,106.46 49.992,108.27 49.992,110.5 z "
   style="stroke-width:0.84906;stroke-linecap:round;stroke-linejoin:round"
   id="path9469" />
<text
   transform="matrix(1,0,0,-1,36.191,107.98)"
   style="font-size:8px;fill:#000000;stroke:none;font-family:&quot;Helvetica&quot;, sans-serif"
   id="text9471">30</text>


<path
   d="M 116.5,120.5 L 116.47,121.73 L 116.38,122.95 L 116.22,124.15 L 116.01,125.34 L 115.74,126.5 L 115.42,127.64 L 115.04,128.75 L 114.61,129.84 L 114.13,130.9 L 113.6,131.94 L 113.03,132.94 L 112.4,133.92 L 111.73,134.86 L 111.02,135.77 L 110.26,136.64 L 109.47,137.47 L 108.64,138.26 L 107.77,139.02 L 106.86,139.73 L 105.92,140.4 L 104.94,141.03 L 103.94,141.6 L 102.9,142.13 L 101.84,142.61 L 100.75,143.04 L 99.637,143.42 L 98.498,143.74 L 97.337,144.01 L 96.155,144.22 L 94.954,144.38 L 93.735,144.47 L 92.5,144.5 C 79.246,144.5 68.5,133.75 68.5,120.5 C 68.5,107.25 79.246,96.5 92.5,96.5 C 105.75,96.5 116.5,107.25 116.5,120.5 z "
   style="fill:#ffffff;fill-rule:nonzero;stroke:#ffffff;stroke-width:0;stroke-linecap:round;stroke-linejoin:round"
   id="path9473" />
<path
   d="M 116.5,120.5 L 116.47,121.73 L 116.38,122.95 L 116.22,124.15 L 116.01,125.34 L 115.74,126.5 L 115.42,127.64 L 115.04,128.75 L 114.61,129.84 L 114.13,130.9 L 113.6,131.94 L 113.03,132.94 L 112.4,133.92 L 111.73,134.86 L 111.02,135.77 L 110.26,136.64 L 109.47,137.47 L 108.64,138.26 L 107.77,139.02 L 106.86,139.73 L 105.92,140.4 L 104.94,141.03 L 103.94,141.6 L 102.9,142.13 L 101.84,142.61 L 100.75,143.04 L 99.637,143.42 L 98.498,143.74 L 97.337,144.01 L 96.155,144.22 L 94.954,144.38 L 93.735,144.47 L 92.5,144.5 C 79.246,144.5 68.5,133.75 68.5,120.5 C 68.5,107.25 79.246,96.5 92.5,96.5 C 105.75,96.5 116.5,107.25 116.5,120.5 z "
   style="stroke-width:2;stroke-linecap:round;stroke-linejoin:round"
   id="path9475" />
<path
   d="M 49.992,110.5 L 49.981,110.71 L 49.948,110.91 L 49.894,111.11 L 49.82,111.31 L 49.725,111.51 L 49.61,111.7 L 49.477,111.89 L 49.324,112.07 L 49.154,112.25 L 48.967,112.42 L 48.762,112.59 L 48.541,112.76 L 48.304,112.92 L 48.052,113.07 L 47.785,113.22 L 47.504,113.36 L 47.209,113.49 L 46.901,113.62 L 46.58,113.74 L 46.247,113.85 L 45.902,113.95 L 45.547,114.05 L 45.181,114.14 L 44.804,114.22 L 44.419,114.29 L 44.024,114.36 L 43.621,114.41 L 43.211,114.46 L 42.793,114.49 L 42.368,114.52 L 41.937,114.53 L 41.5,114.54 C 36.812,114.54 33.008,112.73 33.008,110.5 C 33.008,108.27 36.812,106.46 41.5,106.46 C 46.188,106.46 49.992,108.27 49.992,110.5 z "
   style="fill:#ffffff;fill-rule:nonzero;stroke:#ffffff;stroke-width:0;stroke-linecap:round;stroke-linejoin:round"
   id="path9477" />
<path
   d="M 49.992,110.5 L 49.981,110.71 L 49.948,110.91 L 49.894,111.11 L 49.82,111.31 L 49.725,111.51 L 49.61,111.7 L 49.477,111.89 L 49.324,112.07 L 49.154,112.25 L 48.967,112.42 L 48.762,112.59 L 48.541,112.76 L 48.304,112.92 L 48.052,113.07 L 47.785,113.22 L 47.504,113.36 L 47.209,113.49 L 46.901,113.62 L 46.58,113.74 L 46.247,113.85 L 45.902,113.95 L 45.547,114.05 L 45.181,114.14 L 44.804,114.22 L 44.419,114.29 L 44.024,114.36 L 43.621,114.41 L 43.211,114.46 L 42.793,114.49 L 42.368,114.52 L 41.937,114.53 L 41.5,114.54 C 36.812,114.54 33.008,112.73 33.008,110.5 C 33.008,108.27 36.812,106.46 41.5,106.46 C 46.188,106.46 49.992,108.27 49.992,110.5 z "
   style="stroke-width:0.84906;stroke-linecap:round;stroke-linejoin:round"
   id="path9479" />
<text
   transform="matrix(1,0,0,-1,36.191,107.98)"
   style="font-size:8px;fill:#000000;stroke:none;font-family:&quot;Helvetica&quot;, sans-serif"
   id="text9481">30</text>


<path
   d="M 82.5,60.5 L 82.469,61.735 L 82.376,62.954 L 82.223,64.155 L 82.012,65.337 L 81.744,66.498 L 81.421,67.637 L 81.044,68.752 L 80.614,69.841 L 80.133,70.905 L 79.603,71.939 L 79.025,72.944 L 78.401,73.918 L 77.732,74.859 L 77.019,75.766 L 76.265,76.637 L 75.47,77.47 L 74.637,78.265 L 73.766,79.019 L 72.859,79.732 L 71.918,80.401 L 70.944,81.025 L 69.939,81.603 L 68.905,82.133 L 67.841,82.614 L 66.752,83.044 L 65.637,83.421 L 64.498,83.744 L 63.337,84.012 L 62.155,84.223 L 60.954,84.376 L 59.735,84.469 L 58.5,84.5 C 45.246,84.5 34.5,73.754 34.5,60.5 C 34.5,47.246 45.246,36.5 58.5,36.5 C 71.754,36.5 82.5,47.246 82.5,60.5 z "
   style="fill:#ffffff;fill-rule:nonzero;stroke:#ffffff;stroke-width:0;stroke-linecap:round;stroke-linejoin:round"
   id="path9483" />
<path
   d="M 82.5,60.5 L 82.469,61.735 L 82.376,62.954 L 82.223,64.155 L 82.012,65.337 L 81.744,66.498 L 81.421,67.637 L 81.044,68.752 L 80.614,69.841 L 80.133,70.905 L 79.603,71.939 L 79.025,72.944 L 78.401,73.918 L 77.732,74.859 L 77.019,75.766 L 76.265,76.637 L 75.47,77.47 L 74.637,78.265 L 73.766,79.019 L 72.859,79.732 L 71.918,80.401 L 70.944,81.025 L 69.939,81.603 L 68.905,82.133 L 67.841,82.614 L 66.752,83.044 L 65.637,83.421 L 64.498,83.744 L 63.337,84.012 L 62.155,84.223 L 60.954,84.376 L 59.735,84.469 L 58.5,84.5 C 45.246,84.5 34.5,73.754 34.5,60.5 C 34.5,47.246 45.246,36.5 58.5,36.5 C 71.754,36.5 82.5,47.246 82.5,60.5 z "
   style="stroke-width:2;stroke-linecap:round;stroke-linejoin:round"
   id="path9485" />
<path
   d="M 49.992,110.5 L 49.981,110.71 L 49.948,110.91 L 49.894,111.11 L 49.82,111.31 L 49.725,111.51 L 49.61,111.7 L 49.477,111.89 L 49.324,112.07 L 49.154,112.25 L 48.967,112.42 L 48.762,112.59 L 48.541,112.76 L 48.304,112.92 L 48.052,113.07 L 47.785,113.22 L 47.504,113.36 L 47.209,113.49 L 46.901,113.62 L 46.58,113.74 L 46.247,113.85 L 45.902,113.95 L 45.547,114.05 L 45.181,114.14 L 44.804,114.22 L 44.419,114.29 L 44.024,114.36 L 43.621,114.41 L 43.211,114.46 L 42.793,114.49 L 42.368,114.52 L 41.937,114.53 L 41.5,114.54 C 36.812,114.54 33.008,112.73 33.008,110.5 C 33.008,108.27 36.812,106.46 41.5,106.46 C 46.188,106.46 49.992,108.27 49.992,110.5 z "
   style="fill:#ffffff;fill-rule:nonzero;stroke:#ffffff;stroke-width:0;stroke-linecap:round;stroke-linejoin:round"
   id="path9487" />
<path
   d="M 49.992,110.5 L 49.981,110.71 L 49.948,110.91 L 49.894,111.11 L 49.82,111.31 L 49.725,111.51 L 49.61,111.7 L 49.477,111.89 L 49.324,112.07 L 49.154,112.25 L 48.967,112.42 L 48.762,112.59 L 48.541,112.76 L 48.304,112.92 L 48.052,113.07 L 47.785,113.22 L 47.504,113.36 L 47.209,113.49 L 46.901,113.62 L 46.58,113.74 L 46.247,113.85 L 45.902,113.95 L 45.547,114.05 L 45.181,114.14 L 44.804,114.22 L 44.419,114.29 L 44.024,114.36 L 43.621,114.41 L 43.211,114.46 L 42.793,114.49 L 42.368,114.52 L 41.937,114.53 L 41.5,114.54 C 36.812,114.54 33.008,112.73 33.008,110.5 C 33.008,108.27 36.812,106.46 41.5,106.46 C 46.188,106.46 49.992,108.27 49.992,110.5 z "
   style="stroke-width:0.84906;stroke-linecap:round;stroke-linejoin:round"
   id="path9489" />
<text
   transform="matrix(1,0,0,-1,36.191,107.98)"
   style="font-size:8px;fill:#000000;stroke:none;font-family:&quot;Helvetica&quot;, sans-serif"
   id="text9491">30</text>


<text
   transform="matrix(1,0,0,-1,133.59,104.92)"
   style="font-size:16px;fill:#000000;stroke:none;font-family:&quot;Helvetica&quot;, sans-serif"
   id="text9493">Atl</text>


<polygon
   points="46.5,160.5 138.5,160.5 184.5,80.5 138.5,0.5 46.5,0.5 0.5,80.5 46.5,160.5 "
   style="stroke-width:1;stroke-linejoin:round"
   id="polygon9495" />
</g></svg>
