<?xml version="1.0" encoding="UTF-8" standalone="no"?>
<svg
   xmlns:dc="http://purl.org/dc/elements/1.1/"
   xmlns:cc="http://web.resource.org/cc/"
   xmlns:rdf="http://www.w3.org/1999/02/22-rdf-syntax-ns#"
   xmlns:svg="http://www.w3.org/2000/svg"
   xmlns="http://www.w3.org/2000/svg"
   xmlns:sodipodi="http://sodipodi.sourceforge.net/DTD/sodipodi-0.dtd"
   xmlns:inkscape="http://www.inkscape.org/namespaces/inkscape"
   width="100"
   height="100"
   viewBox="0 0 1 1"
   preserveAspectRatio="none"
   id="svg8132"
   sodipodi:version="0.32"
   inkscape:version="0.45.1"
   sodipodi:docname="tile356.svg"
   sodipodi:docbase="C:\Documents and Settings\Brett\workspace\18xx\tiles\svg"
   version="1.0"
   inkscape:output_extension="org.inkscape.output.svg.inkscape">
  <metadata
     id="metadata8181">
    <rdf:RDF>
      <cc:Work
         rdf:about="">
        <dc:format>image/svg+xml</dc:format>
        <dc:type
           rdf:resource="http://purl.org/dc/dcmitype/StillImage" />
      </cc:Work>
    </rdf:RDF>
  </metadata>
  <defs
     id="defs8179" />
  <sodipodi:namedview
     inkscape:window-height="579"
     inkscape:window-width="749"
     inkscape:pageshadow="2"
     inkscape:pageopacity="0.0"
     borderopacity="1.0"
     bordercolor="#666666"
     pagecolor="#ffffff"
     id="base"
     inkscape:zoom="2.8684783"
     inkscape:cx="81.167109"
     inkscape:cy="54.429708"
     inkscape:window-x="88"
     inkscape:window-y="88"
     inkscape:current-layer="svg8132" />
  <title
     id="title8134">SVG drawing</title>
  <desc
     id="desc8136">This was produced by version 4.1 of GNU libplot, a free library for exporting 2-D vector graphics.</desc>
  <g
     transform="matrix(5.4169336e-3,0,0,-6.1970051e-3,-1.0663744e-3,1.000867)"
     xml:space="preserve"
     style="font-style:normal;font-variant:normal;font-weight:normal;font-stretch:normal;letter-spacing:normal;word-spacing:normal;text-anchor:start;fill:none;fill-opacity:1;stroke:#000000;stroke-linecap:butt;stroke-linejoin:miter;stroke-miterlimit:10.43299961;stroke-dasharray:none;stroke-dashoffset:0;stroke-opacity:1"
     id="g8140">
<polygon
   points="46.5,160.5 138.5,160.5 184.5,80.5 138.5,0.5 46.5,0.5 0.5,80.5 46.5,160.5 "
   style="fill:#38ac00;fill-rule:nonzero;stroke:#38ac00;stroke-width:0;stroke-linejoin:round"
   id="polygon8142" />
<text
   transform="matrix(1,0,0,-1,109.19,7.9141)"
   style="font-size:8px;fill:#000000;stroke:none;font-family:&quot;Helvetica&quot;, sans-serif"
   id="text8144">356</text>


<path
   d="M 116.5,80.5 L 116.47,81.735 L 116.38,82.954 L 116.22,84.155 L 116.01,85.337 L 115.74,86.498 L 115.42,87.637 L 115.04,88.752 L 114.61,89.841 L 114.13,90.905 L 113.6,91.939 L 113.03,92.944 L 112.4,93.918 L 111.73,94.859 L 111.02,95.766 L 110.26,96.637 L 109.47,97.47 L 108.64,98.265 L 107.77,99.019 L 106.86,99.732 L 105.92,100.4 L 104.94,101.03 L 103.94,101.6 L 102.9,102.13 L 101.84,102.61 L 100.75,103.04 L 99.637,103.42 L 98.498,103.74 L 97.337,104.01 L 96.155,104.22 L 94.954,104.38 L 93.735,104.47 L 92.5,104.5 C 79.246,104.5 68.5,93.754 68.5,80.5 C 68.5,67.246 79.246,56.5 92.5,56.5 C 105.75,56.5 116.5,67.246 116.5,80.5 z "
   style="fill:#ffffff;fill-rule:nonzero;stroke:#ffffff;stroke-width:0;stroke-linecap:round;stroke-linejoin:round"
   id="path8146" />
<path
   d="M 116.5,80.5 L 116.47,81.735 L 116.38,82.954 L 116.22,84.155 L 116.01,85.337 L 115.74,86.498 L 115.42,87.637 L 115.04,88.752 L 114.61,89.841 L 114.13,90.905 L 113.6,91.939 L 113.03,92.944 L 112.4,93.918 L 111.73,94.859 L 111.02,95.766 L 110.26,96.637 L 109.47,97.47 L 108.64,98.265 L 107.77,99.019 L 106.86,99.732 L 105.92,100.4 L 104.94,101.03 L 103.94,101.6 L 102.9,102.13 L 101.84,102.61 L 100.75,103.04 L 99.637,103.42 L 98.498,103.74 L 97.337,104.01 L 96.155,104.22 L 94.954,104.38 L 93.735,104.47 L 92.5,104.5 C 79.246,104.5 68.5,93.754 68.5,80.5 C 68.5,67.246 79.246,56.5 92.5,56.5 C 105.75,56.5 116.5,67.246 116.5,80.5 z "
   style="stroke:#ffffff;stroke-width:6;stroke-linecap:round;stroke-linejoin:round"
   id="path8148" />
<line
   x1="92.5"
   y1="80.5"
   x2="23.5"
   y2="120.5"
   style="stroke:#ffffff;stroke-width:16;stroke-linecap:round"
   id="line8150" />
<line
   x1="92.5"
   y1="80.5"
   x2="92.5"
   y2="160.5"
   style="stroke:#ffffff;stroke-width:16;stroke-linecap:round"
   id="line8152" />
<line
   x1="92.5"
   y1="80.5"
   x2="161.5"
   y2="40.5"
   style="stroke:#ffffff;stroke-width:16;stroke-linecap:round"
   id="line8154" />
<line
   x1="92.5"
   y1="80.5"
   x2="23.5"
   y2="40.5"
   style="stroke:#ffffff;stroke-width:16;stroke-linecap:round"
   id="line8156" />
<line
   x1="92.5"
   y1="80.5"
   x2="23.5"
   y2="120.5"
   style="stroke-width:12;stroke-linecap:round"
   id="line8158" />
<line
   x1="92.5"
   y1="80.5"
   x2="92.5"
   y2="160.5"
   style="stroke-width:12;stroke-linecap:round"
   id="line8160" />
<line
   x1="92.5"
   y1="80.5"
   x2="161.5"
   y2="40.5"
   style="stroke-width:12;stroke-linecap:round"
   id="line8162" />
<line
   x1="92.5"
   y1="80.5"
   x2="23.5"
   y2="40.5"
   style="stroke-width:12;stroke-linecap:round"
   id="line8164" />
<path
   d="M 116.5,80.5 L 116.47,81.735 L 116.38,82.954 L 116.22,84.155 L 116.01,85.337 L 115.74,86.498 L 115.42,87.637 L 115.04,88.752 L 114.61,89.841 L 114.13,90.905 L 113.6,91.939 L 113.03,92.944 L 112.4,93.918 L 111.73,94.859 L 111.02,95.766 L 110.26,96.637 L 109.47,97.47 L 108.64,98.265 L 107.77,99.019 L 106.86,99.732 L 105.92,100.4 L 104.94,101.03 L 103.94,101.6 L 102.9,102.13 L 101.84,102.61 L 100.75,103.04 L 99.637,103.42 L 98.498,103.74 L 97.337,104.01 L 96.155,104.22 L 94.954,104.38 L 93.735,104.47 L 92.5,104.5 C 79.246,104.5 68.5,93.754 68.5,80.5 C 68.5,67.246 79.246,56.5 92.5,56.5 C 105.75,56.5 116.5,67.246 116.5,80.5 z "
   style="fill:#ffffff;fill-rule:nonzero;stroke:#ffffff;stroke-width:0;stroke-linecap:round;stroke-linejoin:round"
   id="path8166" />
<path
   d="M 116.5,80.5 L 116.47,81.735 L 116.38,82.954 L 116.22,84.155 L 116.01,85.337 L 115.74,86.498 L 115.42,87.637 L 115.04,88.752 L 114.61,89.841 L 114.13,90.905 L 113.6,91.939 L 113.03,92.944 L 112.4,93.918 L 111.73,94.859 L 111.02,95.766 L 110.26,96.637 L 109.47,97.47 L 108.64,98.265 L 107.77,99.019 L 106.86,99.732 L 105.92,100.4 L 104.94,101.03 L 103.94,101.6 L 102.9,102.13 L 101.84,102.61 L 100.75,103.04 L 99.637,103.42 L 98.498,103.74 L 97.337,104.01 L 96.155,104.22 L 94.954,104.38 L 93.735,104.47 L 92.5,104.5 C 79.246,104.5 68.5,93.754 68.5,80.5 C 68.5,67.246 79.246,56.5 92.5,56.5 C 105.75,56.5 116.5,67.246 116.5,80.5 z "
   style="stroke-width:2;stroke-linecap:round;stroke-linejoin:round"
   id="path8168" />
<path
   d="M 66.992,140.5 L 66.981,140.71 L 66.948,140.91 L 66.894,141.11 L 66.82,141.31 L 66.725,141.51 L 66.61,141.7 L 66.477,141.89 L 66.324,142.07 L 66.154,142.25 L 65.967,142.42 L 65.762,142.59 L 65.541,142.76 L 65.304,142.92 L 65.052,143.07 L 64.785,143.22 L 64.504,143.36 L 64.209,143.49 L 63.901,143.62 L 63.58,143.74 L 63.247,143.85 L 62.902,143.95 L 62.547,144.05 L 62.181,144.14 L 61.804,144.22 L 61.419,144.29 L 61.024,144.36 L 60.621,144.41 L 60.211,144.46 L 59.793,144.49 L 59.368,144.52 L 58.937,144.53 L 58.5,144.54 C 53.812,144.54 50.008,142.73 50.008,140.5 C 50.008,138.27 53.812,136.46 58.5,136.46 C 63.188,136.46 66.992,138.27 66.992,140.5 z "
   style="fill:#ffffff;fill-rule:nonzero;stroke:#ffffff;stroke-width:0;stroke-linecap:round;stroke-linejoin:round"
   id="path8170" />
<path
   d="M 66.992,140.5 L 66.981,140.71 L 66.948,140.91 L 66.894,141.11 L 66.82,141.31 L 66.725,141.51 L 66.61,141.7 L 66.477,141.89 L 66.324,142.07 L 66.154,142.25 L 65.967,142.42 L 65.762,142.59 L 65.541,142.76 L 65.304,142.92 L 65.052,143.07 L 64.785,143.22 L 64.504,143.36 L 64.209,143.49 L 63.901,143.62 L 63.58,143.74 L 63.247,143.85 L 62.902,143.95 L 62.547,144.05 L 62.181,144.14 L 61.804,144.22 L 61.419,144.29 L 61.024,144.36 L 60.621,144.41 L 60.211,144.46 L 59.793,144.49 L 59.368,144.52 L 58.937,144.53 L 58.5,144.54 C 53.812,144.54 50.008,142.73 50.008,140.5 C 50.008,138.27 53.812,136.46 58.5,136.46 C 63.188,136.46 66.992,138.27 66.992,140.5 z "
   style="stroke-width:0.84906;stroke-linecap:round;stroke-linejoin:round"
   id="path8172" />
<text
   transform="matrix(1,0,0,-1,53.191,137.98)"
   style="font-size:8px;fill:#000000;stroke:none;font-family:&quot;Helvetica&quot;, sans-serif"
   id="text8174">30</text>


<polygon
   points="46.5,160.5 138.5,160.5 184.5,80.5 138.5,0.5 46.5,0.5 0.5,80.5 46.5,160.5 "
   style="stroke-width:1;stroke-linejoin:round"
   id="polygon8176" />
</g></svg>
