<?xml version="1.0" encoding="UTF-8" standalone="no"?>
<svg
   xmlns:dc="http://purl.org/dc/elements/1.1/"
   xmlns:cc="http://web.resource.org/cc/"
   xmlns:rdf="http://www.w3.org/1999/02/22-rdf-syntax-ns#"
   xmlns:svg="http://www.w3.org/2000/svg"
   xmlns="http://www.w3.org/2000/svg"
   xmlns:sodipodi="http://sodipodi.sourceforge.net/DTD/sodipodi-0.dtd"
   xmlns:inkscape="http://www.inkscape.org/namespaces/inkscape"
   width="100"
   height="100"
   viewBox="0 0 1 1"
   preserveAspectRatio="none"
   id="svg7889"
   sodipodi:version="0.32"
   inkscape:version="0.45.1"
   sodipodi:docname="tile64.svg"
   sodipodi:docbase="C:\Documents and Settings\Brett\workspace\18xx\tiles\svg"
   version="1.0"
   inkscape:output_extension="org.inkscape.output.svg.inkscape">
  <metadata
     id="metadata7954">
    <rdf:RDF>
      <cc:Work
         rdf:about="">
        <dc:format>image/svg+xml</dc:format>
        <dc:type
           rdf:resource="http://purl.org/dc/dcmitype/StillImage" />
      </cc:Work>
    </rdf:RDF>
  </metadata>
  <defs
     id="defs7952" />
  <sodipodi:namedview
     inkscape:window-height="579"
     inkscape:window-width="749"
     inkscape:pageshadow="2"
     inkscape:pageopacity="0.0"
     borderopacity="1.0"
     bordercolor="#666666"
     pagecolor="#ffffff"
     id="base"
     inkscape:zoom="2.73"
     inkscape:cx="71.423085"
     inkscape:cy="50.059916"
     inkscape:window-x="44"
     inkscape:window-y="44"
     inkscape:current-layer="svg7889" />
  <title
     id="title7891">SVG drawing</title>
  <desc
     id="desc7893">This was produced by version 4.1 of GNU libplot, a free library for exporting 2-D vector graphics.</desc>
  <g
     transform="matrix(5.4159147e-3,0,0,-6.1688359e-3,-9.721302e-4,0.9999116)"
     xml:space="preserve"
     style="font-style:normal;font-variant:normal;font-weight:normal;font-stretch:normal;letter-spacing:normal;word-spacing:normal;text-anchor:start;fill:none;fill-opacity:1;stroke:#000000;stroke-linecap:butt;stroke-linejoin:miter;stroke-miterlimit:10.43299961;stroke-dasharray:none;stroke-dashoffset:0;stroke-opacity:1"
     id="g7897">
<polygon
   points="46.5,160.5 138.5,160.5 184.5,80.5 138.5,0.5 46.5,0.5 0.5,80.5 46.5,160.5 "
   style="fill:#b46301;fill-rule:nonzero;stroke:#b46301;stroke-width:0;stroke-linejoin:round"
   id="polygon7899" />
<text
   transform="matrix(1,0,0,-1,111.17,7.9141)"
   style="font-size:8px;fill:#000000;stroke:none;font-family:&quot;Helvetica&quot;, sans-serif"
   id="text7901">64</text>


<path
   d="M 90.5,65.5 L 90.469,66.735 L 90.376,67.954 L 90.223,69.155 L 90.012,70.337 L 89.744,71.498 L 89.421,72.637 L 89.044,73.752 L 88.614,74.841 L 88.133,75.905 L 87.603,76.939 L 87.025,77.944 L 86.401,78.918 L 85.732,79.859 L 85.019,80.766 L 84.265,81.637 L 83.47,82.47 L 82.637,83.265 L 81.766,84.019 L 80.859,84.732 L 79.918,85.401 L 78.944,86.025 L 77.939,86.603 L 76.905,87.133 L 75.841,87.614 L 74.752,88.044 L 73.637,88.421 L 72.498,88.744 L 71.337,89.012 L 70.155,89.223 L 68.954,89.376 L 67.735,89.469 L 66.5,89.5 C 53.246,89.5 42.5,78.754 42.5,65.5 C 42.5,52.246 53.246,41.5 66.5,41.5 C 79.754,41.5 90.5,52.246 90.5,65.5 z "
   style="fill:#ffffff;fill-rule:nonzero;stroke:#ffffff;stroke-width:0;stroke-linecap:round;stroke-linejoin:round"
   id="path7903" />
<path
   d="M 90.5,65.5 L 90.469,66.735 L 90.376,67.954 L 90.223,69.155 L 90.012,70.337 L 89.744,71.498 L 89.421,72.637 L 89.044,73.752 L 88.614,74.841 L 88.133,75.905 L 87.603,76.939 L 87.025,77.944 L 86.401,78.918 L 85.732,79.859 L 85.019,80.766 L 84.265,81.637 L 83.47,82.47 L 82.637,83.265 L 81.766,84.019 L 80.859,84.732 L 79.918,85.401 L 78.944,86.025 L 77.939,86.603 L 76.905,87.133 L 75.841,87.614 L 74.752,88.044 L 73.637,88.421 L 72.498,88.744 L 71.337,89.012 L 70.155,89.223 L 68.954,89.376 L 67.735,89.469 L 66.5,89.5 C 53.246,89.5 42.5,78.754 42.5,65.5 C 42.5,52.246 53.246,41.5 66.5,41.5 C 79.754,41.5 90.5,52.246 90.5,65.5 z "
   style="stroke:#ffffff;stroke-width:6;stroke-linecap:round;stroke-linejoin:round"
   id="path7905" />
<path
   d="M 139.5,120.5 L 139.47,121.73 L 139.38,122.95 L 139.22,124.15 L 139.01,125.34 L 138.74,126.5 L 138.42,127.64 L 138.04,128.75 L 137.61,129.84 L 137.13,130.9 L 136.6,131.94 L 136.03,132.94 L 135.4,133.92 L 134.73,134.86 L 134.02,135.77 L 133.26,136.64 L 132.47,137.47 L 131.64,138.26 L 130.77,139.02 L 129.86,139.73 L 128.92,140.4 L 127.94,141.03 L 126.94,141.6 L 125.9,142.13 L 124.84,142.61 L 123.75,143.04 L 122.64,143.42 L 121.5,143.74 L 120.34,144.01 L 119.15,144.22 L 117.95,144.38 L 116.73,144.47 L 115.5,144.5 C 102.25,144.5 91.5,133.75 91.5,120.5 C 91.5,107.25 102.25,96.5 115.5,96.5 C 128.75,96.5 139.5,107.25 139.5,120.5 z "
   style="fill:#ffffff;fill-rule:nonzero;stroke:#ffffff;stroke-width:0;stroke-linecap:round;stroke-linejoin:round"
   id="path7907" />
<path
   d="M 139.5,120.5 L 139.47,121.73 L 139.38,122.95 L 139.22,124.15 L 139.01,125.34 L 138.74,126.5 L 138.42,127.64 L 138.04,128.75 L 137.61,129.84 L 137.13,130.9 L 136.6,131.94 L 136.03,132.94 L 135.4,133.92 L 134.73,134.86 L 134.02,135.77 L 133.26,136.64 L 132.47,137.47 L 131.64,138.26 L 130.77,139.02 L 129.86,139.73 L 128.92,140.4 L 127.94,141.03 L 126.94,141.6 L 125.9,142.13 L 124.84,142.61 L 123.75,143.04 L 122.64,143.42 L 121.5,143.74 L 120.34,144.01 L 119.15,144.22 L 117.95,144.38 L 116.73,144.47 L 115.5,144.5 C 102.25,144.5 91.5,133.75 91.5,120.5 C 91.5,107.25 102.25,96.5 115.5,96.5 C 128.75,96.5 139.5,107.25 139.5,120.5 z "
   style="stroke:#ffffff;stroke-width:6;stroke-linecap:round;stroke-linejoin:round"
   id="path7909" />
<path
   d="M 92.5,0.5 L 92.5,0.5 C 92.5,24.809 86.074,48.691 73.883,69.719"
   style="stroke:#ffffff;stroke-width:16;stroke-linecap:round;stroke-linejoin:round"
   id="path7911" />
<path
   d="M 73.5,69.5 L 73.883,69.719 C 61.738,90.668 44.289,108.06 23.297,120.13"
   style="stroke:#ffffff;stroke-width:16;stroke-linecap:round;stroke-linejoin:round"
   id="path7913" />
<path
   d="M 115.5,120.5 L 115.57,120.62 C 122.55,116.61 130.46,114.5 138.5,114.5 C 146.55,114.5 154.46,116.61 161.43,120.62"
   style="stroke:#ffffff;stroke-width:16;stroke-linecap:round;stroke-linejoin:round"
   id="path7915" />
<path
   d="M 92.5,160.5 L 92.5,160.5 C 92.5,144.04 101.3,128.83 115.57,120.62"
   style="stroke:#ffffff;stroke-width:16;stroke-linecap:round;stroke-linejoin:round"
   id="path7917" />
<path
   d="M 92.5,0.5 L 92.5,0.5 C 92.5,24.809 86.074,48.691 73.883,69.719"
   style="stroke-width:12;stroke-linecap:round;stroke-linejoin:round"
   id="path7919" />
<path
   d="M 73.5,69.5 L 73.883,69.719 C 61.738,90.668 44.289,108.06 23.297,120.13"
   style="stroke-width:12;stroke-linecap:round;stroke-linejoin:round"
   id="path7921" />
<path
   d="M 115.5,120.5 L 115.57,120.62 C 122.55,116.61 130.46,114.5 138.5,114.5 C 146.55,114.5 154.46,116.61 161.43,120.62"
   style="stroke-width:12;stroke-linecap:round;stroke-linejoin:round"
   id="path7923" />
<path
   d="M 92.5,160.5 L 92.5,160.5 C 92.5,144.04 101.3,128.83 115.57,120.62"
   style="stroke-width:12;stroke-linecap:round;stroke-linejoin:round"
   id="path7925" />
<path
   d="M 90.5,65.5 L 90.469,66.735 L 90.376,67.954 L 90.223,69.155 L 90.012,70.337 L 89.744,71.498 L 89.421,72.637 L 89.044,73.752 L 88.614,74.841 L 88.133,75.905 L 87.603,76.939 L 87.025,77.944 L 86.401,78.918 L 85.732,79.859 L 85.019,80.766 L 84.265,81.637 L 83.47,82.47 L 82.637,83.265 L 81.766,84.019 L 80.859,84.732 L 79.918,85.401 L 78.944,86.025 L 77.939,86.603 L 76.905,87.133 L 75.841,87.614 L 74.752,88.044 L 73.637,88.421 L 72.498,88.744 L 71.337,89.012 L 70.155,89.223 L 68.954,89.376 L 67.735,89.469 L 66.5,89.5 C 53.246,89.5 42.5,78.754 42.5,65.5 C 42.5,52.246 53.246,41.5 66.5,41.5 C 79.754,41.5 90.5,52.246 90.5,65.5 z "
   style="fill:#ffffff;fill-rule:nonzero;stroke:#ffffff;stroke-width:0;stroke-linecap:round;stroke-linejoin:round"
   id="path7927" />
<path
   d="M 90.5,65.5 L 90.469,66.735 L 90.376,67.954 L 90.223,69.155 L 90.012,70.337 L 89.744,71.498 L 89.421,72.637 L 89.044,73.752 L 88.614,74.841 L 88.133,75.905 L 87.603,76.939 L 87.025,77.944 L 86.401,78.918 L 85.732,79.859 L 85.019,80.766 L 84.265,81.637 L 83.47,82.47 L 82.637,83.265 L 81.766,84.019 L 80.859,84.732 L 79.918,85.401 L 78.944,86.025 L 77.939,86.603 L 76.905,87.133 L 75.841,87.614 L 74.752,88.044 L 73.637,88.421 L 72.498,88.744 L 71.337,89.012 L 70.155,89.223 L 68.954,89.376 L 67.735,89.469 L 66.5,89.5 C 53.246,89.5 42.5,78.754 42.5,65.5 C 42.5,52.246 53.246,41.5 66.5,41.5 C 79.754,41.5 90.5,52.246 90.5,65.5 z "
   style="stroke-width:2;stroke-linecap:round;stroke-linejoin:round"
   id="path7929" />
<path
   d="M 31.992,80.5 L 31.981,80.718 L 31.948,80.932 L 31.894,81.144 L 31.82,81.353 L 31.725,81.557 L 31.61,81.758 L 31.477,81.955 L 31.324,82.147 L 31.154,82.335 L 30.967,82.517 L 30.762,82.694 L 30.541,82.866 L 30.304,83.032 L 30.052,83.192 L 29.785,83.346 L 29.504,83.493 L 29.209,83.633 L 28.901,83.767 L 28.58,83.892 L 28.247,84.011 L 27.902,84.121 L 27.547,84.223 L 27.181,84.316 L 26.804,84.401 L 26.419,84.477 L 26.024,84.544 L 25.621,84.601 L 25.211,84.648 L 24.793,84.686 L 24.368,84.713 L 23.937,84.729 L 23.5,84.734 C 18.812,84.734 15.008,82.836 15.008,80.5 C 15.008,78.164 18.812,76.266 23.5,76.266 C 28.188,76.266 31.992,78.164 31.992,80.5 z "
   style="fill:#ffffff;fill-rule:nonzero;stroke:#ffffff;stroke-width:0;stroke-linecap:round;stroke-linejoin:round"
   id="path7931" />
<path
   d="M 31.992,80.5 L 31.981,80.718 L 31.948,80.932 L 31.894,81.144 L 31.82,81.353 L 31.725,81.557 L 31.61,81.758 L 31.477,81.955 L 31.324,82.147 L 31.154,82.335 L 30.967,82.517 L 30.762,82.694 L 30.541,82.866 L 30.304,83.032 L 30.052,83.192 L 29.785,83.346 L 29.504,83.493 L 29.209,83.633 L 28.901,83.767 L 28.58,83.892 L 28.247,84.011 L 27.902,84.121 L 27.547,84.223 L 27.181,84.316 L 26.804,84.401 L 26.419,84.477 L 26.024,84.544 L 25.621,84.601 L 25.211,84.648 L 24.793,84.686 L 24.368,84.713 L 23.937,84.729 L 23.5,84.734 C 18.812,84.734 15.008,82.836 15.008,80.5 C 15.008,78.164 18.812,76.266 23.5,76.266 C 28.188,76.266 31.992,78.164 31.992,80.5 z "
   style="stroke-width:0.84906;stroke-linecap:round;stroke-linejoin:round"
   id="path7933" />
<text
   transform="matrix(1,0,0,-1,18.191,77.855)"
   style="font-size:8px;fill:#000000;stroke:none;font-family:&quot;Helvetica&quot;, sans-serif"
   id="text7935">50</text>


<path
   d="M 139.5,120.5 L 139.47,121.73 L 139.38,122.95 L 139.22,124.15 L 139.01,125.34 L 138.74,126.5 L 138.42,127.64 L 138.04,128.75 L 137.61,129.84 L 137.13,130.9 L 136.6,131.94 L 136.03,132.94 L 135.4,133.92 L 134.73,134.86 L 134.02,135.77 L 133.26,136.64 L 132.47,137.47 L 131.64,138.26 L 130.77,139.02 L 129.86,139.73 L 128.92,140.4 L 127.94,141.03 L 126.94,141.6 L 125.9,142.13 L 124.84,142.61 L 123.75,143.04 L 122.64,143.42 L 121.5,143.74 L 120.34,144.01 L 119.15,144.22 L 117.95,144.38 L 116.73,144.47 L 115.5,144.5 C 102.25,144.5 91.5,133.75 91.5,120.5 C 91.5,107.25 102.25,96.5 115.5,96.5 C 128.75,96.5 139.5,107.25 139.5,120.5 z "
   style="fill:#ffffff;fill-rule:nonzero;stroke:#ffffff;stroke-width:0;stroke-linecap:round;stroke-linejoin:round"
   id="path7937" />
<path
   d="M 139.5,120.5 L 139.47,121.73 L 139.38,122.95 L 139.22,124.15 L 139.01,125.34 L 138.74,126.5 L 138.42,127.64 L 138.04,128.75 L 137.61,129.84 L 137.13,130.9 L 136.6,131.94 L 136.03,132.94 L 135.4,133.92 L 134.73,134.86 L 134.02,135.77 L 133.26,136.64 L 132.47,137.47 L 131.64,138.26 L 130.77,139.02 L 129.86,139.73 L 128.92,140.4 L 127.94,141.03 L 126.94,141.6 L 125.9,142.13 L 124.84,142.61 L 123.75,143.04 L 122.64,143.42 L 121.5,143.74 L 120.34,144.01 L 119.15,144.22 L 117.95,144.38 L 116.73,144.47 L 115.5,144.5 C 102.25,144.5 91.5,133.75 91.5,120.5 C 91.5,107.25 102.25,96.5 115.5,96.5 C 128.75,96.5 139.5,107.25 139.5,120.5 z "
   style="stroke-width:2;stroke-linecap:round;stroke-linejoin:round"
   id="path7939" />
<path
   d="M 66.992,140.5 L 66.981,140.72 L 66.948,140.93 L 66.894,141.14 L 66.82,141.35 L 66.725,141.56 L 66.61,141.76 L 66.477,141.95 L 66.324,142.15 L 66.154,142.33 L 65.967,142.52 L 65.762,142.69 L 65.541,142.87 L 65.304,143.03 L 65.052,143.19 L 64.785,143.35 L 64.504,143.49 L 64.209,143.63 L 63.901,143.77 L 63.58,143.89 L 63.247,144.01 L 62.902,144.12 L 62.547,144.22 L 62.181,144.32 L 61.804,144.4 L 61.419,144.48 L 61.024,144.54 L 60.621,144.6 L 60.211,144.65 L 59.793,144.69 L 59.368,144.71 L 58.937,144.73 L 58.5,144.73 C 53.812,144.73 50.008,142.84 50.008,140.5 C 50.008,138.16 53.812,136.27 58.5,136.27 C 63.188,136.27 66.992,138.16 66.992,140.5 z "
   style="fill:#ffffff;fill-rule:nonzero;stroke:#ffffff;stroke-width:0;stroke-linecap:round;stroke-linejoin:round"
   id="path7941" />
<path
   d="M 66.992,140.5 L 66.981,140.72 L 66.948,140.93 L 66.894,141.14 L 66.82,141.35 L 66.725,141.56 L 66.61,141.76 L 66.477,141.95 L 66.324,142.15 L 66.154,142.33 L 65.967,142.52 L 65.762,142.69 L 65.541,142.87 L 65.304,143.03 L 65.052,143.19 L 64.785,143.35 L 64.504,143.49 L 64.209,143.63 L 63.901,143.77 L 63.58,143.89 L 63.247,144.01 L 62.902,144.12 L 62.547,144.22 L 62.181,144.32 L 61.804,144.4 L 61.419,144.48 L 61.024,144.54 L 60.621,144.6 L 60.211,144.65 L 59.793,144.69 L 59.368,144.71 L 58.937,144.73 L 58.5,144.73 C 53.812,144.73 50.008,142.84 50.008,140.5 C 50.008,138.16 53.812,136.27 58.5,136.27 C 63.188,136.27 66.992,138.16 66.992,140.5 z "
   style="stroke-width:0.84906;stroke-linecap:round;stroke-linejoin:round"
   id="path7943" />
<text
   transform="matrix(1,0,0,-1,53.191,137.85)"
   style="font-size:8px;fill:#000000;stroke:none;font-family:&quot;Helvetica&quot;, sans-serif"
   id="text7945">50</text>


<text
   transform="matrix(1,0,0,-1,149.31,74.824)"
   style="font-size:16px;fill:#000000;stroke:none;font-family:&quot;Helvetica&quot;, sans-serif"
   id="text7947">OO</text>


<polygon
   points="46.5,160.5 138.5,160.5 184.5,80.5 138.5,0.5 46.5,0.5 0.5,80.5 46.5,160.5 "
   style="stroke-width:1;stroke-linejoin:round"
   id="polygon7949" />
</g></svg>
