<?xml version="1.0" encoding="UTF-8" standalone="no"?>
<svg
   xmlns:dc="http://purl.org/dc/elements/1.1/"
   xmlns:cc="http://web.resource.org/cc/"
   xmlns:rdf="http://www.w3.org/1999/02/22-rdf-syntax-ns#"
   xmlns:svg="http://www.w3.org/2000/svg"
   xmlns="http://www.w3.org/2000/svg"
   xmlns:sodipodi="http://sodipodi.sourceforge.net/DTD/sodipodi-0.dtd"
   xmlns:inkscape="http://www.inkscape.org/namespaces/inkscape"
   version="1.0"
   baseProfile="full"
   id="body"
   width="100"
   height="100"
   viewBox="0 0 1 1"
   preserveAspectRatio="none"
   sodipodi:version="0.32"
   inkscape:version="0.45.1"
   inkscape:output_extension="org.inkscape.output.svg.inkscape"
   sodipodi:docbase="/home/blentz/Desktop/18EU_Tiles"
   sodipodi:docname="tile578.svg">
  <metadata
     id="metadata340">
    <rdf:RDF>
      <cc:Work
         rdf:about="">
        <dc:format>image/svg+xml</dc:format>
        <dc:type
           rdf:resource="http://purl.org/dc/dcmitype/StillImage" />
      </cc:Work>
    </rdf:RDF>
  </metadata>
  <defs
     id="defs338" />
  <sodipodi:namedview
     inkscape:window-height="592"
     inkscape:window-width="822"
     inkscape:pageshadow="2"
     inkscape:pageopacity="0.0"
     guidetolerance="10.0"
     gridtolerance="10.0"
     objecttolerance="10.0"
     borderopacity="1.0"
     bordercolor="#666666"
     pagecolor="#ffffff"
     id="base"
     width="100px"
     height="100px"
     inkscape:zoom="2.5909271"
     inkscape:cx="54.14248"
     inkscape:cy="42.744063"
     inkscape:window-x="40"
     inkscape:window-y="217"
     inkscape:current-layer="body" />
  <title
     id="title299">SVG drawing</title>
  <desc
     id="desc301">This was produced by version 4.2 of GNU libplot, a free library for exporting 2-D vector graphics.</desc>
  <g
     id="content"
     transform="matrix(5.4034452e-3,0,0,-6.1530128e-3,1.8130818e-4,1.0004302)"
     xml:space="preserve"
     stroke-miterlimit="10.433"
     fill-rule="even-odd"
     font-style="normal"
     font-variant="normal"
     font-weight="normal"
     font-stretch="normal"
     font-size-adjust="none"
     letter-spacing="normal"
     word-spacing="normal"
     style="font-style:normal;font-variant:normal;font-weight:normal;font-stretch:normal;letter-spacing:normal;word-spacing:normal;text-anchor:start;fill:none;fill-opacity:1;stroke:#000000;stroke-linecap:butt;stroke-linejoin:miter;stroke-miterlimit:10.43299961;stroke-dasharray:none;stroke-dashoffset:0;stroke-opacity:1">
<polygon
   points="46.5,160.5 138.5,160.5 184.5,80.5 138.5,0.5 46.5,0.5 0.5,80.5 46.5,160.5 "
   id="polygon305"
   style="fill:#5eac38;fill-rule:nonzero;stroke:#5eac38;stroke-width:0;stroke-linejoin:round" />
<path
   d="M 116.5,80.5 L 116.47,81.735 L 116.38,82.954 L 116.22,84.155 L 116.01,85.337 L 115.74,86.498 L 115.42,87.637 L 115.04,88.752 L 114.61,89.841 L 114.13,90.905 L 113.6,91.939 L 113.03,92.944 L 112.4,93.918 L 111.73,94.859 L 111.02,95.766 L 110.26,96.637 L 109.47,97.47 L 108.64,98.265 L 107.77,99.019 L 106.86,99.732 L 105.92,100.4 L 104.94,101.03 L 103.94,101.6 L 102.9,102.13 L 101.84,102.61 L 100.75,103.04 L 99.637,103.42 L 98.498,103.74 L 97.337,104.01 L 96.155,104.22 L 94.954,104.38 L 93.735,104.47 L 92.5,104.5 C 79.246,104.5 68.5,93.754 68.5,80.5 C 68.5,67.246 79.246,56.5 92.5,56.5 C 105.75,56.5 116.5,67.246 116.5,80.5 z "
   id="path307"
   style="fill:#ffffff;fill-rule:nonzero;stroke:#ffffff;stroke-width:0;stroke-linecap:round;stroke-linejoin:round" />
<path
   d="M 116.5,80.5 L 116.47,81.735 L 116.38,82.954 L 116.22,84.155 L 116.01,85.337 L 115.74,86.498 L 115.42,87.637 L 115.04,88.752 L 114.61,89.841 L 114.13,90.905 L 113.6,91.939 L 113.03,92.944 L 112.4,93.918 L 111.73,94.859 L 111.02,95.766 L 110.26,96.637 L 109.47,97.47 L 108.64,98.265 L 107.77,99.019 L 106.86,99.732 L 105.92,100.4 L 104.94,101.03 L 103.94,101.6 L 102.9,102.13 L 101.84,102.61 L 100.75,103.04 L 99.637,103.42 L 98.498,103.74 L 97.337,104.01 L 96.155,104.22 L 94.954,104.38 L 93.735,104.47 L 92.5,104.5 C 79.246,104.5 68.5,93.754 68.5,80.5 C 68.5,67.246 79.246,56.5 92.5,56.5 C 105.75,56.5 116.5,67.246 116.5,80.5 z "
   id="path309"
   style="stroke:#ffffff;stroke-width:6;stroke-linecap:round;stroke-linejoin:round" />
<line
   x1="92.5"
   y1="80.5"
   x2="92.5"
   y2="0.5"
   id="line311"
   style="stroke:#ffffff;stroke-width:16;stroke-linecap:round" />
<line
   x1="92.5"
   y1="80.5"
   x2="23.5"
   y2="40.5"
   id="line313"
   style="stroke:#ffffff;stroke-width:16;stroke-linecap:round" />
<line
   x1="92.5"
   y1="80.5"
   x2="23.5"
   y2="120.5"
   id="line315"
   style="stroke:#ffffff;stroke-width:16;stroke-linecap:round" />
<line
   x1="92.5"
   y1="80.5"
   x2="92.5"
   y2="0.5"
   id="line317"
   style="stroke-width:12;stroke-linecap:round" />
<line
   x1="92.5"
   y1="80.5"
   x2="23.5"
   y2="40.5"
   id="line319"
   style="stroke-width:12;stroke-linecap:round" />
<line
   x1="92.5"
   y1="80.5"
   x2="23.5"
   y2="120.5"
   id="line321"
   style="stroke-width:12;stroke-linecap:round" />
<path
   d="M 116.5,80.5 L 116.47,81.735 L 116.38,82.954 L 116.22,84.155 L 116.01,85.337 L 115.74,86.498 L 115.42,87.637 L 115.04,88.752 L 114.61,89.841 L 114.13,90.905 L 113.6,91.939 L 113.03,92.944 L 112.4,93.918 L 111.73,94.859 L 111.02,95.766 L 110.26,96.637 L 109.47,97.47 L 108.64,98.265 L 107.77,99.019 L 106.86,99.732 L 105.92,100.4 L 104.94,101.03 L 103.94,101.6 L 102.9,102.13 L 101.84,102.61 L 100.75,103.04 L 99.637,103.42 L 98.498,103.74 L 97.337,104.01 L 96.155,104.22 L 94.954,104.38 L 93.735,104.47 L 92.5,104.5 C 79.246,104.5 68.5,93.754 68.5,80.5 C 68.5,67.246 79.246,56.5 92.5,56.5 C 105.75,56.5 116.5,67.246 116.5,80.5 z "
   id="path323"
   style="fill:#ffffff;fill-rule:nonzero;stroke:#ffffff;stroke-width:0;stroke-linecap:round;stroke-linejoin:round" />
<path
   d="M 116.5,80.5 L 116.47,81.735 L 116.38,82.954 L 116.22,84.155 L 116.01,85.337 L 115.74,86.498 L 115.42,87.637 L 115.04,88.752 L 114.61,89.841 L 114.13,90.905 L 113.6,91.939 L 113.03,92.944 L 112.4,93.918 L 111.73,94.859 L 111.02,95.766 L 110.26,96.637 L 109.47,97.47 L 108.64,98.265 L 107.77,99.019 L 106.86,99.732 L 105.92,100.4 L 104.94,101.03 L 103.94,101.6 L 102.9,102.13 L 101.84,102.61 L 100.75,103.04 L 99.637,103.42 L 98.498,103.74 L 97.337,104.01 L 96.155,104.22 L 94.954,104.38 L 93.735,104.47 L 92.5,104.5 C 79.246,104.5 68.5,93.754 68.5,80.5 C 68.5,67.246 79.246,56.5 92.5,56.5 C 105.75,56.5 116.5,67.246 116.5,80.5 z "
   id="path325"
   style="stroke-width:2;stroke-linecap:round;stroke-linejoin:round" />
<path
   d="M 66.988,140.5 L 66.977,140.71 L 66.944,140.91 L 66.89,141.11 L 66.816,141.31 L 66.721,141.51 L 66.607,141.7 L 66.473,141.89 L 66.321,142.07 L 66.151,142.25 L 65.964,142.42 L 65.759,142.59 L 65.539,142.76 L 65.302,142.92 L 65.05,143.07 L 64.783,143.22 L 64.502,143.36 L 64.207,143.49 L 63.899,143.62 L 63.578,143.74 L 63.246,143.85 L 62.901,143.95 L 62.546,144.05 L 62.18,144.14 L 61.804,144.22 L 61.418,144.29 L 61.024,144.36 L 60.621,144.41 L 60.211,144.46 L 59.793,144.49 L 59.368,144.52 L 58.937,144.53 L 58.5,144.54 C 53.812,144.54 50.012,142.73 50.012,140.5 C 50.012,138.27 53.812,136.46 58.5,136.46 C 63.188,136.46 66.988,138.27 66.988,140.5 z "
   id="path327"
   style="fill:#ffffff;fill-rule:nonzero;stroke:#ffffff;stroke-width:0;stroke-linecap:round;stroke-linejoin:round" />
<path
   d="M 66.988,140.5 L 66.977,140.71 L 66.944,140.91 L 66.89,141.11 L 66.816,141.31 L 66.721,141.51 L 66.607,141.7 L 66.473,141.89 L 66.321,142.07 L 66.151,142.25 L 65.964,142.42 L 65.759,142.59 L 65.539,142.76 L 65.302,142.92 L 65.05,143.07 L 64.783,143.22 L 64.502,143.36 L 64.207,143.49 L 63.899,143.62 L 63.578,143.74 L 63.246,143.85 L 62.901,143.95 L 62.546,144.05 L 62.18,144.14 L 61.804,144.22 L 61.418,144.29 L 61.024,144.36 L 60.621,144.41 L 60.211,144.46 L 59.793,144.49 L 59.368,144.52 L 58.937,144.53 L 58.5,144.54 C 53.812,144.54 50.012,142.73 50.012,140.5 C 50.012,138.27 53.812,136.46 58.5,136.46 C 63.188,136.46 66.988,138.27 66.988,140.5 z "
   id="path329"
   style="stroke-width:0.84906;stroke-linecap:round;stroke-linejoin:round" />
<text
   transform="matrix(0.4,0,0,-0.4,53.195,137.98)"
   font-size="20px"
   id="text331"
   style="font-size:20px;fill:#000000;stroke:none;font-family:Helvetica, sans-serif">40</text>

<text
   transform="matrix(0.8,0,0,-0.8,121.05,134.92)"
   font-size="20px"
   id="text333"
   style="font-size:20px;fill:#000000;stroke:none;font-family:Helvetica, sans-serif">Y</text>

<polygon
   points="46.5,160.5 138.5,160.5 184.5,80.5 138.5,0.5 46.5,0.5 0.5,80.5 46.5,160.5 "
   id="polygon335"
   style="stroke-width:1;stroke-linejoin:round" />
</g></svg>
