<?xml version="1.0" encoding="UTF-8" standalone="no"?>
<svg
   xmlns:dc="http://purl.org/dc/elements/1.1/"
   xmlns:cc="http://web.resource.org/cc/"
   xmlns:rdf="http://www.w3.org/1999/02/22-rdf-syntax-ns#"
   xmlns:svg="http://www.w3.org/2000/svg"
   xmlns="http://www.w3.org/2000/svg"
   xmlns:sodipodi="http://inkscape.sourceforge.net/DTD/sodipodi-0.dtd"
   xmlns:inkscape="http://www.inkscape.org/namespaces/inkscape"
   width="100"
   height="100"
   viewBox="0 0 1 1"
   preserveAspectRatio="none"
   id="svg2"
   sodipodi:version="0.32"
   inkscape:version="0.43"
   sodipodi:docname="tile-114.svg"
   sodipodi:docbase="C:\Documents and Settings\lentz\Desktop\Brett\TileDesigner\images\TileDictionary"
   version="1.0">
  <metadata
     id="metadata59">
    <rdf:RDF>
      <cc:Work
         rdf:about="">
        <dc:format>image/svg+xml</dc:format>
        <dc:type
           rdf:resource="http://purl.org/dc/dcmitype/StillImage" />
      </cc:Work>
    </rdf:RDF>
  </metadata>
  <defs
     id="defs57" />
  <sodipodi:namedview
     inkscape:window-height="540"
     inkscape:window-width="749"
     inkscape:pageshadow="2"
     inkscape:pageopacity="0.0"
     borderopacity="1.0"
     bordercolor="#666666"
     pagecolor="#ffffff"
     id="base"
     inkscape:zoom="0.52361111"
     inkscape:cx="360"
     inkscape:cy="360"
     inkscape:window-x="110"
     inkscape:window-y="110"
     inkscape:current-layer="svg2" />
  <title
     id="title4">SVG drawing</title>
  <desc
     id="desc6">This was produced by version 4.1 of GNU libplot, a free library for exporting 2-D vector graphics.</desc>
  <g
     transform="matrix(5.418114e-3,0,0,-5.739836e-3,-1.175565e-3,0.934679)"
     xml:space="preserve"
     style="font-style:normal;font-variant:normal;font-weight:normal;font-stretch:normal;letter-spacing:normal;word-spacing:normal;text-anchor:start;fill:none;fill-opacity:1;stroke:#000000;stroke-linecap:butt;stroke-linejoin:miter;stroke-miterlimit:10.43299961;stroke-dasharray:none;stroke-dashoffset:0;stroke-opacity:1"
     id="g10">
<polygon
   points="46.5,160.5 138.5,160.5 184.5,80.5 138.5,0.5 46.5,0.5 0.5,80.5 46.5,160.5 "
   style="fill:#c0c0c0;fill-rule:nonzero;stroke:#c0c0c0;stroke-width:0;stroke-linejoin:round"
   id="polygon12" />
<polygon
   points="108.37,9.9219 110.27,9.9219 110.27,10.496 108.37,10.496 108.37,9.9219 "
   style="fill:#000000;stroke-width:0;stroke-linejoin:round"
   id="polygon14" />
<path
   d="M 112.07,12.039 L 112.07,8 L 112.78,8 L 112.78,13.672 L 112.31,13.672 C 112.06,12.801 111.9,12.68 110.82,12.543 L 110.82,12.039 L 112.07,12.039 z "
   style="fill:#000000;stroke-width:0;stroke-linecap:round;stroke-linejoin:round"
   id="path16" />
<path
   d="M 117.07,12.039 L 117.07,8 L 117.78,8 L 117.78,13.672 L 117.31,13.672 C 117.06,12.801 116.9,12.68 115.82,12.543 L 115.82,12.039 L 117.07,12.039 z "
   style="fill:#000000;stroke-width:0;stroke-linecap:round;stroke-linejoin:round"
   id="path18" />
<polygon
   points="121.62,9.3594 121.62,8 122.32,8 122.32,9.3594 123.16,9.3594 123.16,9.9922 122.32,9.9922 122.32,13.672 121.8,13.672 119.22,10.106 119.22,9.3594 121.62,9.3594 "
   style="fill:#000000;stroke-width:0;stroke-linejoin:round"
   id="polygon20" />
<polygon
   points="121.62,9.9922 119.84,9.9922 121.62,12.473 121.62,9.9922 "
   style="fill:#000000;stroke-width:0;stroke-linejoin:round"
   id="polygon22" />
<path
   d="M 90.5,95.5 L 90.469,96.735 L 90.376,97.954 L 90.223,99.155 L 90.012,100.34 L 89.744,101.5 L 89.421,102.64 L 89.044,103.75 L 88.614,104.84 L 88.133,105.9 L 87.603,106.94 L 87.025,107.94 L 86.401,108.92 L 85.732,109.86 L 85.019,110.77 L 84.265,111.64 L 83.47,112.47 L 82.637,113.26 L 81.766,114.02 L 80.859,114.73 L 79.918,115.4 L 78.944,116.03 L 77.939,116.6 L 76.905,117.13 L 75.841,117.61 L 74.752,118.04 L 73.637,118.42 L 72.498,118.74 L 71.337,119.01 L 70.155,119.22 L 68.954,119.38 L 67.735,119.47 L 66.5,119.5 C 53.246,119.5 42.5,108.75 42.5,95.5 C 42.5,82.246 53.246,71.5 66.5,71.5 C 79.754,71.5 90.5,82.246 90.5,95.5 z "
   style="fill:#ffffff;fill-rule:nonzero;stroke:#ffffff;stroke-width:0;stroke-linecap:round;stroke-linejoin:round"
   id="path24" />
<path
   d="M 90.5,95.5 L 90.469,96.735 L 90.376,97.954 L 90.223,99.155 L 90.012,100.34 L 89.744,101.5 L 89.421,102.64 L 89.044,103.75 L 88.614,104.84 L 88.133,105.9 L 87.603,106.94 L 87.025,107.94 L 86.401,108.92 L 85.732,109.86 L 85.019,110.77 L 84.265,111.64 L 83.47,112.47 L 82.637,113.26 L 81.766,114.02 L 80.859,114.73 L 79.918,115.4 L 78.944,116.03 L 77.939,116.6 L 76.905,117.13 L 75.841,117.61 L 74.752,118.04 L 73.637,118.42 L 72.498,118.74 L 71.337,119.01 L 70.155,119.22 L 68.954,119.38 L 67.735,119.47 L 66.5,119.5 C 53.246,119.5 42.5,108.75 42.5,95.5 C 42.5,82.246 53.246,71.5 66.5,71.5 C 79.754,71.5 90.5,82.246 90.5,95.5 z "
   style="stroke:#ffffff;stroke-width:6;stroke-linecap:round;stroke-linejoin:round"
   id="path26" />
<path
   d="M 23.5,40.5 L 23.297,40.871 C 44.289,52.941 61.738,70.332 73.883,91.281"
   style="stroke:#ffffff;stroke-width:16;stroke-linecap:round;stroke-linejoin:round"
   id="path28" />
<path
   d="M 92.5,0.5 L 92.5,0.5 C 92.5,24.809 86.074,48.691 73.883,69.719 L 74.324,69.98 C 72.477,73.176 71.5,76.809 71.5,80.5 C 71.5,84.191 72.477,87.828 74.328,91.023"
   style="stroke:#ffffff;stroke-width:16;stroke-linecap:round;stroke-linejoin:round"
   id="path30" />
<path
   d="M 161.5,120.5 L 161.3,120.87 C 140.37,108.84 116.64,102.5 92.5,102.5 L 92.5,101.5 C 85.008,101.5 78.082,97.504 74.328,91.023"
   style="stroke:#ffffff;stroke-width:16;stroke-linecap:round;stroke-linejoin:round"
   id="path32" />
<path
   d="M 23.5,40.5 L 23.297,40.871 C 44.289,52.941 61.738,70.332 73.883,91.281"
   style="stroke-width:12;stroke-linecap:round;stroke-linejoin:round"
   id="path34" />
<path
   d="M 92.5,0.5 L 92.5,0.5 C 92.5,24.809 86.074,48.691 73.883,69.719 L 74.324,69.98 C 72.477,73.176 71.5,76.809 71.5,80.5 C 71.5,84.191 72.477,87.828 74.328,91.023"
   style="stroke-width:12;stroke-linecap:round;stroke-linejoin:round"
   id="path36" />
<path
   d="M 161.5,120.5 L 161.3,120.87 C 140.37,108.84 116.64,102.5 92.5,102.5 L 92.5,101.5 C 85.008,101.5 78.082,97.504 74.328,91.023"
   style="stroke-width:12;stroke-linecap:round;stroke-linejoin:round"
   id="path38" />
<path
   d="M 90.5,95.5 L 90.469,96.735 L 90.376,97.954 L 90.223,99.155 L 90.012,100.34 L 89.744,101.5 L 89.421,102.64 L 89.044,103.75 L 88.614,104.84 L 88.133,105.9 L 87.603,106.94 L 87.025,107.94 L 86.401,108.92 L 85.732,109.86 L 85.019,110.77 L 84.265,111.64 L 83.47,112.47 L 82.637,113.26 L 81.766,114.02 L 80.859,114.73 L 79.918,115.4 L 78.944,116.03 L 77.939,116.6 L 76.905,117.13 L 75.841,117.61 L 74.752,118.04 L 73.637,118.42 L 72.498,118.74 L 71.337,119.01 L 70.155,119.22 L 68.954,119.38 L 67.735,119.47 L 66.5,119.5 C 53.246,119.5 42.5,108.75 42.5,95.5 C 42.5,82.246 53.246,71.5 66.5,71.5 C 79.754,71.5 90.5,82.246 90.5,95.5 z "
   style="fill:#ffffff;fill-rule:nonzero;stroke:#ffffff;stroke-width:0;stroke-linecap:round;stroke-linejoin:round"
   id="path40" />
<path
   d="M 90.5,95.5 L 90.469,96.735 L 90.376,97.954 L 90.223,99.155 L 90.012,100.34 L 89.744,101.5 L 89.421,102.64 L 89.044,103.75 L 88.614,104.84 L 88.133,105.9 L 87.603,106.94 L 87.025,107.94 L 86.401,108.92 L 85.732,109.86 L 85.019,110.77 L 84.265,111.64 L 83.47,112.47 L 82.637,113.26 L 81.766,114.02 L 80.859,114.73 L 79.918,115.4 L 78.944,116.03 L 77.939,116.6 L 76.905,117.13 L 75.841,117.61 L 74.752,118.04 L 73.637,118.42 L 72.498,118.74 L 71.337,119.01 L 70.155,119.22 L 68.954,119.38 L 67.735,119.47 L 66.5,119.5 C 53.246,119.5 42.5,108.75 42.5,95.5 C 42.5,82.246 53.246,71.5 66.5,71.5 C 79.754,71.5 90.5,82.246 90.5,95.5 z "
   style="stroke-width:2;stroke-linecap:round;stroke-linejoin:round"
   id="path42" />
<path
   d="M 66.992,140.5 L 66.981,140.71 L 66.948,140.91 L 66.894,141.11 L 66.82,141.31 L 66.725,141.51 L 66.61,141.7 L 66.477,141.89 L 66.324,142.07 L 66.154,142.25 L 65.967,142.42 L 65.762,142.59 L 65.541,142.76 L 65.304,142.92 L 65.052,143.07 L 64.785,143.22 L 64.504,143.36 L 64.209,143.49 L 63.901,143.62 L 63.58,143.74 L 63.247,143.85 L 62.902,143.95 L 62.547,144.05 L 62.181,144.14 L 61.804,144.22 L 61.419,144.29 L 61.024,144.36 L 60.621,144.41 L 60.211,144.46 L 59.793,144.49 L 59.368,144.52 L 58.937,144.53 L 58.5,144.54 C 53.812,144.54 50.008,142.73 50.008,140.5 C 50.008,138.27 53.812,136.46 58.5,136.46 C 63.188,136.46 66.992,138.27 66.992,140.5 z "
   style="fill:#ffffff;fill-rule:nonzero;stroke:#ffffff;stroke-width:0;stroke-linecap:round;stroke-linejoin:round"
   id="path44" />
<path
   d="M 66.992,140.5 L 66.981,140.71 L 66.948,140.91 L 66.894,141.11 L 66.82,141.31 L 66.725,141.51 L 66.61,141.7 L 66.477,141.89 L 66.324,142.07 L 66.154,142.25 L 65.967,142.42 L 65.762,142.59 L 65.541,142.76 L 65.304,142.92 L 65.052,143.07 L 64.785,143.22 L 64.504,143.36 L 64.209,143.49 L 63.901,143.62 L 63.58,143.74 L 63.247,143.85 L 62.902,143.95 L 62.547,144.05 L 62.181,144.14 L 61.804,144.22 L 61.419,144.29 L 61.024,144.36 L 60.621,144.41 L 60.211,144.46 L 59.793,144.49 L 59.368,144.52 L 58.937,144.53 L 58.5,144.54 C 53.812,144.54 50.008,142.73 50.008,140.5 C 50.008,138.27 53.812,136.46 58.5,136.46 C 63.188,136.46 66.992,138.27 66.992,140.5 z "
   style="stroke-width:0.84906;stroke-linecap:round;stroke-linejoin:round"
   id="path46" />
<path
   d="M 58.023,139.73 L 57.375,139.91 C 57.016,139.17 56.938,139.12 55.938,139.12 L 54.938,139.12 C 55.93,139.66 56.406,139.97 56.887,140.39 C 57.496,140.95 57.742,141.38 57.742,141.91 C 57.742,142.9 56.863,143.55 55.52,143.55 C 54.246,143.55 53.328,142.89 53.328,141.97 C 53.328,141.52 53.625,141.21 54.031,141.21 C 54.391,141.21 54.695,141.49 54.695,141.82 C 54.695,141.96 54.664,142.05 54.566,142.2 C 54.512,142.29 54.488,142.35 54.488,142.41 C 54.488,142.64 54.879,142.85 55.297,142.85 C 55.816,142.85 56.152,142.54 56.152,142.05 C 56.152,141.49 55.809,140.85 55.176,140.26 C 54.711,139.82 54.543,139.7 53.328,138.9 L 53.457,138 L 57.535,138 L 58.023,139.73 z "
   style="fill:#000000;stroke-width:0;stroke-linecap:round;stroke-linejoin:round"
   id="path48" />
<path
   d="M 60.711,143.55 L 60.644,143.55 L 60.578,143.55 L 60.513,143.54 L 60.447,143.54 L 60.382,143.53 L 60.318,143.52 L 60.254,143.51 L 60.191,143.5 L 60.128,143.49 L 60.066,143.47 L 60.005,143.46 L 59.945,143.44 L 59.885,143.42 L 59.826,143.4 L 59.767,143.38 L 59.71,143.36 L 59.653,143.33 L 59.598,143.31 L 59.543,143.28 L 59.49,143.25 L 59.437,143.22 L 59.386,143.19 L 59.335,143.15 L 59.286,143.12 L 59.238,143.09 L 59.191,143.05 L 59.146,143.01 L 59.101,142.97 L 59.058,142.93 L 59.017,142.89 L 58.976,142.85 L 58.938,142.8 C 58.504,142.3 58.238,141.51 58.238,140.69 C 58.238,138.97 59.176,137.9 60.672,137.9 C 62.16,137.9 63.113,139 63.113,140.74 C 63.113,142.44 62.16,143.55 60.711,143.55 z "
   style="fill:#000000;stroke-width:0;stroke-linecap:round;stroke-linejoin:round"
   id="path50" />
<path
   d="M 60.672,142.82 L 60.728,142.81 L 60.783,142.81 L 60.836,142.8 L 60.887,142.78 L 60.937,142.76 L 60.985,142.74 L 61.032,142.71 L 61.077,142.68 L 61.12,142.64 L 61.161,142.6 L 61.201,142.55 L 61.239,142.5 L 61.275,142.45 L 61.309,142.39 L 61.342,142.33 L 61.373,142.27 L 61.402,142.2 L 61.43,142.13 L 61.455,142.05 L 61.479,141.97 L 61.501,141.89 L 61.521,141.8 L 61.539,141.71 L 61.555,141.61 L 61.57,141.51 L 61.582,141.41 L 61.593,141.3 L 61.602,141.19 L 61.608,141.08 L 61.613,140.96 L 61.616,140.84 L 61.617,140.72 C 61.617,139.38 61.281,138.63 60.672,138.63 C 60.062,138.63 59.734,139.38 59.734,140.75 C 59.734,142.06 60.078,142.82 60.672,142.82 z "
   style="fill:#000000;stroke-width:0;stroke-linecap:round;stroke-linejoin:round"
   id="path52" />
<polygon
   points="46.5,160.5 138.5,160.5 184.5,80.5 138.5,0.5 46.5,0.5 0.5,80.5 46.5,160.5 "
   style="stroke-width:1;stroke-linejoin:round"
   id="polygon54" />
</g></svg>
