<?xml version="1.0" encoding="UTF-8" standalone="no"?>
<svg
   xmlns:dc="http://purl.org/dc/elements/1.1/"
   xmlns:cc="http://web.resource.org/cc/"
   xmlns:rdf="http://www.w3.org/1999/02/22-rdf-syntax-ns#"
   xmlns:svg="http://www.w3.org/2000/svg"
   xmlns="http://www.w3.org/2000/svg"
   xmlns:sodipodi="http://sodipodi.sourceforge.net/DTD/sodipodi-0.dtd"
   xmlns:inkscape="http://www.inkscape.org/namespaces/inkscape"
   width="100"
   height="100"
   viewBox="0 0 1 1"
   preserveAspectRatio="none"
   id="svg6329"
   sodipodi:version="0.32"
   inkscape:version="0.45.1"
   sodipodi:docname="tile215.svg"
   sodipodi:docbase="C:\Documents and Settings\Brett\workspace\18xx\tiles\svg"
   version="1.0"
   inkscape:output_extension="org.inkscape.output.svg.inkscape">
  <metadata
     id="metadata6394">
    <rdf:RDF>
      <cc:Work
         rdf:about="">
        <dc:format>image/svg+xml</dc:format>
        <dc:type
           rdf:resource="http://purl.org/dc/dcmitype/StillImage" />
      </cc:Work>
    </rdf:RDF>
  </metadata>
  <defs
     id="defs6392" />
  <sodipodi:namedview
     inkscape:window-height="579"
     inkscape:window-width="749"
     inkscape:pageshadow="2"
     inkscape:pageopacity="0.0"
     borderopacity="1.0"
     bordercolor="#666666"
     pagecolor="#ffffff"
     id="base"
     inkscape:zoom="2.977747"
     inkscape:cx="51.838552"
     inkscape:cy="44.274967"
     inkscape:window-x="88"
     inkscape:window-y="88"
     inkscape:current-layer="svg6329" />
  <title
     id="title6331">SVG drawing</title>
  <desc
     id="desc6333">This was produced by version 4.1 of GNU libplot, a free library for exporting 2-D vector graphics.</desc>
  <g
     transform="matrix(5.4158967e-3,0,0,-6.1759374e-3,-9.7046303e-4,1.0010927)"
     xml:space="preserve"
     style="font-style:normal;font-variant:normal;font-weight:normal;font-stretch:normal;letter-spacing:normal;word-spacing:normal;text-anchor:start;fill:none;fill-opacity:1;stroke:#000000;stroke-linecap:butt;stroke-linejoin:miter;stroke-miterlimit:10.43299961;stroke-dasharray:none;stroke-dashoffset:0;stroke-opacity:1"
     id="g6337">
<polygon
   points="46.5,160.5 138.5,160.5 184.5,80.5 138.5,0.5 46.5,0.5 0.5,80.5 46.5,160.5 "
   style="fill:#38ac00;fill-rule:nonzero;stroke:#38ac00;stroke-width:0;stroke-linejoin:round"
   id="polygon6339" />
<text
   transform="matrix(1,0,0,-1,109.19,7.9141)"
   style="font-size:8px;fill:#000000;stroke:none;font-family:&quot;Helvetica&quot;, sans-serif"
   id="text6341">215</text>


<path
   d="M 76.5,98.5 L 76.469,99.735 L 76.376,100.95 L 76.223,102.15 L 76.012,103.34 L 75.744,104.5 L 75.421,105.64 L 75.044,106.75 L 74.614,107.84 L 74.133,108.9 L 73.603,109.94 L 73.025,110.94 L 72.401,111.92 L 71.732,112.86 L 71.019,113.77 L 70.265,114.64 L 69.47,115.47 L 68.637,116.26 L 67.766,117.02 L 66.859,117.73 L 65.918,118.4 L 64.944,119.03 L 63.939,119.6 L 62.905,120.13 L 61.841,120.61 L 60.752,121.04 L 59.637,121.42 L 58.498,121.74 L 57.337,122.01 L 56.155,122.22 L 54.954,122.38 L 53.735,122.47 L 52.5,122.5 C 39.246,122.5 28.5,111.75 28.5,98.5 C 28.5,85.246 39.246,74.5 52.5,74.5 C 65.754,74.5 76.5,85.246 76.5,98.5 z "
   style="fill:#ffffff;fill-rule:nonzero;stroke:#ffffff;stroke-width:0;stroke-linecap:round;stroke-linejoin:round"
   id="path6343" />
<path
   d="M 76.5,98.5 L 76.469,99.735 L 76.376,100.95 L 76.223,102.15 L 76.012,103.34 L 75.744,104.5 L 75.421,105.64 L 75.044,106.75 L 74.614,107.84 L 74.133,108.9 L 73.603,109.94 L 73.025,110.94 L 72.401,111.92 L 71.732,112.86 L 71.019,113.77 L 70.265,114.64 L 69.47,115.47 L 68.637,116.26 L 67.766,117.02 L 66.859,117.73 L 65.918,118.4 L 64.944,119.03 L 63.939,119.6 L 62.905,120.13 L 61.841,120.61 L 60.752,121.04 L 59.637,121.42 L 58.498,121.74 L 57.337,122.01 L 56.155,122.22 L 54.954,122.38 L 53.735,122.47 L 52.5,122.5 C 39.246,122.5 28.5,111.75 28.5,98.5 C 28.5,85.246 39.246,74.5 52.5,74.5 C 65.754,74.5 76.5,85.246 76.5,98.5 z "
   style="stroke:#ffffff;stroke-width:6;stroke-linecap:round;stroke-linejoin:round"
   id="path6345" />
<path
   d="M 156.5,62.5 L 156.47,63.735 L 156.38,64.954 L 156.22,66.155 L 156.01,67.337 L 155.74,68.498 L 155.42,69.637 L 155.04,70.752 L 154.61,71.841 L 154.13,72.905 L 153.6,73.939 L 153.03,74.944 L 152.4,75.918 L 151.73,76.859 L 151.02,77.766 L 150.26,78.637 L 149.47,79.47 L 148.64,80.265 L 147.77,81.019 L 146.86,81.732 L 145.92,82.401 L 144.94,83.025 L 143.94,83.603 L 142.9,84.133 L 141.84,84.614 L 140.75,85.044 L 139.64,85.421 L 138.5,85.744 L 137.34,86.012 L 136.15,86.223 L 134.95,86.376 L 133.73,86.469 L 132.5,86.5 C 119.25,86.5 108.5,75.754 108.5,62.5 C 108.5,49.246 119.25,38.5 132.5,38.5 C 145.75,38.5 156.5,49.246 156.5,62.5 z "
   style="fill:#ffffff;fill-rule:nonzero;stroke:#ffffff;stroke-width:0;stroke-linecap:round;stroke-linejoin:round"
   id="path6347" />
<path
   d="M 156.5,62.5 L 156.47,63.735 L 156.38,64.954 L 156.22,66.155 L 156.01,67.337 L 155.74,68.498 L 155.42,69.637 L 155.04,70.752 L 154.61,71.841 L 154.13,72.905 L 153.6,73.939 L 153.03,74.944 L 152.4,75.918 L 151.73,76.859 L 151.02,77.766 L 150.26,78.637 L 149.47,79.47 L 148.64,80.265 L 147.77,81.019 L 146.86,81.732 L 145.92,82.401 L 144.94,83.025 L 143.94,83.603 L 142.9,84.133 L 141.84,84.614 L 140.75,85.044 L 139.64,85.421 L 138.5,85.744 L 137.34,86.012 L 136.15,86.223 L 134.95,86.376 L 133.73,86.469 L 132.5,86.5 C 119.25,86.5 108.5,75.754 108.5,62.5 C 108.5,49.246 119.25,38.5 132.5,38.5 C 145.75,38.5 156.5,49.246 156.5,62.5 z "
   style="stroke:#ffffff;stroke-width:6;stroke-linecap:round;stroke-linejoin:round"
   id="path6349" />
<path
   d="M 92.5,160.5 L 92.5,160.5 C 92.5,123.9 107.04,88.797 132.92,62.918"
   style="stroke:#ffffff;stroke-width:16;stroke-linecap:round;stroke-linejoin:round"
   id="path6351" />
<path
   d="M 132.5,62.5 L 132.92,62.918 C 141.5,54.336 151.19,46.918 161.71,40.867"
   style="stroke:#ffffff;stroke-width:16;stroke-linecap:round;stroke-linejoin:round"
   id="path6353" />
<path
   d="M 92.5,0.5 L 92.5,0.5 C 92.5,37.098 77.961,72.203 52.082,98.082"
   style="stroke:#ffffff;stroke-width:16;stroke-linecap:round;stroke-linejoin:round"
   id="path6355" />
<path
   d="M 52.5,98.5 L 52.082,98.082 C 43.5,106.66 33.816,114.08 23.297,120.13"
   style="stroke:#ffffff;stroke-width:16;stroke-linecap:round;stroke-linejoin:round"
   id="path6357" />
<path
   d="M 92.5,160.5 L 92.5,160.5 C 92.5,123.9 107.04,88.797 132.92,62.918"
   style="stroke-width:12;stroke-linecap:round;stroke-linejoin:round"
   id="path6359" />
<path
   d="M 132.5,62.5 L 132.92,62.918 C 141.5,54.336 151.19,46.918 161.71,40.867"
   style="stroke-width:12;stroke-linecap:round;stroke-linejoin:round"
   id="path6361" />
<path
   d="M 92.5,0.5 L 92.5,0.5 C 92.5,37.098 77.961,72.203 52.082,98.082"
   style="stroke-width:12;stroke-linecap:round;stroke-linejoin:round"
   id="path6363" />
<path
   d="M 52.5,98.5 L 52.082,98.082 C 43.5,106.66 33.816,114.08 23.297,120.13"
   style="stroke-width:12;stroke-linecap:round;stroke-linejoin:round"
   id="path6365" />
<path
   d="M 76.5,98.5 L 76.469,99.735 L 76.376,100.95 L 76.223,102.15 L 76.012,103.34 L 75.744,104.5 L 75.421,105.64 L 75.044,106.75 L 74.614,107.84 L 74.133,108.9 L 73.603,109.94 L 73.025,110.94 L 72.401,111.92 L 71.732,112.86 L 71.019,113.77 L 70.265,114.64 L 69.47,115.47 L 68.637,116.26 L 67.766,117.02 L 66.859,117.73 L 65.918,118.4 L 64.944,119.03 L 63.939,119.6 L 62.905,120.13 L 61.841,120.61 L 60.752,121.04 L 59.637,121.42 L 58.498,121.74 L 57.337,122.01 L 56.155,122.22 L 54.954,122.38 L 53.735,122.47 L 52.5,122.5 C 39.246,122.5 28.5,111.75 28.5,98.5 C 28.5,85.246 39.246,74.5 52.5,74.5 C 65.754,74.5 76.5,85.246 76.5,98.5 z "
   style="fill:#ffffff;fill-rule:nonzero;stroke:#ffffff;stroke-width:0;stroke-linecap:round;stroke-linejoin:round"
   id="path6367" />
<path
   d="M 76.5,98.5 L 76.469,99.735 L 76.376,100.95 L 76.223,102.15 L 76.012,103.34 L 75.744,104.5 L 75.421,105.64 L 75.044,106.75 L 74.614,107.84 L 74.133,108.9 L 73.603,109.94 L 73.025,110.94 L 72.401,111.92 L 71.732,112.86 L 71.019,113.77 L 70.265,114.64 L 69.47,115.47 L 68.637,116.26 L 67.766,117.02 L 66.859,117.73 L 65.918,118.4 L 64.944,119.03 L 63.939,119.6 L 62.905,120.13 L 61.841,120.61 L 60.752,121.04 L 59.637,121.42 L 58.498,121.74 L 57.337,122.01 L 56.155,122.22 L 54.954,122.38 L 53.735,122.47 L 52.5,122.5 C 39.246,122.5 28.5,111.75 28.5,98.5 C 28.5,85.246 39.246,74.5 52.5,74.5 C 65.754,74.5 76.5,85.246 76.5,98.5 z "
   style="stroke-width:2;stroke-linecap:round;stroke-linejoin:round"
   id="path6369" />
<path
   d="M 66.992,140.5 L 66.981,140.71 L 66.948,140.91 L 66.894,141.11 L 66.82,141.31 L 66.725,141.51 L 66.61,141.7 L 66.477,141.89 L 66.324,142.07 L 66.154,142.25 L 65.967,142.42 L 65.762,142.59 L 65.541,142.76 L 65.304,142.92 L 65.052,143.07 L 64.785,143.22 L 64.504,143.36 L 64.209,143.49 L 63.901,143.62 L 63.58,143.74 L 63.247,143.85 L 62.902,143.95 L 62.547,144.05 L 62.181,144.14 L 61.804,144.22 L 61.419,144.29 L 61.024,144.36 L 60.621,144.41 L 60.211,144.46 L 59.793,144.49 L 59.368,144.52 L 58.937,144.53 L 58.5,144.54 C 53.812,144.54 50.008,142.73 50.008,140.5 C 50.008,138.27 53.812,136.46 58.5,136.46 C 63.188,136.46 66.992,138.27 66.992,140.5 z "
   style="fill:#ffffff;fill-rule:nonzero;stroke:#ffffff;stroke-width:0;stroke-linecap:round;stroke-linejoin:round"
   id="path6371" />
<path
   d="M 66.992,140.5 L 66.981,140.71 L 66.948,140.91 L 66.894,141.11 L 66.82,141.31 L 66.725,141.51 L 66.61,141.7 L 66.477,141.89 L 66.324,142.07 L 66.154,142.25 L 65.967,142.42 L 65.762,142.59 L 65.541,142.76 L 65.304,142.92 L 65.052,143.07 L 64.785,143.22 L 64.504,143.36 L 64.209,143.49 L 63.901,143.62 L 63.58,143.74 L 63.247,143.85 L 62.902,143.95 L 62.547,144.05 L 62.181,144.14 L 61.804,144.22 L 61.419,144.29 L 61.024,144.36 L 60.621,144.41 L 60.211,144.46 L 59.793,144.49 L 59.368,144.52 L 58.937,144.53 L 58.5,144.54 C 53.812,144.54 50.008,142.73 50.008,140.5 C 50.008,138.27 53.812,136.46 58.5,136.46 C 63.188,136.46 66.992,138.27 66.992,140.5 z "
   style="stroke-width:0.84906;stroke-linecap:round;stroke-linejoin:round"
   id="path6373" />
<text
   transform="matrix(1,0,0,-1,53.191,137.98)"
   style="font-size:8px;fill:#000000;stroke:none;font-family:&quot;Helvetica&quot;, sans-serif"
   id="text6375">30</text>


<path
   d="M 156.5,62.5 L 156.47,63.735 L 156.38,64.954 L 156.22,66.155 L 156.01,67.337 L 155.74,68.498 L 155.42,69.637 L 155.04,70.752 L 154.61,71.841 L 154.13,72.905 L 153.6,73.939 L 153.03,74.944 L 152.4,75.918 L 151.73,76.859 L 151.02,77.766 L 150.26,78.637 L 149.47,79.47 L 148.64,80.265 L 147.77,81.019 L 146.86,81.732 L 145.92,82.401 L 144.94,83.025 L 143.94,83.603 L 142.9,84.133 L 141.84,84.614 L 140.75,85.044 L 139.64,85.421 L 138.5,85.744 L 137.34,86.012 L 136.15,86.223 L 134.95,86.376 L 133.73,86.469 L 132.5,86.5 C 119.25,86.5 108.5,75.754 108.5,62.5 C 108.5,49.246 119.25,38.5 132.5,38.5 C 145.75,38.5 156.5,49.246 156.5,62.5 z "
   style="fill:#ffffff;fill-rule:nonzero;stroke:#ffffff;stroke-width:0;stroke-linecap:round;stroke-linejoin:round"
   id="path6377" />
<path
   d="M 156.5,62.5 L 156.47,63.735 L 156.38,64.954 L 156.22,66.155 L 156.01,67.337 L 155.74,68.498 L 155.42,69.637 L 155.04,70.752 L 154.61,71.841 L 154.13,72.905 L 153.6,73.939 L 153.03,74.944 L 152.4,75.918 L 151.73,76.859 L 151.02,77.766 L 150.26,78.637 L 149.47,79.47 L 148.64,80.265 L 147.77,81.019 L 146.86,81.732 L 145.92,82.401 L 144.94,83.025 L 143.94,83.603 L 142.9,84.133 L 141.84,84.614 L 140.75,85.044 L 139.64,85.421 L 138.5,85.744 L 137.34,86.012 L 136.15,86.223 L 134.95,86.376 L 133.73,86.469 L 132.5,86.5 C 119.25,86.5 108.5,75.754 108.5,62.5 C 108.5,49.246 119.25,38.5 132.5,38.5 C 145.75,38.5 156.5,49.246 156.5,62.5 z "
   style="stroke-width:2;stroke-linecap:round;stroke-linejoin:round"
   id="path6379" />
<path
   d="M 134.99,20.5 L 134.98,20.708 L 134.95,20.913 L 134.89,21.115 L 134.82,21.314 L 134.72,21.509 L 134.61,21.701 L 134.48,21.889 L 134.32,22.072 L 134.15,22.251 L 133.97,22.425 L 133.76,22.594 L 133.54,22.758 L 133.3,22.917 L 133.05,23.069 L 132.79,23.216 L 132.5,23.356 L 132.21,23.49 L 131.9,23.617 L 131.58,23.737 L 131.25,23.849 L 130.9,23.954 L 130.55,24.052 L 130.18,24.141 L 129.8,24.222 L 129.42,24.294 L 129.02,24.357 L 128.62,24.412 L 128.21,24.457 L 127.79,24.493 L 127.37,24.518 L 126.94,24.534 L 126.5,24.539 C 121.81,24.539 118.01,22.73 118.01,20.5 C 118.01,18.27 121.81,16.461 126.5,16.461 C 131.19,16.461 134.99,18.27 134.99,20.5 z "
   style="fill:#ffffff;fill-rule:nonzero;stroke:#ffffff;stroke-width:0;stroke-linecap:round;stroke-linejoin:round"
   id="path6381" />
<path
   d="M 134.99,20.5 L 134.98,20.708 L 134.95,20.913 L 134.89,21.115 L 134.82,21.314 L 134.72,21.509 L 134.61,21.701 L 134.48,21.889 L 134.32,22.072 L 134.15,22.251 L 133.97,22.425 L 133.76,22.594 L 133.54,22.758 L 133.3,22.917 L 133.05,23.069 L 132.79,23.216 L 132.5,23.356 L 132.21,23.49 L 131.9,23.617 L 131.58,23.737 L 131.25,23.849 L 130.9,23.954 L 130.55,24.052 L 130.18,24.141 L 129.8,24.222 L 129.42,24.294 L 129.02,24.357 L 128.62,24.412 L 128.21,24.457 L 127.79,24.493 L 127.37,24.518 L 126.94,24.534 L 126.5,24.539 C 121.81,24.539 118.01,22.73 118.01,20.5 C 118.01,18.27 121.81,16.461 126.5,16.461 C 131.19,16.461 134.99,18.27 134.99,20.5 z "
   style="stroke-width:0.84906;stroke-linecap:round;stroke-linejoin:round"
   id="path6383" />
<text
   transform="matrix(1,0,0,-1,121.19,17.977)"
   style="font-size:8px;fill:#000000;stroke:none;font-family:&quot;Helvetica&quot;, sans-serif"
   id="text6385">30</text>


<text
   transform="matrix(1,0,0,-1,48.023,14.918)"
   style="font-size:16px;fill:#000000;stroke:none;font-family:&quot;Helvetica&quot;, sans-serif"
   id="text6387">XX</text>


<polygon
   points="46.5,160.5 138.5,160.5 184.5,80.5 138.5,0.5 46.5,0.5 0.5,80.5 46.5,160.5 "
   style="stroke-width:1;stroke-linejoin:round"
   id="polygon6389" />
</g></svg>
