<?xml version="1.0" encoding="UTF-8" standalone="no"?>
<svg
   xmlns:dc="http://purl.org/dc/elements/1.1/"
   xmlns:cc="http://web.resource.org/cc/"
   xmlns:rdf="http://www.w3.org/1999/02/22-rdf-syntax-ns#"
   xmlns:svg="http://www.w3.org/2000/svg"
   xmlns="http://www.w3.org/2000/svg"
   xmlns:sodipodi="http://inkscape.sourceforge.net/DTD/sodipodi-0.dtd"
   xmlns:inkscape="http://www.inkscape.org/namespaces/inkscape"
   width="100"
   height="100"
   viewBox="0 0 1 1"
   preserveAspectRatio="none"
   id="svg5507"
   sodipodi:version="0.32"
   inkscape:version="0.43"
   sodipodi:docname="tile-939.svg"
   sodipodi:docbase="C:\Documents and Settings\lentz\Desktop\TileDesigner"
   version="1.0">
  <metadata
     id="metadata5538">
    <rdf:RDF>
      <cc:Work
         rdf:about="">
        <dc:format>image/svg+xml</dc:format>
        <dc:type
           rdf:resource="http://purl.org/dc/dcmitype/StillImage" />
      </cc:Work>
    </rdf:RDF>
  </metadata>
  <defs
     id="defs5536" />
  <sodipodi:namedview
     inkscape:window-height="540"
     inkscape:window-width="749"
     inkscape:pageshadow="2"
     inkscape:pageopacity="0.0"
     borderopacity="1.0"
     bordercolor="#666666"
     pagecolor="#ffffff"
     id="base"
     inkscape:zoom="0.52361111"
     inkscape:cx="360"
     inkscape:cy="360"
     inkscape:window-x="22"
     inkscape:window-y="22"
     inkscape:current-layer="svg5507" />
  <title
     id="title5509">SVG drawing</title>
  <desc
     id="desc5511">This was produced by version 4.1 of GNU libplot, a free library for exporting 2-D vector graphics.</desc>
  <rect
     x="0"
     y="0"
     width="1"
     height="1"
     style="fill:#ffffff;stroke:none"
     id="rect5513" />
  <g
     transform="matrix(5.418114e-3,0,0,-5.739835e-3,-1.175565e-3,0.934679)"
     xml:space="preserve"
     style="font-style:normal;font-variant:normal;font-weight:normal;font-stretch:normal;letter-spacing:normal;word-spacing:normal;text-anchor:start;fill:none;fill-opacity:1;stroke:#000000;stroke-linecap:butt;stroke-linejoin:miter;stroke-miterlimit:10.43299961;stroke-dasharray:none;stroke-dashoffset:0;stroke-opacity:1"
     id="g5515">
<polygon
   points="46.5,160.5 138.5,160.5 184.5,80.5 138.5,0.5 46.5,0.5 0.5,80.5 46.5,160.5 "
   style="fill:#ff0000;fill-rule:nonzero;stroke:#ff0000;stroke-width:0;stroke-linejoin:round"
   id="polygon5517" />
<text
   transform="matrix(1,0,0,-1,107.71,7.9141)"
   style="font-size:8px;fill:#000000;stroke:none;font-family:&quot;Helvetica&quot;, sans-serif"
   id="text5519">-939</text>

<path
   d="M 161.5,120.5 L 161.71,120.13 C 118.9,95.516 92.5,49.887 92.5,0.5"
   style="stroke:#ffffff;stroke-width:16;stroke-linecap:round;stroke-linejoin:round"
   id="path5521" />
<path
   d="M 161.5,40.5 L 161.43,40.375 C 154.46,44.387 146.55,46.5 138.5,46.5 C 113.1,46.5 92.5,25.902 92.5,0.5"
   style="stroke:#ffffff;stroke-width:16;stroke-linecap:round;stroke-linejoin:round"
   id="path5523" />
<path
   d="M 161.5,120.5 L 161.57,120.38 C 147.3,112.18 138.5,96.961 138.5,80.5 C 138.5,64.039 147.3,48.828 161.57,40.625"
   style="stroke:#ffffff;stroke-width:16;stroke-linecap:round;stroke-linejoin:round"
   id="path5525" />
<path
   d="M 161.5,120.5 L 161.71,120.13 C 118.9,95.516 92.5,49.887 92.5,0.5"
   style="stroke-width:12;stroke-linecap:round;stroke-linejoin:round"
   id="path5527" />
<path
   d="M 161.5,40.5 L 161.43,40.375 C 154.46,44.387 146.55,46.5 138.5,46.5 C 113.1,46.5 92.5,25.902 92.5,0.5"
   style="stroke-width:12;stroke-linecap:round;stroke-linejoin:round"
   id="path5529" />
<path
   d="M 161.5,120.5 L 161.57,120.38 C 147.3,112.18 138.5,96.961 138.5,80.5 C 138.5,64.039 147.3,48.828 161.57,40.625"
   style="stroke-width:12;stroke-linecap:round;stroke-linejoin:round"
   id="path5531" />
<polygon
   points="46.5,160.5 138.5,160.5 184.5,80.5 138.5,0.5 46.5,0.5 0.5,80.5 46.5,160.5 "
   style="stroke-width:1;stroke-linejoin:round"
   id="polygon5533" />
</g></svg>
