<?xml version="1.0" encoding="UTF-8" standalone="no"?>
<svg
   xmlns:dc="http://purl.org/dc/elements/1.1/"
   xmlns:cc="http://web.resource.org/cc/"
   xmlns:rdf="http://www.w3.org/1999/02/22-rdf-syntax-ns#"
   xmlns:svg="http://www.w3.org/2000/svg"
   xmlns="http://www.w3.org/2000/svg"
   xmlns:sodipodi="http://sodipodi.sourceforge.net/DTD/sodipodi-0.dtd"
   xmlns:inkscape="http://www.inkscape.org/namespaces/inkscape"
   width="100"
   height="100"
   viewBox="0 0 1 1"
   preserveAspectRatio="none"
   id="svg2793"
   sodipodi:version="0.32"
   inkscape:version="0.45.1"
   sodipodi:docname="tile124.svg"
   sodipodi:docbase="C:\Documents and Settings\Brett\workspace\18xx\tiles\svg"
   version="1.0"
   inkscape:output_extension="org.inkscape.output.svg.inkscape">
  <metadata
     id="metadata2876">
    <rdf:RDF>
      <cc:Work
         rdf:about="">
        <dc:format>image/svg+xml</dc:format>
        <dc:type
           rdf:resource="http://purl.org/dc/dcmitype/StillImage" />
      </cc:Work>
    </rdf:RDF>
  </metadata>
  <defs
     id="defs2874" />
  <sodipodi:namedview
     inkscape:window-height="579"
     inkscape:window-width="749"
     inkscape:pageshadow="2"
     inkscape:pageopacity="0.0"
     borderopacity="1.0"
     bordercolor="#666666"
     pagecolor="#ffffff"
     id="base"
     inkscape:zoom="2.5053797"
     inkscape:cx="57.29443"
     inkscape:cy="41.061008"
     inkscape:window-x="22"
     inkscape:window-y="22"
     inkscape:current-layer="svg2793" />
  <title
     id="title2795">SVG drawing</title>
  <desc
     id="desc2797">This was produced by version 4.1 of GNU libplot, a free library for exporting 2-D vector graphics.</desc>
  <g
     transform="matrix(5.4158979e-3,0,0,-6.1754608e-3,-9.7057488e-4,0.9977924)"
     xml:space="preserve"
     style="font-style:normal;font-variant:normal;font-weight:normal;font-stretch:normal;letter-spacing:normal;word-spacing:normal;text-anchor:start;fill:none;fill-opacity:1;stroke:#000000;stroke-linecap:butt;stroke-linejoin:miter;stroke-miterlimit:10.43299961;stroke-dasharray:none;stroke-dashoffset:0;stroke-opacity:1"
     id="g2801">
<polygon
   points="46.5,160.5 138.5,160.5 184.5,80.5 138.5,0.5 46.5,0.5 0.5,80.5 46.5,160.5 "
   style="fill:#808080;fill-rule:nonzero;stroke:#808080;stroke-width:0;stroke-linejoin:round"
   id="polygon2803" />
<text
   transform="matrix(1,0,0,-1,109.17,7.9141)"
   style="font-size:8px;fill:#000000;stroke:none;font-family:&quot;Helvetica&quot;, sans-serif"
   id="text2805">124</text>


<polygon
   points="68.5,32.5 116.5,32.5 140.5,56.5 140.5,104.5 116.5,128.5 68.5,128.5 44.5,104.5 44.5,56.5 68.5,32.5 "
   style="fill:#ffffff;fill-rule:nonzero;stroke:#ffffff;stroke-width:0;stroke-linejoin:round"
   id="polygon2807" />
<polygon
   points="68.5,32.5 116.5,32.5 140.5,56.5 140.5,104.5 116.5,128.5 68.5,128.5 44.5,104.5 44.5,56.5 68.5,32.5 "
   style="stroke:#ffffff;stroke-width:6;stroke-linejoin:round"
   id="polygon2809" />
<path
   d="M 92.5,56.5 L 92.469,57.735 L 92.376,58.954 L 92.223,60.155 L 92.012,61.337 L 91.744,62.498 L 91.421,63.637 L 91.044,64.752 L 90.614,65.841 L 90.133,66.905 L 89.603,67.939 L 89.025,68.944 L 88.401,69.918 L 87.732,70.859 L 87.019,71.766 L 86.265,72.637 L 85.47,73.47 L 84.637,74.265 L 83.766,75.019 L 82.859,75.732 L 81.918,76.401 L 80.944,77.025 L 79.939,77.603 L 78.905,78.133 L 77.841,78.614 L 76.752,79.044 L 75.637,79.421 L 74.498,79.744 L 73.337,80.012 L 72.155,80.223 L 70.954,80.376 L 69.735,80.469 L 68.5,80.5 C 55.246,80.5 44.5,69.754 44.5,56.5 C 44.5,43.246 55.246,32.5 68.5,32.5 C 81.754,32.5 92.5,43.246 92.5,56.5 z "
   style="fill:#ffffff;fill-rule:nonzero;stroke:#ffffff;stroke-width:0;stroke-linecap:round;stroke-linejoin:round"
   id="path2811" />
<path
   d="M 92.5,56.5 L 92.469,57.735 L 92.376,58.954 L 92.223,60.155 L 92.012,61.337 L 91.744,62.498 L 91.421,63.637 L 91.044,64.752 L 90.614,65.841 L 90.133,66.905 L 89.603,67.939 L 89.025,68.944 L 88.401,69.918 L 87.732,70.859 L 87.019,71.766 L 86.265,72.637 L 85.47,73.47 L 84.637,74.265 L 83.766,75.019 L 82.859,75.732 L 81.918,76.401 L 80.944,77.025 L 79.939,77.603 L 78.905,78.133 L 77.841,78.614 L 76.752,79.044 L 75.637,79.421 L 74.498,79.744 L 73.337,80.012 L 72.155,80.223 L 70.954,80.376 L 69.735,80.469 L 68.5,80.5 C 55.246,80.5 44.5,69.754 44.5,56.5 C 44.5,43.246 55.246,32.5 68.5,32.5 C 81.754,32.5 92.5,43.246 92.5,56.5 z "
   style="stroke:#ffffff;stroke-width:6;stroke-linecap:round;stroke-linejoin:round"
   id="path2813" />
<path
   d="M 140.5,56.5 L 140.47,57.735 L 140.38,58.954 L 140.22,60.155 L 140.01,61.337 L 139.74,62.498 L 139.42,63.637 L 139.04,64.752 L 138.61,65.841 L 138.13,66.905 L 137.6,67.939 L 137.03,68.944 L 136.4,69.918 L 135.73,70.859 L 135.02,71.766 L 134.26,72.637 L 133.47,73.47 L 132.64,74.265 L 131.77,75.019 L 130.86,75.732 L 129.92,76.401 L 128.94,77.025 L 127.94,77.603 L 126.9,78.133 L 125.84,78.614 L 124.75,79.044 L 123.64,79.421 L 122.5,79.744 L 121.34,80.012 L 120.15,80.223 L 118.95,80.376 L 117.73,80.469 L 116.5,80.5 C 103.25,80.5 92.5,69.754 92.5,56.5 C 92.5,43.246 103.25,32.5 116.5,32.5 C 129.75,32.5 140.5,43.246 140.5,56.5 z "
   style="fill:#ffffff;fill-rule:nonzero;stroke:#ffffff;stroke-width:0;stroke-linecap:round;stroke-linejoin:round"
   id="path2815" />
<path
   d="M 140.5,56.5 L 140.47,57.735 L 140.38,58.954 L 140.22,60.155 L 140.01,61.337 L 139.74,62.498 L 139.42,63.637 L 139.04,64.752 L 138.61,65.841 L 138.13,66.905 L 137.6,67.939 L 137.03,68.944 L 136.4,69.918 L 135.73,70.859 L 135.02,71.766 L 134.26,72.637 L 133.47,73.47 L 132.64,74.265 L 131.77,75.019 L 130.86,75.732 L 129.92,76.401 L 128.94,77.025 L 127.94,77.603 L 126.9,78.133 L 125.84,78.614 L 124.75,79.044 L 123.64,79.421 L 122.5,79.744 L 121.34,80.012 L 120.15,80.223 L 118.95,80.376 L 117.73,80.469 L 116.5,80.5 C 103.25,80.5 92.5,69.754 92.5,56.5 C 92.5,43.246 103.25,32.5 116.5,32.5 C 129.75,32.5 140.5,43.246 140.5,56.5 z "
   style="stroke:#ffffff;stroke-width:6;stroke-linecap:round;stroke-linejoin:round"
   id="path2817" />
<path
   d="M 140.5,104.5 L 140.47,105.73 L 140.38,106.95 L 140.22,108.15 L 140.01,109.34 L 139.74,110.5 L 139.42,111.64 L 139.04,112.75 L 138.61,113.84 L 138.13,114.9 L 137.6,115.94 L 137.03,116.94 L 136.4,117.92 L 135.73,118.86 L 135.02,119.77 L 134.26,120.64 L 133.47,121.47 L 132.64,122.26 L 131.77,123.02 L 130.86,123.73 L 129.92,124.4 L 128.94,125.03 L 127.94,125.6 L 126.9,126.13 L 125.84,126.61 L 124.75,127.04 L 123.64,127.42 L 122.5,127.74 L 121.34,128.01 L 120.15,128.22 L 118.95,128.38 L 117.73,128.47 L 116.5,128.5 C 103.25,128.5 92.5,117.75 92.5,104.5 C 92.5,91.246 103.25,80.5 116.5,80.5 C 129.75,80.5 140.5,91.246 140.5,104.5 z "
   style="fill:#ffffff;fill-rule:nonzero;stroke:#ffffff;stroke-width:0;stroke-linecap:round;stroke-linejoin:round"
   id="path2819" />
<path
   d="M 140.5,104.5 L 140.47,105.73 L 140.38,106.95 L 140.22,108.15 L 140.01,109.34 L 139.74,110.5 L 139.42,111.64 L 139.04,112.75 L 138.61,113.84 L 138.13,114.9 L 137.6,115.94 L 137.03,116.94 L 136.4,117.92 L 135.73,118.86 L 135.02,119.77 L 134.26,120.64 L 133.47,121.47 L 132.64,122.26 L 131.77,123.02 L 130.86,123.73 L 129.92,124.4 L 128.94,125.03 L 127.94,125.6 L 126.9,126.13 L 125.84,126.61 L 124.75,127.04 L 123.64,127.42 L 122.5,127.74 L 121.34,128.01 L 120.15,128.22 L 118.95,128.38 L 117.73,128.47 L 116.5,128.5 C 103.25,128.5 92.5,117.75 92.5,104.5 C 92.5,91.246 103.25,80.5 116.5,80.5 C 129.75,80.5 140.5,91.246 140.5,104.5 z "
   style="stroke:#ffffff;stroke-width:6;stroke-linecap:round;stroke-linejoin:round"
   id="path2821" />
<path
   d="M 92.5,104.5 L 92.469,105.73 L 92.376,106.95 L 92.223,108.15 L 92.012,109.34 L 91.744,110.5 L 91.421,111.64 L 91.044,112.75 L 90.614,113.84 L 90.133,114.9 L 89.603,115.94 L 89.025,116.94 L 88.401,117.92 L 87.732,118.86 L 87.019,119.77 L 86.265,120.64 L 85.47,121.47 L 84.637,122.26 L 83.766,123.02 L 82.859,123.73 L 81.918,124.4 L 80.944,125.03 L 79.939,125.6 L 78.905,126.13 L 77.841,126.61 L 76.752,127.04 L 75.637,127.42 L 74.498,127.74 L 73.337,128.01 L 72.155,128.22 L 70.954,128.38 L 69.735,128.47 L 68.5,128.5 C 55.246,128.5 44.5,117.75 44.5,104.5 C 44.5,91.246 55.246,80.5 68.5,80.5 C 81.754,80.5 92.5,91.246 92.5,104.5 z "
   style="fill:#ffffff;fill-rule:nonzero;stroke:#ffffff;stroke-width:0;stroke-linecap:round;stroke-linejoin:round"
   id="path2823" />
<path
   d="M 92.5,104.5 L 92.469,105.73 L 92.376,106.95 L 92.223,108.15 L 92.012,109.34 L 91.744,110.5 L 91.421,111.64 L 91.044,112.75 L 90.614,113.84 L 90.133,114.9 L 89.603,115.94 L 89.025,116.94 L 88.401,117.92 L 87.732,118.86 L 87.019,119.77 L 86.265,120.64 L 85.47,121.47 L 84.637,122.26 L 83.766,123.02 L 82.859,123.73 L 81.918,124.4 L 80.944,125.03 L 79.939,125.6 L 78.905,126.13 L 77.841,126.61 L 76.752,127.04 L 75.637,127.42 L 74.498,127.74 L 73.337,128.01 L 72.155,128.22 L 70.954,128.38 L 69.735,128.47 L 68.5,128.5 C 55.246,128.5 44.5,117.75 44.5,104.5 C 44.5,91.246 55.246,80.5 68.5,80.5 C 81.754,80.5 92.5,91.246 92.5,104.5 z "
   style="stroke:#ffffff;stroke-width:6;stroke-linecap:round;stroke-linejoin:round"
   id="path2825" />
<line
   x1="92.5"
   y1="80.5"
   x2="92.5"
   y2="160.5"
   style="stroke:#ffffff;stroke-width:16;stroke-linecap:round"
   id="line2827" />
<line
   x1="92.5"
   y1="80.5"
   x2="161.5"
   y2="120.5"
   style="stroke:#ffffff;stroke-width:16;stroke-linecap:round"
   id="line2829" />
<line
   x1="92.5"
   y1="80.5"
   x2="161.5"
   y2="40.5"
   style="stroke:#ffffff;stroke-width:16;stroke-linecap:round"
   id="line2831" />
<line
   x1="92.5"
   y1="80.5"
   x2="92.5"
   y2="0.5"
   style="stroke:#ffffff;stroke-width:16;stroke-linecap:round"
   id="line2833" />
<line
   x1="92.5"
   y1="80.5"
   x2="92.5"
   y2="160.5"
   style="stroke-width:12;stroke-linecap:round"
   id="line2835" />
<line
   x1="92.5"
   y1="80.5"
   x2="161.5"
   y2="120.5"
   style="stroke-width:12;stroke-linecap:round"
   id="line2837" />
<line
   x1="92.5"
   y1="80.5"
   x2="161.5"
   y2="40.5"
   style="stroke-width:12;stroke-linecap:round"
   id="line2839" />
<line
   x1="92.5"
   y1="80.5"
   x2="92.5"
   y2="0.5"
   style="stroke-width:12;stroke-linecap:round"
   id="line2841" />
<polygon
   points="68.5,32.5 116.5,32.5 140.5,56.5 140.5,104.5 116.5,128.5 68.5,128.5 44.5,104.5 44.5,56.5 68.5,32.5 "
   style="fill:#ffffff;fill-rule:nonzero;stroke:#ffffff;stroke-width:0;stroke-linejoin:round"
   id="polygon2843" />
<polygon
   points="68.5,32.5 116.5,32.5 140.5,56.5 140.5,104.5 116.5,128.5 68.5,128.5 44.5,104.5 44.5,56.5 68.5,32.5 "
   style="stroke-width:2;stroke-linejoin:round"
   id="polygon2845" />
<path
   d="M 92.5,56.5 L 92.469,57.735 L 92.376,58.954 L 92.223,60.155 L 92.012,61.337 L 91.744,62.498 L 91.421,63.637 L 91.044,64.752 L 90.614,65.841 L 90.133,66.905 L 89.603,67.939 L 89.025,68.944 L 88.401,69.918 L 87.732,70.859 L 87.019,71.766 L 86.265,72.637 L 85.47,73.47 L 84.637,74.265 L 83.766,75.019 L 82.859,75.732 L 81.918,76.401 L 80.944,77.025 L 79.939,77.603 L 78.905,78.133 L 77.841,78.614 L 76.752,79.044 L 75.637,79.421 L 74.498,79.744 L 73.337,80.012 L 72.155,80.223 L 70.954,80.376 L 69.735,80.469 L 68.5,80.5 C 55.246,80.5 44.5,69.754 44.5,56.5 C 44.5,43.246 55.246,32.5 68.5,32.5 C 81.754,32.5 92.5,43.246 92.5,56.5 z "
   style="fill:#ffffff;fill-rule:nonzero;stroke:#ffffff;stroke-width:0;stroke-linecap:round;stroke-linejoin:round"
   id="path2847" />
<path
   d="M 92.5,56.5 L 92.469,57.735 L 92.376,58.954 L 92.223,60.155 L 92.012,61.337 L 91.744,62.498 L 91.421,63.637 L 91.044,64.752 L 90.614,65.841 L 90.133,66.905 L 89.603,67.939 L 89.025,68.944 L 88.401,69.918 L 87.732,70.859 L 87.019,71.766 L 86.265,72.637 L 85.47,73.47 L 84.637,74.265 L 83.766,75.019 L 82.859,75.732 L 81.918,76.401 L 80.944,77.025 L 79.939,77.603 L 78.905,78.133 L 77.841,78.614 L 76.752,79.044 L 75.637,79.421 L 74.498,79.744 L 73.337,80.012 L 72.155,80.223 L 70.954,80.376 L 69.735,80.469 L 68.5,80.5 C 55.246,80.5 44.5,69.754 44.5,56.5 C 44.5,43.246 55.246,32.5 68.5,32.5 C 81.754,32.5 92.5,43.246 92.5,56.5 z "
   style="stroke-width:2;stroke-linecap:round;stroke-linejoin:round"
   id="path2849" />
<path
   d="M 140.5,56.5 L 140.47,57.735 L 140.38,58.954 L 140.22,60.155 L 140.01,61.337 L 139.74,62.498 L 139.42,63.637 L 139.04,64.752 L 138.61,65.841 L 138.13,66.905 L 137.6,67.939 L 137.03,68.944 L 136.4,69.918 L 135.73,70.859 L 135.02,71.766 L 134.26,72.637 L 133.47,73.47 L 132.64,74.265 L 131.77,75.019 L 130.86,75.732 L 129.92,76.401 L 128.94,77.025 L 127.94,77.603 L 126.9,78.133 L 125.84,78.614 L 124.75,79.044 L 123.64,79.421 L 122.5,79.744 L 121.34,80.012 L 120.15,80.223 L 118.95,80.376 L 117.73,80.469 L 116.5,80.5 C 103.25,80.5 92.5,69.754 92.5,56.5 C 92.5,43.246 103.25,32.5 116.5,32.5 C 129.75,32.5 140.5,43.246 140.5,56.5 z "
   style="fill:#ffffff;fill-rule:nonzero;stroke:#ffffff;stroke-width:0;stroke-linecap:round;stroke-linejoin:round"
   id="path2851" />
<path
   d="M 140.5,56.5 L 140.47,57.735 L 140.38,58.954 L 140.22,60.155 L 140.01,61.337 L 139.74,62.498 L 139.42,63.637 L 139.04,64.752 L 138.61,65.841 L 138.13,66.905 L 137.6,67.939 L 137.03,68.944 L 136.4,69.918 L 135.73,70.859 L 135.02,71.766 L 134.26,72.637 L 133.47,73.47 L 132.64,74.265 L 131.77,75.019 L 130.86,75.732 L 129.92,76.401 L 128.94,77.025 L 127.94,77.603 L 126.9,78.133 L 125.84,78.614 L 124.75,79.044 L 123.64,79.421 L 122.5,79.744 L 121.34,80.012 L 120.15,80.223 L 118.95,80.376 L 117.73,80.469 L 116.5,80.5 C 103.25,80.5 92.5,69.754 92.5,56.5 C 92.5,43.246 103.25,32.5 116.5,32.5 C 129.75,32.5 140.5,43.246 140.5,56.5 z "
   style="stroke-width:2;stroke-linecap:round;stroke-linejoin:round"
   id="path2853" />
<path
   d="M 140.5,104.5 L 140.47,105.73 L 140.38,106.95 L 140.22,108.15 L 140.01,109.34 L 139.74,110.5 L 139.42,111.64 L 139.04,112.75 L 138.61,113.84 L 138.13,114.9 L 137.6,115.94 L 137.03,116.94 L 136.4,117.92 L 135.73,118.86 L 135.02,119.77 L 134.26,120.64 L 133.47,121.47 L 132.64,122.26 L 131.77,123.02 L 130.86,123.73 L 129.92,124.4 L 128.94,125.03 L 127.94,125.6 L 126.9,126.13 L 125.84,126.61 L 124.75,127.04 L 123.64,127.42 L 122.5,127.74 L 121.34,128.01 L 120.15,128.22 L 118.95,128.38 L 117.73,128.47 L 116.5,128.5 C 103.25,128.5 92.5,117.75 92.5,104.5 C 92.5,91.246 103.25,80.5 116.5,80.5 C 129.75,80.5 140.5,91.246 140.5,104.5 z "
   style="fill:#ffffff;fill-rule:nonzero;stroke:#ffffff;stroke-width:0;stroke-linecap:round;stroke-linejoin:round"
   id="path2855" />
<path
   d="M 140.5,104.5 L 140.47,105.73 L 140.38,106.95 L 140.22,108.15 L 140.01,109.34 L 139.74,110.5 L 139.42,111.64 L 139.04,112.75 L 138.61,113.84 L 138.13,114.9 L 137.6,115.94 L 137.03,116.94 L 136.4,117.92 L 135.73,118.86 L 135.02,119.77 L 134.26,120.64 L 133.47,121.47 L 132.64,122.26 L 131.77,123.02 L 130.86,123.73 L 129.92,124.4 L 128.94,125.03 L 127.94,125.6 L 126.9,126.13 L 125.84,126.61 L 124.75,127.04 L 123.64,127.42 L 122.5,127.74 L 121.34,128.01 L 120.15,128.22 L 118.95,128.38 L 117.73,128.47 L 116.5,128.5 C 103.25,128.5 92.5,117.75 92.5,104.5 C 92.5,91.246 103.25,80.5 116.5,80.5 C 129.75,80.5 140.5,91.246 140.5,104.5 z "
   style="stroke-width:2;stroke-linecap:round;stroke-linejoin:round"
   id="path2857" />
<path
   d="M 92.5,104.5 L 92.469,105.73 L 92.376,106.95 L 92.223,108.15 L 92.012,109.34 L 91.744,110.5 L 91.421,111.64 L 91.044,112.75 L 90.614,113.84 L 90.133,114.9 L 89.603,115.94 L 89.025,116.94 L 88.401,117.92 L 87.732,118.86 L 87.019,119.77 L 86.265,120.64 L 85.47,121.47 L 84.637,122.26 L 83.766,123.02 L 82.859,123.73 L 81.918,124.4 L 80.944,125.03 L 79.939,125.6 L 78.905,126.13 L 77.841,126.61 L 76.752,127.04 L 75.637,127.42 L 74.498,127.74 L 73.337,128.01 L 72.155,128.22 L 70.954,128.38 L 69.735,128.47 L 68.5,128.5 C 55.246,128.5 44.5,117.75 44.5,104.5 C 44.5,91.246 55.246,80.5 68.5,80.5 C 81.754,80.5 92.5,91.246 92.5,104.5 z "
   style="fill:#ffffff;fill-rule:nonzero;stroke:#ffffff;stroke-width:0;stroke-linecap:round;stroke-linejoin:round"
   id="path2859" />
<path
   d="M 92.5,104.5 L 92.469,105.73 L 92.376,106.95 L 92.223,108.15 L 92.012,109.34 L 91.744,110.5 L 91.421,111.64 L 91.044,112.75 L 90.614,113.84 L 90.133,114.9 L 89.603,115.94 L 89.025,116.94 L 88.401,117.92 L 87.732,118.86 L 87.019,119.77 L 86.265,120.64 L 85.47,121.47 L 84.637,122.26 L 83.766,123.02 L 82.859,123.73 L 81.918,124.4 L 80.944,125.03 L 79.939,125.6 L 78.905,126.13 L 77.841,126.61 L 76.752,127.04 L 75.637,127.42 L 74.498,127.74 L 73.337,128.01 L 72.155,128.22 L 70.954,128.38 L 69.735,128.47 L 68.5,128.5 C 55.246,128.5 44.5,117.75 44.5,104.5 C 44.5,91.246 55.246,80.5 68.5,80.5 C 81.754,80.5 92.5,91.246 92.5,104.5 z "
   style="stroke-width:2;stroke-linecap:round;stroke-linejoin:round"
   id="path2861" />
<path
   d="M 138.99,140.5 L 138.98,140.71 L 138.93,140.91 L 138.85,141.11 L 138.74,141.31 L 138.6,141.51 L 138.43,141.7 L 138.23,141.89 L 138.01,142.07 L 137.76,142.25 L 137.48,142.42 L 137.18,142.59 L 136.86,142.76 L 136.51,142.92 L 136.14,143.07 L 135.75,143.22 L 135.33,143.36 L 134.9,143.49 L 134.45,143.62 L 133.97,143.74 L 133.48,143.85 L 132.98,143.95 L 132.45,144.05 L 131.92,144.14 L 131.36,144.22 L 130.79,144.29 L 130.21,144.36 L 129.62,144.41 L 129.02,144.46 L 128.4,144.49 L 127.78,144.52 L 127.14,144.53 L 126.5,144.54 C 119.6,144.54 114.01,142.73 114.01,140.5 C 114.01,138.27 119.6,136.46 126.5,136.46 C 133.4,136.46 138.99,138.27 138.99,140.5 z "
   style="fill:#ffffff;fill-rule:nonzero;stroke:#ffffff;stroke-width:0;stroke-linecap:round;stroke-linejoin:round"
   id="path2863" />
<path
   d="M 138.99,140.5 L 138.98,140.71 L 138.93,140.91 L 138.85,141.11 L 138.74,141.31 L 138.6,141.51 L 138.43,141.7 L 138.23,141.89 L 138.01,142.07 L 137.76,142.25 L 137.48,142.42 L 137.18,142.59 L 136.86,142.76 L 136.51,142.92 L 136.14,143.07 L 135.75,143.22 L 135.33,143.36 L 134.9,143.49 L 134.45,143.62 L 133.97,143.74 L 133.48,143.85 L 132.98,143.95 L 132.45,144.05 L 131.92,144.14 L 131.36,144.22 L 130.79,144.29 L 130.21,144.36 L 129.62,144.41 L 129.02,144.46 L 128.4,144.49 L 127.78,144.52 L 127.14,144.53 L 126.5,144.54 C 119.6,144.54 114.01,142.73 114.01,140.5 C 114.01,138.27 119.6,136.46 126.5,136.46 C 133.4,136.46 138.99,138.27 138.99,140.5 z "
   style="stroke-width:1.24909997;stroke-linecap:round;stroke-linejoin:round"
   id="path2865" />
<text
   transform="matrix(1,0,0,-1,118.69,137.98)"
   style="font-size:8px;fill:#000000;stroke:none;font-family:&quot;Helvetica&quot;, sans-serif"
   id="text2867">100</text>


<text
   transform="matrix(1,0,0,-1,10.789,74.918)"
   style="font-size:16px;fill:#000000;stroke:none;font-family:&quot;Helvetica&quot;, sans-serif"
   id="text2869">Tor</text>


<polygon
   points="46.5,160.5 138.5,160.5 184.5,80.5 138.5,0.5 46.5,0.5 0.5,80.5 46.5,160.5 "
   style="stroke-width:1;stroke-linejoin:round"
   id="polygon2871" />
</g></svg>
