<?xml version="1.0" encoding="UTF-8" standalone="no"?>
<svg
   xmlns:dc="http://purl.org/dc/elements/1.1/"
   xmlns:cc="http://web.resource.org/cc/"
   xmlns:rdf="http://www.w3.org/1999/02/22-rdf-syntax-ns#"
   xmlns:svg="http://www.w3.org/2000/svg"
   xmlns="http://www.w3.org/2000/svg"
   xmlns:sodipodi="http://inkscape.sourceforge.net/DTD/sodipodi-0.dtd"
   xmlns:inkscape="http://www.inkscape.org/namespaces/inkscape"
   width="100"
   height="100"
   viewBox="0 0 1 1"
   preserveAspectRatio="none"
   id="svg2497"
   sodipodi:version="0.32"
   inkscape:version="0.43"
   sodipodi:docname="tile10.svg"
   sodipodi:docbase="C:\Documents and Settings\lentz\Desktop\TileDesigner"
   version="1.0">
  <metadata
     id="metadata2552">
    <rdf:RDF>
      <cc:Work
         rdf:about="">
        <dc:format>image/svg+xml</dc:format>
        <dc:type
           rdf:resource="http://purl.org/dc/dcmitype/StillImage" />
      </cc:Work>
    </rdf:RDF>
  </metadata>
  <defs
     id="defs2550" />
  <sodipodi:namedview
     inkscape:window-height="540"
     inkscape:window-width="749"
     inkscape:pageshadow="2"
     inkscape:pageopacity="0.0"
     borderopacity="1.0"
     bordercolor="#666666"
     pagecolor="#ffffff"
     id="base"
     inkscape:zoom="0.52361111"
     inkscape:cx="360"
     inkscape:cy="360"
     inkscape:window-x="176"
     inkscape:window-y="176"
     inkscape:current-layer="svg2497" />
  <title
     id="title2499">SVG drawing</title>
  <desc
     id="desc2501">This was produced by version 4.1 of GNU libplot, a free library for exporting 2-D vector graphics.</desc>
  <g
     transform="matrix(5.418114e-3,0,0,-6.213736e-3,-1.175565e-3,1.000871)"
     xml:space="preserve"
     style="font-style:normal;font-variant:normal;font-weight:normal;font-stretch:normal;letter-spacing:normal;word-spacing:normal;text-anchor:start;fill:none;fill-opacity:1;stroke:#000000;stroke-linecap:butt;stroke-linejoin:miter;stroke-miterlimit:10.43299961;stroke-dasharray:none;stroke-dashoffset:0;stroke-opacity:1"
     id="g2505">
<polygon
   points="46.5,160.5 138.5,160.5 184.5,80.5 138.5,0.5 46.5,0.5 0.5,80.5 46.5,160.5 "
   style="fill:#38ac00;fill-rule:nonzero;stroke:#38ac00;stroke-width:0;stroke-linejoin:round"
   id="polygon2507" />
<text
   transform="matrix(1,0,0,-1,111.22,7.9141)"
   style="font-size:8px;fill:#000000;stroke:none;font-family:&quot;Helvetica&quot;, sans-serif"
   id="text2509">10</text>

<path
   d="M 93.5,120.5 L 93.469,121.73 L 93.376,122.95 L 93.223,124.15 L 93.012,125.34 L 92.744,126.5 L 92.421,127.64 L 92.044,128.75 L 91.614,129.84 L 91.133,130.9 L 90.603,131.94 L 90.025,132.94 L 89.401,133.92 L 88.732,134.86 L 88.019,135.77 L 87.265,136.64 L 86.47,137.47 L 85.637,138.26 L 84.766,139.02 L 83.859,139.73 L 82.918,140.4 L 81.944,141.03 L 80.939,141.6 L 79.905,142.13 L 78.841,142.61 L 77.752,143.04 L 76.637,143.42 L 75.498,143.74 L 74.337,144.01 L 73.155,144.22 L 71.954,144.38 L 70.735,144.47 L 69.5,144.5 C 56.246,144.5 45.5,133.75 45.5,120.5 C 45.5,107.25 56.246,96.5 69.5,96.5 C 82.754,96.5 93.5,107.25 93.5,120.5 z "
   style="fill:#ffffff;fill-rule:nonzero;stroke:#ffffff;stroke-width:0;stroke-linecap:round;stroke-linejoin:round"
   id="path2511" />
<path
   d="M 93.5,120.5 L 93.469,121.73 L 93.376,122.95 L 93.223,124.15 L 93.012,125.34 L 92.744,126.5 L 92.421,127.64 L 92.044,128.75 L 91.614,129.84 L 91.133,130.9 L 90.603,131.94 L 90.025,132.94 L 89.401,133.92 L 88.732,134.86 L 88.019,135.77 L 87.265,136.64 L 86.47,137.47 L 85.637,138.26 L 84.766,139.02 L 83.859,139.73 L 82.918,140.4 L 81.944,141.03 L 80.939,141.6 L 79.905,142.13 L 78.841,142.61 L 77.752,143.04 L 76.637,143.42 L 75.498,143.74 L 74.337,144.01 L 73.155,144.22 L 71.954,144.38 L 70.735,144.47 L 69.5,144.5 C 56.246,144.5 45.5,133.75 45.5,120.5 C 45.5,107.25 56.246,96.5 69.5,96.5 C 82.754,96.5 93.5,107.25 93.5,120.5 z "
   style="stroke:#ffffff;stroke-width:6;stroke-linecap:round;stroke-linejoin:round"
   id="path2513" />
<path
   d="M 139.5,40.5 L 139.47,41.735 L 139.38,42.954 L 139.22,44.155 L 139.01,45.337 L 138.74,46.498 L 138.42,47.637 L 138.04,48.752 L 137.61,49.841 L 137.13,50.905 L 136.6,51.939 L 136.03,52.944 L 135.4,53.918 L 134.73,54.859 L 134.02,55.766 L 133.26,56.637 L 132.47,57.47 L 131.64,58.265 L 130.77,59.019 L 129.86,59.732 L 128.92,60.401 L 127.94,61.025 L 126.94,61.603 L 125.9,62.133 L 124.84,62.614 L 123.75,63.044 L 122.64,63.421 L 121.5,63.744 L 120.34,64.012 L 119.15,64.223 L 117.95,64.376 L 116.73,64.469 L 115.5,64.5 C 102.25,64.5 91.5,53.754 91.5,40.5 C 91.5,27.246 102.25,16.5 115.5,16.5 C 128.75,16.5 139.5,27.246 139.5,40.5 z "
   style="fill:#ffffff;fill-rule:nonzero;stroke:#ffffff;stroke-width:0;stroke-linecap:round;stroke-linejoin:round"
   id="path2515" />
<path
   d="M 139.5,40.5 L 139.47,41.735 L 139.38,42.954 L 139.22,44.155 L 139.01,45.337 L 138.74,46.498 L 138.42,47.637 L 138.04,48.752 L 137.61,49.841 L 137.13,50.905 L 136.6,51.939 L 136.03,52.944 L 135.4,53.918 L 134.73,54.859 L 134.02,55.766 L 133.26,56.637 L 132.47,57.47 L 131.64,58.265 L 130.77,59.019 L 129.86,59.732 L 128.92,60.401 L 127.94,61.025 L 126.94,61.603 L 125.9,62.133 L 124.84,62.614 L 123.75,63.044 L 122.64,63.421 L 121.5,63.744 L 120.34,64.012 L 119.15,64.223 L 117.95,64.376 L 116.73,64.469 L 115.5,64.5 C 102.25,64.5 91.5,53.754 91.5,40.5 C 91.5,27.246 102.25,16.5 115.5,16.5 C 128.75,16.5 139.5,27.246 139.5,40.5 z "
   style="stroke:#ffffff;stroke-width:6;stroke-linecap:round;stroke-linejoin:round"
   id="path2517" />
<path
   d="M 23.5,120.5 L 23.57,120.62 C 30.547,116.61 38.457,114.5 46.5,114.5 C 54.547,114.5 62.457,116.61 69.434,120.62"
   style="stroke:#ffffff;stroke-width:16;stroke-linecap:round;stroke-linejoin:round"
   id="path2519" />
<path
   d="M 161.5,40.5 L 161.43,40.375 C 154.46,44.387 146.55,46.5 138.5,46.5 C 130.46,46.5 122.55,44.387 115.57,40.379"
   style="stroke:#ffffff;stroke-width:16;stroke-linecap:round;stroke-linejoin:round"
   id="path2521" />
<path
   d="M 23.5,120.5 L 23.57,120.62 C 30.547,116.61 38.457,114.5 46.5,114.5 C 54.547,114.5 62.457,116.61 69.434,120.62"
   style="stroke-width:12;stroke-linecap:round;stroke-linejoin:round"
   id="path2523" />
<path
   d="M 161.5,40.5 L 161.43,40.375 C 154.46,44.387 146.55,46.5 138.5,46.5 C 130.46,46.5 122.55,44.387 115.57,40.379"
   style="stroke-width:12;stroke-linecap:round;stroke-linejoin:round"
   id="path2525" />
<path
   d="M 93.5,120.5 L 93.469,121.73 L 93.376,122.95 L 93.223,124.15 L 93.012,125.34 L 92.744,126.5 L 92.421,127.64 L 92.044,128.75 L 91.614,129.84 L 91.133,130.9 L 90.603,131.94 L 90.025,132.94 L 89.401,133.92 L 88.732,134.86 L 88.019,135.77 L 87.265,136.64 L 86.47,137.47 L 85.637,138.26 L 84.766,139.02 L 83.859,139.73 L 82.918,140.4 L 81.944,141.03 L 80.939,141.6 L 79.905,142.13 L 78.841,142.61 L 77.752,143.04 L 76.637,143.42 L 75.498,143.74 L 74.337,144.01 L 73.155,144.22 L 71.954,144.38 L 70.735,144.47 L 69.5,144.5 C 56.246,144.5 45.5,133.75 45.5,120.5 C 45.5,107.25 56.246,96.5 69.5,96.5 C 82.754,96.5 93.5,107.25 93.5,120.5 z "
   style="fill:#ffffff;fill-rule:nonzero;stroke:#ffffff;stroke-width:0;stroke-linecap:round;stroke-linejoin:round"
   id="path2527" />
<path
   d="M 93.5,120.5 L 93.469,121.73 L 93.376,122.95 L 93.223,124.15 L 93.012,125.34 L 92.744,126.5 L 92.421,127.64 L 92.044,128.75 L 91.614,129.84 L 91.133,130.9 L 90.603,131.94 L 90.025,132.94 L 89.401,133.92 L 88.732,134.86 L 88.019,135.77 L 87.265,136.64 L 86.47,137.47 L 85.637,138.26 L 84.766,139.02 L 83.859,139.73 L 82.918,140.4 L 81.944,141.03 L 80.939,141.6 L 79.905,142.13 L 78.841,142.61 L 77.752,143.04 L 76.637,143.42 L 75.498,143.74 L 74.337,144.01 L 73.155,144.22 L 71.954,144.38 L 70.735,144.47 L 69.5,144.5 C 56.246,144.5 45.5,133.75 45.5,120.5 C 45.5,107.25 56.246,96.5 69.5,96.5 C 82.754,96.5 93.5,107.25 93.5,120.5 z "
   style="stroke-width:2;stroke-linecap:round;stroke-linejoin:round"
   id="path2529" />
<path
   d="M 31.992,80.5 L 31.981,80.708 L 31.948,80.913 L 31.894,81.115 L 31.82,81.314 L 31.725,81.509 L 31.61,81.701 L 31.477,81.889 L 31.324,82.072 L 31.154,82.251 L 30.967,82.425 L 30.762,82.594 L 30.541,82.758 L 30.304,82.917 L 30.052,83.069 L 29.785,83.216 L 29.504,83.356 L 29.209,83.49 L 28.901,83.617 L 28.58,83.737 L 28.247,83.849 L 27.902,83.954 L 27.547,84.052 L 27.181,84.141 L 26.804,84.222 L 26.419,84.294 L 26.024,84.357 L 25.621,84.412 L 25.211,84.457 L 24.793,84.493 L 24.368,84.518 L 23.937,84.534 L 23.5,84.539 C 18.812,84.539 15.008,82.73 15.008,80.5 C 15.008,78.27 18.812,76.461 23.5,76.461 C 28.188,76.461 31.992,78.27 31.992,80.5 z "
   style="fill:#ffffff;fill-rule:nonzero;stroke:#ffffff;stroke-width:0;stroke-linecap:round;stroke-linejoin:round"
   id="path2531" />
<path
   d="M 31.992,80.5 L 31.981,80.708 L 31.948,80.913 L 31.894,81.115 L 31.82,81.314 L 31.725,81.509 L 31.61,81.701 L 31.477,81.889 L 31.324,82.072 L 31.154,82.251 L 30.967,82.425 L 30.762,82.594 L 30.541,82.758 L 30.304,82.917 L 30.052,83.069 L 29.785,83.216 L 29.504,83.356 L 29.209,83.49 L 28.901,83.617 L 28.58,83.737 L 28.247,83.849 L 27.902,83.954 L 27.547,84.052 L 27.181,84.141 L 26.804,84.222 L 26.419,84.294 L 26.024,84.357 L 25.621,84.412 L 25.211,84.457 L 24.793,84.493 L 24.368,84.518 L 23.937,84.534 L 23.5,84.539 C 18.812,84.539 15.008,82.73 15.008,80.5 C 15.008,78.27 18.812,76.461 23.5,76.461 C 28.188,76.461 31.992,78.27 31.992,80.5 z "
   style="stroke-width:0.84906;stroke-linecap:round;stroke-linejoin:round"
   id="path2533" />
<text
   transform="matrix(1,0,0,-1,18.191,77.977)"
   style="font-size:8px;fill:#000000;stroke:none;font-family:&quot;Helvetica&quot;, sans-serif"
   id="text2535">30</text>

<path
   d="M 139.5,40.5 L 139.47,41.735 L 139.38,42.954 L 139.22,44.155 L 139.01,45.337 L 138.74,46.498 L 138.42,47.637 L 138.04,48.752 L 137.61,49.841 L 137.13,50.905 L 136.6,51.939 L 136.03,52.944 L 135.4,53.918 L 134.73,54.859 L 134.02,55.766 L 133.26,56.637 L 132.47,57.47 L 131.64,58.265 L 130.77,59.019 L 129.86,59.732 L 128.92,60.401 L 127.94,61.025 L 126.94,61.603 L 125.9,62.133 L 124.84,62.614 L 123.75,63.044 L 122.64,63.421 L 121.5,63.744 L 120.34,64.012 L 119.15,64.223 L 117.95,64.376 L 116.73,64.469 L 115.5,64.5 C 102.25,64.5 91.5,53.754 91.5,40.5 C 91.5,27.246 102.25,16.5 115.5,16.5 C 128.75,16.5 139.5,27.246 139.5,40.5 z "
   style="fill:#ffffff;fill-rule:nonzero;stroke:#ffffff;stroke-width:0;stroke-linecap:round;stroke-linejoin:round"
   id="path2537" />
<path
   d="M 139.5,40.5 L 139.47,41.735 L 139.38,42.954 L 139.22,44.155 L 139.01,45.337 L 138.74,46.498 L 138.42,47.637 L 138.04,48.752 L 137.61,49.841 L 137.13,50.905 L 136.6,51.939 L 136.03,52.944 L 135.4,53.918 L 134.73,54.859 L 134.02,55.766 L 133.26,56.637 L 132.47,57.47 L 131.64,58.265 L 130.77,59.019 L 129.86,59.732 L 128.92,60.401 L 127.94,61.025 L 126.94,61.603 L 125.9,62.133 L 124.84,62.614 L 123.75,63.044 L 122.64,63.421 L 121.5,63.744 L 120.34,64.012 L 119.15,64.223 L 117.95,64.376 L 116.73,64.469 L 115.5,64.5 C 102.25,64.5 91.5,53.754 91.5,40.5 C 91.5,27.246 102.25,16.5 115.5,16.5 C 128.75,16.5 139.5,27.246 139.5,40.5 z "
   style="stroke-width:2;stroke-linecap:round;stroke-linejoin:round"
   id="path2539" />
<path
   d="M 169.99,80.5 L 169.98,80.708 L 169.95,80.913 L 169.89,81.115 L 169.82,81.314 L 169.72,81.509 L 169.61,81.701 L 169.48,81.889 L 169.32,82.072 L 169.15,82.251 L 168.97,82.425 L 168.76,82.594 L 168.54,82.758 L 168.3,82.917 L 168.05,83.069 L 167.79,83.216 L 167.5,83.356 L 167.21,83.49 L 166.9,83.617 L 166.58,83.737 L 166.25,83.849 L 165.9,83.954 L 165.55,84.052 L 165.18,84.141 L 164.8,84.222 L 164.42,84.294 L 164.02,84.357 L 163.62,84.412 L 163.21,84.457 L 162.79,84.493 L 162.37,84.518 L 161.94,84.534 L 161.5,84.539 C 156.81,84.539 153.01,82.73 153.01,80.5 C 153.01,78.27 156.81,76.461 161.5,76.461 C 166.19,76.461 169.99,78.27 169.99,80.5 z "
   style="fill:#ffffff;fill-rule:nonzero;stroke:#ffffff;stroke-width:0;stroke-linecap:round;stroke-linejoin:round"
   id="path2541" />
<path
   d="M 169.99,80.5 L 169.98,80.708 L 169.95,80.913 L 169.89,81.115 L 169.82,81.314 L 169.72,81.509 L 169.61,81.701 L 169.48,81.889 L 169.32,82.072 L 169.15,82.251 L 168.97,82.425 L 168.76,82.594 L 168.54,82.758 L 168.3,82.917 L 168.05,83.069 L 167.79,83.216 L 167.5,83.356 L 167.21,83.49 L 166.9,83.617 L 166.58,83.737 L 166.25,83.849 L 165.9,83.954 L 165.55,84.052 L 165.18,84.141 L 164.8,84.222 L 164.42,84.294 L 164.02,84.357 L 163.62,84.412 L 163.21,84.457 L 162.79,84.493 L 162.37,84.518 L 161.94,84.534 L 161.5,84.539 C 156.81,84.539 153.01,82.73 153.01,80.5 C 153.01,78.27 156.81,76.461 161.5,76.461 C 166.19,76.461 169.99,78.27 169.99,80.5 z "
   style="stroke-width:0.84906;stroke-linecap:round;stroke-linejoin:round"
   id="path2543" />
<text
   transform="matrix(1,0,0,-1,156.19,77.977)"
   style="font-size:8px;fill:#000000;stroke:none;font-family:&quot;Helvetica&quot;, sans-serif"
   id="text2545">30</text>

<polygon
   points="46.5,160.5 138.5,160.5 184.5,80.5 138.5,0.5 46.5,0.5 0.5,80.5 46.5,160.5 "
   style="stroke-width:1;stroke-linejoin:round"
   id="polygon2547" />
</g></svg>
