<?xml version="1.0" encoding="UTF-8" standalone="no"?>
<svg
   xmlns:dc="http://purl.org/dc/elements/1.1/"
   xmlns:cc="http://web.resource.org/cc/"
   xmlns:rdf="http://www.w3.org/1999/02/22-rdf-syntax-ns#"
   xmlns:svg="http://www.w3.org/2000/svg"
   xmlns="http://www.w3.org/2000/svg"
   xmlns:sodipodi="http://sodipodi.sourceforge.net/DTD/sodipodi-0.dtd"
   xmlns:inkscape="http://www.inkscape.org/namespaces/inkscape"
   width="100"
   height="100"
   viewBox="0 0 1 1"
   preserveAspectRatio="none"
   id="svg2437"
   sodipodi:version="0.32"
   inkscape:version="0.45.1"
   sodipodi:docname="tile2083.svg"
   sodipodi:docbase="C:\Documents and Settings\Brett\workspace\18xx\tiles\svg"
   version="1.0"
   inkscape:output_extension="org.inkscape.output.svg.inkscape">
  <metadata
     id="metadata2496">
    <rdf:RDF>
      <cc:Work
         rdf:about="">
        <dc:format>image/svg+xml</dc:format>
        <dc:type
           rdf:resource="http://purl.org/dc/dcmitype/StillImage" />
      </cc:Work>
    </rdf:RDF>
  </metadata>
  <defs
     id="defs2494" />
  <sodipodi:namedview
     inkscape:window-height="579"
     inkscape:window-width="749"
     inkscape:pageshadow="2"
     inkscape:pageopacity="0.0"
     borderopacity="1.0"
     bordercolor="#666666"
     pagecolor="#ffffff"
     id="base"
     inkscape:zoom="2.1055851"
     inkscape:cx="64.933687"
     inkscape:cy="38.196287"
     inkscape:window-x="44"
     inkscape:window-y="44"
     inkscape:current-layer="svg2437"
     borderlayer="true" />
  <title
     id="title2439">SVG drawing</title>
  <desc
     id="desc2441">This was produced by version 4.1 of GNU libplot, a free library for exporting 2-D vector graphics.</desc>
  <rect
     x="0"
     y="0"
     width="1"
     height="1"
     style="fill:#ffffff;stroke:none"
     id="rect2443" />
  <g
     transform="matrix(5.4170881e-3,0,0,-6.1361667e-3,-1.0806657e-3,0.9983846)"
     xml:space="preserve"
     style="font-style:normal;font-variant:normal;font-weight:normal;font-stretch:normal;letter-spacing:normal;word-spacing:normal;text-anchor:start;fill:none;fill-opacity:1;stroke:#000000;stroke-linecap:butt;stroke-linejoin:miter;stroke-miterlimit:10.43299961;stroke-dasharray:none;stroke-dashoffset:0;stroke-opacity:1"
     id="g2445">
<polygon
   points="46.5,160.5 138.5,160.5 184.5,80.5 138.5,0.5 46.5,0.5 0.5,80.5 46.5,160.5 "
   style="fill:#b46301;fill-rule:nonzero;stroke:#b46301;stroke-width:0;stroke-linejoin:round"
   id="polygon2447" />
<text
   transform="matrix(1,0,0,-1,106.73,7.9141)"
   style="font-size:8px;fill:#000000;stroke:none;font-family:&quot;Helvetica&quot;, sans-serif"
   id="text2449">2083</text>


<polygon
   points="68.5,56.5 116.5,56.5 116.5,104.5 68.5,104.5 68.5,56.5 "
   style="fill:#ffffff;fill-rule:nonzero;stroke:#ffffff;stroke-width:0;stroke-linejoin:round"
   id="polygon2451" />
<polygon
   points="68.5,56.5 116.5,56.5 116.5,104.5 68.5,104.5 68.5,56.5 "
   style="stroke:#ffffff;stroke-width:6;stroke-linejoin:round"
   id="polygon2453" />
<path
   d="M 92.5,80.5 L 92.469,81.735 L 92.376,82.954 L 92.223,84.155 L 92.012,85.337 L 91.744,86.498 L 91.421,87.637 L 91.044,88.752 L 90.614,89.841 L 90.133,90.905 L 89.603,91.939 L 89.025,92.944 L 88.401,93.918 L 87.732,94.859 L 87.019,95.766 L 86.265,96.637 L 85.47,97.47 L 84.637,98.265 L 83.766,99.019 L 82.859,99.732 L 81.918,100.4 L 80.944,101.03 L 79.939,101.6 L 78.905,102.13 L 77.841,102.61 L 76.752,103.04 L 75.637,103.42 L 74.498,103.74 L 73.337,104.01 L 72.155,104.22 L 70.954,104.38 L 69.735,104.47 L 68.5,104.5 C 55.246,104.5 44.5,93.754 44.5,80.5 C 44.5,67.246 55.246,56.5 68.5,56.5 C 81.754,56.5 92.5,67.246 92.5,80.5 z "
   style="fill:#ffffff;fill-rule:nonzero;stroke:#ffffff;stroke-width:0;stroke-linecap:round;stroke-linejoin:round"
   id="path2455" />
<path
   d="M 92.5,80.5 L 92.469,81.735 L 92.376,82.954 L 92.223,84.155 L 92.012,85.337 L 91.744,86.498 L 91.421,87.637 L 91.044,88.752 L 90.614,89.841 L 90.133,90.905 L 89.603,91.939 L 89.025,92.944 L 88.401,93.918 L 87.732,94.859 L 87.019,95.766 L 86.265,96.637 L 85.47,97.47 L 84.637,98.265 L 83.766,99.019 L 82.859,99.732 L 81.918,100.4 L 80.944,101.03 L 79.939,101.6 L 78.905,102.13 L 77.841,102.61 L 76.752,103.04 L 75.637,103.42 L 74.498,103.74 L 73.337,104.01 L 72.155,104.22 L 70.954,104.38 L 69.735,104.47 L 68.5,104.5 C 55.246,104.5 44.5,93.754 44.5,80.5 C 44.5,67.246 55.246,56.5 68.5,56.5 C 81.754,56.5 92.5,67.246 92.5,80.5 z "
   style="stroke:#ffffff;stroke-width:6;stroke-linecap:round;stroke-linejoin:round"
   id="path2457" />
<path
   d="M 140.5,80.5 L 140.47,81.735 L 140.38,82.954 L 140.22,84.155 L 140.01,85.337 L 139.74,86.498 L 139.42,87.637 L 139.04,88.752 L 138.61,89.841 L 138.13,90.905 L 137.6,91.939 L 137.03,92.944 L 136.4,93.918 L 135.73,94.859 L 135.02,95.766 L 134.26,96.637 L 133.47,97.47 L 132.64,98.265 L 131.77,99.019 L 130.86,99.732 L 129.92,100.4 L 128.94,101.03 L 127.94,101.6 L 126.9,102.13 L 125.84,102.61 L 124.75,103.04 L 123.64,103.42 L 122.5,103.74 L 121.34,104.01 L 120.15,104.22 L 118.95,104.38 L 117.73,104.47 L 116.5,104.5 C 103.25,104.5 92.5,93.754 92.5,80.5 C 92.5,67.246 103.25,56.5 116.5,56.5 C 129.75,56.5 140.5,67.246 140.5,80.5 z "
   style="fill:#ffffff;fill-rule:nonzero;stroke:#ffffff;stroke-width:0;stroke-linecap:round;stroke-linejoin:round"
   id="path2459" />
<path
   d="M 140.5,80.5 L 140.47,81.735 L 140.38,82.954 L 140.22,84.155 L 140.01,85.337 L 139.74,86.498 L 139.42,87.637 L 139.04,88.752 L 138.61,89.841 L 138.13,90.905 L 137.6,91.939 L 137.03,92.944 L 136.4,93.918 L 135.73,94.859 L 135.02,95.766 L 134.26,96.637 L 133.47,97.47 L 132.64,98.265 L 131.77,99.019 L 130.86,99.732 L 129.92,100.4 L 128.94,101.03 L 127.94,101.6 L 126.9,102.13 L 125.84,102.61 L 124.75,103.04 L 123.64,103.42 L 122.5,103.74 L 121.34,104.01 L 120.15,104.22 L 118.95,104.38 L 117.73,104.47 L 116.5,104.5 C 103.25,104.5 92.5,93.754 92.5,80.5 C 92.5,67.246 103.25,56.5 116.5,56.5 C 129.75,56.5 140.5,67.246 140.5,80.5 z "
   style="stroke:#ffffff;stroke-width:6;stroke-linecap:round;stroke-linejoin:round"
   id="path2461" />
<line
   x1="92.5"
   y1="80.5"
   x2="161.5"
   y2="40.5"
   style="stroke:#ffffff;stroke-width:16;stroke-linecap:round"
   id="line2463" />
<line
   x1="92.5"
   y1="80.5"
   x2="92.5"
   y2="0.5"
   style="stroke:#ffffff;stroke-width:16;stroke-linecap:round"
   id="line2465" />
<line
   x1="92.5"
   y1="80.5"
   x2="161.5"
   y2="40.5"
   style="stroke-width:12;stroke-linecap:round"
   id="line2467" />
<line
   x1="92.5"
   y1="80.5"
   x2="92.5"
   y2="0.5"
   style="stroke-width:12;stroke-linecap:round"
   id="line2469" />
<polygon
   points="68.5,56.5 116.5,56.5 116.5,104.5 68.5,104.5 68.5,56.5 "
   style="fill:#ffffff;fill-rule:nonzero;stroke:#ffffff;stroke-width:0;stroke-linejoin:round"
   id="polygon2471" />
<polygon
   points="68.5,56.5 116.5,56.5 116.5,104.5 68.5,104.5 68.5,56.5 "
   style="stroke-width:2;stroke-linejoin:round"
   id="polygon2473" />
<path
   d="M 92.5,80.5 L 92.469,81.735 L 92.376,82.954 L 92.223,84.155 L 92.012,85.337 L 91.744,86.498 L 91.421,87.637 L 91.044,88.752 L 90.614,89.841 L 90.133,90.905 L 89.603,91.939 L 89.025,92.944 L 88.401,93.918 L 87.732,94.859 L 87.019,95.766 L 86.265,96.637 L 85.47,97.47 L 84.637,98.265 L 83.766,99.019 L 82.859,99.732 L 81.918,100.4 L 80.944,101.03 L 79.939,101.6 L 78.905,102.13 L 77.841,102.61 L 76.752,103.04 L 75.637,103.42 L 74.498,103.74 L 73.337,104.01 L 72.155,104.22 L 70.954,104.38 L 69.735,104.47 L 68.5,104.5 C 55.246,104.5 44.5,93.754 44.5,80.5 C 44.5,67.246 55.246,56.5 68.5,56.5 C 81.754,56.5 92.5,67.246 92.5,80.5 z "
   style="fill:#ffffff;fill-rule:nonzero;stroke:#ffffff;stroke-width:0;stroke-linecap:round;stroke-linejoin:round"
   id="path2475" />
<path
   d="M 92.5,80.5 L 92.469,81.735 L 92.376,82.954 L 92.223,84.155 L 92.012,85.337 L 91.744,86.498 L 91.421,87.637 L 91.044,88.752 L 90.614,89.841 L 90.133,90.905 L 89.603,91.939 L 89.025,92.944 L 88.401,93.918 L 87.732,94.859 L 87.019,95.766 L 86.265,96.637 L 85.47,97.47 L 84.637,98.265 L 83.766,99.019 L 82.859,99.732 L 81.918,100.4 L 80.944,101.03 L 79.939,101.6 L 78.905,102.13 L 77.841,102.61 L 76.752,103.04 L 75.637,103.42 L 74.498,103.74 L 73.337,104.01 L 72.155,104.22 L 70.954,104.38 L 69.735,104.47 L 68.5,104.5 C 55.246,104.5 44.5,93.754 44.5,80.5 C 44.5,67.246 55.246,56.5 68.5,56.5 C 81.754,56.5 92.5,67.246 92.5,80.5 z "
   style="stroke-width:2;stroke-linecap:round;stroke-linejoin:round"
   id="path2477" />
<path
   d="M 140.5,80.5 L 140.47,81.735 L 140.38,82.954 L 140.22,84.155 L 140.01,85.337 L 139.74,86.498 L 139.42,87.637 L 139.04,88.752 L 138.61,89.841 L 138.13,90.905 L 137.6,91.939 L 137.03,92.944 L 136.4,93.918 L 135.73,94.859 L 135.02,95.766 L 134.26,96.637 L 133.47,97.47 L 132.64,98.265 L 131.77,99.019 L 130.86,99.732 L 129.92,100.4 L 128.94,101.03 L 127.94,101.6 L 126.9,102.13 L 125.84,102.61 L 124.75,103.04 L 123.64,103.42 L 122.5,103.74 L 121.34,104.01 L 120.15,104.22 L 118.95,104.38 L 117.73,104.47 L 116.5,104.5 C 103.25,104.5 92.5,93.754 92.5,80.5 C 92.5,67.246 103.25,56.5 116.5,56.5 C 129.75,56.5 140.5,67.246 140.5,80.5 z "
   style="fill:#ffffff;fill-rule:nonzero;stroke:#ffffff;stroke-width:0;stroke-linecap:round;stroke-linejoin:round"
   id="path2479" />
<path
   d="M 140.5,80.5 L 140.47,81.735 L 140.38,82.954 L 140.22,84.155 L 140.01,85.337 L 139.74,86.498 L 139.42,87.637 L 139.04,88.752 L 138.61,89.841 L 138.13,90.905 L 137.6,91.939 L 137.03,92.944 L 136.4,93.918 L 135.73,94.859 L 135.02,95.766 L 134.26,96.637 L 133.47,97.47 L 132.64,98.265 L 131.77,99.019 L 130.86,99.732 L 129.92,100.4 L 128.94,101.03 L 127.94,101.6 L 126.9,102.13 L 125.84,102.61 L 124.75,103.04 L 123.64,103.42 L 122.5,103.74 L 121.34,104.01 L 120.15,104.22 L 118.95,104.38 L 117.73,104.47 L 116.5,104.5 C 103.25,104.5 92.5,93.754 92.5,80.5 C 92.5,67.246 103.25,56.5 116.5,56.5 C 129.75,56.5 140.5,67.246 140.5,80.5 z "
   style="stroke-width:2;stroke-linecap:round;stroke-linejoin:round"
   id="path2481" />
<path
   d="M 169.99,80.5 L 169.98,80.708 L 169.95,80.913 L 169.89,81.115 L 169.82,81.314 L 169.72,81.509 L 169.61,81.701 L 169.48,81.889 L 169.32,82.072 L 169.15,82.251 L 168.97,82.425 L 168.76,82.594 L 168.54,82.758 L 168.3,82.917 L 168.05,83.069 L 167.79,83.216 L 167.5,83.356 L 167.21,83.49 L 166.9,83.617 L 166.58,83.737 L 166.25,83.849 L 165.9,83.954 L 165.55,84.052 L 165.18,84.141 L 164.8,84.222 L 164.42,84.294 L 164.02,84.357 L 163.62,84.412 L 163.21,84.457 L 162.79,84.493 L 162.37,84.518 L 161.94,84.534 L 161.5,84.539 C 156.81,84.539 153.01,82.73 153.01,80.5 C 153.01,78.27 156.81,76.461 161.5,76.461 C 166.19,76.461 169.99,78.27 169.99,80.5 z "
   style="fill:#ffffff;fill-rule:nonzero;stroke:#ffffff;stroke-width:0;stroke-linecap:round;stroke-linejoin:round"
   id="path2483" />
<path
   d="M 169.99,80.5 L 169.98,80.708 L 169.95,80.913 L 169.89,81.115 L 169.82,81.314 L 169.72,81.509 L 169.61,81.701 L 169.48,81.889 L 169.32,82.072 L 169.15,82.251 L 168.97,82.425 L 168.76,82.594 L 168.54,82.758 L 168.3,82.917 L 168.05,83.069 L 167.79,83.216 L 167.5,83.356 L 167.21,83.49 L 166.9,83.617 L 166.58,83.737 L 166.25,83.849 L 165.9,83.954 L 165.55,84.052 L 165.18,84.141 L 164.8,84.222 L 164.42,84.294 L 164.02,84.357 L 163.62,84.412 L 163.21,84.457 L 162.79,84.493 L 162.37,84.518 L 161.94,84.534 L 161.5,84.539 C 156.81,84.539 153.01,82.73 153.01,80.5 C 153.01,78.27 156.81,76.461 161.5,76.461 C 166.19,76.461 169.99,78.27 169.99,80.5 z "
   style="stroke-width:0.84906;stroke-linecap:round;stroke-linejoin:round"
   id="path2485" />
<text
   transform="matrix(1,0,0,-1,156.19,77.977)"
   style="font-size:8px;fill:#000000;stroke:none;font-family:&quot;Helvetica&quot;, sans-serif"
   id="text2487">70</text>


<text
   transform="matrix(1,0,0,-1,25.117,104.92)"
   style="font-size:16px;fill:#000000;stroke:none;font-family:&quot;Helvetica&quot;, sans-serif"
   id="text2489">MTL</text>


<polygon
   points="46.5,160.5 138.5,160.5 184.5,80.5 138.5,0.5 46.5,0.5 0.5,80.5 46.5,160.5 "
   style="stroke-width:1;stroke-linejoin:round"
   id="polygon2491" />
</g></svg>
