<?xml version="1.0" encoding="UTF-8" standalone="no"?>
<svg
   xmlns:dc="http://purl.org/dc/elements/1.1/"
   xmlns:cc="http://web.resource.org/cc/"
   xmlns:rdf="http://www.w3.org/1999/02/22-rdf-syntax-ns#"
   xmlns:svg="http://www.w3.org/2000/svg"
   xmlns="http://www.w3.org/2000/svg"
   xmlns:sodipodi="http://sodipodi.sourceforge.net/DTD/sodipodi-0.dtd"
   xmlns:inkscape="http://www.inkscape.org/namespaces/inkscape"
   width="100"
   height="100"
   viewBox="0 0 1 1"
   preserveAspectRatio="none"
   id="svg10808"
   sodipodi:version="0.32"
   inkscape:version="0.45.1"
   sodipodi:docname="tile416.svg"
   sodipodi:docbase="C:\Documents and Settings\Brett\workspace\18xx\tiles\svg"
   version="1.0"
   inkscape:output_extension="org.inkscape.output.svg.inkscape">
  <metadata
     id="metadata10849">
    <rdf:RDF>
      <cc:Work
         rdf:about="">
        <dc:format>image/svg+xml</dc:format>
        <dc:type
           rdf:resource="http://purl.org/dc/dcmitype/StillImage" />
      </cc:Work>
    </rdf:RDF>
  </metadata>
  <defs
     id="defs10847" />
  <sodipodi:namedview
     inkscape:window-height="579"
     inkscape:window-width="749"
     inkscape:pageshadow="2"
     inkscape:pageopacity="0.0"
     borderopacity="1.0"
     bordercolor="#666666"
     pagecolor="#ffffff"
     id="base"
     inkscape:zoom="1.9216019"
     inkscape:cx="56.339523"
     inkscape:cy="37.433371"
     inkscape:window-x="176"
     inkscape:window-y="176"
     inkscape:current-layer="svg10808" />
  <title
     id="title10810">SVG drawing</title>
  <desc
     id="desc10812">This was produced by version 4.1 of GNU libplot, a free library for exporting 2-D vector graphics.</desc>
  <g
     transform="matrix(5.4170704e-3,0,0,-6.1430938e-3,-1.0790349e-3,0.9994981)"
     xml:space="preserve"
     style="font-style:normal;font-variant:normal;font-weight:normal;font-stretch:normal;letter-spacing:normal;word-spacing:normal;text-anchor:start;fill:none;fill-opacity:1;stroke:#000000;stroke-linecap:butt;stroke-linejoin:miter;stroke-miterlimit:10.43299961;stroke-dasharray:none;stroke-dashoffset:0;stroke-opacity:1"
     id="g10816">
<polygon
   points="46.5,160.5 138.5,160.5 184.5,80.5 138.5,0.5 46.5,0.5 0.5,80.5 46.5,160.5 "
   style="fill:#38ac00;fill-rule:nonzero;stroke:#38ac00;stroke-width:0;stroke-linejoin:round"
   id="polygon10818" />
<text
   transform="matrix(1,0,0,-1,109.19,7.9141)"
   style="font-size:8px;fill:#000000;stroke:none;font-family:&quot;Helvetica&quot;, sans-serif"
   id="text10820">416</text>


<line
   x1="86.5"
   y1="30.5"
   x2="110.5"
   y2="16.5"
   style="stroke:#ffffff;stroke-width:16"
   id="line10822" />
<path
   d="M 161.5,40.5 L 161.43,40.375 C 154.46,44.387 146.55,46.5 138.5,46.5 C 122.04,46.5 106.83,37.703 98.625,23.434"
   style="stroke:#ffffff;stroke-width:16;stroke-linecap:round;stroke-linejoin:round"
   id="path10824" />
<path
   d="M 98.5,23.5 L 98.625,23.434 C 94.613,16.457 92.5,8.5469 92.5,0.5"
   style="stroke:#ffffff;stroke-width:16;stroke-linecap:round;stroke-linejoin:round"
   id="path10826" />
<line
   x1="161.5"
   y1="40.5"
   x2="23.5"
   y2="120.5"
   style="stroke:#ffffff;stroke-width:16;stroke-linecap:round"
   id="line10828" />
<path
   d="M 161.5,40.5 L 161.43,40.375 C 154.46,44.387 146.55,46.5 138.5,46.5 C 122.04,46.5 106.83,37.703 98.625,23.434"
   style="stroke-width:12;stroke-linecap:round;stroke-linejoin:round"
   id="path10830" />
<path
   d="M 98.5,23.5 L 98.625,23.434 C 94.613,16.457 92.5,8.5469 92.5,0.5"
   style="stroke-width:12;stroke-linecap:round;stroke-linejoin:round"
   id="path10832" />
<line
   x1="161.5"
   y1="40.5"
   x2="23.5"
   y2="120.5"
   style="stroke-width:12;stroke-linecap:round"
   id="line10834" />
<line
   x1="88.5"
   y1="29.5"
   x2="108.5"
   y2="17.5"
   style="stroke-width:12"
   id="line10836" />
<path
   d="M 66.992,20.5 L 66.981,20.708 L 66.948,20.913 L 66.894,21.115 L 66.82,21.314 L 66.725,21.509 L 66.61,21.701 L 66.477,21.889 L 66.324,22.072 L 66.154,22.251 L 65.967,22.425 L 65.762,22.594 L 65.541,22.758 L 65.304,22.917 L 65.052,23.069 L 64.785,23.216 L 64.504,23.356 L 64.209,23.49 L 63.901,23.617 L 63.58,23.737 L 63.247,23.849 L 62.902,23.954 L 62.547,24.052 L 62.181,24.141 L 61.804,24.222 L 61.419,24.294 L 61.024,24.357 L 60.621,24.412 L 60.211,24.457 L 59.793,24.493 L 59.368,24.518 L 58.937,24.534 L 58.5,24.539 C 53.812,24.539 50.008,22.73 50.008,20.5 C 50.008,18.27 53.812,16.461 58.5,16.461 C 63.188,16.461 66.992,18.27 66.992,20.5 z "
   style="fill:#ffffff;fill-rule:nonzero;stroke:#ffffff;stroke-width:0;stroke-linecap:round;stroke-linejoin:round"
   id="path10838" />
<path
   d="M 66.992,20.5 L 66.981,20.708 L 66.948,20.913 L 66.894,21.115 L 66.82,21.314 L 66.725,21.509 L 66.61,21.701 L 66.477,21.889 L 66.324,22.072 L 66.154,22.251 L 65.967,22.425 L 65.762,22.594 L 65.541,22.758 L 65.304,22.917 L 65.052,23.069 L 64.785,23.216 L 64.504,23.356 L 64.209,23.49 L 63.901,23.617 L 63.58,23.737 L 63.247,23.849 L 62.902,23.954 L 62.547,24.052 L 62.181,24.141 L 61.804,24.222 L 61.419,24.294 L 61.024,24.357 L 60.621,24.412 L 60.211,24.457 L 59.793,24.493 L 59.368,24.518 L 58.937,24.534 L 58.5,24.539 C 53.812,24.539 50.008,22.73 50.008,20.5 C 50.008,18.27 53.812,16.461 58.5,16.461 C 63.188,16.461 66.992,18.27 66.992,20.5 z "
   style="stroke-width:0.84906;stroke-linecap:round;stroke-linejoin:round"
   id="path10840" />
<text
   transform="matrix(1,0,0,-1,53.191,17.977)"
   style="font-size:8px;fill:#000000;stroke:none;font-family:&quot;Helvetica&quot;, sans-serif"
   id="text10842">10</text>


<polygon
   points="46.5,160.5 138.5,160.5 184.5,80.5 138.5,0.5 46.5,0.5 0.5,80.5 46.5,160.5 "
   style="stroke-width:1;stroke-linejoin:round"
   id="polygon10844" />
</g></svg>
