<?xml version="1.0" encoding="UTF-8" standalone="no"?>
<svg
   xmlns:dc="http://purl.org/dc/elements/1.1/"
   xmlns:cc="http://web.resource.org/cc/"
   xmlns:rdf="http://www.w3.org/1999/02/22-rdf-syntax-ns#"
   xmlns:svg="http://www.w3.org/2000/svg"
   xmlns="http://www.w3.org/2000/svg"
   xmlns:sodipodi="http://inkscape.sourceforge.net/DTD/sodipodi-0.dtd"
   xmlns:inkscape="http://www.inkscape.org/namespaces/inkscape"
   width="100"
   height="100"
   viewBox="0 0 1 1"
   preserveAspectRatio="none"
   id="svg5134"
   sodipodi:version="0.32"
   inkscape:version="0.43"
   sodipodi:docname="tile191.svg"
   sodipodi:docbase="C:\Documents and Settings\lentz\Desktop\TileDesigner"
   version="1.0">
  <metadata
     id="metadata5225">
    <rdf:RDF>
      <cc:Work
         rdf:about="">
        <dc:format>image/svg+xml</dc:format>
        <dc:type
           rdf:resource="http://purl.org/dc/dcmitype/StillImage" />
      </cc:Work>
    </rdf:RDF>
  </metadata>
  <defs
     id="defs5223" />
  <sodipodi:namedview
     inkscape:window-height="540"
     inkscape:window-width="749"
     inkscape:pageshadow="2"
     inkscape:pageopacity="0.0"
     borderopacity="1.0"
     bordercolor="#666666"
     pagecolor="#ffffff"
     id="base"
     inkscape:zoom="0.52361111"
     inkscape:cx="360"
     inkscape:cy="360"
     inkscape:window-x="66"
     inkscape:window-y="66"
     inkscape:current-layer="svg5134" />
  <title
     id="title5136">SVG drawing</title>
  <desc
     id="desc5138">This was produced by version 4.1 of GNU libplot, a free library for exporting 2-D vector graphics.</desc>
  <rect
     x="0"
     y="0"
     width="1"
     height="1"
     style="fill:#ffffff;stroke:none"
     id="rect5140" />
  <g
     transform="matrix(5.418114e-3,0,0,-5.333139e-3,-1.175565e-3,0.939964)"
     xml:space="preserve"
     style="font-style:normal;font-variant:normal;font-weight:normal;font-stretch:normal;letter-spacing:normal;word-spacing:normal;text-anchor:start;fill:none;fill-opacity:1;stroke:#000000;stroke-linecap:butt;stroke-linejoin:miter;stroke-miterlimit:10.43299961;stroke-dasharray:none;stroke-dashoffset:0;stroke-opacity:1"
     id="g5142">
<polygon
   points="46.5,160.5 138.5,160.5 184.5,80.5 138.5,0.5 46.5,0.5 0.5,80.5 46.5,160.5 "
   style="fill:#b46301;fill-rule:nonzero;stroke:#b46301;stroke-width:0;stroke-linejoin:round"
   id="polygon5144" />
<text
   transform="matrix(1,0,0,-1,109.86,7.9141)"
   style="font-size:8px;fill:#000000;stroke:none;font-family:&quot;Helvetica&quot;, sans-serif"
   id="text5146">191</text>

<polygon
   points="68.5,32.5 116.5,32.5 140.5,56.5 140.5,104.5 116.5,128.5 68.5,128.5 44.5,104.5 44.5,56.5 68.5,32.5 "
   style="fill:#ffffff;fill-rule:nonzero;stroke:#ffffff;stroke-width:0;stroke-linejoin:round"
   id="polygon5148" />
<polygon
   points="68.5,32.5 116.5,32.5 140.5,56.5 140.5,104.5 116.5,128.5 68.5,128.5 44.5,104.5 44.5,56.5 68.5,32.5 "
   style="stroke:#ffffff;stroke-width:6;stroke-linejoin:round"
   id="polygon5150" />
<path
   d="M 92.5,56.5 L 92.469,57.735 L 92.376,58.954 L 92.223,60.155 L 92.012,61.337 L 91.744,62.498 L 91.421,63.637 L 91.044,64.752 L 90.614,65.841 L 90.133,66.905 L 89.603,67.939 L 89.025,68.944 L 88.401,69.918 L 87.732,70.859 L 87.019,71.766 L 86.265,72.637 L 85.47,73.47 L 84.637,74.265 L 83.766,75.019 L 82.859,75.732 L 81.918,76.401 L 80.944,77.025 L 79.939,77.603 L 78.905,78.133 L 77.841,78.614 L 76.752,79.044 L 75.637,79.421 L 74.498,79.744 L 73.337,80.012 L 72.155,80.223 L 70.954,80.376 L 69.735,80.469 L 68.5,80.5 C 55.246,80.5 44.5,69.754 44.5,56.5 C 44.5,43.246 55.246,32.5 68.5,32.5 C 81.754,32.5 92.5,43.246 92.5,56.5 z "
   style="fill:#ffffff;fill-rule:nonzero;stroke:#ffffff;stroke-width:0;stroke-linecap:round;stroke-linejoin:round"
   id="path5152" />
<path
   d="M 92.5,56.5 L 92.469,57.735 L 92.376,58.954 L 92.223,60.155 L 92.012,61.337 L 91.744,62.498 L 91.421,63.637 L 91.044,64.752 L 90.614,65.841 L 90.133,66.905 L 89.603,67.939 L 89.025,68.944 L 88.401,69.918 L 87.732,70.859 L 87.019,71.766 L 86.265,72.637 L 85.47,73.47 L 84.637,74.265 L 83.766,75.019 L 82.859,75.732 L 81.918,76.401 L 80.944,77.025 L 79.939,77.603 L 78.905,78.133 L 77.841,78.614 L 76.752,79.044 L 75.637,79.421 L 74.498,79.744 L 73.337,80.012 L 72.155,80.223 L 70.954,80.376 L 69.735,80.469 L 68.5,80.5 C 55.246,80.5 44.5,69.754 44.5,56.5 C 44.5,43.246 55.246,32.5 68.5,32.5 C 81.754,32.5 92.5,43.246 92.5,56.5 z "
   style="stroke:#ffffff;stroke-width:6;stroke-linecap:round;stroke-linejoin:round"
   id="path5154" />
<path
   d="M 140.5,56.5 L 140.47,57.735 L 140.38,58.954 L 140.22,60.155 L 140.01,61.337 L 139.74,62.498 L 139.42,63.637 L 139.04,64.752 L 138.61,65.841 L 138.13,66.905 L 137.6,67.939 L 137.03,68.944 L 136.4,69.918 L 135.73,70.859 L 135.02,71.766 L 134.26,72.637 L 133.47,73.47 L 132.64,74.265 L 131.77,75.019 L 130.86,75.732 L 129.92,76.401 L 128.94,77.025 L 127.94,77.603 L 126.9,78.133 L 125.84,78.614 L 124.75,79.044 L 123.64,79.421 L 122.5,79.744 L 121.34,80.012 L 120.15,80.223 L 118.95,80.376 L 117.73,80.469 L 116.5,80.5 C 103.25,80.5 92.5,69.754 92.5,56.5 C 92.5,43.246 103.25,32.5 116.5,32.5 C 129.75,32.5 140.5,43.246 140.5,56.5 z "
   style="fill:#ffffff;fill-rule:nonzero;stroke:#ffffff;stroke-width:0;stroke-linecap:round;stroke-linejoin:round"
   id="path5156" />
<path
   d="M 140.5,56.5 L 140.47,57.735 L 140.38,58.954 L 140.22,60.155 L 140.01,61.337 L 139.74,62.498 L 139.42,63.637 L 139.04,64.752 L 138.61,65.841 L 138.13,66.905 L 137.6,67.939 L 137.03,68.944 L 136.4,69.918 L 135.73,70.859 L 135.02,71.766 L 134.26,72.637 L 133.47,73.47 L 132.64,74.265 L 131.77,75.019 L 130.86,75.732 L 129.92,76.401 L 128.94,77.025 L 127.94,77.603 L 126.9,78.133 L 125.84,78.614 L 124.75,79.044 L 123.64,79.421 L 122.5,79.744 L 121.34,80.012 L 120.15,80.223 L 118.95,80.376 L 117.73,80.469 L 116.5,80.5 C 103.25,80.5 92.5,69.754 92.5,56.5 C 92.5,43.246 103.25,32.5 116.5,32.5 C 129.75,32.5 140.5,43.246 140.5,56.5 z "
   style="stroke:#ffffff;stroke-width:6;stroke-linecap:round;stroke-linejoin:round"
   id="path5158" />
<path
   d="M 140.5,104.5 L 140.47,105.73 L 140.38,106.95 L 140.22,108.15 L 140.01,109.34 L 139.74,110.5 L 139.42,111.64 L 139.04,112.75 L 138.61,113.84 L 138.13,114.9 L 137.6,115.94 L 137.03,116.94 L 136.4,117.92 L 135.73,118.86 L 135.02,119.77 L 134.26,120.64 L 133.47,121.47 L 132.64,122.26 L 131.77,123.02 L 130.86,123.73 L 129.92,124.4 L 128.94,125.03 L 127.94,125.6 L 126.9,126.13 L 125.84,126.61 L 124.75,127.04 L 123.64,127.42 L 122.5,127.74 L 121.34,128.01 L 120.15,128.22 L 118.95,128.38 L 117.73,128.47 L 116.5,128.5 C 103.25,128.5 92.5,117.75 92.5,104.5 C 92.5,91.246 103.25,80.5 116.5,80.5 C 129.75,80.5 140.5,91.246 140.5,104.5 z "
   style="fill:#ffffff;fill-rule:nonzero;stroke:#ffffff;stroke-width:0;stroke-linecap:round;stroke-linejoin:round"
   id="path5160" />
<path
   d="M 140.5,104.5 L 140.47,105.73 L 140.38,106.95 L 140.22,108.15 L 140.01,109.34 L 139.74,110.5 L 139.42,111.64 L 139.04,112.75 L 138.61,113.84 L 138.13,114.9 L 137.6,115.94 L 137.03,116.94 L 136.4,117.92 L 135.73,118.86 L 135.02,119.77 L 134.26,120.64 L 133.47,121.47 L 132.64,122.26 L 131.77,123.02 L 130.86,123.73 L 129.92,124.4 L 128.94,125.03 L 127.94,125.6 L 126.9,126.13 L 125.84,126.61 L 124.75,127.04 L 123.64,127.42 L 122.5,127.74 L 121.34,128.01 L 120.15,128.22 L 118.95,128.38 L 117.73,128.47 L 116.5,128.5 C 103.25,128.5 92.5,117.75 92.5,104.5 C 92.5,91.246 103.25,80.5 116.5,80.5 C 129.75,80.5 140.5,91.246 140.5,104.5 z "
   style="stroke:#ffffff;stroke-width:6;stroke-linecap:round;stroke-linejoin:round"
   id="path5162" />
<path
   d="M 92.5,104.5 L 92.469,105.73 L 92.376,106.95 L 92.223,108.15 L 92.012,109.34 L 91.744,110.5 L 91.421,111.64 L 91.044,112.75 L 90.614,113.84 L 90.133,114.9 L 89.603,115.94 L 89.025,116.94 L 88.401,117.92 L 87.732,118.86 L 87.019,119.77 L 86.265,120.64 L 85.47,121.47 L 84.637,122.26 L 83.766,123.02 L 82.859,123.73 L 81.918,124.4 L 80.944,125.03 L 79.939,125.6 L 78.905,126.13 L 77.841,126.61 L 76.752,127.04 L 75.637,127.42 L 74.498,127.74 L 73.337,128.01 L 72.155,128.22 L 70.954,128.38 L 69.735,128.47 L 68.5,128.5 C 55.246,128.5 44.5,117.75 44.5,104.5 C 44.5,91.246 55.246,80.5 68.5,80.5 C 81.754,80.5 92.5,91.246 92.5,104.5 z "
   style="fill:#ffffff;fill-rule:nonzero;stroke:#ffffff;stroke-width:0;stroke-linecap:round;stroke-linejoin:round"
   id="path5164" />
<path
   d="M 92.5,104.5 L 92.469,105.73 L 92.376,106.95 L 92.223,108.15 L 92.012,109.34 L 91.744,110.5 L 91.421,111.64 L 91.044,112.75 L 90.614,113.84 L 90.133,114.9 L 89.603,115.94 L 89.025,116.94 L 88.401,117.92 L 87.732,118.86 L 87.019,119.77 L 86.265,120.64 L 85.47,121.47 L 84.637,122.26 L 83.766,123.02 L 82.859,123.73 L 81.918,124.4 L 80.944,125.03 L 79.939,125.6 L 78.905,126.13 L 77.841,126.61 L 76.752,127.04 L 75.637,127.42 L 74.498,127.74 L 73.337,128.01 L 72.155,128.22 L 70.954,128.38 L 69.735,128.47 L 68.5,128.5 C 55.246,128.5 44.5,117.75 44.5,104.5 C 44.5,91.246 55.246,80.5 68.5,80.5 C 81.754,80.5 92.5,91.246 92.5,104.5 z "
   style="stroke:#ffffff;stroke-width:6;stroke-linecap:round;stroke-linejoin:round"
   id="path5166" />
<line
   x1="92.5"
   y1="80.5"
   x2="92.5"
   y2="160.5"
   style="stroke:#ffffff;stroke-width:16;stroke-linecap:round"
   id="line5168" />
<line
   x1="92.5"
   y1="80.5"
   x2="161.5"
   y2="120.5"
   style="stroke:#ffffff;stroke-width:16;stroke-linecap:round"
   id="line5170" />
<line
   x1="92.5"
   y1="80.5"
   x2="161.5"
   y2="40.5"
   style="stroke:#ffffff;stroke-width:16;stroke-linecap:round"
   id="line5172" />
<line
   x1="92.5"
   y1="80.5"
   x2="92.5"
   y2="0.5"
   style="stroke:#ffffff;stroke-width:16;stroke-linecap:round"
   id="line5174" />
<line
   x1="92.5"
   y1="80.5"
   x2="23.5"
   y2="40.5"
   style="stroke:#ffffff;stroke-width:16;stroke-linecap:round"
   id="line5176" />
<line
   x1="92.5"
   y1="80.5"
   x2="23.5"
   y2="120.5"
   style="stroke:#ffffff;stroke-width:16;stroke-linecap:round"
   id="line5178" />
<line
   x1="92.5"
   y1="80.5"
   x2="92.5"
   y2="160.5"
   style="stroke-width:12;stroke-linecap:round"
   id="line5180" />
<line
   x1="92.5"
   y1="80.5"
   x2="161.5"
   y2="120.5"
   style="stroke-width:12;stroke-linecap:round"
   id="line5182" />
<line
   x1="92.5"
   y1="80.5"
   x2="161.5"
   y2="40.5"
   style="stroke-width:12;stroke-linecap:round"
   id="line5184" />
<line
   x1="92.5"
   y1="80.5"
   x2="92.5"
   y2="0.5"
   style="stroke-width:12;stroke-linecap:round"
   id="line5186" />
<line
   x1="92.5"
   y1="80.5"
   x2="23.5"
   y2="40.5"
   style="stroke-width:12;stroke-linecap:round"
   id="line5188" />
<line
   x1="92.5"
   y1="80.5"
   x2="23.5"
   y2="120.5"
   style="stroke-width:12;stroke-linecap:round"
   id="line5190" />
<polygon
   points="68.5,32.5 116.5,32.5 140.5,56.5 140.5,104.5 116.5,128.5 68.5,128.5 44.5,104.5 44.5,56.5 68.5,32.5 "
   style="fill:#ffffff;fill-rule:nonzero;stroke:#ffffff;stroke-width:0;stroke-linejoin:round"
   id="polygon5192" />
<polygon
   points="68.5,32.5 116.5,32.5 140.5,56.5 140.5,104.5 116.5,128.5 68.5,128.5 44.5,104.5 44.5,56.5 68.5,32.5 "
   style="stroke-width:2;stroke-linejoin:round"
   id="polygon5194" />
<path
   d="M 92.5,56.5 L 92.469,57.735 L 92.376,58.954 L 92.223,60.155 L 92.012,61.337 L 91.744,62.498 L 91.421,63.637 L 91.044,64.752 L 90.614,65.841 L 90.133,66.905 L 89.603,67.939 L 89.025,68.944 L 88.401,69.918 L 87.732,70.859 L 87.019,71.766 L 86.265,72.637 L 85.47,73.47 L 84.637,74.265 L 83.766,75.019 L 82.859,75.732 L 81.918,76.401 L 80.944,77.025 L 79.939,77.603 L 78.905,78.133 L 77.841,78.614 L 76.752,79.044 L 75.637,79.421 L 74.498,79.744 L 73.337,80.012 L 72.155,80.223 L 70.954,80.376 L 69.735,80.469 L 68.5,80.5 C 55.246,80.5 44.5,69.754 44.5,56.5 C 44.5,43.246 55.246,32.5 68.5,32.5 C 81.754,32.5 92.5,43.246 92.5,56.5 z "
   style="fill:#ffffff;fill-rule:nonzero;stroke:#ffffff;stroke-width:0;stroke-linecap:round;stroke-linejoin:round"
   id="path5196" />
<path
   d="M 92.5,56.5 L 92.469,57.735 L 92.376,58.954 L 92.223,60.155 L 92.012,61.337 L 91.744,62.498 L 91.421,63.637 L 91.044,64.752 L 90.614,65.841 L 90.133,66.905 L 89.603,67.939 L 89.025,68.944 L 88.401,69.918 L 87.732,70.859 L 87.019,71.766 L 86.265,72.637 L 85.47,73.47 L 84.637,74.265 L 83.766,75.019 L 82.859,75.732 L 81.918,76.401 L 80.944,77.025 L 79.939,77.603 L 78.905,78.133 L 77.841,78.614 L 76.752,79.044 L 75.637,79.421 L 74.498,79.744 L 73.337,80.012 L 72.155,80.223 L 70.954,80.376 L 69.735,80.469 L 68.5,80.5 C 55.246,80.5 44.5,69.754 44.5,56.5 C 44.5,43.246 55.246,32.5 68.5,32.5 C 81.754,32.5 92.5,43.246 92.5,56.5 z "
   style="stroke-width:2;stroke-linecap:round;stroke-linejoin:round"
   id="path5198" />
<path
   d="M 140.5,56.5 L 140.47,57.735 L 140.38,58.954 L 140.22,60.155 L 140.01,61.337 L 139.74,62.498 L 139.42,63.637 L 139.04,64.752 L 138.61,65.841 L 138.13,66.905 L 137.6,67.939 L 137.03,68.944 L 136.4,69.918 L 135.73,70.859 L 135.02,71.766 L 134.26,72.637 L 133.47,73.47 L 132.64,74.265 L 131.77,75.019 L 130.86,75.732 L 129.92,76.401 L 128.94,77.025 L 127.94,77.603 L 126.9,78.133 L 125.84,78.614 L 124.75,79.044 L 123.64,79.421 L 122.5,79.744 L 121.34,80.012 L 120.15,80.223 L 118.95,80.376 L 117.73,80.469 L 116.5,80.5 C 103.25,80.5 92.5,69.754 92.5,56.5 C 92.5,43.246 103.25,32.5 116.5,32.5 C 129.75,32.5 140.5,43.246 140.5,56.5 z "
   style="fill:#ffffff;fill-rule:nonzero;stroke:#ffffff;stroke-width:0;stroke-linecap:round;stroke-linejoin:round"
   id="path5200" />
<path
   d="M 140.5,56.5 L 140.47,57.735 L 140.38,58.954 L 140.22,60.155 L 140.01,61.337 L 139.74,62.498 L 139.42,63.637 L 139.04,64.752 L 138.61,65.841 L 138.13,66.905 L 137.6,67.939 L 137.03,68.944 L 136.4,69.918 L 135.73,70.859 L 135.02,71.766 L 134.26,72.637 L 133.47,73.47 L 132.64,74.265 L 131.77,75.019 L 130.86,75.732 L 129.92,76.401 L 128.94,77.025 L 127.94,77.603 L 126.9,78.133 L 125.84,78.614 L 124.75,79.044 L 123.64,79.421 L 122.5,79.744 L 121.34,80.012 L 120.15,80.223 L 118.95,80.376 L 117.73,80.469 L 116.5,80.5 C 103.25,80.5 92.5,69.754 92.5,56.5 C 92.5,43.246 103.25,32.5 116.5,32.5 C 129.75,32.5 140.5,43.246 140.5,56.5 z "
   style="stroke-width:2;stroke-linecap:round;stroke-linejoin:round"
   id="path5202" />
<path
   d="M 140.5,104.5 L 140.47,105.73 L 140.38,106.95 L 140.22,108.15 L 140.01,109.34 L 139.74,110.5 L 139.42,111.64 L 139.04,112.75 L 138.61,113.84 L 138.13,114.9 L 137.6,115.94 L 137.03,116.94 L 136.4,117.92 L 135.73,118.86 L 135.02,119.77 L 134.26,120.64 L 133.47,121.47 L 132.64,122.26 L 131.77,123.02 L 130.86,123.73 L 129.92,124.4 L 128.94,125.03 L 127.94,125.6 L 126.9,126.13 L 125.84,126.61 L 124.75,127.04 L 123.64,127.42 L 122.5,127.74 L 121.34,128.01 L 120.15,128.22 L 118.95,128.38 L 117.73,128.47 L 116.5,128.5 C 103.25,128.5 92.5,117.75 92.5,104.5 C 92.5,91.246 103.25,80.5 116.5,80.5 C 129.75,80.5 140.5,91.246 140.5,104.5 z "
   style="fill:#ffffff;fill-rule:nonzero;stroke:#ffffff;stroke-width:0;stroke-linecap:round;stroke-linejoin:round"
   id="path5204" />
<path
   d="M 140.5,104.5 L 140.47,105.73 L 140.38,106.95 L 140.22,108.15 L 140.01,109.34 L 139.74,110.5 L 139.42,111.64 L 139.04,112.75 L 138.61,113.84 L 138.13,114.9 L 137.6,115.94 L 137.03,116.94 L 136.4,117.92 L 135.73,118.86 L 135.02,119.77 L 134.26,120.64 L 133.47,121.47 L 132.64,122.26 L 131.77,123.02 L 130.86,123.73 L 129.92,124.4 L 128.94,125.03 L 127.94,125.6 L 126.9,126.13 L 125.84,126.61 L 124.75,127.04 L 123.64,127.42 L 122.5,127.74 L 121.34,128.01 L 120.15,128.22 L 118.95,128.38 L 117.73,128.47 L 116.5,128.5 C 103.25,128.5 92.5,117.75 92.5,104.5 C 92.5,91.246 103.25,80.5 116.5,80.5 C 129.75,80.5 140.5,91.246 140.5,104.5 z "
   style="stroke-width:2;stroke-linecap:round;stroke-linejoin:round"
   id="path5206" />
<path
   d="M 92.5,104.5 L 92.469,105.73 L 92.376,106.95 L 92.223,108.15 L 92.012,109.34 L 91.744,110.5 L 91.421,111.64 L 91.044,112.75 L 90.614,113.84 L 90.133,114.9 L 89.603,115.94 L 89.025,116.94 L 88.401,117.92 L 87.732,118.86 L 87.019,119.77 L 86.265,120.64 L 85.47,121.47 L 84.637,122.26 L 83.766,123.02 L 82.859,123.73 L 81.918,124.4 L 80.944,125.03 L 79.939,125.6 L 78.905,126.13 L 77.841,126.61 L 76.752,127.04 L 75.637,127.42 L 74.498,127.74 L 73.337,128.01 L 72.155,128.22 L 70.954,128.38 L 69.735,128.47 L 68.5,128.5 C 55.246,128.5 44.5,117.75 44.5,104.5 C 44.5,91.246 55.246,80.5 68.5,80.5 C 81.754,80.5 92.5,91.246 92.5,104.5 z "
   style="fill:#ffffff;fill-rule:nonzero;stroke:#ffffff;stroke-width:0;stroke-linecap:round;stroke-linejoin:round"
   id="path5208" />
<path
   d="M 92.5,104.5 L 92.469,105.73 L 92.376,106.95 L 92.223,108.15 L 92.012,109.34 L 91.744,110.5 L 91.421,111.64 L 91.044,112.75 L 90.614,113.84 L 90.133,114.9 L 89.603,115.94 L 89.025,116.94 L 88.401,117.92 L 87.732,118.86 L 87.019,119.77 L 86.265,120.64 L 85.47,121.47 L 84.637,122.26 L 83.766,123.02 L 82.859,123.73 L 81.918,124.4 L 80.944,125.03 L 79.939,125.6 L 78.905,126.13 L 77.841,126.61 L 76.752,127.04 L 75.637,127.42 L 74.498,127.74 L 73.337,128.01 L 72.155,128.22 L 70.954,128.38 L 69.735,128.47 L 68.5,128.5 C 55.246,128.5 44.5,117.75 44.5,104.5 C 44.5,91.246 55.246,80.5 68.5,80.5 C 81.754,80.5 92.5,91.246 92.5,104.5 z "
   style="stroke-width:2;stroke-linecap:round;stroke-linejoin:round"
   id="path5210" />
<path
   d="M 134.99,140.5 L 134.98,140.71 L 134.95,140.91 L 134.89,141.11 L 134.82,141.31 L 134.72,141.51 L 134.61,141.7 L 134.48,141.89 L 134.32,142.07 L 134.15,142.25 L 133.97,142.42 L 133.76,142.59 L 133.54,142.76 L 133.3,142.92 L 133.05,143.07 L 132.79,143.22 L 132.5,143.36 L 132.21,143.49 L 131.9,143.62 L 131.58,143.74 L 131.25,143.85 L 130.9,143.95 L 130.55,144.05 L 130.18,144.14 L 129.8,144.22 L 129.42,144.29 L 129.02,144.36 L 128.62,144.41 L 128.21,144.46 L 127.79,144.49 L 127.37,144.52 L 126.94,144.53 L 126.5,144.54 C 121.81,144.54 118.01,142.73 118.01,140.5 C 118.01,138.27 121.81,136.46 126.5,136.46 C 131.19,136.46 134.99,138.27 134.99,140.5 z "
   style="fill:#ffffff;fill-rule:nonzero;stroke:#ffffff;stroke-width:0;stroke-linecap:round;stroke-linejoin:round"
   id="path5212" />
<path
   d="M 134.99,140.5 L 134.98,140.71 L 134.95,140.91 L 134.89,141.11 L 134.82,141.31 L 134.72,141.51 L 134.61,141.7 L 134.48,141.89 L 134.32,142.07 L 134.15,142.25 L 133.97,142.42 L 133.76,142.59 L 133.54,142.76 L 133.3,142.92 L 133.05,143.07 L 132.79,143.22 L 132.5,143.36 L 132.21,143.49 L 131.9,143.62 L 131.58,143.74 L 131.25,143.85 L 130.9,143.95 L 130.55,144.05 L 130.18,144.14 L 129.8,144.22 L 129.42,144.29 L 129.02,144.36 L 128.62,144.41 L 128.21,144.46 L 127.79,144.49 L 127.37,144.52 L 126.94,144.53 L 126.5,144.54 C 121.81,144.54 118.01,142.73 118.01,140.5 C 118.01,138.27 121.81,136.46 126.5,136.46 C 131.19,136.46 134.99,138.27 134.99,140.5 z "
   style="stroke-width:0.84906;stroke-linecap:round;stroke-linejoin:round"
   id="path5214" />
<text
   transform="matrix(1,0,0,-1,121.19,137.98)"
   style="font-size:8px;fill:#000000;stroke:none;font-family:&quot;Helvetica&quot;, sans-serif"
   id="text5216">60</text>

<text
   transform="matrix(1,0,0,-1,52.625,14.918)"
   style="font-size:16px;fill:#000000;stroke:none;font-family:&quot;Helvetica&quot;, sans-serif"
   id="text5218">A</text>

<polygon
   points="46.5,160.5 138.5,160.5 184.5,80.5 138.5,0.5 46.5,0.5 0.5,80.5 46.5,160.5 "
   style="stroke-width:1;stroke-linejoin:round"
   id="polygon5220" />
</g></svg>
