<?xml version="1.0" encoding="UTF-8" standalone="no"?>
<svg
   xmlns:dc="http://purl.org/dc/elements/1.1/"
   xmlns:cc="http://web.resource.org/cc/"
   xmlns:rdf="http://www.w3.org/1999/02/22-rdf-syntax-ns#"
   xmlns:svg="http://www.w3.org/2000/svg"
   xmlns="http://www.w3.org/2000/svg"
   xmlns:sodipodi="http://sodipodi.sourceforge.net/DTD/sodipodi-0.dtd"
   xmlns:inkscape="http://www.inkscape.org/namespaces/inkscape"
   width="80pt"
   height="80pt"
   viewBox="0 0 1 1"
   preserveAspectRatio="none"
   id="svg2"
   sodipodi:version="0.32"
   inkscape:version="0.45.1"
   sodipodi:docname="tile-803.svg"
   sodipodi:docbase="C:\Documents and Settings\Brett\workspace\18xx\tiles\svg"
   version="1.0"
   inkscape:output_extension="org.inkscape.output.svg.inkscape">
  <metadata
     id="metadata111">
    <rdf:RDF>
      <cc:Work
         rdf:about="">
        <dc:format>image/svg+xml</dc:format>
        <dc:type
           rdf:resource="http://purl.org/dc/dcmitype/StillImage" />
      </cc:Work>
    </rdf:RDF>
  </metadata>
  <defs
     id="defs109" />
  <sodipodi:namedview
     inkscape:window-height="579"
     inkscape:window-width="749"
     inkscape:pageshadow="2"
     inkscape:pageopacity="0.0"
     borderopacity="1.0"
     bordercolor="#666666"
     pagecolor="#ffffff"
     id="base"
     inkscape:zoom="2.5704545"
     inkscape:cx="67.798409"
     inkscape:cy="44.64425"
     inkscape:window-x="22"
     inkscape:window-y="22"
     inkscape:current-layer="svg2" />
  <title
     id="title4">SVG drawing</title>
  <desc
     id="desc6">This was produced by version 4.1 of GNU libplot, a free library for exporting 2-D vector graphics.</desc>
  <g
     transform="matrix(5.4158956e-3,0,0,-6.1763534e-3,-9.7036539e-4,1.0039524)"
     xml:space="preserve"
     style="font-style:normal;font-variant:normal;font-weight:normal;font-stretch:normal;letter-spacing:normal;word-spacing:normal;text-anchor:start;fill:none;fill-opacity:1;stroke:#000000;stroke-linecap:butt;stroke-linejoin:miter;stroke-miterlimit:10.43299961;stroke-dasharray:none;stroke-dashoffset:0;stroke-opacity:1"
     id="g10">
<polygon
   points="46.5,160.5 138.5,160.5 184.5,80.5 138.5,0.5 46.5,0.5 0.5,80.5 46.5,160.5 "
   style="fill:#38ac00;fill-rule:nonzero;stroke:#38ac00;stroke-width:0;stroke-linejoin:round"
   id="polygon12" />
<polygon
   points="108.37,9.9219 110.27,9.9219 110.27,10.496 108.37,10.496 108.37,9.9219 "
   style="fill:#000000;stroke-width:0;stroke-linejoin:round"
   id="polygon14" />
<path
   d="M 113.13,10.984 L 113.18,11.017 L 113.23,11.05 L 113.28,11.082 L 113.33,11.114 L 113.37,11.146 L 113.42,11.178 L 113.46,11.209 L 113.5,11.241 L 113.53,11.273 L 113.57,11.305 L 113.6,11.337 L 113.63,11.37 L 113.66,11.403 L 113.69,11.436 L 113.71,11.469 L 113.73,11.503 L 113.76,11.538 L 113.78,11.573 L 113.79,11.609 L 113.81,11.646 L 113.83,11.683 L 113.84,11.721 L 113.85,11.76 L 113.86,11.8 L 113.87,11.841 L 113.88,11.883 L 113.89,11.926 L 113.89,11.97 L 113.9,12.016 L 113.9,12.063 L 113.9,12.111 L 113.9,12.16 C 113.9,13.047 113.21,13.672 112.2,13.672 C 111.2,13.672 110.5,13.047 110.5,12.16 C 110.5,11.633 110.69,11.344 111.27,10.984 C 110.62,10.672 110.3,10.199 110.3,9.5742 C 110.3,8.5352 111.08,7.8164 112.2,7.8164 C 113.32,7.8164 114.11,8.5352 114.11,9.5664 C 114.11,10.199 113.79,10.672 113.13,10.984 z "
   style="fill:#000000;stroke-width:0;stroke-linecap:round;stroke-linejoin:round"
   id="path16" />
<path
   d="M 112.2,13.047 L 112.25,13.046 L 112.31,13.043 L 112.36,13.038 L 112.41,13.031 L 112.46,13.022 L 112.51,13.011 L 112.56,12.998 L 112.61,12.983 L 112.65,12.967 L 112.69,12.949 L 112.74,12.928 L 112.78,12.907 L 112.81,12.883 L 112.85,12.858 L 112.88,12.831 L 112.92,12.802 L 112.95,12.772 L 112.98,12.74 L 113.01,12.707 L 113.03,12.672 L 113.05,12.636 L 113.08,12.598 L 113.1,12.559 L 113.11,12.518 L 113.13,12.476 L 113.14,12.432 L 113.16,12.388 L 113.17,12.341 L 113.17,12.294 L 113.18,12.245 L 113.18,12.196 L 113.18,12.144 C 113.18,11.617 112.79,11.266 112.2,11.266 C 111.61,11.266 111.21,11.617 111.21,12.152 C 111.21,12.695 111.61,13.047 112.2,13.047 z "
   style="fill:#000000;stroke-width:0;stroke-linecap:round;stroke-linejoin:round"
   id="path18" />
<path
   d="M 112.2,10.672 L 112.26,10.671 L 112.33,10.667 L 112.39,10.66 L 112.45,10.651 L 112.51,10.64 L 112.57,10.626 L 112.63,10.61 L 112.68,10.591 L 112.73,10.571 L 112.79,10.547 L 112.83,10.522 L 112.88,10.495 L 112.93,10.465 L 112.97,10.434 L 113.01,10.4 L 113.05,10.364 L 113.09,10.327 L 113.13,10.287 L 113.16,10.246 L 113.19,10.203 L 113.22,10.158 L 113.25,10.111 L 113.27,10.063 L 113.3,10.013 L 113.32,9.9611 L 113.33,9.9079 L 113.35,9.8533 L 113.36,9.7971 L 113.37,9.7395 L 113.38,9.6805 L 113.38,9.6202 L 113.38,9.5586 C 113.38,8.8867 112.9,8.4414 112.18,8.4414 C 111.5,8.4414 111.02,8.8945 111.02,9.5586 C 111.02,10.223 111.5,10.672 112.2,10.672 z "
   style="fill:#000000;stroke-width:0;stroke-linecap:round;stroke-linejoin:round"
   id="path20" />
<path
   d="M 117.2,13.672 L 117.15,13.671 L 117.1,13.669 L 117.05,13.666 L 117,13.661 L 116.96,13.655 L 116.91,13.648 L 116.86,13.64 L 116.81,13.63 L 116.77,13.619 L 116.72,13.606 L 116.68,13.593 L 116.63,13.578 L 116.59,13.562 L 116.55,13.545 L 116.5,13.527 L 116.46,13.507 L 116.42,13.487 L 116.38,13.465 L 116.34,13.442 L 116.3,13.418 L 116.26,13.393 L 116.22,13.367 L 116.19,13.339 L 116.15,13.311 L 116.11,13.282 L 116.08,13.251 L 116.05,13.22 L 116.01,13.187 L 115.98,13.153 L 115.95,13.119 L 115.92,13.083 L 115.89,13.047 C 115.53,12.551 115.34,11.793 115.34,10.742 C 115.34,8.832 115.98,7.8164 117.2,7.8164 C 118.4,7.8164 119.06,8.832 119.06,10.695 C 119.06,11.801 118.88,12.535 118.5,13.047 C 118.21,13.449 117.73,13.672 117.2,13.672 z "
   style="fill:#000000;stroke-width:0;stroke-linecap:round;stroke-linejoin:round"
   id="path22" />
<path
   d="M 117.2,13.047 L 117.27,13.045 L 117.34,13.038 L 117.4,13.027 L 117.47,13.011 L 117.53,12.991 L 117.59,12.966 L 117.64,12.937 L 117.7,12.904 L 117.75,12.865 L 117.8,12.823 L 117.85,12.776 L 117.89,12.724 L 117.94,12.669 L 117.98,12.608 L 118.02,12.543 L 118.05,12.474 L 118.09,12.4 L 118.12,12.322 L 118.15,12.24 L 118.18,12.153 L 118.2,12.061 L 118.23,11.965 L 118.25,11.865 L 118.27,11.76 L 118.28,11.651 L 118.3,11.537 L 118.31,11.419 L 118.32,11.296 L 118.33,11.169 L 118.33,11.038 L 118.33,10.902 L 118.34,10.762 C 118.34,9.1523 117.97,8.3984 117.18,8.3984 C 116.44,8.3984 116.06,9.1836 116.06,10.734 C 116.06,12.289 116.44,13.047 117.2,13.047 z "
   style="fill:#000000;stroke-width:0;stroke-linecap:round;stroke-linejoin:round"
   id="path24" />
<path
   d="M 120.77,10.602 L 120.86,10.602 L 121.15,10.609 C 121.93,10.609 122.33,10.258 122.33,9.5742 C 122.33,8.8633 121.89,8.4414 121.15,8.4414 C 120.38,8.4414 120.01,8.8242 119.96,9.6484 L 119.26,9.6484 C 119.29,9.1914 119.37,8.8945 119.5,8.6406 C 119.79,8.0977 120.35,7.8164 121.13,7.8164 C 122.3,7.8164 123.05,8.5117 123.05,9.5859 C 123.05,10.305 122.77,10.703 122.09,10.938 C 122.62,11.144 122.88,11.543 122.88,12.113 C 122.88,13.09 122.23,13.672 121.15,13.672 C 120.01,13.672 119.4,13.047 119.38,11.84 L 120.08,11.84 C 120.09,12.184 120.12,12.375 120.21,12.551 C 120.37,12.863 120.72,13.055 121.16,13.055 C 121.79,13.055 122.16,12.688 122.16,12.09 C 122.16,11.688 122.02,11.449 121.7,11.32 C 121.51,11.238 121.27,11.207 120.77,11.199 L 120.77,10.602 z "
   style="fill:#000000;stroke-width:0;stroke-linecap:round;stroke-linejoin:round"
   id="path26" />
<path
   d="M 82.5,100.5 L 82.469,101.73 L 82.376,102.95 L 82.223,104.15 L 82.012,105.34 L 81.744,106.5 L 81.421,107.64 L 81.044,108.75 L 80.614,109.84 L 80.133,110.9 L 79.603,111.94 L 79.025,112.94 L 78.401,113.92 L 77.732,114.86 L 77.019,115.77 L 76.265,116.64 L 75.47,117.47 L 74.637,118.26 L 73.766,119.02 L 72.859,119.73 L 71.918,120.4 L 70.944,121.03 L 69.939,121.6 L 68.905,122.13 L 67.841,122.61 L 66.752,123.04 L 65.637,123.42 L 64.498,123.74 L 63.337,124.01 L 62.155,124.22 L 60.954,124.38 L 59.735,124.47 L 58.5,124.5 C 45.246,124.5 34.5,113.75 34.5,100.5 C 34.5,87.246 45.246,76.5 58.5,76.5 C 71.754,76.5 82.5,87.246 82.5,100.5 z "
   style="fill:#ffffff;fill-rule:nonzero;stroke:#ffffff;stroke-width:0;stroke-linecap:round;stroke-linejoin:round"
   id="path28" />
<path
   d="M 82.5,100.5 L 82.469,101.73 L 82.376,102.95 L 82.223,104.15 L 82.012,105.34 L 81.744,106.5 L 81.421,107.64 L 81.044,108.75 L 80.614,109.84 L 80.133,110.9 L 79.603,111.94 L 79.025,112.94 L 78.401,113.92 L 77.732,114.86 L 77.019,115.77 L 76.265,116.64 L 75.47,117.47 L 74.637,118.26 L 73.766,119.02 L 72.859,119.73 L 71.918,120.4 L 70.944,121.03 L 69.939,121.6 L 68.905,122.13 L 67.841,122.61 L 66.752,123.04 L 65.637,123.42 L 64.498,123.74 L 63.337,124.01 L 62.155,124.22 L 60.954,124.38 L 59.735,124.47 L 58.5,124.5 C 45.246,124.5 34.5,113.75 34.5,100.5 C 34.5,87.246 45.246,76.5 58.5,76.5 C 71.754,76.5 82.5,87.246 82.5,100.5 z "
   style="stroke:#ffffff;stroke-width:6;stroke-linecap:round;stroke-linejoin:round"
   id="path30" />
<path
   d="M 139.5,120.5 L 139.47,121.73 L 139.38,122.95 L 139.22,124.15 L 139.01,125.34 L 138.74,126.5 L 138.42,127.64 L 138.04,128.75 L 137.61,129.84 L 137.13,130.9 L 136.6,131.94 L 136.03,132.94 L 135.4,133.92 L 134.73,134.86 L 134.02,135.77 L 133.26,136.64 L 132.47,137.47 L 131.64,138.26 L 130.77,139.02 L 129.86,139.73 L 128.92,140.4 L 127.94,141.03 L 126.94,141.6 L 125.9,142.13 L 124.84,142.61 L 123.75,143.04 L 122.64,143.42 L 121.5,143.74 L 120.34,144.01 L 119.15,144.22 L 117.95,144.38 L 116.73,144.47 L 115.5,144.5 C 102.25,144.5 91.5,133.75 91.5,120.5 C 91.5,107.25 102.25,96.5 115.5,96.5 C 128.75,96.5 139.5,107.25 139.5,120.5 z "
   style="fill:#ffffff;fill-rule:nonzero;stroke:#ffffff;stroke-width:0;stroke-linecap:round;stroke-linejoin:round"
   id="path32" />
<path
   d="M 139.5,120.5 L 139.47,121.73 L 139.38,122.95 L 139.22,124.15 L 139.01,125.34 L 138.74,126.5 L 138.42,127.64 L 138.04,128.75 L 137.61,129.84 L 137.13,130.9 L 136.6,131.94 L 136.03,132.94 L 135.4,133.92 L 134.73,134.86 L 134.02,135.77 L 133.26,136.64 L 132.47,137.47 L 131.64,138.26 L 130.77,139.02 L 129.86,139.73 L 128.92,140.4 L 127.94,141.03 L 126.94,141.6 L 125.9,142.13 L 124.84,142.61 L 123.75,143.04 L 122.64,143.42 L 121.5,143.74 L 120.34,144.01 L 119.15,144.22 L 117.95,144.38 L 116.73,144.47 L 115.5,144.5 C 102.25,144.5 91.5,133.75 91.5,120.5 C 91.5,107.25 102.25,96.5 115.5,96.5 C 128.75,96.5 139.5,107.25 139.5,120.5 z "
   style="stroke:#ffffff;stroke-width:6;stroke-linecap:round;stroke-linejoin:round"
   id="path34" />
<path
   d="M 116.5,40.5 L 116.47,41.735 L 116.38,42.954 L 116.22,44.155 L 116.01,45.337 L 115.74,46.498 L 115.42,47.637 L 115.04,48.752 L 114.61,49.841 L 114.13,50.905 L 113.6,51.939 L 113.03,52.944 L 112.4,53.918 L 111.73,54.859 L 111.02,55.766 L 110.26,56.637 L 109.47,57.47 L 108.64,58.265 L 107.77,59.019 L 106.86,59.732 L 105.92,60.401 L 104.94,61.025 L 103.94,61.603 L 102.9,62.133 L 101.84,62.614 L 100.75,63.044 L 99.637,63.421 L 98.498,63.744 L 97.337,64.012 L 96.155,64.223 L 94.954,64.376 L 93.735,64.469 L 92.5,64.5 C 79.246,64.5 68.5,53.754 68.5,40.5 C 68.5,27.246 79.246,16.5 92.5,16.5 C 105.75,16.5 116.5,27.246 116.5,40.5 z "
   style="fill:#ffffff;fill-rule:nonzero;stroke:#ffffff;stroke-width:0;stroke-linecap:round;stroke-linejoin:round"
   id="path36" />
<path
   d="M 116.5,40.5 L 116.47,41.735 L 116.38,42.954 L 116.22,44.155 L 116.01,45.337 L 115.74,46.498 L 115.42,47.637 L 115.04,48.752 L 114.61,49.841 L 114.13,50.905 L 113.6,51.939 L 113.03,52.944 L 112.4,53.918 L 111.73,54.859 L 111.02,55.766 L 110.26,56.637 L 109.47,57.47 L 108.64,58.265 L 107.77,59.019 L 106.86,59.732 L 105.92,60.401 L 104.94,61.025 L 103.94,61.603 L 102.9,62.133 L 101.84,62.614 L 100.75,63.044 L 99.637,63.421 L 98.498,63.744 L 97.337,64.012 L 96.155,64.223 L 94.954,64.376 L 93.735,64.469 L 92.5,64.5 C 79.246,64.5 68.5,53.754 68.5,40.5 C 68.5,27.246 79.246,16.5 92.5,16.5 C 105.75,16.5 116.5,27.246 116.5,40.5 z "
   style="stroke:#ffffff;stroke-width:6;stroke-linecap:round;stroke-linejoin:round"
   id="path38" />
<line
   x1="58.5"
   y1="100.5"
   x2="23.5"
   y2="120.5"
   style="stroke:#ffffff;stroke-width:16;stroke-linecap:round"
   id="line40" />
<path
   d="M 92.5,160.5 L 92.5,160.5 C 92.5,144.04 101.3,128.83 115.57,120.62"
   style="stroke:#ffffff;stroke-width:16;stroke-linecap:round;stroke-linejoin:round"
   id="path42" />
<path
   d="M 115.5,120.5 L 115.57,120.62 C 122.55,116.61 130.46,114.5 138.5,114.5 C 146.55,114.5 154.46,116.61 161.43,120.62"
   style="stroke:#ffffff;stroke-width:16;stroke-linecap:round;stroke-linejoin:round"
   id="path44" />
<line
   x1="92.5"
   y1="40.5"
   x2="92.5"
   y2="0.5"
   style="stroke:#ffffff;stroke-width:16;stroke-linecap:round"
   id="line46" />
<line
   x1="58.5"
   y1="100.5"
   x2="23.5"
   y2="120.5"
   style="stroke-width:12;stroke-linecap:round"
   id="line48" />
<path
   d="M 92.5,160.5 L 92.5,160.5 C 92.5,144.04 101.3,128.83 115.57,120.62"
   style="stroke-width:12;stroke-linecap:round;stroke-linejoin:round"
   id="path50" />
<path
   d="M 115.5,120.5 L 115.57,120.62 C 122.55,116.61 130.46,114.5 138.5,114.5 C 146.55,114.5 154.46,116.61 161.43,120.62"
   style="stroke-width:12;stroke-linecap:round;stroke-linejoin:round"
   id="path52" />
<line
   x1="92.5"
   y1="40.5"
   x2="92.5"
   y2="0.5"
   style="stroke-width:12;stroke-linecap:round"
   id="line54" />
<path
   d="M 82.5,100.5 L 82.469,101.73 L 82.376,102.95 L 82.223,104.15 L 82.012,105.34 L 81.744,106.5 L 81.421,107.64 L 81.044,108.75 L 80.614,109.84 L 80.133,110.9 L 79.603,111.94 L 79.025,112.94 L 78.401,113.92 L 77.732,114.86 L 77.019,115.77 L 76.265,116.64 L 75.47,117.47 L 74.637,118.26 L 73.766,119.02 L 72.859,119.73 L 71.918,120.4 L 70.944,121.03 L 69.939,121.6 L 68.905,122.13 L 67.841,122.61 L 66.752,123.04 L 65.637,123.42 L 64.498,123.74 L 63.337,124.01 L 62.155,124.22 L 60.954,124.38 L 59.735,124.47 L 58.5,124.5 C 45.246,124.5 34.5,113.75 34.5,100.5 C 34.5,87.246 45.246,76.5 58.5,76.5 C 71.754,76.5 82.5,87.246 82.5,100.5 z "
   style="fill:#ffffff;fill-rule:nonzero;stroke:#ffffff;stroke-width:0;stroke-linecap:round;stroke-linejoin:round"
   id="path56" />
<path
   d="M 82.5,100.5 L 82.469,101.73 L 82.376,102.95 L 82.223,104.15 L 82.012,105.34 L 81.744,106.5 L 81.421,107.64 L 81.044,108.75 L 80.614,109.84 L 80.133,110.9 L 79.603,111.94 L 79.025,112.94 L 78.401,113.92 L 77.732,114.86 L 77.019,115.77 L 76.265,116.64 L 75.47,117.47 L 74.637,118.26 L 73.766,119.02 L 72.859,119.73 L 71.918,120.4 L 70.944,121.03 L 69.939,121.6 L 68.905,122.13 L 67.841,122.61 L 66.752,123.04 L 65.637,123.42 L 64.498,123.74 L 63.337,124.01 L 62.155,124.22 L 60.954,124.38 L 59.735,124.47 L 58.5,124.5 C 45.246,124.5 34.5,113.75 34.5,100.5 C 34.5,87.246 45.246,76.5 58.5,76.5 C 71.754,76.5 82.5,87.246 82.5,100.5 z "
   style="stroke-width:2;stroke-linecap:round;stroke-linejoin:round"
   id="path58" />
<path
   d="M 100.99,80.5 L 100.98,80.708 L 100.95,80.913 L 100.89,81.115 L 100.82,81.314 L 100.72,81.509 L 100.61,81.701 L 100.48,81.889 L 100.32,82.072 L 100.15,82.251 L 99.967,82.425 L 99.762,82.594 L 99.541,82.758 L 99.304,82.917 L 99.052,83.069 L 98.785,83.216 L 98.504,83.356 L 98.209,83.49 L 97.901,83.617 L 97.58,83.737 L 97.247,83.849 L 96.902,83.954 L 96.547,84.052 L 96.181,84.141 L 95.804,84.222 L 95.419,84.294 L 95.024,84.357 L 94.621,84.412 L 94.211,84.457 L 93.793,84.493 L 93.368,84.518 L 92.937,84.534 L 92.5,84.539 C 87.812,84.539 84.008,82.73 84.008,80.5 C 84.008,78.27 87.812,76.461 92.5,76.461 C 97.188,76.461 100.99,78.27 100.99,80.5 z "
   style="fill:#ffffff;fill-rule:nonzero;stroke:#ffffff;stroke-width:0;stroke-linecap:round;stroke-linejoin:round"
   id="path60" />
<path
   d="M 100.99,80.5 L 100.98,80.708 L 100.95,80.913 L 100.89,81.115 L 100.82,81.314 L 100.72,81.509 L 100.61,81.701 L 100.48,81.889 L 100.32,82.072 L 100.15,82.251 L 99.967,82.425 L 99.762,82.594 L 99.541,82.758 L 99.304,82.917 L 99.052,83.069 L 98.785,83.216 L 98.504,83.356 L 98.209,83.49 L 97.901,83.617 L 97.58,83.737 L 97.247,83.849 L 96.902,83.954 L 96.547,84.052 L 96.181,84.141 L 95.804,84.222 L 95.419,84.294 L 95.024,84.357 L 94.621,84.412 L 94.211,84.457 L 93.793,84.493 L 93.368,84.518 L 92.937,84.534 L 92.5,84.539 C 87.812,84.539 84.008,82.73 84.008,80.5 C 84.008,78.27 87.812,76.461 92.5,76.461 C 97.188,76.461 100.99,78.27 100.99,80.5 z "
   style="stroke-width:0.84906;stroke-linecap:round;stroke-linejoin:round"
   id="path62" />
<path
   d="M 92.023,79.734 L 91.375,79.91 C 91.016,79.168 90.938,79.121 89.938,79.121 L 88.938,79.121 C 89.93,79.656 90.406,79.969 90.887,80.391 C 91.496,80.945 91.742,81.375 91.742,81.91 C 91.742,82.895 90.863,83.551 89.52,83.551 C 88.246,83.551 87.328,82.887 87.328,81.969 C 87.328,81.52 87.625,81.207 88.031,81.207 C 88.391,81.207 88.695,81.488 88.695,81.824 C 88.695,81.961 88.664,82.055 88.566,82.199 C 88.512,82.289 88.488,82.352 88.488,82.406 C 88.488,82.641 88.879,82.855 89.297,82.855 C 89.816,82.855 90.152,82.543 90.152,82.055 C 90.152,81.488 89.809,80.848 89.176,80.258 C 88.711,79.824 88.543,79.695 87.328,78.895 L 87.457,78 L 91.535,78 L 92.023,79.734 z "
   style="fill:#000000;stroke-width:0;stroke-linecap:round;stroke-linejoin:round"
   id="path64" />
<path
   d="M 94.711,83.551 L 94.644,83.55 L 94.578,83.548 L 94.513,83.544 L 94.447,83.538 L 94.382,83.531 L 94.318,83.523 L 94.254,83.513 L 94.191,83.501 L 94.128,83.488 L 94.066,83.474 L 94.005,83.458 L 93.945,83.44 L 93.885,83.421 L 93.826,83.401 L 93.767,83.379 L 93.71,83.356 L 93.653,83.331 L 93.598,83.305 L 93.543,83.278 L 93.49,83.249 L 93.437,83.219 L 93.386,83.188 L 93.335,83.155 L 93.286,83.121 L 93.238,83.085 L 93.191,83.048 L 93.146,83.01 L 93.101,82.971 L 93.058,82.93 L 93.017,82.888 L 92.976,82.845 L 92.938,82.801 C 92.504,82.305 92.238,81.512 92.238,80.688 C 92.238,78.969 93.176,77.895 94.672,77.895 C 96.16,77.895 97.113,79 97.113,80.742 C 97.113,82.441 96.16,83.551 94.711,83.551 z "
   style="fill:#000000;stroke-width:0;stroke-linecap:round;stroke-linejoin:round"
   id="path66" />
<path
   d="M 94.672,82.816 L 94.728,82.814 L 94.783,82.808 L 94.836,82.796 L 94.887,82.781 L 94.937,82.761 L 94.985,82.737 L 95.032,82.709 L 95.077,82.677 L 95.12,82.64 L 95.161,82.599 L 95.201,82.554 L 95.239,82.505 L 95.275,82.452 L 95.309,82.395 L 95.342,82.334 L 95.373,82.269 L 95.402,82.2 L 95.43,82.127 L 95.455,82.05 L 95.479,81.97 L 95.501,81.885 L 95.521,81.797 L 95.539,81.706 L 95.555,81.61 L 95.57,81.511 L 95.582,81.408 L 95.593,81.302 L 95.602,81.192 L 95.608,81.079 L 95.613,80.963 L 95.616,80.842 L 95.617,80.719 C 95.617,79.383 95.281,78.633 94.672,78.633 C 94.062,78.633 93.734,79.383 93.734,80.754 C 93.734,82.062 94.078,82.816 94.672,82.816 z "
   style="fill:#000000;stroke-width:0;stroke-linecap:round;stroke-linejoin:round"
   id="path68" />
<path
   d="M 139.5,120.5 L 139.47,121.73 L 139.38,122.95 L 139.22,124.15 L 139.01,125.34 L 138.74,126.5 L 138.42,127.64 L 138.04,128.75 L 137.61,129.84 L 137.13,130.9 L 136.6,131.94 L 136.03,132.94 L 135.4,133.92 L 134.73,134.86 L 134.02,135.77 L 133.26,136.64 L 132.47,137.47 L 131.64,138.26 L 130.77,139.02 L 129.86,139.73 L 128.92,140.4 L 127.94,141.03 L 126.94,141.6 L 125.9,142.13 L 124.84,142.61 L 123.75,143.04 L 122.64,143.42 L 121.5,143.74 L 120.34,144.01 L 119.15,144.22 L 117.95,144.38 L 116.73,144.47 L 115.5,144.5 C 102.25,144.5 91.5,133.75 91.5,120.5 C 91.5,107.25 102.25,96.5 115.5,96.5 C 128.75,96.5 139.5,107.25 139.5,120.5 z "
   style="fill:#ffffff;fill-rule:nonzero;stroke:#ffffff;stroke-width:0;stroke-linecap:round;stroke-linejoin:round"
   id="path70" />
<path
   d="M 139.5,120.5 L 139.47,121.73 L 139.38,122.95 L 139.22,124.15 L 139.01,125.34 L 138.74,126.5 L 138.42,127.64 L 138.04,128.75 L 137.61,129.84 L 137.13,130.9 L 136.6,131.94 L 136.03,132.94 L 135.4,133.92 L 134.73,134.86 L 134.02,135.77 L 133.26,136.64 L 132.47,137.47 L 131.64,138.26 L 130.77,139.02 L 129.86,139.73 L 128.92,140.4 L 127.94,141.03 L 126.94,141.6 L 125.9,142.13 L 124.84,142.61 L 123.75,143.04 L 122.64,143.42 L 121.5,143.74 L 120.34,144.01 L 119.15,144.22 L 117.95,144.38 L 116.73,144.47 L 115.5,144.5 C 102.25,144.5 91.5,133.75 91.5,120.5 C 91.5,107.25 102.25,96.5 115.5,96.5 C 128.75,96.5 139.5,107.25 139.5,120.5 z "
   style="stroke-width:2;stroke-linecap:round;stroke-linejoin:round"
   id="path72" />
<path
   d="M 100.99,80.5 L 100.98,80.708 L 100.95,80.913 L 100.89,81.115 L 100.82,81.314 L 100.72,81.509 L 100.61,81.701 L 100.48,81.889 L 100.32,82.072 L 100.15,82.251 L 99.967,82.425 L 99.762,82.594 L 99.541,82.758 L 99.304,82.917 L 99.052,83.069 L 98.785,83.216 L 98.504,83.356 L 98.209,83.49 L 97.901,83.617 L 97.58,83.737 L 97.247,83.849 L 96.902,83.954 L 96.547,84.052 L 96.181,84.141 L 95.804,84.222 L 95.419,84.294 L 95.024,84.357 L 94.621,84.412 L 94.211,84.457 L 93.793,84.493 L 93.368,84.518 L 92.937,84.534 L 92.5,84.539 C 87.812,84.539 84.008,82.73 84.008,80.5 C 84.008,78.27 87.812,76.461 92.5,76.461 C 97.188,76.461 100.99,78.27 100.99,80.5 z "
   style="fill:#ffffff;fill-rule:nonzero;stroke:#ffffff;stroke-width:0;stroke-linecap:round;stroke-linejoin:round"
   id="path74" />
<path
   d="M 100.99,80.5 L 100.98,80.708 L 100.95,80.913 L 100.89,81.115 L 100.82,81.314 L 100.72,81.509 L 100.61,81.701 L 100.48,81.889 L 100.32,82.072 L 100.15,82.251 L 99.967,82.425 L 99.762,82.594 L 99.541,82.758 L 99.304,82.917 L 99.052,83.069 L 98.785,83.216 L 98.504,83.356 L 98.209,83.49 L 97.901,83.617 L 97.58,83.737 L 97.247,83.849 L 96.902,83.954 L 96.547,84.052 L 96.181,84.141 L 95.804,84.222 L 95.419,84.294 L 95.024,84.357 L 94.621,84.412 L 94.211,84.457 L 93.793,84.493 L 93.368,84.518 L 92.937,84.534 L 92.5,84.539 C 87.812,84.539 84.008,82.73 84.008,80.5 C 84.008,78.27 87.812,76.461 92.5,76.461 C 97.188,76.461 100.99,78.27 100.99,80.5 z "
   style="stroke-width:0.84906;stroke-linecap:round;stroke-linejoin:round"
   id="path76" />
<path
   d="M 91.031,83.449 L 89.77,83.449 C 89.168,82.512 88.238,81.266 87.152,79.938 L 87.434,79.359 L 89.734,79.359 L 89.734,79.062 C 89.734,78.824 89.574,78.695 89.238,78.672 L 89.039,78.656 L 89.039,78 L 91.727,78 L 91.727,78.656 L 91.527,78.672 C 91.184,78.695 91.031,78.824 91.031,79.062 L 91.031,79.359 L 91.848,79.359 L 92.191,80.137 L 91.031,80.137 L 91.031,83.449 z "
   style="fill:#000000;stroke-width:0;stroke-linecap:round;stroke-linejoin:round"
   id="path78" />
<path
   d="M 89.734,80.137 L 88.266,80.137 C 89.289,81.488 89.496,81.785 89.734,82.207 L 89.734,80.137 z "
   style="fill:#000000;stroke-width:0;stroke-linecap:round;stroke-linejoin:round"
   id="path80" />
<path
   d="M 94.711,83.551 L 94.644,83.55 L 94.578,83.548 L 94.513,83.544 L 94.447,83.538 L 94.382,83.531 L 94.318,83.523 L 94.254,83.513 L 94.191,83.501 L 94.128,83.488 L 94.066,83.474 L 94.005,83.458 L 93.945,83.44 L 93.885,83.421 L 93.826,83.401 L 93.767,83.379 L 93.71,83.356 L 93.653,83.331 L 93.598,83.305 L 93.543,83.278 L 93.49,83.249 L 93.437,83.219 L 93.386,83.188 L 93.335,83.155 L 93.286,83.121 L 93.238,83.085 L 93.191,83.048 L 93.146,83.01 L 93.101,82.971 L 93.058,82.93 L 93.017,82.888 L 92.976,82.845 L 92.938,82.801 C 92.504,82.305 92.238,81.512 92.238,80.688 C 92.238,78.969 93.176,77.895 94.672,77.895 C 96.16,77.895 97.113,79 97.113,80.742 C 97.113,82.441 96.16,83.551 94.711,83.551 z "
   style="fill:#000000;stroke-width:0;stroke-linecap:round;stroke-linejoin:round"
   id="path82" />
<path
   d="M 94.672,82.816 L 94.728,82.814 L 94.783,82.808 L 94.836,82.796 L 94.887,82.781 L 94.937,82.761 L 94.985,82.737 L 95.032,82.709 L 95.077,82.677 L 95.12,82.64 L 95.161,82.599 L 95.201,82.554 L 95.239,82.505 L 95.275,82.452 L 95.309,82.395 L 95.342,82.334 L 95.373,82.269 L 95.402,82.2 L 95.43,82.127 L 95.455,82.05 L 95.479,81.97 L 95.501,81.885 L 95.521,81.797 L 95.539,81.706 L 95.555,81.61 L 95.57,81.511 L 95.582,81.408 L 95.593,81.302 L 95.602,81.192 L 95.608,81.079 L 95.613,80.963 L 95.616,80.842 L 95.617,80.719 C 95.617,79.383 95.281,78.633 94.672,78.633 C 94.062,78.633 93.734,79.383 93.734,80.754 C 93.734,82.062 94.078,82.816 94.672,82.816 z "
   style="fill:#000000;stroke-width:0;stroke-linecap:round;stroke-linejoin:round"
   id="path84" />
<path
   d="M 116.5,40.5 L 116.47,41.735 L 116.38,42.954 L 116.22,44.155 L 116.01,45.337 L 115.74,46.498 L 115.42,47.637 L 115.04,48.752 L 114.61,49.841 L 114.13,50.905 L 113.6,51.939 L 113.03,52.944 L 112.4,53.918 L 111.73,54.859 L 111.02,55.766 L 110.26,56.637 L 109.47,57.47 L 108.64,58.265 L 107.77,59.019 L 106.86,59.732 L 105.92,60.401 L 104.94,61.025 L 103.94,61.603 L 102.9,62.133 L 101.84,62.614 L 100.75,63.044 L 99.637,63.421 L 98.498,63.744 L 97.337,64.012 L 96.155,64.223 L 94.954,64.376 L 93.735,64.469 L 92.5,64.5 C 79.246,64.5 68.5,53.754 68.5,40.5 C 68.5,27.246 79.246,16.5 92.5,16.5 C 105.75,16.5 116.5,27.246 116.5,40.5 z "
   style="fill:#ffffff;fill-rule:nonzero;stroke:#ffffff;stroke-width:0;stroke-linecap:round;stroke-linejoin:round"
   id="path86" />
<path
   d="M 116.5,40.5 L 116.47,41.735 L 116.38,42.954 L 116.22,44.155 L 116.01,45.337 L 115.74,46.498 L 115.42,47.637 L 115.04,48.752 L 114.61,49.841 L 114.13,50.905 L 113.6,51.939 L 113.03,52.944 L 112.4,53.918 L 111.73,54.859 L 111.02,55.766 L 110.26,56.637 L 109.47,57.47 L 108.64,58.265 L 107.77,59.019 L 106.86,59.732 L 105.92,60.401 L 104.94,61.025 L 103.94,61.603 L 102.9,62.133 L 101.84,62.614 L 100.75,63.044 L 99.637,63.421 L 98.498,63.744 L 97.337,64.012 L 96.155,64.223 L 94.954,64.376 L 93.735,64.469 L 92.5,64.5 C 79.246,64.5 68.5,53.754 68.5,40.5 C 68.5,27.246 79.246,16.5 92.5,16.5 C 105.75,16.5 116.5,27.246 116.5,40.5 z "
   style="stroke-width:2;stroke-linecap:round;stroke-linejoin:round"
   id="path88" />
<path
   d="M 100.99,80.5 L 100.98,80.708 L 100.95,80.913 L 100.89,81.115 L 100.82,81.314 L 100.72,81.509 L 100.61,81.701 L 100.48,81.889 L 100.32,82.072 L 100.15,82.251 L 99.967,82.425 L 99.762,82.594 L 99.541,82.758 L 99.304,82.917 L 99.052,83.069 L 98.785,83.216 L 98.504,83.356 L 98.209,83.49 L 97.901,83.617 L 97.58,83.737 L 97.247,83.849 L 96.902,83.954 L 96.547,84.052 L 96.181,84.141 L 95.804,84.222 L 95.419,84.294 L 95.024,84.357 L 94.621,84.412 L 94.211,84.457 L 93.793,84.493 L 93.368,84.518 L 92.937,84.534 L 92.5,84.539 C 87.812,84.539 84.008,82.73 84.008,80.5 C 84.008,78.27 87.812,76.461 92.5,76.461 C 97.188,76.461 100.99,78.27 100.99,80.5 z "
   style="fill:#ffffff;fill-rule:nonzero;stroke:#ffffff;stroke-width:0;stroke-linecap:round;stroke-linejoin:round"
   id="path90" />
<path
   d="M 100.99,80.5 L 100.98,80.708 L 100.95,80.913 L 100.89,81.115 L 100.82,81.314 L 100.72,81.509 L 100.61,81.701 L 100.48,81.889 L 100.32,82.072 L 100.15,82.251 L 99.967,82.425 L 99.762,82.594 L 99.541,82.758 L 99.304,82.917 L 99.052,83.069 L 98.785,83.216 L 98.504,83.356 L 98.209,83.49 L 97.901,83.617 L 97.58,83.737 L 97.247,83.849 L 96.902,83.954 L 96.547,84.052 L 96.181,84.141 L 95.804,84.222 L 95.419,84.294 L 95.024,84.357 L 94.621,84.412 L 94.211,84.457 L 93.793,84.493 L 93.368,84.518 L 92.937,84.534 L 92.5,84.539 C 87.812,84.539 84.008,82.73 84.008,80.5 C 84.008,78.27 87.812,76.461 92.5,76.461 C 97.188,76.461 100.99,78.27 100.99,80.5 z "
   style="stroke-width:0.84906;stroke-linecap:round;stroke-linejoin:round"
   id="path92" />
<path
   d="M 91.031,83.449 L 89.77,83.449 C 89.168,82.512 88.238,81.266 87.152,79.938 L 87.434,79.359 L 89.734,79.359 L 89.734,79.062 C 89.734,78.824 89.574,78.695 89.238,78.672 L 89.039,78.656 L 89.039,78 L 91.727,78 L 91.727,78.656 L 91.527,78.672 C 91.184,78.695 91.031,78.824 91.031,79.062 L 91.031,79.359 L 91.848,79.359 L 92.191,80.137 L 91.031,80.137 L 91.031,83.449 z "
   style="fill:#000000;stroke-width:0;stroke-linecap:round;stroke-linejoin:round"
   id="path94" />
<path
   d="M 89.734,80.137 L 88.266,80.137 C 89.289,81.488 89.496,81.785 89.734,82.207 L 89.734,80.137 z "
   style="fill:#000000;stroke-width:0;stroke-linecap:round;stroke-linejoin:round"
   id="path96" />
<path
   d="M 94.711,83.551 L 94.644,83.55 L 94.578,83.548 L 94.513,83.544 L 94.447,83.538 L 94.382,83.531 L 94.318,83.523 L 94.254,83.513 L 94.191,83.501 L 94.128,83.488 L 94.066,83.474 L 94.005,83.458 L 93.945,83.44 L 93.885,83.421 L 93.826,83.401 L 93.767,83.379 L 93.71,83.356 L 93.653,83.331 L 93.598,83.305 L 93.543,83.278 L 93.49,83.249 L 93.437,83.219 L 93.386,83.188 L 93.335,83.155 L 93.286,83.121 L 93.238,83.085 L 93.191,83.048 L 93.146,83.01 L 93.101,82.971 L 93.058,82.93 L 93.017,82.888 L 92.976,82.845 L 92.938,82.801 C 92.504,82.305 92.238,81.512 92.238,80.688 C 92.238,78.969 93.176,77.895 94.672,77.895 C 96.16,77.895 97.113,79 97.113,80.742 C 97.113,82.441 96.16,83.551 94.711,83.551 z "
   style="fill:#000000;stroke-width:0;stroke-linecap:round;stroke-linejoin:round"
   id="path98" />
<path
   d="M 94.672,82.816 L 94.728,82.814 L 94.783,82.808 L 94.836,82.796 L 94.887,82.781 L 94.937,82.761 L 94.985,82.737 L 95.032,82.709 L 95.077,82.677 L 95.12,82.64 L 95.161,82.599 L 95.201,82.554 L 95.239,82.505 L 95.275,82.452 L 95.309,82.395 L 95.342,82.334 L 95.373,82.269 L 95.402,82.2 L 95.43,82.127 L 95.455,82.05 L 95.479,81.97 L 95.501,81.885 L 95.521,81.797 L 95.539,81.706 L 95.555,81.61 L 95.57,81.511 L 95.582,81.408 L 95.593,81.302 L 95.602,81.192 L 95.608,81.079 L 95.613,80.963 L 95.616,80.842 L 95.617,80.719 C 95.617,79.383 95.281,78.633 94.672,78.633 C 94.062,78.633 93.734,79.383 93.734,80.754 C 93.734,82.062 94.078,82.816 94.672,82.816 z "
   style="fill:#000000;stroke-width:0;stroke-linecap:round;stroke-linejoin:round"
   id="path100" />
<polygon
   points="55.113,20.297 55.113,15 57.512,15 57.512,26.664 55.098,26.664 55.098,22.297 50.488,22.297 50.488,26.664 48.09,26.664 48.09,15 50.488,15 50.488,20.297 55.113,20.297 "
   style="fill:#000000;stroke-width:0;stroke-linejoin:round"
   id="polygon102" />
<polygon
   points="67.113,20.297 67.113,15 69.512,15 69.512,26.664 67.098,26.664 67.098,22.297 62.488,22.297 62.488,26.664 60.09,26.664 60.09,15 62.488,15 62.488,20.297 67.113,20.297 "
   style="fill:#000000;stroke-width:0;stroke-linejoin:round"
   id="polygon104" />
<polygon
   points="46.5,160.5 138.5,160.5 184.5,80.5 138.5,0.5 46.5,0.5 0.5,80.5 46.5,160.5 "
   style="stroke-width:1;stroke-linejoin:round"
   id="polygon106" />
</g></svg>
