<?xml version="1.0"?>
<svg version="1.1" xmlns="http://www.w3.org/2000/svg"><path d=" M 98,0 L 294,0 L 392,170 L 294,340 L 98,340 L 0,170 Z" fill="#808080" stroke="#808080" stroke-width="1" stroke-linejoin="round"/><text x="245" y="318" dy="0.3em" fill="#000000" stroke="#000000" text-anchor="middle" font-family="Arial" font-size="31" font-weight="bold">50</text><circle cx="123" cy="128" r="51" fill="#FFFFFF" stroke="#FFFFFF" stroke-width="12"/><circle cx="245" cy="85" r="51" fill="#FFFFFF" stroke="#FFFFFF" stroke-width="12"/><circle cx="147" cy="255" r="51" fill="#FFFFFF" stroke="#FFFFFF" stroke-width="12"/><path d="M 123,128 L 343,255" fill="none" stroke="#FFFFFF" stroke-width="34" stroke-linecap="butt" stroke-linejoin="round"/><path d="M 123,128 L 49,85" fill="none" stroke="#FFFFFF" stroke-width="34" stroke-linecap="butt" stroke-linejoin="round"/><path d="M 196,0 A 98,98 0 0,0 245,85" fill="none" stroke="#FFFFFF" stroke-width="34" stroke-linecap="butt" stroke-linejoin="round"/><path d="M 245,85 A 98,98 0 0,0 343,85" fill="none" stroke="#FFFFFF" stroke-width="34" stroke-linecap="butt" stroke-linejoin="round"/><path d="M 196,340 A 98,98 0 0,0 147,255" fill="none" stroke="#FFFFFF" stroke-width="34" stroke-linecap="butt" stroke-linejoin="round"/><path d="M 147,255 A 98,98 0 0,0 49,255" fill="none" stroke="#FFFFFF" stroke-width="34" stroke-linecap="butt" stroke-linejoin="round"/><path d="M 123,128 L 343,255" fill="none" stroke="#000000" stroke-width="26" stroke-linecap="butt" stroke-linejoin="round"/><path d="M 123,128 L 49,85" fill="none" stroke="#000000" stroke-width="26" stroke-linecap="butt" stroke-linejoin="round"/><path d="M 196,0 A 98,98 0 0,0 245,85" fill="none" stroke="#000000" stroke-width="26" stroke-linecap="butt" stroke-linejoin="round"/><path d="M 245,85 A 98,98 0 0,0 343,85" fill="none" stroke="#000000" stroke-width="26" stroke-linecap="butt" stroke-linejoin="round"/><path d="M 196,340 A 98,98 0 0,0 147,255" fill="none" stroke="#000000" stroke-width="26" stroke-linecap="butt" stroke-linejoin="round"/><path d="M 147,255 A 98,98 0 0,0 49,255" fill="none" stroke="#000000" stroke-width="26" stroke-linecap="butt" stroke-linejoin="round"/><circle cx="123" cy="128" r="51" fill="#FFFFFF" stroke="#000000" stroke-width="4"/><ellipse rx="31" ry="30" cx="343" cy="170" fill="#FFFFFF" stroke="#000000" stroke-width="2" stroke-linejoin="round"/><text x="343" y="170" dy="0.3em" fill="#000000" stroke="#000000" text-anchor="middle" font-family="Bookman Old Style" font-size="43">70</text><circle cx="245" cy="85" r="51" fill="#FFFFFF" stroke="#000000" stroke-width="4"/><ellipse rx="31" ry="30" cx="343" cy="170" fill="#FFFFFF" stroke="#000000" stroke-width="2" stroke-linejoin="round"/><text x="343" y="170" dy="0.3em" fill="#000000" stroke="#000000" text-anchor="middle" font-family="Bookman Old Style" font-size="43">70</text><circle cx="147" cy="255" r="51" fill="#FFFFFF" stroke="#000000" stroke-width="4"/><ellipse rx="31" ry="30" cx="343" cy="170" fill="#FFFFFF" stroke="#000000" stroke-width="2" stroke-linejoin="round"/><text x="343" y="170" dy="0.3em" fill="#000000" stroke="#000000" text-anchor="middle" font-family="Bookman Old Style" font-size="43">70</text><text x="49" y="170" dy="0.3em" fill="#000000" stroke="#000000" text-anchor="middle" font-family="TimpaniHeavy" font-size="54">BGM</text><path d=" M 98,0 L 294,0 L 392,170 L 294,340 L 98,340 L 0,170 Z" fill="none" stroke="black" stroke-width="1" stroke-linejoin="round"/></svg>
