<?xml version="1.0" encoding="UTF-8" standalone="no"?>
<svg
   xmlns:dc="http://purl.org/dc/elements/1.1/"
   xmlns:cc="http://web.resource.org/cc/"
   xmlns:rdf="http://www.w3.org/1999/02/22-rdf-syntax-ns#"
   xmlns:svg="http://www.w3.org/2000/svg"
   xmlns="http://www.w3.org/2000/svg"
   xmlns:sodipodi="http://inkscape.sourceforge.net/DTD/sodipodi-0.dtd"
   xmlns:inkscape="http://www.inkscape.org/namespaces/inkscape"
   width="80pt"
   height="80pt"
   viewBox="0 0 1 1"
   preserveAspectRatio="none"
   id="svg2"
   sodipodi:version="0.32"
   inkscape:version="0.43"
   sodipodi:docname="tile-807.svg"
   sodipodi:docbase="C:\Documents and Settings\lentz\Desktop\Brett\TileDesigner\images\TileDictionary"
   version="1.0">
  <metadata
     id="metadata53">
    <rdf:RDF>
      <cc:Work
         rdf:about="">
        <dc:format>image/svg+xml</dc:format>
        <dc:type
           rdf:resource="http://purl.org/dc/dcmitype/StillImage" />
      </cc:Work>
    </rdf:RDF>
  </metadata>
  <defs
     id="defs51" />
  <sodipodi:namedview
     inkscape:window-height="540"
     inkscape:window-width="749"
     inkscape:pageshadow="2"
     inkscape:pageopacity="0.0"
     borderopacity="1.0"
     bordercolor="#666666"
     pagecolor="#ffffff"
     id="base"
     inkscape:zoom="0.52361111"
     inkscape:cx="360"
     inkscape:cy="360"
     inkscape:window-x="154"
     inkscape:window-y="154"
     inkscape:current-layer="svg2" />
  <title
     id="title4">SVG drawing</title>
  <desc
     id="desc6">This was produced by version 4.1 of GNU libplot, a free library for exporting 2-D vector graphics.</desc>
  <g
     transform="matrix(5.418114e-3,0,0,-6.213736e-3,-1.175565e-3,1.000871)"
     xml:space="preserve"
     style="font-style:normal;font-variant:normal;font-weight:normal;font-stretch:normal;letter-spacing:normal;word-spacing:normal;text-anchor:start;fill:none;fill-opacity:1;stroke:#000000;stroke-linecap:butt;stroke-linejoin:miter;stroke-miterlimit:10.43299961;stroke-dasharray:none;stroke-dashoffset:0;stroke-opacity:1"
     id="g10">
<polygon
   points="46.5,160.5 138.5,160.5 184.5,80.5 138.5,0.5 46.5,0.5 0.5,80.5 46.5,160.5 "
   style="fill:#ffff00;fill-rule:nonzero;stroke:#ffff00;stroke-width:0;stroke-linejoin:round"
   id="polygon12" />
<polygon
   points="108.37,9.9219 110.27,9.9219 110.27,10.496 108.37,10.496 108.37,9.9219 "
   style="fill:#000000;stroke-width:0;stroke-linejoin:round"
   id="polygon14" />
<path
   d="M 113.13,10.984 L 113.18,11.017 L 113.23,11.05 L 113.28,11.082 L 113.33,11.114 L 113.37,11.146 L 113.42,11.178 L 113.46,11.209 L 113.5,11.241 L 113.53,11.273 L 113.57,11.305 L 113.6,11.337 L 113.63,11.37 L 113.66,11.403 L 113.69,11.436 L 113.71,11.469 L 113.73,11.503 L 113.76,11.538 L 113.78,11.573 L 113.79,11.609 L 113.81,11.646 L 113.83,11.683 L 113.84,11.721 L 113.85,11.76 L 113.86,11.8 L 113.87,11.841 L 113.88,11.883 L 113.89,11.926 L 113.89,11.97 L 113.9,12.016 L 113.9,12.063 L 113.9,12.111 L 113.9,12.16 C 113.9,13.047 113.21,13.672 112.2,13.672 C 111.2,13.672 110.5,13.047 110.5,12.16 C 110.5,11.633 110.69,11.344 111.27,10.984 C 110.62,10.672 110.3,10.199 110.3,9.5742 C 110.3,8.5352 111.08,7.8164 112.2,7.8164 C 113.32,7.8164 114.11,8.5352 114.11,9.5664 C 114.11,10.199 113.79,10.672 113.13,10.984 z "
   style="fill:#000000;stroke-width:0;stroke-linecap:round;stroke-linejoin:round"
   id="path16" />
<path
   d="M 112.2,13.047 L 112.25,13.046 L 112.31,13.043 L 112.36,13.038 L 112.41,13.031 L 112.46,13.022 L 112.51,13.011 L 112.56,12.998 L 112.61,12.983 L 112.65,12.967 L 112.69,12.949 L 112.74,12.928 L 112.78,12.907 L 112.81,12.883 L 112.85,12.858 L 112.88,12.831 L 112.92,12.802 L 112.95,12.772 L 112.98,12.74 L 113.01,12.707 L 113.03,12.672 L 113.05,12.636 L 113.08,12.598 L 113.1,12.559 L 113.11,12.518 L 113.13,12.476 L 113.14,12.432 L 113.16,12.388 L 113.17,12.341 L 113.17,12.294 L 113.18,12.245 L 113.18,12.196 L 113.18,12.144 C 113.18,11.617 112.79,11.266 112.2,11.266 C 111.61,11.266 111.21,11.617 111.21,12.152 C 111.21,12.695 111.61,13.047 112.2,13.047 z "
   style="fill:#000000;stroke-width:0;stroke-linecap:round;stroke-linejoin:round"
   id="path18" />
<path
   d="M 112.2,10.672 L 112.26,10.671 L 112.33,10.667 L 112.39,10.66 L 112.45,10.651 L 112.51,10.64 L 112.57,10.626 L 112.63,10.61 L 112.68,10.591 L 112.73,10.571 L 112.79,10.547 L 112.83,10.522 L 112.88,10.495 L 112.93,10.465 L 112.97,10.434 L 113.01,10.4 L 113.05,10.364 L 113.09,10.327 L 113.13,10.287 L 113.16,10.246 L 113.19,10.203 L 113.22,10.158 L 113.25,10.111 L 113.27,10.063 L 113.3,10.013 L 113.32,9.9611 L 113.33,9.9079 L 113.35,9.8533 L 113.36,9.7971 L 113.37,9.7395 L 113.38,9.6805 L 113.38,9.6202 L 113.38,9.5586 C 113.38,8.8867 112.9,8.4414 112.18,8.4414 C 111.5,8.4414 111.02,8.8945 111.02,9.5586 C 111.02,10.223 111.5,10.672 112.2,10.672 z "
   style="fill:#000000;stroke-width:0;stroke-linecap:round;stroke-linejoin:round"
   id="path20" />
<path
   d="M 117.2,13.672 L 117.15,13.671 L 117.1,13.669 L 117.05,13.666 L 117,13.661 L 116.96,13.655 L 116.91,13.648 L 116.86,13.64 L 116.81,13.63 L 116.77,13.619 L 116.72,13.606 L 116.68,13.593 L 116.63,13.578 L 116.59,13.562 L 116.55,13.545 L 116.5,13.527 L 116.46,13.507 L 116.42,13.487 L 116.38,13.465 L 116.34,13.442 L 116.3,13.418 L 116.26,13.393 L 116.22,13.367 L 116.19,13.339 L 116.15,13.311 L 116.11,13.282 L 116.08,13.251 L 116.05,13.22 L 116.01,13.187 L 115.98,13.153 L 115.95,13.119 L 115.92,13.083 L 115.89,13.047 C 115.53,12.551 115.34,11.793 115.34,10.742 C 115.34,8.832 115.98,7.8164 117.2,7.8164 C 118.4,7.8164 119.06,8.832 119.06,10.695 C 119.06,11.801 118.88,12.535 118.5,13.047 C 118.21,13.449 117.73,13.672 117.2,13.672 z "
   style="fill:#000000;stroke-width:0;stroke-linecap:round;stroke-linejoin:round"
   id="path22" />
<path
   d="M 117.2,13.047 L 117.27,13.045 L 117.34,13.038 L 117.4,13.027 L 117.47,13.011 L 117.53,12.991 L 117.59,12.966 L 117.64,12.937 L 117.7,12.904 L 117.75,12.865 L 117.8,12.823 L 117.85,12.776 L 117.89,12.724 L 117.94,12.669 L 117.98,12.608 L 118.02,12.543 L 118.05,12.474 L 118.09,12.4 L 118.12,12.322 L 118.15,12.24 L 118.18,12.153 L 118.2,12.061 L 118.23,11.965 L 118.25,11.865 L 118.27,11.76 L 118.28,11.651 L 118.3,11.537 L 118.31,11.419 L 118.32,11.296 L 118.33,11.169 L 118.33,11.038 L 118.33,10.902 L 118.34,10.762 C 118.34,9.1523 117.97,8.3984 117.18,8.3984 C 116.44,8.3984 116.06,9.1836 116.06,10.734 C 116.06,12.289 116.44,13.047 117.2,13.047 z "
   style="fill:#000000;stroke-width:0;stroke-linecap:round;stroke-linejoin:round"
   id="path24" />
<path
   d="M 123.16,13.672 L 119.37,13.672 L 119.37,12.977 L 122.43,12.977 C 121.08,11.047 120.53,9.8633 120.11,8 L 120.86,8 C 121.17,9.8164 121.88,11.375 123.16,13.078 L 123.16,13.672 z "
   style="fill:#000000;stroke-width:0;stroke-linecap:round;stroke-linejoin:round"
   id="path26" />
<path
   d="M 150.5,100.5 L 150.47,101.73 L 150.38,102.95 L 150.22,104.15 L 150.01,105.34 L 149.74,106.5 L 149.42,107.64 L 149.04,108.75 L 148.61,109.84 L 148.13,110.9 L 147.6,111.94 L 147.03,112.94 L 146.4,113.92 L 145.73,114.86 L 145.02,115.77 L 144.26,116.64 L 143.47,117.47 L 142.64,118.26 L 141.77,119.02 L 140.86,119.73 L 139.92,120.4 L 138.94,121.03 L 137.94,121.6 L 136.9,122.13 L 135.84,122.61 L 134.75,123.04 L 133.64,123.42 L 132.5,123.74 L 131.34,124.01 L 130.15,124.22 L 128.95,124.38 L 127.73,124.47 L 126.5,124.5 C 113.25,124.5 102.5,113.75 102.5,100.5 C 102.5,87.246 113.25,76.5 126.5,76.5 C 139.75,76.5 150.5,87.246 150.5,100.5 z "
   style="fill:#ffffff;fill-rule:nonzero;stroke:#ffffff;stroke-width:0;stroke-linecap:round;stroke-linejoin:round"
   id="path28" />
<path
   d="M 150.5,100.5 L 150.47,101.73 L 150.38,102.95 L 150.22,104.15 L 150.01,105.34 L 149.74,106.5 L 149.42,107.64 L 149.04,108.75 L 148.61,109.84 L 148.13,110.9 L 147.6,111.94 L 147.03,112.94 L 146.4,113.92 L 145.73,114.86 L 145.02,115.77 L 144.26,116.64 L 143.47,117.47 L 142.64,118.26 L 141.77,119.02 L 140.86,119.73 L 139.92,120.4 L 138.94,121.03 L 137.94,121.6 L 136.9,122.13 L 135.84,122.61 L 134.75,123.04 L 133.64,123.42 L 132.5,123.74 L 131.34,124.01 L 130.15,124.22 L 128.95,124.38 L 127.73,124.47 L 126.5,124.5 C 113.25,124.5 102.5,113.75 102.5,100.5 C 102.5,87.246 113.25,76.5 126.5,76.5 C 139.75,76.5 150.5,87.246 150.5,100.5 z "
   style="stroke:#ffffff;stroke-width:6;stroke-linecap:round;stroke-linejoin:round"
   id="path30" />
<path
   d="M 116.5,40.5 L 116.47,41.735 L 116.38,42.954 L 116.22,44.155 L 116.01,45.337 L 115.74,46.498 L 115.42,47.637 L 115.04,48.752 L 114.61,49.841 L 114.13,50.905 L 113.6,51.939 L 113.03,52.944 L 112.4,53.918 L 111.73,54.859 L 111.02,55.766 L 110.26,56.637 L 109.47,57.47 L 108.64,58.265 L 107.77,59.019 L 106.86,59.732 L 105.92,60.401 L 104.94,61.025 L 103.94,61.603 L 102.9,62.133 L 101.84,62.614 L 100.75,63.044 L 99.637,63.421 L 98.498,63.744 L 97.337,64.012 L 96.155,64.223 L 94.954,64.376 L 93.735,64.469 L 92.5,64.5 C 79.246,64.5 68.5,53.754 68.5,40.5 C 68.5,27.246 79.246,16.5 92.5,16.5 C 105.75,16.5 116.5,27.246 116.5,40.5 z "
   style="fill:#ffffff;fill-rule:nonzero;stroke:#ffffff;stroke-width:0;stroke-linecap:round;stroke-linejoin:round"
   id="path32" />
<path
   d="M 116.5,40.5 L 116.47,41.735 L 116.38,42.954 L 116.22,44.155 L 116.01,45.337 L 115.74,46.498 L 115.42,47.637 L 115.04,48.752 L 114.61,49.841 L 114.13,50.905 L 113.6,51.939 L 113.03,52.944 L 112.4,53.918 L 111.73,54.859 L 111.02,55.766 L 110.26,56.637 L 109.47,57.47 L 108.64,58.265 L 107.77,59.019 L 106.86,59.732 L 105.92,60.401 L 104.94,61.025 L 103.94,61.603 L 102.9,62.133 L 101.84,62.614 L 100.75,63.044 L 99.637,63.421 L 98.498,63.744 L 97.337,64.012 L 96.155,64.223 L 94.954,64.376 L 93.735,64.469 L 92.5,64.5 C 79.246,64.5 68.5,53.754 68.5,40.5 C 68.5,27.246 79.246,16.5 92.5,16.5 C 105.75,16.5 116.5,27.246 116.5,40.5 z "
   style="stroke:#ffffff;stroke-width:6;stroke-linecap:round;stroke-linejoin:round"
   id="path34" />
<path
   d="M 150.5,100.5 L 150.47,101.73 L 150.38,102.95 L 150.22,104.15 L 150.01,105.34 L 149.74,106.5 L 149.42,107.64 L 149.04,108.75 L 148.61,109.84 L 148.13,110.9 L 147.6,111.94 L 147.03,112.94 L 146.4,113.92 L 145.73,114.86 L 145.02,115.77 L 144.26,116.64 L 143.47,117.47 L 142.64,118.26 L 141.77,119.02 L 140.86,119.73 L 139.92,120.4 L 138.94,121.03 L 137.94,121.6 L 136.9,122.13 L 135.84,122.61 L 134.75,123.04 L 133.64,123.42 L 132.5,123.74 L 131.34,124.01 L 130.15,124.22 L 128.95,124.38 L 127.73,124.47 L 126.5,124.5 C 113.25,124.5 102.5,113.75 102.5,100.5 C 102.5,87.246 113.25,76.5 126.5,76.5 C 139.75,76.5 150.5,87.246 150.5,100.5 z "
   style="fill:#ffffff;fill-rule:nonzero;stroke:#ffffff;stroke-width:0;stroke-linecap:round;stroke-linejoin:round"
   id="path36" />
<path
   d="M 150.5,100.5 L 150.47,101.73 L 150.38,102.95 L 150.22,104.15 L 150.01,105.34 L 149.74,106.5 L 149.42,107.64 L 149.04,108.75 L 148.61,109.84 L 148.13,110.9 L 147.6,111.94 L 147.03,112.94 L 146.4,113.92 L 145.73,114.86 L 145.02,115.77 L 144.26,116.64 L 143.47,117.47 L 142.64,118.26 L 141.77,119.02 L 140.86,119.73 L 139.92,120.4 L 138.94,121.03 L 137.94,121.6 L 136.9,122.13 L 135.84,122.61 L 134.75,123.04 L 133.64,123.42 L 132.5,123.74 L 131.34,124.01 L 130.15,124.22 L 128.95,124.38 L 127.73,124.47 L 126.5,124.5 C 113.25,124.5 102.5,113.75 102.5,100.5 C 102.5,87.246 113.25,76.5 126.5,76.5 C 139.75,76.5 150.5,87.246 150.5,100.5 z "
   style="stroke-width:2;stroke-linecap:round;stroke-linejoin:round"
   id="path38" />
<path
   d="M 116.5,40.5 L 116.47,41.735 L 116.38,42.954 L 116.22,44.155 L 116.01,45.337 L 115.74,46.498 L 115.42,47.637 L 115.04,48.752 L 114.61,49.841 L 114.13,50.905 L 113.6,51.939 L 113.03,52.944 L 112.4,53.918 L 111.73,54.859 L 111.02,55.766 L 110.26,56.637 L 109.47,57.47 L 108.64,58.265 L 107.77,59.019 L 106.86,59.732 L 105.92,60.401 L 104.94,61.025 L 103.94,61.603 L 102.9,62.133 L 101.84,62.614 L 100.75,63.044 L 99.637,63.421 L 98.498,63.744 L 97.337,64.012 L 96.155,64.223 L 94.954,64.376 L 93.735,64.469 L 92.5,64.5 C 79.246,64.5 68.5,53.754 68.5,40.5 C 68.5,27.246 79.246,16.5 92.5,16.5 C 105.75,16.5 116.5,27.246 116.5,40.5 z "
   style="fill:#ffffff;fill-rule:nonzero;stroke:#ffffff;stroke-width:0;stroke-linecap:round;stroke-linejoin:round"
   id="path40" />
<path
   d="M 116.5,40.5 L 116.47,41.735 L 116.38,42.954 L 116.22,44.155 L 116.01,45.337 L 115.74,46.498 L 115.42,47.637 L 115.04,48.752 L 114.61,49.841 L 114.13,50.905 L 113.6,51.939 L 113.03,52.944 L 112.4,53.918 L 111.73,54.859 L 111.02,55.766 L 110.26,56.637 L 109.47,57.47 L 108.64,58.265 L 107.77,59.019 L 106.86,59.732 L 105.92,60.401 L 104.94,61.025 L 103.94,61.603 L 102.9,62.133 L 101.84,62.614 L 100.75,63.044 L 99.637,63.421 L 98.498,63.744 L 97.337,64.012 L 96.155,64.223 L 94.954,64.376 L 93.735,64.469 L 92.5,64.5 C 79.246,64.5 68.5,53.754 68.5,40.5 C 68.5,27.246 79.246,16.5 92.5,16.5 C 105.75,16.5 116.5,27.246 116.5,40.5 z "
   style="stroke-width:2;stroke-linecap:round;stroke-linejoin:round"
   id="path42" />
<polygon
   points="19.703,80.953 23.305,86.664 20.52,86.664 18.375,82.824 16.328,86.664 13.481,86.664 17.031,80.871 13.352,75 16.137,75 18.359,79.047 20.602,75 23.449,75 19.703,80.953 "
   style="fill:#000000;stroke-width:0;stroke-linejoin:round"
   id="polygon44" />
<polygon
   points="30.703,80.953 34.305,86.664 31.52,86.664 29.375,82.824 27.328,86.664 24.48,86.664 28.031,80.871 24.352,75 27.137,75 29.359,79.047 31.602,75 34.449,75 30.703,80.953 "
   style="fill:#000000;stroke-width:0;stroke-linejoin:round"
   id="polygon46" />
<polygon
   points="46.5,160.5 138.5,160.5 184.5,80.5 138.5,0.5 46.5,0.5 0.5,80.5 46.5,160.5 "
   style="stroke-width:1;stroke-linejoin:round"
   id="polygon48" />
</g></svg>
