<?xml version="1.0" encoding="UTF-8" standalone="no"?>
<svg
   xmlns:dc="http://purl.org/dc/elements/1.1/"
   xmlns:cc="http://web.resource.org/cc/"
   xmlns:rdf="http://www.w3.org/1999/02/22-rdf-syntax-ns#"
   xmlns:svg="http://www.w3.org/2000/svg"
   xmlns="http://www.w3.org/2000/svg"
   xmlns:sodipodi="http://sodipodi.sourceforge.net/DTD/sodipodi-0.dtd"
   xmlns:inkscape="http://www.inkscape.org/namespaces/inkscape"
   width="100"
   height="100"
   viewBox="0 0 1 1"
   preserveAspectRatio="none"
   id="svg3897"
   sodipodi:version="0.32"
   inkscape:version="0.45.1"
   sodipodi:docname="tile135.svg"
   sodipodi:docbase="C:\Documents and Settings\Brett\workspace\18xx\tiles\svg"
   version="1.0"
   inkscape:output_extension="org.inkscape.output.svg.inkscape">
  <metadata
     id="metadata3968">
    <rdf:RDF>
      <cc:Work
         rdf:about="">
        <dc:format>image/svg+xml</dc:format>
        <dc:type
           rdf:resource="http://purl.org/dc/dcmitype/StillImage" />
      </cc:Work>
    </rdf:RDF>
  </metadata>
  <defs
     id="defs3966" />
  <sodipodi:namedview
     inkscape:window-height="579"
     inkscape:window-width="749"
     inkscape:pageshadow="2"
     inkscape:pageopacity="0.0"
     borderopacity="1.0"
     bordercolor="#666666"
     pagecolor="#ffffff"
     id="base"
     inkscape:zoom="2.2392657"
     inkscape:cx="73.599125"
     inkscape:cy="39.838059"
     inkscape:window-x="44"
     inkscape:window-y="44"
     inkscape:current-layer="g3905" />
  <title
     id="title3899">SVG drawing</title>
  <desc
     id="desc3901">This was produced by version 4.1 of GNU libplot, a free library for exporting 2-D vector graphics.</desc>
  <g
     transform="matrix(4.868316e-3,0,0,-5.374315e-3,0.100342,0.942001)"
     xml:space="preserve"
     style="font-style:normal;font-variant:normal;font-weight:normal;font-stretch:normal;letter-spacing:normal;word-spacing:normal;text-anchor:start;fill:none;fill-opacity:1;stroke:#000000;stroke-linecap:butt;stroke-linejoin:miter;stroke-miterlimit:10.43299961;stroke-dasharray:none;stroke-dashoffset:0;stroke-opacity:1"
     id="g3905">
<polygon
   points="46.5,160.5 138.5,160.5 184.5,80.5 138.5,0.5 46.5,0.5 0.5,80.5 46.5,160.5 "
   style="fill:#b46301;fill-rule:nonzero;stroke:#b46301;stroke-width:0;stroke-linejoin:round"
   id="polygon3907"
   transform="matrix(1.1086006,0,0,1.1478215,-20.135951,-10.653213)" />
<text
   transform="scale(0.9827666,-1.0175356)"
   style="font-size:9.02432537px;fill:#000000;stroke:none;font-family:&quot;Helvetica&quot;, sans-serif"
   id="text3909"
   x="102.68172"
   y="1.5421957">135</text>


<polygon
   points="68.5,56.5 116.5,56.5 116.5,104.5 68.5,104.5 68.5,56.5 "
   style="fill:#ffffff;fill-rule:nonzero;stroke:#ffffff;stroke-width:0;stroke-linejoin:round"
   id="polygon3911"
   transform="matrix(1.1086006,0,0,1.1478215,-20.135951,-10.653213)" />
<polygon
   points="68.5,56.5 116.5,56.5 116.5,104.5 68.5,104.5 68.5,56.5 "
   style="stroke:#ffffff;stroke-width:6;stroke-linejoin:round"
   id="polygon3913"
   transform="matrix(1.1086006,0,0,1.1478215,-20.135951,-10.653213)" />
<path
   d="M 82.409602,81.746415 L 82.375235,83.163974 L 82.272136,84.563168 L 82.10252,85.941703 L 81.868605,87.298427 L 81.571499,88.631047 L 81.213421,89.938416 L 80.795479,91.218238 L 80.31878,92.468215 L 79.785543,93.689498 L 79.197985,94.876344 L 78.557216,96.029907 L 77.865448,97.147887 L 77.123794,98.227979 L 76.333362,99.269056 L 75.497478,100.26881 L 74.61614,101.22494 L 73.692675,102.13747 L 72.727084,103.00293 L 71.721584,103.82132 L 70.678391,104.58806 L 69.598613,105.31119 L 68.484469,105.96545 L 67.338177,106.57379 L 66.158626,107.12474 L 64.95136,107.61831 L 63.71527,108.05448 L 62.452575,108.42179 L 61.165489,108.7317 L 59.855122,108.97274 L 58.523694,109.15639 L 57.172309,109.25969 L 55.803188,109.29412 C 41.109795,109.29412 29.196774,96.959638 29.196774,81.746415 C 29.196774,66.533189 41.109795,54.198701 55.803188,54.198701 C 70.49658,54.198701 82.409602,66.533189 82.409602,81.746415 z "
   style="fill:#ffffff;fill-rule:nonzero;stroke:#ffffff;stroke-width:0;stroke-linecap:round;stroke-linejoin:round"
   id="path3915" />
<path
   d="M 82.409602,81.746415 L 82.375235,83.163974 L 82.272136,84.563168 L 82.10252,85.941703 L 81.868605,87.298427 L 81.571499,88.631047 L 81.213421,89.938416 L 80.795479,91.218238 L 80.31878,92.468215 L 79.785543,93.689498 L 79.197985,94.876344 L 78.557216,96.029907 L 77.865448,97.147887 L 77.123794,98.227979 L 76.333362,99.269056 L 75.497478,100.26881 L 74.61614,101.22494 L 73.692675,102.13747 L 72.727084,103.00293 L 71.721584,103.82132 L 70.678391,104.58806 L 69.598613,105.31119 L 68.484469,105.96545 L 67.338177,106.57379 L 66.158626,107.12474 L 64.95136,107.61831 L 63.71527,108.05448 L 62.452575,108.42179 L 61.165489,108.7317 L 59.855122,108.97274 L 58.523694,109.15639 L 57.172309,109.25969 L 55.803188,109.29412 C 41.109795,109.29412 29.196774,96.959638 29.196774,81.746415 C 29.196774,66.533189 41.109795,54.198701 55.803188,54.198701 C 70.49658,54.198701 82.409602,66.533189 82.409602,81.746415 z "
   style="stroke:#ffffff;stroke-width:6.76824379;stroke-linecap:round;stroke-linejoin:round"
   id="path3917" />
<path
   d="M 135.62242,81.746415 L 135.58917,83.163974 L 135.4894,84.563168 L 135.31203,85.941703 L 135.07921,87.298427 L 134.77989,88.631047 L 134.42514,89.938416 L 134.00387,91.218238 L 133.52718,92.468215 L 132.99505,93.689498 L 132.40748,94.876344 L 131.77559,96.029907 L 131.07716,97.147887 L 130.33441,98.227979 L 129.54729,99.269056 L 128.70476,100.26881 L 127.82897,101.22494 L 126.90883,102.13747 L 125.94435,103.00293 L 124.93551,103.82132 L 123.89343,104.58806 L 122.80701,105.31119 L 121.69841,105.96545 L 120.54546,106.57379 L 119.37035,107.12474 L 118.16197,107.61831 L 116.93142,108.05448 L 115.66762,108.42179 L 114.38164,108.7317 L 113.0624,108.97274 L 111.73208,109.15639 L 110.37959,109.25969 L 109.01602,109.29412 C 94.327064,109.29412 82.409602,96.959638 82.409602,81.746415 C 82.409602,66.533189 94.327064,54.198701 109.01602,54.198701 C 123.70498,54.198701 135.62242,66.533189 135.62242,81.746415 z "
   style="fill:#ffffff;fill-rule:nonzero;stroke:#ffffff;stroke-width:0;stroke-linecap:round;stroke-linejoin:round"
   id="path3919" />
<path
   d="M 135.62242,81.746415 L 135.58917,83.163974 L 135.4894,84.563168 L 135.31203,85.941703 L 135.07921,87.298427 L 134.77989,88.631047 L 134.42514,89.938416 L 134.00387,91.218238 L 133.52718,92.468215 L 132.99505,93.689498 L 132.40748,94.876344 L 131.77559,96.029907 L 131.07716,97.147887 L 130.33441,98.227979 L 129.54729,99.269056 L 128.70476,100.26881 L 127.82897,101.22494 L 126.90883,102.13747 L 125.94435,103.00293 L 124.93551,103.82132 L 123.89343,104.58806 L 122.80701,105.31119 L 121.69841,105.96545 L 120.54546,106.57379 L 119.37035,107.12474 L 118.16197,107.61831 L 116.93142,108.05448 L 115.66762,108.42179 L 114.38164,108.7317 L 113.0624,108.97274 L 111.73208,109.15639 L 110.37959,109.25969 L 109.01602,109.29412 C 94.327064,109.29412 82.409602,96.959638 82.409602,81.746415 C 82.409602,66.533189 94.327064,54.198701 109.01602,54.198701 C 123.70498,54.198701 135.62242,66.533189 135.62242,81.746415 z "
   style="stroke:#ffffff;stroke-width:6.76824379;stroke-linecap:round;stroke-linejoin:round"
   id="path3921" />
<line
   x1="82.409599"
   y1="81.746414"
   x2="82.409599"
   y2="173.57213"
   style="stroke:#ffffff;stroke-width:18.04864883;stroke-linecap:round"
   id="line3923" />
<line
   x1="82.409599"
   y1="81.746414"
   x2="158.90305"
   y2="127.65928"
   style="stroke:#ffffff;stroke-width:18.04864883;stroke-linecap:round"
   id="line3925" />
<line
   x1="82.409599"
   y1="81.746414"
   x2="158.90305"
   y2="35.833557"
   style="stroke:#ffffff;stroke-width:18.04864883;stroke-linecap:round"
   id="line3927" />
<line
   x1="82.409599"
   y1="81.746414"
   x2="82.409599"
   y2="-10.079302"
   style="stroke:#ffffff;stroke-width:18.04864883;stroke-linecap:round"
   id="line3929" />
<line
   x1="82.409599"
   y1="81.746414"
   x2="5.9161606"
   y2="35.833557"
   style="stroke:#ffffff;stroke-width:18.04864883;stroke-linecap:round"
   id="line3931" />
<line
   x1="82.409599"
   y1="81.746414"
   x2="82.409599"
   y2="173.57213"
   style="stroke-width:13.53648758;stroke-linecap:round"
   id="line3933" />
<line
   x1="82.409599"
   y1="81.746414"
   x2="158.90305"
   y2="127.65928"
   style="stroke-width:13.53648758;stroke-linecap:round"
   id="line3935" />
<line
   x1="82.409599"
   y1="81.746414"
   x2="158.90305"
   y2="35.833557"
   style="stroke-width:13.53648758;stroke-linecap:round"
   id="line3937" />
<line
   x1="82.409599"
   y1="81.746414"
   x2="82.409599"
   y2="-10.079302"
   style="stroke-width:13.53648758;stroke-linecap:round"
   id="line3939" />
<line
   x1="82.409599"
   y1="81.746414"
   x2="5.9161606"
   y2="35.833557"
   style="stroke-width:13.53648758;stroke-linecap:round"
   id="line3941" />
<polygon
   points="68.5,56.5 116.5,56.5 116.5,104.5 68.5,104.5 68.5,56.5 "
   style="fill:#ffffff;fill-rule:nonzero;stroke:#ffffff;stroke-width:0;stroke-linejoin:round"
   id="polygon3943"
   transform="matrix(1.1086006,0,0,1.1478215,-20.135951,-10.653213)" />
<polygon
   points="68.5,56.5 116.5,56.5 116.5,104.5 68.5,104.5 68.5,56.5 "
   style="stroke-width:2;stroke-linejoin:round"
   id="polygon3945"
   transform="matrix(1.1086006,0,0,1.1478215,-20.135951,-10.653213)" />
<path
   d="M 82.409602,81.746415 L 82.375235,83.163974 L 82.272136,84.563168 L 82.10252,85.941703 L 81.868605,87.298427 L 81.571499,88.631047 L 81.213421,89.938416 L 80.795479,91.218238 L 80.31878,92.468215 L 79.785543,93.689498 L 79.197985,94.876344 L 78.557216,96.029907 L 77.865448,97.147887 L 77.123794,98.227979 L 76.333362,99.269056 L 75.497478,100.26881 L 74.61614,101.22494 L 73.692675,102.13747 L 72.727084,103.00293 L 71.721584,103.82132 L 70.678391,104.58806 L 69.598613,105.31119 L 68.484469,105.96545 L 67.338177,106.57379 L 66.158626,107.12474 L 64.95136,107.61831 L 63.71527,108.05448 L 62.452575,108.42179 L 61.165489,108.7317 L 59.855122,108.97274 L 58.523694,109.15639 L 57.172309,109.25969 L 55.803188,109.29412 C 41.109795,109.29412 29.196774,96.959638 29.196774,81.746415 C 29.196774,66.533189 41.109795,54.198701 55.803188,54.198701 C 70.49658,54.198701 82.409602,66.533189 82.409602,81.746415 z "
   style="fill:#ffffff;fill-rule:nonzero;stroke:#ffffff;stroke-width:0;stroke-linecap:round;stroke-linejoin:round"
   id="path3947" />
<path
   d="M 82.409602,81.746415 L 82.375235,83.163974 L 82.272136,84.563168 L 82.10252,85.941703 L 81.868605,87.298427 L 81.571499,88.631047 L 81.213421,89.938416 L 80.795479,91.218238 L 80.31878,92.468215 L 79.785543,93.689498 L 79.197985,94.876344 L 78.557216,96.029907 L 77.865448,97.147887 L 77.123794,98.227979 L 76.333362,99.269056 L 75.497478,100.26881 L 74.61614,101.22494 L 73.692675,102.13747 L 72.727084,103.00293 L 71.721584,103.82132 L 70.678391,104.58806 L 69.598613,105.31119 L 68.484469,105.96545 L 67.338177,106.57379 L 66.158626,107.12474 L 64.95136,107.61831 L 63.71527,108.05448 L 62.452575,108.42179 L 61.165489,108.7317 L 59.855122,108.97274 L 58.523694,109.15639 L 57.172309,109.25969 L 55.803188,109.29412 C 41.109795,109.29412 29.196774,96.959638 29.196774,81.746415 C 29.196774,66.533189 41.109795,54.198701 55.803188,54.198701 C 70.49658,54.198701 82.409602,66.533189 82.409602,81.746415 z "
   style="stroke-width:2.2560811;stroke-linecap:round;stroke-linejoin:round"
   id="path3949" />
<path
   d="M 135.62242,81.746415 L 135.58917,83.163974 L 135.4894,84.563168 L 135.31203,85.941703 L 135.07921,87.298427 L 134.77989,88.631047 L 134.42514,89.938416 L 134.00387,91.218238 L 133.52718,92.468215 L 132.99505,93.689498 L 132.40748,94.876344 L 131.77559,96.029907 L 131.07716,97.147887 L 130.33441,98.227979 L 129.54729,99.269056 L 128.70476,100.26881 L 127.82897,101.22494 L 126.90883,102.13747 L 125.94435,103.00293 L 124.93551,103.82132 L 123.89343,104.58806 L 122.80701,105.31119 L 121.69841,105.96545 L 120.54546,106.57379 L 119.37035,107.12474 L 118.16197,107.61831 L 116.93142,108.05448 L 115.66762,108.42179 L 114.38164,108.7317 L 113.0624,108.97274 L 111.73208,109.15639 L 110.37959,109.25969 L 109.01602,109.29412 C 94.327064,109.29412 82.409602,96.959638 82.409602,81.746415 C 82.409602,66.533189 94.327064,54.198701 109.01602,54.198701 C 123.70498,54.198701 135.62242,66.533189 135.62242,81.746415 z "
   style="fill:#ffffff;fill-rule:nonzero;stroke:#ffffff;stroke-width:0;stroke-linecap:round;stroke-linejoin:round"
   id="path3951" />
<path
   d="M 135.62242,81.746415 L 135.58917,83.163974 L 135.4894,84.563168 L 135.31203,85.941703 L 135.07921,87.298427 L 134.77989,88.631047 L 134.42514,89.938416 L 134.00387,91.218238 L 133.52718,92.468215 L 132.99505,93.689498 L 132.40748,94.876344 L 131.77559,96.029907 L 131.07716,97.147887 L 130.33441,98.227979 L 129.54729,99.269056 L 128.70476,100.26881 L 127.82897,101.22494 L 126.90883,102.13747 L 125.94435,103.00293 L 124.93551,103.82132 L 123.89343,104.58806 L 122.80701,105.31119 L 121.69841,105.96545 L 120.54546,106.57379 L 119.37035,107.12474 L 118.16197,107.61831 L 116.93142,108.05448 L 115.66762,108.42179 L 114.38164,108.7317 L 113.0624,108.97274 L 111.73208,109.15639 L 110.37959,109.25969 L 109.01602,109.29412 C 94.327064,109.29412 82.409602,96.959638 82.409602,81.746415 C 82.409602,66.533189 94.327064,54.198701 109.01602,54.198701 C 123.70498,54.198701 135.62242,66.533189 135.62242,81.746415 z "
   style="stroke-width:2.2560811;stroke-linecap:round;stroke-linejoin:round"
   id="path3953" />
<path
   d="M 54.131417,150.6157 L 54.119224,150.86822 L 54.08264,151.10927 L 54.022775,151.3503 L 53.940739,151.59135 L 53.835421,151.83239 L 53.707933,152.06196 L 53.560488,152.28005 L 53.390873,152.50961 L 53.20241,152.71621 L 52.995101,152.9343 L 52.76784,153.12942 L 52.522838,153.33604 L 52.260101,153.51969 L 51.980733,153.70334 L 51.684736,153.88699 L 51.37322,154.04769 L 51.046184,154.20838 L 50.704734,154.36907 L 50.348873,154.50682 L 49.979708,154.64456 L 49.597242,154.77082 L 49.203688,154.8856 L 48.797941,155.00038 L 48.379998,155.0922 L 47.953187,155.18403 L 47.51529,155.2529 L 47.068524,155.32177 L 46.613998,155.37917 L 46.150603,155.42508 L 45.679448,155.44803 L 45.20164,155.47098 L 44.717182,155.47098 C 39.520063,155.47098 35.302946,153.3016 35.302946,150.6157 C 35.302946,147.9298 39.520063,145.76041 44.717182,145.76041 C 49.914302,145.76041 54.131417,147.9298 54.131417,150.6157 z "
   style="fill:#ffffff;fill-rule:nonzero;stroke:#ffffff;stroke-width:0;stroke-linecap:round;stroke-linejoin:round"
   id="path3955" />
<path
   d="M 54.131417,150.6157 L 54.119224,150.86822 L 54.08264,151.10927 L 54.022775,151.3503 L 53.940739,151.59135 L 53.835421,151.83239 L 53.707933,152.06196 L 53.560488,152.28005 L 53.390873,152.50961 L 53.20241,152.71621 L 52.995101,152.9343 L 52.76784,153.12942 L 52.522838,153.33604 L 52.260101,153.51969 L 51.980733,153.70334 L 51.684736,153.88699 L 51.37322,154.04769 L 51.046184,154.20838 L 50.704734,154.36907 L 50.348873,154.50682 L 49.979708,154.64456 L 49.597242,154.77082 L 49.203688,154.8856 L 48.797941,155.00038 L 48.379998,155.0922 L 47.953187,155.18403 L 47.51529,155.2529 L 47.068524,155.32177 L 46.613998,155.37917 L 46.150603,155.42508 L 45.679448,155.44803 L 45.20164,155.47098 L 44.717182,155.47098 C 39.520063,155.47098 35.302946,153.3016 35.302946,150.6157 C 35.302946,147.9298 39.520063,145.76041 44.717182,145.76041 C 49.914302,145.76041 54.131417,147.9298 54.131417,150.6157 z "
   style="stroke-width:0.9577741;stroke-linecap:round;stroke-linejoin:round"
   id="path3957" />
<text
   transform="scale(0.9827666,-1.0175356)"
   style="font-size:9.02432537px;fill:#000000;stroke:none;font-family:&quot;Helvetica&quot;, sans-serif"
   id="text3959"
   x="39.512562"
   y="-145.03076">50</text>


<text
   transform="scale(0.9827666,-1.0175356)"
   style="font-size:18.04865074px;fill:#000000;stroke:none;font-family:&quot;Helvetica&quot;, sans-serif"
   id="text3961"
   x="32.31839"
   y="-73.934891">KC,MSP,StL</text>


<polygon
   points="46.5,160.5 138.5,160.5 184.5,80.5 138.5,0.5 46.5,0.5 0.5,80.5 46.5,160.5 "
   style="stroke-width:1;stroke-linejoin:round"
   id="polygon3963"
   transform="matrix(1.1086006,0,0,1.1478215,-20.135951,-10.653213)" />
</g></svg>
