<?xml version="1.0" encoding="UTF-8" standalone="no"?>
<svg
   xmlns:dc="http://purl.org/dc/elements/1.1/"
   xmlns:cc="http://web.resource.org/cc/"
   xmlns:rdf="http://www.w3.org/1999/02/22-rdf-syntax-ns#"
   xmlns:svg="http://www.w3.org/2000/svg"
   xmlns="http://www.w3.org/2000/svg"
   xmlns:sodipodi="http://sodipodi.sourceforge.net/DTD/sodipodi-0.dtd"
   xmlns:inkscape="http://www.inkscape.org/namespaces/inkscape"
   width="100"
   height="100"
   viewBox="0 0 1 1"
   preserveAspectRatio="none"
   id="svg3970"
   sodipodi:version="0.32"
   inkscape:version="0.45.1"
   sodipodi:docname="tile138.svg"
   sodipodi:docbase="C:\Documents and Settings\Brett\workspace\18xx\tiles\svg"
   version="1.0"
   inkscape:output_extension="org.inkscape.output.svg.inkscape">
  <metadata
     id="metadata4045">
    <rdf:RDF>
      <cc:Work
         rdf:about="">
        <dc:format>image/svg+xml</dc:format>
        <dc:type
           rdf:resource="http://purl.org/dc/dcmitype/StillImage" />
      </cc:Work>
    </rdf:RDF>
  </metadata>
  <defs
     id="defs4043" />
  <sodipodi:namedview
     inkscape:window-height="579"
     inkscape:window-width="749"
     inkscape:pageshadow="2"
     inkscape:pageopacity="0.0"
     borderopacity="1.0"
     bordercolor="#666666"
     pagecolor="#ffffff"
     id="base"
     inkscape:zoom="1.867217"
     inkscape:cx="67.798409"
     inkscape:cy="53.474801"
     inkscape:window-x="88"
     inkscape:window-y="88"
     inkscape:current-layer="g3978" />
  <title
     id="title3972">SVG drawing</title>
  <desc
     id="desc3974">This was produced by version 4.1 of GNU libplot, a free library for exporting 2-D vector graphics.</desc>
  <g
     transform="matrix(4.868316e-3,0,0,-5.374315e-3,0.100342,0.942001)"
     xml:space="preserve"
     style="font-style:normal;font-variant:normal;font-weight:normal;font-stretch:normal;letter-spacing:normal;word-spacing:normal;text-anchor:start;fill:none;fill-opacity:1;stroke:#000000;stroke-linecap:butt;stroke-linejoin:miter;stroke-miterlimit:10.43299961;stroke-dasharray:none;stroke-dashoffset:0;stroke-opacity:1"
     id="g3978">
<polygon
   points="46.5,160.5 138.5,160.5 184.5,80.5 138.5,0.5 46.5,0.5 0.5,80.5 46.5,160.5 "
   style="fill:#808080;fill-rule:nonzero;stroke:#808080;stroke-width:0;stroke-linejoin:round"
   id="polygon3980"
   transform="matrix(1.1064536,0,0,1.1487907,-19.747731,-10.981132)" />
<text
   transform="scale(0.9814003,-1.0189522)"
   style="font-size:9.01938725px;fill:#000000;stroke:none;font-family:&quot;Helvetica&quot;, sans-serif"
   id="text3982"
   x="102.98137"
   y="1.8543457">138</text>


<polygon
   points="68.5,56.5 116.5,56.5 116.5,104.5 68.5,104.5 68.5,56.5 "
   style="fill:#ffffff;fill-rule:nonzero;stroke:#ffffff;stroke-width:0;stroke-linejoin:round"
   id="polygon3984"
   transform="matrix(1.1064536,0,0,1.1487907,-19.747731,-10.981132)" />
<polygon
   points="68.5,56.5 116.5,56.5 116.5,104.5 68.5,104.5 68.5,56.5 "
   style="stroke:#ffffff;stroke-width:6;stroke-linejoin:round"
   id="polygon3986"
   transform="matrix(1.1064536,0,0,1.1487907,-19.747731,-10.981132)" />
<path
   d="M 82.59923,81.496511 L 82.56493,82.915267 L 82.46203,84.315643 L 82.292743,85.695341 L 82.059281,87.053211 L 81.762751,88.386958 L 81.405367,89.695429 L 80.988234,90.97633 L 80.512459,92.227365 L 79.980254,93.449678 L 79.393835,94.637527 L 78.754304,95.792061 L 78.063877,96.910979 L 77.32366,97.991998 L 76.534758,99.033948 L 75.700492,100.03454 L 74.820862,100.99149 L 73.899185,101.90478 L 72.935464,102.77097 L 71.93191,103.59005 L 70.890738,104.35744 L 69.813051,105.08118 L 68.701065,105.736 L 67.556993,106.34486 L 66.379727,106.89627 L 65.174798,107.39025 L 63.941102,107.82679 L 62.680852,108.1944 L 61.396259,108.50457 L 60.08843,108.74583 L 58.759581,108.92963 L 57.410813,109.03303 L 56.044343,109.06748 C 41.379407,109.06748 29.489455,96.722586 29.489455,81.496511 C 29.489455,66.27044 41.379407,53.925536 56.044343,53.925536 C 70.709279,53.925536 82.59923,66.27044 82.59923,81.496511 z "
   style="fill:#ffffff;fill-rule:nonzero;stroke:#ffffff;stroke-width:0;stroke-linecap:round;stroke-linejoin:round"
   id="path3988" />
<path
   d="M 82.59923,81.496511 L 82.56493,82.915267 L 82.46203,84.315643 L 82.292743,85.695341 L 82.059281,87.053211 L 81.762751,88.386958 L 81.405367,89.695429 L 80.988234,90.97633 L 80.512459,92.227365 L 79.980254,93.449678 L 79.393835,94.637527 L 78.754304,95.792061 L 78.063877,96.910979 L 77.32366,97.991998 L 76.534758,99.033948 L 75.700492,100.03454 L 74.820862,100.99149 L 73.899185,101.90478 L 72.935464,102.77097 L 71.93191,103.59005 L 70.890738,104.35744 L 69.813051,105.08118 L 68.701065,105.736 L 67.556993,106.34486 L 66.379727,106.89627 L 65.174798,107.39025 L 63.941102,107.82679 L 62.680852,108.1944 L 61.396259,108.50457 L 60.08843,108.74583 L 58.759581,108.92963 L 57.410813,109.03303 L 56.044343,109.06748 C 41.379407,109.06748 29.489455,96.722586 29.489455,81.496511 C 29.489455,66.27044 41.379407,53.925536 56.044343,53.925536 C 70.709279,53.925536 82.59923,66.27044 82.59923,81.496511 z "
   style="stroke:#ffffff;stroke-width:6.76454067;stroke-linecap:round;stroke-linejoin:round"
   id="path3990" />
<path
   d="M 135.709,81.496511 L 135.67581,82.915267 L 135.57623,84.315643 L 135.3992,85.695341 L 135.16684,87.053211 L 134.8681,88.386958 L 134.51403,89.695429 L 134.09358,90.97633 L 133.61781,92.227365 L 133.08671,93.449678 L 132.5003,94.637527 L 131.86961,95.792061 L 131.17255,96.910979 L 130.43122,97.991998 L 129.64563,99.033948 L 128.80473,100.03454 L 127.93063,100.99149 L 127.01228,101.90478 L 126.04967,102.77097 L 125.0428,103.59005 L 124.00273,104.35744 L 122.9184,105.08118 L 121.81194,105.736 L 120.66123,106.34486 L 119.48839,106.89627 L 118.28235,107.39025 L 117.05419,107.82679 L 115.79284,108.1944 L 114.50935,108.50457 L 113.19267,108.74583 L 111.86493,108.92963 L 110.51505,109.03303 L 109.15412,109.06748 C 94.493598,109.06748 82.59923,96.722586 82.59923,81.496511 C 82.59923,66.27044 94.493598,53.925536 109.15412,53.925536 C 123.81464,53.925536 135.709,66.27044 135.709,81.496511 z "
   style="fill:#ffffff;fill-rule:nonzero;stroke:#ffffff;stroke-width:0;stroke-linecap:round;stroke-linejoin:round"
   id="path3992" />
<path
   d="M 135.709,81.496511 L 135.67581,82.915267 L 135.57623,84.315643 L 135.3992,85.695341 L 135.16684,87.053211 L 134.8681,88.386958 L 134.51403,89.695429 L 134.09358,90.97633 L 133.61781,92.227365 L 133.08671,93.449678 L 132.5003,94.637527 L 131.86961,95.792061 L 131.17255,96.910979 L 130.43122,97.991998 L 129.64563,99.033948 L 128.80473,100.03454 L 127.93063,100.99149 L 127.01228,101.90478 L 126.04967,102.77097 L 125.0428,103.59005 L 124.00273,104.35744 L 122.9184,105.08118 L 121.81194,105.736 L 120.66123,106.34486 L 119.48839,106.89627 L 118.28235,107.39025 L 117.05419,107.82679 L 115.79284,108.1944 L 114.50935,108.50457 L 113.19267,108.74583 L 111.86493,108.92963 L 110.51505,109.03303 L 109.15412,109.06748 C 94.493598,109.06748 82.59923,96.722586 82.59923,81.496511 C 82.59923,66.27044 94.493598,53.925536 109.15412,53.925536 C 123.81464,53.925536 135.709,66.27044 135.709,81.496511 z "
   style="stroke:#ffffff;stroke-width:6.76454067;stroke-linecap:round;stroke-linejoin:round"
   id="path3994" />
<line
   x1="82.599228"
   y1="81.496513"
   x2="82.599228"
   y2="173.39977"
   style="stroke:#ffffff;stroke-width:18.0387764;stroke-linecap:round"
   id="line3996" />
<line
   x1="82.599228"
   y1="81.496513"
   x2="158.94453"
   y2="127.44814"
   style="stroke:#ffffff;stroke-width:18.0387764;stroke-linecap:round"
   id="line3998" />
<line
   x1="82.599228"
   y1="81.496513"
   x2="158.94453"
   y2="35.544888"
   style="stroke:#ffffff;stroke-width:18.0387764;stroke-linecap:round"
   id="line4000" />
<line
   x1="82.599228"
   y1="81.496513"
   x2="82.599228"
   y2="-10.406738"
   style="stroke:#ffffff;stroke-width:18.0387764;stroke-linecap:round"
   id="line4002" />
<line
   x1="82.599228"
   y1="81.496513"
   x2="6.2539291"
   y2="35.544888"
   style="stroke:#ffffff;stroke-width:18.0387764;stroke-linecap:round"
   id="line4004" />
<line
   x1="82.599228"
   y1="81.496513"
   x2="6.2539291"
   y2="127.44814"
   style="stroke:#ffffff;stroke-width:18.0387764;stroke-linecap:round"
   id="line4006" />
<line
   x1="82.599228"
   y1="81.496513"
   x2="82.599228"
   y2="173.39977"
   style="stroke-width:13.52908134;stroke-linecap:round"
   id="line4008" />
<line
   x1="82.599228"
   y1="81.496513"
   x2="158.94453"
   y2="127.44814"
   style="stroke-width:13.52908134;stroke-linecap:round"
   id="line4010" />
<line
   x1="82.599228"
   y1="81.496513"
   x2="158.94453"
   y2="35.544888"
   style="stroke-width:13.52908134;stroke-linecap:round"
   id="line4012" />
<line
   x1="82.599228"
   y1="81.496513"
   x2="82.599228"
   y2="-10.406738"
   style="stroke-width:13.52908134;stroke-linecap:round"
   id="line4014" />
<line
   x1="82.599228"
   y1="81.496513"
   x2="6.2539291"
   y2="35.544888"
   style="stroke-width:13.52908134;stroke-linecap:round"
   id="line4016" />
<line
   x1="82.599228"
   y1="81.496513"
   x2="6.2539291"
   y2="127.44814"
   style="stroke-width:13.52908134;stroke-linecap:round"
   id="line4018" />
<polygon
   points="68.5,56.5 116.5,56.5 116.5,104.5 68.5,104.5 68.5,56.5 "
   style="fill:#ffffff;fill-rule:nonzero;stroke:#ffffff;stroke-width:0;stroke-linejoin:round"
   id="polygon4020"
   transform="matrix(1.1064536,0,0,1.1487907,-19.747731,-10.981132)" />
<polygon
   points="68.5,56.5 116.5,56.5 116.5,104.5 68.5,104.5 68.5,56.5 "
   style="stroke-width:2;stroke-linejoin:round"
   id="polygon4022"
   transform="matrix(1.1064536,0,0,1.1487907,-19.747731,-10.981132)" />
<path
   d="M 82.59923,81.496511 L 82.56493,82.915267 L 82.46203,84.315643 L 82.292743,85.695341 L 82.059281,87.053211 L 81.762751,88.386958 L 81.405367,89.695429 L 80.988234,90.97633 L 80.512459,92.227365 L 79.980254,93.449678 L 79.393835,94.637527 L 78.754304,95.792061 L 78.063877,96.910979 L 77.32366,97.991998 L 76.534758,99.033948 L 75.700492,100.03454 L 74.820862,100.99149 L 73.899185,101.90478 L 72.935464,102.77097 L 71.93191,103.59005 L 70.890738,104.35744 L 69.813051,105.08118 L 68.701065,105.736 L 67.556993,106.34486 L 66.379727,106.89627 L 65.174798,107.39025 L 63.941102,107.82679 L 62.680852,108.1944 L 61.396259,108.50457 L 60.08843,108.74583 L 58.759581,108.92963 L 57.410813,109.03303 L 56.044343,109.06748 C 41.379407,109.06748 29.489455,96.722586 29.489455,81.496511 C 29.489455,66.27044 41.379407,53.925536 56.044343,53.925536 C 70.709279,53.925536 82.59923,66.27044 82.59923,81.496511 z "
   style="fill:#ffffff;fill-rule:nonzero;stroke:#ffffff;stroke-width:0;stroke-linecap:round;stroke-linejoin:round"
   id="path4024" />
<path
   d="M 82.59923,81.496511 L 82.56493,82.915267 L 82.46203,84.315643 L 82.292743,85.695341 L 82.059281,87.053211 L 81.762751,88.386958 L 81.405367,89.695429 L 80.988234,90.97633 L 80.512459,92.227365 L 79.980254,93.449678 L 79.393835,94.637527 L 78.754304,95.792061 L 78.063877,96.910979 L 77.32366,97.991998 L 76.534758,99.033948 L 75.700492,100.03454 L 74.820862,100.99149 L 73.899185,101.90478 L 72.935464,102.77097 L 71.93191,103.59005 L 70.890738,104.35744 L 69.813051,105.08118 L 68.701065,105.736 L 67.556993,106.34486 L 66.379727,106.89627 L 65.174798,107.39025 L 63.941102,107.82679 L 62.680852,108.1944 L 61.396259,108.50457 L 60.08843,108.74583 L 58.759581,108.92963 L 57.410813,109.03303 L 56.044343,109.06748 C 41.379407,109.06748 29.489455,96.722586 29.489455,81.496511 C 29.489455,66.27044 41.379407,53.925536 56.044343,53.925536 C 70.709279,53.925536 82.59923,66.27044 82.59923,81.496511 z "
   style="stroke-width:2.25484705;stroke-linecap:round;stroke-linejoin:round"
   id="path4026" />
<path
   d="M 135.709,81.496511 L 135.67581,82.915267 L 135.57623,84.315643 L 135.3992,85.695341 L 135.16684,87.053211 L 134.8681,88.386958 L 134.51403,89.695429 L 134.09358,90.97633 L 133.61781,92.227365 L 133.08671,93.449678 L 132.5003,94.637527 L 131.86961,95.792061 L 131.17255,96.910979 L 130.43122,97.991998 L 129.64563,99.033948 L 128.80473,100.03454 L 127.93063,100.99149 L 127.01228,101.90478 L 126.04967,102.77097 L 125.0428,103.59005 L 124.00273,104.35744 L 122.9184,105.08118 L 121.81194,105.736 L 120.66123,106.34486 L 119.48839,106.89627 L 118.28235,107.39025 L 117.05419,107.82679 L 115.79284,108.1944 L 114.50935,108.50457 L 113.19267,108.74583 L 111.86493,108.92963 L 110.51505,109.03303 L 109.15412,109.06748 C 94.493598,109.06748 82.59923,96.722586 82.59923,81.496511 C 82.59923,66.27044 94.493598,53.925536 109.15412,53.925536 C 123.81464,53.925536 135.709,66.27044 135.709,81.496511 z "
   style="fill:#ffffff;fill-rule:nonzero;stroke:#ffffff;stroke-width:0;stroke-linecap:round;stroke-linejoin:round"
   id="path4028" />
<path
   d="M 135.709,81.496511 L 135.67581,82.915267 L 135.57623,84.315643 L 135.3992,85.695341 L 135.16684,87.053211 L 134.8681,88.386958 L 134.51403,89.695429 L 134.09358,90.97633 L 133.61781,92.227365 L 133.08671,93.449678 L 132.5003,94.637527 L 131.86961,95.792061 L 131.17255,96.910979 L 130.43122,97.991998 L 129.64563,99.033948 L 128.80473,100.03454 L 127.93063,100.99149 L 127.01228,101.90478 L 126.04967,102.77097 L 125.0428,103.59005 L 124.00273,104.35744 L 122.9184,105.08118 L 121.81194,105.736 L 120.66123,106.34486 L 119.48839,106.89627 L 118.28235,107.39025 L 117.05419,107.82679 L 115.79284,108.1944 L 114.50935,108.50457 L 113.19267,108.74583 L 111.86493,108.92963 L 110.51505,109.03303 L 109.15412,109.06748 C 94.493598,109.06748 82.59923,96.722586 82.59923,81.496511 C 82.59923,66.27044 94.493598,53.925536 109.15412,53.925536 C 123.81464,53.925536 135.709,66.27044 135.709,81.496511 z "
   style="stroke-width:2.25484705;stroke-linecap:round;stroke-linejoin:round"
   id="path4030" />
<path
   d="M 54.375811,150.42395 L 54.36364,150.66519 L 54.327126,150.89495 L 54.267378,151.12471 L 54.185501,151.35446 L 54.080388,151.58423 L 53.953146,151.80249 L 53.805987,152.02076 L 53.6367,152.22755 L 53.448603,152.43433 L 53.241696,152.62962 L 53.014872,152.82492 L 52.770347,153.02022 L 52.508117,153.20401 L 52.22929,153.37634 L 51.933867,153.54866 L 51.622955,153.70949 L 51.296551,153.85883 L 50.955762,154.00817 L 50.600591,154.14603 L 50.232142,154.27239 L 49.850416,154.38728 L 49.457625,154.50216 L 49.052662,154.60554 L 48.635529,154.69745 L 48.209545,154.77787 L 47.772495,154.85828 L 47.326595,154.91572 L 46.872949,154.97315 L 46.41045,155.00763 L 45.940208,155.04208 L 45.463327,155.05357 L 44.979806,155.06507 C 39.792752,155.06507 35.583802,152.98575 35.583802,150.42395 C 35.583802,147.86214 39.792752,145.78284 44.979806,145.78284 C 50.166862,145.78284 54.375811,147.86214 54.375811,150.42395 z "
   style="fill:#ffffff;fill-rule:nonzero;stroke:#ffffff;stroke-width:0;stroke-linecap:round;stroke-linejoin:round"
   id="path4032" />
<path
   d="M 54.375811,150.42395 L 54.36364,150.66519 L 54.327126,150.89495 L 54.267378,151.12471 L 54.185501,151.35446 L 54.080388,151.58423 L 53.953146,151.80249 L 53.805987,152.02076 L 53.6367,152.22755 L 53.448603,152.43433 L 53.241696,152.62962 L 53.014872,152.82492 L 52.770347,153.02022 L 52.508117,153.20401 L 52.22929,153.37634 L 51.933867,153.54866 L 51.622955,153.70949 L 51.296551,153.85883 L 50.955762,154.00817 L 50.600591,154.14603 L 50.232142,154.27239 L 49.850416,154.38728 L 49.457625,154.50216 L 49.052662,154.60554 L 48.635529,154.69745 L 48.209545,154.77787 L 47.772495,154.85828 L 47.326595,154.91572 L 46.872949,154.97315 L 46.41045,155.00763 L 45.940208,155.04208 L 45.463327,155.05357 L 44.979806,155.06507 C 39.792752,155.06507 35.583802,152.98575 35.583802,150.42395 C 35.583802,147.86214 39.792752,145.78284 44.979806,145.78284 C 50.166862,145.78284 54.375811,147.86214 54.375811,150.42395 z "
   style="stroke-width:0.95725012;stroke-linecap:round;stroke-linejoin:round"
   id="path4034" />
<text
   transform="scale(0.9814003,-1.0189522)"
   style="font-size:9.01938725px;fill:#000000;stroke:none;font-family:&quot;Helvetica&quot;, sans-serif"
   id="text4036"
   x="39.846783"
   y="-144.78499">60</text>


<text
   transform="scale(0.9814003,-1.0189522)"
   style="font-size:18.03877449px;fill:#000000;stroke:none;font-family:&quot;Helvetica&quot;, sans-serif"
   id="text4038"
   x="-12.800234"
   y="-74.137886">KC,MSP,StL</text>


<polygon
   points="46.5,160.5 138.5,160.5 184.5,80.5 138.5,0.5 46.5,0.5 0.5,80.5 46.5,160.5 "
   style="stroke-width:1;stroke-linejoin:round"
   id="polygon4040"
   transform="matrix(1.1064536,0,0,1.1487907,-19.747731,-10.981132)" />
</g></svg>
