<?xml version="1.0" encoding="UTF-8" standalone="no"?>
<svg
   xmlns:dc="http://purl.org/dc/elements/1.1/"
   xmlns:cc="http://web.resource.org/cc/"
   xmlns:rdf="http://www.w3.org/1999/02/22-rdf-syntax-ns#"
   xmlns:svg="http://www.w3.org/2000/svg"
   xmlns="http://www.w3.org/2000/svg"
   xmlns:sodipodi="http://inkscape.sourceforge.net/DTD/sodipodi-0.dtd"
   xmlns:inkscape="http://www.inkscape.org/namespaces/inkscape"
   width="100"
   height="100"
   viewBox="0 0 1 1"
   preserveAspectRatio="none"
   id="svg7411"
   sodipodi:version="0.32"
   inkscape:version="0.43"
   sodipodi:docname="tile312.svg"
   sodipodi:docbase="C:\Documents and Settings\lentz\Desktop\TileDesigner"
   version="1.0">
  <metadata
     id="metadata7492">
    <rdf:RDF>
      <cc:Work
         rdf:about="">
        <dc:format>image/svg+xml</dc:format>
        <dc:type
           rdf:resource="http://purl.org/dc/dcmitype/StillImage" />
      </cc:Work>
    </rdf:RDF>
  </metadata>
  <defs
     id="defs7490" />
  <sodipodi:namedview
     inkscape:window-height="540"
     inkscape:window-width="749"
     inkscape:pageshadow="2"
     inkscape:pageopacity="0.0"
     borderopacity="1.0"
     bordercolor="#666666"
     pagecolor="#ffffff"
     id="base"
     inkscape:zoom="0.52361111"
     inkscape:cx="360"
     inkscape:cy="360"
     inkscape:window-x="88"
     inkscape:window-y="88"
     inkscape:current-layer="svg7411" />
  <title
     id="title7413">SVG drawing</title>
  <desc
     id="desc7415">This was produced by version 4.1 of GNU libplot, a free library for exporting 2-D vector graphics.</desc>
  <g
     transform="matrix(5.418114e-3,0,0,-5.739835e-3,-1.175565e-3,1.000747)"
     xml:space="preserve"
     style="font-style:normal;font-variant:normal;font-weight:normal;font-stretch:normal;letter-spacing:normal;word-spacing:normal;text-anchor:start;fill:none;fill-opacity:1;stroke:#000000;stroke-linecap:butt;stroke-linejoin:miter;stroke-miterlimit:10.43299961;stroke-dasharray:none;stroke-dashoffset:0;stroke-opacity:1"
     id="g7419">
<polygon
   points="46.5,160.5 138.5,160.5 184.5,80.5 138.5,0.5 46.5,0.5 0.5,80.5 46.5,160.5 "
   style="fill:#38ac00;fill-rule:nonzero;stroke:#38ac00;stroke-width:0;stroke-linejoin:round"
   id="polygon7421" />
<text
   transform="matrix(1,0,0,-1,109.2,7.9141)"
   style="font-size:8px;fill:#000000;stroke:none;font-family:&quot;Helvetica&quot;, sans-serif"
   id="text7423">312</text>

<polygon
   points="76.5,101.5 118.5,77.5 142.5,119.5 100.5,143.5 76.5,101.5 "
   style="fill:#ffffff;fill-rule:nonzero;stroke:#ffffff;stroke-width:0;stroke-linejoin:round"
   id="polygon7425" />
<polygon
   points="76.5,101.5 118.5,77.5 142.5,119.5 100.5,143.5 76.5,101.5 "
   style="stroke:#ffffff;stroke-width:6;stroke-linejoin:round"
   id="polygon7427" />
<path
   d="M 112.5,122.5 L 112.47,123.73 L 112.38,124.95 L 112.22,126.15 L 112.01,127.34 L 111.74,128.5 L 111.42,129.64 L 111.04,130.75 L 110.61,131.84 L 110.13,132.9 L 109.6,133.94 L 109.03,134.94 L 108.4,135.92 L 107.73,136.86 L 107.02,137.77 L 106.26,138.64 L 105.47,139.47 L 104.64,140.26 L 103.77,141.02 L 102.86,141.73 L 101.92,142.4 L 100.94,143.03 L 99.939,143.6 L 98.905,144.13 L 97.842,144.61 L 96.752,145.04 L 95.637,145.42 L 94.498,145.74 L 93.337,146.01 L 92.155,146.22 L 90.954,146.38 L 89.735,146.47 L 88.5,146.5 C 75.246,146.5 64.5,135.75 64.5,122.5 C 64.5,109.25 75.246,98.5 88.5,98.5 C 101.75,98.5 112.5,109.25 112.5,122.5 z "
   style="fill:#ffffff;fill-rule:nonzero;stroke:#ffffff;stroke-width:0;stroke-linecap:round;stroke-linejoin:round"
   id="path7429" />
<path
   d="M 112.5,122.5 L 112.47,123.73 L 112.38,124.95 L 112.22,126.15 L 112.01,127.34 L 111.74,128.5 L 111.42,129.64 L 111.04,130.75 L 110.61,131.84 L 110.13,132.9 L 109.6,133.94 L 109.03,134.94 L 108.4,135.92 L 107.73,136.86 L 107.02,137.77 L 106.26,138.64 L 105.47,139.47 L 104.64,140.26 L 103.77,141.02 L 102.86,141.73 L 101.92,142.4 L 100.94,143.03 L 99.939,143.6 L 98.905,144.13 L 97.842,144.61 L 96.752,145.04 L 95.637,145.42 L 94.498,145.74 L 93.337,146.01 L 92.155,146.22 L 90.954,146.38 L 89.735,146.47 L 88.5,146.5 C 75.246,146.5 64.5,135.75 64.5,122.5 C 64.5,109.25 75.246,98.5 88.5,98.5 C 101.75,98.5 112.5,109.25 112.5,122.5 z "
   style="stroke:#ffffff;stroke-width:6;stroke-linecap:round;stroke-linejoin:round"
   id="path7431" />
<path
   d="M 154.5,98.5 L 154.47,99.735 L 154.38,100.95 L 154.22,102.15 L 154.01,103.34 L 153.74,104.5 L 153.42,105.64 L 153.04,106.75 L 152.61,107.84 L 152.13,108.9 L 151.6,109.94 L 151.03,110.94 L 150.4,111.92 L 149.73,112.86 L 149.02,113.77 L 148.26,114.64 L 147.47,115.47 L 146.64,116.26 L 145.77,117.02 L 144.86,117.73 L 143.92,118.4 L 142.94,119.03 L 141.94,119.6 L 140.9,120.13 L 139.84,120.61 L 138.75,121.04 L 137.64,121.42 L 136.5,121.74 L 135.34,122.01 L 134.15,122.22 L 132.95,122.38 L 131.73,122.47 L 130.5,122.5 C 117.25,122.5 106.5,111.75 106.5,98.5 C 106.5,85.246 117.25,74.5 130.5,74.5 C 143.75,74.5 154.5,85.246 154.5,98.5 z "
   style="fill:#ffffff;fill-rule:nonzero;stroke:#ffffff;stroke-width:0;stroke-linecap:round;stroke-linejoin:round"
   id="path7433" />
<path
   d="M 154.5,98.5 L 154.47,99.735 L 154.38,100.95 L 154.22,102.15 L 154.01,103.34 L 153.74,104.5 L 153.42,105.64 L 153.04,106.75 L 152.61,107.84 L 152.13,108.9 L 151.6,109.94 L 151.03,110.94 L 150.4,111.92 L 149.73,112.86 L 149.02,113.77 L 148.26,114.64 L 147.47,115.47 L 146.64,116.26 L 145.77,117.02 L 144.86,117.73 L 143.92,118.4 L 142.94,119.03 L 141.94,119.6 L 140.9,120.13 L 139.84,120.61 L 138.75,121.04 L 137.64,121.42 L 136.5,121.74 L 135.34,122.01 L 134.15,122.22 L 132.95,122.38 L 131.73,122.47 L 130.5,122.5 C 117.25,122.5 106.5,111.75 106.5,98.5 C 106.5,85.246 117.25,74.5 130.5,74.5 C 143.75,74.5 154.5,85.246 154.5,98.5 z "
   style="stroke:#ffffff;stroke-width:6;stroke-linecap:round;stroke-linejoin:round"
   id="path7435" />
<path
   d="M 93.5,40.5 L 93.469,41.735 L 93.376,42.954 L 93.223,44.155 L 93.012,45.337 L 92.744,46.498 L 92.421,47.637 L 92.044,48.752 L 91.614,49.841 L 91.133,50.905 L 90.603,51.939 L 90.025,52.944 L 89.401,53.918 L 88.732,54.859 L 88.019,55.766 L 87.265,56.637 L 86.47,57.47 L 85.637,58.265 L 84.766,59.019 L 83.859,59.732 L 82.918,60.401 L 81.944,61.025 L 80.939,61.603 L 79.905,62.133 L 78.841,62.614 L 77.752,63.044 L 76.637,63.421 L 75.498,63.744 L 74.337,64.012 L 73.155,64.223 L 71.954,64.376 L 70.735,64.469 L 69.5,64.5 C 56.246,64.5 45.5,53.754 45.5,40.5 C 45.5,27.246 56.246,16.5 69.5,16.5 C 82.754,16.5 93.5,27.246 93.5,40.5 z "
   style="fill:#ffffff;fill-rule:nonzero;stroke:#ffffff;stroke-width:0;stroke-linecap:round;stroke-linejoin:round"
   id="path7437" />
<path
   d="M 93.5,40.5 L 93.469,41.735 L 93.376,42.954 L 93.223,44.155 L 93.012,45.337 L 92.744,46.498 L 92.421,47.637 L 92.044,48.752 L 91.614,49.841 L 91.133,50.905 L 90.603,51.939 L 90.025,52.944 L 89.401,53.918 L 88.732,54.859 L 88.019,55.766 L 87.265,56.637 L 86.47,57.47 L 85.637,58.265 L 84.766,59.019 L 83.859,59.732 L 82.918,60.401 L 81.944,61.025 L 80.939,61.603 L 79.905,62.133 L 78.841,62.614 L 77.752,63.044 L 76.637,63.421 L 75.498,63.744 L 74.337,64.012 L 73.155,64.223 L 71.954,64.376 L 70.735,64.469 L 69.5,64.5 C 56.246,64.5 45.5,53.754 45.5,40.5 C 45.5,27.246 56.246,16.5 69.5,16.5 C 82.754,16.5 93.5,27.246 93.5,40.5 z "
   style="stroke:#ffffff;stroke-width:6;stroke-linecap:round;stroke-linejoin:round"
   id="path7439" />
<path
   d="M 92.5,160.5 L 92.5,160.5 C 92.5,140.12 97.02,119.99 105.72,101.56"
   style="stroke:#ffffff;stroke-width:16;stroke-linecap:round;stroke-linejoin:round"
   id="path7441" />
<path
   d="M 103.5,100.5 L 105.73,101.55 C 117.76,76.082 137.3,54.902 161.71,40.867"
   style="stroke:#ffffff;stroke-width:16;stroke-linecap:round;stroke-linejoin:round"
   id="path7443" />
<path
   d="M 23.5,120.5 L 23.711,120.87 C 44.637,108.84 68.359,102.5 92.5,102.5 C 96.109,102.5 99.723,102.64 103.32,102.93"
   style="stroke:#ffffff;stroke-width:16;stroke-linecap:round;stroke-linejoin:round"
   id="path7445" />
<path
   d="M 69.5,40.5 L 69.434,40.375 C 62.457,44.387 54.547,46.5 46.5,46.5 C 38.457,46.5 30.547,44.387 23.57,40.379"
   style="stroke:#ffffff;stroke-width:16;stroke-linecap:round;stroke-linejoin:round"
   id="path7447" />
<path
   d="M 92.5,160.5 L 92.5,160.5 C 92.5,140.12 97.02,119.99 105.72,101.56"
   style="stroke-width:12;stroke-linecap:round;stroke-linejoin:round"
   id="path7449" />
<path
   d="M 103.5,100.5 L 105.73,101.55 C 117.76,76.082 137.3,54.902 161.71,40.867"
   style="stroke-width:12;stroke-linecap:round;stroke-linejoin:round"
   id="path7451" />
<path
   d="M 23.5,120.5 L 23.711,120.87 C 44.637,108.84 68.359,102.5 92.5,102.5 C 96.109,102.5 99.723,102.64 103.32,102.93"
   style="stroke-width:12;stroke-linecap:round;stroke-linejoin:round"
   id="path7453" />
<path
   d="M 69.5,40.5 L 69.434,40.375 C 62.457,44.387 54.547,46.5 46.5,46.5 C 38.457,46.5 30.547,44.387 23.57,40.379"
   style="stroke-width:12;stroke-linecap:round;stroke-linejoin:round"
   id="path7455" />
<polygon
   points="76.5,101.5 118.5,77.5 142.5,119.5 100.5,143.5 76.5,101.5 "
   style="fill:#ffffff;fill-rule:nonzero;stroke:#ffffff;stroke-width:0;stroke-linejoin:round"
   id="polygon7457" />
<polygon
   points="76.5,101.5 118.5,77.5 142.5,119.5 100.5,143.5 76.5,101.5 "
   style="stroke-width:2;stroke-linejoin:round"
   id="polygon7459" />
<path
   d="M 112.5,122.5 L 112.47,123.73 L 112.38,124.95 L 112.22,126.15 L 112.01,127.34 L 111.74,128.5 L 111.42,129.64 L 111.04,130.75 L 110.61,131.84 L 110.13,132.9 L 109.6,133.94 L 109.03,134.94 L 108.4,135.92 L 107.73,136.86 L 107.02,137.77 L 106.26,138.64 L 105.47,139.47 L 104.64,140.26 L 103.77,141.02 L 102.86,141.73 L 101.92,142.4 L 100.94,143.03 L 99.939,143.6 L 98.905,144.13 L 97.842,144.61 L 96.752,145.04 L 95.637,145.42 L 94.498,145.74 L 93.337,146.01 L 92.155,146.22 L 90.954,146.38 L 89.735,146.47 L 88.5,146.5 C 75.246,146.5 64.5,135.75 64.5,122.5 C 64.5,109.25 75.246,98.5 88.5,98.5 C 101.75,98.5 112.5,109.25 112.5,122.5 z "
   style="fill:#ffffff;fill-rule:nonzero;stroke:#ffffff;stroke-width:0;stroke-linecap:round;stroke-linejoin:round"
   id="path7461" />
<path
   d="M 112.5,122.5 L 112.47,123.73 L 112.38,124.95 L 112.22,126.15 L 112.01,127.34 L 111.74,128.5 L 111.42,129.64 L 111.04,130.75 L 110.61,131.84 L 110.13,132.9 L 109.6,133.94 L 109.03,134.94 L 108.4,135.92 L 107.73,136.86 L 107.02,137.77 L 106.26,138.64 L 105.47,139.47 L 104.64,140.26 L 103.77,141.02 L 102.86,141.73 L 101.92,142.4 L 100.94,143.03 L 99.939,143.6 L 98.905,144.13 L 97.842,144.61 L 96.752,145.04 L 95.637,145.42 L 94.498,145.74 L 93.337,146.01 L 92.155,146.22 L 90.954,146.38 L 89.735,146.47 L 88.5,146.5 C 75.246,146.5 64.5,135.75 64.5,122.5 C 64.5,109.25 75.246,98.5 88.5,98.5 C 101.75,98.5 112.5,109.25 112.5,122.5 z "
   style="stroke-width:2;stroke-linecap:round;stroke-linejoin:round"
   id="path7463" />
<path
   d="M 154.5,98.5 L 154.47,99.735 L 154.38,100.95 L 154.22,102.15 L 154.01,103.34 L 153.74,104.5 L 153.42,105.64 L 153.04,106.75 L 152.61,107.84 L 152.13,108.9 L 151.6,109.94 L 151.03,110.94 L 150.4,111.92 L 149.73,112.86 L 149.02,113.77 L 148.26,114.64 L 147.47,115.47 L 146.64,116.26 L 145.77,117.02 L 144.86,117.73 L 143.92,118.4 L 142.94,119.03 L 141.94,119.6 L 140.9,120.13 L 139.84,120.61 L 138.75,121.04 L 137.64,121.42 L 136.5,121.74 L 135.34,122.01 L 134.15,122.22 L 132.95,122.38 L 131.73,122.47 L 130.5,122.5 C 117.25,122.5 106.5,111.75 106.5,98.5 C 106.5,85.246 117.25,74.5 130.5,74.5 C 143.75,74.5 154.5,85.246 154.5,98.5 z "
   style="fill:#ffffff;fill-rule:nonzero;stroke:#ffffff;stroke-width:0;stroke-linecap:round;stroke-linejoin:round"
   id="path7465" />
<path
   d="M 154.5,98.5 L 154.47,99.735 L 154.38,100.95 L 154.22,102.15 L 154.01,103.34 L 153.74,104.5 L 153.42,105.64 L 153.04,106.75 L 152.61,107.84 L 152.13,108.9 L 151.6,109.94 L 151.03,110.94 L 150.4,111.92 L 149.73,112.86 L 149.02,113.77 L 148.26,114.64 L 147.47,115.47 L 146.64,116.26 L 145.77,117.02 L 144.86,117.73 L 143.92,118.4 L 142.94,119.03 L 141.94,119.6 L 140.9,120.13 L 139.84,120.61 L 138.75,121.04 L 137.64,121.42 L 136.5,121.74 L 135.34,122.01 L 134.15,122.22 L 132.95,122.38 L 131.73,122.47 L 130.5,122.5 C 117.25,122.5 106.5,111.75 106.5,98.5 C 106.5,85.246 117.25,74.5 130.5,74.5 C 143.75,74.5 154.5,85.246 154.5,98.5 z "
   style="stroke-width:2;stroke-linecap:round;stroke-linejoin:round"
   id="path7467" />
<path
   d="M 31.992,80.5 L 31.981,80.708 L 31.948,80.913 L 31.894,81.115 L 31.82,81.314 L 31.725,81.509 L 31.61,81.701 L 31.477,81.889 L 31.324,82.072 L 31.154,82.251 L 30.967,82.425 L 30.762,82.594 L 30.541,82.758 L 30.304,82.917 L 30.052,83.069 L 29.785,83.216 L 29.504,83.356 L 29.209,83.49 L 28.901,83.617 L 28.58,83.737 L 28.247,83.849 L 27.902,83.954 L 27.547,84.052 L 27.181,84.141 L 26.804,84.222 L 26.419,84.294 L 26.024,84.357 L 25.621,84.412 L 25.211,84.457 L 24.793,84.493 L 24.368,84.518 L 23.937,84.534 L 23.5,84.539 C 18.812,84.539 15.008,82.73 15.008,80.5 C 15.008,78.27 18.812,76.461 23.5,76.461 C 28.188,76.461 31.992,78.27 31.992,80.5 z "
   style="fill:#ffffff;fill-rule:nonzero;stroke:#ffffff;stroke-width:0;stroke-linecap:round;stroke-linejoin:round"
   id="path7469" />
<path
   d="M 31.992,80.5 L 31.981,80.708 L 31.948,80.913 L 31.894,81.115 L 31.82,81.314 L 31.725,81.509 L 31.61,81.701 L 31.477,81.889 L 31.324,82.072 L 31.154,82.251 L 30.967,82.425 L 30.762,82.594 L 30.541,82.758 L 30.304,82.917 L 30.052,83.069 L 29.785,83.216 L 29.504,83.356 L 29.209,83.49 L 28.901,83.617 L 28.58,83.737 L 28.247,83.849 L 27.902,83.954 L 27.547,84.052 L 27.181,84.141 L 26.804,84.222 L 26.419,84.294 L 26.024,84.357 L 25.621,84.412 L 25.211,84.457 L 24.793,84.493 L 24.368,84.518 L 23.937,84.534 L 23.5,84.539 C 18.812,84.539 15.008,82.73 15.008,80.5 C 15.008,78.27 18.812,76.461 23.5,76.461 C 28.188,76.461 31.992,78.27 31.992,80.5 z "
   style="stroke-width:0.84906;stroke-linecap:round;stroke-linejoin:round"
   id="path7471" />
<text
   transform="matrix(1,0,0,-1,18.191,77.977)"
   style="font-size:8px;fill:#000000;stroke:none;font-family:&quot;Helvetica&quot;, sans-serif"
   id="text7473">60</text>

<path
   d="M 93.5,40.5 L 93.469,41.735 L 93.376,42.954 L 93.223,44.155 L 93.012,45.337 L 92.744,46.498 L 92.421,47.637 L 92.044,48.752 L 91.614,49.841 L 91.133,50.905 L 90.603,51.939 L 90.025,52.944 L 89.401,53.918 L 88.732,54.859 L 88.019,55.766 L 87.265,56.637 L 86.47,57.47 L 85.637,58.265 L 84.766,59.019 L 83.859,59.732 L 82.918,60.401 L 81.944,61.025 L 80.939,61.603 L 79.905,62.133 L 78.841,62.614 L 77.752,63.044 L 76.637,63.421 L 75.498,63.744 L 74.337,64.012 L 73.155,64.223 L 71.954,64.376 L 70.735,64.469 L 69.5,64.5 C 56.246,64.5 45.5,53.754 45.5,40.5 C 45.5,27.246 56.246,16.5 69.5,16.5 C 82.754,16.5 93.5,27.246 93.5,40.5 z "
   style="fill:#ffffff;fill-rule:nonzero;stroke:#ffffff;stroke-width:0;stroke-linecap:round;stroke-linejoin:round"
   id="path7475" />
<path
   d="M 93.5,40.5 L 93.469,41.735 L 93.376,42.954 L 93.223,44.155 L 93.012,45.337 L 92.744,46.498 L 92.421,47.637 L 92.044,48.752 L 91.614,49.841 L 91.133,50.905 L 90.603,51.939 L 90.025,52.944 L 89.401,53.918 L 88.732,54.859 L 88.019,55.766 L 87.265,56.637 L 86.47,57.47 L 85.637,58.265 L 84.766,59.019 L 83.859,59.732 L 82.918,60.401 L 81.944,61.025 L 80.939,61.603 L 79.905,62.133 L 78.841,62.614 L 77.752,63.044 L 76.637,63.421 L 75.498,63.744 L 74.337,64.012 L 73.155,64.223 L 71.954,64.376 L 70.735,64.469 L 69.5,64.5 C 56.246,64.5 45.5,53.754 45.5,40.5 C 45.5,27.246 56.246,16.5 69.5,16.5 C 82.754,16.5 93.5,27.246 93.5,40.5 z "
   style="stroke-width:2;stroke-linecap:round;stroke-linejoin:round"
   id="path7477" />
<path
   d="M 31.992,80.5 L 31.981,80.708 L 31.948,80.913 L 31.894,81.115 L 31.82,81.314 L 31.725,81.509 L 31.61,81.701 L 31.477,81.889 L 31.324,82.072 L 31.154,82.251 L 30.967,82.425 L 30.762,82.594 L 30.541,82.758 L 30.304,82.917 L 30.052,83.069 L 29.785,83.216 L 29.504,83.356 L 29.209,83.49 L 28.901,83.617 L 28.58,83.737 L 28.247,83.849 L 27.902,83.954 L 27.547,84.052 L 27.181,84.141 L 26.804,84.222 L 26.419,84.294 L 26.024,84.357 L 25.621,84.412 L 25.211,84.457 L 24.793,84.493 L 24.368,84.518 L 23.937,84.534 L 23.5,84.539 C 18.812,84.539 15.008,82.73 15.008,80.5 C 15.008,78.27 18.812,76.461 23.5,76.461 C 28.188,76.461 31.992,78.27 31.992,80.5 z "
   style="fill:#ffffff;fill-rule:nonzero;stroke:#ffffff;stroke-width:0;stroke-linecap:round;stroke-linejoin:round"
   id="path7479" />
<path
   d="M 31.992,80.5 L 31.981,80.708 L 31.948,80.913 L 31.894,81.115 L 31.82,81.314 L 31.725,81.509 L 31.61,81.701 L 31.477,81.889 L 31.324,82.072 L 31.154,82.251 L 30.967,82.425 L 30.762,82.594 L 30.541,82.758 L 30.304,82.917 L 30.052,83.069 L 29.785,83.216 L 29.504,83.356 L 29.209,83.49 L 28.901,83.617 L 28.58,83.737 L 28.247,83.849 L 27.902,83.954 L 27.547,84.052 L 27.181,84.141 L 26.804,84.222 L 26.419,84.294 L 26.024,84.357 L 25.621,84.412 L 25.211,84.457 L 24.793,84.493 L 24.368,84.518 L 23.937,84.534 L 23.5,84.539 C 18.812,84.539 15.008,82.73 15.008,80.5 C 15.008,78.27 18.812,76.461 23.5,76.461 C 28.188,76.461 31.992,78.27 31.992,80.5 z "
   style="stroke-width:0.84906;stroke-linecap:round;stroke-linejoin:round"
   id="path7481" />
<text
   transform="matrix(1,0,0,-1,18.191,77.977)"
   style="font-size:8px;fill:#000000;stroke:none;font-family:&quot;Helvetica&quot;, sans-serif"
   id="text7483">60</text>

<text
   transform="matrix(1,0,0,-1,115.49,14.918)"
   style="font-size:16px;fill:#000000;stroke:none;font-family:&quot;Helvetica&quot;, sans-serif"
   id="text7485">HH</text>

<polygon
   points="46.5,160.5 138.5,160.5 184.5,80.5 138.5,0.5 46.5,0.5 0.5,80.5 46.5,160.5 "
   style="stroke-width:1;stroke-linejoin:round"
   id="polygon7487" />
</g></svg>
