<?xml version="1.0" encoding="UTF-8" standalone="no"?>
<svg
   xmlns:dc="http://purl.org/dc/elements/1.1/"
   xmlns:cc="http://web.resource.org/cc/"
   xmlns:rdf="http://www.w3.org/1999/02/22-rdf-syntax-ns#"
   xmlns:svg="http://www.w3.org/2000/svg"
   xmlns="http://www.w3.org/2000/svg"
   xmlns:sodipodi="http://sodipodi.sourceforge.net/DTD/sodipodi-0.dtd"
   xmlns:inkscape="http://www.inkscape.org/namespaces/inkscape"
   width="100"
   height="100"
   viewBox="0 0 1 1"
   preserveAspectRatio="none"
   id="svg2360"
   sodipodi:version="0.32"
   inkscape:version="0.45.1"
   sodipodi:docname="tile9997.svg"
   sodipodi:docbase="C:\Documents and Settings\Brett\workspace\18xx\tiles\svg"
   version="1.0"
   inkscape:output_extension="org.inkscape.output.svg.inkscape">
  <metadata
     id="metadata2455">
    <rdf:RDF>
      <cc:Work
         rdf:about="">
        <dc:format>image/svg+xml</dc:format>
        <dc:type
           rdf:resource="http://purl.org/dc/dcmitype/StillImage" />
      </cc:Work>
    </rdf:RDF>
  </metadata>
  <defs
     id="defs2453" />
  <sodipodi:namedview
     inkscape:window-height="579"
     inkscape:window-width="749"
     inkscape:pageshadow="2"
     inkscape:pageopacity="0.0"
     borderopacity="1.0"
     bordercolor="#666666"
     pagecolor="#ffffff"
     id="base"
     inkscape:zoom="2.8284271"
     inkscape:cx="63.035308"
     inkscape:cy="48.65634"
     inkscape:window-x="176"
     inkscape:window-y="176"
     inkscape:current-layer="svg2360" />
  <title
     id="title2362">SVG drawing</title>
  <desc
     id="desc2364">This was produced by version 4.1 of GNU libplot, a free library for exporting 2-D vector graphics.</desc>
  <g
     transform="matrix(5.4158861e-3,0,0,-6.1801047e-3,-9.6948514e-4,1.0010736)"
     xml:space="preserve"
     style="font-style:normal;font-variant:normal;font-weight:normal;font-stretch:normal;letter-spacing:normal;word-spacing:normal;text-anchor:start;fill:none;fill-opacity:1;stroke:#000000;stroke-linecap:butt;stroke-linejoin:miter;stroke-miterlimit:10.43299961;stroke-dasharray:none;stroke-dashoffset:0;stroke-opacity:1"
     id="g2368">
<polygon
   points="46.5,160.5 138.5,160.5 184.5,80.5 138.5,0.5 46.5,0.5 0.5,80.5 46.5,160.5 "
   style="fill:#b46301;fill-rule:nonzero;stroke:#b46301;stroke-width:0;stroke-linejoin:round"
   id="polygon2370" />
<path
   d="M 107.43,9.2969 L 107.44,9.2108 L 107.46,9.127 L 107.48,9.0455 L 107.5,8.9663 L 107.52,8.8895 L 107.55,8.815 L 107.58,8.743 L 107.61,8.6733 L 107.65,8.6062 L 107.68,8.5415 L 107.72,8.4794 L 107.76,8.4199 L 107.81,8.3629 L 107.86,8.3086 L 107.9,8.257 L 107.95,8.208 L 108.01,8.1618 L 108.06,8.1183 L 108.12,8.0776 L 108.18,8.0397 L 108.24,8.0047 L 108.3,7.9725 L 108.37,7.9433 L 108.43,7.917 L 108.5,7.8937 L 108.57,7.8734 L 108.65,7.8561 L 108.72,7.8419 L 108.8,7.8308 L 108.87,7.8228 L 108.95,7.818 L 109.03,7.8164 C 109.66,7.8164 110.22,8.1211 110.55,8.625 C 110.91,9.1758 111.07,9.8711 111.07,10.902 C 111.07,11.856 110.93,12.465 110.59,12.969 C 110.28,13.426 109.79,13.672 109.16,13.672 C 108.08,13.672 107.31,12.871 107.31,11.762 C 107.31,10.703 108.02,9.9609 109.05,9.9609 C 109.59,9.9609 109.98,10.152 110.34,10.594 C 110.34,9.207 109.89,8.4414 109.08,8.4414 C 108.59,8.4414 108.24,8.7539 108.13,9.2969 L 107.43,9.2969 z "
   style="fill:#000000;stroke-width:0;stroke-linecap:round;stroke-linejoin:round"
   id="path2372" />
<path
   d="M 109.15,13.055 L 109.21,13.053 L 109.27,13.048 L 109.33,13.041 L 109.39,13.03 L 109.45,13.016 L 109.5,13 L 109.56,12.98 L 109.61,12.958 L 109.66,12.934 L 109.71,12.906 L 109.76,12.876 L 109.81,12.844 L 109.85,12.809 L 109.89,12.772 L 109.94,12.733 L 109.97,12.691 L 110.01,12.648 L 110.05,12.602 L 110.08,12.554 L 110.11,12.504 L 110.14,12.453 L 110.17,12.399 L 110.19,12.344 L 110.22,12.287 L 110.24,12.228 L 110.25,12.168 L 110.27,12.106 L 110.28,12.043 L 110.29,11.979 L 110.3,11.913 L 110.3,11.846 L 110.31,11.777 C 110.31,11.078 109.82,10.586 109.13,10.586 C 108.45,10.586 108.02,11.055 108.02,11.816 C 108.02,12.535 108.5,13.055 109.15,13.055 z "
   style="fill:#000000;stroke-width:0;stroke-linecap:round;stroke-linejoin:round"
   id="path2374" />
<path
   d="M 111.43,9.2969 L 111.44,9.2108 L 111.46,9.127 L 111.48,9.0455 L 111.5,8.9663 L 111.52,8.8895 L 111.55,8.815 L 111.58,8.743 L 111.61,8.6733 L 111.65,8.6062 L 111.68,8.5415 L 111.72,8.4794 L 111.76,8.4199 L 111.81,8.3629 L 111.86,8.3086 L 111.9,8.257 L 111.95,8.208 L 112.01,8.1618 L 112.06,8.1183 L 112.12,8.0776 L 112.18,8.0397 L 112.24,8.0047 L 112.3,7.9725 L 112.37,7.9433 L 112.43,7.917 L 112.5,7.8937 L 112.57,7.8734 L 112.65,7.8561 L 112.72,7.8419 L 112.8,7.8308 L 112.87,7.8228 L 112.95,7.818 L 113.03,7.8164 C 113.66,7.8164 114.22,8.1211 114.55,8.625 C 114.91,9.1758 115.07,9.8711 115.07,10.902 C 115.07,11.856 114.93,12.465 114.59,12.969 C 114.28,13.426 113.79,13.672 113.16,13.672 C 112.08,13.672 111.31,12.871 111.31,11.762 C 111.31,10.703 112.02,9.9609 113.05,9.9609 C 113.59,9.9609 113.98,10.152 114.34,10.594 C 114.34,9.207 113.89,8.4414 113.08,8.4414 C 112.59,8.4414 112.24,8.7539 112.13,9.2969 L 111.43,9.2969 z "
   style="fill:#000000;stroke-width:0;stroke-linecap:round;stroke-linejoin:round"
   id="path2376" />
<path
   d="M 113.15,13.055 L 113.21,13.053 L 113.27,13.048 L 113.33,13.041 L 113.39,13.03 L 113.45,13.016 L 113.5,13 L 113.56,12.98 L 113.61,12.958 L 113.66,12.934 L 113.71,12.906 L 113.76,12.876 L 113.81,12.844 L 113.85,12.809 L 113.89,12.772 L 113.94,12.733 L 113.97,12.691 L 114.01,12.648 L 114.05,12.602 L 114.08,12.554 L 114.11,12.504 L 114.14,12.453 L 114.17,12.399 L 114.19,12.344 L 114.22,12.287 L 114.24,12.228 L 114.25,12.168 L 114.27,12.106 L 114.28,12.043 L 114.29,11.979 L 114.3,11.913 L 114.3,11.846 L 114.31,11.777 C 114.31,11.078 113.82,10.586 113.13,10.586 C 112.45,10.586 112.02,11.055 112.02,11.816 C 112.02,12.535 112.5,13.055 113.15,13.055 z "
   style="fill:#000000;stroke-width:0;stroke-linecap:round;stroke-linejoin:round"
   id="path2378" />
<path
   d="M 116.43,9.2969 L 116.44,9.2108 L 116.46,9.127 L 116.48,9.0455 L 116.5,8.9663 L 116.52,8.8895 L 116.55,8.815 L 116.58,8.743 L 116.61,8.6733 L 116.65,8.6062 L 116.68,8.5415 L 116.72,8.4794 L 116.76,8.4199 L 116.81,8.3629 L 116.86,8.3086 L 116.9,8.257 L 116.95,8.208 L 117.01,8.1618 L 117.06,8.1183 L 117.12,8.0776 L 117.18,8.0397 L 117.24,8.0047 L 117.3,7.9725 L 117.37,7.9433 L 117.43,7.917 L 117.5,7.8937 L 117.57,7.8734 L 117.65,7.8561 L 117.72,7.8419 L 117.8,7.8308 L 117.87,7.8228 L 117.95,7.818 L 118.03,7.8164 C 118.66,7.8164 119.22,8.1211 119.55,8.625 C 119.91,9.1758 120.07,9.8711 120.07,10.902 C 120.07,11.856 119.93,12.465 119.59,12.969 C 119.28,13.426 118.79,13.672 118.16,13.672 C 117.08,13.672 116.31,12.871 116.31,11.762 C 116.31,10.703 117.02,9.9609 118.05,9.9609 C 118.59,9.9609 118.98,10.152 119.34,10.594 C 119.34,9.207 118.89,8.4414 118.08,8.4414 C 117.59,8.4414 117.24,8.7539 117.13,9.2969 L 116.43,9.2969 z "
   style="fill:#000000;stroke-width:0;stroke-linecap:round;stroke-linejoin:round"
   id="path2380" />
<path
   d="M 118.15,13.055 L 118.21,13.053 L 118.27,13.048 L 118.33,13.041 L 118.39,13.03 L 118.45,13.016 L 118.5,13 L 118.56,12.98 L 118.61,12.958 L 118.66,12.934 L 118.71,12.906 L 118.76,12.876 L 118.81,12.844 L 118.85,12.809 L 118.89,12.772 L 118.94,12.733 L 118.97,12.691 L 119.01,12.648 L 119.05,12.602 L 119.08,12.554 L 119.11,12.504 L 119.14,12.453 L 119.17,12.399 L 119.19,12.344 L 119.22,12.287 L 119.24,12.228 L 119.25,12.168 L 119.27,12.106 L 119.28,12.043 L 119.29,11.979 L 119.3,11.913 L 119.3,11.846 L 119.31,11.777 C 119.31,11.078 118.82,10.586 118.13,10.586 C 117.45,10.586 117.02,11.055 117.02,11.816 C 117.02,12.535 117.5,13.055 118.15,13.055 z "
   style="fill:#000000;stroke-width:0;stroke-linecap:round;stroke-linejoin:round"
   id="path2382" />
<path
   d="M 124.16,13.672 L 120.37,13.672 L 120.37,12.977 L 123.43,12.977 C 122.08,11.047 121.53,9.8633 121.11,8 L 121.86,8 C 122.17,9.8164 122.88,11.375 124.16,13.078 L 124.16,13.672 z "
   style="fill:#000000;stroke-width:0;stroke-linecap:round;stroke-linejoin:round"
   id="path2384" />
<polygon
   points="68.5,56.5 116.5,56.5 116.5,104.5 68.5,104.5 68.5,56.5 "
   style="fill:#ffffff;fill-rule:nonzero;stroke:#ffffff;stroke-width:0;stroke-linejoin:round"
   id="polygon2386" />
<polygon
   points="68.5,56.5 116.5,56.5 116.5,104.5 68.5,104.5 68.5,56.5 "
   style="stroke:#ffffff;stroke-width:6;stroke-linejoin:round"
   id="polygon2388" />
<path
   d="M 92.5,80.5 L 92.469,81.735 L 92.376,82.954 L 92.223,84.155 L 92.012,85.337 L 91.744,86.498 L 91.421,87.637 L 91.044,88.752 L 90.614,89.841 L 90.133,90.905 L 89.603,91.939 L 89.025,92.944 L 88.401,93.918 L 87.732,94.859 L 87.019,95.766 L 86.265,96.637 L 85.47,97.47 L 84.637,98.265 L 83.766,99.019 L 82.859,99.732 L 81.918,100.4 L 80.944,101.03 L 79.939,101.6 L 78.905,102.13 L 77.841,102.61 L 76.752,103.04 L 75.637,103.42 L 74.498,103.74 L 73.337,104.01 L 72.155,104.22 L 70.954,104.38 L 69.735,104.47 L 68.5,104.5 C 55.246,104.5 44.5,93.754 44.5,80.5 C 44.5,67.246 55.246,56.5 68.5,56.5 C 81.754,56.5 92.5,67.246 92.5,80.5 z "
   style="fill:#ffffff;fill-rule:nonzero;stroke:#ffffff;stroke-width:0;stroke-linecap:round;stroke-linejoin:round"
   id="path2390" />
<path
   d="M 92.5,80.5 L 92.469,81.735 L 92.376,82.954 L 92.223,84.155 L 92.012,85.337 L 91.744,86.498 L 91.421,87.637 L 91.044,88.752 L 90.614,89.841 L 90.133,90.905 L 89.603,91.939 L 89.025,92.944 L 88.401,93.918 L 87.732,94.859 L 87.019,95.766 L 86.265,96.637 L 85.47,97.47 L 84.637,98.265 L 83.766,99.019 L 82.859,99.732 L 81.918,100.4 L 80.944,101.03 L 79.939,101.6 L 78.905,102.13 L 77.841,102.61 L 76.752,103.04 L 75.637,103.42 L 74.498,103.74 L 73.337,104.01 L 72.155,104.22 L 70.954,104.38 L 69.735,104.47 L 68.5,104.5 C 55.246,104.5 44.5,93.754 44.5,80.5 C 44.5,67.246 55.246,56.5 68.5,56.5 C 81.754,56.5 92.5,67.246 92.5,80.5 z "
   style="stroke:#ffffff;stroke-width:6;stroke-linecap:round;stroke-linejoin:round"
   id="path2392" />
<path
   d="M 140.5,80.5 L 140.47,81.735 L 140.38,82.954 L 140.22,84.155 L 140.01,85.337 L 139.74,86.498 L 139.42,87.637 L 139.04,88.752 L 138.61,89.841 L 138.13,90.905 L 137.6,91.939 L 137.03,92.944 L 136.4,93.918 L 135.73,94.859 L 135.02,95.766 L 134.26,96.637 L 133.47,97.47 L 132.64,98.265 L 131.77,99.019 L 130.86,99.732 L 129.92,100.4 L 128.94,101.03 L 127.94,101.6 L 126.9,102.13 L 125.84,102.61 L 124.75,103.04 L 123.64,103.42 L 122.5,103.74 L 121.34,104.01 L 120.15,104.22 L 118.95,104.38 L 117.73,104.47 L 116.5,104.5 C 103.25,104.5 92.5,93.754 92.5,80.5 C 92.5,67.246 103.25,56.5 116.5,56.5 C 129.75,56.5 140.5,67.246 140.5,80.5 z "
   style="fill:#ffffff;fill-rule:nonzero;stroke:#ffffff;stroke-width:0;stroke-linecap:round;stroke-linejoin:round"
   id="path2394" />
<path
   d="M 140.5,80.5 L 140.47,81.735 L 140.38,82.954 L 140.22,84.155 L 140.01,85.337 L 139.74,86.498 L 139.42,87.637 L 139.04,88.752 L 138.61,89.841 L 138.13,90.905 L 137.6,91.939 L 137.03,92.944 L 136.4,93.918 L 135.73,94.859 L 135.02,95.766 L 134.26,96.637 L 133.47,97.47 L 132.64,98.265 L 131.77,99.019 L 130.86,99.732 L 129.92,100.4 L 128.94,101.03 L 127.94,101.6 L 126.9,102.13 L 125.84,102.61 L 124.75,103.04 L 123.64,103.42 L 122.5,103.74 L 121.34,104.01 L 120.15,104.22 L 118.95,104.38 L 117.73,104.47 L 116.5,104.5 C 103.25,104.5 92.5,93.754 92.5,80.5 C 92.5,67.246 103.25,56.5 116.5,56.5 C 129.75,56.5 140.5,67.246 140.5,80.5 z "
   style="stroke:#ffffff;stroke-width:6;stroke-linecap:round;stroke-linejoin:round"
   id="path2396" />
<line
   x1="92.5"
   y1="80.5"
   x2="92.5"
   y2="160.5"
   style="stroke:#ffffff;stroke-width:16;stroke-linecap:round"
   id="line2398" />
<line
   x1="92.5"
   y1="80.5"
   x2="23.5"
   y2="40.5"
   style="stroke:#ffffff;stroke-width:16;stroke-linecap:round"
   id="line2400" />
<line
   x1="92.5"
   y1="80.5"
   x2="92.5"
   y2="0.5"
   style="stroke:#ffffff;stroke-width:16;stroke-linecap:round"
   id="line2402" />
<line
   x1="92.5"
   y1="80.5"
   x2="161.5"
   y2="40.5"
   style="stroke:#ffffff;stroke-width:16;stroke-linecap:round"
   id="line2404" />
<line
   x1="92.5"
   y1="80.5"
   x2="161.5"
   y2="40.5"
   style="stroke:#ffffff;stroke-width:16;stroke-linecap:round"
   id="line2406" />
<line
   x1="92.5"
   y1="80.5"
   x2="92.5"
   y2="160.5"
   style="stroke-width:12;stroke-linecap:round"
   id="line2408" />
<line
   x1="92.5"
   y1="80.5"
   x2="23.5"
   y2="40.5"
   style="stroke-width:12;stroke-linecap:round"
   id="line2410" />
<line
   x1="92.5"
   y1="80.5"
   x2="92.5"
   y2="0.5"
   style="stroke-width:12;stroke-linecap:round"
   id="line2412" />
<line
   x1="92.5"
   y1="80.5"
   x2="161.5"
   y2="40.5"
   style="stroke-width:12;stroke-linecap:round"
   id="line2414" />
<line
   x1="92.5"
   y1="80.5"
   x2="161.5"
   y2="40.5"
   style="stroke-width:12;stroke-linecap:round"
   id="line2416" />
<polygon
   points="68.5,56.5 116.5,56.5 116.5,104.5 68.5,104.5 68.5,56.5 "
   style="fill:#ffffff;fill-rule:nonzero;stroke:#ffffff;stroke-width:0;stroke-linejoin:round"
   id="polygon2418" />
<polygon
   points="68.5,56.5 116.5,56.5 116.5,104.5 68.5,104.5 68.5,56.5 "
   style="stroke-width:2;stroke-linejoin:round"
   id="polygon2420" />
<path
   d="M 92.5,80.5 L 92.469,81.735 L 92.376,82.954 L 92.223,84.155 L 92.012,85.337 L 91.744,86.498 L 91.421,87.637 L 91.044,88.752 L 90.614,89.841 L 90.133,90.905 L 89.603,91.939 L 89.025,92.944 L 88.401,93.918 L 87.732,94.859 L 87.019,95.766 L 86.265,96.637 L 85.47,97.47 L 84.637,98.265 L 83.766,99.019 L 82.859,99.732 L 81.918,100.4 L 80.944,101.03 L 79.939,101.6 L 78.905,102.13 L 77.841,102.61 L 76.752,103.04 L 75.637,103.42 L 74.498,103.74 L 73.337,104.01 L 72.155,104.22 L 70.954,104.38 L 69.735,104.47 L 68.5,104.5 C 55.246,104.5 44.5,93.754 44.5,80.5 C 44.5,67.246 55.246,56.5 68.5,56.5 C 81.754,56.5 92.5,67.246 92.5,80.5 z "
   style="fill:#ffffff;fill-rule:nonzero;stroke:#ffffff;stroke-width:0;stroke-linecap:round;stroke-linejoin:round"
   id="path2422" />
<path
   d="M 92.5,80.5 L 92.469,81.735 L 92.376,82.954 L 92.223,84.155 L 92.012,85.337 L 91.744,86.498 L 91.421,87.637 L 91.044,88.752 L 90.614,89.841 L 90.133,90.905 L 89.603,91.939 L 89.025,92.944 L 88.401,93.918 L 87.732,94.859 L 87.019,95.766 L 86.265,96.637 L 85.47,97.47 L 84.637,98.265 L 83.766,99.019 L 82.859,99.732 L 81.918,100.4 L 80.944,101.03 L 79.939,101.6 L 78.905,102.13 L 77.841,102.61 L 76.752,103.04 L 75.637,103.42 L 74.498,103.74 L 73.337,104.01 L 72.155,104.22 L 70.954,104.38 L 69.735,104.47 L 68.5,104.5 C 55.246,104.5 44.5,93.754 44.5,80.5 C 44.5,67.246 55.246,56.5 68.5,56.5 C 81.754,56.5 92.5,67.246 92.5,80.5 z "
   style="stroke-width:2;stroke-linecap:round;stroke-linejoin:round"
   id="path2424" />
<path
   d="M 140.5,80.5 L 140.47,81.735 L 140.38,82.954 L 140.22,84.155 L 140.01,85.337 L 139.74,86.498 L 139.42,87.637 L 139.04,88.752 L 138.61,89.841 L 138.13,90.905 L 137.6,91.939 L 137.03,92.944 L 136.4,93.918 L 135.73,94.859 L 135.02,95.766 L 134.26,96.637 L 133.47,97.47 L 132.64,98.265 L 131.77,99.019 L 130.86,99.732 L 129.92,100.4 L 128.94,101.03 L 127.94,101.6 L 126.9,102.13 L 125.84,102.61 L 124.75,103.04 L 123.64,103.42 L 122.5,103.74 L 121.34,104.01 L 120.15,104.22 L 118.95,104.38 L 117.73,104.47 L 116.5,104.5 C 103.25,104.5 92.5,93.754 92.5,80.5 C 92.5,67.246 103.25,56.5 116.5,56.5 C 129.75,56.5 140.5,67.246 140.5,80.5 z "
   style="fill:#ffffff;fill-rule:nonzero;stroke:#ffffff;stroke-width:0;stroke-linecap:round;stroke-linejoin:round"
   id="path2426" />
<path
   d="M 140.5,80.5 L 140.47,81.735 L 140.38,82.954 L 140.22,84.155 L 140.01,85.337 L 139.74,86.498 L 139.42,87.637 L 139.04,88.752 L 138.61,89.841 L 138.13,90.905 L 137.6,91.939 L 137.03,92.944 L 136.4,93.918 L 135.73,94.859 L 135.02,95.766 L 134.26,96.637 L 133.47,97.47 L 132.64,98.265 L 131.77,99.019 L 130.86,99.732 L 129.92,100.4 L 128.94,101.03 L 127.94,101.6 L 126.9,102.13 L 125.84,102.61 L 124.75,103.04 L 123.64,103.42 L 122.5,103.74 L 121.34,104.01 L 120.15,104.22 L 118.95,104.38 L 117.73,104.47 L 116.5,104.5 C 103.25,104.5 92.5,93.754 92.5,80.5 C 92.5,67.246 103.25,56.5 116.5,56.5 C 129.75,56.5 140.5,67.246 140.5,80.5 z "
   style="stroke-width:2;stroke-linecap:round;stroke-linejoin:round"
   id="path2428" />
<path
   d="M 66.992,140.5 L 66.981,140.71 L 66.948,140.91 L 66.894,141.11 L 66.82,141.31 L 66.725,141.51 L 66.61,141.7 L 66.477,141.89 L 66.324,142.07 L 66.154,142.25 L 65.967,142.42 L 65.762,142.59 L 65.541,142.76 L 65.304,142.92 L 65.052,143.07 L 64.785,143.22 L 64.504,143.36 L 64.209,143.49 L 63.901,143.62 L 63.58,143.74 L 63.247,143.85 L 62.902,143.95 L 62.547,144.05 L 62.181,144.14 L 61.804,144.22 L 61.419,144.29 L 61.024,144.36 L 60.621,144.41 L 60.211,144.46 L 59.793,144.49 L 59.368,144.52 L 58.937,144.53 L 58.5,144.54 C 53.812,144.54 50.008,142.73 50.008,140.5 C 50.008,138.27 53.812,136.46 58.5,136.46 C 63.188,136.46 66.992,138.27 66.992,140.5 z "
   style="fill:#ffffff;fill-rule:nonzero;stroke:#ffffff;stroke-width:0;stroke-linecap:round;stroke-linejoin:round"
   id="path2430" />
<path
   d="M 66.992,140.5 L 66.981,140.71 L 66.948,140.91 L 66.894,141.11 L 66.82,141.31 L 66.725,141.51 L 66.61,141.7 L 66.477,141.89 L 66.324,142.07 L 66.154,142.25 L 65.967,142.42 L 65.762,142.59 L 65.541,142.76 L 65.304,142.92 L 65.052,143.07 L 64.785,143.22 L 64.504,143.36 L 64.209,143.49 L 63.901,143.62 L 63.58,143.74 L 63.247,143.85 L 62.902,143.95 L 62.547,144.05 L 62.181,144.14 L 61.804,144.22 L 61.419,144.29 L 61.024,144.36 L 60.621,144.41 L 60.211,144.46 L 59.793,144.49 L 59.368,144.52 L 58.937,144.53 L 58.5,144.54 C 53.812,144.54 50.008,142.73 50.008,140.5 C 50.008,138.27 53.812,136.46 58.5,136.46 C 63.188,136.46 66.992,138.27 66.992,140.5 z "
   style="stroke-width:0.84906;stroke-linecap:round;stroke-linejoin:round"
   id="path2432" />
<path
   d="M 54.625,141.14 L 54.626,141.15 L 54.628,141.17 L 54.629,141.18 L 54.631,141.2 L 54.632,141.21 L 54.633,141.23 L 54.634,141.24 L 54.635,141.25 L 54.637,141.27 L 54.638,141.28 L 54.639,141.29 L 54.64,141.3 L 54.642,141.32 L 54.644,141.34 L 54.645,141.36 L 54.647,141.38 L 54.649,141.4 L 54.651,141.41 L 54.652,141.43 L 54.654,141.44 L 54.656,141.45 L 54.657,141.46 L 54.659,141.48 L 54.661,141.49 L 54.664,141.51 L 54.668,141.53 L 54.672,141.55 L 54.675,141.56 L 54.677,141.57 L 54.68,141.58 L 54.682,141.59 L 54.685,141.61 L 54.688,141.62 L 54.692,141.63 L 54.695,141.65 C 54.855,142.41 55.328,142.85 55.961,142.85 C 56.191,142.85 56.359,142.8 56.441,142.7 C 56.488,142.64 56.496,142.58 56.512,142.41 C 56.543,142.08 56.816,141.85 57.168,141.85 C 57.527,141.85 57.816,142.13 57.816,142.47 C 57.816,143.07 56.953,143.55 55.887,143.55 C 55.191,143.55 54.594,143.35 54.176,142.98 C 53.594,142.47 53.273,141.62 53.273,140.57 C 53.273,138.84 54.137,137.9 55.719,137.9 C 57.137,137.9 58.07,138.65 58.07,139.79 C 58.07,140.84 57.258,141.59 56.113,141.59 C 55.527,141.59 55.031,141.44 54.625,141.14 z "
   style="fill:#000000;stroke-width:0;stroke-linecap:round;stroke-linejoin:round"
   id="path2434" />
<path
   d="M 55.703,140.82 L 55.755,140.81 L 55.806,140.81 L 55.856,140.81 L 55.904,140.8 L 55.951,140.79 L 55.996,140.77 L 56.04,140.76 L 56.083,140.74 L 56.125,140.72 L 56.164,140.7 L 56.203,140.67 L 56.24,140.65 L 56.275,140.62 L 56.308,140.59 L 56.341,140.56 L 56.371,140.52 L 56.4,140.49 L 56.427,140.45 L 56.453,140.41 L 56.476,140.37 L 56.498,140.32 L 56.518,140.28 L 56.537,140.23 L 56.553,140.18 L 56.568,140.13 L 56.581,140.08 L 56.592,140.03 L 56.601,139.97 L 56.608,139.91 L 56.613,139.86 L 56.616,139.8 L 56.617,139.73 C 56.617,139.04 56.266,138.63 55.664,138.63 C 55.07,138.63 54.727,139.02 54.727,139.7 C 54.727,140.38 55.105,140.82 55.703,140.82 z "
   style="fill:#000000;stroke-width:0;stroke-linecap:round;stroke-linejoin:round"
   id="path2436" />
<path
   d="M 60.711,143.55 L 60.644,143.55 L 60.578,143.55 L 60.513,143.54 L 60.447,143.54 L 60.382,143.53 L 60.318,143.52 L 60.254,143.51 L 60.191,143.5 L 60.128,143.49 L 60.066,143.47 L 60.005,143.46 L 59.945,143.44 L 59.885,143.42 L 59.826,143.4 L 59.767,143.38 L 59.71,143.36 L 59.653,143.33 L 59.598,143.31 L 59.543,143.28 L 59.49,143.25 L 59.437,143.22 L 59.386,143.19 L 59.335,143.15 L 59.286,143.12 L 59.238,143.09 L 59.191,143.05 L 59.146,143.01 L 59.101,142.97 L 59.058,142.93 L 59.017,142.89 L 58.976,142.85 L 58.938,142.8 C 58.504,142.3 58.238,141.51 58.238,140.69 C 58.238,138.97 59.176,137.9 60.672,137.9 C 62.16,137.9 63.113,139 63.113,140.74 C 63.113,142.44 62.16,143.55 60.711,143.55 z "
   style="fill:#000000;stroke-width:0;stroke-linecap:round;stroke-linejoin:round"
   id="path2438" />
<path
   d="M 60.672,142.82 L 60.728,142.81 L 60.783,142.81 L 60.836,142.8 L 60.887,142.78 L 60.937,142.76 L 60.985,142.74 L 61.032,142.71 L 61.077,142.68 L 61.12,142.64 L 61.161,142.6 L 61.201,142.55 L 61.239,142.5 L 61.275,142.45 L 61.309,142.39 L 61.342,142.33 L 61.373,142.27 L 61.402,142.2 L 61.43,142.13 L 61.455,142.05 L 61.479,141.97 L 61.501,141.89 L 61.521,141.8 L 61.539,141.71 L 61.555,141.61 L 61.57,141.51 L 61.582,141.41 L 61.593,141.3 L 61.602,141.19 L 61.608,141.08 L 61.613,140.96 L 61.616,140.84 L 61.617,140.72 C 61.617,139.38 61.281,138.63 60.672,138.63 C 60.062,138.63 59.734,139.38 59.734,140.75 C 59.734,142.06 60.078,142.82 60.672,142.82 z "
   style="fill:#000000;stroke-width:0;stroke-linecap:round;stroke-linejoin:round"
   id="path2440" />
<path
   d="M 14.312,75 L 19.559,75 C 20.902,75 21.801,75.258 22.504,75.848 C 23.207,76.441 23.656,77.434 23.656,78.359 C 23.656,79.512 23.031,80.426 21.719,81.191 C 22.871,81.93 23.32,82.602 23.32,83.594 C 23.32,84.391 22.922,85.238 22.266,85.816 C 21.574,86.406 20.762,86.664 19.512,86.664 L 14.312,86.664 L 14.312,75 z "
   style="fill:#000000;stroke-width:0;stroke-linecap:round;stroke-linejoin:round"
   id="path2442" />
<path
   d="M 16.711,84.664 L 19.32,84.664 C 20.426,84.664 21.016,84.199 21.016,83.336 C 21.016,82.488 20.426,82.023 19.32,82.023 L 16.711,82.023 L 16.711,84.664 z "
   style="fill:#000000;stroke-width:0;stroke-linecap:round;stroke-linejoin:round"
   id="path2444" />
<path
   d="M 16.711,80.023 L 19.574,80.023 C 20.742,80.023 21.352,79.496 21.352,78.504 C 21.352,77.527 20.742,77 19.574,77 L 16.711,77 L 16.711,80.023 z "
   style="fill:#000000;stroke-width:0;stroke-linecap:round;stroke-linejoin:round"
   id="path2446" />
<polygon
   points="33.527,79.656 30.617,79.656 30.617,82.566 28.711,82.566 28.711,79.656 25.801,79.656 25.801,77.754 28.711,77.754 28.711,74.84 30.617,74.84 30.617,77.754 33.527,77.754 33.527,79.656 "
   style="fill:#000000;stroke-width:0;stroke-linejoin:round"
   id="polygon2448" />
<polygon
   points="46.5,160.5 138.5,160.5 184.5,80.5 138.5,0.5 46.5,0.5 0.5,80.5 46.5,160.5 "
   style="stroke-width:1;stroke-linejoin:round"
   id="polygon2450" />
</g></svg>
