<?xml version="1.0" encoding="UTF-8" standalone="no"?>
<svg
   xmlns:dc="http://purl.org/dc/elements/1.1/"
   xmlns:cc="http://web.resource.org/cc/"
   xmlns:rdf="http://www.w3.org/1999/02/22-rdf-syntax-ns#"
   xmlns:svg="http://www.w3.org/2000/svg"
   xmlns="http://www.w3.org/2000/svg"
   xmlns:sodipodi="http://inkscape.sourceforge.net/DTD/sodipodi-0.dtd"
   xmlns:inkscape="http://www.inkscape.org/namespaces/inkscape"
   width="100"
   height="100"
   viewBox="0 0 1 1"
   preserveAspectRatio="none"
   id="svg11892"
   sodipodi:version="0.32"
   inkscape:version="0.43"
   sodipodi:docname="tile432.svg"
   sodipodi:docbase="C:\Documents and Settings\lentz\Desktop\TileDesigner"
   version="1.0">
  <metadata
     id="metadata11999">
    <rdf:RDF>
      <cc:Work
         rdf:about="">
        <dc:format>image/svg+xml</dc:format>
        <dc:type
           rdf:resource="http://purl.org/dc/dcmitype/StillImage" />
      </cc:Work>
    </rdf:RDF>
  </metadata>
  <defs
     id="defs11997" />
  <sodipodi:namedview
     inkscape:window-height="540"
     inkscape:window-width="749"
     inkscape:pageshadow="2"
     inkscape:pageopacity="0.0"
     borderopacity="1.0"
     bordercolor="#666666"
     pagecolor="#ffffff"
     id="base"
     inkscape:zoom="0.52361111"
     inkscape:cx="360"
     inkscape:cy="360"
     inkscape:window-x="110"
     inkscape:window-y="110"
     inkscape:current-layer="svg11892" />
  <title
     id="title11894">SVG drawing</title>
  <desc
     id="desc11896">This was produced by version 4.1 of GNU libplot, a free library for exporting 2-D vector graphics.</desc>
  <g
     transform="matrix(5.418114e-3,0,0,-5.333139e-3,-1.175565e-3,0.939964)"
     xml:space="preserve"
     style="font-style:normal;font-variant:normal;font-weight:normal;font-stretch:normal;letter-spacing:normal;word-spacing:normal;text-anchor:start;fill:none;fill-opacity:1;stroke:#000000;stroke-linecap:butt;stroke-linejoin:miter;stroke-miterlimit:10.43299961;stroke-dasharray:none;stroke-dashoffset:0;stroke-opacity:1"
     id="g11900">
<polygon
   points="46.5,160.5 138.5,160.5 184.5,80.5 138.5,0.5 46.5,0.5 0.5,80.5 46.5,160.5 "
   style="fill:#b46301;fill-rule:nonzero;stroke:#b46301;stroke-width:0;stroke-linejoin:round"
   id="polygon11902" />
<text
   transform="matrix(1,0,0,-1,109.2,7.9141)"
   style="font-size:8px;fill:#000000;stroke:none;font-family:&quot;Helvetica&quot;, sans-serif"
   id="text11904">432</text>

<polygon
   points="85.5,104.5 109.5,62.5 151.5,86.5 127.5,128.5 85.5,104.5 "
   style="fill:#ffffff;fill-rule:nonzero;stroke:#ffffff;stroke-width:0;stroke-linejoin:round"
   id="polygon11906" />
<polygon
   points="85.5,104.5 109.5,62.5 151.5,86.5 127.5,128.5 85.5,104.5 "
   style="stroke:#ffffff;stroke-width:6;stroke-linejoin:round"
   id="polygon11908" />
<path
   d="M 130.5,116.5 L 130.47,117.73 L 130.38,118.95 L 130.22,120.15 L 130.01,121.34 L 129.74,122.5 L 129.42,123.64 L 129.04,124.75 L 128.61,125.84 L 128.13,126.9 L 127.6,127.94 L 127.03,128.94 L 126.4,129.92 L 125.73,130.86 L 125.02,131.77 L 124.26,132.64 L 123.47,133.47 L 122.64,134.26 L 121.77,135.02 L 120.86,135.73 L 119.92,136.4 L 118.94,137.03 L 117.94,137.6 L 116.9,138.13 L 115.84,138.61 L 114.75,139.04 L 113.64,139.42 L 112.5,139.74 L 111.34,140.01 L 110.15,140.22 L 108.95,140.38 L 107.73,140.47 L 106.5,140.5 C 93.246,140.5 82.5,129.75 82.5,116.5 C 82.5,103.25 93.246,92.5 106.5,92.5 C 119.75,92.5 130.5,103.25 130.5,116.5 z "
   style="fill:#ffffff;fill-rule:nonzero;stroke:#ffffff;stroke-width:0;stroke-linecap:round;stroke-linejoin:round"
   id="path11910" />
<path
   d="M 130.5,116.5 L 130.47,117.73 L 130.38,118.95 L 130.22,120.15 L 130.01,121.34 L 129.74,122.5 L 129.42,123.64 L 129.04,124.75 L 128.61,125.84 L 128.13,126.9 L 127.6,127.94 L 127.03,128.94 L 126.4,129.92 L 125.73,130.86 L 125.02,131.77 L 124.26,132.64 L 123.47,133.47 L 122.64,134.26 L 121.77,135.02 L 120.86,135.73 L 119.92,136.4 L 118.94,137.03 L 117.94,137.6 L 116.9,138.13 L 115.84,138.61 L 114.75,139.04 L 113.64,139.42 L 112.5,139.74 L 111.34,140.01 L 110.15,140.22 L 108.95,140.38 L 107.73,140.47 L 106.5,140.5 C 93.246,140.5 82.5,129.75 82.5,116.5 C 82.5,103.25 93.246,92.5 106.5,92.5 C 119.75,92.5 130.5,103.25 130.5,116.5 z "
   style="stroke:#ffffff;stroke-width:6;stroke-linecap:round;stroke-linejoin:round"
   id="path11912" />
<path
   d="M 154.5,74.5 L 154.47,75.735 L 154.38,76.954 L 154.22,78.155 L 154.01,79.337 L 153.74,80.498 L 153.42,81.637 L 153.04,82.752 L 152.61,83.841 L 152.13,84.905 L 151.6,85.939 L 151.03,86.944 L 150.4,87.918 L 149.73,88.859 L 149.02,89.766 L 148.26,90.637 L 147.47,91.47 L 146.64,92.265 L 145.77,93.019 L 144.86,93.732 L 143.92,94.401 L 142.94,95.025 L 141.94,95.603 L 140.9,96.133 L 139.84,96.614 L 138.75,97.044 L 137.64,97.421 L 136.5,97.744 L 135.34,98.012 L 134.15,98.223 L 132.95,98.376 L 131.73,98.469 L 130.5,98.5 C 117.25,98.5 106.5,87.754 106.5,74.5 C 106.5,61.246 117.25,50.5 130.5,50.5 C 143.75,50.5 154.5,61.246 154.5,74.5 z "
   style="fill:#ffffff;fill-rule:nonzero;stroke:#ffffff;stroke-width:0;stroke-linecap:round;stroke-linejoin:round"
   id="path11914" />
<path
   d="M 154.5,74.5 L 154.47,75.735 L 154.38,76.954 L 154.22,78.155 L 154.01,79.337 L 153.74,80.498 L 153.42,81.637 L 153.04,82.752 L 152.61,83.841 L 152.13,84.905 L 151.6,85.939 L 151.03,86.944 L 150.4,87.918 L 149.73,88.859 L 149.02,89.766 L 148.26,90.637 L 147.47,91.47 L 146.64,92.265 L 145.77,93.019 L 144.86,93.732 L 143.92,94.401 L 142.94,95.025 L 141.94,95.603 L 140.9,96.133 L 139.84,96.614 L 138.75,97.044 L 137.64,97.421 L 136.5,97.744 L 135.34,98.012 L 134.15,98.223 L 132.95,98.376 L 131.73,98.469 L 130.5,98.5 C 117.25,98.5 106.5,87.754 106.5,74.5 C 106.5,61.246 117.25,50.5 130.5,50.5 C 143.75,50.5 154.5,61.246 154.5,74.5 z "
   style="stroke:#ffffff;stroke-width:6;stroke-linecap:round;stroke-linejoin:round"
   id="path11916" />
<polygon
   points="99.5,56.5 75.5,98.5 33.5,74.5 57.5,32.5 99.5,56.5 "
   style="fill:#ffffff;fill-rule:nonzero;stroke:#ffffff;stroke-width:0;stroke-linejoin:round"
   id="polygon11918" />
<polygon
   points="99.5,56.5 75.5,98.5 33.5,74.5 57.5,32.5 99.5,56.5 "
   style="stroke:#ffffff;stroke-width:6;stroke-linejoin:round"
   id="polygon11920" />
<path
   d="M 102.5,44.5 L 102.47,45.735 L 102.38,46.954 L 102.22,48.155 L 102.01,49.337 L 101.74,50.498 L 101.42,51.637 L 101.04,52.752 L 100.61,53.841 L 100.13,54.905 L 99.603,55.939 L 99.025,56.944 L 98.401,57.918 L 97.732,58.859 L 97.019,59.766 L 96.265,60.637 L 95.47,61.47 L 94.637,62.265 L 93.766,63.019 L 92.859,63.732 L 91.918,64.401 L 90.944,65.025 L 89.939,65.603 L 88.905,66.133 L 87.841,66.614 L 86.752,67.044 L 85.637,67.421 L 84.498,67.744 L 83.337,68.012 L 82.155,68.223 L 80.954,68.376 L 79.735,68.469 L 78.5,68.5 C 65.246,68.5 54.5,57.754 54.5,44.5 C 54.5,31.246 65.246,20.5 78.5,20.5 C 91.754,20.5 102.5,31.246 102.5,44.5 z "
   style="fill:#ffffff;fill-rule:nonzero;stroke:#ffffff;stroke-width:0;stroke-linecap:round;stroke-linejoin:round"
   id="path11922" />
<path
   d="M 102.5,44.5 L 102.47,45.735 L 102.38,46.954 L 102.22,48.155 L 102.01,49.337 L 101.74,50.498 L 101.42,51.637 L 101.04,52.752 L 100.61,53.841 L 100.13,54.905 L 99.603,55.939 L 99.025,56.944 L 98.401,57.918 L 97.732,58.859 L 97.019,59.766 L 96.265,60.637 L 95.47,61.47 L 94.637,62.265 L 93.766,63.019 L 92.859,63.732 L 91.918,64.401 L 90.944,65.025 L 89.939,65.603 L 88.905,66.133 L 87.841,66.614 L 86.752,67.044 L 85.637,67.421 L 84.498,67.744 L 83.337,68.012 L 82.155,68.223 L 80.954,68.376 L 79.735,68.469 L 78.5,68.5 C 65.246,68.5 54.5,57.754 54.5,44.5 C 54.5,31.246 65.246,20.5 78.5,20.5 C 91.754,20.5 102.5,31.246 102.5,44.5 z "
   style="stroke:#ffffff;stroke-width:6;stroke-linecap:round;stroke-linejoin:round"
   id="path11924" />
<path
   d="M 78.5,86.5 L 78.469,87.735 L 78.376,88.954 L 78.223,90.155 L 78.012,91.337 L 77.744,92.498 L 77.421,93.637 L 77.044,94.752 L 76.614,95.841 L 76.133,96.905 L 75.603,97.939 L 75.025,98.944 L 74.401,99.918 L 73.732,100.86 L 73.019,101.77 L 72.265,102.64 L 71.47,103.47 L 70.637,104.26 L 69.766,105.02 L 68.859,105.73 L 67.918,106.4 L 66.944,107.03 L 65.939,107.6 L 64.905,108.13 L 63.841,108.61 L 62.752,109.04 L 61.637,109.42 L 60.498,109.74 L 59.337,110.01 L 58.155,110.22 L 56.954,110.38 L 55.735,110.47 L 54.5,110.5 C 41.246,110.5 30.5,99.754 30.5,86.5 C 30.5,73.246 41.246,62.5 54.5,62.5 C 67.754,62.5 78.5,73.246 78.5,86.5 z "
   style="fill:#ffffff;fill-rule:nonzero;stroke:#ffffff;stroke-width:0;stroke-linecap:round;stroke-linejoin:round"
   id="path11926" />
<path
   d="M 78.5,86.5 L 78.469,87.735 L 78.376,88.954 L 78.223,90.155 L 78.012,91.337 L 77.744,92.498 L 77.421,93.637 L 77.044,94.752 L 76.614,95.841 L 76.133,96.905 L 75.603,97.939 L 75.025,98.944 L 74.401,99.918 L 73.732,100.86 L 73.019,101.77 L 72.265,102.64 L 71.47,103.47 L 70.637,104.26 L 69.766,105.02 L 68.859,105.73 L 67.918,106.4 L 66.944,107.03 L 65.939,107.6 L 64.905,108.13 L 63.841,108.61 L 62.752,109.04 L 61.637,109.42 L 60.498,109.74 L 59.337,110.01 L 58.155,110.22 L 56.954,110.38 L 55.735,110.47 L 54.5,110.5 C 41.246,110.5 30.5,99.754 30.5,86.5 C 30.5,73.246 41.246,62.5 54.5,62.5 C 67.754,62.5 78.5,73.246 78.5,86.5 z "
   style="stroke:#ffffff;stroke-width:6;stroke-linecap:round;stroke-linejoin:round"
   id="path11928" />
<line
   x1="111.5"
   y1="91.5"
   x2="73.5"
   y2="69.5"
   style="stroke:#ffffff;stroke-width:16;stroke-linecap:round"
   id="line11930" />
<path
   d="M 92.5,160.5 L 92.5,160.5 C 92.5,136.19 98.926,112.31 111.12,91.281"
   style="stroke:#ffffff;stroke-width:16;stroke-linecap:round;stroke-linejoin:round"
   id="path11932" />
<line
   x1="111.5"
   y1="91.5"
   x2="161.5"
   y2="120.5"
   style="stroke:#ffffff;stroke-width:16;stroke-linecap:round"
   id="line11934" />
<path
   d="M 111.5,91.5 L 111.12,91.273 C 123.27,70.324 140.72,52.938 161.71,40.867"
   style="stroke:#ffffff;stroke-width:16;stroke-linecap:round;stroke-linejoin:round"
   id="path11936" />
<path
   d="M 92.5,0.5 L 92.5,0.5 C 92.5,24.809 86.074,48.691 73.883,69.719"
   style="stroke:#ffffff;stroke-width:16;stroke-linecap:round;stroke-linejoin:round"
   id="path11938" />
<line
   x1="73.5"
   y1="69.5"
   x2="23.5"
   y2="40.5"
   style="stroke:#ffffff;stroke-width:16;stroke-linecap:round"
   id="line11940" />
<path
   d="M 73.5,69.5 L 73.883,69.719 C 61.738,90.668 44.289,108.06 23.297,120.13"
   style="stroke:#ffffff;stroke-width:16;stroke-linecap:round;stroke-linejoin:round"
   id="path11942" />
<line
   x1="111.5"
   y1="91.5"
   x2="73.5"
   y2="69.5"
   style="stroke-width:12;stroke-linecap:round"
   id="line11944" />
<path
   d="M 92.5,160.5 L 92.5,160.5 C 92.5,136.19 98.926,112.31 111.12,91.281"
   style="stroke-width:12;stroke-linecap:round;stroke-linejoin:round"
   id="path11946" />
<line
   x1="111.5"
   y1="91.5"
   x2="161.5"
   y2="120.5"
   style="stroke-width:12;stroke-linecap:round"
   id="line11948" />
<path
   d="M 111.5,91.5 L 111.12,91.273 C 123.27,70.324 140.72,52.938 161.71,40.867"
   style="stroke-width:12;stroke-linecap:round;stroke-linejoin:round"
   id="path11950" />
<path
   d="M 92.5,0.5 L 92.5,0.5 C 92.5,24.809 86.074,48.691 73.883,69.719"
   style="stroke-width:12;stroke-linecap:round;stroke-linejoin:round"
   id="path11952" />
<line
   x1="73.5"
   y1="69.5"
   x2="23.5"
   y2="40.5"
   style="stroke-width:12;stroke-linecap:round"
   id="line11954" />
<path
   d="M 73.5,69.5 L 73.883,69.719 C 61.738,90.668 44.289,108.06 23.297,120.13"
   style="stroke-width:12;stroke-linecap:round;stroke-linejoin:round"
   id="path11956" />
<polygon
   points="85.5,104.5 109.5,62.5 151.5,86.5 127.5,128.5 85.5,104.5 "
   style="fill:#ffffff;fill-rule:nonzero;stroke:#ffffff;stroke-width:0;stroke-linejoin:round"
   id="polygon11958" />
<polygon
   points="85.5,104.5 109.5,62.5 151.5,86.5 127.5,128.5 85.5,104.5 "
   style="stroke-width:2;stroke-linejoin:round"
   id="polygon11960" />
<path
   d="M 130.5,116.5 L 130.47,117.73 L 130.38,118.95 L 130.22,120.15 L 130.01,121.34 L 129.74,122.5 L 129.42,123.64 L 129.04,124.75 L 128.61,125.84 L 128.13,126.9 L 127.6,127.94 L 127.03,128.94 L 126.4,129.92 L 125.73,130.86 L 125.02,131.77 L 124.26,132.64 L 123.47,133.47 L 122.64,134.26 L 121.77,135.02 L 120.86,135.73 L 119.92,136.4 L 118.94,137.03 L 117.94,137.6 L 116.9,138.13 L 115.84,138.61 L 114.75,139.04 L 113.64,139.42 L 112.5,139.74 L 111.34,140.01 L 110.15,140.22 L 108.95,140.38 L 107.73,140.47 L 106.5,140.5 C 93.246,140.5 82.5,129.75 82.5,116.5 C 82.5,103.25 93.246,92.5 106.5,92.5 C 119.75,92.5 130.5,103.25 130.5,116.5 z "
   style="fill:#ffffff;fill-rule:nonzero;stroke:#ffffff;stroke-width:0;stroke-linecap:round;stroke-linejoin:round"
   id="path11962" />
<path
   d="M 130.5,116.5 L 130.47,117.73 L 130.38,118.95 L 130.22,120.15 L 130.01,121.34 L 129.74,122.5 L 129.42,123.64 L 129.04,124.75 L 128.61,125.84 L 128.13,126.9 L 127.6,127.94 L 127.03,128.94 L 126.4,129.92 L 125.73,130.86 L 125.02,131.77 L 124.26,132.64 L 123.47,133.47 L 122.64,134.26 L 121.77,135.02 L 120.86,135.73 L 119.92,136.4 L 118.94,137.03 L 117.94,137.6 L 116.9,138.13 L 115.84,138.61 L 114.75,139.04 L 113.64,139.42 L 112.5,139.74 L 111.34,140.01 L 110.15,140.22 L 108.95,140.38 L 107.73,140.47 L 106.5,140.5 C 93.246,140.5 82.5,129.75 82.5,116.5 C 82.5,103.25 93.246,92.5 106.5,92.5 C 119.75,92.5 130.5,103.25 130.5,116.5 z "
   style="stroke-width:2;stroke-linecap:round;stroke-linejoin:round"
   id="path11964" />
<path
   d="M 154.5,74.5 L 154.47,75.735 L 154.38,76.954 L 154.22,78.155 L 154.01,79.337 L 153.74,80.498 L 153.42,81.637 L 153.04,82.752 L 152.61,83.841 L 152.13,84.905 L 151.6,85.939 L 151.03,86.944 L 150.4,87.918 L 149.73,88.859 L 149.02,89.766 L 148.26,90.637 L 147.47,91.47 L 146.64,92.265 L 145.77,93.019 L 144.86,93.732 L 143.92,94.401 L 142.94,95.025 L 141.94,95.603 L 140.9,96.133 L 139.84,96.614 L 138.75,97.044 L 137.64,97.421 L 136.5,97.744 L 135.34,98.012 L 134.15,98.223 L 132.95,98.376 L 131.73,98.469 L 130.5,98.5 C 117.25,98.5 106.5,87.754 106.5,74.5 C 106.5,61.246 117.25,50.5 130.5,50.5 C 143.75,50.5 154.5,61.246 154.5,74.5 z "
   style="fill:#ffffff;fill-rule:nonzero;stroke:#ffffff;stroke-width:0;stroke-linecap:round;stroke-linejoin:round"
   id="path11966" />
<path
   d="M 154.5,74.5 L 154.47,75.735 L 154.38,76.954 L 154.22,78.155 L 154.01,79.337 L 153.74,80.498 L 153.42,81.637 L 153.04,82.752 L 152.61,83.841 L 152.13,84.905 L 151.6,85.939 L 151.03,86.944 L 150.4,87.918 L 149.73,88.859 L 149.02,89.766 L 148.26,90.637 L 147.47,91.47 L 146.64,92.265 L 145.77,93.019 L 144.86,93.732 L 143.92,94.401 L 142.94,95.025 L 141.94,95.603 L 140.9,96.133 L 139.84,96.614 L 138.75,97.044 L 137.64,97.421 L 136.5,97.744 L 135.34,98.012 L 134.15,98.223 L 132.95,98.376 L 131.73,98.469 L 130.5,98.5 C 117.25,98.5 106.5,87.754 106.5,74.5 C 106.5,61.246 117.25,50.5 130.5,50.5 C 143.75,50.5 154.5,61.246 154.5,74.5 z "
   style="stroke-width:2;stroke-linecap:round;stroke-linejoin:round"
   id="path11968" />
<path
   d="M 66.992,140.5 L 66.981,140.71 L 66.948,140.91 L 66.894,141.11 L 66.82,141.31 L 66.725,141.51 L 66.61,141.7 L 66.477,141.89 L 66.324,142.07 L 66.154,142.25 L 65.967,142.42 L 65.762,142.59 L 65.541,142.76 L 65.304,142.92 L 65.052,143.07 L 64.785,143.22 L 64.504,143.36 L 64.209,143.49 L 63.901,143.62 L 63.58,143.74 L 63.247,143.85 L 62.902,143.95 L 62.547,144.05 L 62.181,144.14 L 61.804,144.22 L 61.419,144.29 L 61.024,144.36 L 60.621,144.41 L 60.211,144.46 L 59.793,144.49 L 59.368,144.52 L 58.937,144.53 L 58.5,144.54 C 53.812,144.54 50.008,142.73 50.008,140.5 C 50.008,138.27 53.812,136.46 58.5,136.46 C 63.188,136.46 66.992,138.27 66.992,140.5 z "
   style="fill:#ffffff;fill-rule:nonzero;stroke:#ffffff;stroke-width:0;stroke-linecap:round;stroke-linejoin:round"
   id="path11970" />
<path
   d="M 66.992,140.5 L 66.981,140.71 L 66.948,140.91 L 66.894,141.11 L 66.82,141.31 L 66.725,141.51 L 66.61,141.7 L 66.477,141.89 L 66.324,142.07 L 66.154,142.25 L 65.967,142.42 L 65.762,142.59 L 65.541,142.76 L 65.304,142.92 L 65.052,143.07 L 64.785,143.22 L 64.504,143.36 L 64.209,143.49 L 63.901,143.62 L 63.58,143.74 L 63.247,143.85 L 62.902,143.95 L 62.547,144.05 L 62.181,144.14 L 61.804,144.22 L 61.419,144.29 L 61.024,144.36 L 60.621,144.41 L 60.211,144.46 L 59.793,144.49 L 59.368,144.52 L 58.937,144.53 L 58.5,144.54 C 53.812,144.54 50.008,142.73 50.008,140.5 C 50.008,138.27 53.812,136.46 58.5,136.46 C 63.188,136.46 66.992,138.27 66.992,140.5 z "
   style="stroke-width:0.84906;stroke-linecap:round;stroke-linejoin:round"
   id="path11972" />
<text
   transform="matrix(1,0,0,-1,53.191,137.98)"
   style="font-size:8px;fill:#000000;stroke:none;font-family:&quot;Helvetica&quot;, sans-serif"
   id="text11974">40</text>

<polygon
   points="99.5,56.5 75.5,98.5 33.5,74.5 57.5,32.5 99.5,56.5 "
   style="fill:#ffffff;fill-rule:nonzero;stroke:#ffffff;stroke-width:0;stroke-linejoin:round"
   id="polygon11976" />
<polygon
   points="99.5,56.5 75.5,98.5 33.5,74.5 57.5,32.5 99.5,56.5 "
   style="stroke-width:2;stroke-linejoin:round"
   id="polygon11978" />
<path
   d="M 102.5,44.5 L 102.47,45.735 L 102.38,46.954 L 102.22,48.155 L 102.01,49.337 L 101.74,50.498 L 101.42,51.637 L 101.04,52.752 L 100.61,53.841 L 100.13,54.905 L 99.603,55.939 L 99.025,56.944 L 98.401,57.918 L 97.732,58.859 L 97.019,59.766 L 96.265,60.637 L 95.47,61.47 L 94.637,62.265 L 93.766,63.019 L 92.859,63.732 L 91.918,64.401 L 90.944,65.025 L 89.939,65.603 L 88.905,66.133 L 87.841,66.614 L 86.752,67.044 L 85.637,67.421 L 84.498,67.744 L 83.337,68.012 L 82.155,68.223 L 80.954,68.376 L 79.735,68.469 L 78.5,68.5 C 65.246,68.5 54.5,57.754 54.5,44.5 C 54.5,31.246 65.246,20.5 78.5,20.5 C 91.754,20.5 102.5,31.246 102.5,44.5 z "
   style="fill:#ffffff;fill-rule:nonzero;stroke:#ffffff;stroke-width:0;stroke-linecap:round;stroke-linejoin:round"
   id="path11980" />
<path
   d="M 102.5,44.5 L 102.47,45.735 L 102.38,46.954 L 102.22,48.155 L 102.01,49.337 L 101.74,50.498 L 101.42,51.637 L 101.04,52.752 L 100.61,53.841 L 100.13,54.905 L 99.603,55.939 L 99.025,56.944 L 98.401,57.918 L 97.732,58.859 L 97.019,59.766 L 96.265,60.637 L 95.47,61.47 L 94.637,62.265 L 93.766,63.019 L 92.859,63.732 L 91.918,64.401 L 90.944,65.025 L 89.939,65.603 L 88.905,66.133 L 87.841,66.614 L 86.752,67.044 L 85.637,67.421 L 84.498,67.744 L 83.337,68.012 L 82.155,68.223 L 80.954,68.376 L 79.735,68.469 L 78.5,68.5 C 65.246,68.5 54.5,57.754 54.5,44.5 C 54.5,31.246 65.246,20.5 78.5,20.5 C 91.754,20.5 102.5,31.246 102.5,44.5 z "
   style="stroke-width:2;stroke-linecap:round;stroke-linejoin:round"
   id="path11982" />
<path
   d="M 78.5,86.5 L 78.469,87.735 L 78.376,88.954 L 78.223,90.155 L 78.012,91.337 L 77.744,92.498 L 77.421,93.637 L 77.044,94.752 L 76.614,95.841 L 76.133,96.905 L 75.603,97.939 L 75.025,98.944 L 74.401,99.918 L 73.732,100.86 L 73.019,101.77 L 72.265,102.64 L 71.47,103.47 L 70.637,104.26 L 69.766,105.02 L 68.859,105.73 L 67.918,106.4 L 66.944,107.03 L 65.939,107.6 L 64.905,108.13 L 63.841,108.61 L 62.752,109.04 L 61.637,109.42 L 60.498,109.74 L 59.337,110.01 L 58.155,110.22 L 56.954,110.38 L 55.735,110.47 L 54.5,110.5 C 41.246,110.5 30.5,99.754 30.5,86.5 C 30.5,73.246 41.246,62.5 54.5,62.5 C 67.754,62.5 78.5,73.246 78.5,86.5 z "
   style="fill:#ffffff;fill-rule:nonzero;stroke:#ffffff;stroke-width:0;stroke-linecap:round;stroke-linejoin:round"
   id="path11984" />
<path
   d="M 78.5,86.5 L 78.469,87.735 L 78.376,88.954 L 78.223,90.155 L 78.012,91.337 L 77.744,92.498 L 77.421,93.637 L 77.044,94.752 L 76.614,95.841 L 76.133,96.905 L 75.603,97.939 L 75.025,98.944 L 74.401,99.918 L 73.732,100.86 L 73.019,101.77 L 72.265,102.64 L 71.47,103.47 L 70.637,104.26 L 69.766,105.02 L 68.859,105.73 L 67.918,106.4 L 66.944,107.03 L 65.939,107.6 L 64.905,108.13 L 63.841,108.61 L 62.752,109.04 L 61.637,109.42 L 60.498,109.74 L 59.337,110.01 L 58.155,110.22 L 56.954,110.38 L 55.735,110.47 L 54.5,110.5 C 41.246,110.5 30.5,99.754 30.5,86.5 C 30.5,73.246 41.246,62.5 54.5,62.5 C 67.754,62.5 78.5,73.246 78.5,86.5 z "
   style="stroke-width:2;stroke-linecap:round;stroke-linejoin:round"
   id="path11986" />
<path
   d="M 66.992,140.5 L 66.981,140.71 L 66.948,140.91 L 66.894,141.11 L 66.82,141.31 L 66.725,141.51 L 66.61,141.7 L 66.477,141.89 L 66.324,142.07 L 66.154,142.25 L 65.967,142.42 L 65.762,142.59 L 65.541,142.76 L 65.304,142.92 L 65.052,143.07 L 64.785,143.22 L 64.504,143.36 L 64.209,143.49 L 63.901,143.62 L 63.58,143.74 L 63.247,143.85 L 62.902,143.95 L 62.547,144.05 L 62.181,144.14 L 61.804,144.22 L 61.419,144.29 L 61.024,144.36 L 60.621,144.41 L 60.211,144.46 L 59.793,144.49 L 59.368,144.52 L 58.937,144.53 L 58.5,144.54 C 53.812,144.54 50.008,142.73 50.008,140.5 C 50.008,138.27 53.812,136.46 58.5,136.46 C 63.188,136.46 66.992,138.27 66.992,140.5 z "
   style="fill:#ffffff;fill-rule:nonzero;stroke:#ffffff;stroke-width:0;stroke-linecap:round;stroke-linejoin:round"
   id="path11988" />
<path
   d="M 66.992,140.5 L 66.981,140.71 L 66.948,140.91 L 66.894,141.11 L 66.82,141.31 L 66.725,141.51 L 66.61,141.7 L 66.477,141.89 L 66.324,142.07 L 66.154,142.25 L 65.967,142.42 L 65.762,142.59 L 65.541,142.76 L 65.304,142.92 L 65.052,143.07 L 64.785,143.22 L 64.504,143.36 L 64.209,143.49 L 63.901,143.62 L 63.58,143.74 L 63.247,143.85 L 62.902,143.95 L 62.547,144.05 L 62.181,144.14 L 61.804,144.22 L 61.419,144.29 L 61.024,144.36 L 60.621,144.41 L 60.211,144.46 L 59.793,144.49 L 59.368,144.52 L 58.937,144.53 L 58.5,144.54 C 53.812,144.54 50.008,142.73 50.008,140.5 C 50.008,138.27 53.812,136.46 58.5,136.46 C 63.188,136.46 66.992,138.27 66.992,140.5 z "
   style="stroke-width:0.84906;stroke-linecap:round;stroke-linejoin:round"
   id="path11990" />
<text
   transform="matrix(1,0,0,-1,53.191,137.98)"
   style="font-size:8px;fill:#000000;stroke:none;font-family:&quot;Helvetica&quot;, sans-serif"
   id="text11992">40</text>

<polygon
   points="46.5,160.5 138.5,160.5 184.5,80.5 138.5,0.5 46.5,0.5 0.5,80.5 46.5,160.5 "
   style="stroke-width:1;stroke-linejoin:round"
   id="polygon11994" />
</g></svg>
