<?xml version="1.0" encoding="UTF-8" standalone="no"?>
<svg
   xmlns:dc="http://purl.org/dc/elements/1.1/"
   xmlns:cc="http://web.resource.org/cc/"
   xmlns:rdf="http://www.w3.org/1999/02/22-rdf-syntax-ns#"
   xmlns:svg="http://www.w3.org/2000/svg"
   xmlns="http://www.w3.org/2000/svg"
   xmlns:sodipodi="http://inkscape.sourceforge.net/DTD/sodipodi-0.dtd"
   xmlns:inkscape="http://www.inkscape.org/namespaces/inkscape"
   width="100"
   height="100"
   viewBox="0 0 1 1"
   preserveAspectRatio="none"
   id="svg7143"
   sodipodi:version="0.32"
   inkscape:version="0.43"
   sodipodi:docname="tile55.svg"
   sodipodi:docbase="C:\Documents and Settings\lentz\Desktop\TileDesigner"
   version="1.0">
  <metadata
     id="metadata7198">
    <rdf:RDF>
      <cc:Work
         rdf:about="">
        <dc:format>image/svg+xml</dc:format>
        <dc:type
           rdf:resource="http://purl.org/dc/dcmitype/StillImage" />
      </cc:Work>
    </rdf:RDF>
  </metadata>
  <defs
     id="defs7196" />
  <sodipodi:namedview
     inkscape:window-height="540"
     inkscape:window-width="749"
     inkscape:pageshadow="2"
     inkscape:pageopacity="0.0"
     borderopacity="1.0"
     bordercolor="#666666"
     pagecolor="#ffffff"
     id="base"
     inkscape:zoom="0.52361111"
     inkscape:cx="360"
     inkscape:cy="360"
     inkscape:window-x="132"
     inkscape:window-y="132"
     inkscape:current-layer="svg7143" />
  <title
     id="title7145">SVG drawing</title>
  <desc
     id="desc7147">This was produced by version 4.1 of GNU libplot, a free library for exporting 2-D vector graphics.</desc>
  <g
     transform="matrix(5.418114e-3,0,0,-5.333139e-3,-1.175565e-3,0.939964)"
     xml:space="preserve"
     style="font-style:normal;font-variant:normal;font-weight:normal;font-stretch:normal;letter-spacing:normal;word-spacing:normal;text-anchor:start;fill:none;fill-opacity:1;stroke:#000000;stroke-linecap:butt;stroke-linejoin:miter;stroke-miterlimit:10.43299961;stroke-dasharray:none;stroke-dashoffset:0;stroke-opacity:1"
     id="g7151">
<polygon
   points="46.5,160.5 138.5,160.5 184.5,80.5 138.5,0.5 46.5,0.5 0.5,80.5 46.5,160.5 "
   style="fill:#ffff00;fill-rule:nonzero;stroke:#ffff00;stroke-width:0;stroke-linejoin:round"
   id="polygon7153" />
<text
   transform="matrix(1,0,0,-1,111.19,7.9141)"
   style="font-size:8px;fill:#000000;stroke:none;font-family:&quot;Helvetica&quot;, sans-serif"
   id="text7155">55</text>

<line
   x1="119.5"
   y1="48.5"
   x2="133.5"
   y2="72.5"
   style="stroke:#ffffff;stroke-width:16"
   id="line7157" />
<line
   x1="78.5"
   y1="40.5"
   x2="106.5"
   y2="40.5"
   style="stroke:#ffffff;stroke-width:16"
   id="line7159" />
<line
   x1="126.5"
   y1="60.5"
   x2="161.5"
   y2="40.5"
   style="stroke:#ffffff;stroke-width:16;stroke-linecap:round"
   id="line7161" />
<line
   x1="126.5"
   y1="60.5"
   x2="23.5"
   y2="120.5"
   style="stroke:#ffffff;stroke-width:16;stroke-linecap:round"
   id="line7163" />
<line
   x1="126.5"
   y1="60.5"
   x2="161.5"
   y2="40.5"
   style="stroke-width:12;stroke-linecap:round"
   id="line7165" />
<line
   x1="126.5"
   y1="60.5"
   x2="23.5"
   y2="120.5"
   style="stroke-width:12;stroke-linecap:round"
   id="line7167" />
<line
   x1="92.5"
   y1="40.5"
   x2="92.5"
   y2="0.5"
   style="stroke:#ffffff;stroke-width:16;stroke-linecap:round"
   id="line7169" />
<line
   x1="92.5"
   y1="40.5"
   x2="92.5"
   y2="160.5"
   style="stroke:#ffffff;stroke-width:16;stroke-linecap:round"
   id="line7171" />
<line
   x1="92.5"
   y1="40.5"
   x2="92.5"
   y2="0.5"
   style="stroke-width:12;stroke-linecap:round"
   id="line7173" />
<line
   x1="92.5"
   y1="40.5"
   x2="92.5"
   y2="160.5"
   style="stroke-width:12;stroke-linecap:round"
   id="line7175" />
<line
   x1="120.5"
   y1="50.5"
   x2="132.5"
   y2="70.5"
   style="stroke-width:12"
   id="line7177" />
<path
   d="M 134.99,140.5 L 134.98,140.71 L 134.95,140.91 L 134.89,141.11 L 134.82,141.31 L 134.72,141.51 L 134.61,141.7 L 134.48,141.89 L 134.32,142.07 L 134.15,142.25 L 133.97,142.42 L 133.76,142.59 L 133.54,142.76 L 133.3,142.92 L 133.05,143.07 L 132.79,143.22 L 132.5,143.36 L 132.21,143.49 L 131.9,143.62 L 131.58,143.74 L 131.25,143.85 L 130.9,143.95 L 130.55,144.05 L 130.18,144.14 L 129.8,144.22 L 129.42,144.29 L 129.02,144.36 L 128.62,144.41 L 128.21,144.46 L 127.79,144.49 L 127.37,144.52 L 126.94,144.53 L 126.5,144.54 C 121.81,144.54 118.01,142.73 118.01,140.5 C 118.01,138.27 121.81,136.46 126.5,136.46 C 131.19,136.46 134.99,138.27 134.99,140.5 z "
   style="fill:#ffffff;fill-rule:nonzero;stroke:#ffffff;stroke-width:0;stroke-linecap:round;stroke-linejoin:round"
   id="path7179" />
<path
   d="M 134.99,140.5 L 134.98,140.71 L 134.95,140.91 L 134.89,141.11 L 134.82,141.31 L 134.72,141.51 L 134.61,141.7 L 134.48,141.89 L 134.32,142.07 L 134.15,142.25 L 133.97,142.42 L 133.76,142.59 L 133.54,142.76 L 133.3,142.92 L 133.05,143.07 L 132.79,143.22 L 132.5,143.36 L 132.21,143.49 L 131.9,143.62 L 131.58,143.74 L 131.25,143.85 L 130.9,143.95 L 130.55,144.05 L 130.18,144.14 L 129.8,144.22 L 129.42,144.29 L 129.02,144.36 L 128.62,144.41 L 128.21,144.46 L 127.79,144.49 L 127.37,144.52 L 126.94,144.53 L 126.5,144.54 C 121.81,144.54 118.01,142.73 118.01,140.5 C 118.01,138.27 121.81,136.46 126.5,136.46 C 131.19,136.46 134.99,138.27 134.99,140.5 z "
   style="stroke-width:0.84906;stroke-linecap:round;stroke-linejoin:round"
   id="path7181" />
<text
   transform="matrix(1,0,0,-1,121.19,137.98)"
   style="font-size:8px;fill:#000000;stroke:none;font-family:&quot;Helvetica&quot;, sans-serif"
   id="text7183">10</text>

<line
   x1="80.5"
   y1="40.5"
   x2="104.5"
   y2="40.5"
   style="stroke-width:12"
   id="line7185" />
<path
   d="M 66.992,20.5 L 66.981,20.708 L 66.948,20.913 L 66.894,21.115 L 66.82,21.314 L 66.725,21.509 L 66.61,21.701 L 66.477,21.889 L 66.324,22.072 L 66.154,22.251 L 65.967,22.425 L 65.762,22.594 L 65.541,22.758 L 65.304,22.917 L 65.052,23.069 L 64.785,23.216 L 64.504,23.356 L 64.209,23.49 L 63.901,23.617 L 63.58,23.737 L 63.247,23.849 L 62.902,23.954 L 62.547,24.052 L 62.181,24.141 L 61.804,24.222 L 61.419,24.294 L 61.024,24.357 L 60.621,24.412 L 60.211,24.457 L 59.793,24.493 L 59.368,24.518 L 58.937,24.534 L 58.5,24.539 C 53.812,24.539 50.008,22.73 50.008,20.5 C 50.008,18.27 53.812,16.461 58.5,16.461 C 63.188,16.461 66.992,18.27 66.992,20.5 z "
   style="fill:#ffffff;fill-rule:nonzero;stroke:#ffffff;stroke-width:0;stroke-linecap:round;stroke-linejoin:round"
   id="path7187" />
<path
   d="M 66.992,20.5 L 66.981,20.708 L 66.948,20.913 L 66.894,21.115 L 66.82,21.314 L 66.725,21.509 L 66.61,21.701 L 66.477,21.889 L 66.324,22.072 L 66.154,22.251 L 65.967,22.425 L 65.762,22.594 L 65.541,22.758 L 65.304,22.917 L 65.052,23.069 L 64.785,23.216 L 64.504,23.356 L 64.209,23.49 L 63.901,23.617 L 63.58,23.737 L 63.247,23.849 L 62.902,23.954 L 62.547,24.052 L 62.181,24.141 L 61.804,24.222 L 61.419,24.294 L 61.024,24.357 L 60.621,24.412 L 60.211,24.457 L 59.793,24.493 L 59.368,24.518 L 58.937,24.534 L 58.5,24.539 C 53.812,24.539 50.008,22.73 50.008,20.5 C 50.008,18.27 53.812,16.461 58.5,16.461 C 63.188,16.461 66.992,18.27 66.992,20.5 z "
   style="stroke-width:0.84906;stroke-linecap:round;stroke-linejoin:round"
   id="path7189" />
<text
   transform="matrix(1,0,0,-1,53.191,17.977)"
   style="font-size:8px;fill:#000000;stroke:none;font-family:&quot;Helvetica&quot;, sans-serif"
   id="text7191">10</text>

<polygon
   points="46.5,160.5 138.5,160.5 184.5,80.5 138.5,0.5 46.5,0.5 0.5,80.5 46.5,160.5 "
   style="stroke-width:1;stroke-linejoin:round"
   id="polygon7193" />
</g></svg>
