<?xml version="1.0"?>
<svg version="1.1" xmlns="http://www.w3.org/2000/svg"><path d=" M 98,0 L 294,0 L 392,170 L 294,340 L 98,340 L 0,170 Z" fill="#B46301" stroke="#B46301" stroke-width="1" stroke-linejoin="round"/><text x="245" y="318" dy="0.3em" fill="#000000" stroke="#000000" text-anchor="middle" font-family="Arial" font-size="31" font-weight="bold">262</text><polygon points="77,67 165,15 217,103 129,155" fill="#FFFFFF" stroke="#FFFFFF" stroke-width="12"/><circle cx="103" cy="111" r="51" fill="#FFFFFF" stroke="#FFFFFF" stroke-width="12"/><circle cx="191" cy="59" r="51" fill="#FFFFFF" stroke="#FFFFFF" stroke-width="12"/><polygon points="345,119 345,221 243,221 243,119" fill="#FFFFFF" stroke="#FFFFFF" stroke-width="12"/><circle cx="294" cy="119" r="51" fill="#FFFFFF" stroke="#FFFFFF" stroke-width="12"/><circle cx="294" cy="221" r="51" fill="#FFFFFF" stroke="#FFFFFF" stroke-width="12"/><circle cx="147" cy="255" r="51" fill="#FFFFFF" stroke="#FFFFFF" stroke-width="12"/><path d="M 49,85 A 98,98 0 0,0 147,85" fill="none" stroke="#FFFFFF" stroke-width="34" stroke-linecap="butt" stroke-linejoin="round"/><path d="M 147,85 A 98,98 0 0,0 196,0" fill="none" stroke="#FFFFFF" stroke-width="34" stroke-linecap="butt" stroke-linejoin="round"/><path d="M 343,85 A 98,98 0 0,0 294,170" fill="none" stroke="#FFFFFF" stroke-width="34" stroke-linecap="butt" stroke-linejoin="round"/><path d="M 294,170 A 98,98 0 0,0 343,255" fill="none" stroke="#FFFFFF" stroke-width="34" stroke-linecap="butt" stroke-linejoin="round"/><path d="M 196,340 A 98,98 0 0,0 147,255" fill="none" stroke="#FFFFFF" stroke-width="34" stroke-linecap="butt" stroke-linejoin="round"/><path d="M 49,85 A 98,98 0 0,0 147,85" fill="none" stroke="#000000" stroke-width="26" stroke-linecap="butt" stroke-linejoin="round"/><path d="M 147,85 A 98,98 0 0,0 196,0" fill="none" stroke="#000000" stroke-width="26" stroke-linecap="butt" stroke-linejoin="round"/><path d="M 343,85 A 98,98 0 0,0 294,170" fill="none" stroke="#000000" stroke-width="26" stroke-linecap="butt" stroke-linejoin="round"/><path d="M 294,170 A 98,98 0 0,0 343,255" fill="none" stroke="#000000" stroke-width="26" stroke-linecap="butt" stroke-linejoin="round"/><path d="M 196,340 A 98,98 0 0,0 147,255" fill="none" stroke="#000000" stroke-width="26" stroke-linecap="butt" stroke-linejoin="round"/><polygon points="77,67 165,15 217,103 129,155" fill="#FFFFFF" stroke="#000000" stroke-width="4"/><circle cx="103" cy="111" r="51" fill="#FFFFFF" stroke="#000000" stroke-width="4"/><circle cx="191" cy="59" r="51" fill="#FFFFFF" stroke="#000000" stroke-width="4"/><ellipse rx="31" ry="30" cx="196" cy="170" fill="#FFFFFF" stroke="#000000" stroke-width="2" stroke-linejoin="round"/><text x="196" y="170" dy="0.3em" fill="#000000" stroke="#000000" text-anchor="middle" font-family="Bookman Old Style" font-size="43">80</text><polygon points="345,119 345,221 243,221 243,119" fill="#FFFFFF" stroke="#000000" stroke-width="4"/><circle cx="294" cy="119" r="51" fill="#FFFFFF" stroke="#000000" stroke-width="4"/><circle cx="294" cy="221" r="51" fill="#FFFFFF" stroke="#000000" stroke-width="4"/><ellipse rx="31" ry="30" cx="196" cy="170" fill="#FFFFFF" stroke="#000000" stroke-width="2" stroke-linejoin="round"/><text x="196" y="170" dy="0.3em" fill="#000000" stroke="#000000" text-anchor="middle" font-family="Bookman Old Style" font-size="43">80</text><circle cx="147" cy="255" r="51" fill="#FFFFFF" stroke="#000000" stroke-width="4"/><ellipse rx="31" ry="30" cx="196" cy="170" fill="#FFFFFF" stroke="#000000" stroke-width="2" stroke-linejoin="round"/><text x="196" y="170" dy="0.3em" fill="#000000" stroke="#000000" text-anchor="middle" font-family="Bookman Old Style" font-size="43">80</text><text x="49" y="170" dy="0.3em" fill="#000000" stroke="#000000" text-anchor="middle" font-family="TimpaniHeavy" font-size="54">P</text><path d=" M 98,0 L 294,0 L 392,170 L 294,340 L 98,340 L 0,170 Z" fill="none" stroke="black" stroke-width="1" stroke-linejoin="round"/></svg>
