<?xml version="1.0" encoding="UTF-8" standalone="no"?>
<svg
   xmlns:dc="http://purl.org/dc/elements/1.1/"
   xmlns:cc="http://web.resource.org/cc/"
   xmlns:rdf="http://www.w3.org/1999/02/22-rdf-syntax-ns#"
   xmlns:svg="http://www.w3.org/2000/svg"
   xmlns="http://www.w3.org/2000/svg"
   xmlns:sodipodi="http://inkscape.sourceforge.net/DTD/sodipodi-0.dtd"
   xmlns:inkscape="http://www.inkscape.org/namespaces/inkscape"
   width="100"
   height="100"
   viewBox="0 0 1 1"
   preserveAspectRatio="none"
   id="svg10262"
   sodipodi:version="0.32"
   inkscape:version="0.43"
   sodipodi:docname="tile404.svg"
   sodipodi:docbase="C:\Documents and Settings\lentz\Desktop\TileDesigner"
   version="1.0">
  <metadata
     id="metadata10325">
    <rdf:RDF>
      <cc:Work
         rdf:about="">
        <dc:format>image/svg+xml</dc:format>
        <dc:type
           rdf:resource="http://purl.org/dc/dcmitype/StillImage" />
      </cc:Work>
    </rdf:RDF>
  </metadata>
  <defs
     id="defs10323" />
  <sodipodi:namedview
     inkscape:window-height="540"
     inkscape:window-width="749"
     inkscape:pageshadow="2"
     inkscape:pageopacity="0.0"
     borderopacity="1.0"
     bordercolor="#666666"
     pagecolor="#ffffff"
     id="base"
     inkscape:zoom="0.52361111"
     inkscape:cx="360"
     inkscape:cy="360"
     inkscape:window-x="220"
     inkscape:window-y="220"
     inkscape:current-layer="svg10262" />
  <title
     id="title10264">SVG drawing</title>
  <desc
     id="desc10266">This was produced by version 4.1 of GNU libplot, a free library for exporting 2-D vector graphics.</desc>
  <rect
     x="0"
     y="0"
     width="1"
     height="1"
     style="fill:#ffffff;stroke:none"
     id="rect10268" />
  <g
     transform="matrix(5.418114e-3,0,0,-6.213736e-3,-1.175565e-3,1.000871)"
     xml:space="preserve"
     style="font-style:normal;font-variant:normal;font-weight:normal;font-stretch:normal;letter-spacing:normal;word-spacing:normal;text-anchor:start;fill:none;fill-opacity:1;stroke:#000000;stroke-linecap:butt;stroke-linejoin:miter;stroke-miterlimit:10.43299961;stroke-dasharray:none;stroke-dashoffset:0;stroke-opacity:1"
     id="g10270">
<polygon
   points="46.5,160.5 138.5,160.5 184.5,80.5 138.5,0.5 46.5,0.5 0.5,80.5 46.5,160.5 "
   style="fill:#ffff00;fill-rule:nonzero;stroke:#ffff00;stroke-width:0;stroke-linejoin:round"
   id="polygon10272" />
<text
   transform="matrix(1,0,0,-1,109.17,7.9141)"
   style="font-size:8px;fill:#000000;stroke:none;font-family:&quot;Helvetica&quot;, sans-serif"
   id="text10274">404</text>

<path
   d="M 151.5,53.5 L 151.47,54.735 L 151.38,55.954 L 151.22,57.155 L 151.01,58.337 L 150.74,59.498 L 150.42,60.637 L 150.04,61.752 L 149.61,62.841 L 149.13,63.905 L 148.6,64.939 L 148.03,65.944 L 147.4,66.918 L 146.73,67.859 L 146.02,68.766 L 145.26,69.637 L 144.47,70.47 L 143.64,71.265 L 142.77,72.019 L 141.86,72.732 L 140.92,73.401 L 139.94,74.025 L 138.94,74.603 L 137.9,75.133 L 136.84,75.614 L 135.75,76.044 L 134.64,76.421 L 133.5,76.744 L 132.34,77.012 L 131.15,77.223 L 129.95,77.376 L 128.73,77.469 L 127.5,77.5 C 114.25,77.5 103.5,66.754 103.5,53.5 C 103.5,40.246 114.25,29.5 127.5,29.5 C 140.75,29.5 151.5,40.246 151.5,53.5 z "
   style="fill:#ffffff;fill-rule:nonzero;stroke:#ffffff;stroke-width:0;stroke-linecap:round;stroke-linejoin:round"
   id="path10276" />
<path
   d="M 151.5,53.5 L 151.47,54.735 L 151.38,55.954 L 151.22,57.155 L 151.01,58.337 L 150.74,59.498 L 150.42,60.637 L 150.04,61.752 L 149.61,62.841 L 149.13,63.905 L 148.6,64.939 L 148.03,65.944 L 147.4,66.918 L 146.73,67.859 L 146.02,68.766 L 145.26,69.637 L 144.47,70.47 L 143.64,71.265 L 142.77,72.019 L 141.86,72.732 L 140.92,73.401 L 139.94,74.025 L 138.94,74.603 L 137.9,75.133 L 136.84,75.614 L 135.75,76.044 L 134.64,76.421 L 133.5,76.744 L 132.34,77.012 L 131.15,77.223 L 129.95,77.376 L 128.73,77.469 L 127.5,77.5 C 114.25,77.5 103.5,66.754 103.5,53.5 C 103.5,40.246 114.25,29.5 127.5,29.5 C 140.75,29.5 151.5,40.246 151.5,53.5 z "
   style="stroke:#ffffff;stroke-width:6;stroke-linecap:round;stroke-linejoin:round"
   id="path10278" />
<path
   d="M 81.5,107.5 L 81.469,108.73 L 81.376,109.95 L 81.223,111.15 L 81.012,112.34 L 80.744,113.5 L 80.421,114.64 L 80.044,115.75 L 79.614,116.84 L 79.133,117.9 L 78.603,118.94 L 78.025,119.94 L 77.401,120.92 L 76.732,121.86 L 76.019,122.77 L 75.265,123.64 L 74.47,124.47 L 73.637,125.26 L 72.766,126.02 L 71.859,126.73 L 70.918,127.4 L 69.944,128.03 L 68.939,128.6 L 67.905,129.13 L 66.841,129.61 L 65.752,130.04 L 64.637,130.42 L 63.498,130.74 L 62.337,131.01 L 61.155,131.22 L 59.954,131.38 L 58.735,131.47 L 57.5,131.5 C 44.246,131.5 33.5,120.75 33.5,107.5 C 33.5,94.246 44.246,83.5 57.5,83.5 C 70.754,83.5 81.5,94.246 81.5,107.5 z "
   style="fill:#ffffff;fill-rule:nonzero;stroke:#ffffff;stroke-width:0;stroke-linecap:round;stroke-linejoin:round"
   id="path10280" />
<path
   d="M 81.5,107.5 L 81.469,108.73 L 81.376,109.95 L 81.223,111.15 L 81.012,112.34 L 80.744,113.5 L 80.421,114.64 L 80.044,115.75 L 79.614,116.84 L 79.133,117.9 L 78.603,118.94 L 78.025,119.94 L 77.401,120.92 L 76.732,121.86 L 76.019,122.77 L 75.265,123.64 L 74.47,124.47 L 73.637,125.26 L 72.766,126.02 L 71.859,126.73 L 70.918,127.4 L 69.944,128.03 L 68.939,128.6 L 67.905,129.13 L 66.841,129.61 L 65.752,130.04 L 64.637,130.42 L 63.498,130.74 L 62.337,131.01 L 61.155,131.22 L 59.954,131.38 L 58.735,131.47 L 57.5,131.5 C 44.246,131.5 33.5,120.75 33.5,107.5 C 33.5,94.246 44.246,83.5 57.5,83.5 C 70.754,83.5 81.5,94.246 81.5,107.5 z "
   style="stroke:#ffffff;stroke-width:6;stroke-linecap:round;stroke-linejoin:round"
   id="path10282" />
<path
   d="M 161.5,40.5 L 161.3,40.129 C 150.73,46.203 139.41,50.855 127.62,53.953"
   style="stroke:#ffffff;stroke-width:16;stroke-linecap:round;stroke-linejoin:round"
   id="path10284" />
<path
   d="M 127.5,53.5 L 127.62,53.953 C 116.16,56.969 104.35,58.5 92.5,58.5 C 68.359,58.5 44.637,52.164 23.711,40.133"
   style="stroke:#ffffff;stroke-width:16;stroke-linecap:round;stroke-linejoin:round"
   id="path10286" />
<path
   d="M 57.5,107.5 L 57.383,107.04 C 68.844,104.03 80.648,102.5 92.5,102.5 C 116.64,102.5 140.37,108.84 161.3,120.87"
   style="stroke:#ffffff;stroke-width:16;stroke-linecap:round;stroke-linejoin:round"
   id="path10288" />
<path
   d="M 23.5,120.5 L 23.711,120.87 C 34.273,114.79 45.602,110.14 57.383,107.04"
   style="stroke:#ffffff;stroke-width:16;stroke-linecap:round;stroke-linejoin:round"
   id="path10290" />
<path
   d="M 161.5,40.5 L 161.3,40.129 C 150.73,46.203 139.41,50.855 127.62,53.953"
   style="stroke-width:12;stroke-linecap:round;stroke-linejoin:round"
   id="path10292" />
<path
   d="M 127.5,53.5 L 127.62,53.953 C 116.16,56.969 104.35,58.5 92.5,58.5 C 68.359,58.5 44.637,52.164 23.711,40.133"
   style="stroke-width:12;stroke-linecap:round;stroke-linejoin:round"
   id="path10294" />
<path
   d="M 57.5,107.5 L 57.383,107.04 C 68.844,104.03 80.648,102.5 92.5,102.5 C 116.64,102.5 140.37,108.84 161.3,120.87"
   style="stroke-width:12;stroke-linecap:round;stroke-linejoin:round"
   id="path10296" />
<path
   d="M 23.5,120.5 L 23.711,120.87 C 34.273,114.79 45.602,110.14 57.383,107.04"
   style="stroke-width:12;stroke-linecap:round;stroke-linejoin:round"
   id="path10298" />
<path
   d="M 151.5,53.5 L 151.47,54.735 L 151.38,55.954 L 151.22,57.155 L 151.01,58.337 L 150.74,59.498 L 150.42,60.637 L 150.04,61.752 L 149.61,62.841 L 149.13,63.905 L 148.6,64.939 L 148.03,65.944 L 147.4,66.918 L 146.73,67.859 L 146.02,68.766 L 145.26,69.637 L 144.47,70.47 L 143.64,71.265 L 142.77,72.019 L 141.86,72.732 L 140.92,73.401 L 139.94,74.025 L 138.94,74.603 L 137.9,75.133 L 136.84,75.614 L 135.75,76.044 L 134.64,76.421 L 133.5,76.744 L 132.34,77.012 L 131.15,77.223 L 129.95,77.376 L 128.73,77.469 L 127.5,77.5 C 114.25,77.5 103.5,66.754 103.5,53.5 C 103.5,40.246 114.25,29.5 127.5,29.5 C 140.75,29.5 151.5,40.246 151.5,53.5 z "
   style="fill:#ffffff;fill-rule:nonzero;stroke:#ffffff;stroke-width:0;stroke-linecap:round;stroke-linejoin:round"
   id="path10300" />
<path
   d="M 151.5,53.5 L 151.47,54.735 L 151.38,55.954 L 151.22,57.155 L 151.01,58.337 L 150.74,59.498 L 150.42,60.637 L 150.04,61.752 L 149.61,62.841 L 149.13,63.905 L 148.6,64.939 L 148.03,65.944 L 147.4,66.918 L 146.73,67.859 L 146.02,68.766 L 145.26,69.637 L 144.47,70.47 L 143.64,71.265 L 142.77,72.019 L 141.86,72.732 L 140.92,73.401 L 139.94,74.025 L 138.94,74.603 L 137.9,75.133 L 136.84,75.614 L 135.75,76.044 L 134.64,76.421 L 133.5,76.744 L 132.34,77.012 L 131.15,77.223 L 129.95,77.376 L 128.73,77.469 L 127.5,77.5 C 114.25,77.5 103.5,66.754 103.5,53.5 C 103.5,40.246 114.25,29.5 127.5,29.5 C 140.75,29.5 151.5,40.246 151.5,53.5 z "
   style="stroke-width:2;stroke-linecap:round;stroke-linejoin:round"
   id="path10302" />
<path
   d="M 66.992,20.5 L 66.981,20.708 L 66.948,20.913 L 66.894,21.115 L 66.82,21.314 L 66.725,21.509 L 66.61,21.701 L 66.477,21.889 L 66.324,22.072 L 66.154,22.251 L 65.967,22.425 L 65.762,22.594 L 65.541,22.758 L 65.304,22.917 L 65.052,23.069 L 64.785,23.216 L 64.504,23.356 L 64.209,23.49 L 63.901,23.617 L 63.58,23.737 L 63.247,23.849 L 62.902,23.954 L 62.547,24.052 L 62.181,24.141 L 61.804,24.222 L 61.419,24.294 L 61.024,24.357 L 60.621,24.412 L 60.211,24.457 L 59.793,24.493 L 59.368,24.518 L 58.937,24.534 L 58.5,24.539 C 53.812,24.539 50.008,22.73 50.008,20.5 C 50.008,18.27 53.812,16.461 58.5,16.461 C 63.188,16.461 66.992,18.27 66.992,20.5 z "
   style="fill:#ffffff;fill-rule:nonzero;stroke:#ffffff;stroke-width:0;stroke-linecap:round;stroke-linejoin:round"
   id="path10304" />
<path
   d="M 66.992,20.5 L 66.981,20.708 L 66.948,20.913 L 66.894,21.115 L 66.82,21.314 L 66.725,21.509 L 66.61,21.701 L 66.477,21.889 L 66.324,22.072 L 66.154,22.251 L 65.967,22.425 L 65.762,22.594 L 65.541,22.758 L 65.304,22.917 L 65.052,23.069 L 64.785,23.216 L 64.504,23.356 L 64.209,23.49 L 63.901,23.617 L 63.58,23.737 L 63.247,23.849 L 62.902,23.954 L 62.547,24.052 L 62.181,24.141 L 61.804,24.222 L 61.419,24.294 L 61.024,24.357 L 60.621,24.412 L 60.211,24.457 L 59.793,24.493 L 59.368,24.518 L 58.937,24.534 L 58.5,24.539 C 53.812,24.539 50.008,22.73 50.008,20.5 C 50.008,18.27 53.812,16.461 58.5,16.461 C 63.188,16.461 66.992,18.27 66.992,20.5 z "
   style="stroke-width:0.84906;stroke-linecap:round;stroke-linejoin:round"
   id="path10306" />
<text
   transform="matrix(1,0,0,-1,53.191,17.977)"
   style="font-size:8px;fill:#000000;stroke:none;font-family:&quot;Helvetica&quot;, sans-serif"
   id="text10308">20</text>

<path
   d="M 81.5,107.5 L 81.469,108.73 L 81.376,109.95 L 81.223,111.15 L 81.012,112.34 L 80.744,113.5 L 80.421,114.64 L 80.044,115.75 L 79.614,116.84 L 79.133,117.9 L 78.603,118.94 L 78.025,119.94 L 77.401,120.92 L 76.732,121.86 L 76.019,122.77 L 75.265,123.64 L 74.47,124.47 L 73.637,125.26 L 72.766,126.02 L 71.859,126.73 L 70.918,127.4 L 69.944,128.03 L 68.939,128.6 L 67.905,129.13 L 66.841,129.61 L 65.752,130.04 L 64.637,130.42 L 63.498,130.74 L 62.337,131.01 L 61.155,131.22 L 59.954,131.38 L 58.735,131.47 L 57.5,131.5 C 44.246,131.5 33.5,120.75 33.5,107.5 C 33.5,94.246 44.246,83.5 57.5,83.5 C 70.754,83.5 81.5,94.246 81.5,107.5 z "
   style="fill:#ffffff;fill-rule:nonzero;stroke:#ffffff;stroke-width:0;stroke-linecap:round;stroke-linejoin:round"
   id="path10310" />
<path
   d="M 81.5,107.5 L 81.469,108.73 L 81.376,109.95 L 81.223,111.15 L 81.012,112.34 L 80.744,113.5 L 80.421,114.64 L 80.044,115.75 L 79.614,116.84 L 79.133,117.9 L 78.603,118.94 L 78.025,119.94 L 77.401,120.92 L 76.732,121.86 L 76.019,122.77 L 75.265,123.64 L 74.47,124.47 L 73.637,125.26 L 72.766,126.02 L 71.859,126.73 L 70.918,127.4 L 69.944,128.03 L 68.939,128.6 L 67.905,129.13 L 66.841,129.61 L 65.752,130.04 L 64.637,130.42 L 63.498,130.74 L 62.337,131.01 L 61.155,131.22 L 59.954,131.38 L 58.735,131.47 L 57.5,131.5 C 44.246,131.5 33.5,120.75 33.5,107.5 C 33.5,94.246 44.246,83.5 57.5,83.5 C 70.754,83.5 81.5,94.246 81.5,107.5 z "
   style="stroke-width:2;stroke-linecap:round;stroke-linejoin:round"
   id="path10312" />
<path
   d="M 134.99,140.5 L 134.98,140.71 L 134.95,140.91 L 134.89,141.11 L 134.82,141.31 L 134.72,141.51 L 134.61,141.7 L 134.48,141.89 L 134.32,142.07 L 134.15,142.25 L 133.97,142.42 L 133.76,142.59 L 133.54,142.76 L 133.3,142.92 L 133.05,143.07 L 132.79,143.22 L 132.5,143.36 L 132.21,143.49 L 131.9,143.62 L 131.58,143.74 L 131.25,143.85 L 130.9,143.95 L 130.55,144.05 L 130.18,144.14 L 129.8,144.22 L 129.42,144.29 L 129.02,144.36 L 128.62,144.41 L 128.21,144.46 L 127.79,144.49 L 127.37,144.52 L 126.94,144.53 L 126.5,144.54 C 121.81,144.54 118.01,142.73 118.01,140.5 C 118.01,138.27 121.81,136.46 126.5,136.46 C 131.19,136.46 134.99,138.27 134.99,140.5 z "
   style="fill:#ffffff;fill-rule:nonzero;stroke:#ffffff;stroke-width:0;stroke-linecap:round;stroke-linejoin:round"
   id="path10314" />
<path
   d="M 134.99,140.5 L 134.98,140.71 L 134.95,140.91 L 134.89,141.11 L 134.82,141.31 L 134.72,141.51 L 134.61,141.7 L 134.48,141.89 L 134.32,142.07 L 134.15,142.25 L 133.97,142.42 L 133.76,142.59 L 133.54,142.76 L 133.3,142.92 L 133.05,143.07 L 132.79,143.22 L 132.5,143.36 L 132.21,143.49 L 131.9,143.62 L 131.58,143.74 L 131.25,143.85 L 130.9,143.95 L 130.55,144.05 L 130.18,144.14 L 129.8,144.22 L 129.42,144.29 L 129.02,144.36 L 128.62,144.41 L 128.21,144.46 L 127.79,144.49 L 127.37,144.52 L 126.94,144.53 L 126.5,144.54 C 121.81,144.54 118.01,142.73 118.01,140.5 C 118.01,138.27 121.81,136.46 126.5,136.46 C 131.19,136.46 134.99,138.27 134.99,140.5 z "
   style="stroke-width:0.84906;stroke-linecap:round;stroke-linejoin:round"
   id="path10316" />
<text
   transform="matrix(1,0,0,-1,121.19,137.98)"
   style="font-size:8px;fill:#000000;stroke:none;font-family:&quot;Helvetica&quot;, sans-serif"
   id="text10318">20</text>

<polygon
   points="46.5,160.5 138.5,160.5 184.5,80.5 138.5,0.5 46.5,0.5 0.5,80.5 46.5,160.5 "
   style="stroke-width:1;stroke-linejoin:round"
   id="polygon10320" />
</g></svg>
