<?xml version="1.0" encoding="UTF-8" standalone="no"?>
<svg
   xmlns:dc="http://purl.org/dc/elements/1.1/"
   xmlns:cc="http://creativecommons.org/ns#"
   xmlns:rdf="http://www.w3.org/1999/02/22-rdf-syntax-ns#"
   xmlns:svg="http://www.w3.org/2000/svg"
   xmlns="http://www.w3.org/2000/svg"
   xmlns:sodipodi="http://sodipodi.sourceforge.net/DTD/sodipodi-0.dtd"
   xmlns:inkscape="http://www.inkscape.org/namespaces/inkscape"
   version="1.1"
   id="svg2"
   inkscape:version="0.48.4 r9939"
   width="100%"
   height="100%"
   sodipodi:docname="tile8862.svg">
  <metadata
     id="metadata48">
    <rdf:RDF>
      <cc:Work
         rdf:about="">
        <dc:format>image/svg+xml</dc:format>
        <dc:type
           rdf:resource="http://purl.org/dc/dcmitype/StillImage" />
      </cc:Work>
    </rdf:RDF>
  </metadata>
  <defs
     id="defs46" />
  <sodipodi:namedview
     pagecolor="#ffffff"
     bordercolor="#666666"
     borderopacity="1"
     objecttolerance="10"
     gridtolerance="10"
     guidetolerance="10"
     inkscape:pageopacity="0"
     inkscape:pageshadow="2"
     inkscape:window-width="1615"
     inkscape:window-height="1026"
     id="namedview44"
     showgrid="false"
     inkscape:zoom="0.78300039"
     inkscape:cx="372.04724"
     inkscape:cy="526.18109"
     inkscape:window-x="65"
     inkscape:window-y="24"
     inkscape:window-maximized="1"
     inkscape:current-layer="svg2" />
  <path
     d=" M 98,0 L 294,0 L 392,170 L 294,340 L 98,340 L 0,170 Z"
     fill="#38AC00"
     stroke="#38AC00"
     stroke-width="1"
     stroke-linejoin="round"
     id="path4" />
  <text
     x="253.93997"
     y="325.66284"
     dy="0"
     font-size="34"
     id="text6"
     style="font-size:34px;text-anchor:middle;fill:#000000;stroke:#000000;font-family:Arial">8862</text>
  <circle
     cx="147"
     cy="255"
     r="51"
     fill="#FFFFFF"
     stroke="#FFFFFF"
     stroke-width="12"
     id="circle8" />
  <circle
     cx="147"
     cy="85"
     r="51"
     fill="#FFFFFF"
     stroke="#FFFFFF"
     stroke-width="12"
     id="circle10" />
  <path
     d="M 147,85 A 98,98 0 0,0 196,0"
     fill="none"
     stroke="#FFFFFF"
     stroke-width="34"
     stroke-linecap="butt"
     stroke-linejoin="round"
     id="path12" />
  <path
     d="M 49,85 A 98,98 0 0,0 147,85"
     fill="none"
     stroke="#FFFFFF"
     stroke-width="34"
     stroke-linecap="butt"
     stroke-linejoin="round"
     id="path14" />
  <path
     d="M 147,255 A 98,98 0 0,0 49,255"
     fill="none"
     stroke="#FFFFFF"
     stroke-width="34"
     stroke-linecap="butt"
     stroke-linejoin="round"
     id="path16" />
  <path
     d="M 196,340 A 98,98 0 0,0 147,255"
     fill="none"
     stroke="#FFFFFF"
     stroke-width="34"
     stroke-linecap="butt"
     stroke-linejoin="round"
     id="path18" />
  <path
     d="M 147,85 A 98,98 0 0,0 196,0"
     fill="none"
     stroke="#000000"
     stroke-width="26"
     stroke-linecap="butt"
     stroke-linejoin="round"
     id="path20" />
  <path
     d="M 49,85 A 98,98 0 0,0 147,85"
     fill="none"
     stroke="#000000"
     stroke-width="26"
     stroke-linecap="butt"
     stroke-linejoin="round"
     id="path22" />
  <path
     d="M 147,255 A 98,98 0 0,0 49,255"
     fill="none"
     stroke="#000000"
     stroke-width="26"
     stroke-linecap="butt"
     stroke-linejoin="round"
     id="path24" />
  <path
     d="M 196,340 A 98,98 0 0,0 147,255"
     fill="none"
     stroke="#000000"
     stroke-width="26"
     stroke-linecap="butt"
     stroke-linejoin="round"
     id="path26" />
  <circle
     cx="147"
     cy="255"
     r="51"
     fill="#FFFFFF"
     stroke="#000000"
     stroke-width="4"
     id="circle28" />
  <ellipse
     rx="38"
     ry="34"
     cx="269"
     cy="43"
     fill="#FFFFFF"
     stroke="#000000"
     stroke-width="2"
     stroke-linejoin="round"
     id="ellipse30" />
  <text
     x="267.72287"
     y="59.602802"
     dy="0"
     font-size="51"
     id="text32"
     style="font-size:51px;text-anchor:middle;fill:#000000;stroke:#000000;font-family:Bookman Old Style">40</text>
  <circle
     cx="147"
     cy="85"
     r="51"
     fill="#FFFFFF"
     stroke="#000000"
     stroke-width="4"
     id="circle34" />
  <ellipse
     rx="38"
     ry="34"
     cx="269"
     cy="297"
     id="ellipse36"
     sodipodi:cx="269"
     sodipodi:cy="297"
     sodipodi:rx="38"
     sodipodi:ry="34"
     transform="translate(15.325663,-75.351176)"
     style="fill:#ffffff;stroke:#000000;stroke-width:2;stroke-linejoin:round" />
  <text
     x="288.15707"
     y="238.25163"
     dy="0"
     font-size="51"
     id="text38"
     style="font-size:51px;text-anchor:middle;fill:#000000;stroke:#000000;font-family:Bookman Old Style">40</text>
  <text
     x="61.771385"
     y="181.49425"
     dy="0"
     font-size="51"
     id="text40"
     style="font-size:51px;text-anchor:middle;fill:#000000;stroke:#000000;font-family:TimpaniHeavy">OO</text>
  <path
     d=" M 98,0 L 294,0 L 392,170 L 294,340 L 98,340 L 0,170 Z"
     fill="none"
     stroke="black"
     stroke-width="1"
     stroke-linejoin="round"
     id="path42" />
</svg>
