<?xml version="1.0" encoding="UTF-8" standalone="no"?>
<svg
   xmlns:dc="http://purl.org/dc/elements/1.1/"
   xmlns:cc="http://web.resource.org/cc/"
   xmlns:rdf="http://www.w3.org/1999/02/22-rdf-syntax-ns#"
   xmlns:svg="http://www.w3.org/2000/svg"
   xmlns="http://www.w3.org/2000/svg"
   xmlns:sodipodi="http://sodipodi.sourceforge.net/DTD/sodipodi-0.dtd"
   xmlns:inkscape="http://www.inkscape.org/namespaces/inkscape"
   width="100"
   height="100"
   viewBox="0 0 1 1"
   preserveAspectRatio="none"
   id="svg5634"
   sodipodi:version="0.32"
   inkscape:version="0.45.1"
   sodipodi:docname="tile204.svg"
   sodipodi:docbase="C:\Documents and Settings\Brett\workspace\18xx\tiles\svg"
   version="1.0"
   inkscape:output_extension="org.inkscape.output.svg.inkscape">
  <metadata
     id="metadata5679">
    <rdf:RDF>
      <cc:Work
         rdf:about="">
        <dc:format>image/svg+xml</dc:format>
        <dc:type
           rdf:resource="http://purl.org/dc/dcmitype/StillImage" />
      </cc:Work>
    </rdf:RDF>
  </metadata>
  <defs
     id="defs5677" />
  <sodipodi:namedview
     inkscape:window-height="579"
     inkscape:window-width="749"
     inkscape:pageshadow="2"
     inkscape:pageopacity="0.0"
     borderopacity="1.0"
     bordercolor="#666666"
     pagecolor="#ffffff"
     id="base"
     inkscape:zoom="2.1055851"
     inkscape:cx="77.34748"
     inkscape:cy="60.911962"
     inkscape:window-x="88"
     inkscape:window-y="88"
     inkscape:current-layer="svg5634" />
  <title
     id="title5636">SVG drawing</title>
  <desc
     id="desc5638">This was produced by version 4.1 of GNU libplot, a free library for exporting 2-D vector graphics.</desc>
  <g
     transform="matrix(5.4169442e-3,0,0,-6.1927886e-3,-1.0673626e-3,1.0008659)"
     xml:space="preserve"
     style="font-style:normal;font-variant:normal;font-weight:normal;font-stretch:normal;letter-spacing:normal;word-spacing:normal;text-anchor:start;fill:none;fill-opacity:1;stroke:#000000;stroke-linecap:butt;stroke-linejoin:miter;stroke-miterlimit:10.43299961;stroke-dasharray:none;stroke-dashoffset:0;stroke-opacity:1"
     id="g5642">
<polygon
   points="46.5,160.5 138.5,160.5 184.5,80.5 138.5,0.5 46.5,0.5 0.5,80.5 46.5,160.5 "
   style="fill:#38ac00;fill-rule:nonzero;stroke:#38ac00;stroke-width:0;stroke-linejoin:round"
   id="polygon5644" />
<text
   transform="matrix(1,0,0,-1,109.17,7.9141)"
   style="font-size:8px;fill:#000000;stroke:none;font-family:&quot;Helvetica&quot;, sans-serif"
   id="text5646">204</text>


<line
   x1="92.5"
   y1="80.5"
   x2="92.5"
   y2="160.5"
   style="stroke:#ffffff;stroke-width:16;stroke-linecap:round"
   id="line5648" />
<line
   x1="92.5"
   y1="80.5"
   x2="161.5"
   y2="40.5"
   style="stroke:#ffffff;stroke-width:16;stroke-linecap:round"
   id="line5650" />
<line
   x1="92.5"
   y1="80.5"
   x2="23.5"
   y2="40.5"
   style="stroke:#ffffff;stroke-width:16;stroke-linecap:round"
   id="line5652" />
<line
   x1="92.5"
   y1="80.5"
   x2="23.5"
   y2="120.5"
   style="stroke:#ffffff;stroke-width:16;stroke-linecap:round"
   id="line5654" />
<line
   x1="92.5"
   y1="80.5"
   x2="92.5"
   y2="160.5"
   style="stroke-width:12;stroke-linecap:round"
   id="line5656" />
<line
   x1="92.5"
   y1="80.5"
   x2="161.5"
   y2="40.5"
   style="stroke-width:12;stroke-linecap:round"
   id="line5658" />
<line
   x1="92.5"
   y1="80.5"
   x2="23.5"
   y2="40.5"
   style="stroke-width:12;stroke-linecap:round"
   id="line5660" />
<line
   x1="92.5"
   y1="80.5"
   x2="23.5"
   y2="120.5"
   style="stroke-width:12;stroke-linecap:round"
   id="line5662" />
<path
   d="M 102.5,80.5 L 102.49,81.014 L 102.45,81.522 L 102.38,82.022 L 102.3,82.514 L 102.18,82.998 L 102.05,83.472 L 101.89,83.937 L 101.71,84.391 L 101.51,84.834 L 101.29,85.265 L 101.05,85.684 L 100.79,86.09 L 100.51,86.482 L 100.22,86.86 L 99.901,87.222 L 99.57,87.57 L 99.222,87.901 L 98.86,88.215 L 98.482,88.512 L 98.09,88.791 L 97.684,89.051 L 97.265,89.292 L 96.834,89.513 L 96.391,89.714 L 95.937,89.893 L 95.472,90.05 L 94.998,90.185 L 94.514,90.297 L 94.022,90.385 L 93.522,90.448 L 93.014,90.487 L 92.5,90.5 C 86.98,90.5 82.5,86.02 82.5,80.5 C 82.5,74.98 86.98,70.5 92.5,70.5 C 98.02,70.5 102.5,74.98 102.5,80.5 z "
   style="fill:#000000;fill-rule:nonzero;stroke-width:0;stroke-linecap:round;stroke-linejoin:round"
   id="path5664" />
<path
   d="M 102.5,80.5 L 102.49,81.014 L 102.45,81.522 L 102.38,82.022 L 102.3,82.514 L 102.18,82.998 L 102.05,83.472 L 101.89,83.937 L 101.71,84.391 L 101.51,84.834 L 101.29,85.265 L 101.05,85.684 L 100.79,86.09 L 100.51,86.482 L 100.22,86.86 L 99.901,87.222 L 99.57,87.57 L 99.222,87.901 L 98.86,88.215 L 98.482,88.512 L 98.09,88.791 L 97.684,89.051 L 97.265,89.292 L 96.834,89.513 L 96.391,89.714 L 95.937,89.893 L 95.472,90.05 L 94.998,90.185 L 94.514,90.297 L 94.022,90.385 L 93.522,90.448 L 93.014,90.487 L 92.5,90.5 C 86.98,90.5 82.5,86.02 82.5,80.5 C 82.5,74.98 86.98,70.5 92.5,70.5 C 98.02,70.5 102.5,74.98 102.5,80.5 z "
   style="stroke:#ffffff;stroke-width:2;stroke-linecap:round;stroke-linejoin:round"
   id="path5666" />
<path
   d="M 66.992,140.5 L 66.981,140.71 L 66.948,140.91 L 66.894,141.11 L 66.82,141.31 L 66.725,141.51 L 66.61,141.7 L 66.477,141.89 L 66.324,142.07 L 66.154,142.25 L 65.967,142.42 L 65.762,142.59 L 65.541,142.76 L 65.304,142.92 L 65.052,143.07 L 64.785,143.22 L 64.504,143.36 L 64.209,143.49 L 63.901,143.62 L 63.58,143.74 L 63.247,143.85 L 62.902,143.95 L 62.547,144.05 L 62.181,144.14 L 61.804,144.22 L 61.419,144.29 L 61.024,144.36 L 60.621,144.41 L 60.211,144.46 L 59.793,144.49 L 59.368,144.52 L 58.937,144.53 L 58.5,144.54 C 53.812,144.54 50.008,142.73 50.008,140.5 C 50.008,138.27 53.812,136.46 58.5,136.46 C 63.188,136.46 66.992,138.27 66.992,140.5 z "
   style="fill:#ffffff;fill-rule:nonzero;stroke:#ffffff;stroke-width:0;stroke-linecap:round;stroke-linejoin:round"
   id="path5668" />
<path
   d="M 66.992,140.5 L 66.981,140.71 L 66.948,140.91 L 66.894,141.11 L 66.82,141.31 L 66.725,141.51 L 66.61,141.7 L 66.477,141.89 L 66.324,142.07 L 66.154,142.25 L 65.967,142.42 L 65.762,142.59 L 65.541,142.76 L 65.304,142.92 L 65.052,143.07 L 64.785,143.22 L 64.504,143.36 L 64.209,143.49 L 63.901,143.62 L 63.58,143.74 L 63.247,143.85 L 62.902,143.95 L 62.547,144.05 L 62.181,144.14 L 61.804,144.22 L 61.419,144.29 L 61.024,144.36 L 60.621,144.41 L 60.211,144.46 L 59.793,144.49 L 59.368,144.52 L 58.937,144.53 L 58.5,144.54 C 53.812,144.54 50.008,142.73 50.008,140.5 C 50.008,138.27 53.812,136.46 58.5,136.46 C 63.188,136.46 66.992,138.27 66.992,140.5 z "
   style="stroke-width:0.84906;stroke-linecap:round;stroke-linejoin:round"
   id="path5670" />
<text
   transform="matrix(1,0,0,-1,53.191,137.98)"
   style="font-size:8px;fill:#000000;stroke:none;font-family:&quot;Helvetica&quot;, sans-serif"
   id="text5672">10</text>


<polygon
   points="46.5,160.5 138.5,160.5 184.5,80.5 138.5,0.5 46.5,0.5 0.5,80.5 46.5,160.5 "
   style="stroke-width:1;stroke-linejoin:round"
   id="polygon5674" />
</g></svg>
