<?xml version="1.0" encoding="UTF-8" standalone="no"?>
<svg
   xmlns:dc="http://purl.org/dc/elements/1.1/"
   xmlns:cc="http://creativecommons.org/ns#"
   xmlns:rdf="http://www.w3.org/1999/02/22-rdf-syntax-ns#"
   xmlns:svg="http://www.w3.org/2000/svg"
   xmlns="http://www.w3.org/2000/svg"
   xmlns:sodipodi="http://sodipodi.sourceforge.net/DTD/sodipodi-0.dtd"
   xmlns:inkscape="http://www.inkscape.org/namespaces/inkscape"
   version="1.1"
   id="svg2"
   inkscape:version="0.48.4 r9939"
   width="100%"
   height="100%"
   sodipodi:docname="tile8856.svg">
  <metadata
     id="metadata46">
    <rdf:RDF>
      <cc:Work
         rdf:about="">
        <dc:format>image/svg+xml</dc:format>
        <dc:type
           rdf:resource="http://purl.org/dc/dcmitype/StillImage" />
      </cc:Work>
    </rdf:RDF>
  </metadata>
  <defs
     id="defs44" />
  <sodipodi:namedview
     pagecolor="#ffffff"
     bordercolor="#666666"
     borderopacity="1"
     objecttolerance="10"
     gridtolerance="10"
     guidetolerance="10"
     inkscape:pageopacity="0"
     inkscape:pageshadow="2"
     inkscape:window-width="1615"
     inkscape:window-height="1026"
     id="namedview42"
     showgrid="false"
     inkscape:zoom="0.78300039"
     inkscape:cx="372.04724"
     inkscape:cy="526.18109"
     inkscape:window-x="65"
     inkscape:window-y="24"
     inkscape:window-maximized="1"
     inkscape:current-layer="svg2" />
  <path
     d=" M 98,0 L 294,0 L 392,170 L 294,340 L 98,340 L 0,170 Z"
     fill="#FFFF00"
     stroke="#FFFF00"
     stroke-width="1"
     stroke-linejoin="round"
     id="path4" />
  <text
     x="259.04852"
     y="328.2171"
     dy="0"
     font-size="34"
     id="text6"
     style="font-size:34px;text-anchor:middle;fill:#000000;stroke:#000000;font-family:Arial">8856</text>
  <line
     x1="177"
     y1="257"
     x2="235"
     y2="271"
     stroke="#FFFFFF"
     stroke-width="34"
     stroke-linecap="butt"
     id="line8" />
  <line
     x1="177"
     y1="83"
     x2="235"
     y2="69"
     stroke="#FFFFFF"
     stroke-width="34"
     stroke-linecap="butt"
     id="line10" />
  <path
     d="M 206,264 A 294,294 0 0,0 196,340"
     fill="none"
     stroke="#FFFFFF"
     stroke-width="34"
     stroke-linecap="butt"
     stroke-linejoin="round"
     id="path12" />
  <path
     d="M 196,0 A 294,294 0 0,0 206,76"
     fill="none"
     stroke="#FFFFFF"
     stroke-width="34"
     stroke-linecap="butt"
     stroke-linejoin="round"
     id="path14" />
  <path
     d="M 343,85 A 294,294 0 0,0 206,264"
     fill="none"
     stroke="#FFFFFF"
     stroke-width="34"
     stroke-linecap="butt"
     stroke-linejoin="round"
     id="path16" />
  <path
     d="M 206,76 A 294,294 0 0,0 343,255"
     fill="none"
     stroke="#FFFFFF"
     stroke-width="34"
     stroke-linecap="butt"
     stroke-linejoin="round"
     id="path18" />
  <path
     d="M 206,264 A 294,294 0 0,0 196,340"
     fill="none"
     stroke="#000000"
     stroke-width="26"
     stroke-linecap="butt"
     stroke-linejoin="round"
     id="path20" />
  <path
     d="M 196,0 A 294,294 0 0,0 206,76"
     fill="none"
     stroke="#000000"
     stroke-width="26"
     stroke-linecap="butt"
     stroke-linejoin="round"
     id="path22" />
  <path
     d="M 343,85 A 294,294 0 0,0 206,264"
     fill="none"
     stroke="#000000"
     stroke-width="26"
     stroke-linecap="butt"
     stroke-linejoin="round"
     id="path24" />
  <path
     d="M 206,76 A 294,294 0 0,0 343,255"
     fill="none"
     stroke="#000000"
     stroke-width="26"
     stroke-linecap="butt"
     stroke-linejoin="round"
     id="path26" />
  <line
     x1="181"
     y1="258"
     x2="231"
     y2="270"
     stroke="#000000"
     stroke-width="26"
     stroke-linecap="butt"
     id="line28" />
  <ellipse
     rx="38"
     ry="34"
     cx="123"
     cy="43"
     fill="#FFFFFF"
     stroke="#000000"
     stroke-width="2"
     stroke-linejoin="round"
     id="ellipse30" />
  <text
     x="123"
     y="57.048523"
     dy="0"
     font-size="51"
     id="text32"
     style="font-size:51px;text-anchor:middle;fill:#000000;stroke:#000000;font-family:Bookman Old Style">20</text>
  <line
     x1="181"
     y1="82"
     x2="231"
     y2="70"
     stroke="#000000"
     stroke-width="26"
     stroke-linecap="butt"
     id="line34" />
  <ellipse
     rx="38"
     ry="34"
     cx="269"
     cy="297"
     id="ellipse36"
     sodipodi:cx="269"
     sodipodi:cy="297"
     sodipodi:rx="38"
     sodipodi:ry="34"
     transform="translate(-149.42521,-39.591296)"
     style="fill:#ffffff;stroke:#000000;stroke-width:2;stroke-linejoin:round" />
  <text
     x="119.57479"
     y="276.5658"
     dy="0"
     font-size="51"
     id="text38"
     style="font-size:51px;text-anchor:middle;fill:#000000;stroke:#000000;font-family:Bookman Old Style">20</text>
  <path
     d=" M 98,0 L 294,0 L 392,170 L 294,340 L 98,340 L 0,170 Z"
     fill="none"
     stroke="black"
     stroke-width="1"
     stroke-linejoin="round"
     id="path40" />
</svg>
