<?xml version="1.0" encoding="UTF-8" standalone="no"?>
<svg
   xmlns:dc="http://purl.org/dc/elements/1.1/"
   xmlns:cc="http://web.resource.org/cc/"
   xmlns:rdf="http://www.w3.org/1999/02/22-rdf-syntax-ns#"
   xmlns:svg="http://www.w3.org/2000/svg"
   xmlns="http://www.w3.org/2000/svg"
   xmlns:sodipodi="http://inkscape.sourceforge.net/DTD/sodipodi-0.dtd"
   xmlns:inkscape="http://www.inkscape.org/namespaces/inkscape"
   width="100"
   height="100"
   viewBox="0 0 1 1"
   preserveAspectRatio="none"
   id="svg4639"
   sodipodi:version="0.32"
   inkscape:version="0.43"
   sodipodi:docname="tile-10.svg"
   sodipodi:docbase="C:\Documents and Settings\lentz\workspace\18xx\tiles\svg"
   version="1.0">
  <metadata
     id="metadata4666">
    <rdf:RDF>
      <cc:Work
         rdf:about="">
        <dc:format>image/svg+xml</dc:format>
        <dc:type
           rdf:resource="http://purl.org/dc/dcmitype/StillImage" />
      </cc:Work>
    </rdf:RDF>
  </metadata>
  <defs
     id="defs4664" />
  <sodipodi:namedview
     inkscape:window-height="540"
     inkscape:window-width="749"
     inkscape:pageshadow="2"
     inkscape:pageopacity="0.0"
     borderopacity="1.0"
     bordercolor="#666666"
     pagecolor="#ffffff"
     id="base"
     inkscape:zoom="0.52361111"
     inkscape:cx="360"
     inkscape:cy="360"
     inkscape:window-x="22"
     inkscape:window-y="22"
     inkscape:current-layer="svg4639" />
  <title
     id="title4641">SVG drawing</title>
  <desc
     id="desc4643">This was produced by version 4.1 of GNU libplot, a free library for exporting 2-D vector graphics.</desc>
  <g
     transform="matrix(5.418114e-3,0,0,-6.213736e-3,-1.175565e-3,1.000871)"
     xml:space="preserve"
     style="font-style:normal;font-variant:normal;font-weight:normal;font-stretch:normal;letter-spacing:normal;word-spacing:normal;text-anchor:start;fill:none;fill-opacity:1;stroke:#000000;stroke-linecap:butt;stroke-linejoin:miter;stroke-miterlimit:10.43299961;stroke-dasharray:none;stroke-dashoffset:0;stroke-opacity:1"
     id="g4647">
<polygon
   points="46.5,160.5 138.5,160.5 184.5,80.5 138.5,0.5 46.5,0.5 0.5,80.5 46.5,160.5 "
   style="fill:#c0dcc0;fill-rule:nonzero;stroke:#c0dcc0;stroke-width:0;stroke-linejoin:round"
   id="polygon4649" />
<text
   transform="matrix(1,0,0,-1,109.72,7.9141)"
   style="font-size:8px;fill:#000000;stroke:none;font-family:&quot;Helvetica&quot;, sans-serif"
   id="text4651">-10</text>


<path
   d="M 116.5,40.5 L 116.47,41.735 L 116.38,42.954 L 116.22,44.155 L 116.01,45.337 L 115.74,46.498 L 115.42,47.637 L 115.04,48.752 L 114.61,49.841 L 114.13,50.905 L 113.6,51.939 L 113.03,52.944 L 112.4,53.918 L 111.73,54.859 L 111.02,55.766 L 110.26,56.637 L 109.47,57.47 L 108.64,58.265 L 107.77,59.019 L 106.86,59.732 L 105.92,60.401 L 104.94,61.025 L 103.94,61.603 L 102.9,62.133 L 101.84,62.614 L 100.75,63.044 L 99.637,63.421 L 98.498,63.744 L 97.337,64.012 L 96.155,64.223 L 94.954,64.376 L 93.735,64.469 L 92.5,64.5 C 79.246,64.5 68.5,53.754 68.5,40.5 C 68.5,27.246 79.246,16.5 92.5,16.5 C 105.75,16.5 116.5,27.246 116.5,40.5 z "
   style="fill:#ffffff;fill-rule:nonzero;stroke:#ffffff;stroke-width:0;stroke-linecap:round;stroke-linejoin:round"
   id="path4653" />
<path
   d="M 116.5,40.5 L 116.47,41.735 L 116.38,42.954 L 116.22,44.155 L 116.01,45.337 L 115.74,46.498 L 115.42,47.637 L 115.04,48.752 L 114.61,49.841 L 114.13,50.905 L 113.6,51.939 L 113.03,52.944 L 112.4,53.918 L 111.73,54.859 L 111.02,55.766 L 110.26,56.637 L 109.47,57.47 L 108.64,58.265 L 107.77,59.019 L 106.86,59.732 L 105.92,60.401 L 104.94,61.025 L 103.94,61.603 L 102.9,62.133 L 101.84,62.614 L 100.75,63.044 L 99.637,63.421 L 98.498,63.744 L 97.337,64.012 L 96.155,64.223 L 94.954,64.376 L 93.735,64.469 L 92.5,64.5 C 79.246,64.5 68.5,53.754 68.5,40.5 C 68.5,27.246 79.246,16.5 92.5,16.5 C 105.75,16.5 116.5,27.246 116.5,40.5 z "
   style="stroke:#ffffff;stroke-width:6;stroke-linecap:round;stroke-linejoin:round"
   id="path4655" />
<path
   d="M 116.5,40.5 L 116.47,41.735 L 116.38,42.954 L 116.22,44.155 L 116.01,45.337 L 115.74,46.498 L 115.42,47.637 L 115.04,48.752 L 114.61,49.841 L 114.13,50.905 L 113.6,51.939 L 113.03,52.944 L 112.4,53.918 L 111.73,54.859 L 111.02,55.766 L 110.26,56.637 L 109.47,57.47 L 108.64,58.265 L 107.77,59.019 L 106.86,59.732 L 105.92,60.401 L 104.94,61.025 L 103.94,61.603 L 102.9,62.133 L 101.84,62.614 L 100.75,63.044 L 99.637,63.421 L 98.498,63.744 L 97.337,64.012 L 96.155,64.223 L 94.954,64.376 L 93.735,64.469 L 92.5,64.5 C 79.246,64.5 68.5,53.754 68.5,40.5 C 68.5,27.246 79.246,16.5 92.5,16.5 C 105.75,16.5 116.5,27.246 116.5,40.5 z "
   style="fill:#ffffff;fill-rule:nonzero;stroke:#ffffff;stroke-width:0;stroke-linecap:round;stroke-linejoin:round"
   id="path4657" />
<path
   d="M 116.5,40.5 L 116.47,41.735 L 116.38,42.954 L 116.22,44.155 L 116.01,45.337 L 115.74,46.498 L 115.42,47.637 L 115.04,48.752 L 114.61,49.841 L 114.13,50.905 L 113.6,51.939 L 113.03,52.944 L 112.4,53.918 L 111.73,54.859 L 111.02,55.766 L 110.26,56.637 L 109.47,57.47 L 108.64,58.265 L 107.77,59.019 L 106.86,59.732 L 105.92,60.401 L 104.94,61.025 L 103.94,61.603 L 102.9,62.133 L 101.84,62.614 L 100.75,63.044 L 99.637,63.421 L 98.498,63.744 L 97.337,64.012 L 96.155,64.223 L 94.954,64.376 L 93.735,64.469 L 92.5,64.5 C 79.246,64.5 68.5,53.754 68.5,40.5 C 68.5,27.246 79.246,16.5 92.5,16.5 C 105.75,16.5 116.5,27.246 116.5,40.5 z "
   style="stroke-width:2;stroke-linecap:round;stroke-linejoin:round"
   id="path4659" />
<polygon
   points="46.5,160.5 138.5,160.5 184.5,80.5 138.5,0.5 46.5,0.5 0.5,80.5 46.5,160.5 "
   style="stroke-width:1;stroke-linejoin:round"
   id="polygon4661" />
</g></svg>
