<?xml version="1.0" encoding="UTF-8" standalone="no"?>
<svg
   xmlns:dc="http://purl.org/dc/elements/1.1/"
   xmlns:cc="http://web.resource.org/cc/"
   xmlns:rdf="http://www.w3.org/1999/02/22-rdf-syntax-ns#"
   xmlns:svg="http://www.w3.org/2000/svg"
   xmlns="http://www.w3.org/2000/svg"
   xmlns:sodipodi="http://inkscape.sourceforge.net/DTD/sodipodi-0.dtd"
   xmlns:inkscape="http://www.inkscape.org/namespaces/inkscape"
   width="100"
   height="100"
   viewBox="0 0 1 1"
   preserveAspectRatio="none"
   id="svg4938"
   sodipodi:version="0.32"
   inkscape:version="0.43"
   sodipodi:docname="tile-102.svg"
   sodipodi:docbase="C:\Documents and Settings\lentz\workspace\18xx\tiles\svg"
   version="1.0">
  <metadata
     id="metadata4977">
    <rdf:RDF>
      <cc:Work
         rdf:about="">
        <dc:format>image/svg+xml</dc:format>
        <dc:type
           rdf:resource="http://purl.org/dc/dcmitype/StillImage" />
      </cc:Work>
    </rdf:RDF>
  </metadata>
  <defs
     id="defs4975" />
  <sodipodi:namedview
     inkscape:window-height="540"
     inkscape:window-width="749"
     inkscape:pageshadow="2"
     inkscape:pageopacity="0.0"
     borderopacity="1.0"
     bordercolor="#666666"
     pagecolor="#ffffff"
     id="base"
     inkscape:zoom="0.52361111"
     inkscape:cx="360"
     inkscape:cy="360"
     inkscape:window-x="88"
     inkscape:window-y="88"
     inkscape:current-layer="svg4938" />
  <title
     id="title4940">SVG drawing</title>
  <desc
     id="desc4942">This was produced by version 4.1 of GNU libplot, a free library for exporting 2-D vector graphics.</desc>
  <g
     transform="matrix(5.418114e-3,0,0,-5.739835e-3,-1.175565e-3,0.934679)"
     xml:space="preserve"
     style="font-style:normal;font-variant:normal;font-weight:normal;font-stretch:normal;letter-spacing:normal;word-spacing:normal;text-anchor:start;fill:none;fill-opacity:1;stroke:#000000;stroke-linecap:butt;stroke-linejoin:miter;stroke-miterlimit:10.43299961;stroke-dasharray:none;stroke-dashoffset:0;stroke-opacity:1"
     id="g4946">
<polygon
   points="46.5,160.5 138.5,160.5 184.5,80.5 138.5,0.5 46.5,0.5 0.5,80.5 46.5,160.5 "
   style="fill:#c0c0c0;fill-rule:nonzero;stroke:#c0c0c0;stroke-width:0;stroke-linejoin:round"
   id="polygon4948" />
<text
   transform="matrix(1,0,0,-1,107.7,7.9141)"
   style="font-size:8px;fill:#000000;stroke:none;font-family:&quot;Helvetica&quot;, sans-serif"
   id="text4950">-102</text>


<path
   d="M 133.5,50.5 L 133.47,51.735 L 133.38,52.954 L 133.22,54.155 L 133.01,55.337 L 132.74,56.498 L 132.42,57.637 L 132.04,58.752 L 131.61,59.841 L 131.13,60.905 L 130.6,61.939 L 130.03,62.944 L 129.4,63.918 L 128.73,64.859 L 128.02,65.766 L 127.26,66.637 L 126.47,67.47 L 125.64,68.265 L 124.77,69.019 L 123.86,69.732 L 122.92,70.401 L 121.94,71.025 L 120.94,71.603 L 119.9,72.133 L 118.84,72.614 L 117.75,73.044 L 116.64,73.421 L 115.5,73.744 L 114.34,74.012 L 113.15,74.223 L 111.95,74.376 L 110.73,74.469 L 109.5,74.5 C 96.246,74.5 85.5,63.754 85.5,50.5 C 85.5,37.246 96.246,26.5 109.5,26.5 C 122.75,26.5 133.5,37.246 133.5,50.5 z "
   style="fill:#ffffff;fill-rule:nonzero;stroke:#ffffff;stroke-width:0;stroke-linecap:round;stroke-linejoin:round"
   id="path4952" />
<path
   d="M 133.5,50.5 L 133.47,51.735 L 133.38,52.954 L 133.22,54.155 L 133.01,55.337 L 132.74,56.498 L 132.42,57.637 L 132.04,58.752 L 131.61,59.841 L 131.13,60.905 L 130.6,61.939 L 130.03,62.944 L 129.4,63.918 L 128.73,64.859 L 128.02,65.766 L 127.26,66.637 L 126.47,67.47 L 125.64,68.265 L 124.77,69.019 L 123.86,69.732 L 122.92,70.401 L 121.94,71.025 L 120.94,71.603 L 119.9,72.133 L 118.84,72.614 L 117.75,73.044 L 116.64,73.421 L 115.5,73.744 L 114.34,74.012 L 113.15,74.223 L 111.95,74.376 L 110.73,74.469 L 109.5,74.5 C 96.246,74.5 85.5,63.754 85.5,50.5 C 85.5,37.246 96.246,26.5 109.5,26.5 C 122.75,26.5 133.5,37.246 133.5,50.5 z "
   style="stroke:#ffffff;stroke-width:6;stroke-linecap:round;stroke-linejoin:round"
   id="path4954" />
<path
   d="M 161.5,120.5 L 161.71,120.13 C 137.3,106.1 117.76,84.918 105.73,59.453"
   style="stroke:#ffffff;stroke-width:16;stroke-linecap:round;stroke-linejoin:round"
   id="path4956" />
<path
   d="M 103.5,60.5 L 105.73,59.453 C 97.02,41.023 92.5,20.887 92.5,0.5"
   style="stroke:#ffffff;stroke-width:16;stroke-linecap:round;stroke-linejoin:round"
   id="path4958" />
<path
   d="M 103.5,60.5 L 103.32,58.074 C 99.723,58.355 96.109,58.5 92.5,58.5 C 68.359,58.5 44.637,52.164 23.711,40.133"
   style="stroke:#ffffff;stroke-width:16;stroke-linecap:round;stroke-linejoin:round"
   id="path4960" />
<path
   d="M 161.5,120.5 L 161.71,120.13 C 137.3,106.1 117.76,84.918 105.73,59.453"
   style="stroke-width:12;stroke-linecap:round;stroke-linejoin:round"
   id="path4962" />
<path
   d="M 103.5,60.5 L 105.73,59.453 C 97.02,41.023 92.5,20.887 92.5,0.5"
   style="stroke-width:12;stroke-linecap:round;stroke-linejoin:round"
   id="path4964" />
<path
   d="M 103.5,60.5 L 103.32,58.074 C 99.723,58.355 96.109,58.5 92.5,58.5 C 68.359,58.5 44.637,52.164 23.711,40.133"
   style="stroke-width:12;stroke-linecap:round;stroke-linejoin:round"
   id="path4966" />
<path
   d="M 133.5,50.5 L 133.47,51.735 L 133.38,52.954 L 133.22,54.155 L 133.01,55.337 L 132.74,56.498 L 132.42,57.637 L 132.04,58.752 L 131.61,59.841 L 131.13,60.905 L 130.6,61.939 L 130.03,62.944 L 129.4,63.918 L 128.73,64.859 L 128.02,65.766 L 127.26,66.637 L 126.47,67.47 L 125.64,68.265 L 124.77,69.019 L 123.86,69.732 L 122.92,70.401 L 121.94,71.025 L 120.94,71.603 L 119.9,72.133 L 118.84,72.614 L 117.75,73.044 L 116.64,73.421 L 115.5,73.744 L 114.34,74.012 L 113.15,74.223 L 111.95,74.376 L 110.73,74.469 L 109.5,74.5 C 96.246,74.5 85.5,63.754 85.5,50.5 C 85.5,37.246 96.246,26.5 109.5,26.5 C 122.75,26.5 133.5,37.246 133.5,50.5 z "
   style="fill:#ffffff;fill-rule:nonzero;stroke:#ffffff;stroke-width:0;stroke-linecap:round;stroke-linejoin:round"
   id="path4968" />
<path
   d="M 133.5,50.5 L 133.47,51.735 L 133.38,52.954 L 133.22,54.155 L 133.01,55.337 L 132.74,56.498 L 132.42,57.637 L 132.04,58.752 L 131.61,59.841 L 131.13,60.905 L 130.6,61.939 L 130.03,62.944 L 129.4,63.918 L 128.73,64.859 L 128.02,65.766 L 127.26,66.637 L 126.47,67.47 L 125.64,68.265 L 124.77,69.019 L 123.86,69.732 L 122.92,70.401 L 121.94,71.025 L 120.94,71.603 L 119.9,72.133 L 118.84,72.614 L 117.75,73.044 L 116.64,73.421 L 115.5,73.744 L 114.34,74.012 L 113.15,74.223 L 111.95,74.376 L 110.73,74.469 L 109.5,74.5 C 96.246,74.5 85.5,63.754 85.5,50.5 C 85.5,37.246 96.246,26.5 109.5,26.5 C 122.75,26.5 133.5,37.246 133.5,50.5 z "
   style="stroke-width:2;stroke-linecap:round;stroke-linejoin:round"
   id="path4970" />
<polygon
   points="46.5,160.5 138.5,160.5 184.5,80.5 138.5,0.5 46.5,0.5 0.5,80.5 46.5,160.5 "
   style="stroke-width:1;stroke-linejoin:round"
   id="polygon4972" />
</g></svg>
