<?xml version="1.0" encoding="UTF-8" standalone="no"?>
<svg
   xmlns:dc="http://purl.org/dc/elements/1.1/"
   xmlns:cc="http://web.resource.org/cc/"
   xmlns:rdf="http://www.w3.org/1999/02/22-rdf-syntax-ns#"
   xmlns:svg="http://www.w3.org/2000/svg"
   xmlns="http://www.w3.org/2000/svg"
   xmlns:sodipodi="http://sodipodi.sourceforge.net/DTD/sodipodi-0.dtd"
   xmlns:inkscape="http://www.inkscape.org/namespaces/inkscape"
   version="1.0"
   baseProfile="full"
   id="body"
   width="100"
   height="100"
   viewBox="0 0 1 1"
   preserveAspectRatio="none"
   sodipodi:version="0.32"
   inkscape:version="0.45.1"
   inkscape:output_extension="org.inkscape.output.svg.inkscape"
   sodipodi:docbase="/home/blentz/Desktop/18EU_Tiles"
   sodipodi:docname="tile-5.svg">
  <metadata
     id="metadata822">
    <rdf:RDF>
      <cc:Work
         rdf:about="">
        <dc:format>image/svg+xml</dc:format>
        <dc:type
           rdf:resource="http://purl.org/dc/dcmitype/StillImage" />
      </cc:Work>
    </rdf:RDF>
  </metadata>
  <defs
     id="defs820" />
  <sodipodi:namedview
     inkscape:window-height="592"
     inkscape:window-width="822"
     inkscape:pageshadow="2"
     inkscape:pageopacity="0.0"
     guidetolerance="10.0"
     gridtolerance="10.0"
     objecttolerance="10.0"
     borderopacity="1.0"
     bordercolor="#666666"
     pagecolor="#ffffff"
     id="base"
     width="100px"
     height="100px"
     inkscape:zoom="2.0781395"
     inkscape:cx="83.588391"
     inkscape:cy="30.395778"
     inkscape:window-x="50"
     inkscape:window-y="25"
     inkscape:current-layer="body" />
  <title
     id="title771">SVG drawing</title>
  <desc
     id="desc773">This was produced by version 4.2 of GNU libplot, a free library for exporting 2-D vector graphics.</desc>
  <g
     id="content"
     transform="matrix(5.4034205e-3,0,0,-6.1627746e-3,1.8360008e-4,0.9985117)"
     xml:space="preserve"
     stroke-miterlimit="10.433"
     fill-rule="evenodd"
     font-style="normal"
     font-variant="normal"
     font-weight="normal"
     font-stretch="normal"
     font-size-adjust="none"
     letter-spacing="normal"
     word-spacing="normal"
     style="font-style:normal;font-variant:normal;font-weight:normal;font-stretch:normal;letter-spacing:normal;word-spacing:normal;text-anchor:start;fill:none;fill-opacity:1;stroke:#000000;stroke-linecap:butt;stroke-linejoin:miter;stroke-miterlimit:10.43299961;stroke-dasharray:none;stroke-dashoffset:0;stroke-opacity:1">
<polygon
   points="46.5,160.5 138.5,160.5 184.5,80.5 138.5,0.5 46.5,0.5 0.5,80.5 46.5,160.5 "
   id="polygon777"
   style="fill:#ffff00;fill-rule:nonzero;stroke:#ffff00;stroke-width:0;stroke-linejoin:round" />
<path
   d="M 150.5,100.5 L 150.47,101.73 L 150.38,102.95 L 150.22,104.15 L 150.01,105.34 L 149.74,106.5 L 149.42,107.64 L 149.04,108.75 L 148.61,109.84 L 148.13,110.9 L 147.6,111.94 L 147.03,112.94 L 146.4,113.92 L 145.73,114.86 L 145.02,115.77 L 144.26,116.64 L 143.47,117.47 L 142.64,118.26 L 141.77,119.02 L 140.86,119.73 L 139.92,120.4 L 138.94,121.03 L 137.94,121.6 L 136.9,122.13 L 135.84,122.61 L 134.75,123.04 L 133.64,123.42 L 132.5,123.74 L 131.34,124.01 L 130.15,124.22 L 128.95,124.38 L 127.73,124.47 L 126.5,124.5 C 113.25,124.5 102.5,113.75 102.5,100.5 C 102.5,87.246 113.25,76.5 126.5,76.5 C 139.75,76.5 150.5,87.246 150.5,100.5 z "
   id="path779"
   style="fill:#ffffff;fill-rule:nonzero;stroke:#ffffff;stroke-width:0;stroke-linecap:round;stroke-linejoin:round" />
<path
   d="M 150.5,100.5 L 150.47,101.73 L 150.38,102.95 L 150.22,104.15 L 150.01,105.34 L 149.74,106.5 L 149.42,107.64 L 149.04,108.75 L 148.61,109.84 L 148.13,110.9 L 147.6,111.94 L 147.03,112.94 L 146.4,113.92 L 145.73,114.86 L 145.02,115.77 L 144.26,116.64 L 143.47,117.47 L 142.64,118.26 L 141.77,119.02 L 140.86,119.73 L 139.92,120.4 L 138.94,121.03 L 137.94,121.6 L 136.9,122.13 L 135.84,122.61 L 134.75,123.04 L 133.64,123.42 L 132.5,123.74 L 131.34,124.01 L 130.15,124.22 L 128.95,124.38 L 127.73,124.47 L 126.5,124.5 C 113.25,124.5 102.5,113.75 102.5,100.5 C 102.5,87.246 113.25,76.5 126.5,76.5 C 139.75,76.5 150.5,87.246 150.5,100.5 z "
   id="path781"
   style="stroke:#ffffff;stroke-width:6;stroke-linecap:round;stroke-linejoin:round" />
<path
   d="M 82.5,60.5 L 82.469,61.735 L 82.376,62.954 L 82.223,64.155 L 82.012,65.337 L 81.744,66.498 L 81.421,67.637 L 81.044,68.752 L 80.614,69.841 L 80.133,70.905 L 79.603,71.939 L 79.025,72.944 L 78.401,73.918 L 77.732,74.859 L 77.019,75.766 L 76.265,76.637 L 75.47,77.47 L 74.637,78.265 L 73.766,79.019 L 72.859,79.732 L 71.918,80.401 L 70.944,81.025 L 69.939,81.603 L 68.905,82.133 L 67.841,82.614 L 66.752,83.044 L 65.637,83.421 L 64.498,83.744 L 63.337,84.012 L 62.155,84.223 L 60.954,84.376 L 59.735,84.469 L 58.5,84.5 C 45.246,84.5 34.5,73.754 34.5,60.5 C 34.5,47.246 45.246,36.5 58.5,36.5 C 71.754,36.5 82.5,47.246 82.5,60.5 z "
   id="path783"
   style="fill:#ffffff;fill-rule:nonzero;stroke:#ffffff;stroke-width:0;stroke-linecap:round;stroke-linejoin:round" />
<path
   d="M 82.5,60.5 L 82.469,61.735 L 82.376,62.954 L 82.223,64.155 L 82.012,65.337 L 81.744,66.498 L 81.421,67.637 L 81.044,68.752 L 80.614,69.841 L 80.133,70.905 L 79.603,71.939 L 79.025,72.944 L 78.401,73.918 L 77.732,74.859 L 77.019,75.766 L 76.265,76.637 L 75.47,77.47 L 74.637,78.265 L 73.766,79.019 L 72.859,79.732 L 71.918,80.401 L 70.944,81.025 L 69.939,81.603 L 68.905,82.133 L 67.841,82.614 L 66.752,83.044 L 65.637,83.421 L 64.498,83.744 L 63.337,84.012 L 62.155,84.223 L 60.954,84.376 L 59.735,84.469 L 58.5,84.5 C 45.246,84.5 34.5,73.754 34.5,60.5 C 34.5,47.246 45.246,36.5 58.5,36.5 C 71.754,36.5 82.5,47.246 82.5,60.5 z "
   id="path785"
   style="stroke:#ffffff;stroke-width:6;stroke-linecap:round;stroke-linejoin:round" />
<path
   d="M 92.5,160.5 L 92.5,160.5 C 92.5,144.04 101.3,128.82 115.57,120.62 L 126.5,100.5"
   id="path787"
   style="stroke:#ffffff;stroke-width:16;stroke-linecap:round;stroke-linejoin:round" />
<path
   d="M 92.5,0.5 L 92.5,0.5 C 92.5,16.961 83.703,32.176 69.434,40.379 L 58.5,60.5"
   id="path789"
   style="stroke:#ffffff;stroke-width:16;stroke-linecap:round;stroke-linejoin:round" />
<path
   d="M 92.5,160.5 L 92.5,160.5 C 92.5,144.04 101.3,128.82 115.57,120.62 L 126.5,100.5"
   id="path791"
   style="stroke-width:12;stroke-linecap:round;stroke-linejoin:round" />
<path
   d="M 92.5,0.5 L 92.5,0.5 C 92.5,16.961 83.703,32.176 69.434,40.379 L 58.5,60.5"
   id="path793"
   style="stroke-width:12;stroke-linecap:round;stroke-linejoin:round" />
<path
   d="M 150.5,100.5 L 150.47,101.73 L 150.38,102.95 L 150.22,104.15 L 150.01,105.34 L 149.74,106.5 L 149.42,107.64 L 149.04,108.75 L 148.61,109.84 L 148.13,110.9 L 147.6,111.94 L 147.03,112.94 L 146.4,113.92 L 145.73,114.86 L 145.02,115.77 L 144.26,116.64 L 143.47,117.47 L 142.64,118.26 L 141.77,119.02 L 140.86,119.73 L 139.92,120.4 L 138.94,121.03 L 137.94,121.6 L 136.9,122.13 L 135.84,122.61 L 134.75,123.04 L 133.64,123.42 L 132.5,123.74 L 131.34,124.01 L 130.15,124.22 L 128.95,124.38 L 127.73,124.47 L 126.5,124.5 C 113.25,124.5 102.5,113.75 102.5,100.5 C 102.5,87.246 113.25,76.5 126.5,76.5 C 139.75,76.5 150.5,87.246 150.5,100.5 z "
   id="path795"
   style="fill:#ffffff;fill-rule:nonzero;stroke:#ffffff;stroke-width:0;stroke-linecap:round;stroke-linejoin:round" />
<path
   d="M 150.5,100.5 L 150.47,101.73 L 150.38,102.95 L 150.22,104.15 L 150.01,105.34 L 149.74,106.5 L 149.42,107.64 L 149.04,108.75 L 148.61,109.84 L 148.13,110.9 L 147.6,111.94 L 147.03,112.94 L 146.4,113.92 L 145.73,114.86 L 145.02,115.77 L 144.26,116.64 L 143.47,117.47 L 142.64,118.26 L 141.77,119.02 L 140.86,119.73 L 139.92,120.4 L 138.94,121.03 L 137.94,121.6 L 136.9,122.13 L 135.84,122.61 L 134.75,123.04 L 133.64,123.42 L 132.5,123.74 L 131.34,124.01 L 130.15,124.22 L 128.95,124.38 L 127.73,124.47 L 126.5,124.5 C 113.25,124.5 102.5,113.75 102.5,100.5 C 102.5,87.246 113.25,76.5 126.5,76.5 C 139.75,76.5 150.5,87.246 150.5,100.5 z "
   id="path797"
   style="stroke-width:2;stroke-linecap:round;stroke-linejoin:round" />
<path
   d="M 77.988,120.5 L 77.977,120.71 L 77.944,120.91 L 77.89,121.11 L 77.816,121.31 L 77.721,121.51 L 77.607,121.7 L 77.473,121.89 L 77.321,122.07 L 77.151,122.25 L 76.964,122.42 L 76.759,122.59 L 76.539,122.76 L 76.302,122.92 L 76.05,123.07 L 75.783,123.22 L 75.502,123.36 L 75.207,123.49 L 74.899,123.62 L 74.578,123.74 L 74.246,123.85 L 73.901,123.95 L 73.546,124.05 L 73.18,124.14 L 72.804,124.22 L 72.418,124.29 L 72.024,124.36 L 71.621,124.41 L 71.211,124.46 L 70.793,124.49 L 70.368,124.52 L 69.937,124.53 L 69.5,124.54 C 64.812,124.54 61.012,122.73 61.012,120.5 C 61.012,118.27 64.812,116.46 69.5,116.46 C 74.188,116.46 77.988,118.27 77.988,120.5 z "
   id="path799"
   style="fill:#ffffff;fill-rule:nonzero;stroke:#ffffff;stroke-width:0;stroke-linecap:round;stroke-linejoin:round" />
<path
   d="M 77.988,120.5 L 77.977,120.71 L 77.944,120.91 L 77.89,121.11 L 77.816,121.31 L 77.721,121.51 L 77.607,121.7 L 77.473,121.89 L 77.321,122.07 L 77.151,122.25 L 76.964,122.42 L 76.759,122.59 L 76.539,122.76 L 76.302,122.92 L 76.05,123.07 L 75.783,123.22 L 75.502,123.36 L 75.207,123.49 L 74.899,123.62 L 74.578,123.74 L 74.246,123.85 L 73.901,123.95 L 73.546,124.05 L 73.18,124.14 L 72.804,124.22 L 72.418,124.29 L 72.024,124.36 L 71.621,124.41 L 71.211,124.46 L 70.793,124.49 L 70.368,124.52 L 69.937,124.53 L 69.5,124.54 C 64.812,124.54 61.012,122.73 61.012,120.5 C 61.012,118.27 64.812,116.46 69.5,116.46 C 74.188,116.46 77.988,118.27 77.988,120.5 z "
   id="path801"
   style="stroke-width:0.84906;stroke-linecap:round;stroke-linejoin:round" />
<text
   transform="matrix(0.4,0,0,-0.4,64.195,117.98)"
   font-size="20px"
   id="text803"
   style="font-size:20px;fill:#000000;stroke:none;font-family:Helvetica, sans-serif">30</text>

<path
   d="M 82.5,60.5 L 82.469,61.735 L 82.376,62.954 L 82.223,64.155 L 82.012,65.337 L 81.744,66.498 L 81.421,67.637 L 81.044,68.752 L 80.614,69.841 L 80.133,70.905 L 79.603,71.939 L 79.025,72.944 L 78.401,73.918 L 77.732,74.859 L 77.019,75.766 L 76.265,76.637 L 75.47,77.47 L 74.637,78.265 L 73.766,79.019 L 72.859,79.732 L 71.918,80.401 L 70.944,81.025 L 69.939,81.603 L 68.905,82.133 L 67.841,82.614 L 66.752,83.044 L 65.637,83.421 L 64.498,83.744 L 63.337,84.012 L 62.155,84.223 L 60.954,84.376 L 59.735,84.469 L 58.5,84.5 C 45.246,84.5 34.5,73.754 34.5,60.5 C 34.5,47.246 45.246,36.5 58.5,36.5 C 71.754,36.5 82.5,47.246 82.5,60.5 z "
   id="path805"
   style="fill:#ffffff;fill-rule:nonzero;stroke:#ffffff;stroke-width:0;stroke-linecap:round;stroke-linejoin:round" />
<path
   d="M 82.5,60.5 L 82.469,61.735 L 82.376,62.954 L 82.223,64.155 L 82.012,65.337 L 81.744,66.498 L 81.421,67.637 L 81.044,68.752 L 80.614,69.841 L 80.133,70.905 L 79.603,71.939 L 79.025,72.944 L 78.401,73.918 L 77.732,74.859 L 77.019,75.766 L 76.265,76.637 L 75.47,77.47 L 74.637,78.265 L 73.766,79.019 L 72.859,79.732 L 71.918,80.401 L 70.944,81.025 L 69.939,81.603 L 68.905,82.133 L 67.841,82.614 L 66.752,83.044 L 65.637,83.421 L 64.498,83.744 L 63.337,84.012 L 62.155,84.223 L 60.954,84.376 L 59.735,84.469 L 58.5,84.5 C 45.246,84.5 34.5,73.754 34.5,60.5 C 34.5,47.246 45.246,36.5 58.5,36.5 C 71.754,36.5 82.5,47.246 82.5,60.5 z "
   id="path807"
   style="stroke-width:2;stroke-linecap:round;stroke-linejoin:round" />
<path
   d="M 77.988,120.5 L 77.977,120.71 L 77.944,120.91 L 77.89,121.11 L 77.816,121.31 L 77.721,121.51 L 77.607,121.7 L 77.473,121.89 L 77.321,122.07 L 77.151,122.25 L 76.964,122.42 L 76.759,122.59 L 76.539,122.76 L 76.302,122.92 L 76.05,123.07 L 75.783,123.22 L 75.502,123.36 L 75.207,123.49 L 74.899,123.62 L 74.578,123.74 L 74.246,123.85 L 73.901,123.95 L 73.546,124.05 L 73.18,124.14 L 72.804,124.22 L 72.418,124.29 L 72.024,124.36 L 71.621,124.41 L 71.211,124.46 L 70.793,124.49 L 70.368,124.52 L 69.937,124.53 L 69.5,124.54 C 64.812,124.54 61.012,122.73 61.012,120.5 C 61.012,118.27 64.812,116.46 69.5,116.46 C 74.188,116.46 77.988,118.27 77.988,120.5 z "
   id="path809"
   style="fill:#ffffff;fill-rule:nonzero;stroke:#ffffff;stroke-width:0;stroke-linecap:round;stroke-linejoin:round" />
<path
   d="M 77.988,120.5 L 77.977,120.71 L 77.944,120.91 L 77.89,121.11 L 77.816,121.31 L 77.721,121.51 L 77.607,121.7 L 77.473,121.89 L 77.321,122.07 L 77.151,122.25 L 76.964,122.42 L 76.759,122.59 L 76.539,122.76 L 76.302,122.92 L 76.05,123.07 L 75.783,123.22 L 75.502,123.36 L 75.207,123.49 L 74.899,123.62 L 74.578,123.74 L 74.246,123.85 L 73.901,123.95 L 73.546,124.05 L 73.18,124.14 L 72.804,124.22 L 72.418,124.29 L 72.024,124.36 L 71.621,124.41 L 71.211,124.46 L 70.793,124.49 L 70.368,124.52 L 69.937,124.53 L 69.5,124.54 C 64.812,124.54 61.012,122.73 61.012,120.5 C 61.012,118.27 64.812,116.46 69.5,116.46 C 74.188,116.46 77.988,118.27 77.988,120.5 z "
   id="path811"
   style="stroke-width:0.84906;stroke-linecap:round;stroke-linejoin:round" />
<text
   transform="matrix(0.4,0,0,-0.4,64.195,117.98)"
   font-size="20px"
   id="text813"
   style="font-size:20px;fill:#000000;stroke:none;font-family:Helvetica, sans-serif">30</text>

<text
   transform="matrix(0.8,0,0,-0.8,130.07,44.918)"
   font-size="20px"
   id="text815"
   style="font-size:20px;fill:#000000;stroke:none;font-family:Helvetica, sans-serif">B-V</text>

<polygon
   points="46.5,160.5 138.5,160.5 184.5,80.5 138.5,0.5 46.5,0.5 0.5,80.5 46.5,160.5 "
   id="polygon817"
   style="stroke-width:1;stroke-linejoin:round" />
</g></svg>
