<?xml version="1.0" encoding="UTF-8" standalone="no"?>
<svg
   xmlns:dc="http://purl.org/dc/elements/1.1/"
   xmlns:cc="http://web.resource.org/cc/"
   xmlns:rdf="http://www.w3.org/1999/02/22-rdf-syntax-ns#"
   xmlns:svg="http://www.w3.org/2000/svg"
   xmlns="http://www.w3.org/2000/svg"
   xmlns:sodipodi="http://sodipodi.sourceforge.net/DTD/sodipodi-0.dtd"
   xmlns:inkscape="http://www.inkscape.org/namespaces/inkscape"
   version="1.0"
   baseProfile="full"
   id="body"
   width="100"
   height="100"
   viewBox="0 0 1 1"
   preserveAspectRatio="none"
   sodipodi:version="0.32"
   inkscape:version="0.45.1"
   inkscape:output_extension="org.inkscape.output.svg.inkscape"
   sodipodi:docbase="/home/blentz/Desktop/18EU_Tiles"
   sodipodi:docname="tile-9.svg">
  <metadata
     id="metadata946">
    <rdf:RDF>
      <cc:Work
         rdf:about="">
        <dc:format>image/svg+xml</dc:format>
        <dc:type
           rdf:resource="http://purl.org/dc/dcmitype/StillImage" />
      </cc:Work>
    </rdf:RDF>
  </metadata>
  <defs
     id="defs944" />
  <sodipodi:namedview
     inkscape:window-height="592"
     inkscape:window-width="822"
     inkscape:pageshadow="2"
     inkscape:pageopacity="0.0"
     guidetolerance="10.0"
     gridtolerance="10.0"
     objecttolerance="10.0"
     borderopacity="1.0"
     bordercolor="#666666"
     pagecolor="#ffffff"
     id="base"
     width="100px"
     height="100px"
     inkscape:zoom="0.52638889"
     inkscape:cx="360"
     inkscape:cy="132.03166"
     inkscape:window-x="70"
     inkscape:window-y="121"
     inkscape:current-layer="body" />
  <title
     id="title929">SVG drawing</title>
  <desc
     id="desc931">This was produced by version 4.2 of GNU libplot, a free library for exporting 2-D vector graphics.</desc>
  <g
     id="content"
     transform="matrix(5.4032914e-3,0,0,-6.2137851e-3,1.9554658e-4,1.0002097)"
     xml:space="preserve"
     stroke-miterlimit="10.433"
     fill-rule="even-odd"
     font-style="normal"
     font-variant="normal"
     font-weight="normal"
     font-stretch="normal"
     font-size-adjust="none"
     letter-spacing="normal"
     word-spacing="normal"
     style="font-style:normal;font-variant:normal;font-weight:normal;font-stretch:normal;letter-spacing:normal;word-spacing:normal;text-anchor:start;fill:none;fill-opacity:1;stroke:#000000;stroke-linecap:butt;stroke-linejoin:miter;stroke-miterlimit:10.43299961;stroke-dasharray:none;stroke-dashoffset:0;stroke-opacity:1">
<polygon
   points="46.5,160.5 138.5,160.5 184.5,80.5 138.5,0.5 46.5,0.5 0.5,80.5 46.5,160.5 "
   id="polygon935"
   style="fill:#c4dcc4;fill-rule:nonzero;stroke:#c4dcc4;stroke-width:0;stroke-linejoin:round" />
<path
   d="M 102.5,80.5 L 102.49,81.014 L 102.45,81.522 L 102.38,82.022 L 102.3,82.514 L 102.18,82.998 L 102.05,83.472 L 101.89,83.937 L 101.71,84.391 L 101.51,84.834 L 101.29,85.265 L 101.05,85.684 L 100.79,86.09 L 100.51,86.482 L 100.22,86.86 L 99.901,87.222 L 99.57,87.57 L 99.222,87.901 L 98.86,88.215 L 98.482,88.512 L 98.09,88.791 L 97.684,89.051 L 97.265,89.292 L 96.834,89.513 L 96.391,89.714 L 95.937,89.893 L 95.472,90.05 L 94.998,90.185 L 94.514,90.297 L 94.022,90.385 L 93.522,90.448 L 93.014,90.487 L 92.5,90.5 C 86.98,90.5 82.5,86.02 82.5,80.5 C 82.5,74.98 86.98,70.5 92.5,70.5 C 98.02,70.5 102.5,74.98 102.5,80.5 z "
   id="path937"
   style="fill:#000000;fill-rule:nonzero;stroke-width:0;stroke-linecap:round;stroke-linejoin:round" />
<path
   d="M 102.5,80.5 L 102.49,81.014 L 102.45,81.522 L 102.38,82.022 L 102.3,82.514 L 102.18,82.998 L 102.05,83.472 L 101.89,83.937 L 101.71,84.391 L 101.51,84.834 L 101.29,85.265 L 101.05,85.684 L 100.79,86.09 L 100.51,86.482 L 100.22,86.86 L 99.901,87.222 L 99.57,87.57 L 99.222,87.901 L 98.86,88.215 L 98.482,88.512 L 98.09,88.791 L 97.684,89.051 L 97.265,89.292 L 96.834,89.513 L 96.391,89.714 L 95.937,89.893 L 95.472,90.05 L 94.998,90.185 L 94.514,90.297 L 94.022,90.385 L 93.522,90.448 L 93.014,90.487 L 92.5,90.5 C 86.98,90.5 82.5,86.02 82.5,80.5 C 82.5,74.98 86.98,70.5 92.5,70.5 C 98.02,70.5 102.5,74.98 102.5,80.5 z "
   id="path939"
   style="stroke:#ffffff;stroke-width:2;stroke-linecap:round;stroke-linejoin:round" />
<polygon
   points="46.5,160.5 138.5,160.5 184.5,80.5 138.5,0.5 46.5,0.5 0.5,80.5 46.5,160.5 "
   id="polygon941"
   style="stroke-width:1;stroke-linejoin:round" />
</g></svg>
