<?xml version="1.0" encoding="UTF-8" standalone="no"?>
<svg
   xmlns:dc="http://purl.org/dc/elements/1.1/"
   xmlns:cc="http://web.resource.org/cc/"
   xmlns:rdf="http://www.w3.org/1999/02/22-rdf-syntax-ns#"
   xmlns:svg="http://www.w3.org/2000/svg"
   xmlns="http://www.w3.org/2000/svg"
   xmlns:sodipodi="http://inkscape.sourceforge.net/DTD/sodipodi-0.dtd"
   xmlns:inkscape="http://www.inkscape.org/namespaces/inkscape"
   width="100"
   height="100"
   viewBox="0 0 1 1"
   preserveAspectRatio="none"
   id="svg3160"
   sodipodi:version="0.32"
   inkscape:version="0.43"
   sodipodi:docname="tile129.svg"
   sodipodi:docbase="C:\Documents and Settings\lentz\Desktop\TileDesigner"
   version="1.0">
  <metadata
     id="metadata3241">
    <rdf:RDF>
      <cc:Work
         rdf:about="">
        <dc:format>image/svg+xml</dc:format>
        <dc:type
           rdf:resource="http://purl.org/dc/dcmitype/StillImage" />
      </cc:Work>
    </rdf:RDF>
  </metadata>
  <defs
     id="defs3239" />
  <sodipodi:namedview
     inkscape:window-height="540"
     inkscape:window-width="749"
     inkscape:pageshadow="2"
     inkscape:pageopacity="0.0"
     borderopacity="1.0"
     bordercolor="#666666"
     pagecolor="#ffffff"
     id="base"
     inkscape:zoom="0.52361111"
     inkscape:cx="360"
     inkscape:cy="360"
     inkscape:window-x="242"
     inkscape:window-y="242"
     inkscape:current-layer="svg3160" />
  <title
     id="title3162">SVG drawing</title>
  <desc
     id="desc3164">This was produced by version 4.1 of GNU libplot, a free library for exporting 2-D vector graphics.</desc>
  <rect
     x="0"
     y="0"
     width="1"
     height="1"
     style="fill:#ffffff;stroke:none"
     id="rect3166" />
  <g
     transform="matrix(5.418114e-3,0,0,-5.333139e-3,-1.175565e-3,0.939964)"
     xml:space="preserve"
     style="font-style:normal;font-variant:normal;font-weight:normal;font-stretch:normal;letter-spacing:normal;word-spacing:normal;text-anchor:start;fill:none;fill-opacity:1;stroke:#000000;stroke-linecap:butt;stroke-linejoin:miter;stroke-miterlimit:10.43299961;stroke-dasharray:none;stroke-dashoffset:0;stroke-opacity:1"
     id="g3168">
<polygon
   points="46.5,160.5 138.5,160.5 184.5,80.5 138.5,0.5 46.5,0.5 0.5,80.5 46.5,160.5 "
   style="fill:#38ac00;fill-rule:nonzero;stroke:#38ac00;stroke-width:0;stroke-linejoin:round"
   id="polygon3170" />
<text
   transform="matrix(1,0,0,-1,109.21,7.9141)"
   style="font-size:8px;fill:#000000;stroke:none;font-family:&quot;Helvetica&quot;, sans-serif"
   id="text3172">129</text>

<polygon
   points="68.5,96.5 116.5,96.5 116.5,144.5 68.5,144.5 68.5,96.5 "
   style="fill:#ffffff;fill-rule:nonzero;stroke:#ffffff;stroke-width:0;stroke-linejoin:round"
   id="polygon3174" />
<polygon
   points="68.5,96.5 116.5,96.5 116.5,144.5 68.5,144.5 68.5,96.5 "
   style="stroke:#ffffff;stroke-width:6;stroke-linejoin:round"
   id="polygon3176" />
<path
   d="M 92.5,120.5 L 92.469,121.73 L 92.376,122.95 L 92.223,124.15 L 92.012,125.34 L 91.744,126.5 L 91.421,127.64 L 91.044,128.75 L 90.614,129.84 L 90.133,130.9 L 89.603,131.94 L 89.025,132.94 L 88.401,133.92 L 87.732,134.86 L 87.019,135.77 L 86.265,136.64 L 85.47,137.47 L 84.637,138.26 L 83.766,139.02 L 82.859,139.73 L 81.918,140.4 L 80.944,141.03 L 79.939,141.6 L 78.905,142.13 L 77.841,142.61 L 76.752,143.04 L 75.637,143.42 L 74.498,143.74 L 73.337,144.01 L 72.155,144.22 L 70.954,144.38 L 69.735,144.47 L 68.5,144.5 C 55.246,144.5 44.5,133.75 44.5,120.5 C 44.5,107.25 55.246,96.5 68.5,96.5 C 81.754,96.5 92.5,107.25 92.5,120.5 z "
   style="fill:#ffffff;fill-rule:nonzero;stroke:#ffffff;stroke-width:0;stroke-linecap:round;stroke-linejoin:round"
   id="path3178" />
<path
   d="M 92.5,120.5 L 92.469,121.73 L 92.376,122.95 L 92.223,124.15 L 92.012,125.34 L 91.744,126.5 L 91.421,127.64 L 91.044,128.75 L 90.614,129.84 L 90.133,130.9 L 89.603,131.94 L 89.025,132.94 L 88.401,133.92 L 87.732,134.86 L 87.019,135.77 L 86.265,136.64 L 85.47,137.47 L 84.637,138.26 L 83.766,139.02 L 82.859,139.73 L 81.918,140.4 L 80.944,141.03 L 79.939,141.6 L 78.905,142.13 L 77.841,142.61 L 76.752,143.04 L 75.637,143.42 L 74.498,143.74 L 73.337,144.01 L 72.155,144.22 L 70.954,144.38 L 69.735,144.47 L 68.5,144.5 C 55.246,144.5 44.5,133.75 44.5,120.5 C 44.5,107.25 55.246,96.5 68.5,96.5 C 81.754,96.5 92.5,107.25 92.5,120.5 z "
   style="stroke:#ffffff;stroke-width:6;stroke-linecap:round;stroke-linejoin:round"
   id="path3180" />
<path
   d="M 140.5,120.5 L 140.47,121.73 L 140.38,122.95 L 140.22,124.15 L 140.01,125.34 L 139.74,126.5 L 139.42,127.64 L 139.04,128.75 L 138.61,129.84 L 138.13,130.9 L 137.6,131.94 L 137.03,132.94 L 136.4,133.92 L 135.73,134.86 L 135.02,135.77 L 134.26,136.64 L 133.47,137.47 L 132.64,138.26 L 131.77,139.02 L 130.86,139.73 L 129.92,140.4 L 128.94,141.03 L 127.94,141.6 L 126.9,142.13 L 125.84,142.61 L 124.75,143.04 L 123.64,143.42 L 122.5,143.74 L 121.34,144.01 L 120.15,144.22 L 118.95,144.38 L 117.73,144.47 L 116.5,144.5 C 103.25,144.5 92.5,133.75 92.5,120.5 C 92.5,107.25 103.25,96.5 116.5,96.5 C 129.75,96.5 140.5,107.25 140.5,120.5 z "
   style="fill:#ffffff;fill-rule:nonzero;stroke:#ffffff;stroke-width:0;stroke-linecap:round;stroke-linejoin:round"
   id="path3182" />
<path
   d="M 140.5,120.5 L 140.47,121.73 L 140.38,122.95 L 140.22,124.15 L 140.01,125.34 L 139.74,126.5 L 139.42,127.64 L 139.04,128.75 L 138.61,129.84 L 138.13,130.9 L 137.6,131.94 L 137.03,132.94 L 136.4,133.92 L 135.73,134.86 L 135.02,135.77 L 134.26,136.64 L 133.47,137.47 L 132.64,138.26 L 131.77,139.02 L 130.86,139.73 L 129.92,140.4 L 128.94,141.03 L 127.94,141.6 L 126.9,142.13 L 125.84,142.61 L 124.75,143.04 L 123.64,143.42 L 122.5,143.74 L 121.34,144.01 L 120.15,144.22 L 118.95,144.38 L 117.73,144.47 L 116.5,144.5 C 103.25,144.5 92.5,133.75 92.5,120.5 C 92.5,107.25 103.25,96.5 116.5,96.5 C 129.75,96.5 140.5,107.25 140.5,120.5 z "
   style="stroke:#ffffff;stroke-width:6;stroke-linecap:round;stroke-linejoin:round"
   id="path3184" />
<path
   d="M 139.5,40.5 L 139.47,41.735 L 139.38,42.954 L 139.22,44.155 L 139.01,45.337 L 138.74,46.498 L 138.42,47.637 L 138.04,48.752 L 137.61,49.841 L 137.13,50.905 L 136.6,51.939 L 136.03,52.944 L 135.4,53.918 L 134.73,54.859 L 134.02,55.766 L 133.26,56.637 L 132.47,57.47 L 131.64,58.265 L 130.77,59.019 L 129.86,59.732 L 128.92,60.401 L 127.94,61.025 L 126.94,61.603 L 125.9,62.133 L 124.84,62.614 L 123.75,63.044 L 122.64,63.421 L 121.5,63.744 L 120.34,64.012 L 119.15,64.223 L 117.95,64.376 L 116.73,64.469 L 115.5,64.5 C 102.25,64.5 91.5,53.754 91.5,40.5 C 91.5,27.246 102.25,16.5 115.5,16.5 C 128.75,16.5 139.5,27.246 139.5,40.5 z "
   style="fill:#ffffff;fill-rule:nonzero;stroke:#ffffff;stroke-width:0;stroke-linecap:round;stroke-linejoin:round"
   id="path3186" />
<path
   d="M 139.5,40.5 L 139.47,41.735 L 139.38,42.954 L 139.22,44.155 L 139.01,45.337 L 138.74,46.498 L 138.42,47.637 L 138.04,48.752 L 137.61,49.841 L 137.13,50.905 L 136.6,51.939 L 136.03,52.944 L 135.4,53.918 L 134.73,54.859 L 134.02,55.766 L 133.26,56.637 L 132.47,57.47 L 131.64,58.265 L 130.77,59.019 L 129.86,59.732 L 128.92,60.401 L 127.94,61.025 L 126.94,61.603 L 125.9,62.133 L 124.84,62.614 L 123.75,63.044 L 122.64,63.421 L 121.5,63.744 L 120.34,64.012 L 119.15,64.223 L 117.95,64.376 L 116.73,64.469 L 115.5,64.5 C 102.25,64.5 91.5,53.754 91.5,40.5 C 91.5,27.246 102.25,16.5 115.5,16.5 C 128.75,16.5 139.5,27.246 139.5,40.5 z "
   style="stroke:#ffffff;stroke-width:6;stroke-linecap:round;stroke-linejoin:round"
   id="path3188" />
<line
   x1="92.5"
   y1="120.5"
   x2="92.5"
   y2="160.5"
   style="stroke:#ffffff;stroke-width:16;stroke-linecap:round"
   id="line3190" />
<path
   d="M 161.5,120.5 L 161.43,120.62 C 154.46,116.61 146.55,114.5 138.5,114.5 C 130.46,114.5 122.55,116.61 115.57,120.62 L 92.5,120.5"
   style="stroke:#ffffff;stroke-width:16;stroke-linecap:round;stroke-linejoin:round"
   id="path3192" />
<path
   d="M 161.5,40.5 L 161.43,40.375 C 154.46,44.387 146.55,46.5 138.5,46.5 C 130.46,46.5 122.55,44.387 115.57,40.379"
   style="stroke:#ffffff;stroke-width:16;stroke-linecap:round;stroke-linejoin:round"
   id="path3194" />
<path
   d="M 115.5,40.5 L 115.57,40.379 C 101.3,32.176 92.5,16.961 92.5,0.5"
   style="stroke:#ffffff;stroke-width:16;stroke-linecap:round;stroke-linejoin:round"
   id="path3196" />
<line
   x1="92.5"
   y1="120.5"
   x2="92.5"
   y2="160.5"
   style="stroke-width:12;stroke-linecap:round"
   id="line3198" />
<path
   d="M 161.5,120.5 L 161.43,120.62 C 154.46,116.61 146.55,114.5 138.5,114.5 C 130.46,114.5 122.55,116.61 115.57,120.62 L 92.5,120.5"
   style="stroke-width:12;stroke-linecap:round;stroke-linejoin:round"
   id="path3200" />
<path
   d="M 161.5,40.5 L 161.43,40.375 C 154.46,44.387 146.55,46.5 138.5,46.5 C 130.46,46.5 122.55,44.387 115.57,40.379"
   style="stroke-width:12;stroke-linecap:round;stroke-linejoin:round"
   id="path3202" />
<path
   d="M 115.5,40.5 L 115.57,40.379 C 101.3,32.176 92.5,16.961 92.5,0.5"
   style="stroke-width:12;stroke-linecap:round;stroke-linejoin:round"
   id="path3204" />
<polygon
   points="68.5,96.5 116.5,96.5 116.5,144.5 68.5,144.5 68.5,96.5 "
   style="fill:#ffffff;fill-rule:nonzero;stroke:#ffffff;stroke-width:0;stroke-linejoin:round"
   id="polygon3206" />
<polygon
   points="68.5,96.5 116.5,96.5 116.5,144.5 68.5,144.5 68.5,96.5 "
   style="stroke-width:2;stroke-linejoin:round"
   id="polygon3208" />
<path
   d="M 92.5,120.5 L 92.469,121.73 L 92.376,122.95 L 92.223,124.15 L 92.012,125.34 L 91.744,126.5 L 91.421,127.64 L 91.044,128.75 L 90.614,129.84 L 90.133,130.9 L 89.603,131.94 L 89.025,132.94 L 88.401,133.92 L 87.732,134.86 L 87.019,135.77 L 86.265,136.64 L 85.47,137.47 L 84.637,138.26 L 83.766,139.02 L 82.859,139.73 L 81.918,140.4 L 80.944,141.03 L 79.939,141.6 L 78.905,142.13 L 77.841,142.61 L 76.752,143.04 L 75.637,143.42 L 74.498,143.74 L 73.337,144.01 L 72.155,144.22 L 70.954,144.38 L 69.735,144.47 L 68.5,144.5 C 55.246,144.5 44.5,133.75 44.5,120.5 C 44.5,107.25 55.246,96.5 68.5,96.5 C 81.754,96.5 92.5,107.25 92.5,120.5 z "
   style="fill:#ffffff;fill-rule:nonzero;stroke:#ffffff;stroke-width:0;stroke-linecap:round;stroke-linejoin:round"
   id="path3210" />
<path
   d="M 92.5,120.5 L 92.469,121.73 L 92.376,122.95 L 92.223,124.15 L 92.012,125.34 L 91.744,126.5 L 91.421,127.64 L 91.044,128.75 L 90.614,129.84 L 90.133,130.9 L 89.603,131.94 L 89.025,132.94 L 88.401,133.92 L 87.732,134.86 L 87.019,135.77 L 86.265,136.64 L 85.47,137.47 L 84.637,138.26 L 83.766,139.02 L 82.859,139.73 L 81.918,140.4 L 80.944,141.03 L 79.939,141.6 L 78.905,142.13 L 77.841,142.61 L 76.752,143.04 L 75.637,143.42 L 74.498,143.74 L 73.337,144.01 L 72.155,144.22 L 70.954,144.38 L 69.735,144.47 L 68.5,144.5 C 55.246,144.5 44.5,133.75 44.5,120.5 C 44.5,107.25 55.246,96.5 68.5,96.5 C 81.754,96.5 92.5,107.25 92.5,120.5 z "
   style="stroke-width:2;stroke-linecap:round;stroke-linejoin:round"
   id="path3212" />
<path
   d="M 140.5,120.5 L 140.47,121.73 L 140.38,122.95 L 140.22,124.15 L 140.01,125.34 L 139.74,126.5 L 139.42,127.64 L 139.04,128.75 L 138.61,129.84 L 138.13,130.9 L 137.6,131.94 L 137.03,132.94 L 136.4,133.92 L 135.73,134.86 L 135.02,135.77 L 134.26,136.64 L 133.47,137.47 L 132.64,138.26 L 131.77,139.02 L 130.86,139.73 L 129.92,140.4 L 128.94,141.03 L 127.94,141.6 L 126.9,142.13 L 125.84,142.61 L 124.75,143.04 L 123.64,143.42 L 122.5,143.74 L 121.34,144.01 L 120.15,144.22 L 118.95,144.38 L 117.73,144.47 L 116.5,144.5 C 103.25,144.5 92.5,133.75 92.5,120.5 C 92.5,107.25 103.25,96.5 116.5,96.5 C 129.75,96.5 140.5,107.25 140.5,120.5 z "
   style="fill:#ffffff;fill-rule:nonzero;stroke:#ffffff;stroke-width:0;stroke-linecap:round;stroke-linejoin:round"
   id="path3214" />
<path
   d="M 140.5,120.5 L 140.47,121.73 L 140.38,122.95 L 140.22,124.15 L 140.01,125.34 L 139.74,126.5 L 139.42,127.64 L 139.04,128.75 L 138.61,129.84 L 138.13,130.9 L 137.6,131.94 L 137.03,132.94 L 136.4,133.92 L 135.73,134.86 L 135.02,135.77 L 134.26,136.64 L 133.47,137.47 L 132.64,138.26 L 131.77,139.02 L 130.86,139.73 L 129.92,140.4 L 128.94,141.03 L 127.94,141.6 L 126.9,142.13 L 125.84,142.61 L 124.75,143.04 L 123.64,143.42 L 122.5,143.74 L 121.34,144.01 L 120.15,144.22 L 118.95,144.38 L 117.73,144.47 L 116.5,144.5 C 103.25,144.5 92.5,133.75 92.5,120.5 C 92.5,107.25 103.25,96.5 116.5,96.5 C 129.75,96.5 140.5,107.25 140.5,120.5 z "
   style="stroke-width:2;stroke-linecap:round;stroke-linejoin:round"
   id="path3216" />
<path
   d="M 169.99,80.5 L 169.98,80.718 L 169.95,80.932 L 169.89,81.144 L 169.82,81.353 L 169.72,81.557 L 169.61,81.758 L 169.48,81.955 L 169.32,82.147 L 169.15,82.335 L 168.97,82.517 L 168.76,82.694 L 168.54,82.866 L 168.3,83.032 L 168.05,83.192 L 167.79,83.346 L 167.5,83.493 L 167.21,83.633 L 166.9,83.767 L 166.58,83.892 L 166.25,84.011 L 165.9,84.121 L 165.55,84.223 L 165.18,84.316 L 164.8,84.401 L 164.42,84.477 L 164.02,84.544 L 163.62,84.601 L 163.21,84.648 L 162.79,84.686 L 162.37,84.713 L 161.94,84.729 L 161.5,84.734 C 156.81,84.734 153.01,82.836 153.01,80.5 C 153.01,78.164 156.81,76.266 161.5,76.266 C 166.19,76.266 169.99,78.164 169.99,80.5 z "
   style="fill:#ffffff;fill-rule:nonzero;stroke:#ffffff;stroke-width:0;stroke-linecap:round;stroke-linejoin:round"
   id="path3218" />
<path
   d="M 169.99,80.5 L 169.98,80.718 L 169.95,80.932 L 169.89,81.144 L 169.82,81.353 L 169.72,81.557 L 169.61,81.758 L 169.48,81.955 L 169.32,82.147 L 169.15,82.335 L 168.97,82.517 L 168.76,82.694 L 168.54,82.866 L 168.3,83.032 L 168.05,83.192 L 167.79,83.346 L 167.5,83.493 L 167.21,83.633 L 166.9,83.767 L 166.58,83.892 L 166.25,84.011 L 165.9,84.121 L 165.55,84.223 L 165.18,84.316 L 164.8,84.401 L 164.42,84.477 L 164.02,84.544 L 163.62,84.601 L 163.21,84.648 L 162.79,84.686 L 162.37,84.713 L 161.94,84.729 L 161.5,84.734 C 156.81,84.734 153.01,82.836 153.01,80.5 C 153.01,78.164 156.81,76.266 161.5,76.266 C 166.19,76.266 169.99,78.164 169.99,80.5 z "
   style="stroke-width:0.84906;stroke-linecap:round;stroke-linejoin:round"
   id="path3220" />
<text
   transform="matrix(1,0,0,-1,156.19,77.855)"
   style="font-size:8px;fill:#000000;stroke:none;font-family:&quot;Helvetica&quot;, sans-serif"
   id="text3222">50</text>

<path
   d="M 139.5,40.5 L 139.47,41.735 L 139.38,42.954 L 139.22,44.155 L 139.01,45.337 L 138.74,46.498 L 138.42,47.637 L 138.04,48.752 L 137.61,49.841 L 137.13,50.905 L 136.6,51.939 L 136.03,52.944 L 135.4,53.918 L 134.73,54.859 L 134.02,55.766 L 133.26,56.637 L 132.47,57.47 L 131.64,58.265 L 130.77,59.019 L 129.86,59.732 L 128.92,60.401 L 127.94,61.025 L 126.94,61.603 L 125.9,62.133 L 124.84,62.614 L 123.75,63.044 L 122.64,63.421 L 121.5,63.744 L 120.34,64.012 L 119.15,64.223 L 117.95,64.376 L 116.73,64.469 L 115.5,64.5 C 102.25,64.5 91.5,53.754 91.5,40.5 C 91.5,27.246 102.25,16.5 115.5,16.5 C 128.75,16.5 139.5,27.246 139.5,40.5 z "
   style="fill:#ffffff;fill-rule:nonzero;stroke:#ffffff;stroke-width:0;stroke-linecap:round;stroke-linejoin:round"
   id="path3224" />
<path
   d="M 139.5,40.5 L 139.47,41.735 L 139.38,42.954 L 139.22,44.155 L 139.01,45.337 L 138.74,46.498 L 138.42,47.637 L 138.04,48.752 L 137.61,49.841 L 137.13,50.905 L 136.6,51.939 L 136.03,52.944 L 135.4,53.918 L 134.73,54.859 L 134.02,55.766 L 133.26,56.637 L 132.47,57.47 L 131.64,58.265 L 130.77,59.019 L 129.86,59.732 L 128.92,60.401 L 127.94,61.025 L 126.94,61.603 L 125.9,62.133 L 124.84,62.614 L 123.75,63.044 L 122.64,63.421 L 121.5,63.744 L 120.34,64.012 L 119.15,64.223 L 117.95,64.376 L 116.73,64.469 L 115.5,64.5 C 102.25,64.5 91.5,53.754 91.5,40.5 C 91.5,27.246 102.25,16.5 115.5,16.5 C 128.75,16.5 139.5,27.246 139.5,40.5 z "
   style="stroke-width:2;stroke-linecap:round;stroke-linejoin:round"
   id="path3226" />
<path
   d="M 169.99,80.5 L 169.98,80.718 L 169.95,80.932 L 169.89,81.144 L 169.82,81.353 L 169.72,81.557 L 169.61,81.758 L 169.48,81.955 L 169.32,82.147 L 169.15,82.335 L 168.97,82.517 L 168.76,82.694 L 168.54,82.866 L 168.3,83.032 L 168.05,83.192 L 167.79,83.346 L 167.5,83.493 L 167.21,83.633 L 166.9,83.767 L 166.58,83.892 L 166.25,84.011 L 165.9,84.121 L 165.55,84.223 L 165.18,84.316 L 164.8,84.401 L 164.42,84.477 L 164.02,84.544 L 163.62,84.601 L 163.21,84.648 L 162.79,84.686 L 162.37,84.713 L 161.94,84.729 L 161.5,84.734 C 156.81,84.734 153.01,82.836 153.01,80.5 C 153.01,78.164 156.81,76.266 161.5,76.266 C 166.19,76.266 169.99,78.164 169.99,80.5 z "
   style="fill:#ffffff;fill-rule:nonzero;stroke:#ffffff;stroke-width:0;stroke-linecap:round;stroke-linejoin:round"
   id="path3228" />
<path
   d="M 169.99,80.5 L 169.98,80.718 L 169.95,80.932 L 169.89,81.144 L 169.82,81.353 L 169.72,81.557 L 169.61,81.758 L 169.48,81.955 L 169.32,82.147 L 169.15,82.335 L 168.97,82.517 L 168.76,82.694 L 168.54,82.866 L 168.3,83.032 L 168.05,83.192 L 167.79,83.346 L 167.5,83.493 L 167.21,83.633 L 166.9,83.767 L 166.58,83.892 L 166.25,84.011 L 165.9,84.121 L 165.55,84.223 L 165.18,84.316 L 164.8,84.401 L 164.42,84.477 L 164.02,84.544 L 163.62,84.601 L 163.21,84.648 L 162.79,84.686 L 162.37,84.713 L 161.94,84.729 L 161.5,84.734 C 156.81,84.734 153.01,82.836 153.01,80.5 C 153.01,78.164 156.81,76.266 161.5,76.266 C 166.19,76.266 169.99,78.164 169.99,80.5 z "
   style="stroke-width:0.84906;stroke-linecap:round;stroke-linejoin:round"
   id="path3230" />
<text
   transform="matrix(1,0,0,-1,156.19,77.855)"
   style="font-size:8px;fill:#000000;stroke:none;font-family:&quot;Helvetica&quot;, sans-serif"
   id="text3232">50</text>

<text
   transform="matrix(1,0,0,-1,52.77,14.824)"
   style="font-size:16px;fill:#000000;stroke:none;font-family:&quot;Helvetica&quot;, sans-serif"
   id="text3234">C</text>

<polygon
   points="46.5,160.5 138.5,160.5 184.5,80.5 138.5,0.5 46.5,0.5 0.5,80.5 46.5,160.5 "
   style="stroke-width:1;stroke-linejoin:round"
   id="polygon3236" />
</g></svg>
