<?xml version="1.0" encoding="UTF-8" standalone="no"?>
<svg
   xmlns:dc="http://purl.org/dc/elements/1.1/"
   xmlns:cc="http://web.resource.org/cc/"
   xmlns:rdf="http://www.w3.org/1999/02/22-rdf-syntax-ns#"
   xmlns:svg="http://www.w3.org/2000/svg"
   xmlns="http://www.w3.org/2000/svg"
   xmlns:sodipodi="http://inkscape.sourceforge.net/DTD/sodipodi-0.dtd"
   xmlns:inkscape="http://www.inkscape.org/namespaces/inkscape"
   width="100"
   height="100"
   viewBox="0 0 1 1"
   preserveAspectRatio="none"
   id="svg3861"
   sodipodi:version="0.32"
   inkscape:version="0.43"
   sodipodi:docname="tile35.svg"
   sodipodi:docbase="C:\Documents and Settings\lentz\Desktop\TileDesigner"
   version="1.0">
  <metadata
     id="metadata3924">
    <rdf:RDF>
      <cc:Work
         rdf:about="">
        <dc:format>image/svg+xml</dc:format>
        <dc:type
           rdf:resource="http://purl.org/dc/dcmitype/StillImage" />
      </cc:Work>
    </rdf:RDF>
  </metadata>
  <defs
     id="defs3922" />
  <sodipodi:namedview
     inkscape:window-height="540"
     inkscape:window-width="749"
     inkscape:pageshadow="2"
     inkscape:pageopacity="0.0"
     borderopacity="1.0"
     bordercolor="#666666"
     pagecolor="#ffffff"
     id="base"
     inkscape:zoom="0.52361111"
     inkscape:cx="360"
     inkscape:cy="360"
     inkscape:window-x="132"
     inkscape:window-y="132"
     inkscape:current-layer="svg3861" />
  <title
     id="title3863">SVG drawing</title>
  <desc
     id="desc3865">This was produced by version 4.1 of GNU libplot, a free library for exporting 2-D vector graphics.</desc>
  <rect
     x="0"
     y="0"
     width="1"
     height="1"
     style="fill:#ffffff;stroke:none"
     id="rect3867" />
  <g
     transform="matrix(5.418114e-3,0,0,-5.333139e-3,-1.175565e-3,0.939964)"
     xml:space="preserve"
     style="font-style:normal;font-variant:normal;font-weight:normal;font-stretch:normal;letter-spacing:normal;word-spacing:normal;text-anchor:start;fill:none;fill-opacity:1;stroke:#000000;stroke-linecap:butt;stroke-linejoin:miter;stroke-miterlimit:10.43299961;stroke-dasharray:none;stroke-dashoffset:0;stroke-opacity:1"
     id="g3869">
<polygon
   points="46.5,160.5 138.5,160.5 184.5,80.5 138.5,0.5 46.5,0.5 0.5,80.5 46.5,160.5 "
   style="fill:#b46301;fill-rule:nonzero;stroke:#b46301;stroke-width:0;stroke-linejoin:round"
   id="polygon3871" />
<text
   transform="matrix(1,0,0,-1,111.19,7.9141)"
   style="font-size:8px;fill:#000000;stroke:none;font-family:&quot;Helvetica&quot;, sans-serif"
   id="text3873">35</text>

<path
   d="M 121.5,124.5 L 121.47,125.73 L 121.38,126.95 L 121.22,128.15 L 121.01,129.34 L 120.74,130.5 L 120.42,131.64 L 120.04,132.75 L 119.61,133.84 L 119.13,134.9 L 118.6,135.94 L 118.03,136.94 L 117.4,137.92 L 116.73,138.86 L 116.02,139.77 L 115.26,140.64 L 114.47,141.47 L 113.64,142.26 L 112.77,143.02 L 111.86,143.73 L 110.92,144.4 L 109.94,145.03 L 108.94,145.6 L 107.9,146.13 L 106.84,146.61 L 105.75,147.04 L 104.64,147.42 L 103.5,147.74 L 102.34,148.01 L 101.15,148.22 L 99.954,148.38 L 98.735,148.47 L 97.5,148.5 C 84.246,148.5 73.5,137.75 73.5,124.5 C 73.5,111.25 84.246,100.5 97.5,100.5 C 110.75,100.5 121.5,111.25 121.5,124.5 z "
   style="fill:#ffffff;fill-rule:nonzero;stroke:#ffffff;stroke-width:0;stroke-linecap:round;stroke-linejoin:round"
   id="path3875" />
<path
   d="M 121.5,124.5 L 121.47,125.73 L 121.38,126.95 L 121.22,128.15 L 121.01,129.34 L 120.74,130.5 L 120.42,131.64 L 120.04,132.75 L 119.61,133.84 L 119.13,134.9 L 118.6,135.94 L 118.03,136.94 L 117.4,137.92 L 116.73,138.86 L 116.02,139.77 L 115.26,140.64 L 114.47,141.47 L 113.64,142.26 L 112.77,143.02 L 111.86,143.73 L 110.92,144.4 L 109.94,145.03 L 108.94,145.6 L 107.9,146.13 L 106.84,146.61 L 105.75,147.04 L 104.64,147.42 L 103.5,147.74 L 102.34,148.01 L 101.15,148.22 L 99.954,148.38 L 98.735,148.47 L 97.5,148.5 C 84.246,148.5 73.5,137.75 73.5,124.5 C 73.5,111.25 84.246,100.5 97.5,100.5 C 110.75,100.5 121.5,111.25 121.5,124.5 z "
   style="stroke:#ffffff;stroke-width:6;stroke-linecap:round;stroke-linejoin:round"
   id="path3877" />
<path
   d="M 121.5,36.5 L 121.47,37.735 L 121.38,38.954 L 121.22,40.155 L 121.01,41.337 L 120.74,42.498 L 120.42,43.637 L 120.04,44.752 L 119.61,45.841 L 119.13,46.905 L 118.6,47.939 L 118.03,48.944 L 117.4,49.918 L 116.73,50.859 L 116.02,51.766 L 115.26,52.637 L 114.47,53.47 L 113.64,54.265 L 112.77,55.019 L 111.86,55.732 L 110.92,56.401 L 109.94,57.025 L 108.94,57.603 L 107.9,58.133 L 106.84,58.614 L 105.75,59.044 L 104.64,59.421 L 103.5,59.744 L 102.34,60.012 L 101.15,60.223 L 99.954,60.376 L 98.735,60.469 L 97.5,60.5 C 84.246,60.5 73.5,49.754 73.5,36.5 C 73.5,23.246 84.246,12.5 97.5,12.5 C 110.75,12.5 121.5,23.246 121.5,36.5 z "
   style="fill:#ffffff;fill-rule:nonzero;stroke:#ffffff;stroke-width:0;stroke-linecap:round;stroke-linejoin:round"
   id="path3879" />
<path
   d="M 121.5,36.5 L 121.47,37.735 L 121.38,38.954 L 121.22,40.155 L 121.01,41.337 L 120.74,42.498 L 120.42,43.637 L 120.04,44.752 L 119.61,45.841 L 119.13,46.905 L 118.6,47.939 L 118.03,48.944 L 117.4,49.918 L 116.73,50.859 L 116.02,51.766 L 115.26,52.637 L 114.47,53.47 L 113.64,54.265 L 112.77,55.019 L 111.86,55.732 L 110.92,56.401 L 109.94,57.025 L 108.94,57.603 L 107.9,58.133 L 106.84,58.614 L 105.75,59.044 L 104.64,59.421 L 103.5,59.744 L 102.34,60.012 L 101.15,60.223 L 99.954,60.376 L 98.735,60.469 L 97.5,60.5 C 84.246,60.5 73.5,49.754 73.5,36.5 C 73.5,23.246 84.246,12.5 97.5,12.5 C 110.75,12.5 121.5,23.246 121.5,36.5 z "
   style="stroke:#ffffff;stroke-width:6;stroke-linecap:round;stroke-linejoin:round"
   id="path3881" />
<path
   d="M 92.5,160.5 L 92.5,160.5 C 92.5,148.33 94.113,136.2 97.293,124.44"
   style="stroke:#ffffff;stroke-width:16;stroke-linecap:round;stroke-linejoin:round"
   id="path3883" />
<path
   d="M 97.5,124.5 L 97.297,124.44 C 106.85,89.152 130.02,59.09 161.71,40.867"
   style="stroke:#ffffff;stroke-width:16;stroke-linecap:round;stroke-linejoin:round"
   id="path3885" />
<path
   d="M 97.5,36.5 L 97.297,36.562 C 94.113,24.809 92.5,12.68 92.5,0.5"
   style="stroke:#ffffff;stroke-width:16;stroke-linecap:round;stroke-linejoin:round"
   id="path3887" />
<path
   d="M 92.5,160.5 L 92.5,160.5 C 92.5,148.33 94.113,136.2 97.293,124.44"
   style="stroke-width:12;stroke-linecap:round;stroke-linejoin:round"
   id="path3889" />
<path
   d="M 97.5,124.5 L 97.297,124.44 C 106.85,89.152 130.02,59.09 161.71,40.867"
   style="stroke-width:12;stroke-linecap:round;stroke-linejoin:round"
   id="path3891" />
<path
   d="M 97.5,36.5 L 97.297,36.562 C 94.113,24.809 92.5,12.68 92.5,0.5"
   style="stroke-width:12;stroke-linecap:round;stroke-linejoin:round"
   id="path3893" />
<path
   d="M 161.5,120.5 L 161.71,120.13 C 130.02,101.91 106.85,71.848 97.297,36.562"
   style="stroke:#ffffff;stroke-width:16;stroke-linecap:round;stroke-linejoin:round"
   id="path3895" />
<path
   d="M 161.5,120.5 L 161.71,120.13 C 130.02,101.91 106.85,71.848 97.297,36.562"
   style="stroke-width:12;stroke-linecap:round;stroke-linejoin:round"
   id="path3897" />
<path
   d="M 121.5,124.5 L 121.47,125.73 L 121.38,126.95 L 121.22,128.15 L 121.01,129.34 L 120.74,130.5 L 120.42,131.64 L 120.04,132.75 L 119.61,133.84 L 119.13,134.9 L 118.6,135.94 L 118.03,136.94 L 117.4,137.92 L 116.73,138.86 L 116.02,139.77 L 115.26,140.64 L 114.47,141.47 L 113.64,142.26 L 112.77,143.02 L 111.86,143.73 L 110.92,144.4 L 109.94,145.03 L 108.94,145.6 L 107.9,146.13 L 106.84,146.61 L 105.75,147.04 L 104.64,147.42 L 103.5,147.74 L 102.34,148.01 L 101.15,148.22 L 99.954,148.38 L 98.735,148.47 L 97.5,148.5 C 84.246,148.5 73.5,137.75 73.5,124.5 C 73.5,111.25 84.246,100.5 97.5,100.5 C 110.75,100.5 121.5,111.25 121.5,124.5 z "
   style="fill:#ffffff;fill-rule:nonzero;stroke:#ffffff;stroke-width:0;stroke-linecap:round;stroke-linejoin:round"
   id="path3899" />
<path
   d="M 121.5,124.5 L 121.47,125.73 L 121.38,126.95 L 121.22,128.15 L 121.01,129.34 L 120.74,130.5 L 120.42,131.64 L 120.04,132.75 L 119.61,133.84 L 119.13,134.9 L 118.6,135.94 L 118.03,136.94 L 117.4,137.92 L 116.73,138.86 L 116.02,139.77 L 115.26,140.64 L 114.47,141.47 L 113.64,142.26 L 112.77,143.02 L 111.86,143.73 L 110.92,144.4 L 109.94,145.03 L 108.94,145.6 L 107.9,146.13 L 106.84,146.61 L 105.75,147.04 L 104.64,147.42 L 103.5,147.74 L 102.34,148.01 L 101.15,148.22 L 99.954,148.38 L 98.735,148.47 L 97.5,148.5 C 84.246,148.5 73.5,137.75 73.5,124.5 C 73.5,111.25 84.246,100.5 97.5,100.5 C 110.75,100.5 121.5,111.25 121.5,124.5 z "
   style="stroke-width:2;stroke-linecap:round;stroke-linejoin:round"
   id="path3901" />
<path
   d="M 66.992,140.5 L 66.981,140.71 L 66.948,140.91 L 66.894,141.11 L 66.82,141.31 L 66.725,141.51 L 66.61,141.7 L 66.477,141.89 L 66.324,142.07 L 66.154,142.25 L 65.967,142.42 L 65.762,142.59 L 65.541,142.76 L 65.304,142.92 L 65.052,143.07 L 64.785,143.22 L 64.504,143.36 L 64.209,143.49 L 63.901,143.62 L 63.58,143.74 L 63.247,143.85 L 62.902,143.95 L 62.547,144.05 L 62.181,144.14 L 61.804,144.22 L 61.419,144.29 L 61.024,144.36 L 60.621,144.41 L 60.211,144.46 L 59.793,144.49 L 59.368,144.52 L 58.937,144.53 L 58.5,144.54 C 53.812,144.54 50.008,142.73 50.008,140.5 C 50.008,138.27 53.812,136.46 58.5,136.46 C 63.188,136.46 66.992,138.27 66.992,140.5 z "
   style="fill:#ffffff;fill-rule:nonzero;stroke:#ffffff;stroke-width:0;stroke-linecap:round;stroke-linejoin:round"
   id="path3903" />
<path
   d="M 66.992,140.5 L 66.981,140.71 L 66.948,140.91 L 66.894,141.11 L 66.82,141.31 L 66.725,141.51 L 66.61,141.7 L 66.477,141.89 L 66.324,142.07 L 66.154,142.25 L 65.967,142.42 L 65.762,142.59 L 65.541,142.76 L 65.304,142.92 L 65.052,143.07 L 64.785,143.22 L 64.504,143.36 L 64.209,143.49 L 63.901,143.62 L 63.58,143.74 L 63.247,143.85 L 62.902,143.95 L 62.547,144.05 L 62.181,144.14 L 61.804,144.22 L 61.419,144.29 L 61.024,144.36 L 60.621,144.41 L 60.211,144.46 L 59.793,144.49 L 59.368,144.52 L 58.937,144.53 L 58.5,144.54 C 53.812,144.54 50.008,142.73 50.008,140.5 C 50.008,138.27 53.812,136.46 58.5,136.46 C 63.188,136.46 66.992,138.27 66.992,140.5 z "
   style="stroke-width:0.84906;stroke-linecap:round;stroke-linejoin:round"
   id="path3905" />
<text
   transform="matrix(1,0,0,-1,53.191,137.98)"
   style="font-size:8px;fill:#000000;stroke:none;font-family:&quot;Helvetica&quot;, sans-serif"
   id="text3907">40</text>

<path
   d="M 121.5,36.5 L 121.47,37.735 L 121.38,38.954 L 121.22,40.155 L 121.01,41.337 L 120.74,42.498 L 120.42,43.637 L 120.04,44.752 L 119.61,45.841 L 119.13,46.905 L 118.6,47.939 L 118.03,48.944 L 117.4,49.918 L 116.73,50.859 L 116.02,51.766 L 115.26,52.637 L 114.47,53.47 L 113.64,54.265 L 112.77,55.019 L 111.86,55.732 L 110.92,56.401 L 109.94,57.025 L 108.94,57.603 L 107.9,58.133 L 106.84,58.614 L 105.75,59.044 L 104.64,59.421 L 103.5,59.744 L 102.34,60.012 L 101.15,60.223 L 99.954,60.376 L 98.735,60.469 L 97.5,60.5 C 84.246,60.5 73.5,49.754 73.5,36.5 C 73.5,23.246 84.246,12.5 97.5,12.5 C 110.75,12.5 121.5,23.246 121.5,36.5 z "
   style="fill:#ffffff;fill-rule:nonzero;stroke:#ffffff;stroke-width:0;stroke-linecap:round;stroke-linejoin:round"
   id="path3909" />
<path
   d="M 121.5,36.5 L 121.47,37.735 L 121.38,38.954 L 121.22,40.155 L 121.01,41.337 L 120.74,42.498 L 120.42,43.637 L 120.04,44.752 L 119.61,45.841 L 119.13,46.905 L 118.6,47.939 L 118.03,48.944 L 117.4,49.918 L 116.73,50.859 L 116.02,51.766 L 115.26,52.637 L 114.47,53.47 L 113.64,54.265 L 112.77,55.019 L 111.86,55.732 L 110.92,56.401 L 109.94,57.025 L 108.94,57.603 L 107.9,58.133 L 106.84,58.614 L 105.75,59.044 L 104.64,59.421 L 103.5,59.744 L 102.34,60.012 L 101.15,60.223 L 99.954,60.376 L 98.735,60.469 L 97.5,60.5 C 84.246,60.5 73.5,49.754 73.5,36.5 C 73.5,23.246 84.246,12.5 97.5,12.5 C 110.75,12.5 121.5,23.246 121.5,36.5 z "
   style="stroke-width:2;stroke-linecap:round;stroke-linejoin:round"
   id="path3911" />
<path
   d="M 49.992,50.5 L 49.981,50.708 L 49.948,50.913 L 49.894,51.115 L 49.82,51.314 L 49.725,51.509 L 49.61,51.701 L 49.477,51.889 L 49.324,52.072 L 49.154,52.251 L 48.967,52.425 L 48.762,52.594 L 48.541,52.758 L 48.304,52.917 L 48.052,53.069 L 47.785,53.216 L 47.504,53.356 L 47.209,53.49 L 46.901,53.617 L 46.58,53.737 L 46.247,53.849 L 45.902,53.954 L 45.547,54.052 L 45.181,54.141 L 44.804,54.222 L 44.419,54.294 L 44.024,54.357 L 43.621,54.412 L 43.211,54.457 L 42.793,54.493 L 42.368,54.518 L 41.937,54.534 L 41.5,54.539 C 36.812,54.539 33.008,52.73 33.008,50.5 C 33.008,48.27 36.812,46.461 41.5,46.461 C 46.188,46.461 49.992,48.27 49.992,50.5 z "
   style="fill:#ffffff;fill-rule:nonzero;stroke:#ffffff;stroke-width:0;stroke-linecap:round;stroke-linejoin:round"
   id="path3913" />
<path
   d="M 49.992,50.5 L 49.981,50.708 L 49.948,50.913 L 49.894,51.115 L 49.82,51.314 L 49.725,51.509 L 49.61,51.701 L 49.477,51.889 L 49.324,52.072 L 49.154,52.251 L 48.967,52.425 L 48.762,52.594 L 48.541,52.758 L 48.304,52.917 L 48.052,53.069 L 47.785,53.216 L 47.504,53.356 L 47.209,53.49 L 46.901,53.617 L 46.58,53.737 L 46.247,53.849 L 45.902,53.954 L 45.547,54.052 L 45.181,54.141 L 44.804,54.222 L 44.419,54.294 L 44.024,54.357 L 43.621,54.412 L 43.211,54.457 L 42.793,54.493 L 42.368,54.518 L 41.937,54.534 L 41.5,54.539 C 36.812,54.539 33.008,52.73 33.008,50.5 C 33.008,48.27 36.812,46.461 41.5,46.461 C 46.188,46.461 49.992,48.27 49.992,50.5 z "
   style="stroke-width:0.84906;stroke-linecap:round;stroke-linejoin:round"
   id="path3915" />
<text
   transform="matrix(1,0,0,-1,36.191,47.977)"
   style="font-size:8px;fill:#000000;stroke:none;font-family:&quot;Helvetica&quot;, sans-serif"
   id="text3917">40</text>

<polygon
   points="46.5,160.5 138.5,160.5 184.5,80.5 138.5,0.5 46.5,0.5 0.5,80.5 46.5,160.5 "
   style="stroke-width:1;stroke-linejoin:round"
   id="polygon3919" />
</g></svg>
