<?xml version="1.0" encoding="UTF-8" standalone="no"?>
<svg
   xmlns:dc="http://purl.org/dc/elements/1.1/"
   xmlns:cc="http://web.resource.org/cc/"
   xmlns:rdf="http://www.w3.org/1999/02/22-rdf-syntax-ns#"
   xmlns:svg="http://www.w3.org/2000/svg"
   xmlns="http://www.w3.org/2000/svg"
   xmlns:sodipodi="http://inkscape.sourceforge.net/DTD/sodipodi-0.dtd"
   xmlns:inkscape="http://www.inkscape.org/namespaces/inkscape"
   width="100"
   height="100"
   viewBox="0 0 1 1"
   preserveAspectRatio="none"
   id="svg10461"
   sodipodi:version="0.32"
   inkscape:version="0.43"
   sodipodi:docname="tile408.svg"
   sodipodi:docbase="C:\Documents and Settings\lentz\Desktop\TileDesigner"
   version="1.0">
  <metadata
     id="metadata10548">
    <rdf:RDF>
      <cc:Work
         rdf:about="">
        <dc:format>image/svg+xml</dc:format>
        <dc:type
           rdf:resource="http://purl.org/dc/dcmitype/StillImage" />
      </cc:Work>
    </rdf:RDF>
  </metadata>
  <defs
     id="defs10546" />
  <sodipodi:namedview
     inkscape:window-height="540"
     inkscape:window-width="749"
     inkscape:pageshadow="2"
     inkscape:pageopacity="0.0"
     borderopacity="1.0"
     bordercolor="#666666"
     pagecolor="#ffffff"
     id="base"
     inkscape:zoom="0.52361111"
     inkscape:cx="360"
     inkscape:cy="360"
     inkscape:window-x="110"
     inkscape:window-y="110"
     inkscape:current-layer="svg10461" />
  <title
     id="title10463">SVG drawing</title>
  <desc
     id="desc10465">This was produced by version 4.1 of GNU libplot, a free library for exporting 2-D vector graphics.</desc>
  <rect
     x="0"
     y="0"
     width="1"
     height="1"
     style="fill:#ffffff;stroke:none"
     id="rect10467" />
  <g
     transform="matrix(5.418114e-3,0,0,-5.333139e-3,-1.175565e-3,0.939964)"
     xml:space="preserve"
     style="font-style:normal;font-variant:normal;font-weight:normal;font-stretch:normal;letter-spacing:normal;word-spacing:normal;text-anchor:start;fill:none;fill-opacity:1;stroke:#000000;stroke-linecap:butt;stroke-linejoin:miter;stroke-miterlimit:10.43299961;stroke-dasharray:none;stroke-dashoffset:0;stroke-opacity:1"
     id="g10469">
<polygon
   points="46.5,160.5 138.5,160.5 184.5,80.5 138.5,0.5 46.5,0.5 0.5,80.5 46.5,160.5 "
   style="fill:#38ac00;fill-rule:nonzero;stroke:#38ac00;stroke-width:0;stroke-linejoin:round"
   id="polygon10471" />
<text
   transform="matrix(1,0,0,-1,109.19,7.9141)"
   style="font-size:8px;fill:#000000;stroke:none;font-family:&quot;Helvetica&quot;, sans-serif"
   id="text10473">408</text>

<polygon
   points="85.5,104.5 109.5,62.5 151.5,86.5 127.5,128.5 85.5,104.5 "
   style="fill:#ffffff;fill-rule:nonzero;stroke:#ffffff;stroke-width:0;stroke-linejoin:round"
   id="polygon10475" />
<polygon
   points="85.5,104.5 109.5,62.5 151.5,86.5 127.5,128.5 85.5,104.5 "
   style="stroke:#ffffff;stroke-width:6;stroke-linejoin:round"
   id="polygon10477" />
<path
   d="M 130.5,116.5 L 130.47,117.73 L 130.38,118.95 L 130.22,120.15 L 130.01,121.34 L 129.74,122.5 L 129.42,123.64 L 129.04,124.75 L 128.61,125.84 L 128.13,126.9 L 127.6,127.94 L 127.03,128.94 L 126.4,129.92 L 125.73,130.86 L 125.02,131.77 L 124.26,132.64 L 123.47,133.47 L 122.64,134.26 L 121.77,135.02 L 120.86,135.73 L 119.92,136.4 L 118.94,137.03 L 117.94,137.6 L 116.9,138.13 L 115.84,138.61 L 114.75,139.04 L 113.64,139.42 L 112.5,139.74 L 111.34,140.01 L 110.15,140.22 L 108.95,140.38 L 107.73,140.47 L 106.5,140.5 C 93.246,140.5 82.5,129.75 82.5,116.5 C 82.5,103.25 93.246,92.5 106.5,92.5 C 119.75,92.5 130.5,103.25 130.5,116.5 z "
   style="fill:#ffffff;fill-rule:nonzero;stroke:#ffffff;stroke-width:0;stroke-linecap:round;stroke-linejoin:round"
   id="path10479" />
<path
   d="M 130.5,116.5 L 130.47,117.73 L 130.38,118.95 L 130.22,120.15 L 130.01,121.34 L 129.74,122.5 L 129.42,123.64 L 129.04,124.75 L 128.61,125.84 L 128.13,126.9 L 127.6,127.94 L 127.03,128.94 L 126.4,129.92 L 125.73,130.86 L 125.02,131.77 L 124.26,132.64 L 123.47,133.47 L 122.64,134.26 L 121.77,135.02 L 120.86,135.73 L 119.92,136.4 L 118.94,137.03 L 117.94,137.6 L 116.9,138.13 L 115.84,138.61 L 114.75,139.04 L 113.64,139.42 L 112.5,139.74 L 111.34,140.01 L 110.15,140.22 L 108.95,140.38 L 107.73,140.47 L 106.5,140.5 C 93.246,140.5 82.5,129.75 82.5,116.5 C 82.5,103.25 93.246,92.5 106.5,92.5 C 119.75,92.5 130.5,103.25 130.5,116.5 z "
   style="stroke:#ffffff;stroke-width:6;stroke-linecap:round;stroke-linejoin:round"
   id="path10481" />
<path
   d="M 154.5,74.5 L 154.47,75.735 L 154.38,76.954 L 154.22,78.155 L 154.01,79.337 L 153.74,80.498 L 153.42,81.637 L 153.04,82.752 L 152.61,83.841 L 152.13,84.905 L 151.6,85.939 L 151.03,86.944 L 150.4,87.918 L 149.73,88.859 L 149.02,89.766 L 148.26,90.637 L 147.47,91.47 L 146.64,92.265 L 145.77,93.019 L 144.86,93.732 L 143.92,94.401 L 142.94,95.025 L 141.94,95.603 L 140.9,96.133 L 139.84,96.614 L 138.75,97.044 L 137.64,97.421 L 136.5,97.744 L 135.34,98.012 L 134.15,98.223 L 132.95,98.376 L 131.73,98.469 L 130.5,98.5 C 117.25,98.5 106.5,87.754 106.5,74.5 C 106.5,61.246 117.25,50.5 130.5,50.5 C 143.75,50.5 154.5,61.246 154.5,74.5 z "
   style="fill:#ffffff;fill-rule:nonzero;stroke:#ffffff;stroke-width:0;stroke-linecap:round;stroke-linejoin:round"
   id="path10483" />
<path
   d="M 154.5,74.5 L 154.47,75.735 L 154.38,76.954 L 154.22,78.155 L 154.01,79.337 L 153.74,80.498 L 153.42,81.637 L 153.04,82.752 L 152.61,83.841 L 152.13,84.905 L 151.6,85.939 L 151.03,86.944 L 150.4,87.918 L 149.73,88.859 L 149.02,89.766 L 148.26,90.637 L 147.47,91.47 L 146.64,92.265 L 145.77,93.019 L 144.86,93.732 L 143.92,94.401 L 142.94,95.025 L 141.94,95.603 L 140.9,96.133 L 139.84,96.614 L 138.75,97.044 L 137.64,97.421 L 136.5,97.744 L 135.34,98.012 L 134.15,98.223 L 132.95,98.376 L 131.73,98.469 L 130.5,98.5 C 117.25,98.5 106.5,87.754 106.5,74.5 C 106.5,61.246 117.25,50.5 130.5,50.5 C 143.75,50.5 154.5,61.246 154.5,74.5 z "
   style="stroke:#ffffff;stroke-width:6;stroke-linecap:round;stroke-linejoin:round"
   id="path10485" />
<path
   d="M 90.5,65.5 L 90.469,66.735 L 90.376,67.954 L 90.223,69.155 L 90.012,70.337 L 89.744,71.498 L 89.421,72.637 L 89.044,73.752 L 88.614,74.841 L 88.133,75.905 L 87.603,76.939 L 87.025,77.944 L 86.401,78.918 L 85.732,79.859 L 85.019,80.766 L 84.265,81.637 L 83.47,82.47 L 82.637,83.265 L 81.766,84.019 L 80.859,84.732 L 79.918,85.401 L 78.944,86.025 L 77.939,86.603 L 76.905,87.133 L 75.841,87.614 L 74.752,88.044 L 73.637,88.421 L 72.498,88.744 L 71.337,89.012 L 70.155,89.223 L 68.954,89.376 L 67.735,89.469 L 66.5,89.5 C 53.246,89.5 42.5,78.754 42.5,65.5 C 42.5,52.246 53.246,41.5 66.5,41.5 C 79.754,41.5 90.5,52.246 90.5,65.5 z "
   style="fill:#ffffff;fill-rule:nonzero;stroke:#ffffff;stroke-width:0;stroke-linecap:round;stroke-linejoin:round"
   id="path10487" />
<path
   d="M 90.5,65.5 L 90.469,66.735 L 90.376,67.954 L 90.223,69.155 L 90.012,70.337 L 89.744,71.498 L 89.421,72.637 L 89.044,73.752 L 88.614,74.841 L 88.133,75.905 L 87.603,76.939 L 87.025,77.944 L 86.401,78.918 L 85.732,79.859 L 85.019,80.766 L 84.265,81.637 L 83.47,82.47 L 82.637,83.265 L 81.766,84.019 L 80.859,84.732 L 79.918,85.401 L 78.944,86.025 L 77.939,86.603 L 76.905,87.133 L 75.841,87.614 L 74.752,88.044 L 73.637,88.421 L 72.498,88.744 L 71.337,89.012 L 70.155,89.223 L 68.954,89.376 L 67.735,89.469 L 66.5,89.5 C 53.246,89.5 42.5,78.754 42.5,65.5 C 42.5,52.246 53.246,41.5 66.5,41.5 C 79.754,41.5 90.5,52.246 90.5,65.5 z "
   style="stroke:#ffffff;stroke-width:6;stroke-linecap:round;stroke-linejoin:round"
   id="path10489" />
<path
   d="M 92.5,160.5 L 92.5,160.5 C 92.5,136.19 98.926,112.31 111.12,91.281"
   style="stroke:#ffffff;stroke-width:16;stroke-linecap:round;stroke-linejoin:round"
   id="path10491" />
<line
   x1="111.5"
   y1="91.5"
   x2="161.5"
   y2="120.5"
   style="stroke:#ffffff;stroke-width:16;stroke-linecap:round"
   id="line10493" />
<path
   d="M 111.5,91.5 L 111.12,91.273 C 123.27,70.324 140.72,52.938 161.71,40.867"
   style="stroke:#ffffff;stroke-width:16;stroke-linecap:round;stroke-linejoin:round"
   id="path10495" />
<path
   d="M 92.5,0.5 L 92.5,0.5 C 92.5,24.809 86.074,48.691 73.883,69.719"
   style="stroke:#ffffff;stroke-width:16;stroke-linecap:round;stroke-linejoin:round"
   id="path10497" />
<line
   x1="73.5"
   y1="69.5"
   x2="23.5"
   y2="40.5"
   style="stroke:#ffffff;stroke-width:16;stroke-linecap:round"
   id="line10499" />
<path
   d="M 73.5,69.5 L 73.883,69.719 C 61.738,90.668 44.289,108.06 23.297,120.13"
   style="stroke:#ffffff;stroke-width:16;stroke-linecap:round;stroke-linejoin:round"
   id="path10501" />
<path
   d="M 92.5,160.5 L 92.5,160.5 C 92.5,136.19 98.926,112.31 111.12,91.281"
   style="stroke-width:12;stroke-linecap:round;stroke-linejoin:round"
   id="path10503" />
<line
   x1="111.5"
   y1="91.5"
   x2="161.5"
   y2="120.5"
   style="stroke-width:12;stroke-linecap:round"
   id="line10505" />
<path
   d="M 111.5,91.5 L 111.12,91.273 C 123.27,70.324 140.72,52.938 161.71,40.867"
   style="stroke-width:12;stroke-linecap:round;stroke-linejoin:round"
   id="path10507" />
<path
   d="M 92.5,0.5 L 92.5,0.5 C 92.5,24.809 86.074,48.691 73.883,69.719"
   style="stroke-width:12;stroke-linecap:round;stroke-linejoin:round"
   id="path10509" />
<line
   x1="73.5"
   y1="69.5"
   x2="23.5"
   y2="40.5"
   style="stroke-width:12;stroke-linecap:round"
   id="line10511" />
<path
   d="M 73.5,69.5 L 73.883,69.719 C 61.738,90.668 44.289,108.06 23.297,120.13"
   style="stroke-width:12;stroke-linecap:round;stroke-linejoin:round"
   id="path10513" />
<polygon
   points="85.5,104.5 109.5,62.5 151.5,86.5 127.5,128.5 85.5,104.5 "
   style="fill:#ffffff;fill-rule:nonzero;stroke:#ffffff;stroke-width:0;stroke-linejoin:round"
   id="polygon10515" />
<polygon
   points="85.5,104.5 109.5,62.5 151.5,86.5 127.5,128.5 85.5,104.5 "
   style="stroke-width:2;stroke-linejoin:round"
   id="polygon10517" />
<path
   d="M 130.5,116.5 L 130.47,117.73 L 130.38,118.95 L 130.22,120.15 L 130.01,121.34 L 129.74,122.5 L 129.42,123.64 L 129.04,124.75 L 128.61,125.84 L 128.13,126.9 L 127.6,127.94 L 127.03,128.94 L 126.4,129.92 L 125.73,130.86 L 125.02,131.77 L 124.26,132.64 L 123.47,133.47 L 122.64,134.26 L 121.77,135.02 L 120.86,135.73 L 119.92,136.4 L 118.94,137.03 L 117.94,137.6 L 116.9,138.13 L 115.84,138.61 L 114.75,139.04 L 113.64,139.42 L 112.5,139.74 L 111.34,140.01 L 110.15,140.22 L 108.95,140.38 L 107.73,140.47 L 106.5,140.5 C 93.246,140.5 82.5,129.75 82.5,116.5 C 82.5,103.25 93.246,92.5 106.5,92.5 C 119.75,92.5 130.5,103.25 130.5,116.5 z "
   style="fill:#ffffff;fill-rule:nonzero;stroke:#ffffff;stroke-width:0;stroke-linecap:round;stroke-linejoin:round"
   id="path10519" />
<path
   d="M 130.5,116.5 L 130.47,117.73 L 130.38,118.95 L 130.22,120.15 L 130.01,121.34 L 129.74,122.5 L 129.42,123.64 L 129.04,124.75 L 128.61,125.84 L 128.13,126.9 L 127.6,127.94 L 127.03,128.94 L 126.4,129.92 L 125.73,130.86 L 125.02,131.77 L 124.26,132.64 L 123.47,133.47 L 122.64,134.26 L 121.77,135.02 L 120.86,135.73 L 119.92,136.4 L 118.94,137.03 L 117.94,137.6 L 116.9,138.13 L 115.84,138.61 L 114.75,139.04 L 113.64,139.42 L 112.5,139.74 L 111.34,140.01 L 110.15,140.22 L 108.95,140.38 L 107.73,140.47 L 106.5,140.5 C 93.246,140.5 82.5,129.75 82.5,116.5 C 82.5,103.25 93.246,92.5 106.5,92.5 C 119.75,92.5 130.5,103.25 130.5,116.5 z "
   style="stroke-width:2;stroke-linecap:round;stroke-linejoin:round"
   id="path10521" />
<path
   d="M 154.5,74.5 L 154.47,75.735 L 154.38,76.954 L 154.22,78.155 L 154.01,79.337 L 153.74,80.498 L 153.42,81.637 L 153.04,82.752 L 152.61,83.841 L 152.13,84.905 L 151.6,85.939 L 151.03,86.944 L 150.4,87.918 L 149.73,88.859 L 149.02,89.766 L 148.26,90.637 L 147.47,91.47 L 146.64,92.265 L 145.77,93.019 L 144.86,93.732 L 143.92,94.401 L 142.94,95.025 L 141.94,95.603 L 140.9,96.133 L 139.84,96.614 L 138.75,97.044 L 137.64,97.421 L 136.5,97.744 L 135.34,98.012 L 134.15,98.223 L 132.95,98.376 L 131.73,98.469 L 130.5,98.5 C 117.25,98.5 106.5,87.754 106.5,74.5 C 106.5,61.246 117.25,50.5 130.5,50.5 C 143.75,50.5 154.5,61.246 154.5,74.5 z "
   style="fill:#ffffff;fill-rule:nonzero;stroke:#ffffff;stroke-width:0;stroke-linecap:round;stroke-linejoin:round"
   id="path10523" />
<path
   d="M 154.5,74.5 L 154.47,75.735 L 154.38,76.954 L 154.22,78.155 L 154.01,79.337 L 153.74,80.498 L 153.42,81.637 L 153.04,82.752 L 152.61,83.841 L 152.13,84.905 L 151.6,85.939 L 151.03,86.944 L 150.4,87.918 L 149.73,88.859 L 149.02,89.766 L 148.26,90.637 L 147.47,91.47 L 146.64,92.265 L 145.77,93.019 L 144.86,93.732 L 143.92,94.401 L 142.94,95.025 L 141.94,95.603 L 140.9,96.133 L 139.84,96.614 L 138.75,97.044 L 137.64,97.421 L 136.5,97.744 L 135.34,98.012 L 134.15,98.223 L 132.95,98.376 L 131.73,98.469 L 130.5,98.5 C 117.25,98.5 106.5,87.754 106.5,74.5 C 106.5,61.246 117.25,50.5 130.5,50.5 C 143.75,50.5 154.5,61.246 154.5,74.5 z "
   style="stroke-width:2;stroke-linecap:round;stroke-linejoin:round"
   id="path10525" />
<path
   d="M 66.992,140.5 L 66.981,140.71 L 66.948,140.91 L 66.894,141.11 L 66.82,141.31 L 66.725,141.51 L 66.61,141.7 L 66.477,141.89 L 66.324,142.07 L 66.154,142.25 L 65.967,142.42 L 65.762,142.59 L 65.541,142.76 L 65.304,142.92 L 65.052,143.07 L 64.785,143.22 L 64.504,143.36 L 64.209,143.49 L 63.901,143.62 L 63.58,143.74 L 63.247,143.85 L 62.902,143.95 L 62.547,144.05 L 62.181,144.14 L 61.804,144.22 L 61.419,144.29 L 61.024,144.36 L 60.621,144.41 L 60.211,144.46 L 59.793,144.49 L 59.368,144.52 L 58.937,144.53 L 58.5,144.54 C 53.812,144.54 50.008,142.73 50.008,140.5 C 50.008,138.27 53.812,136.46 58.5,136.46 C 63.188,136.46 66.992,138.27 66.992,140.5 z "
   style="fill:#ffffff;fill-rule:nonzero;stroke:#ffffff;stroke-width:0;stroke-linecap:round;stroke-linejoin:round"
   id="path10527" />
<path
   d="M 66.992,140.5 L 66.981,140.71 L 66.948,140.91 L 66.894,141.11 L 66.82,141.31 L 66.725,141.51 L 66.61,141.7 L 66.477,141.89 L 66.324,142.07 L 66.154,142.25 L 65.967,142.42 L 65.762,142.59 L 65.541,142.76 L 65.304,142.92 L 65.052,143.07 L 64.785,143.22 L 64.504,143.36 L 64.209,143.49 L 63.901,143.62 L 63.58,143.74 L 63.247,143.85 L 62.902,143.95 L 62.547,144.05 L 62.181,144.14 L 61.804,144.22 L 61.419,144.29 L 61.024,144.36 L 60.621,144.41 L 60.211,144.46 L 59.793,144.49 L 59.368,144.52 L 58.937,144.53 L 58.5,144.54 C 53.812,144.54 50.008,142.73 50.008,140.5 C 50.008,138.27 53.812,136.46 58.5,136.46 C 63.188,136.46 66.992,138.27 66.992,140.5 z "
   style="stroke-width:0.84906;stroke-linecap:round;stroke-linejoin:round"
   id="path10529" />
<text
   transform="matrix(1,0,0,-1,53.191,137.98)"
   style="font-size:8px;fill:#000000;stroke:none;font-family:&quot;Helvetica&quot;, sans-serif"
   id="text10531">30</text>

<path
   d="M 90.5,65.5 L 90.469,66.735 L 90.376,67.954 L 90.223,69.155 L 90.012,70.337 L 89.744,71.498 L 89.421,72.637 L 89.044,73.752 L 88.614,74.841 L 88.133,75.905 L 87.603,76.939 L 87.025,77.944 L 86.401,78.918 L 85.732,79.859 L 85.019,80.766 L 84.265,81.637 L 83.47,82.47 L 82.637,83.265 L 81.766,84.019 L 80.859,84.732 L 79.918,85.401 L 78.944,86.025 L 77.939,86.603 L 76.905,87.133 L 75.841,87.614 L 74.752,88.044 L 73.637,88.421 L 72.498,88.744 L 71.337,89.012 L 70.155,89.223 L 68.954,89.376 L 67.735,89.469 L 66.5,89.5 C 53.246,89.5 42.5,78.754 42.5,65.5 C 42.5,52.246 53.246,41.5 66.5,41.5 C 79.754,41.5 90.5,52.246 90.5,65.5 z "
   style="fill:#ffffff;fill-rule:nonzero;stroke:#ffffff;stroke-width:0;stroke-linecap:round;stroke-linejoin:round"
   id="path10533" />
<path
   d="M 90.5,65.5 L 90.469,66.735 L 90.376,67.954 L 90.223,69.155 L 90.012,70.337 L 89.744,71.498 L 89.421,72.637 L 89.044,73.752 L 88.614,74.841 L 88.133,75.905 L 87.603,76.939 L 87.025,77.944 L 86.401,78.918 L 85.732,79.859 L 85.019,80.766 L 84.265,81.637 L 83.47,82.47 L 82.637,83.265 L 81.766,84.019 L 80.859,84.732 L 79.918,85.401 L 78.944,86.025 L 77.939,86.603 L 76.905,87.133 L 75.841,87.614 L 74.752,88.044 L 73.637,88.421 L 72.498,88.744 L 71.337,89.012 L 70.155,89.223 L 68.954,89.376 L 67.735,89.469 L 66.5,89.5 C 53.246,89.5 42.5,78.754 42.5,65.5 C 42.5,52.246 53.246,41.5 66.5,41.5 C 79.754,41.5 90.5,52.246 90.5,65.5 z "
   style="stroke-width:2;stroke-linecap:round;stroke-linejoin:round"
   id="path10535" />
<path
   d="M 66.992,140.5 L 66.981,140.71 L 66.948,140.91 L 66.894,141.11 L 66.82,141.31 L 66.725,141.51 L 66.61,141.7 L 66.477,141.89 L 66.324,142.07 L 66.154,142.25 L 65.967,142.42 L 65.762,142.59 L 65.541,142.76 L 65.304,142.92 L 65.052,143.07 L 64.785,143.22 L 64.504,143.36 L 64.209,143.49 L 63.901,143.62 L 63.58,143.74 L 63.247,143.85 L 62.902,143.95 L 62.547,144.05 L 62.181,144.14 L 61.804,144.22 L 61.419,144.29 L 61.024,144.36 L 60.621,144.41 L 60.211,144.46 L 59.793,144.49 L 59.368,144.52 L 58.937,144.53 L 58.5,144.54 C 53.812,144.54 50.008,142.73 50.008,140.5 C 50.008,138.27 53.812,136.46 58.5,136.46 C 63.188,136.46 66.992,138.27 66.992,140.5 z "
   style="fill:#ffffff;fill-rule:nonzero;stroke:#ffffff;stroke-width:0;stroke-linecap:round;stroke-linejoin:round"
   id="path10537" />
<path
   d="M 66.992,140.5 L 66.981,140.71 L 66.948,140.91 L 66.894,141.11 L 66.82,141.31 L 66.725,141.51 L 66.61,141.7 L 66.477,141.89 L 66.324,142.07 L 66.154,142.25 L 65.967,142.42 L 65.762,142.59 L 65.541,142.76 L 65.304,142.92 L 65.052,143.07 L 64.785,143.22 L 64.504,143.36 L 64.209,143.49 L 63.901,143.62 L 63.58,143.74 L 63.247,143.85 L 62.902,143.95 L 62.547,144.05 L 62.181,144.14 L 61.804,144.22 L 61.419,144.29 L 61.024,144.36 L 60.621,144.41 L 60.211,144.46 L 59.793,144.49 L 59.368,144.52 L 58.937,144.53 L 58.5,144.54 C 53.812,144.54 50.008,142.73 50.008,140.5 C 50.008,138.27 53.812,136.46 58.5,136.46 C 63.188,136.46 66.992,138.27 66.992,140.5 z "
   style="stroke-width:0.84906;stroke-linecap:round;stroke-linejoin:round"
   id="path10539" />
<text
   transform="matrix(1,0,0,-1,53.191,137.98)"
   style="font-size:8px;fill:#000000;stroke:none;font-family:&quot;Helvetica&quot;, sans-serif"
   id="text10541">30</text>

<polygon
   points="46.5,160.5 138.5,160.5 184.5,80.5 138.5,0.5 46.5,0.5 0.5,80.5 46.5,160.5 "
   style="stroke-width:1;stroke-linejoin:round"
   id="polygon10543" />
</g></svg>
