<?xml version="1.0" encoding="UTF-8" standalone="no"?>
<svg
   xmlns:dc="http://purl.org/dc/elements/1.1/"
   xmlns:cc="http://web.resource.org/cc/"
   xmlns:rdf="http://www.w3.org/1999/02/22-rdf-syntax-ns#"
   xmlns:svg="http://www.w3.org/2000/svg"
   xmlns="http://www.w3.org/2000/svg"
   xmlns:sodipodi="http://inkscape.sourceforge.net/DTD/sodipodi-0.dtd"
   xmlns:inkscape="http://www.inkscape.org/namespaces/inkscape"
   width="100"
   height="100"
   viewBox="0 0 1 1"
   preserveAspectRatio="none"
   id="svg12131"
   sodipodi:version="0.32"
   inkscape:version="0.43"
   sodipodi:docname="tile436.svg"
   sodipodi:docbase="C:\Documents and Settings\lentz\Desktop\TileDesigner"
   version="1.0">
  <metadata
     id="metadata12232">
    <rdf:RDF>
      <cc:Work
         rdf:about="">
        <dc:format>image/svg+xml</dc:format>
        <dc:type
           rdf:resource="http://purl.org/dc/dcmitype/StillImage" />
      </cc:Work>
    </rdf:RDF>
  </metadata>
  <defs
     id="defs12230" />
  <sodipodi:namedview
     inkscape:window-height="540"
     inkscape:window-width="749"
     inkscape:pageshadow="2"
     inkscape:pageopacity="0.0"
     borderopacity="1.0"
     bordercolor="#666666"
     pagecolor="#ffffff"
     id="base"
     inkscape:zoom="0.52361111"
     inkscape:cx="360"
     inkscape:cy="360"
     inkscape:window-x="242"
     inkscape:window-y="242"
     inkscape:current-layer="svg12131" />
  <title
     id="title12133">SVG drawing</title>
  <desc
     id="desc12135">This was produced by version 4.1 of GNU libplot, a free library for exporting 2-D vector graphics.</desc>
  <rect
     x="0"
     y="0"
     width="1"
     height="1"
     style="fill:#ffffff;stroke:none"
     id="rect12137" />
  <g
     transform="matrix(5.418114e-3,0,0,-5.333139e-3,-1.175565e-3,0.939964)"
     xml:space="preserve"
     style="font-style:normal;font-variant:normal;font-weight:normal;font-stretch:normal;letter-spacing:normal;word-spacing:normal;text-anchor:start;fill:none;fill-opacity:1;stroke:#000000;stroke-linecap:butt;stroke-linejoin:miter;stroke-miterlimit:10.43299961;stroke-dasharray:none;stroke-dashoffset:0;stroke-opacity:1"
     id="g12139">
<polygon
   points="46.5,160.5 138.5,160.5 184.5,80.5 138.5,0.5 46.5,0.5 0.5,80.5 46.5,160.5 "
   style="fill:#b46301;fill-rule:nonzero;stroke:#b46301;stroke-width:0;stroke-linejoin:round"
   id="polygon12141" />
<text
   transform="matrix(1,0,0,-1,109.19,7.9141)"
   style="font-size:8px;fill:#000000;stroke:none;font-family:&quot;Helvetica&quot;, sans-serif"
   id="text12143">436</text>

<path
   d="M 90.5,95.5 L 90.469,96.735 L 90.376,97.954 L 90.223,99.155 L 90.012,100.34 L 89.744,101.5 L 89.421,102.64 L 89.044,103.75 L 88.614,104.84 L 88.133,105.9 L 87.603,106.94 L 87.025,107.94 L 86.401,108.92 L 85.732,109.86 L 85.019,110.77 L 84.265,111.64 L 83.47,112.47 L 82.637,113.26 L 81.766,114.02 L 80.859,114.73 L 79.918,115.4 L 78.944,116.03 L 77.939,116.6 L 76.905,117.13 L 75.841,117.61 L 74.752,118.04 L 73.637,118.42 L 72.498,118.74 L 71.337,119.01 L 70.155,119.22 L 68.954,119.38 L 67.735,119.47 L 66.5,119.5 C 53.246,119.5 42.5,108.75 42.5,95.5 C 42.5,82.246 53.246,71.5 66.5,71.5 C 79.754,71.5 90.5,82.246 90.5,95.5 z "
   style="fill:#ffffff;fill-rule:nonzero;stroke:#ffffff;stroke-width:0;stroke-linecap:round;stroke-linejoin:round"
   id="path12145" />
<path
   d="M 90.5,95.5 L 90.469,96.735 L 90.376,97.954 L 90.223,99.155 L 90.012,100.34 L 89.744,101.5 L 89.421,102.64 L 89.044,103.75 L 88.614,104.84 L 88.133,105.9 L 87.603,106.94 L 87.025,107.94 L 86.401,108.92 L 85.732,109.86 L 85.019,110.77 L 84.265,111.64 L 83.47,112.47 L 82.637,113.26 L 81.766,114.02 L 80.859,114.73 L 79.918,115.4 L 78.944,116.03 L 77.939,116.6 L 76.905,117.13 L 75.841,117.61 L 74.752,118.04 L 73.637,118.42 L 72.498,118.74 L 71.337,119.01 L 70.155,119.22 L 68.954,119.38 L 67.735,119.47 L 66.5,119.5 C 53.246,119.5 42.5,108.75 42.5,95.5 C 42.5,82.246 53.246,71.5 66.5,71.5 C 79.754,71.5 90.5,82.246 90.5,95.5 z "
   style="stroke:#ffffff;stroke-width:6;stroke-linecap:round;stroke-linejoin:round"
   id="path12147" />
<path
   d="M 116.5,20.5 L 116.47,21.735 L 116.38,22.954 L 116.22,24.155 L 116.01,25.337 L 115.74,26.498 L 115.42,27.637 L 115.04,28.752 L 114.61,29.841 L 114.13,30.905 L 113.6,31.939 L 113.03,32.944 L 112.4,33.918 L 111.73,34.859 L 111.02,35.766 L 110.26,36.637 L 109.47,37.47 L 108.64,38.265 L 107.77,39.019 L 106.86,39.732 L 105.92,40.401 L 104.94,41.025 L 103.94,41.603 L 102.9,42.133 L 101.84,42.614 L 100.75,43.044 L 99.637,43.421 L 98.498,43.744 L 97.337,44.012 L 96.155,44.223 L 94.954,44.376 L 93.735,44.469 L 92.5,44.5 C 79.246,44.5 68.5,33.754 68.5,20.5 C 68.5,7.2461 79.246,-3.5 92.5,-3.5 C 105.75,-3.5 116.5,7.2461 116.5,20.5 z "
   style="fill:#ffffff;fill-rule:nonzero;stroke:#ffffff;stroke-width:0;stroke-linecap:round;stroke-linejoin:round"
   id="path12149" />
<path
   d="M 116.5,20.5 L 116.47,21.735 L 116.38,22.954 L 116.22,24.155 L 116.01,25.337 L 115.74,26.498 L 115.42,27.637 L 115.04,28.752 L 114.61,29.841 L 114.13,30.905 L 113.6,31.939 L 113.03,32.944 L 112.4,33.918 L 111.73,34.859 L 111.02,35.766 L 110.26,36.637 L 109.47,37.47 L 108.64,38.265 L 107.77,39.019 L 106.86,39.732 L 105.92,40.401 L 104.94,41.025 L 103.94,41.603 L 102.9,42.133 L 101.84,42.614 L 100.75,43.044 L 99.637,43.421 L 98.498,43.744 L 97.337,44.012 L 96.155,44.223 L 94.954,44.376 L 93.735,44.469 L 92.5,44.5 C 79.246,44.5 68.5,33.754 68.5,20.5 C 68.5,7.2461 79.246,-3.5 92.5,-3.5 C 105.75,-3.5 116.5,7.2461 116.5,20.5 z "
   style="stroke:#ffffff;stroke-width:6;stroke-linecap:round;stroke-linejoin:round"
   id="path12151" />
<path
   d="M 167.5,50.5 L 167.47,51.735 L 167.38,52.954 L 167.22,54.155 L 167.01,55.337 L 166.74,56.498 L 166.42,57.637 L 166.04,58.752 L 165.61,59.841 L 165.13,60.905 L 164.6,61.939 L 164.03,62.944 L 163.4,63.918 L 162.73,64.859 L 162.02,65.766 L 161.26,66.637 L 160.47,67.47 L 159.64,68.265 L 158.77,69.019 L 157.86,69.732 L 156.92,70.401 L 155.94,71.025 L 154.94,71.603 L 153.9,72.133 L 152.84,72.614 L 151.75,73.044 L 150.64,73.421 L 149.5,73.744 L 148.34,74.012 L 147.15,74.223 L 145.95,74.376 L 144.73,74.469 L 143.5,74.5 C 130.25,74.5 119.5,63.754 119.5,50.5 C 119.5,37.246 130.25,26.5 143.5,26.5 C 156.75,26.5 167.5,37.246 167.5,50.5 z "
   style="fill:#ffffff;fill-rule:nonzero;stroke:#ffffff;stroke-width:0;stroke-linecap:round;stroke-linejoin:round"
   id="path12153" />
<path
   d="M 167.5,50.5 L 167.47,51.735 L 167.38,52.954 L 167.22,54.155 L 167.01,55.337 L 166.74,56.498 L 166.42,57.637 L 166.04,58.752 L 165.61,59.841 L 165.13,60.905 L 164.6,61.939 L 164.03,62.944 L 163.4,63.918 L 162.73,64.859 L 162.02,65.766 L 161.26,66.637 L 160.47,67.47 L 159.64,68.265 L 158.77,69.019 L 157.86,69.732 L 156.92,70.401 L 155.94,71.025 L 154.94,71.603 L 153.9,72.133 L 152.84,72.614 L 151.75,73.044 L 150.64,73.421 L 149.5,73.744 L 148.34,74.012 L 147.15,74.223 L 145.95,74.376 L 144.73,74.469 L 143.5,74.5 C 130.25,74.5 119.5,63.754 119.5,50.5 C 119.5,37.246 130.25,26.5 143.5,26.5 C 156.75,26.5 167.5,37.246 167.5,50.5 z "
   style="stroke:#ffffff;stroke-width:6;stroke-linecap:round;stroke-linejoin:round"
   id="path12155" />
<path
   d="M 167.5,110.5 L 167.47,111.73 L 167.38,112.95 L 167.22,114.15 L 167.01,115.34 L 166.74,116.5 L 166.42,117.64 L 166.04,118.75 L 165.61,119.84 L 165.13,120.9 L 164.6,121.94 L 164.03,122.94 L 163.4,123.92 L 162.73,124.86 L 162.02,125.77 L 161.26,126.64 L 160.47,127.47 L 159.64,128.26 L 158.77,129.02 L 157.86,129.73 L 156.92,130.4 L 155.94,131.03 L 154.94,131.6 L 153.9,132.13 L 152.84,132.61 L 151.75,133.04 L 150.64,133.42 L 149.5,133.74 L 148.34,134.01 L 147.15,134.22 L 145.95,134.38 L 144.73,134.47 L 143.5,134.5 C 130.25,134.5 119.5,123.75 119.5,110.5 C 119.5,97.246 130.25,86.5 143.5,86.5 C 156.75,86.5 167.5,97.246 167.5,110.5 z "
   style="fill:#ffffff;fill-rule:nonzero;stroke:#ffffff;stroke-width:0;stroke-linecap:round;stroke-linejoin:round"
   id="path12157" />
<path
   d="M 167.5,110.5 L 167.47,111.73 L 167.38,112.95 L 167.22,114.15 L 167.01,115.34 L 166.74,116.5 L 166.42,117.64 L 166.04,118.75 L 165.61,119.84 L 165.13,120.9 L 164.6,121.94 L 164.03,122.94 L 163.4,123.92 L 162.73,124.86 L 162.02,125.77 L 161.26,126.64 L 160.47,127.47 L 159.64,128.26 L 158.77,129.02 L 157.86,129.73 L 156.92,130.4 L 155.94,131.03 L 154.94,131.6 L 153.9,132.13 L 152.84,132.61 L 151.75,133.04 L 150.64,133.42 L 149.5,133.74 L 148.34,134.01 L 147.15,134.22 L 145.95,134.38 L 144.73,134.47 L 143.5,134.5 C 130.25,134.5 119.5,123.75 119.5,110.5 C 119.5,97.246 130.25,86.5 143.5,86.5 C 156.75,86.5 167.5,97.246 167.5,110.5 z "
   style="stroke:#ffffff;stroke-width:6;stroke-linecap:round;stroke-linejoin:round"
   id="path12159" />
<path
   d="M 73.5,91.5 L 73.883,91.281 C 86.074,112.31 92.5,136.19 92.5,160.5"
   style="stroke:#ffffff;stroke-width:16;stroke-linecap:round;stroke-linejoin:round"
   id="path12161" />
<path
   d="M 23.5,40.5 L 23.297,40.871 C 44.289,52.941 61.738,70.332 73.883,91.281"
   style="stroke:#ffffff;stroke-width:16;stroke-linecap:round;stroke-linejoin:round"
   id="path12163" />
<line
   x1="73.5"
   y1="91.5"
   x2="23.5"
   y2="120.5"
   style="stroke:#ffffff;stroke-width:16;stroke-linecap:round"
   id="line12165" />
<line
   x1="92.5"
   y1="20.5"
   x2="92.5"
   y2="0.5"
   style="stroke:#ffffff;stroke-width:16;stroke-linecap:round"
   id="line12167" />
<line
   x1="143.5"
   y1="50.5"
   x2="161.5"
   y2="40.5"
   style="stroke:#ffffff;stroke-width:16;stroke-linecap:round"
   id="line12169" />
<line
   x1="143.5"
   y1="110.5"
   x2="161.5"
   y2="120.5"
   style="stroke:#ffffff;stroke-width:16;stroke-linecap:round"
   id="line12171" />
<path
   d="M 73.5,91.5 L 73.883,91.281 C 86.074,112.31 92.5,136.19 92.5,160.5"
   style="stroke-width:12;stroke-linecap:round;stroke-linejoin:round"
   id="path12173" />
<path
   d="M 23.5,40.5 L 23.297,40.871 C 44.289,52.941 61.738,70.332 73.883,91.281"
   style="stroke-width:12;stroke-linecap:round;stroke-linejoin:round"
   id="path12175" />
<line
   x1="73.5"
   y1="91.5"
   x2="23.5"
   y2="120.5"
   style="stroke-width:12;stroke-linecap:round"
   id="line12177" />
<line
   x1="92.5"
   y1="20.5"
   x2="92.5"
   y2="0.5"
   style="stroke-width:12;stroke-linecap:round"
   id="line12179" />
<line
   x1="143.5"
   y1="50.5"
   x2="161.5"
   y2="40.5"
   style="stroke-width:12;stroke-linecap:round"
   id="line12181" />
<line
   x1="143.5"
   y1="110.5"
   x2="161.5"
   y2="120.5"
   style="stroke-width:12;stroke-linecap:round"
   id="line12183" />
<path
   d="M 90.5,95.5 L 90.469,96.735 L 90.376,97.954 L 90.223,99.155 L 90.012,100.34 L 89.744,101.5 L 89.421,102.64 L 89.044,103.75 L 88.614,104.84 L 88.133,105.9 L 87.603,106.94 L 87.025,107.94 L 86.401,108.92 L 85.732,109.86 L 85.019,110.77 L 84.265,111.64 L 83.47,112.47 L 82.637,113.26 L 81.766,114.02 L 80.859,114.73 L 79.918,115.4 L 78.944,116.03 L 77.939,116.6 L 76.905,117.13 L 75.841,117.61 L 74.752,118.04 L 73.637,118.42 L 72.498,118.74 L 71.337,119.01 L 70.155,119.22 L 68.954,119.38 L 67.735,119.47 L 66.5,119.5 C 53.246,119.5 42.5,108.75 42.5,95.5 C 42.5,82.246 53.246,71.5 66.5,71.5 C 79.754,71.5 90.5,82.246 90.5,95.5 z "
   style="fill:#ffffff;fill-rule:nonzero;stroke:#ffffff;stroke-width:0;stroke-linecap:round;stroke-linejoin:round"
   id="path12185" />
<path
   d="M 90.5,95.5 L 90.469,96.735 L 90.376,97.954 L 90.223,99.155 L 90.012,100.34 L 89.744,101.5 L 89.421,102.64 L 89.044,103.75 L 88.614,104.84 L 88.133,105.9 L 87.603,106.94 L 87.025,107.94 L 86.401,108.92 L 85.732,109.86 L 85.019,110.77 L 84.265,111.64 L 83.47,112.47 L 82.637,113.26 L 81.766,114.02 L 80.859,114.73 L 79.918,115.4 L 78.944,116.03 L 77.939,116.6 L 76.905,117.13 L 75.841,117.61 L 74.752,118.04 L 73.637,118.42 L 72.498,118.74 L 71.337,119.01 L 70.155,119.22 L 68.954,119.38 L 67.735,119.47 L 66.5,119.5 C 53.246,119.5 42.5,108.75 42.5,95.5 C 42.5,82.246 53.246,71.5 66.5,71.5 C 79.754,71.5 90.5,82.246 90.5,95.5 z "
   style="stroke-width:2;stroke-linecap:round;stroke-linejoin:round"
   id="path12187" />
<path
   d="M 119.99,69.5 L 119.98,69.708 L 119.95,69.913 L 119.89,70.115 L 119.82,70.314 L 119.72,70.509 L 119.61,70.701 L 119.48,70.889 L 119.32,71.072 L 119.15,71.251 L 118.97,71.425 L 118.76,71.594 L 118.54,71.758 L 118.3,71.917 L 118.05,72.069 L 117.79,72.216 L 117.5,72.356 L 117.21,72.49 L 116.9,72.617 L 116.58,72.737 L 116.25,72.849 L 115.9,72.954 L 115.55,73.052 L 115.18,73.141 L 114.8,73.222 L 114.42,73.294 L 114.02,73.357 L 113.62,73.412 L 113.21,73.457 L 112.79,73.493 L 112.37,73.518 L 111.94,73.534 L 111.5,73.539 C 106.81,73.539 103.01,71.73 103.01,69.5 C 103.01,67.27 106.81,65.461 111.5,65.461 C 116.19,65.461 119.99,67.27 119.99,69.5 z "
   style="fill:#ffffff;fill-rule:nonzero;stroke:#ffffff;stroke-width:0;stroke-linecap:round;stroke-linejoin:round"
   id="path12189" />
<path
   d="M 119.99,69.5 L 119.98,69.708 L 119.95,69.913 L 119.89,70.115 L 119.82,70.314 L 119.72,70.509 L 119.61,70.701 L 119.48,70.889 L 119.32,71.072 L 119.15,71.251 L 118.97,71.425 L 118.76,71.594 L 118.54,71.758 L 118.3,71.917 L 118.05,72.069 L 117.79,72.216 L 117.5,72.356 L 117.21,72.49 L 116.9,72.617 L 116.58,72.737 L 116.25,72.849 L 115.9,72.954 L 115.55,73.052 L 115.18,73.141 L 114.8,73.222 L 114.42,73.294 L 114.02,73.357 L 113.62,73.412 L 113.21,73.457 L 112.79,73.493 L 112.37,73.518 L 111.94,73.534 L 111.5,73.539 C 106.81,73.539 103.01,71.73 103.01,69.5 C 103.01,67.27 106.81,65.461 111.5,65.461 C 116.19,65.461 119.99,67.27 119.99,69.5 z "
   style="stroke-width:0.84906;stroke-linecap:round;stroke-linejoin:round"
   id="path12191" />
<text
   transform="matrix(1,0,0,-1,106.19,66.977)"
   style="font-size:8px;fill:#000000;stroke:none;font-family:&quot;Helvetica&quot;, sans-serif"
   id="text12193">80</text>

<path
   d="M 116.5,20.5 L 116.47,21.735 L 116.38,22.954 L 116.22,24.155 L 116.01,25.337 L 115.74,26.498 L 115.42,27.637 L 115.04,28.752 L 114.61,29.841 L 114.13,30.905 L 113.6,31.939 L 113.03,32.944 L 112.4,33.918 L 111.73,34.859 L 111.02,35.766 L 110.26,36.637 L 109.47,37.47 L 108.64,38.265 L 107.77,39.019 L 106.86,39.732 L 105.92,40.401 L 104.94,41.025 L 103.94,41.603 L 102.9,42.133 L 101.84,42.614 L 100.75,43.044 L 99.637,43.421 L 98.498,43.744 L 97.337,44.012 L 96.155,44.223 L 94.954,44.376 L 93.735,44.469 L 92.5,44.5 C 79.246,44.5 68.5,33.754 68.5,20.5 C 68.5,7.2461 79.246,-3.5 92.5,-3.5 C 105.75,-3.5 116.5,7.2461 116.5,20.5 z "
   style="fill:#ffffff;fill-rule:nonzero;stroke:#ffffff;stroke-width:0;stroke-linecap:round;stroke-linejoin:round"
   id="path12195" />
<path
   d="M 116.5,20.5 L 116.47,21.735 L 116.38,22.954 L 116.22,24.155 L 116.01,25.337 L 115.74,26.498 L 115.42,27.637 L 115.04,28.752 L 114.61,29.841 L 114.13,30.905 L 113.6,31.939 L 113.03,32.944 L 112.4,33.918 L 111.73,34.859 L 111.02,35.766 L 110.26,36.637 L 109.47,37.47 L 108.64,38.265 L 107.77,39.019 L 106.86,39.732 L 105.92,40.401 L 104.94,41.025 L 103.94,41.603 L 102.9,42.133 L 101.84,42.614 L 100.75,43.044 L 99.637,43.421 L 98.498,43.744 L 97.337,44.012 L 96.155,44.223 L 94.954,44.376 L 93.735,44.469 L 92.5,44.5 C 79.246,44.5 68.5,33.754 68.5,20.5 C 68.5,7.2461 79.246,-3.5 92.5,-3.5 C 105.75,-3.5 116.5,7.2461 116.5,20.5 z "
   style="stroke-width:2;stroke-linecap:round;stroke-linejoin:round"
   id="path12197" />
<path
   d="M 119.99,69.5 L 119.98,69.708 L 119.95,69.913 L 119.89,70.115 L 119.82,70.314 L 119.72,70.509 L 119.61,70.701 L 119.48,70.889 L 119.32,71.072 L 119.15,71.251 L 118.97,71.425 L 118.76,71.594 L 118.54,71.758 L 118.3,71.917 L 118.05,72.069 L 117.79,72.216 L 117.5,72.356 L 117.21,72.49 L 116.9,72.617 L 116.58,72.737 L 116.25,72.849 L 115.9,72.954 L 115.55,73.052 L 115.18,73.141 L 114.8,73.222 L 114.42,73.294 L 114.02,73.357 L 113.62,73.412 L 113.21,73.457 L 112.79,73.493 L 112.37,73.518 L 111.94,73.534 L 111.5,73.539 C 106.81,73.539 103.01,71.73 103.01,69.5 C 103.01,67.27 106.81,65.461 111.5,65.461 C 116.19,65.461 119.99,67.27 119.99,69.5 z "
   style="fill:#ffffff;fill-rule:nonzero;stroke:#ffffff;stroke-width:0;stroke-linecap:round;stroke-linejoin:round"
   id="path12199" />
<path
   d="M 119.99,69.5 L 119.98,69.708 L 119.95,69.913 L 119.89,70.115 L 119.82,70.314 L 119.72,70.509 L 119.61,70.701 L 119.48,70.889 L 119.32,71.072 L 119.15,71.251 L 118.97,71.425 L 118.76,71.594 L 118.54,71.758 L 118.3,71.917 L 118.05,72.069 L 117.79,72.216 L 117.5,72.356 L 117.21,72.49 L 116.9,72.617 L 116.58,72.737 L 116.25,72.849 L 115.9,72.954 L 115.55,73.052 L 115.18,73.141 L 114.8,73.222 L 114.42,73.294 L 114.02,73.357 L 113.62,73.412 L 113.21,73.457 L 112.79,73.493 L 112.37,73.518 L 111.94,73.534 L 111.5,73.539 C 106.81,73.539 103.01,71.73 103.01,69.5 C 103.01,67.27 106.81,65.461 111.5,65.461 C 116.19,65.461 119.99,67.27 119.99,69.5 z "
   style="stroke-width:0.84906;stroke-linecap:round;stroke-linejoin:round"
   id="path12201" />
<text
   transform="matrix(1,0,0,-1,106.19,66.977)"
   style="font-size:8px;fill:#000000;stroke:none;font-family:&quot;Helvetica&quot;, sans-serif"
   id="text12203">80</text>

<path
   d="M 167.5,50.5 L 167.47,51.735 L 167.38,52.954 L 167.22,54.155 L 167.01,55.337 L 166.74,56.498 L 166.42,57.637 L 166.04,58.752 L 165.61,59.841 L 165.13,60.905 L 164.6,61.939 L 164.03,62.944 L 163.4,63.918 L 162.73,64.859 L 162.02,65.766 L 161.26,66.637 L 160.47,67.47 L 159.64,68.265 L 158.77,69.019 L 157.86,69.732 L 156.92,70.401 L 155.94,71.025 L 154.94,71.603 L 153.9,72.133 L 152.84,72.614 L 151.75,73.044 L 150.64,73.421 L 149.5,73.744 L 148.34,74.012 L 147.15,74.223 L 145.95,74.376 L 144.73,74.469 L 143.5,74.5 C 130.25,74.5 119.5,63.754 119.5,50.5 C 119.5,37.246 130.25,26.5 143.5,26.5 C 156.75,26.5 167.5,37.246 167.5,50.5 z "
   style="fill:#ffffff;fill-rule:nonzero;stroke:#ffffff;stroke-width:0;stroke-linecap:round;stroke-linejoin:round"
   id="path12205" />
<path
   d="M 167.5,50.5 L 167.47,51.735 L 167.38,52.954 L 167.22,54.155 L 167.01,55.337 L 166.74,56.498 L 166.42,57.637 L 166.04,58.752 L 165.61,59.841 L 165.13,60.905 L 164.6,61.939 L 164.03,62.944 L 163.4,63.918 L 162.73,64.859 L 162.02,65.766 L 161.26,66.637 L 160.47,67.47 L 159.64,68.265 L 158.77,69.019 L 157.86,69.732 L 156.92,70.401 L 155.94,71.025 L 154.94,71.603 L 153.9,72.133 L 152.84,72.614 L 151.75,73.044 L 150.64,73.421 L 149.5,73.744 L 148.34,74.012 L 147.15,74.223 L 145.95,74.376 L 144.73,74.469 L 143.5,74.5 C 130.25,74.5 119.5,63.754 119.5,50.5 C 119.5,37.246 130.25,26.5 143.5,26.5 C 156.75,26.5 167.5,37.246 167.5,50.5 z "
   style="stroke-width:2;stroke-linecap:round;stroke-linejoin:round"
   id="path12207" />
<path
   d="M 119.99,69.5 L 119.98,69.708 L 119.95,69.913 L 119.89,70.115 L 119.82,70.314 L 119.72,70.509 L 119.61,70.701 L 119.48,70.889 L 119.32,71.072 L 119.15,71.251 L 118.97,71.425 L 118.76,71.594 L 118.54,71.758 L 118.3,71.917 L 118.05,72.069 L 117.79,72.216 L 117.5,72.356 L 117.21,72.49 L 116.9,72.617 L 116.58,72.737 L 116.25,72.849 L 115.9,72.954 L 115.55,73.052 L 115.18,73.141 L 114.8,73.222 L 114.42,73.294 L 114.02,73.357 L 113.62,73.412 L 113.21,73.457 L 112.79,73.493 L 112.37,73.518 L 111.94,73.534 L 111.5,73.539 C 106.81,73.539 103.01,71.73 103.01,69.5 C 103.01,67.27 106.81,65.461 111.5,65.461 C 116.19,65.461 119.99,67.27 119.99,69.5 z "
   style="fill:#ffffff;fill-rule:nonzero;stroke:#ffffff;stroke-width:0;stroke-linecap:round;stroke-linejoin:round"
   id="path12209" />
<path
   d="M 119.99,69.5 L 119.98,69.708 L 119.95,69.913 L 119.89,70.115 L 119.82,70.314 L 119.72,70.509 L 119.61,70.701 L 119.48,70.889 L 119.32,71.072 L 119.15,71.251 L 118.97,71.425 L 118.76,71.594 L 118.54,71.758 L 118.3,71.917 L 118.05,72.069 L 117.79,72.216 L 117.5,72.356 L 117.21,72.49 L 116.9,72.617 L 116.58,72.737 L 116.25,72.849 L 115.9,72.954 L 115.55,73.052 L 115.18,73.141 L 114.8,73.222 L 114.42,73.294 L 114.02,73.357 L 113.62,73.412 L 113.21,73.457 L 112.79,73.493 L 112.37,73.518 L 111.94,73.534 L 111.5,73.539 C 106.81,73.539 103.01,71.73 103.01,69.5 C 103.01,67.27 106.81,65.461 111.5,65.461 C 116.19,65.461 119.99,67.27 119.99,69.5 z "
   style="stroke-width:0.84906;stroke-linecap:round;stroke-linejoin:round"
   id="path12211" />
<text
   transform="matrix(1,0,0,-1,106.19,66.977)"
   style="font-size:8px;fill:#000000;stroke:none;font-family:&quot;Helvetica&quot;, sans-serif"
   id="text12213">80</text>

<path
   d="M 167.5,110.5 L 167.47,111.73 L 167.38,112.95 L 167.22,114.15 L 167.01,115.34 L 166.74,116.5 L 166.42,117.64 L 166.04,118.75 L 165.61,119.84 L 165.13,120.9 L 164.6,121.94 L 164.03,122.94 L 163.4,123.92 L 162.73,124.86 L 162.02,125.77 L 161.26,126.64 L 160.47,127.47 L 159.64,128.26 L 158.77,129.02 L 157.86,129.73 L 156.92,130.4 L 155.94,131.03 L 154.94,131.6 L 153.9,132.13 L 152.84,132.61 L 151.75,133.04 L 150.64,133.42 L 149.5,133.74 L 148.34,134.01 L 147.15,134.22 L 145.95,134.38 L 144.73,134.47 L 143.5,134.5 C 130.25,134.5 119.5,123.75 119.5,110.5 C 119.5,97.246 130.25,86.5 143.5,86.5 C 156.75,86.5 167.5,97.246 167.5,110.5 z "
   style="fill:#ffffff;fill-rule:nonzero;stroke:#ffffff;stroke-width:0;stroke-linecap:round;stroke-linejoin:round"
   id="path12215" />
<path
   d="M 167.5,110.5 L 167.47,111.73 L 167.38,112.95 L 167.22,114.15 L 167.01,115.34 L 166.74,116.5 L 166.42,117.64 L 166.04,118.75 L 165.61,119.84 L 165.13,120.9 L 164.6,121.94 L 164.03,122.94 L 163.4,123.92 L 162.73,124.86 L 162.02,125.77 L 161.26,126.64 L 160.47,127.47 L 159.64,128.26 L 158.77,129.02 L 157.86,129.73 L 156.92,130.4 L 155.94,131.03 L 154.94,131.6 L 153.9,132.13 L 152.84,132.61 L 151.75,133.04 L 150.64,133.42 L 149.5,133.74 L 148.34,134.01 L 147.15,134.22 L 145.95,134.38 L 144.73,134.47 L 143.5,134.5 C 130.25,134.5 119.5,123.75 119.5,110.5 C 119.5,97.246 130.25,86.5 143.5,86.5 C 156.75,86.5 167.5,97.246 167.5,110.5 z "
   style="stroke-width:2;stroke-linecap:round;stroke-linejoin:round"
   id="path12217" />
<path
   d="M 119.99,69.5 L 119.98,69.708 L 119.95,69.913 L 119.89,70.115 L 119.82,70.314 L 119.72,70.509 L 119.61,70.701 L 119.48,70.889 L 119.32,71.072 L 119.15,71.251 L 118.97,71.425 L 118.76,71.594 L 118.54,71.758 L 118.3,71.917 L 118.05,72.069 L 117.79,72.216 L 117.5,72.356 L 117.21,72.49 L 116.9,72.617 L 116.58,72.737 L 116.25,72.849 L 115.9,72.954 L 115.55,73.052 L 115.18,73.141 L 114.8,73.222 L 114.42,73.294 L 114.02,73.357 L 113.62,73.412 L 113.21,73.457 L 112.79,73.493 L 112.37,73.518 L 111.94,73.534 L 111.5,73.539 C 106.81,73.539 103.01,71.73 103.01,69.5 C 103.01,67.27 106.81,65.461 111.5,65.461 C 116.19,65.461 119.99,67.27 119.99,69.5 z "
   style="fill:#ffffff;fill-rule:nonzero;stroke:#ffffff;stroke-width:0;stroke-linecap:round;stroke-linejoin:round"
   id="path12219" />
<path
   d="M 119.99,69.5 L 119.98,69.708 L 119.95,69.913 L 119.89,70.115 L 119.82,70.314 L 119.72,70.509 L 119.61,70.701 L 119.48,70.889 L 119.32,71.072 L 119.15,71.251 L 118.97,71.425 L 118.76,71.594 L 118.54,71.758 L 118.3,71.917 L 118.05,72.069 L 117.79,72.216 L 117.5,72.356 L 117.21,72.49 L 116.9,72.617 L 116.58,72.737 L 116.25,72.849 L 115.9,72.954 L 115.55,73.052 L 115.18,73.141 L 114.8,73.222 L 114.42,73.294 L 114.02,73.357 L 113.62,73.412 L 113.21,73.457 L 112.79,73.493 L 112.37,73.518 L 111.94,73.534 L 111.5,73.539 C 106.81,73.539 103.01,71.73 103.01,69.5 C 103.01,67.27 106.81,65.461 111.5,65.461 C 116.19,65.461 119.99,67.27 119.99,69.5 z "
   style="stroke-width:0.84906;stroke-linecap:round;stroke-linejoin:round"
   id="path12221" />
<text
   transform="matrix(1,0,0,-1,106.19,66.977)"
   style="font-size:8px;fill:#000000;stroke:none;font-family:&quot;Helvetica&quot;, sans-serif"
   id="text12223">80</text>

<text
   transform="matrix(1,0,0,-1,15.793,74.918)"
   style="font-size:16px;fill:#000000;stroke:none;font-family:&quot;Helvetica&quot;, sans-serif"
   id="text12225">W</text>

<polygon
   points="46.5,160.5 138.5,160.5 184.5,80.5 138.5,0.5 46.5,0.5 0.5,80.5 46.5,160.5 "
   style="stroke-width:1;stroke-linejoin:round"
   id="polygon12227" />
</g></svg>
