<?xml version="1.0" encoding="UTF-8" standalone="no"?>
<svg
   xmlns:dc="http://purl.org/dc/elements/1.1/"
   xmlns:cc="http://web.resource.org/cc/"
   xmlns:rdf="http://www.w3.org/1999/02/22-rdf-syntax-ns#"
   xmlns:svg="http://www.w3.org/2000/svg"
   xmlns="http://www.w3.org/2000/svg"
   xmlns:sodipodi="http://sodipodi.sourceforge.net/DTD/sodipodi-0.dtd"
   xmlns:inkscape="http://www.inkscape.org/namespaces/inkscape"
   width="80pt"
   height="80pt"
   viewBox="0 0 1 1"
   preserveAspectRatio="none"
   id="svg2"
   sodipodi:version="0.32"
   inkscape:version="0.45.1"
   sodipodi:docname="tile-801.svg"
   sodipodi:docbase="C:\Documents and Settings\Brett\workspace\18xx\tiles\svg"
   version="1.0"
   inkscape:output_extension="org.inkscape.output.svg.inkscape">
  <metadata
     id="metadata73">
    <rdf:RDF>
      <cc:Work
         rdf:about="">
        <dc:format>image/svg+xml</dc:format>
        <dc:type
           rdf:resource="http://purl.org/dc/dcmitype/StillImage" />
      </cc:Work>
    </rdf:RDF>
  </metadata>
  <defs
     id="defs71" />
  <sodipodi:namedview
     inkscape:window-height="579"
     inkscape:window-width="749"
     inkscape:pageshadow="2"
     inkscape:pageopacity="0.0"
     borderopacity="1.0"
     bordercolor="#666666"
     pagecolor="#ffffff"
     id="base"
     inkscape:zoom="2.7876761"
     inkscape:cx="54.429708"
     inkscape:cy="-12.514842"
     inkscape:window-x="220"
     inkscape:window-y="220"
     inkscape:current-layer="svg2" />
  <title
     id="title4">SVG drawing</title>
  <desc
     id="desc6">This was produced by version 4.1 of GNU libplot, a free library for exporting 2-D vector graphics.</desc>
  <g
     transform="matrix(5.4170628e-3,0,0,-6.1461056e-3,-1.0783261e-3,0.9999821)"
     xml:space="preserve"
     style="font-style:normal;font-variant:normal;font-weight:normal;font-stretch:normal;letter-spacing:normal;word-spacing:normal;text-anchor:start;fill:none;fill-opacity:1;stroke:#000000;stroke-linecap:butt;stroke-linejoin:miter;stroke-miterlimit:10.43299961;stroke-dasharray:none;stroke-dashoffset:0;stroke-opacity:1"
     id="g10">
<polygon
   points="46.5,160.5 138.5,160.5 184.5,80.5 138.5,0.5 46.5,0.5 0.5,80.5 46.5,160.5 "
   style="fill:#c0c0c0;fill-rule:nonzero;stroke:#c0c0c0;stroke-width:0;stroke-linejoin:round"
   id="polygon12" />
<polygon
   points="108.37,9.9219 110.27,9.9219 110.27,10.496 108.37,10.496 108.37,9.9219 "
   style="fill:#000000;stroke-width:0;stroke-linejoin:round"
   id="polygon14" />
<path
   d="M 114.13,10.984 L 114.18,11.017 L 114.23,11.05 L 114.28,11.082 L 114.33,11.114 L 114.37,11.146 L 114.42,11.178 L 114.46,11.209 L 114.5,11.241 L 114.53,11.273 L 114.57,11.305 L 114.6,11.337 L 114.63,11.37 L 114.66,11.403 L 114.69,11.436 L 114.71,11.469 L 114.73,11.503 L 114.76,11.538 L 114.78,11.573 L 114.79,11.609 L 114.81,11.646 L 114.83,11.683 L 114.84,11.721 L 114.85,11.76 L 114.86,11.8 L 114.87,11.841 L 114.88,11.883 L 114.89,11.926 L 114.89,11.97 L 114.9,12.016 L 114.9,12.063 L 114.9,12.111 L 114.9,12.16 C 114.9,13.047 114.21,13.672 113.2,13.672 C 112.2,13.672 111.5,13.047 111.5,12.16 C 111.5,11.633 111.69,11.344 112.27,10.984 C 111.62,10.672 111.3,10.199 111.3,9.5742 C 111.3,8.5352 112.08,7.8164 113.2,7.8164 C 114.32,7.8164 115.11,8.5352 115.11,9.5664 C 115.11,10.199 114.79,10.672 114.13,10.984 z "
   style="fill:#000000;stroke-width:0;stroke-linecap:round;stroke-linejoin:round"
   id="path16" />
<path
   d="M 113.2,13.047 L 113.25,13.046 L 113.31,13.043 L 113.36,13.038 L 113.41,13.031 L 113.46,13.022 L 113.51,13.011 L 113.56,12.998 L 113.61,12.983 L 113.65,12.967 L 113.69,12.949 L 113.74,12.928 L 113.78,12.907 L 113.81,12.883 L 113.85,12.858 L 113.88,12.831 L 113.92,12.802 L 113.95,12.772 L 113.98,12.74 L 114.01,12.707 L 114.03,12.672 L 114.05,12.636 L 114.08,12.598 L 114.1,12.559 L 114.11,12.518 L 114.13,12.476 L 114.14,12.432 L 114.16,12.388 L 114.17,12.341 L 114.17,12.294 L 114.18,12.245 L 114.18,12.196 L 114.18,12.144 C 114.18,11.617 113.79,11.266 113.2,11.266 C 112.61,11.266 112.21,11.617 112.21,12.152 C 112.21,12.695 112.61,13.047 113.2,13.047 z "
   style="fill:#000000;stroke-width:0;stroke-linecap:round;stroke-linejoin:round"
   id="path18" />
<path
   d="M 113.2,10.672 L 113.26,10.671 L 113.33,10.667 L 113.39,10.66 L 113.45,10.651 L 113.51,10.64 L 113.57,10.626 L 113.63,10.61 L 113.68,10.591 L 113.73,10.571 L 113.79,10.547 L 113.83,10.522 L 113.88,10.495 L 113.93,10.465 L 113.97,10.434 L 114.01,10.4 L 114.05,10.364 L 114.09,10.327 L 114.13,10.287 L 114.16,10.246 L 114.19,10.203 L 114.22,10.158 L 114.25,10.111 L 114.27,10.063 L 114.3,10.013 L 114.32,9.9611 L 114.33,9.9079 L 114.35,9.8533 L 114.36,9.7971 L 114.37,9.7395 L 114.38,9.6805 L 114.38,9.6202 L 114.38,9.5586 C 114.38,8.8867 113.9,8.4414 113.18,8.4414 C 112.5,8.4414 112.02,8.8945 112.02,9.5586 C 112.02,10.223 112.5,10.672 113.2,10.672 z "
   style="fill:#000000;stroke-width:0;stroke-linecap:round;stroke-linejoin:round"
   id="path20" />
<path
   d="M 117.2,13.672 L 117.15,13.671 L 117.1,13.669 L 117.05,13.666 L 117,13.661 L 116.96,13.655 L 116.91,13.648 L 116.86,13.64 L 116.81,13.63 L 116.77,13.619 L 116.72,13.606 L 116.68,13.593 L 116.63,13.578 L 116.59,13.562 L 116.55,13.545 L 116.5,13.527 L 116.46,13.507 L 116.42,13.487 L 116.38,13.465 L 116.34,13.442 L 116.3,13.418 L 116.26,13.393 L 116.22,13.367 L 116.19,13.339 L 116.15,13.311 L 116.11,13.282 L 116.08,13.251 L 116.05,13.22 L 116.01,13.187 L 115.98,13.153 L 115.95,13.119 L 115.92,13.083 L 115.89,13.047 C 115.53,12.551 115.34,11.793 115.34,10.742 C 115.34,8.832 115.98,7.8164 117.2,7.8164 C 118.4,7.8164 119.06,8.832 119.06,10.695 C 119.06,11.801 118.88,12.535 118.5,13.047 C 118.21,13.449 117.73,13.672 117.2,13.672 z "
   style="fill:#000000;stroke-width:0;stroke-linecap:round;stroke-linejoin:round"
   id="path22" />
<path
   d="M 117.2,13.047 L 117.27,13.045 L 117.34,13.038 L 117.4,13.027 L 117.47,13.011 L 117.53,12.991 L 117.59,12.966 L 117.64,12.937 L 117.7,12.904 L 117.75,12.865 L 117.8,12.823 L 117.85,12.776 L 117.89,12.724 L 117.94,12.669 L 117.98,12.608 L 118.02,12.543 L 118.05,12.474 L 118.09,12.4 L 118.12,12.322 L 118.15,12.24 L 118.18,12.153 L 118.2,12.061 L 118.23,11.965 L 118.25,11.865 L 118.27,11.76 L 118.28,11.651 L 118.3,11.537 L 118.31,11.419 L 118.32,11.296 L 118.33,11.169 L 118.33,11.038 L 118.33,10.902 L 118.34,10.762 C 118.34,9.1523 117.97,8.3984 117.18,8.3984 C 116.44,8.3984 116.06,9.1836 116.06,10.734 C 116.06,12.289 116.44,13.047 117.2,13.047 z "
   style="fill:#000000;stroke-width:0;stroke-linecap:round;stroke-linejoin:round"
   id="path24" />
<path
   d="M 122.07,12.039 L 122.07,8 L 122.78,8 L 122.78,13.672 L 122.31,13.672 C 122.06,12.801 121.9,12.68 120.82,12.543 L 120.82,12.039 L 122.07,12.039 z "
   style="fill:#000000;stroke-width:0;stroke-linecap:round;stroke-linejoin:round"
   id="path26" />
<line
   x1="62.5"
   y1="28.5"
   x2="76.5"
   y2="52.5"
   style="stroke:#ffffff;stroke-width:16"
   id="line28" />
<line
   x1="119.5"
   y1="48.5"
   x2="133.5"
   y2="72.5"
   style="stroke:#ffffff;stroke-width:16"
   id="line30" />
<path
   d="M 69.5,40.5 L 69.434,40.375 C 62.457,44.387 54.547,46.5 46.5,46.5 C 38.457,46.5 30.547,44.387 23.57,40.379"
   style="stroke:#ffffff;stroke-width:16;stroke-linecap:round;stroke-linejoin:round"
   id="path32" />
<path
   d="M 92.5,0.5 L 92.5,0.5 C 92.5,16.961 83.703,32.172 69.434,40.375"
   style="stroke:#ffffff;stroke-width:16;stroke-linecap:round;stroke-linejoin:round"
   id="path34" />
<line
   x1="126.5"
   y1="60.5"
   x2="161.5"
   y2="40.5"
   style="stroke:#ffffff;stroke-width:16;stroke-linecap:round"
   id="line36" />
<path
   d="M 69.5,40.5 L 69.434,40.375 C 62.457,44.387 54.547,46.5 46.5,46.5 C 38.457,46.5 30.547,44.387 23.57,40.379"
   style="stroke-width:12;stroke-linecap:round;stroke-linejoin:round"
   id="path38" />
<path
   d="M 92.5,0.5 L 92.5,0.5 C 92.5,16.961 83.703,32.172 69.434,40.375"
   style="stroke-width:12;stroke-linecap:round;stroke-linejoin:round"
   id="path40" />
<line
   x1="126.5"
   y1="60.5"
   x2="161.5"
   y2="40.5"
   style="stroke-width:12;stroke-linecap:round"
   id="line42" />
<line
   x1="63.5"
   y1="30.5"
   x2="75.5"
   y2="50.5"
   style="stroke-width:12"
   id="line44" />
<path
   d="M 31.992,80.5 L 31.981,80.708 L 31.948,80.913 L 31.894,81.115 L 31.82,81.314 L 31.725,81.509 L 31.61,81.701 L 31.477,81.889 L 31.324,82.072 L 31.154,82.251 L 30.967,82.425 L 30.762,82.594 L 30.541,82.758 L 30.304,82.917 L 30.052,83.069 L 29.785,83.216 L 29.504,83.356 L 29.209,83.49 L 28.901,83.617 L 28.58,83.737 L 28.247,83.849 L 27.902,83.954 L 27.547,84.052 L 27.181,84.141 L 26.804,84.222 L 26.419,84.294 L 26.024,84.357 L 25.621,84.412 L 25.211,84.457 L 24.793,84.493 L 24.368,84.518 L 23.937,84.534 L 23.5,84.539 C 18.812,84.539 15.008,82.73 15.008,80.5 C 15.008,78.27 18.812,76.461 23.5,76.461 C 28.188,76.461 31.992,78.27 31.992,80.5 z "
   style="fill:#ffffff;fill-rule:nonzero;stroke:#ffffff;stroke-width:0;stroke-linecap:round;stroke-linejoin:round"
   id="path46" />
<path
   d="M 31.992,80.5 L 31.981,80.708 L 31.948,80.913 L 31.894,81.115 L 31.82,81.314 L 31.725,81.509 L 31.61,81.701 L 31.477,81.889 L 31.324,82.072 L 31.154,82.251 L 30.967,82.425 L 30.762,82.594 L 30.541,82.758 L 30.304,82.917 L 30.052,83.069 L 29.785,83.216 L 29.504,83.356 L 29.209,83.49 L 28.901,83.617 L 28.58,83.737 L 28.247,83.849 L 27.902,83.954 L 27.547,84.052 L 27.181,84.141 L 26.804,84.222 L 26.419,84.294 L 26.024,84.357 L 25.621,84.412 L 25.211,84.457 L 24.793,84.493 L 24.368,84.518 L 23.937,84.534 L 23.5,84.539 C 18.812,84.539 15.008,82.73 15.008,80.5 C 15.008,78.27 18.812,76.461 23.5,76.461 C 28.188,76.461 31.992,78.27 31.992,80.5 z "
   style="stroke-width:0.84906;stroke-linecap:round;stroke-linejoin:round"
   id="path48" />
<path
   d="M 21.52,83.449 L 21.137,83.449 C 21.09,83.441 21.031,83.426 21,83.414 C 20.266,83.246 20.145,83.223 19.801,83.199 C 19.246,83.168 19.246,83.168 19.223,83.168 C 19.191,83.168 19.152,83.168 19.098,83.176 L 19.098,82.551 L 19.207,82.543 C 20.105,82.496 20.121,82.488 20.121,81.969 L 20.121,79.273 C 20.121,78.793 20.039,78.727 19.305,78.672 L 19.098,78.656 L 19.098,78 L 22.543,78 L 22.543,78.656 L 22.359,78.672 C 22.344,78.672 22.266,78.68 22.184,78.688 C 21.625,78.727 21.52,78.816 21.52,79.273 L 21.52,83.449 z "
   style="fill:#000000;stroke-width:0;stroke-linecap:round;stroke-linejoin:round"
   id="path50" />
<path
   d="M 25.711,83.551 L 25.644,83.55 L 25.578,83.548 L 25.513,83.544 L 25.447,83.538 L 25.382,83.531 L 25.318,83.523 L 25.254,83.513 L 25.191,83.501 L 25.128,83.488 L 25.066,83.474 L 25.005,83.458 L 24.945,83.44 L 24.885,83.421 L 24.826,83.401 L 24.767,83.379 L 24.71,83.356 L 24.653,83.331 L 24.598,83.305 L 24.543,83.278 L 24.49,83.249 L 24.437,83.219 L 24.386,83.188 L 24.335,83.155 L 24.286,83.121 L 24.238,83.085 L 24.191,83.048 L 24.146,83.01 L 24.101,82.971 L 24.058,82.93 L 24.017,82.888 L 23.976,82.845 L 23.938,82.801 C 23.504,82.305 23.238,81.512 23.238,80.688 C 23.238,78.969 24.176,77.895 25.672,77.895 C 27.16,77.895 28.113,79 28.113,80.742 C 28.113,82.441 27.16,83.551 25.711,83.551 z "
   style="fill:#000000;stroke-width:0;stroke-linecap:round;stroke-linejoin:round"
   id="path52" />
<path
   d="M 25.672,82.816 L 25.728,82.814 L 25.783,82.808 L 25.836,82.796 L 25.887,82.781 L 25.937,82.761 L 25.985,82.737 L 26.032,82.709 L 26.077,82.677 L 26.12,82.64 L 26.161,82.599 L 26.201,82.554 L 26.239,82.505 L 26.275,82.452 L 26.309,82.395 L 26.342,82.334 L 26.373,82.269 L 26.402,82.2 L 26.43,82.127 L 26.455,82.05 L 26.479,81.97 L 26.501,81.885 L 26.521,81.797 L 26.539,81.706 L 26.555,81.61 L 26.57,81.511 L 26.582,81.408 L 26.593,81.302 L 26.602,81.192 L 26.608,81.079 L 26.613,80.963 L 26.616,80.842 L 26.617,80.719 C 26.617,79.383 26.281,78.633 25.672,78.633 C 25.062,78.633 24.734,79.383 24.734,80.754 C 24.734,82.062 25.078,82.816 25.672,82.816 z "
   style="fill:#000000;stroke-width:0;stroke-linecap:round;stroke-linejoin:round"
   id="path54" />
<line
   x1="120.5"
   y1="50.5"
   x2="132.5"
   y2="70.5"
   style="stroke-width:12"
   id="line56" />
<path
   d="M 169.99,80.5 L 169.98,80.708 L 169.95,80.913 L 169.89,81.115 L 169.82,81.314 L 169.72,81.509 L 169.61,81.701 L 169.48,81.889 L 169.32,82.072 L 169.15,82.251 L 168.97,82.425 L 168.76,82.594 L 168.54,82.758 L 168.3,82.917 L 168.05,83.069 L 167.79,83.216 L 167.5,83.356 L 167.21,83.49 L 166.9,83.617 L 166.58,83.737 L 166.25,83.849 L 165.9,83.954 L 165.55,84.052 L 165.18,84.141 L 164.8,84.222 L 164.42,84.294 L 164.02,84.357 L 163.62,84.412 L 163.21,84.457 L 162.79,84.493 L 162.37,84.518 L 161.94,84.534 L 161.5,84.539 C 156.81,84.539 153.01,82.73 153.01,80.5 C 153.01,78.27 156.81,76.461 161.5,76.461 C 166.19,76.461 169.99,78.27 169.99,80.5 z "
   style="fill:#ffffff;fill-rule:nonzero;stroke:#ffffff;stroke-width:0;stroke-linecap:round;stroke-linejoin:round"
   id="path58" />
<path
   d="M 169.99,80.5 L 169.98,80.708 L 169.95,80.913 L 169.89,81.115 L 169.82,81.314 L 169.72,81.509 L 169.61,81.701 L 169.48,81.889 L 169.32,82.072 L 169.15,82.251 L 168.97,82.425 L 168.76,82.594 L 168.54,82.758 L 168.3,82.917 L 168.05,83.069 L 167.79,83.216 L 167.5,83.356 L 167.21,83.49 L 166.9,83.617 L 166.58,83.737 L 166.25,83.849 L 165.9,83.954 L 165.55,84.052 L 165.18,84.141 L 164.8,84.222 L 164.42,84.294 L 164.02,84.357 L 163.62,84.412 L 163.21,84.457 L 162.79,84.493 L 162.37,84.518 L 161.94,84.534 L 161.5,84.539 C 156.81,84.539 153.01,82.73 153.01,80.5 C 153.01,78.27 156.81,76.461 161.5,76.461 C 166.19,76.461 169.99,78.27 169.99,80.5 z "
   style="stroke-width:0.84906;stroke-linecap:round;stroke-linejoin:round"
   id="path60" />
<path
   d="M 159.52,83.449 L 159.14,83.449 C 159.09,83.441 159.03,83.426 159,83.414 C 158.27,83.246 158.15,83.223 157.8,83.199 C 157.25,83.168 157.25,83.168 157.22,83.168 C 157.19,83.168 157.15,83.168 157.1,83.176 L 157.1,82.551 L 157.21,82.543 C 158.1,82.496 158.12,82.488 158.12,81.969 L 158.12,79.273 C 158.12,78.793 158.04,78.727 157.3,78.672 L 157.1,78.656 L 157.1,78 L 160.54,78 L 160.54,78.656 L 160.36,78.672 C 160.34,78.672 160.27,78.68 160.18,78.688 C 159.62,78.727 159.52,78.816 159.52,79.273 L 159.52,83.449 z "
   style="fill:#000000;stroke-width:0;stroke-linecap:round;stroke-linejoin:round"
   id="path62" />
<path
   d="M 163.71,83.551 L 163.64,83.55 L 163.58,83.548 L 163.51,83.544 L 163.45,83.538 L 163.38,83.531 L 163.32,83.523 L 163.25,83.513 L 163.19,83.501 L 163.13,83.488 L 163.07,83.474 L 163.01,83.458 L 162.94,83.44 L 162.88,83.421 L 162.83,83.401 L 162.77,83.379 L 162.71,83.356 L 162.65,83.331 L 162.6,83.305 L 162.54,83.278 L 162.49,83.249 L 162.44,83.219 L 162.39,83.188 L 162.34,83.155 L 162.29,83.121 L 162.24,83.085 L 162.19,83.048 L 162.15,83.01 L 162.1,82.971 L 162.06,82.93 L 162.02,82.888 L 161.98,82.845 L 161.94,82.801 C 161.5,82.305 161.24,81.512 161.24,80.688 C 161.24,78.969 162.18,77.895 163.67,77.895 C 165.16,77.895 166.11,79 166.11,80.742 C 166.11,82.441 165.16,83.551 163.71,83.551 z "
   style="fill:#000000;stroke-width:0;stroke-linecap:round;stroke-linejoin:round"
   id="path64" />
<path
   d="M 163.67,82.816 L 163.73,82.814 L 163.78,82.808 L 163.84,82.796 L 163.89,82.781 L 163.94,82.761 L 163.99,82.737 L 164.03,82.709 L 164.08,82.677 L 164.12,82.64 L 164.16,82.599 L 164.2,82.554 L 164.24,82.505 L 164.27,82.452 L 164.31,82.395 L 164.34,82.334 L 164.37,82.269 L 164.4,82.2 L 164.43,82.127 L 164.45,82.05 L 164.48,81.97 L 164.5,81.885 L 164.52,81.797 L 164.54,81.706 L 164.55,81.61 L 164.57,81.511 L 164.58,81.408 L 164.59,81.302 L 164.6,81.192 L 164.61,81.079 L 164.61,80.963 L 164.62,80.842 L 164.62,80.719 C 164.62,79.383 164.28,78.633 163.67,78.633 C 163.06,78.633 162.73,79.383 162.73,80.754 C 162.73,82.062 163.08,82.816 163.67,82.816 z "
   style="fill:#000000;stroke-width:0;stroke-linecap:round;stroke-linejoin:round"
   id="path66" />
<polygon
   points="46.5,160.5 138.5,160.5 184.5,80.5 138.5,0.5 46.5,0.5 0.5,80.5 46.5,160.5 "
   style="stroke-width:1;stroke-linejoin:round"
   id="polygon68" />
</g></svg>
