<?xml version="1.0" encoding="UTF-8" standalone="no"?>
<svg
   xmlns:dc="http://purl.org/dc/elements/1.1/"
   xmlns:cc="http://web.resource.org/cc/"
   xmlns:rdf="http://www.w3.org/1999/02/22-rdf-syntax-ns#"
   xmlns:svg="http://www.w3.org/2000/svg"
   xmlns="http://www.w3.org/2000/svg"
   xmlns:sodipodi="http://inkscape.sourceforge.net/DTD/sodipodi-0.dtd"
   xmlns:inkscape="http://www.inkscape.org/namespaces/inkscape"
   width="100"
   height="100"
   viewBox="0 0 1 1"
   preserveAspectRatio="none"
   id="svg2"
   sodipodi:version="0.32"
   inkscape:version="0.43"
   sodipodi:docname="tile-143.svg"
   sodipodi:docbase="C:\Documents and Settings\lentz\Desktop\Brett\TileDesigner\images\TileDictionary"
   version="1.0">
  <metadata
     id="metadata55">
    <rdf:RDF>
      <cc:Work
         rdf:about="">
        <dc:format>image/svg+xml</dc:format>
        <dc:type
           rdf:resource="http://purl.org/dc/dcmitype/StillImage" />
      </cc:Work>
    </rdf:RDF>
  </metadata>
  <defs
     id="defs53" />
  <sodipodi:namedview
     inkscape:window-height="540"
     inkscape:window-width="749"
     inkscape:pageshadow="2"
     inkscape:pageopacity="0.0"
     borderopacity="1.0"
     bordercolor="#666666"
     pagecolor="#ffffff"
     id="base"
     inkscape:zoom="0.52361111"
     inkscape:cx="360"
     inkscape:cy="360"
     inkscape:window-x="198"
     inkscape:window-y="198"
     inkscape:current-layer="svg2" />
  <title
     id="title4">SVG drawing</title>
  <desc
     id="desc6">This was produced by version 4.1 of GNU libplot, a free library for exporting 2-D vector graphics.</desc>
  <g
     transform="matrix(5.418114e-3,0,0,-5.739835e-3,-1.175565e-3,1.000747)"
     xml:space="preserve"
     style="font-style:normal;font-variant:normal;font-weight:normal;font-stretch:normal;letter-spacing:normal;word-spacing:normal;text-anchor:start;fill:none;fill-opacity:1;stroke:#000000;stroke-linecap:butt;stroke-linejoin:miter;stroke-miterlimit:10.43299961;stroke-dasharray:none;stroke-dashoffset:0;stroke-opacity:1"
     id="g10">
<polygon
   points="46.5,160.5 138.5,160.5 184.5,80.5 138.5,0.5 46.5,0.5 0.5,80.5 46.5,160.5 "
   style="fill:#c0c0c0;fill-rule:nonzero;stroke:#c0c0c0;stroke-width:0;stroke-linejoin:round"
   id="polygon12" />
<polygon
   points="108.37,9.9219 110.27,9.9219 110.27,10.496 108.37,10.496 108.37,9.9219 "
   style="fill:#000000;stroke-width:0;stroke-linejoin:round"
   id="polygon14" />
<path
   d="M 112.07,12.039 L 112.07,8 L 112.78,8 L 112.78,13.672 L 112.31,13.672 C 112.06,12.801 111.9,12.68 110.82,12.543 L 110.82,12.039 L 112.07,12.039 z "
   style="fill:#000000;stroke-width:0;stroke-linecap:round;stroke-linejoin:round"
   id="path16" />
<polygon
   points="117.62,9.3594 117.62,8 118.32,8 118.32,9.3594 119.16,9.3594 119.16,9.9922 118.32,9.9922 118.32,13.672 117.8,13.672 115.22,10.106 115.22,9.3594 117.62,9.3594 "
   style="fill:#000000;stroke-width:0;stroke-linejoin:round"
   id="polygon18" />
<polygon
   points="117.62,9.9922 115.84,9.9922 117.62,12.473 117.62,9.9922 "
   style="fill:#000000;stroke-width:0;stroke-linejoin:round"
   id="polygon20" />
<path
   d="M 120.77,10.602 L 120.86,10.602 L 121.15,10.609 C 121.93,10.609 122.33,10.258 122.33,9.5742 C 122.33,8.8633 121.89,8.4414 121.15,8.4414 C 120.38,8.4414 120.01,8.8242 119.96,9.6484 L 119.26,9.6484 C 119.29,9.1914 119.37,8.8945 119.5,8.6406 C 119.79,8.0977 120.35,7.8164 121.13,7.8164 C 122.3,7.8164 123.05,8.5117 123.05,9.5859 C 123.05,10.305 122.77,10.703 122.09,10.938 C 122.62,11.144 122.88,11.543 122.88,12.113 C 122.88,13.09 122.23,13.672 121.15,13.672 C 120.01,13.672 119.4,13.047 119.38,11.84 L 120.08,11.84 C 120.09,12.184 120.12,12.375 120.21,12.551 C 120.37,12.863 120.72,13.055 121.16,13.055 C 121.79,13.055 122.16,12.688 122.16,12.09 C 122.16,11.688 122.02,11.449 121.7,11.32 C 121.51,11.238 121.27,11.207 120.77,11.199 L 120.77,10.602 z "
   style="fill:#000000;stroke-width:0;stroke-linecap:round;stroke-linejoin:round"
   id="path22" />
<line
   x1="92.5"
   y1="80.5"
   x2="92.5"
   y2="160.5"
   style="stroke:#ffffff;stroke-width:16;stroke-linecap:round"
   id="line24" />
<line
   x1="92.5"
   y1="80.5"
   x2="161.5"
   y2="120.5"
   style="stroke:#ffffff;stroke-width:16;stroke-linecap:round"
   id="line26" />
<line
   x1="92.5"
   y1="80.5"
   x2="161.5"
   y2="40.5"
   style="stroke:#ffffff;stroke-width:16;stroke-linecap:round"
   id="line28" />
<line
   x1="92.5"
   y1="80.5"
   x2="92.5"
   y2="160.5"
   style="stroke-width:12;stroke-linecap:round"
   id="line30" />
<line
   x1="92.5"
   y1="80.5"
   x2="161.5"
   y2="120.5"
   style="stroke-width:12;stroke-linecap:round"
   id="line32" />
<line
   x1="92.5"
   y1="80.5"
   x2="161.5"
   y2="40.5"
   style="stroke-width:12;stroke-linecap:round"
   id="line34" />
<path
   d="M 102.5,80.5 L 102.49,81.014 L 102.45,81.522 L 102.38,82.022 L 102.3,82.514 L 102.18,82.998 L 102.05,83.472 L 101.89,83.937 L 101.71,84.391 L 101.51,84.834 L 101.29,85.265 L 101.05,85.684 L 100.79,86.09 L 100.51,86.482 L 100.22,86.86 L 99.901,87.222 L 99.57,87.57 L 99.222,87.901 L 98.86,88.215 L 98.482,88.512 L 98.09,88.791 L 97.684,89.051 L 97.265,89.292 L 96.834,89.513 L 96.391,89.714 L 95.937,89.893 L 95.472,90.05 L 94.998,90.185 L 94.514,90.297 L 94.022,90.385 L 93.522,90.448 L 93.014,90.487 L 92.5,90.5 C 86.98,90.5 82.5,86.02 82.5,80.5 C 82.5,74.98 86.98,70.5 92.5,70.5 C 98.02,70.5 102.5,74.98 102.5,80.5 z "
   style="fill:#000000;fill-rule:nonzero;stroke-width:0;stroke-linecap:round;stroke-linejoin:round"
   id="path36" />
<path
   d="M 102.5,80.5 L 102.49,81.014 L 102.45,81.522 L 102.38,82.022 L 102.3,82.514 L 102.18,82.998 L 102.05,83.472 L 101.89,83.937 L 101.71,84.391 L 101.51,84.834 L 101.29,85.265 L 101.05,85.684 L 100.79,86.09 L 100.51,86.482 L 100.22,86.86 L 99.901,87.222 L 99.57,87.57 L 99.222,87.901 L 98.86,88.215 L 98.482,88.512 L 98.09,88.791 L 97.684,89.051 L 97.265,89.292 L 96.834,89.513 L 96.391,89.714 L 95.937,89.893 L 95.472,90.05 L 94.998,90.185 L 94.514,90.297 L 94.022,90.385 L 93.522,90.448 L 93.014,90.487 L 92.5,90.5 C 86.98,90.5 82.5,86.02 82.5,80.5 C 82.5,74.98 86.98,70.5 92.5,70.5 C 98.02,70.5 102.5,74.98 102.5,80.5 z "
   style="stroke:#ffffff;stroke-width:2;stroke-linecap:round;stroke-linejoin:round"
   id="path38" />
<path
   d="M 66.992,140.5 L 66.981,140.71 L 66.948,140.91 L 66.894,141.11 L 66.82,141.31 L 66.725,141.51 L 66.61,141.7 L 66.477,141.89 L 66.324,142.07 L 66.154,142.25 L 65.967,142.42 L 65.762,142.59 L 65.541,142.76 L 65.304,142.92 L 65.052,143.07 L 64.785,143.22 L 64.504,143.36 L 64.209,143.49 L 63.901,143.62 L 63.58,143.74 L 63.247,143.85 L 62.902,143.95 L 62.547,144.05 L 62.181,144.14 L 61.804,144.22 L 61.419,144.29 L 61.024,144.36 L 60.621,144.41 L 60.211,144.46 L 59.793,144.49 L 59.368,144.52 L 58.937,144.53 L 58.5,144.54 C 53.812,144.54 50.008,142.73 50.008,140.5 C 50.008,138.27 53.812,136.46 58.5,136.46 C 63.188,136.46 66.992,138.27 66.992,140.5 z "
   style="fill:#ffffff;fill-rule:nonzero;stroke:#ffffff;stroke-width:0;stroke-linecap:round;stroke-linejoin:round"
   id="path40" />
<path
   d="M 66.992,140.5 L 66.981,140.71 L 66.948,140.91 L 66.894,141.11 L 66.82,141.31 L 66.725,141.51 L 66.61,141.7 L 66.477,141.89 L 66.324,142.07 L 66.154,142.25 L 65.967,142.42 L 65.762,142.59 L 65.541,142.76 L 65.304,142.92 L 65.052,143.07 L 64.785,143.22 L 64.504,143.36 L 64.209,143.49 L 63.901,143.62 L 63.58,143.74 L 63.247,143.85 L 62.902,143.95 L 62.547,144.05 L 62.181,144.14 L 61.804,144.22 L 61.419,144.29 L 61.024,144.36 L 60.621,144.41 L 60.211,144.46 L 59.793,144.49 L 59.368,144.52 L 58.937,144.53 L 58.5,144.54 C 53.812,144.54 50.008,142.73 50.008,140.5 C 50.008,138.27 53.812,136.46 58.5,136.46 C 63.188,136.46 66.992,138.27 66.992,140.5 z "
   style="stroke-width:0.84906;stroke-linecap:round;stroke-linejoin:round"
   id="path42" />
<path
   d="M 56.52,143.45 L 56.137,143.45 C 56.09,143.44 56.031,143.43 56,143.41 C 55.266,143.25 55.145,143.22 54.801,143.2 C 54.246,143.17 54.246,143.17 54.223,143.17 C 54.191,143.17 54.152,143.17 54.098,143.18 L 54.098,142.55 L 54.207,142.54 C 55.105,142.5 55.121,142.49 55.121,141.97 L 55.121,139.27 C 55.121,138.79 55.039,138.73 54.305,138.67 L 54.098,138.66 L 54.098,138 L 57.543,138 L 57.543,138.66 L 57.359,138.67 C 57.344,138.67 57.266,138.68 57.184,138.69 C 56.625,138.73 56.52,138.82 56.52,139.27 L 56.52,143.45 z "
   style="fill:#000000;stroke-width:0;stroke-linecap:round;stroke-linejoin:round"
   id="path44" />
<path
   d="M 60.711,143.55 L 60.644,143.55 L 60.578,143.55 L 60.513,143.54 L 60.447,143.54 L 60.382,143.53 L 60.318,143.52 L 60.254,143.51 L 60.191,143.5 L 60.128,143.49 L 60.066,143.47 L 60.005,143.46 L 59.945,143.44 L 59.885,143.42 L 59.826,143.4 L 59.767,143.38 L 59.71,143.36 L 59.653,143.33 L 59.598,143.31 L 59.543,143.28 L 59.49,143.25 L 59.437,143.22 L 59.386,143.19 L 59.335,143.15 L 59.286,143.12 L 59.238,143.09 L 59.191,143.05 L 59.146,143.01 L 59.101,142.97 L 59.058,142.93 L 59.017,142.89 L 58.976,142.85 L 58.938,142.8 C 58.504,142.3 58.238,141.51 58.238,140.69 C 58.238,138.97 59.176,137.9 60.672,137.9 C 62.16,137.9 63.113,139 63.113,140.74 C 63.113,142.44 62.16,143.55 60.711,143.55 z "
   style="fill:#000000;stroke-width:0;stroke-linecap:round;stroke-linejoin:round"
   id="path46" />
<path
   d="M 60.672,142.82 L 60.728,142.81 L 60.783,142.81 L 60.836,142.8 L 60.887,142.78 L 60.937,142.76 L 60.985,142.74 L 61.032,142.71 L 61.077,142.68 L 61.12,142.64 L 61.161,142.6 L 61.201,142.55 L 61.239,142.5 L 61.275,142.45 L 61.309,142.39 L 61.342,142.33 L 61.373,142.27 L 61.402,142.2 L 61.43,142.13 L 61.455,142.05 L 61.479,141.97 L 61.501,141.89 L 61.521,141.8 L 61.539,141.71 L 61.555,141.61 L 61.57,141.51 L 61.582,141.41 L 61.593,141.3 L 61.602,141.19 L 61.608,141.08 L 61.613,140.96 L 61.616,140.84 L 61.617,140.72 C 61.617,139.38 61.281,138.63 60.672,138.63 C 60.062,138.63 59.734,139.38 59.734,140.75 C 59.734,142.06 60.078,142.82 60.672,142.82 z "
   style="fill:#000000;stroke-width:0;stroke-linecap:round;stroke-linejoin:round"
   id="path48" />
<polygon
   points="46.5,160.5 138.5,160.5 184.5,80.5 138.5,0.5 46.5,0.5 0.5,80.5 46.5,160.5 "
   style="stroke-width:1;stroke-linejoin:round"
   id="polygon50" />
</g></svg>
