<?xml version="1.0"?>
<svg version="1.1" xmlns="http://www.w3.org/2000/svg"><path d=" M 98,0 L 294,0 L 392,170 L 294,340 L 98,340 L 0,170 Z" fill="#C0C0C0" stroke="#C0C0C0" stroke-width="1" stroke-linejoin="round"/><circle cx="147" cy="85" r="51" fill="#FFFFFF" stroke="#FFFFFF" stroke-width="12"/><line x1="324" y1="170" x2="264" y2="170" stroke="#FFFFFF" stroke-width="34" stroke-linecap="butt"/><path d="M 49,85 A 98,98 0 0,0 147,85" fill="none" stroke="#FFFFFF" stroke-width="34" stroke-linecap="butt" stroke-linejoin="round"/><path d="M 147,85 A 98,98 0 0,0 196,0" fill="none" stroke="#FFFFFF" stroke-width="34" stroke-linecap="butt" stroke-linejoin="round"/><path d="M 343,85 A 98,98 0 0,0 294,170" fill="none" stroke="#FFFFFF" stroke-width="34" stroke-linecap="butt" stroke-linejoin="round"/><path d="M 294,170 A 98,98 0 0,0 343,255" fill="none" stroke="#FFFFFF" stroke-width="34" stroke-linecap="butt" stroke-linejoin="round"/><path d="M 49,85 A 98,98 0 0,0 147,85" fill="none" stroke="#000000" stroke-width="26" stroke-linecap="butt" stroke-linejoin="round"/><path d="M 147,85 A 98,98 0 0,0 196,0" fill="none" stroke="#000000" stroke-width="26" stroke-linecap="butt" stroke-linejoin="round"/><path d="M 343,85 A 98,98 0 0,0 294,170" fill="none" stroke="#000000" stroke-width="26" stroke-linecap="butt" stroke-linejoin="round"/><path d="M 294,170 A 98,98 0 0,0 343,255" fill="none" stroke="#000000" stroke-width="26" stroke-linecap="butt" stroke-linejoin="round"/><circle cx="147" cy="85" r="51" fill="#FFFFFF" stroke="#000000" stroke-width="4"/><ellipse rx="38" ry="34" cx="98" cy="170" fill="#FFFFFF" stroke="#000000" stroke-width="2" stroke-linejoin="round"/><text x="98" y="170" dy="0.3em" fill="#000000" stroke="#000000" text-anchor="middle" font-family="Bookman Old Style" font-size="51">10</text><line x1="320" y1="170" x2="268" y2="170" stroke="#000000" stroke-width="26" stroke-linecap="butt"/><ellipse rx="38" ry="34" cx="245" cy="255" fill="#FFFFFF" stroke="#000000" stroke-width="2" stroke-linejoin="round"/><text x="245" y="255" dy="0.3em" fill="#000000" stroke="#000000" text-anchor="middle" font-family="Bookman Old Style" font-size="51">10</text><path d=" M 98,0 L 294,0 L 392,170 L 294,340 L 98,340 L 0,170 Z" fill="none" stroke="black" stroke-width="1" stroke-linejoin="round"/></svg>
