<?xml version="1.0" encoding="UTF-8" standalone="no"?>
<svg
   xmlns:dc="http://purl.org/dc/elements/1.1/"
   xmlns:cc="http://web.resource.org/cc/"
   xmlns:rdf="http://www.w3.org/1999/02/22-rdf-syntax-ns#"
   xmlns:svg="http://www.w3.org/2000/svg"
   xmlns="http://www.w3.org/2000/svg"
   xmlns:sodipodi="http://sodipodi.sourceforge.net/DTD/sodipodi-0.dtd"
   xmlns:inkscape="http://www.inkscape.org/namespaces/inkscape"
   version="1.0"
   baseProfile="full"
   id="body"
   width="100"
   height="100"
   viewBox="0 0 1 1"
   preserveAspectRatio="none"
   sodipodi:version="0.32"
   inkscape:version="0.45.1"
   inkscape:output_extension="org.inkscape.output.svg.inkscape"
   sodipodi:docbase="/home/blentz/Desktop/18EU_Tiles"
   sodipodi:docname="tile581.svg">
  <metadata
     id="metadata530">
    <rdf:RDF>
      <cc:Work
         rdf:about="">
        <dc:format>image/svg+xml</dc:format>
        <dc:type
           rdf:resource="http://purl.org/dc/dcmitype/StillImage" />
      </cc:Work>
    </rdf:RDF>
  </metadata>
  <defs
     id="defs528" />
  <sodipodi:namedview
     inkscape:window-height="592"
     inkscape:window-width="822"
     inkscape:pageshadow="2"
     inkscape:pageopacity="0.0"
     guidetolerance="10.0"
     gridtolerance="10.0"
     objecttolerance="10.0"
     borderopacity="1.0"
     bordercolor="#666666"
     pagecolor="#ffffff"
     id="base"
     width="100px"
     height="100px"
     inkscape:zoom="2.4629801"
     inkscape:cx="58.891821"
     inkscape:cy="48.443272"
     inkscape:window-x="55"
     inkscape:window-y="289"
     inkscape:current-layer="body" />
  <title
     id="title449">SVG drawing</title>
  <desc
     id="desc451">This was produced by version 4.2 of GNU libplot, a free library for exporting 2-D vector graphics.</desc>
  <g
     id="content"
     transform="matrix(5.4034141e-3,0,0,-6.1652679e-3,1.8418517e-4,1.0022323)"
     xml:space="preserve"
     stroke-miterlimit="10.433"
     fill-rule="even-odd"
     font-style="normal"
     font-variant="normal"
     font-weight="normal"
     font-stretch="normal"
     font-size-adjust="none"
     letter-spacing="normal"
     word-spacing="normal"
     style="font-style:normal;font-variant:normal;font-weight:normal;font-stretch:normal;letter-spacing:normal;word-spacing:normal;text-anchor:start;fill:none;fill-opacity:1;stroke:#000000;stroke-linecap:butt;stroke-linejoin:miter;stroke-miterlimit:10.43299961;stroke-dasharray:none;stroke-dashoffset:0;stroke-opacity:1">
<polygon
   points="46.5,160.5 138.5,160.5 184.5,80.5 138.5,0.5 46.5,0.5 0.5,80.5 46.5,160.5 "
   id="polygon455"
   style="fill:#5eac38;fill-rule:nonzero;stroke:#5eac38;stroke-width:0;stroke-linejoin:round" />
<path
   d="M 93.5,120.5 L 93.469,121.73 L 93.376,122.95 L 93.223,124.15 L 93.012,125.34 L 92.744,126.5 L 92.421,127.64 L 92.044,128.75 L 91.614,129.84 L 91.133,130.9 L 90.603,131.94 L 90.025,132.94 L 89.401,133.92 L 88.732,134.86 L 88.019,135.77 L 87.265,136.64 L 86.47,137.47 L 85.637,138.26 L 84.766,139.02 L 83.859,139.73 L 82.918,140.4 L 81.944,141.03 L 80.939,141.6 L 79.905,142.13 L 78.841,142.61 L 77.752,143.04 L 76.637,143.42 L 75.498,143.74 L 74.337,144.01 L 73.155,144.22 L 71.954,144.38 L 70.735,144.47 L 69.5,144.5 C 56.246,144.5 45.5,133.75 45.5,120.5 C 45.5,107.25 56.246,96.5 69.5,96.5 C 82.754,96.5 93.5,107.25 93.5,120.5 z "
   id="path457"
   style="fill:#ffffff;fill-rule:nonzero;stroke:#ffffff;stroke-width:0;stroke-linecap:round;stroke-linejoin:round" />
<path
   d="M 93.5,120.5 L 93.469,121.73 L 93.376,122.95 L 93.223,124.15 L 93.012,125.34 L 92.744,126.5 L 92.421,127.64 L 92.044,128.75 L 91.614,129.84 L 91.133,130.9 L 90.603,131.94 L 90.025,132.94 L 89.401,133.92 L 88.732,134.86 L 88.019,135.77 L 87.265,136.64 L 86.47,137.47 L 85.637,138.26 L 84.766,139.02 L 83.859,139.73 L 82.918,140.4 L 81.944,141.03 L 80.939,141.6 L 79.905,142.13 L 78.841,142.61 L 77.752,143.04 L 76.637,143.42 L 75.498,143.74 L 74.337,144.01 L 73.155,144.22 L 71.954,144.38 L 70.735,144.47 L 69.5,144.5 C 56.246,144.5 45.5,133.75 45.5,120.5 C 45.5,107.25 56.246,96.5 69.5,96.5 C 82.754,96.5 93.5,107.25 93.5,120.5 z "
   id="path459"
   style="stroke:#ffffff;stroke-width:6;stroke-linecap:round;stroke-linejoin:round" />
<path
   d="M 162.5,80.5 L 162.47,81.735 L 162.38,82.954 L 162.22,84.155 L 162.01,85.337 L 161.74,86.498 L 161.42,87.637 L 161.04,88.752 L 160.61,89.841 L 160.13,90.905 L 159.6,91.939 L 159.03,92.944 L 158.4,93.918 L 157.73,94.859 L 157.02,95.766 L 156.26,96.637 L 155.47,97.47 L 154.64,98.265 L 153.77,99.019 L 152.86,99.732 L 151.92,100.4 L 150.94,101.03 L 149.94,101.6 L 148.9,102.13 L 147.84,102.61 L 146.75,103.04 L 145.64,103.42 L 144.5,103.74 L 143.34,104.01 L 142.15,104.22 L 140.95,104.38 L 139.73,104.47 L 138.5,104.5 C 125.25,104.5 114.5,93.754 114.5,80.5 C 114.5,67.246 125.25,56.5 138.5,56.5 C 151.75,56.5 162.5,67.246 162.5,80.5 z "
   id="path461"
   style="fill:#ffffff;fill-rule:nonzero;stroke:#ffffff;stroke-width:0;stroke-linecap:round;stroke-linejoin:round" />
<path
   d="M 162.5,80.5 L 162.47,81.735 L 162.38,82.954 L 162.22,84.155 L 162.01,85.337 L 161.74,86.498 L 161.42,87.637 L 161.04,88.752 L 160.61,89.841 L 160.13,90.905 L 159.6,91.939 L 159.03,92.944 L 158.4,93.918 L 157.73,94.859 L 157.02,95.766 L 156.26,96.637 L 155.47,97.47 L 154.64,98.265 L 153.77,99.019 L 152.86,99.732 L 151.92,100.4 L 150.94,101.03 L 149.94,101.6 L 148.9,102.13 L 147.84,102.61 L 146.75,103.04 L 145.64,103.42 L 144.5,103.74 L 143.34,104.01 L 142.15,104.22 L 140.95,104.38 L 139.73,104.47 L 138.5,104.5 C 125.25,104.5 114.5,93.754 114.5,80.5 C 114.5,67.246 125.25,56.5 138.5,56.5 C 151.75,56.5 162.5,67.246 162.5,80.5 z "
   id="path463"
   style="stroke:#ffffff;stroke-width:6;stroke-linecap:round;stroke-linejoin:round" />
<path
   d="M 93.5,40.5 L 93.469,41.735 L 93.376,42.954 L 93.223,44.155 L 93.012,45.337 L 92.744,46.498 L 92.421,47.637 L 92.044,48.752 L 91.614,49.841 L 91.133,50.905 L 90.603,51.939 L 90.025,52.944 L 89.401,53.918 L 88.732,54.859 L 88.019,55.766 L 87.265,56.637 L 86.47,57.47 L 85.637,58.265 L 84.766,59.019 L 83.859,59.732 L 82.918,60.401 L 81.944,61.025 L 80.939,61.603 L 79.905,62.133 L 78.841,62.614 L 77.752,63.044 L 76.637,63.421 L 75.498,63.744 L 74.337,64.012 L 73.155,64.223 L 71.954,64.376 L 70.735,64.469 L 69.5,64.5 C 56.246,64.5 45.5,53.754 45.5,40.5 C 45.5,27.246 56.246,16.5 69.5,16.5 C 82.754,16.5 93.5,27.246 93.5,40.5 z "
   id="path465"
   style="fill:#ffffff;fill-rule:nonzero;stroke:#ffffff;stroke-width:0;stroke-linecap:round;stroke-linejoin:round" />
<path
   d="M 93.5,40.5 L 93.469,41.735 L 93.376,42.954 L 93.223,44.155 L 93.012,45.337 L 92.744,46.498 L 92.421,47.637 L 92.044,48.752 L 91.614,49.841 L 91.133,50.905 L 90.603,51.939 L 90.025,52.944 L 89.401,53.918 L 88.732,54.859 L 88.019,55.766 L 87.265,56.637 L 86.47,57.47 L 85.637,58.265 L 84.766,59.019 L 83.859,59.732 L 82.918,60.401 L 81.944,61.025 L 80.939,61.603 L 79.905,62.133 L 78.841,62.614 L 77.752,63.044 L 76.637,63.421 L 75.498,63.744 L 74.337,64.012 L 73.155,64.223 L 71.954,64.376 L 70.735,64.469 L 69.5,64.5 C 56.246,64.5 45.5,53.754 45.5,40.5 C 45.5,27.246 56.246,16.5 69.5,16.5 C 82.754,16.5 93.5,27.246 93.5,40.5 z "
   id="path467"
   style="stroke:#ffffff;stroke-width:6;stroke-linecap:round;stroke-linejoin:round" />
<path
   d="M 69.5,120.5 L 69.434,120.62 C 83.703,128.82 92.5,144.04 92.5,160.5"
   id="path469"
   style="stroke:#ffffff;stroke-width:16;stroke-linecap:round;stroke-linejoin:round" />
<path
   d="M 23.5,120.5 L 23.574,120.62 C 30.547,116.61 38.457,114.5 46.5,114.5 C 54.547,114.5 62.457,116.61 69.434,120.62"
   id="path471"
   style="stroke:#ffffff;stroke-width:16;stroke-linecap:round;stroke-linejoin:round" />
<path
   d="M 161.5,120.5 L 161.57,120.38 C 147.3,112.17 138.5,96.961 138.5,80.5"
   id="path473"
   style="stroke:#ffffff;stroke-width:16;stroke-linecap:round;stroke-linejoin:round" />
<path
   d="M 138.5,80.5 L 138.5,80.5 C 138.5,64.039 147.3,48.828 161.57,40.625"
   id="path475"
   style="stroke:#ffffff;stroke-width:16;stroke-linecap:round;stroke-linejoin:round" />
<path
   d="M 92.5,0.5 L 92.5,0.5 C 92.5,16.961 83.703,32.176 69.434,40.379"
   id="path477"
   style="stroke:#ffffff;stroke-width:16;stroke-linecap:round;stroke-linejoin:round" />
<path
   d="M 69.5,40.5 L 69.434,40.379 C 62.457,44.387 54.547,46.5 46.5,46.5 C 38.457,46.5 30.547,44.387 23.574,40.379"
   id="path479"
   style="stroke:#ffffff;stroke-width:16;stroke-linecap:round;stroke-linejoin:round" />
<path
   d="M 69.5,120.5 L 69.434,120.62 C 83.703,128.82 92.5,144.04 92.5,160.5"
   id="path481"
   style="stroke-width:12;stroke-linecap:round;stroke-linejoin:round" />
<path
   d="M 23.5,120.5 L 23.574,120.62 C 30.547,116.61 38.457,114.5 46.5,114.5 C 54.547,114.5 62.457,116.61 69.434,120.62"
   id="path483"
   style="stroke-width:12;stroke-linecap:round;stroke-linejoin:round" />
<path
   d="M 161.5,120.5 L 161.57,120.38 C 147.3,112.17 138.5,96.961 138.5,80.5"
   id="path485"
   style="stroke-width:12;stroke-linecap:round;stroke-linejoin:round" />
<path
   d="M 138.5,80.5 L 138.5,80.5 C 138.5,64.039 147.3,48.828 161.57,40.625"
   id="path487"
   style="stroke-width:12;stroke-linecap:round;stroke-linejoin:round" />
<path
   d="M 92.5,0.5 L 92.5,0.5 C 92.5,16.961 83.703,32.176 69.434,40.379"
   id="path489"
   style="stroke-width:12;stroke-linecap:round;stroke-linejoin:round" />
<path
   d="M 69.5,40.5 L 69.434,40.379 C 62.457,44.387 54.547,46.5 46.5,46.5 C 38.457,46.5 30.547,44.387 23.574,40.379"
   id="path491"
   style="stroke-width:12;stroke-linecap:round;stroke-linejoin:round" />
<path
   d="M 93.5,120.5 L 93.469,121.73 L 93.376,122.95 L 93.223,124.15 L 93.012,125.34 L 92.744,126.5 L 92.421,127.64 L 92.044,128.75 L 91.614,129.84 L 91.133,130.9 L 90.603,131.94 L 90.025,132.94 L 89.401,133.92 L 88.732,134.86 L 88.019,135.77 L 87.265,136.64 L 86.47,137.47 L 85.637,138.26 L 84.766,139.02 L 83.859,139.73 L 82.918,140.4 L 81.944,141.03 L 80.939,141.6 L 79.905,142.13 L 78.841,142.61 L 77.752,143.04 L 76.637,143.42 L 75.498,143.74 L 74.337,144.01 L 73.155,144.22 L 71.954,144.38 L 70.735,144.47 L 69.5,144.5 C 56.246,144.5 45.5,133.75 45.5,120.5 C 45.5,107.25 56.246,96.5 69.5,96.5 C 82.754,96.5 93.5,107.25 93.5,120.5 z "
   id="path493"
   style="fill:#ffffff;fill-rule:nonzero;stroke:#ffffff;stroke-width:0;stroke-linecap:round;stroke-linejoin:round" />
<path
   d="M 93.5,120.5 L 93.469,121.73 L 93.376,122.95 L 93.223,124.15 L 93.012,125.34 L 92.744,126.5 L 92.421,127.64 L 92.044,128.75 L 91.614,129.84 L 91.133,130.9 L 90.603,131.94 L 90.025,132.94 L 89.401,133.92 L 88.732,134.86 L 88.019,135.77 L 87.265,136.64 L 86.47,137.47 L 85.637,138.26 L 84.766,139.02 L 83.859,139.73 L 82.918,140.4 L 81.944,141.03 L 80.939,141.6 L 79.905,142.13 L 78.841,142.61 L 77.752,143.04 L 76.637,143.42 L 75.498,143.74 L 74.337,144.01 L 73.155,144.22 L 71.954,144.38 L 70.735,144.47 L 69.5,144.5 C 56.246,144.5 45.5,133.75 45.5,120.5 C 45.5,107.25 56.246,96.5 69.5,96.5 C 82.754,96.5 93.5,107.25 93.5,120.5 z "
   id="path495"
   style="stroke-width:2;stroke-linecap:round;stroke-linejoin:round" />
<path
   d="M 134.99,140.5 L 134.98,140.72 L 134.94,140.93 L 134.89,141.14 L 134.82,141.35 L 134.72,141.56 L 134.61,141.76 L 134.47,141.95 L 134.32,142.15 L 134.15,142.33 L 133.96,142.52 L 133.76,142.69 L 133.54,142.87 L 133.3,143.03 L 133.05,143.19 L 132.78,143.35 L 132.5,143.49 L 132.21,143.63 L 131.9,143.77 L 131.58,143.89 L 131.25,144.01 L 130.9,144.12 L 130.55,144.22 L 130.18,144.32 L 129.8,144.4 L 129.42,144.48 L 129.02,144.54 L 128.62,144.6 L 128.21,144.65 L 127.79,144.69 L 127.37,144.71 L 126.94,144.73 L 126.5,144.73 C 121.81,144.73 118.01,142.84 118.01,140.5 C 118.01,138.16 121.81,136.27 126.5,136.27 C 131.19,136.27 134.99,138.16 134.99,140.5 z "
   id="path497"
   style="fill:#ffffff;fill-rule:nonzero;stroke:#ffffff;stroke-width:0;stroke-linecap:round;stroke-linejoin:round" />
<path
   d="M 134.99,140.5 L 134.98,140.72 L 134.94,140.93 L 134.89,141.14 L 134.82,141.35 L 134.72,141.56 L 134.61,141.76 L 134.47,141.95 L 134.32,142.15 L 134.15,142.33 L 133.96,142.52 L 133.76,142.69 L 133.54,142.87 L 133.3,143.03 L 133.05,143.19 L 132.78,143.35 L 132.5,143.49 L 132.21,143.63 L 131.9,143.77 L 131.58,143.89 L 131.25,144.01 L 130.9,144.12 L 130.55,144.22 L 130.18,144.32 L 129.8,144.4 L 129.42,144.48 L 129.02,144.54 L 128.62,144.6 L 128.21,144.65 L 127.79,144.69 L 127.37,144.71 L 126.94,144.73 L 126.5,144.73 C 121.81,144.73 118.01,142.84 118.01,140.5 C 118.01,138.16 121.81,136.27 126.5,136.27 C 131.19,136.27 134.99,138.16 134.99,140.5 z "
   id="path499"
   style="stroke-width:0.84906;stroke-linecap:round;stroke-linejoin:round" />
<text
   transform="matrix(0.4,0,0,-0.4,121.19,137.85)"
   font-size="20px"
   id="text501"
   style="font-size:20px;fill:#000000;stroke:none;font-family:Helvetica, sans-serif">50</text>

<path
   d="M 162.5,80.5 L 162.47,81.735 L 162.38,82.954 L 162.22,84.155 L 162.01,85.337 L 161.74,86.498 L 161.42,87.637 L 161.04,88.752 L 160.61,89.841 L 160.13,90.905 L 159.6,91.939 L 159.03,92.944 L 158.4,93.918 L 157.73,94.859 L 157.02,95.766 L 156.26,96.637 L 155.47,97.47 L 154.64,98.265 L 153.77,99.019 L 152.86,99.732 L 151.92,100.4 L 150.94,101.03 L 149.94,101.6 L 148.9,102.13 L 147.84,102.61 L 146.75,103.04 L 145.64,103.42 L 144.5,103.74 L 143.34,104.01 L 142.15,104.22 L 140.95,104.38 L 139.73,104.47 L 138.5,104.5 C 125.25,104.5 114.5,93.754 114.5,80.5 C 114.5,67.246 125.25,56.5 138.5,56.5 C 151.75,56.5 162.5,67.246 162.5,80.5 z "
   id="path503"
   style="fill:#ffffff;fill-rule:nonzero;stroke:#ffffff;stroke-width:0;stroke-linecap:round;stroke-linejoin:round" />
<path
   d="M 162.5,80.5 L 162.47,81.735 L 162.38,82.954 L 162.22,84.155 L 162.01,85.337 L 161.74,86.498 L 161.42,87.637 L 161.04,88.752 L 160.61,89.841 L 160.13,90.905 L 159.6,91.939 L 159.03,92.944 L 158.4,93.918 L 157.73,94.859 L 157.02,95.766 L 156.26,96.637 L 155.47,97.47 L 154.64,98.265 L 153.77,99.019 L 152.86,99.732 L 151.92,100.4 L 150.94,101.03 L 149.94,101.6 L 148.9,102.13 L 147.84,102.61 L 146.75,103.04 L 145.64,103.42 L 144.5,103.74 L 143.34,104.01 L 142.15,104.22 L 140.95,104.38 L 139.73,104.47 L 138.5,104.5 C 125.25,104.5 114.5,93.754 114.5,80.5 C 114.5,67.246 125.25,56.5 138.5,56.5 C 151.75,56.5 162.5,67.246 162.5,80.5 z "
   id="path505"
   style="stroke-width:2;stroke-linecap:round;stroke-linejoin:round" />
<path
   d="M 134.99,140.5 L 134.98,140.72 L 134.94,140.93 L 134.89,141.14 L 134.82,141.35 L 134.72,141.56 L 134.61,141.76 L 134.47,141.95 L 134.32,142.15 L 134.15,142.33 L 133.96,142.52 L 133.76,142.69 L 133.54,142.87 L 133.3,143.03 L 133.05,143.19 L 132.78,143.35 L 132.5,143.49 L 132.21,143.63 L 131.9,143.77 L 131.58,143.89 L 131.25,144.01 L 130.9,144.12 L 130.55,144.22 L 130.18,144.32 L 129.8,144.4 L 129.42,144.48 L 129.02,144.54 L 128.62,144.6 L 128.21,144.65 L 127.79,144.69 L 127.37,144.71 L 126.94,144.73 L 126.5,144.73 C 121.81,144.73 118.01,142.84 118.01,140.5 C 118.01,138.16 121.81,136.27 126.5,136.27 C 131.19,136.27 134.99,138.16 134.99,140.5 z "
   id="path507"
   style="fill:#ffffff;fill-rule:nonzero;stroke:#ffffff;stroke-width:0;stroke-linecap:round;stroke-linejoin:round" />
<path
   d="M 134.99,140.5 L 134.98,140.72 L 134.94,140.93 L 134.89,141.14 L 134.82,141.35 L 134.72,141.56 L 134.61,141.76 L 134.47,141.95 L 134.32,142.15 L 134.15,142.33 L 133.96,142.52 L 133.76,142.69 L 133.54,142.87 L 133.3,143.03 L 133.05,143.19 L 132.78,143.35 L 132.5,143.49 L 132.21,143.63 L 131.9,143.77 L 131.58,143.89 L 131.25,144.01 L 130.9,144.12 L 130.55,144.22 L 130.18,144.32 L 129.8,144.4 L 129.42,144.48 L 129.02,144.54 L 128.62,144.6 L 128.21,144.65 L 127.79,144.69 L 127.37,144.71 L 126.94,144.73 L 126.5,144.73 C 121.81,144.73 118.01,142.84 118.01,140.5 C 118.01,138.16 121.81,136.27 126.5,136.27 C 131.19,136.27 134.99,138.16 134.99,140.5 z "
   id="path509"
   style="stroke-width:0.84906;stroke-linecap:round;stroke-linejoin:round" />
<text
   transform="matrix(0.4,0,0,-0.4,121.19,137.85)"
   font-size="20px"
   id="text511"
   style="font-size:20px;fill:#000000;stroke:none;font-family:Helvetica, sans-serif">50</text>

<path
   d="M 93.5,40.5 L 93.469,41.735 L 93.376,42.954 L 93.223,44.155 L 93.012,45.337 L 92.744,46.498 L 92.421,47.637 L 92.044,48.752 L 91.614,49.841 L 91.133,50.905 L 90.603,51.939 L 90.025,52.944 L 89.401,53.918 L 88.732,54.859 L 88.019,55.766 L 87.265,56.637 L 86.47,57.47 L 85.637,58.265 L 84.766,59.019 L 83.859,59.732 L 82.918,60.401 L 81.944,61.025 L 80.939,61.603 L 79.905,62.133 L 78.841,62.614 L 77.752,63.044 L 76.637,63.421 L 75.498,63.744 L 74.337,64.012 L 73.155,64.223 L 71.954,64.376 L 70.735,64.469 L 69.5,64.5 C 56.246,64.5 45.5,53.754 45.5,40.5 C 45.5,27.246 56.246,16.5 69.5,16.5 C 82.754,16.5 93.5,27.246 93.5,40.5 z "
   id="path513"
   style="fill:#ffffff;fill-rule:nonzero;stroke:#ffffff;stroke-width:0;stroke-linecap:round;stroke-linejoin:round" />
<path
   d="M 93.5,40.5 L 93.469,41.735 L 93.376,42.954 L 93.223,44.155 L 93.012,45.337 L 92.744,46.498 L 92.421,47.637 L 92.044,48.752 L 91.614,49.841 L 91.133,50.905 L 90.603,51.939 L 90.025,52.944 L 89.401,53.918 L 88.732,54.859 L 88.019,55.766 L 87.265,56.637 L 86.47,57.47 L 85.637,58.265 L 84.766,59.019 L 83.859,59.732 L 82.918,60.401 L 81.944,61.025 L 80.939,61.603 L 79.905,62.133 L 78.841,62.614 L 77.752,63.044 L 76.637,63.421 L 75.498,63.744 L 74.337,64.012 L 73.155,64.223 L 71.954,64.376 L 70.735,64.469 L 69.5,64.5 C 56.246,64.5 45.5,53.754 45.5,40.5 C 45.5,27.246 56.246,16.5 69.5,16.5 C 82.754,16.5 93.5,27.246 93.5,40.5 z "
   id="path515"
   style="stroke-width:2;stroke-linecap:round;stroke-linejoin:round" />
<path
   d="M 134.99,140.5 L 134.98,140.72 L 134.94,140.93 L 134.89,141.14 L 134.82,141.35 L 134.72,141.56 L 134.61,141.76 L 134.47,141.95 L 134.32,142.15 L 134.15,142.33 L 133.96,142.52 L 133.76,142.69 L 133.54,142.87 L 133.3,143.03 L 133.05,143.19 L 132.78,143.35 L 132.5,143.49 L 132.21,143.63 L 131.9,143.77 L 131.58,143.89 L 131.25,144.01 L 130.9,144.12 L 130.55,144.22 L 130.18,144.32 L 129.8,144.4 L 129.42,144.48 L 129.02,144.54 L 128.62,144.6 L 128.21,144.65 L 127.79,144.69 L 127.37,144.71 L 126.94,144.73 L 126.5,144.73 C 121.81,144.73 118.01,142.84 118.01,140.5 C 118.01,138.16 121.81,136.27 126.5,136.27 C 131.19,136.27 134.99,138.16 134.99,140.5 z "
   id="path517"
   style="fill:#ffffff;fill-rule:nonzero;stroke:#ffffff;stroke-width:0;stroke-linecap:round;stroke-linejoin:round" />
<path
   d="M 134.99,140.5 L 134.98,140.72 L 134.94,140.93 L 134.89,141.14 L 134.82,141.35 L 134.72,141.56 L 134.61,141.76 L 134.47,141.95 L 134.32,142.15 L 134.15,142.33 L 133.96,142.52 L 133.76,142.69 L 133.54,142.87 L 133.3,143.03 L 133.05,143.19 L 132.78,143.35 L 132.5,143.49 L 132.21,143.63 L 131.9,143.77 L 131.58,143.89 L 131.25,144.01 L 130.9,144.12 L 130.55,144.22 L 130.18,144.32 L 129.8,144.4 L 129.42,144.48 L 129.02,144.54 L 128.62,144.6 L 128.21,144.65 L 127.79,144.69 L 127.37,144.71 L 126.94,144.73 L 126.5,144.73 C 121.81,144.73 118.01,142.84 118.01,140.5 C 118.01,138.16 121.81,136.27 126.5,136.27 C 131.19,136.27 134.99,138.16 134.99,140.5 z "
   id="path519"
   style="stroke-width:0.84906;stroke-linecap:round;stroke-linejoin:round" />
<text
   transform="matrix(0.4,0,0,-0.4,121.19,137.85)"
   font-size="20px"
   id="text521"
   style="font-size:20px;fill:#000000;stroke:none;font-family:Helvetica, sans-serif">50</text>

<text
   transform="matrix(0.8,0,0,-0.8,33.074,74.918)"
   font-size="20px"
   id="text523"
   style="font-size:20px;fill:#000000;stroke:none;font-family:Helvetica, sans-serif">B-V</text>

<polygon
   points="46.5,160.5 138.5,160.5 184.5,80.5 138.5,0.5 46.5,0.5 0.5,80.5 46.5,160.5 "
   id="polygon525"
   style="stroke-width:1;stroke-linejoin:round" />
</g></svg>
