<?xml version="1.0" encoding="UTF-8" standalone="no"?>
<svg
   xmlns:dc="http://purl.org/dc/elements/1.1/"
   xmlns:cc="http://web.resource.org/cc/"
   xmlns:rdf="http://www.w3.org/1999/02/22-rdf-syntax-ns#"
   xmlns:svg="http://www.w3.org/2000/svg"
   xmlns="http://www.w3.org/2000/svg"
   xmlns:sodipodi="http://inkscape.sourceforge.net/DTD/sodipodi-0.dtd"
   xmlns:inkscape="http://www.inkscape.org/namespaces/inkscape"
   width="100"
   height="100"
   viewBox="0 0 1 1"
   preserveAspectRatio="none"
   id="svg2818"
   sodipodi:version="0.32"
   inkscape:version="0.43"
   sodipodi:docname="tile14.svg"
   sodipodi:docbase="C:\Documents and Settings\lentz\Desktop\TileDesigner"
   version="1.0">
  <metadata
     id="metadata2883">
    <rdf:RDF>
      <cc:Work
         rdf:about="">
        <dc:format>image/svg+xml</dc:format>
        <dc:type
           rdf:resource="http://purl.org/dc/dcmitype/StillImage" />
      </cc:Work>
    </rdf:RDF>
  </metadata>
  <defs
     id="defs2881" />
  <sodipodi:namedview
     inkscape:window-height="540"
     inkscape:window-width="749"
     inkscape:pageshadow="2"
     inkscape:pageopacity="0.0"
     borderopacity="1.0"
     bordercolor="#666666"
     pagecolor="#ffffff"
     id="base"
     inkscape:zoom="0.52361111"
     inkscape:cx="360"
     inkscape:cy="360"
     inkscape:window-x="110"
     inkscape:window-y="110"
     inkscape:current-layer="svg2818" />
  <title
     id="title2820">SVG drawing</title>
  <desc
     id="desc2822">This was produced by version 4.1 of GNU libplot, a free library for exporting 2-D vector graphics.</desc>
  <rect
     x="0"
     y="0"
     width="1"
     height="1"
     style="fill:#ffffff;stroke:none"
     id="rect2824" />
  <g
     transform="matrix(5.418114e-3,0,0,-5.333139e-3,-1.175565e-3,0.939964)"
     xml:space="preserve"
     style="font-style:normal;font-variant:normal;font-weight:normal;font-stretch:normal;letter-spacing:normal;word-spacing:normal;text-anchor:start;fill:none;fill-opacity:1;stroke:#000000;stroke-linecap:butt;stroke-linejoin:miter;stroke-miterlimit:10.43299961;stroke-dasharray:none;stroke-dashoffset:0;stroke-opacity:1"
     id="g2826">
<polygon
   points="46.5,160.5 138.5,160.5 184.5,80.5 138.5,0.5 46.5,0.5 0.5,80.5 46.5,160.5 "
   style="fill:#38ac00;fill-rule:nonzero;stroke:#38ac00;stroke-width:0;stroke-linejoin:round"
   id="polygon2828" />
<text
   transform="matrix(1,0,0,-1,111.17,7.9141)"
   style="font-size:8px;fill:#000000;stroke:none;font-family:&quot;Helvetica&quot;, sans-serif"
   id="text2830">14</text>

<polygon
   points="68.5,56.5 116.5,56.5 116.5,104.5 68.5,104.5 68.5,56.5 "
   style="fill:#ffffff;fill-rule:nonzero;stroke:#ffffff;stroke-width:0;stroke-linejoin:round"
   id="polygon2832" />
<polygon
   points="68.5,56.5 116.5,56.5 116.5,104.5 68.5,104.5 68.5,56.5 "
   style="stroke:#ffffff;stroke-width:6;stroke-linejoin:round"
   id="polygon2834" />
<path
   d="M 92.5,80.5 L 92.469,81.735 L 92.376,82.954 L 92.223,84.155 L 92.012,85.337 L 91.744,86.498 L 91.421,87.637 L 91.044,88.752 L 90.614,89.841 L 90.133,90.905 L 89.603,91.939 L 89.025,92.944 L 88.401,93.918 L 87.732,94.859 L 87.019,95.766 L 86.265,96.637 L 85.47,97.47 L 84.637,98.265 L 83.766,99.019 L 82.859,99.732 L 81.918,100.4 L 80.944,101.03 L 79.939,101.6 L 78.905,102.13 L 77.841,102.61 L 76.752,103.04 L 75.637,103.42 L 74.498,103.74 L 73.337,104.01 L 72.155,104.22 L 70.954,104.38 L 69.735,104.47 L 68.5,104.5 C 55.246,104.5 44.5,93.754 44.5,80.5 C 44.5,67.246 55.246,56.5 68.5,56.5 C 81.754,56.5 92.5,67.246 92.5,80.5 z "
   style="fill:#ffffff;fill-rule:nonzero;stroke:#ffffff;stroke-width:0;stroke-linecap:round;stroke-linejoin:round"
   id="path2836" />
<path
   d="M 92.5,80.5 L 92.469,81.735 L 92.376,82.954 L 92.223,84.155 L 92.012,85.337 L 91.744,86.498 L 91.421,87.637 L 91.044,88.752 L 90.614,89.841 L 90.133,90.905 L 89.603,91.939 L 89.025,92.944 L 88.401,93.918 L 87.732,94.859 L 87.019,95.766 L 86.265,96.637 L 85.47,97.47 L 84.637,98.265 L 83.766,99.019 L 82.859,99.732 L 81.918,100.4 L 80.944,101.03 L 79.939,101.6 L 78.905,102.13 L 77.841,102.61 L 76.752,103.04 L 75.637,103.42 L 74.498,103.74 L 73.337,104.01 L 72.155,104.22 L 70.954,104.38 L 69.735,104.47 L 68.5,104.5 C 55.246,104.5 44.5,93.754 44.5,80.5 C 44.5,67.246 55.246,56.5 68.5,56.5 C 81.754,56.5 92.5,67.246 92.5,80.5 z "
   style="stroke:#ffffff;stroke-width:6;stroke-linecap:round;stroke-linejoin:round"
   id="path2838" />
<path
   d="M 140.5,80.5 L 140.47,81.735 L 140.38,82.954 L 140.22,84.155 L 140.01,85.337 L 139.74,86.498 L 139.42,87.637 L 139.04,88.752 L 138.61,89.841 L 138.13,90.905 L 137.6,91.939 L 137.03,92.944 L 136.4,93.918 L 135.73,94.859 L 135.02,95.766 L 134.26,96.637 L 133.47,97.47 L 132.64,98.265 L 131.77,99.019 L 130.86,99.732 L 129.92,100.4 L 128.94,101.03 L 127.94,101.6 L 126.9,102.13 L 125.84,102.61 L 124.75,103.04 L 123.64,103.42 L 122.5,103.74 L 121.34,104.01 L 120.15,104.22 L 118.95,104.38 L 117.73,104.47 L 116.5,104.5 C 103.25,104.5 92.5,93.754 92.5,80.5 C 92.5,67.246 103.25,56.5 116.5,56.5 C 129.75,56.5 140.5,67.246 140.5,80.5 z "
   style="fill:#ffffff;fill-rule:nonzero;stroke:#ffffff;stroke-width:0;stroke-linecap:round;stroke-linejoin:round"
   id="path2840" />
<path
   d="M 140.5,80.5 L 140.47,81.735 L 140.38,82.954 L 140.22,84.155 L 140.01,85.337 L 139.74,86.498 L 139.42,87.637 L 139.04,88.752 L 138.61,89.841 L 138.13,90.905 L 137.6,91.939 L 137.03,92.944 L 136.4,93.918 L 135.73,94.859 L 135.02,95.766 L 134.26,96.637 L 133.47,97.47 L 132.64,98.265 L 131.77,99.019 L 130.86,99.732 L 129.92,100.4 L 128.94,101.03 L 127.94,101.6 L 126.9,102.13 L 125.84,102.61 L 124.75,103.04 L 123.64,103.42 L 122.5,103.74 L 121.34,104.01 L 120.15,104.22 L 118.95,104.38 L 117.73,104.47 L 116.5,104.5 C 103.25,104.5 92.5,93.754 92.5,80.5 C 92.5,67.246 103.25,56.5 116.5,56.5 C 129.75,56.5 140.5,67.246 140.5,80.5 z "
   style="stroke:#ffffff;stroke-width:6;stroke-linecap:round;stroke-linejoin:round"
   id="path2842" />
<line
   x1="92.5"
   y1="80.5"
   x2="161.5"
   y2="120.5"
   style="stroke:#ffffff;stroke-width:16;stroke-linecap:round"
   id="line2844" />
<line
   x1="92.5"
   y1="80.5"
   x2="92.5"
   y2="0.5"
   style="stroke:#ffffff;stroke-width:16;stroke-linecap:round"
   id="line2846" />
<line
   x1="92.5"
   y1="80.5"
   x2="23.5"
   y2="40.5"
   style="stroke:#ffffff;stroke-width:16;stroke-linecap:round"
   id="line2848" />
<line
   x1="92.5"
   y1="80.5"
   x2="92.5"
   y2="160.5"
   style="stroke:#ffffff;stroke-width:16;stroke-linecap:round"
   id="line2850" />
<line
   x1="92.5"
   y1="80.5"
   x2="161.5"
   y2="120.5"
   style="stroke-width:12;stroke-linecap:round"
   id="line2852" />
<line
   x1="92.5"
   y1="80.5"
   x2="92.5"
   y2="0.5"
   style="stroke-width:12;stroke-linecap:round"
   id="line2854" />
<line
   x1="92.5"
   y1="80.5"
   x2="23.5"
   y2="40.5"
   style="stroke-width:12;stroke-linecap:round"
   id="line2856" />
<line
   x1="92.5"
   y1="80.5"
   x2="92.5"
   y2="160.5"
   style="stroke-width:12;stroke-linecap:round"
   id="line2858" />
<polygon
   points="68.5,56.5 116.5,56.5 116.5,104.5 68.5,104.5 68.5,56.5 "
   style="fill:#ffffff;fill-rule:nonzero;stroke:#ffffff;stroke-width:0;stroke-linejoin:round"
   id="polygon2860" />
<polygon
   points="68.5,56.5 116.5,56.5 116.5,104.5 68.5,104.5 68.5,56.5 "
   style="stroke-width:2;stroke-linejoin:round"
   id="polygon2862" />
<path
   d="M 92.5,80.5 L 92.469,81.735 L 92.376,82.954 L 92.223,84.155 L 92.012,85.337 L 91.744,86.498 L 91.421,87.637 L 91.044,88.752 L 90.614,89.841 L 90.133,90.905 L 89.603,91.939 L 89.025,92.944 L 88.401,93.918 L 87.732,94.859 L 87.019,95.766 L 86.265,96.637 L 85.47,97.47 L 84.637,98.265 L 83.766,99.019 L 82.859,99.732 L 81.918,100.4 L 80.944,101.03 L 79.939,101.6 L 78.905,102.13 L 77.841,102.61 L 76.752,103.04 L 75.637,103.42 L 74.498,103.74 L 73.337,104.01 L 72.155,104.22 L 70.954,104.38 L 69.735,104.47 L 68.5,104.5 C 55.246,104.5 44.5,93.754 44.5,80.5 C 44.5,67.246 55.246,56.5 68.5,56.5 C 81.754,56.5 92.5,67.246 92.5,80.5 z "
   style="fill:#ffffff;fill-rule:nonzero;stroke:#ffffff;stroke-width:0;stroke-linecap:round;stroke-linejoin:round"
   id="path2864" />
<path
   d="M 92.5,80.5 L 92.469,81.735 L 92.376,82.954 L 92.223,84.155 L 92.012,85.337 L 91.744,86.498 L 91.421,87.637 L 91.044,88.752 L 90.614,89.841 L 90.133,90.905 L 89.603,91.939 L 89.025,92.944 L 88.401,93.918 L 87.732,94.859 L 87.019,95.766 L 86.265,96.637 L 85.47,97.47 L 84.637,98.265 L 83.766,99.019 L 82.859,99.732 L 81.918,100.4 L 80.944,101.03 L 79.939,101.6 L 78.905,102.13 L 77.841,102.61 L 76.752,103.04 L 75.637,103.42 L 74.498,103.74 L 73.337,104.01 L 72.155,104.22 L 70.954,104.38 L 69.735,104.47 L 68.5,104.5 C 55.246,104.5 44.5,93.754 44.5,80.5 C 44.5,67.246 55.246,56.5 68.5,56.5 C 81.754,56.5 92.5,67.246 92.5,80.5 z "
   style="stroke-width:2;stroke-linecap:round;stroke-linejoin:round"
   id="path2866" />
<path
   d="M 140.5,80.5 L 140.47,81.735 L 140.38,82.954 L 140.22,84.155 L 140.01,85.337 L 139.74,86.498 L 139.42,87.637 L 139.04,88.752 L 138.61,89.841 L 138.13,90.905 L 137.6,91.939 L 137.03,92.944 L 136.4,93.918 L 135.73,94.859 L 135.02,95.766 L 134.26,96.637 L 133.47,97.47 L 132.64,98.265 L 131.77,99.019 L 130.86,99.732 L 129.92,100.4 L 128.94,101.03 L 127.94,101.6 L 126.9,102.13 L 125.84,102.61 L 124.75,103.04 L 123.64,103.42 L 122.5,103.74 L 121.34,104.01 L 120.15,104.22 L 118.95,104.38 L 117.73,104.47 L 116.5,104.5 C 103.25,104.5 92.5,93.754 92.5,80.5 C 92.5,67.246 103.25,56.5 116.5,56.5 C 129.75,56.5 140.5,67.246 140.5,80.5 z "
   style="fill:#ffffff;fill-rule:nonzero;stroke:#ffffff;stroke-width:0;stroke-linecap:round;stroke-linejoin:round"
   id="path2868" />
<path
   d="M 140.5,80.5 L 140.47,81.735 L 140.38,82.954 L 140.22,84.155 L 140.01,85.337 L 139.74,86.498 L 139.42,87.637 L 139.04,88.752 L 138.61,89.841 L 138.13,90.905 L 137.6,91.939 L 137.03,92.944 L 136.4,93.918 L 135.73,94.859 L 135.02,95.766 L 134.26,96.637 L 133.47,97.47 L 132.64,98.265 L 131.77,99.019 L 130.86,99.732 L 129.92,100.4 L 128.94,101.03 L 127.94,101.6 L 126.9,102.13 L 125.84,102.61 L 124.75,103.04 L 123.64,103.42 L 122.5,103.74 L 121.34,104.01 L 120.15,104.22 L 118.95,104.38 L 117.73,104.47 L 116.5,104.5 C 103.25,104.5 92.5,93.754 92.5,80.5 C 92.5,67.246 103.25,56.5 116.5,56.5 C 129.75,56.5 140.5,67.246 140.5,80.5 z "
   style="stroke-width:2;stroke-linecap:round;stroke-linejoin:round"
   id="path2870" />
<path
   d="M 134.99,140.5 L 134.98,140.71 L 134.95,140.91 L 134.89,141.11 L 134.82,141.31 L 134.72,141.51 L 134.61,141.7 L 134.48,141.89 L 134.32,142.07 L 134.15,142.25 L 133.97,142.42 L 133.76,142.59 L 133.54,142.76 L 133.3,142.92 L 133.05,143.07 L 132.79,143.22 L 132.5,143.36 L 132.21,143.49 L 131.9,143.62 L 131.58,143.74 L 131.25,143.85 L 130.9,143.95 L 130.55,144.05 L 130.18,144.14 L 129.8,144.22 L 129.42,144.29 L 129.02,144.36 L 128.62,144.41 L 128.21,144.46 L 127.79,144.49 L 127.37,144.52 L 126.94,144.53 L 126.5,144.54 C 121.81,144.54 118.01,142.73 118.01,140.5 C 118.01,138.27 121.81,136.46 126.5,136.46 C 131.19,136.46 134.99,138.27 134.99,140.5 z "
   style="fill:#ffffff;fill-rule:nonzero;stroke:#ffffff;stroke-width:0;stroke-linecap:round;stroke-linejoin:round"
   id="path2872" />
<path
   d="M 134.99,140.5 L 134.98,140.71 L 134.95,140.91 L 134.89,141.11 L 134.82,141.31 L 134.72,141.51 L 134.61,141.7 L 134.48,141.89 L 134.32,142.07 L 134.15,142.25 L 133.97,142.42 L 133.76,142.59 L 133.54,142.76 L 133.3,142.92 L 133.05,143.07 L 132.79,143.22 L 132.5,143.36 L 132.21,143.49 L 131.9,143.62 L 131.58,143.74 L 131.25,143.85 L 130.9,143.95 L 130.55,144.05 L 130.18,144.14 L 129.8,144.22 L 129.42,144.29 L 129.02,144.36 L 128.62,144.41 L 128.21,144.46 L 127.79,144.49 L 127.37,144.52 L 126.94,144.53 L 126.5,144.54 C 121.81,144.54 118.01,142.73 118.01,140.5 C 118.01,138.27 121.81,136.46 126.5,136.46 C 131.19,136.46 134.99,138.27 134.99,140.5 z "
   style="stroke-width:0.84906;stroke-linecap:round;stroke-linejoin:round"
   id="path2874" />
<text
   transform="matrix(1,0,0,-1,121.19,137.98)"
   style="font-size:8px;fill:#000000;stroke:none;font-family:&quot;Helvetica&quot;, sans-serif"
   id="text2876">30</text>

<polygon
   points="46.5,160.5 138.5,160.5 184.5,80.5 138.5,0.5 46.5,0.5 0.5,80.5 46.5,160.5 "
   style="stroke-width:1;stroke-linejoin:round"
   id="polygon2878" />
</g></svg>
