<?xml version="1.0" encoding="UTF-8" standalone="no"?>
<svg
   xmlns:dc="http://purl.org/dc/elements/1.1/"
   xmlns:cc="http://web.resource.org/cc/"
   xmlns:rdf="http://www.w3.org/1999/02/22-rdf-syntax-ns#"
   xmlns:svg="http://www.w3.org/2000/svg"
   xmlns="http://www.w3.org/2000/svg"
   xmlns:sodipodi="http://inkscape.sourceforge.net/DTD/sodipodi-0.dtd"
   xmlns:inkscape="http://www.inkscape.org/namespaces/inkscape"
   width="100"
   height="100"
   viewBox="0 0 1 1"
   preserveAspectRatio="none"
   id="svg1737"
   sodipodi:version="0.32"
   inkscape:version="0.43"
   sodipodi:docname="tile626.svg"
   sodipodi:docbase="C:\Documents and Settings\lentz\Desktop\TileDesigner"
   version="1.0">
  <metadata
     id="metadata1764">
    <rdf:RDF>
      <cc:Work
         rdf:about="">
        <dc:format>image/svg+xml</dc:format>
        <dc:type
           rdf:resource="http://purl.org/dc/dcmitype/StillImage" />
      </cc:Work>
    </rdf:RDF>
  </metadata>
  <defs
     id="defs1762" />
  <sodipodi:namedview
     inkscape:window-height="540"
     inkscape:window-width="749"
     inkscape:pageshadow="2"
     inkscape:pageopacity="0.0"
     borderopacity="1.0"
     bordercolor="#666666"
     pagecolor="#ffffff"
     id="base"
     inkscape:zoom="0.52361111"
     inkscape:cx="360"
     inkscape:cy="360"
     inkscape:window-x="132"
     inkscape:window-y="132"
     inkscape:current-layer="svg1737" />
  <title
     id="title1739">SVG drawing</title>
  <desc
     id="desc1741">This was produced by version 4.1 of GNU libplot, a free library for exporting 2-D vector graphics.</desc>
  <g
     transform="matrix(5.418114e-3,0,0,-5.333139e-3,-1.175565e-3,0.939964)"
     xml:space="preserve"
     style="font-style:normal;font-variant:normal;font-weight:normal;font-stretch:normal;letter-spacing:normal;word-spacing:normal;text-anchor:start;fill:none;fill-opacity:1;stroke:#000000;stroke-linecap:butt;stroke-linejoin:miter;stroke-miterlimit:10.43299961;stroke-dasharray:none;stroke-dashoffset:0;stroke-opacity:1"
     id="g1745">
<polygon
   points="46.5,160.5 138.5,160.5 184.5,80.5 138.5,0.5 46.5,0.5 0.5,80.5 46.5,160.5 "
   style="fill:#38ac00;fill-rule:nonzero;stroke:#38ac00;stroke-width:0;stroke-linejoin:round"
   id="polygon1747" />
<text
   transform="matrix(1,0,0,-1,109.19,7.9141)"
   style="font-size:8px;fill:#000000;stroke:none;font-family:&quot;Helvetica&quot;, sans-serif"
   id="text1749">626</text>

<path
   d="M 92.5,160.5 L 92.5,160.5 C 92.5,135.1 113.1,114.5 138.5,114.5 C 146.54,114.5 154.45,116.61 161.43,120.62"
   style="stroke:#ffffff;stroke-width:16;stroke-linecap:round;stroke-linejoin:round"
   id="path1751" />
<path
   d="M 92.5,0.5 L 92.5,0.5 C 92.5,25.902 71.902,46.5 46.5,46.5 C 38.457,46.5 30.547,44.387 23.57,40.379"
   style="stroke:#ffffff;stroke-width:16;stroke-linecap:round;stroke-linejoin:round"
   id="path1753" />
<path
   d="M 92.5,160.5 L 92.5,160.5 C 92.5,135.1 113.1,114.5 138.5,114.5 C 146.54,114.5 154.45,116.61 161.43,120.62"
   style="stroke-width:12;stroke-linecap:round;stroke-linejoin:round"
   id="path1755" />
<path
   d="M 92.5,0.5 L 92.5,0.5 C 92.5,25.902 71.902,46.5 46.5,46.5 C 38.457,46.5 30.547,44.387 23.57,40.379"
   style="stroke-width:12;stroke-linecap:round;stroke-linejoin:round"
   id="path1757" />
<polygon
   points="46.5,160.5 138.5,160.5 184.5,80.5 138.5,0.5 46.5,0.5 0.5,80.5 46.5,160.5 "
   style="stroke-width:1;stroke-linejoin:round"
   id="polygon1759" />
</g></svg>
