<?xml version="1.0" encoding="UTF-8" standalone="no"?>
<svg
   xmlns:dc="http://purl.org/dc/elements/1.1/"
   xmlns:cc="http://web.resource.org/cc/"
   xmlns:rdf="http://www.w3.org/1999/02/22-rdf-syntax-ns#"
   xmlns:svg="http://www.w3.org/2000/svg"
   xmlns="http://www.w3.org/2000/svg"
   xmlns:sodipodi="http://sodipodi.sourceforge.net/DTD/sodipodi-0.dtd"
   xmlns:inkscape="http://www.inkscape.org/namespaces/inkscape"
   width="100"
   height="100"
   viewBox="0 0 1 1"
   preserveAspectRatio="none"
   id="svg10937"
   sodipodi:version="0.32"
   inkscape:version="0.45.1"
   sodipodi:docname="tile419.svg"
   sodipodi:docbase="C:\Documents and Settings\Brett\workspace\18xx\tiles\svg"
   version="1.0"
   inkscape:output_extension="org.inkscape.output.svg.inkscape">
  <metadata
     id="metadata10978">
    <rdf:RDF>
      <cc:Work
         rdf:about="">
        <dc:format>image/svg+xml</dc:format>
        <dc:type
           rdf:resource="http://purl.org/dc/dcmitype/StillImage" />
      </cc:Work>
    </rdf:RDF>
  </metadata>
  <defs
     id="defs10976" />
  <sodipodi:namedview
     inkscape:window-height="579"
     inkscape:window-width="749"
     inkscape:pageshadow="2"
     inkscape:pageopacity="0.0"
     borderopacity="1.0"
     bordercolor="#666666"
     pagecolor="#ffffff"
     id="base"
     inkscape:zoom="1.4994318"
     inkscape:cx="135.59682"
     inkscape:cy="11.458886"
     inkscape:window-x="66"
     inkscape:window-y="66"
     inkscape:current-layer="svg10937" />
  <title
     id="title10939">SVG drawing</title>
  <desc
     id="desc10941">This was produced by version 4.1 of GNU libplot, a free library for exporting 2-D vector graphics.</desc>
  <g
     transform="matrix(5.416984e-3,0,0,-6.1771271e-3,-1.071036e-3,1.0008617)"
     xml:space="preserve"
     style="font-style:normal;font-variant:normal;font-weight:normal;font-stretch:normal;letter-spacing:normal;word-spacing:normal;text-anchor:start;fill:none;fill-opacity:1;stroke:#000000;stroke-linecap:butt;stroke-linejoin:miter;stroke-miterlimit:10.43299961;stroke-dasharray:none;stroke-dashoffset:0;stroke-opacity:1"
     id="g10945">
<polygon
   points="46.5,160.5 138.5,160.5 184.5,80.5 138.5,0.5 46.5,0.5 0.5,80.5 46.5,160.5 "
   style="fill:#38ac00;fill-rule:nonzero;stroke:#38ac00;stroke-width:0;stroke-linejoin:round"
   id="polygon10947" />
<text
   transform="matrix(1,0,0,-1,109.21,7.9141)"
   style="font-size:8px;fill:#000000;stroke:none;font-family:&quot;Helvetica&quot;, sans-serif"
   id="text10949">419</text>


<line
   x1="83.5"
   y1="121.5"
   x2="111.5"
   y2="127.5"
   style="stroke:#ffffff;stroke-width:16"
   id="line10951" />
<path
   d="M 92.5,160.5 L 92.5,160.5 C 92.5,148.33 94.113,136.2 97.293,124.44"
   style="stroke:#ffffff;stroke-width:16;stroke-linecap:round;stroke-linejoin:round"
   id="path10953" />
<path
   d="M 97.5,124.5 L 97.297,124.44 C 106.85,89.152 130.02,59.09 161.71,40.867"
   style="stroke:#ffffff;stroke-width:16;stroke-linecap:round;stroke-linejoin:round"
   id="path10955" />
<path
   d="M 161.5,40.5 L 161.3,40.129 C 140.37,52.164 116.64,58.5 92.5,58.5 C 68.359,58.5 44.637,52.164 23.711,40.133"
   style="stroke:#ffffff;stroke-width:16;stroke-linecap:round;stroke-linejoin:round"
   id="path10957" />
<path
   d="M 92.5,160.5 L 92.5,160.5 C 92.5,148.33 94.113,136.2 97.293,124.44"
   style="stroke-width:12;stroke-linecap:round;stroke-linejoin:round"
   id="path10959" />
<path
   d="M 97.5,124.5 L 97.297,124.44 C 106.85,89.152 130.02,59.09 161.71,40.867"
   style="stroke-width:12;stroke-linecap:round;stroke-linejoin:round"
   id="path10961" />
<path
   d="M 161.5,40.5 L 161.3,40.129 C 140.37,52.164 116.64,58.5 92.5,58.5 C 68.359,58.5 44.637,52.164 23.711,40.133"
   style="stroke-width:12;stroke-linecap:round;stroke-linejoin:round"
   id="path10963" />
<line
   x1="85.5"
   y1="121.5"
   x2="109.5"
   y2="127.5"
   style="stroke-width:12"
   id="line10965" />
<path
   d="M 66.992,140.5 L 66.981,140.71 L 66.948,140.91 L 66.894,141.11 L 66.82,141.31 L 66.725,141.51 L 66.61,141.7 L 66.477,141.89 L 66.324,142.07 L 66.154,142.25 L 65.967,142.42 L 65.762,142.59 L 65.541,142.76 L 65.304,142.92 L 65.052,143.07 L 64.785,143.22 L 64.504,143.36 L 64.209,143.49 L 63.901,143.62 L 63.58,143.74 L 63.247,143.85 L 62.902,143.95 L 62.547,144.05 L 62.181,144.14 L 61.804,144.22 L 61.419,144.29 L 61.024,144.36 L 60.621,144.41 L 60.211,144.46 L 59.793,144.49 L 59.368,144.52 L 58.937,144.53 L 58.5,144.54 C 53.812,144.54 50.008,142.73 50.008,140.5 C 50.008,138.27 53.812,136.46 58.5,136.46 C 63.188,136.46 66.992,138.27 66.992,140.5 z "
   style="fill:#ffffff;fill-rule:nonzero;stroke:#ffffff;stroke-width:0;stroke-linecap:round;stroke-linejoin:round"
   id="path10967" />
<path
   d="M 66.992,140.5 L 66.981,140.71 L 66.948,140.91 L 66.894,141.11 L 66.82,141.31 L 66.725,141.51 L 66.61,141.7 L 66.477,141.89 L 66.324,142.07 L 66.154,142.25 L 65.967,142.42 L 65.762,142.59 L 65.541,142.76 L 65.304,142.92 L 65.052,143.07 L 64.785,143.22 L 64.504,143.36 L 64.209,143.49 L 63.901,143.62 L 63.58,143.74 L 63.247,143.85 L 62.902,143.95 L 62.547,144.05 L 62.181,144.14 L 61.804,144.22 L 61.419,144.29 L 61.024,144.36 L 60.621,144.41 L 60.211,144.46 L 59.793,144.49 L 59.368,144.52 L 58.937,144.53 L 58.5,144.54 C 53.812,144.54 50.008,142.73 50.008,140.5 C 50.008,138.27 53.812,136.46 58.5,136.46 C 63.188,136.46 66.992,138.27 66.992,140.5 z "
   style="stroke-width:0.84906;stroke-linecap:round;stroke-linejoin:round"
   id="path10969" />
<text
   transform="matrix(1,0,0,-1,53.191,137.98)"
   style="font-size:8px;fill:#000000;stroke:none;font-family:&quot;Helvetica&quot;, sans-serif"
   id="text10971">10</text>


<polygon
   points="46.5,160.5 138.5,160.5 184.5,80.5 138.5,0.5 46.5,0.5 0.5,80.5 46.5,160.5 "
   style="stroke-width:1;stroke-linejoin:round"
   id="polygon10973" />
</g></svg>
