<?xml version="1.0" encoding="UTF-8" standalone="no"?>
<svg
   xmlns:dc="http://purl.org/dc/elements/1.1/"
   xmlns:cc="http://web.resource.org/cc/"
   xmlns:rdf="http://www.w3.org/1999/02/22-rdf-syntax-ns#"
   xmlns:svg="http://www.w3.org/2000/svg"
   xmlns="http://www.w3.org/2000/svg"
   xmlns:sodipodi="http://inkscape.sourceforge.net/DTD/sodipodi-0.dtd"
   xmlns:inkscape="http://www.inkscape.org/namespaces/inkscape"
   width="100"
   height="100"
   viewBox="0 0 1 1"
   preserveAspectRatio="none"
   id="svg2048"
   sodipodi:version="0.32"
   inkscape:version="0.43"
   sodipodi:docname="tile633.svg"
   sodipodi:docbase="C:\Documents and Settings\lentz\Desktop\TileDesigner"
   version="1.0">
  <metadata
     id="metadata2103">
    <rdf:RDF>
      <cc:Work
         rdf:about="">
        <dc:format>image/svg+xml</dc:format>
        <dc:type
           rdf:resource="http://purl.org/dc/dcmitype/StillImage" />
      </cc:Work>
    </rdf:RDF>
  </metadata>
  <defs
     id="defs2101" />
  <sodipodi:namedview
     inkscape:window-height="540"
     inkscape:window-width="749"
     inkscape:pageshadow="2"
     inkscape:pageopacity="0.0"
     borderopacity="1.0"
     bordercolor="#666666"
     pagecolor="#ffffff"
     id="base"
     inkscape:zoom="0.52361111"
     inkscape:cx="360"
     inkscape:cy="360"
     inkscape:window-x="198"
     inkscape:window-y="198"
     inkscape:current-layer="svg2048" />
  <title
     id="title2050">SVG drawing</title>
  <desc
     id="desc2052">This was produced by version 4.1 of GNU libplot, a free library for exporting 2-D vector graphics.</desc>
  <g
     transform="matrix(5.418114e-3,0,0,-5.333139e-3,-1.175565e-3,0.939964)"
     xml:space="preserve"
     style="font-style:normal;font-variant:normal;font-weight:normal;font-stretch:normal;letter-spacing:normal;word-spacing:normal;text-anchor:start;fill:none;fill-opacity:1;stroke:#000000;stroke-linecap:butt;stroke-linejoin:miter;stroke-miterlimit:10.43299961;stroke-dasharray:none;stroke-dashoffset:0;stroke-opacity:1"
     id="g2056">
<polygon
   points="46.5,160.5 138.5,160.5 184.5,80.5 138.5,0.5 46.5,0.5 0.5,80.5 46.5,160.5 "
   style="fill:#ffff00;fill-rule:nonzero;stroke:#ffff00;stroke-width:0;stroke-linejoin:round"
   id="polygon2058" />
<text
   transform="matrix(1,0,0,-1,109.23,7.9141)"
   style="font-size:8px;fill:#000000;stroke:none;font-family:&quot;Helvetica&quot;, sans-serif"
   id="text2060">633</text>

<line
   x1="122.5"
   y1="132.5"
   x2="108.5"
   y2="108.5"
   style="stroke:#ffffff;stroke-width:16"
   id="line2062" />
<line
   x1="62.5"
   y1="28.5"
   x2="76.5"
   y2="52.5"
   style="stroke:#ffffff;stroke-width:16"
   id="line2064" />
<path
   d="M 92.5,160.5 L 92.5,160.5 C 92.5,144.04 101.3,128.83 115.57,120.62"
   style="stroke:#ffffff;stroke-width:16;stroke-linecap:round;stroke-linejoin:round"
   id="path2066" />
<path
   d="M 115.5,120.5 L 115.57,120.62 C 122.55,116.61 130.46,114.5 138.5,114.5 C 146.55,114.5 154.46,116.61 161.43,120.62"
   style="stroke:#ffffff;stroke-width:16;stroke-linecap:round;stroke-linejoin:round"
   id="path2068" />
<path
   d="M 92.5,0.5 L 92.5,0.5 C 92.5,16.961 83.703,32.172 69.434,40.375"
   style="stroke:#ffffff;stroke-width:16;stroke-linecap:round;stroke-linejoin:round"
   id="path2070" />
<path
   d="M 69.5,40.5 L 69.434,40.375 C 62.457,44.387 54.547,46.5 46.5,46.5 C 38.457,46.5 30.547,44.387 23.57,40.379"
   style="stroke:#ffffff;stroke-width:16;stroke-linecap:round;stroke-linejoin:round"
   id="path2072" />
<path
   d="M 92.5,160.5 L 92.5,160.5 C 92.5,144.04 101.3,128.83 115.57,120.62"
   style="stroke-width:12;stroke-linecap:round;stroke-linejoin:round"
   id="path2074" />
<path
   d="M 115.5,120.5 L 115.57,120.62 C 122.55,116.61 130.46,114.5 138.5,114.5 C 146.55,114.5 154.46,116.61 161.43,120.62"
   style="stroke-width:12;stroke-linecap:round;stroke-linejoin:round"
   id="path2076" />
<path
   d="M 92.5,0.5 L 92.5,0.5 C 92.5,16.961 83.703,32.172 69.434,40.375"
   style="stroke-width:12;stroke-linecap:round;stroke-linejoin:round"
   id="path2078" />
<path
   d="M 69.5,40.5 L 69.434,40.375 C 62.457,44.387 54.547,46.5 46.5,46.5 C 38.457,46.5 30.547,44.387 23.57,40.379"
   style="stroke-width:12;stroke-linecap:round;stroke-linejoin:round"
   id="path2080" />
<line
   x1="121.5"
   y1="130.5"
   x2="109.5"
   y2="110.5"
   style="stroke-width:12"
   id="line2082" />
<path
   d="M 66.992,140.5 L 66.981,140.71 L 66.948,140.91 L 66.894,141.11 L 66.82,141.31 L 66.725,141.51 L 66.61,141.7 L 66.477,141.89 L 66.324,142.07 L 66.154,142.25 L 65.967,142.42 L 65.762,142.59 L 65.541,142.76 L 65.304,142.92 L 65.052,143.07 L 64.785,143.22 L 64.504,143.36 L 64.209,143.49 L 63.901,143.62 L 63.58,143.74 L 63.247,143.85 L 62.902,143.95 L 62.547,144.05 L 62.181,144.14 L 61.804,144.22 L 61.419,144.29 L 61.024,144.36 L 60.621,144.41 L 60.211,144.46 L 59.793,144.49 L 59.368,144.52 L 58.937,144.53 L 58.5,144.54 C 53.812,144.54 50.008,142.73 50.008,140.5 C 50.008,138.27 53.812,136.46 58.5,136.46 C 63.188,136.46 66.992,138.27 66.992,140.5 z "
   style="fill:#ffffff;fill-rule:nonzero;stroke:#ffffff;stroke-width:0;stroke-linecap:round;stroke-linejoin:round"
   id="path2084" />
<path
   d="M 66.992,140.5 L 66.981,140.71 L 66.948,140.91 L 66.894,141.11 L 66.82,141.31 L 66.725,141.51 L 66.61,141.7 L 66.477,141.89 L 66.324,142.07 L 66.154,142.25 L 65.967,142.42 L 65.762,142.59 L 65.541,142.76 L 65.304,142.92 L 65.052,143.07 L 64.785,143.22 L 64.504,143.36 L 64.209,143.49 L 63.901,143.62 L 63.58,143.74 L 63.247,143.85 L 62.902,143.95 L 62.547,144.05 L 62.181,144.14 L 61.804,144.22 L 61.419,144.29 L 61.024,144.36 L 60.621,144.41 L 60.211,144.46 L 59.793,144.49 L 59.368,144.52 L 58.937,144.53 L 58.5,144.54 C 53.812,144.54 50.008,142.73 50.008,140.5 C 50.008,138.27 53.812,136.46 58.5,136.46 C 63.188,136.46 66.992,138.27 66.992,140.5 z "
   style="stroke-width:0.84906;stroke-linecap:round;stroke-linejoin:round"
   id="path2086" />
<text
   transform="matrix(1,0,0,-1,53.191,137.98)"
   style="font-size:8px;fill:#000000;stroke:none;font-family:&quot;Helvetica&quot;, sans-serif"
   id="text2088">10</text>

<line
   x1="63.5"
   y1="30.5"
   x2="75.5"
   y2="50.5"
   style="stroke-width:12"
   id="line2090" />
<path
   d="M 134.99,20.5 L 134.98,20.708 L 134.95,20.913 L 134.89,21.115 L 134.82,21.314 L 134.72,21.509 L 134.61,21.701 L 134.48,21.889 L 134.32,22.072 L 134.15,22.251 L 133.97,22.425 L 133.76,22.594 L 133.54,22.758 L 133.3,22.917 L 133.05,23.069 L 132.79,23.216 L 132.5,23.356 L 132.21,23.49 L 131.9,23.617 L 131.58,23.737 L 131.25,23.849 L 130.9,23.954 L 130.55,24.052 L 130.18,24.141 L 129.8,24.222 L 129.42,24.294 L 129.02,24.357 L 128.62,24.412 L 128.21,24.457 L 127.79,24.493 L 127.37,24.518 L 126.94,24.534 L 126.5,24.539 C 121.81,24.539 118.01,22.73 118.01,20.5 C 118.01,18.27 121.81,16.461 126.5,16.461 C 131.19,16.461 134.99,18.27 134.99,20.5 z "
   style="fill:#ffffff;fill-rule:nonzero;stroke:#ffffff;stroke-width:0;stroke-linecap:round;stroke-linejoin:round"
   id="path2092" />
<path
   d="M 134.99,20.5 L 134.98,20.708 L 134.95,20.913 L 134.89,21.115 L 134.82,21.314 L 134.72,21.509 L 134.61,21.701 L 134.48,21.889 L 134.32,22.072 L 134.15,22.251 L 133.97,22.425 L 133.76,22.594 L 133.54,22.758 L 133.3,22.917 L 133.05,23.069 L 132.79,23.216 L 132.5,23.356 L 132.21,23.49 L 131.9,23.617 L 131.58,23.737 L 131.25,23.849 L 130.9,23.954 L 130.55,24.052 L 130.18,24.141 L 129.8,24.222 L 129.42,24.294 L 129.02,24.357 L 128.62,24.412 L 128.21,24.457 L 127.79,24.493 L 127.37,24.518 L 126.94,24.534 L 126.5,24.539 C 121.81,24.539 118.01,22.73 118.01,20.5 C 118.01,18.27 121.81,16.461 126.5,16.461 C 131.19,16.461 134.99,18.27 134.99,20.5 z "
   style="stroke-width:0.84906;stroke-linecap:round;stroke-linejoin:round"
   id="path2094" />
<text
   transform="matrix(1,0,0,-1,121.19,17.977)"
   style="font-size:8px;fill:#000000;stroke:none;font-family:&quot;Helvetica&quot;, sans-serif"
   id="text2096">10</text>

<polygon
   points="46.5,160.5 138.5,160.5 184.5,80.5 138.5,0.5 46.5,0.5 0.5,80.5 46.5,160.5 "
   style="stroke-width:1;stroke-linejoin:round"
   id="polygon2098" />
</g></svg>
