<?xml version="1.0" encoding="UTF-8" standalone="no"?>
<svg
   xmlns:dc="http://purl.org/dc/elements/1.1/"
   xmlns:cc="http://web.resource.org/cc/"
   xmlns:rdf="http://www.w3.org/1999/02/22-rdf-syntax-ns#"
   xmlns:svg="http://www.w3.org/2000/svg"
   xmlns="http://www.w3.org/2000/svg"
   xmlns:sodipodi="http://inkscape.sourceforge.net/DTD/sodipodi-0.dtd"
   xmlns:inkscape="http://www.inkscape.org/namespaces/inkscape"
   width="100"
   height="100"
   viewBox="0 0 1 1"
   preserveAspectRatio="none"
   id="svg2261"
   sodipodi:version="0.32"
   inkscape:version="0.43"
   sodipodi:docname="tile9220.svg"
   sodipodi:docbase="C:\Documents and Settings\lentz\Desktop\TileDesigner"
   version="1.0">
  <metadata
     id="metadata2358">
    <rdf:RDF>
      <cc:Work
         rdf:about="">
        <dc:format>image/svg+xml</dc:format>
        <dc:type
           rdf:resource="http://purl.org/dc/dcmitype/StillImage" />
      </cc:Work>
    </rdf:RDF>
  </metadata>
  <defs
     id="defs2356" />
  <sodipodi:namedview
     inkscape:window-height="540"
     inkscape:window-width="749"
     inkscape:pageshadow="2"
     inkscape:pageopacity="0.0"
     borderopacity="1.0"
     bordercolor="#666666"
     pagecolor="#ffffff"
     id="base"
     inkscape:zoom="0.52361111"
     inkscape:cx="360"
     inkscape:cy="360"
     inkscape:window-x="132"
     inkscape:window-y="132"
     inkscape:current-layer="svg2261" />
  <title
     id="title2263">SVG drawing</title>
  <desc
     id="desc2265">This was produced by version 4.1 of GNU libplot, a free library for exporting 2-D vector graphics.</desc>
  <g
     transform="matrix(5.418114e-3,0,0,-5.333139e-3,-1.175565e-3,0.939964)"
     xml:space="preserve"
     style="font-style:normal;font-variant:normal;font-weight:normal;font-stretch:normal;letter-spacing:normal;word-spacing:normal;text-anchor:start;fill:none;fill-opacity:1;stroke:#000000;stroke-linecap:butt;stroke-linejoin:miter;stroke-miterlimit:10.43299961;stroke-dasharray:none;stroke-dashoffset:0;stroke-opacity:1"
     id="g2269">
<polygon
   points="46.5,160.5 138.5,160.5 184.5,80.5 138.5,0.5 46.5,0.5 0.5,80.5 46.5,160.5 "
   style="fill:#b46301;fill-rule:nonzero;stroke:#b46301;stroke-width:0;stroke-linejoin:round"
   id="polygon2271" />
<path
   d="M 107.43,9.2969 L 107.44,9.2108 L 107.46,9.127 L 107.48,9.0455 L 107.5,8.9663 L 107.52,8.8895 L 107.55,8.815 L 107.58,8.743 L 107.61,8.6733 L 107.65,8.6062 L 107.68,8.5415 L 107.72,8.4794 L 107.76,8.4199 L 107.81,8.3629 L 107.86,8.3086 L 107.9,8.257 L 107.95,8.208 L 108.01,8.1618 L 108.06,8.1183 L 108.12,8.0776 L 108.18,8.0397 L 108.24,8.0047 L 108.3,7.9725 L 108.37,7.9433 L 108.43,7.917 L 108.5,7.8937 L 108.57,7.8734 L 108.65,7.8561 L 108.72,7.8419 L 108.8,7.8308 L 108.87,7.8228 L 108.95,7.818 L 109.03,7.8164 C 109.66,7.8164 110.22,8.1211 110.55,8.625 C 110.91,9.1758 111.07,9.8711 111.07,10.902 C 111.07,11.856 110.93,12.465 110.59,12.969 C 110.28,13.426 109.79,13.672 109.16,13.672 C 108.08,13.672 107.31,12.871 107.31,11.762 C 107.31,10.703 108.02,9.9609 109.05,9.9609 C 109.59,9.9609 109.98,10.152 110.34,10.594 C 110.34,9.207 109.89,8.4414 109.08,8.4414 C 108.59,8.4414 108.24,8.7539 108.13,9.2969 L 107.43,9.2969 z "
   style="fill:#000000;stroke-width:0;stroke-linecap:round;stroke-linejoin:round"
   id="path2273" />
<path
   d="M 109.15,13.055 L 109.21,13.053 L 109.27,13.048 L 109.33,13.041 L 109.39,13.03 L 109.45,13.016 L 109.5,13 L 109.56,12.98 L 109.61,12.958 L 109.66,12.934 L 109.71,12.906 L 109.76,12.876 L 109.81,12.844 L 109.85,12.809 L 109.89,12.772 L 109.94,12.733 L 109.97,12.691 L 110.01,12.648 L 110.05,12.602 L 110.08,12.554 L 110.11,12.504 L 110.14,12.453 L 110.17,12.399 L 110.19,12.344 L 110.22,12.287 L 110.24,12.228 L 110.25,12.168 L 110.27,12.106 L 110.28,12.043 L 110.29,11.979 L 110.3,11.913 L 110.3,11.846 L 110.31,11.777 C 110.31,11.078 109.82,10.586 109.13,10.586 C 108.45,10.586 108.02,11.055 108.02,11.816 C 108.02,12.535 108.5,13.055 109.15,13.055 z "
   style="fill:#000000;stroke-width:0;stroke-linecap:round;stroke-linejoin:round"
   id="path2275" />
<path
   d="M 115.05,8.6953 L 112.06,8.6953 C 112.14,9.1602 112.39,9.457 113.09,9.8633 L 113.89,10.297 C 114.68,10.727 115.09,11.312 115.09,12.008 C 115.09,12.481 114.89,12.922 114.56,13.223 C 114.22,13.527 113.81,13.672 113.27,13.672 C 112.55,13.672 112.02,13.414 111.7,12.938 C 111.5,12.633 111.41,12.281 111.4,11.703 L 112.11,11.703 C 112.13,12.09 112.18,12.32 112.27,12.504 C 112.46,12.848 112.82,13.055 113.25,13.055 C 113.89,13.055 114.37,12.602 114.37,11.992 C 114.37,11.543 114.11,11.16 113.6,10.871 L 112.86,10.457 C 111.68,9.7852 111.34,9.2461 111.27,8 L 115.05,8 L 115.05,8.6953 z "
   style="fill:#000000;stroke-width:0;stroke-linecap:round;stroke-linejoin:round"
   id="path2277" />
<path
   d="M 120.05,8.6953 L 117.06,8.6953 C 117.14,9.1602 117.39,9.457 118.09,9.8633 L 118.89,10.297 C 119.68,10.727 120.09,11.312 120.09,12.008 C 120.09,12.481 119.89,12.922 119.56,13.223 C 119.22,13.527 118.81,13.672 118.27,13.672 C 117.55,13.672 117.02,13.414 116.7,12.938 C 116.5,12.633 116.41,12.281 116.4,11.703 L 117.11,11.703 C 117.13,12.09 117.18,12.32 117.27,12.504 C 117.46,12.848 117.82,13.055 118.25,13.055 C 118.89,13.055 119.37,12.602 119.37,11.992 C 119.37,11.543 119.11,11.16 118.6,10.871 L 117.86,10.457 C 116.68,9.7852 116.34,9.2461 116.27,8 L 120.05,8 L 120.05,8.6953 z "
   style="fill:#000000;stroke-width:0;stroke-linecap:round;stroke-linejoin:round"
   id="path2279" />
<path
   d="M 122.2,13.672 L 122.15,13.671 L 122.1,13.669 L 122.05,13.666 L 122,13.661 L 121.96,13.655 L 121.91,13.648 L 121.86,13.64 L 121.81,13.63 L 121.77,13.619 L 121.72,13.606 L 121.68,13.593 L 121.63,13.578 L 121.59,13.562 L 121.55,13.545 L 121.5,13.527 L 121.46,13.507 L 121.42,13.487 L 121.38,13.465 L 121.34,13.442 L 121.3,13.418 L 121.26,13.393 L 121.22,13.367 L 121.19,13.339 L 121.15,13.311 L 121.11,13.282 L 121.08,13.251 L 121.05,13.22 L 121.01,13.187 L 120.98,13.153 L 120.95,13.119 L 120.92,13.083 L 120.89,13.047 C 120.53,12.551 120.34,11.793 120.34,10.742 C 120.34,8.832 120.98,7.8164 122.2,7.8164 C 123.4,7.8164 124.06,8.832 124.06,10.695 C 124.06,11.801 123.88,12.535 123.5,13.047 C 123.21,13.449 122.73,13.672 122.2,13.672 z "
   style="fill:#000000;stroke-width:0;stroke-linecap:round;stroke-linejoin:round"
   id="path2281" />
<path
   d="M 122.2,13.047 L 122.27,13.045 L 122.34,13.038 L 122.4,13.027 L 122.47,13.011 L 122.53,12.991 L 122.59,12.966 L 122.64,12.937 L 122.7,12.904 L 122.75,12.865 L 122.8,12.823 L 122.85,12.776 L 122.89,12.724 L 122.94,12.669 L 122.98,12.608 L 123.02,12.543 L 123.05,12.474 L 123.09,12.4 L 123.12,12.322 L 123.15,12.24 L 123.18,12.153 L 123.2,12.061 L 123.23,11.965 L 123.25,11.865 L 123.27,11.76 L 123.28,11.651 L 123.3,11.537 L 123.31,11.419 L 123.32,11.296 L 123.33,11.169 L 123.33,11.038 L 123.33,10.902 L 123.34,10.762 C 123.34,9.1523 122.97,8.3984 122.18,8.3984 C 121.44,8.3984 121.06,9.1836 121.06,10.734 C 121.06,12.289 121.44,13.047 122.2,13.047 z "
   style="fill:#000000;stroke-width:0;stroke-linecap:round;stroke-linejoin:round"
   id="path2283" />
<polygon
   points="68.5,42.5 116.5,42.5 137.5,78.5 113.5,120.5 71.5,120.5 47.5,78.5 68.5,42.5 "
   style="fill:#ffffff;fill-rule:nonzero;stroke:#ffffff;stroke-width:0;stroke-linejoin:round"
   id="polygon2285" />
<polygon
   points="68.5,42.5 116.5,42.5 137.5,78.5 113.5,120.5 71.5,120.5 47.5,78.5 68.5,42.5 "
   style="stroke:#ffffff;stroke-width:6;stroke-linejoin:round"
   id="polygon2287" />
<path
   d="M 92.5,66.5 L 92.469,67.735 L 92.376,68.954 L 92.223,70.155 L 92.012,71.337 L 91.744,72.498 L 91.421,73.637 L 91.044,74.752 L 90.614,75.841 L 90.133,76.905 L 89.603,77.939 L 89.025,78.944 L 88.401,79.918 L 87.732,80.859 L 87.019,81.766 L 86.265,82.637 L 85.47,83.47 L 84.637,84.265 L 83.766,85.019 L 82.859,85.732 L 81.918,86.401 L 80.944,87.025 L 79.939,87.603 L 78.905,88.133 L 77.841,88.614 L 76.752,89.044 L 75.637,89.421 L 74.498,89.744 L 73.337,90.012 L 72.155,90.223 L 70.954,90.376 L 69.735,90.469 L 68.5,90.5 C 55.246,90.5 44.5,79.754 44.5,66.5 C 44.5,53.246 55.246,42.5 68.5,42.5 C 81.754,42.5 92.5,53.246 92.5,66.5 z "
   style="fill:#ffffff;fill-rule:nonzero;stroke:#ffffff;stroke-width:0;stroke-linecap:round;stroke-linejoin:round"
   id="path2289" />
<path
   d="M 92.5,66.5 L 92.469,67.735 L 92.376,68.954 L 92.223,70.155 L 92.012,71.337 L 91.744,72.498 L 91.421,73.637 L 91.044,74.752 L 90.614,75.841 L 90.133,76.905 L 89.603,77.939 L 89.025,78.944 L 88.401,79.918 L 87.732,80.859 L 87.019,81.766 L 86.265,82.637 L 85.47,83.47 L 84.637,84.265 L 83.766,85.019 L 82.859,85.732 L 81.918,86.401 L 80.944,87.025 L 79.939,87.603 L 78.905,88.133 L 77.841,88.614 L 76.752,89.044 L 75.637,89.421 L 74.498,89.744 L 73.337,90.012 L 72.155,90.223 L 70.954,90.376 L 69.735,90.469 L 68.5,90.5 C 55.246,90.5 44.5,79.754 44.5,66.5 C 44.5,53.246 55.246,42.5 68.5,42.5 C 81.754,42.5 92.5,53.246 92.5,66.5 z "
   style="stroke:#ffffff;stroke-width:6;stroke-linecap:round;stroke-linejoin:round"
   id="path2291" />
<path
   d="M 140.5,66.5 L 140.47,67.735 L 140.38,68.954 L 140.22,70.155 L 140.01,71.337 L 139.74,72.498 L 139.42,73.637 L 139.04,74.752 L 138.61,75.841 L 138.13,76.905 L 137.6,77.939 L 137.03,78.944 L 136.4,79.918 L 135.73,80.859 L 135.02,81.766 L 134.26,82.637 L 133.47,83.47 L 132.64,84.265 L 131.77,85.019 L 130.86,85.732 L 129.92,86.401 L 128.94,87.025 L 127.94,87.603 L 126.9,88.133 L 125.84,88.614 L 124.75,89.044 L 123.64,89.421 L 122.5,89.744 L 121.34,90.012 L 120.15,90.223 L 118.95,90.376 L 117.73,90.469 L 116.5,90.5 C 103.25,90.5 92.5,79.754 92.5,66.5 C 92.5,53.246 103.25,42.5 116.5,42.5 C 129.75,42.5 140.5,53.246 140.5,66.5 z "
   style="fill:#ffffff;fill-rule:nonzero;stroke:#ffffff;stroke-width:0;stroke-linecap:round;stroke-linejoin:round"
   id="path2293" />
<path
   d="M 140.5,66.5 L 140.47,67.735 L 140.38,68.954 L 140.22,70.155 L 140.01,71.337 L 139.74,72.498 L 139.42,73.637 L 139.04,74.752 L 138.61,75.841 L 138.13,76.905 L 137.6,77.939 L 137.03,78.944 L 136.4,79.918 L 135.73,80.859 L 135.02,81.766 L 134.26,82.637 L 133.47,83.47 L 132.64,84.265 L 131.77,85.019 L 130.86,85.732 L 129.92,86.401 L 128.94,87.025 L 127.94,87.603 L 126.9,88.133 L 125.84,88.614 L 124.75,89.044 L 123.64,89.421 L 122.5,89.744 L 121.34,90.012 L 120.15,90.223 L 118.95,90.376 L 117.73,90.469 L 116.5,90.5 C 103.25,90.5 92.5,79.754 92.5,66.5 C 92.5,53.246 103.25,42.5 116.5,42.5 C 129.75,42.5 140.5,53.246 140.5,66.5 z "
   style="stroke:#ffffff;stroke-width:6;stroke-linecap:round;stroke-linejoin:round"
   id="path2295" />
<path
   d="M 116.5,108.5 L 116.47,109.73 L 116.38,110.95 L 116.22,112.15 L 116.01,113.34 L 115.74,114.5 L 115.42,115.64 L 115.04,116.75 L 114.61,117.84 L 114.13,118.9 L 113.6,119.94 L 113.03,120.94 L 112.4,121.92 L 111.73,122.86 L 111.02,123.77 L 110.26,124.64 L 109.47,125.47 L 108.64,126.26 L 107.77,127.02 L 106.86,127.73 L 105.92,128.4 L 104.94,129.03 L 103.94,129.6 L 102.9,130.13 L 101.84,130.61 L 100.75,131.04 L 99.637,131.42 L 98.498,131.74 L 97.337,132.01 L 96.155,132.22 L 94.954,132.38 L 93.735,132.47 L 92.5,132.5 C 79.246,132.5 68.5,121.75 68.5,108.5 C 68.5,95.246 79.246,84.5 92.5,84.5 C 105.75,84.5 116.5,95.246 116.5,108.5 z "
   style="fill:#ffffff;fill-rule:nonzero;stroke:#ffffff;stroke-width:0;stroke-linecap:round;stroke-linejoin:round"
   id="path2297" />
<path
   d="M 116.5,108.5 L 116.47,109.73 L 116.38,110.95 L 116.22,112.15 L 116.01,113.34 L 115.74,114.5 L 115.42,115.64 L 115.04,116.75 L 114.61,117.84 L 114.13,118.9 L 113.6,119.94 L 113.03,120.94 L 112.4,121.92 L 111.73,122.86 L 111.02,123.77 L 110.26,124.64 L 109.47,125.47 L 108.64,126.26 L 107.77,127.02 L 106.86,127.73 L 105.92,128.4 L 104.94,129.03 L 103.94,129.6 L 102.9,130.13 L 101.84,130.61 L 100.75,131.04 L 99.637,131.42 L 98.498,131.74 L 97.337,132.01 L 96.155,132.22 L 94.954,132.38 L 93.735,132.47 L 92.5,132.5 C 79.246,132.5 68.5,121.75 68.5,108.5 C 68.5,95.246 79.246,84.5 92.5,84.5 C 105.75,84.5 116.5,95.246 116.5,108.5 z "
   style="stroke:#ffffff;stroke-width:6;stroke-linecap:round;stroke-linejoin:round"
   id="path2299" />
<line
   x1="92.5"
   y1="80.5"
   x2="92.5"
   y2="160.5"
   style="stroke:#ffffff;stroke-width:16;stroke-linecap:round"
   id="line2301" />
<line
   x1="92.5"
   y1="80.5"
   x2="23.5"
   y2="120.5"
   style="stroke:#ffffff;stroke-width:16;stroke-linecap:round"
   id="line2303" />
<line
   x1="92.5"
   y1="80.5"
   x2="23.5"
   y2="40.5"
   style="stroke:#ffffff;stroke-width:16;stroke-linecap:round"
   id="line2305" />
<line
   x1="92.5"
   y1="80.5"
   x2="92.5"
   y2="0.5"
   style="stroke:#ffffff;stroke-width:16;stroke-linecap:round"
   id="line2307" />
<line
   x1="92.5"
   y1="80.5"
   x2="161.5"
   y2="40.5"
   style="stroke:#ffffff;stroke-width:16;stroke-linecap:round"
   id="line2309" />
<line
   x1="92.5"
   y1="80.5"
   x2="161.5"
   y2="120.5"
   style="stroke:#ffffff;stroke-width:16;stroke-linecap:round"
   id="line2311" />
<line
   x1="92.5"
   y1="80.5"
   x2="92.5"
   y2="160.5"
   style="stroke-width:12;stroke-linecap:round"
   id="line2313" />
<line
   x1="92.5"
   y1="80.5"
   x2="23.5"
   y2="120.5"
   style="stroke-width:12;stroke-linecap:round"
   id="line2315" />
<line
   x1="92.5"
   y1="80.5"
   x2="23.5"
   y2="40.5"
   style="stroke-width:12;stroke-linecap:round"
   id="line2317" />
<line
   x1="92.5"
   y1="80.5"
   x2="92.5"
   y2="0.5"
   style="stroke-width:12;stroke-linecap:round"
   id="line2319" />
<line
   x1="92.5"
   y1="80.5"
   x2="161.5"
   y2="40.5"
   style="stroke-width:12;stroke-linecap:round"
   id="line2321" />
<line
   x1="92.5"
   y1="80.5"
   x2="161.5"
   y2="120.5"
   style="stroke-width:12;stroke-linecap:round"
   id="line2323" />
<polygon
   points="68.5,42.5 116.5,42.5 137.5,78.5 113.5,120.5 71.5,120.5 47.5,78.5 68.5,42.5 "
   style="fill:#ffffff;fill-rule:nonzero;stroke:#ffffff;stroke-width:0;stroke-linejoin:round"
   id="polygon2325" />
<polygon
   points="68.5,42.5 116.5,42.5 137.5,78.5 113.5,120.5 71.5,120.5 47.5,78.5 68.5,42.5 "
   style="stroke-width:2;stroke-linejoin:round"
   id="polygon2327" />
<path
   d="M 92.5,66.5 L 92.469,67.735 L 92.376,68.954 L 92.223,70.155 L 92.012,71.337 L 91.744,72.498 L 91.421,73.637 L 91.044,74.752 L 90.614,75.841 L 90.133,76.905 L 89.603,77.939 L 89.025,78.944 L 88.401,79.918 L 87.732,80.859 L 87.019,81.766 L 86.265,82.637 L 85.47,83.47 L 84.637,84.265 L 83.766,85.019 L 82.859,85.732 L 81.918,86.401 L 80.944,87.025 L 79.939,87.603 L 78.905,88.133 L 77.841,88.614 L 76.752,89.044 L 75.637,89.421 L 74.498,89.744 L 73.337,90.012 L 72.155,90.223 L 70.954,90.376 L 69.735,90.469 L 68.5,90.5 C 55.246,90.5 44.5,79.754 44.5,66.5 C 44.5,53.246 55.246,42.5 68.5,42.5 C 81.754,42.5 92.5,53.246 92.5,66.5 z "
   style="fill:#ffffff;fill-rule:nonzero;stroke:#ffffff;stroke-width:0;stroke-linecap:round;stroke-linejoin:round"
   id="path2329" />
<path
   d="M 92.5,66.5 L 92.469,67.735 L 92.376,68.954 L 92.223,70.155 L 92.012,71.337 L 91.744,72.498 L 91.421,73.637 L 91.044,74.752 L 90.614,75.841 L 90.133,76.905 L 89.603,77.939 L 89.025,78.944 L 88.401,79.918 L 87.732,80.859 L 87.019,81.766 L 86.265,82.637 L 85.47,83.47 L 84.637,84.265 L 83.766,85.019 L 82.859,85.732 L 81.918,86.401 L 80.944,87.025 L 79.939,87.603 L 78.905,88.133 L 77.841,88.614 L 76.752,89.044 L 75.637,89.421 L 74.498,89.744 L 73.337,90.012 L 72.155,90.223 L 70.954,90.376 L 69.735,90.469 L 68.5,90.5 C 55.246,90.5 44.5,79.754 44.5,66.5 C 44.5,53.246 55.246,42.5 68.5,42.5 C 81.754,42.5 92.5,53.246 92.5,66.5 z "
   style="stroke-width:2;stroke-linecap:round;stroke-linejoin:round"
   id="path2331" />
<path
   d="M 140.5,66.5 L 140.47,67.735 L 140.38,68.954 L 140.22,70.155 L 140.01,71.337 L 139.74,72.498 L 139.42,73.637 L 139.04,74.752 L 138.61,75.841 L 138.13,76.905 L 137.6,77.939 L 137.03,78.944 L 136.4,79.918 L 135.73,80.859 L 135.02,81.766 L 134.26,82.637 L 133.47,83.47 L 132.64,84.265 L 131.77,85.019 L 130.86,85.732 L 129.92,86.401 L 128.94,87.025 L 127.94,87.603 L 126.9,88.133 L 125.84,88.614 L 124.75,89.044 L 123.64,89.421 L 122.5,89.744 L 121.34,90.012 L 120.15,90.223 L 118.95,90.376 L 117.73,90.469 L 116.5,90.5 C 103.25,90.5 92.5,79.754 92.5,66.5 C 92.5,53.246 103.25,42.5 116.5,42.5 C 129.75,42.5 140.5,53.246 140.5,66.5 z "
   style="fill:#ffffff;fill-rule:nonzero;stroke:#ffffff;stroke-width:0;stroke-linecap:round;stroke-linejoin:round"
   id="path2333" />
<path
   d="M 140.5,66.5 L 140.47,67.735 L 140.38,68.954 L 140.22,70.155 L 140.01,71.337 L 139.74,72.498 L 139.42,73.637 L 139.04,74.752 L 138.61,75.841 L 138.13,76.905 L 137.6,77.939 L 137.03,78.944 L 136.4,79.918 L 135.73,80.859 L 135.02,81.766 L 134.26,82.637 L 133.47,83.47 L 132.64,84.265 L 131.77,85.019 L 130.86,85.732 L 129.92,86.401 L 128.94,87.025 L 127.94,87.603 L 126.9,88.133 L 125.84,88.614 L 124.75,89.044 L 123.64,89.421 L 122.5,89.744 L 121.34,90.012 L 120.15,90.223 L 118.95,90.376 L 117.73,90.469 L 116.5,90.5 C 103.25,90.5 92.5,79.754 92.5,66.5 C 92.5,53.246 103.25,42.5 116.5,42.5 C 129.75,42.5 140.5,53.246 140.5,66.5 z "
   style="stroke-width:2;stroke-linecap:round;stroke-linejoin:round"
   id="path2335" />
<path
   d="M 116.5,108.5 L 116.47,109.73 L 116.38,110.95 L 116.22,112.15 L 116.01,113.34 L 115.74,114.5 L 115.42,115.64 L 115.04,116.75 L 114.61,117.84 L 114.13,118.9 L 113.6,119.94 L 113.03,120.94 L 112.4,121.92 L 111.73,122.86 L 111.02,123.77 L 110.26,124.64 L 109.47,125.47 L 108.64,126.26 L 107.77,127.02 L 106.86,127.73 L 105.92,128.4 L 104.94,129.03 L 103.94,129.6 L 102.9,130.13 L 101.84,130.61 L 100.75,131.04 L 99.637,131.42 L 98.498,131.74 L 97.337,132.01 L 96.155,132.22 L 94.954,132.38 L 93.735,132.47 L 92.5,132.5 C 79.246,132.5 68.5,121.75 68.5,108.5 C 68.5,95.246 79.246,84.5 92.5,84.5 C 105.75,84.5 116.5,95.246 116.5,108.5 z "
   style="fill:#ffffff;fill-rule:nonzero;stroke:#ffffff;stroke-width:0;stroke-linecap:round;stroke-linejoin:round"
   id="path2337" />
<path
   d="M 116.5,108.5 L 116.47,109.73 L 116.38,110.95 L 116.22,112.15 L 116.01,113.34 L 115.74,114.5 L 115.42,115.64 L 115.04,116.75 L 114.61,117.84 L 114.13,118.9 L 113.6,119.94 L 113.03,120.94 L 112.4,121.92 L 111.73,122.86 L 111.02,123.77 L 110.26,124.64 L 109.47,125.47 L 108.64,126.26 L 107.77,127.02 L 106.86,127.73 L 105.92,128.4 L 104.94,129.03 L 103.94,129.6 L 102.9,130.13 L 101.84,130.61 L 100.75,131.04 L 99.637,131.42 L 98.498,131.74 L 97.337,132.01 L 96.155,132.22 L 94.954,132.38 L 93.735,132.47 L 92.5,132.5 C 79.246,132.5 68.5,121.75 68.5,108.5 C 68.5,95.246 79.246,84.5 92.5,84.5 C 105.75,84.5 116.5,95.246 116.5,108.5 z "
   style="stroke-width:2;stroke-linecap:round;stroke-linejoin:round"
   id="path2339" />
<path
   d="M 66.992,140.5 L 66.981,140.72 L 66.948,140.93 L 66.894,141.14 L 66.82,141.35 L 66.725,141.56 L 66.61,141.76 L 66.477,141.95 L 66.324,142.15 L 66.154,142.33 L 65.967,142.52 L 65.762,142.69 L 65.541,142.87 L 65.304,143.03 L 65.052,143.19 L 64.785,143.35 L 64.504,143.49 L 64.209,143.63 L 63.901,143.77 L 63.58,143.89 L 63.247,144.01 L 62.902,144.12 L 62.547,144.22 L 62.181,144.32 L 61.804,144.4 L 61.419,144.48 L 61.024,144.54 L 60.621,144.6 L 60.211,144.65 L 59.793,144.69 L 59.368,144.71 L 58.937,144.73 L 58.5,144.73 C 53.812,144.73 50.008,142.84 50.008,140.5 C 50.008,138.16 53.812,136.27 58.5,136.27 C 63.188,136.27 66.992,138.16 66.992,140.5 z "
   style="fill:#ffffff;fill-rule:nonzero;stroke:#ffffff;stroke-width:0;stroke-linecap:round;stroke-linejoin:round"
   id="path2341" />
<path
   d="M 66.992,140.5 L 66.981,140.72 L 66.948,140.93 L 66.894,141.14 L 66.82,141.35 L 66.725,141.56 L 66.61,141.76 L 66.477,141.95 L 66.324,142.15 L 66.154,142.33 L 65.967,142.52 L 65.762,142.69 L 65.541,142.87 L 65.304,143.03 L 65.052,143.19 L 64.785,143.35 L 64.504,143.49 L 64.209,143.63 L 63.901,143.77 L 63.58,143.89 L 63.247,144.01 L 62.902,144.12 L 62.547,144.22 L 62.181,144.32 L 61.804,144.4 L 61.419,144.48 L 61.024,144.54 L 60.621,144.6 L 60.211,144.65 L 59.793,144.69 L 59.368,144.71 L 58.937,144.73 L 58.5,144.73 C 53.812,144.73 50.008,142.84 50.008,140.5 C 50.008,138.16 53.812,136.27 58.5,136.27 C 63.188,136.27 66.992,138.16 66.992,140.5 z "
   style="stroke-width:0.84906;stroke-linecap:round;stroke-linejoin:round"
   id="path2343" />
<path
   d="M 57.543,143.79 L 56.895,143.79 C 56.824,143.62 56.777,143.55 56.68,143.5 C 56.535,143.46 56.52,143.46 55.566,143.45 L 53.625,143.45 L 53.625,140.45 C 54.098,140.32 54.113,140.32 54.258,140.27 C 54.488,140.71 54.945,141.02 55.367,141.02 C 55.938,141.02 56.359,140.5 56.359,139.82 C 56.359,139.1 55.922,138.59 55.289,138.59 C 54.977,138.59 54.742,138.71 54.742,138.88 C 54.742,138.91 54.742,138.95 54.754,138.98 C 54.785,139.15 54.785,139.15 54.785,139.21 C 54.785,139.59 54.473,139.89 54.055,139.89 C 53.641,139.89 53.352,139.59 53.352,139.16 C 53.352,138.41 54.23,137.9 55.473,137.9 C 56.984,137.9 57.984,138.7 57.984,139.93 C 57.984,141.03 57.121,141.8 55.887,141.8 C 55.312,141.8 54.809,141.66 54.406,141.38 L 54.406,142.33 L 57.312,142.33 L 57.543,143.79 z "
   style="fill:#000000;stroke-width:0;stroke-linecap:round;stroke-linejoin:round"
   id="path2345" />
<path
   d="M 60.711,143.55 L 60.644,143.55 L 60.578,143.55 L 60.513,143.54 L 60.447,143.54 L 60.382,143.53 L 60.318,143.52 L 60.254,143.51 L 60.191,143.5 L 60.128,143.49 L 60.066,143.47 L 60.005,143.46 L 59.945,143.44 L 59.885,143.42 L 59.826,143.4 L 59.767,143.38 L 59.71,143.36 L 59.653,143.33 L 59.598,143.31 L 59.543,143.28 L 59.49,143.25 L 59.437,143.22 L 59.386,143.19 L 59.335,143.15 L 59.286,143.12 L 59.238,143.09 L 59.191,143.05 L 59.146,143.01 L 59.101,142.97 L 59.058,142.93 L 59.017,142.89 L 58.976,142.85 L 58.938,142.8 C 58.504,142.3 58.238,141.51 58.238,140.69 C 58.238,138.97 59.176,137.9 60.672,137.9 C 62.16,137.9 63.113,139 63.113,140.74 C 63.113,142.44 62.16,143.55 60.711,143.55 z "
   style="fill:#000000;stroke-width:0;stroke-linecap:round;stroke-linejoin:round"
   id="path2347" />
<path
   d="M 60.672,142.82 L 60.728,142.81 L 60.783,142.81 L 60.836,142.8 L 60.887,142.78 L 60.937,142.76 L 60.985,142.74 L 61.032,142.71 L 61.077,142.68 L 61.12,142.64 L 61.161,142.6 L 61.201,142.55 L 61.239,142.5 L 61.275,142.45 L 61.309,142.39 L 61.342,142.33 L 61.373,142.27 L 61.402,142.2 L 61.43,142.13 L 61.455,142.05 L 61.479,141.97 L 61.501,141.89 L 61.521,141.8 L 61.539,141.71 L 61.555,141.61 L 61.57,141.51 L 61.582,141.41 L 61.593,141.3 L 61.602,141.19 L 61.608,141.08 L 61.613,140.96 L 61.616,140.84 L 61.617,140.72 C 61.617,139.38 61.281,138.63 60.672,138.63 C 60.062,138.63 59.734,139.38 59.734,140.75 C 59.734,142.06 60.078,142.82 60.672,142.82 z "
   style="fill:#000000;stroke-width:0;stroke-linecap:round;stroke-linejoin:round"
   id="path2349" />
<path
   d="M 26.062,86.664 L 26.062,78.762 C 26.062,77.352 25.344,76.68 23.84,76.68 C 22.336,76.68 21.617,77.352 21.617,78.762 L 21.617,86.664 L 19.215,86.664 L 19.215,78.762 C 19.215,77.449 19.566,76.52 20.352,75.816 C 21.199,75.047 22.434,74.633 23.84,74.633 C 25.246,74.633 26.48,75.047 27.328,75.816 C 28.113,76.52 28.465,77.449 28.465,78.762 L 28.465,86.664 L 26.062,86.664 z "
   style="fill:#000000;stroke-width:0;stroke-linecap:round;stroke-linejoin:round"
   id="path2351" />
<polygon
   points="46.5,160.5 138.5,160.5 184.5,80.5 138.5,0.5 46.5,0.5 0.5,80.5 46.5,160.5 "
   style="stroke-width:1;stroke-linejoin:round"
   id="polygon2353" />
</g></svg>
