<?xml version="1.0" encoding="UTF-8" standalone="no"?>
<svg
   xmlns:dc="http://purl.org/dc/elements/1.1/"
   xmlns:cc="http://web.resource.org/cc/"
   xmlns:rdf="http://www.w3.org/1999/02/22-rdf-syntax-ns#"
   xmlns:svg="http://www.w3.org/2000/svg"
   xmlns="http://www.w3.org/2000/svg"
   xmlns:sodipodi="http://sodipodi.sourceforge.net/DTD/sodipodi-0.dtd"
   xmlns:inkscape="http://www.inkscape.org/namespaces/inkscape"
   width="100"
   height="100"
   viewBox="0 0 1 1"
   preserveAspectRatio="none"
   id="svg2"
   sodipodi:version="0.32"
   inkscape:version="0.45.1"
   sodipodi:docname="tile-39.svg"
   sodipodi:docbase="C:\Documents and Settings\Brett\workspace\18xx\tiles\svg"
   version="1.0"
   inkscape:output_extension="org.inkscape.output.svg.inkscape">
  <metadata
     id="metadata39">
    <rdf:RDF>
      <cc:Work
         rdf:about="">
        <dc:format>image/svg+xml</dc:format>
        <dc:type
           rdf:resource="http://purl.org/dc/dcmitype/StillImage" />
      </cc:Work>
    </rdf:RDF>
  </metadata>
  <defs
     id="defs37" />
  <sodipodi:namedview
     inkscape:window-height="579"
     inkscape:window-width="749"
     inkscape:pageshadow="2"
     inkscape:pageopacity="0.0"
     borderopacity="1.0"
     bordercolor="#666666"
     pagecolor="#ffffff"
     id="base"
     inkscape:zoom="2.2238764"
     inkscape:cx="64.933687"
     inkscape:cy="-4.1480359"
     inkscape:window-x="176"
     inkscape:window-y="176"
     inkscape:current-layer="svg2" />
  <title
     id="title4">SVG drawing</title>
  <desc
     id="desc6">This was produced by version 4.1 of GNU libplot, a free library for exporting 2-D vector graphics.</desc>
  <g
     transform="matrix(5.4170735e-3,0,0,-6.1418891e-3,-1.0793184e-3,0.9993044)"
     xml:space="preserve"
     style="font-style:normal;font-variant:normal;font-weight:normal;font-stretch:normal;letter-spacing:normal;word-spacing:normal;text-anchor:start;fill:none;fill-opacity:1;stroke:#000000;stroke-linecap:butt;stroke-linejoin:miter;stroke-miterlimit:10.43299961;stroke-dasharray:none;stroke-dashoffset:0;stroke-opacity:1"
     id="g10">
<polygon
   points="46.5,160.5 138.5,160.5 184.5,80.5 138.5,0.5 46.5,0.5 0.5,80.5 46.5,160.5 "
   style="fill:#c0c0c0;fill-rule:nonzero;stroke:#c0c0c0;stroke-width:0;stroke-linejoin:round"
   id="polygon12" />
<polygon
   points="110.37,9.9219 112.27,9.9219 112.27,10.496 110.37,10.496 110.37,9.9219 "
   style="fill:#000000;stroke-width:0;stroke-linejoin:round"
   id="polygon14" />
<path
   d="M 113.77,10.602 L 113.86,10.602 L 114.15,10.609 C 114.93,10.609 115.33,10.258 115.33,9.5742 C 115.33,8.8633 114.89,8.4414 114.15,8.4414 C 113.38,8.4414 113.01,8.8242 112.96,9.6484 L 112.26,9.6484 C 112.29,9.1914 112.37,8.8945 112.5,8.6406 C 112.79,8.0977 113.35,7.8164 114.13,7.8164 C 115.3,7.8164 116.05,8.5117 116.05,9.5859 C 116.05,10.305 115.77,10.703 115.09,10.938 C 115.62,11.144 115.88,11.543 115.88,12.113 C 115.88,13.09 115.23,13.672 114.15,13.672 C 113.01,13.672 112.4,13.047 112.38,11.84 L 113.08,11.84 C 113.09,12.184 113.12,12.375 113.21,12.551 C 113.37,12.863 113.72,13.055 114.16,13.055 C 114.79,13.055 115.16,12.688 115.16,12.09 C 115.16,11.688 115.02,11.449 114.7,11.32 C 114.51,11.238 114.27,11.207 113.77,11.199 L 113.77,10.602 z "
   style="fill:#000000;stroke-width:0;stroke-linecap:round;stroke-linejoin:round"
   id="path16" />
<path
   d="M 117.43,9.2969 L 117.44,9.2108 L 117.46,9.127 L 117.48,9.0455 L 117.5,8.9663 L 117.52,8.8895 L 117.55,8.815 L 117.58,8.743 L 117.61,8.6733 L 117.65,8.6062 L 117.68,8.5415 L 117.72,8.4794 L 117.76,8.4199 L 117.81,8.3629 L 117.86,8.3086 L 117.9,8.257 L 117.95,8.208 L 118.01,8.1618 L 118.06,8.1183 L 118.12,8.0776 L 118.18,8.0397 L 118.24,8.0047 L 118.3,7.9725 L 118.37,7.9433 L 118.43,7.917 L 118.5,7.8937 L 118.57,7.8734 L 118.65,7.8561 L 118.72,7.8419 L 118.8,7.8308 L 118.87,7.8228 L 118.95,7.818 L 119.03,7.8164 C 119.66,7.8164 120.22,8.1211 120.55,8.625 C 120.91,9.1758 121.07,9.8711 121.07,10.902 C 121.07,11.856 120.93,12.465 120.59,12.969 C 120.28,13.426 119.79,13.672 119.16,13.672 C 118.08,13.672 117.31,12.871 117.31,11.762 C 117.31,10.703 118.02,9.9609 119.05,9.9609 C 119.59,9.9609 119.98,10.152 120.34,10.594 C 120.34,9.207 119.89,8.4414 119.08,8.4414 C 118.59,8.4414 118.24,8.7539 118.13,9.2969 L 117.43,9.2969 z "
   style="fill:#000000;stroke-width:0;stroke-linecap:round;stroke-linejoin:round"
   id="path18" />
<path
   d="M 119.15,13.055 L 119.21,13.053 L 119.27,13.048 L 119.33,13.041 L 119.39,13.03 L 119.45,13.016 L 119.5,13 L 119.56,12.98 L 119.61,12.958 L 119.66,12.934 L 119.71,12.906 L 119.76,12.876 L 119.81,12.844 L 119.85,12.809 L 119.89,12.772 L 119.94,12.733 L 119.97,12.691 L 120.01,12.648 L 120.05,12.602 L 120.08,12.554 L 120.11,12.504 L 120.14,12.453 L 120.17,12.399 L 120.19,12.344 L 120.22,12.287 L 120.24,12.228 L 120.25,12.168 L 120.27,12.106 L 120.28,12.043 L 120.29,11.979 L 120.3,11.913 L 120.3,11.846 L 120.31,11.777 C 120.31,11.078 119.82,10.586 119.13,10.586 C 118.45,10.586 118.02,11.055 118.02,11.816 C 118.02,12.535 118.5,13.055 119.15,13.055 z "
   style="fill:#000000;stroke-width:0;stroke-linecap:round;stroke-linejoin:round"
   id="path20" />
<path
   d="M 161.5,120.5 L 161.71,120.13 C 118.9,95.516 92.5,49.887 92.5,0.5"
   style="stroke:#ffffff;stroke-width:16;stroke-linecap:round;stroke-linejoin:round"
   id="path22" />
<path
   d="M 161.5,120.5 L 161.57,120.38 C 147.3,112.18 138.5,96.961 138.5,80.5 C 138.5,64.039 147.3,48.828 161.57,40.625"
   style="stroke:#ffffff;stroke-width:16;stroke-linecap:round;stroke-linejoin:round"
   id="path24" />
<path
   d="M 161.5,40.5 L 161.43,40.375 C 154.46,44.387 146.55,46.5 138.5,46.5 C 113.1,46.5 92.5,25.902 92.5,0.5"
   style="stroke:#ffffff;stroke-width:16;stroke-linecap:round;stroke-linejoin:round"
   id="path26" />
<path
   d="M 161.5,120.5 L 161.71,120.13 C 118.9,95.516 92.5,49.887 92.5,0.5"
   style="stroke-width:12;stroke-linecap:round;stroke-linejoin:round"
   id="path28" />
<path
   d="M 161.5,120.5 L 161.57,120.38 C 147.3,112.18 138.5,96.961 138.5,80.5 C 138.5,64.039 147.3,48.828 161.57,40.625"
   style="stroke-width:12;stroke-linecap:round;stroke-linejoin:round"
   id="path30" />
<path
   d="M 161.5,40.5 L 161.43,40.375 C 154.46,44.387 146.55,46.5 138.5,46.5 C 113.1,46.5 92.5,25.902 92.5,0.5"
   style="stroke-width:12;stroke-linecap:round;stroke-linejoin:round"
   id="path32" />
<polygon
   points="46.5,160.5 138.5,160.5 184.5,80.5 138.5,0.5 46.5,0.5 0.5,80.5 46.5,160.5 "
   style="stroke-width:1;stroke-linejoin:round"
   id="polygon34" />
</g></svg>
