<?xml version="1.0" encoding="UTF-8" standalone="no"?>
<svg
   xmlns:dc="http://purl.org/dc/elements/1.1/"
   xmlns:cc="http://web.resource.org/cc/"
   xmlns:rdf="http://www.w3.org/1999/02/22-rdf-syntax-ns#"
   xmlns:svg="http://www.w3.org/2000/svg"
   xmlns="http://www.w3.org/2000/svg"
   xmlns:sodipodi="http://inkscape.sourceforge.net/DTD/sodipodi-0.dtd"
   xmlns:inkscape="http://www.inkscape.org/namespaces/inkscape"
   width="100"
   height="100"
   viewBox="0 0 1 1"
   preserveAspectRatio="none"
   id="svg7166"
   sodipodi:version="0.32"
   inkscape:version="0.43"
   sodipodi:docname="tile301.svg"
   sodipodi:docbase="C:\Documents and Settings\lentz\Desktop\TileDesigner"
   version="1.0">
  <metadata
     id="metadata7245">
    <rdf:RDF>
      <cc:Work
         rdf:about="">
        <dc:format>image/svg+xml</dc:format>
        <dc:type
           rdf:resource="http://purl.org/dc/dcmitype/StillImage" />
      </cc:Work>
    </rdf:RDF>
  </metadata>
  <defs
     id="defs7243" />
  <sodipodi:namedview
     inkscape:window-height="540"
     inkscape:window-width="749"
     inkscape:pageshadow="2"
     inkscape:pageopacity="0.0"
     borderopacity="1.0"
     bordercolor="#666666"
     pagecolor="#ffffff"
     id="base"
     inkscape:zoom="0.52361111"
     inkscape:cx="360"
     inkscape:cy="360"
     inkscape:window-x="198"
     inkscape:window-y="198"
     inkscape:current-layer="svg7166" />
  <title
     id="title7168">SVG drawing</title>
  <desc
     id="desc7170">This was produced by version 4.1 of GNU libplot, a free library for exporting 2-D vector graphics.</desc>
  <rect
     x="0"
     y="0"
     width="1"
     height="1"
     style="fill:#ffffff;stroke:none"
     id="rect7172" />
  <g
     transform="matrix(5.418114e-3,0,0,-5.739835e-3,-1.175565e-3,1.000747)"
     xml:space="preserve"
     style="font-style:normal;font-variant:normal;font-weight:normal;font-stretch:normal;letter-spacing:normal;word-spacing:normal;text-anchor:start;fill:none;fill-opacity:1;stroke:#000000;stroke-linecap:butt;stroke-linejoin:miter;stroke-miterlimit:10.43299961;stroke-dasharray:none;stroke-dashoffset:0;stroke-opacity:1"
     id="g7174">
<polygon
   points="46.5,160.5 138.5,160.5 184.5,80.5 138.5,0.5 46.5,0.5 0.5,80.5 46.5,160.5 "
   style="fill:#ffff00;fill-rule:nonzero;stroke:#ffff00;stroke-width:0;stroke-linejoin:round"
   id="polygon7176" />
<text
   transform="matrix(1,0,0,-1,109.86,7.9141)"
   style="font-size:8px;fill:#000000;stroke:none;font-family:&quot;Helvetica&quot;, sans-serif"
   id="text7178">301</text>

<path
   d="M 139.5,120.5 L 139.47,121.73 L 139.38,122.95 L 139.22,124.15 L 139.01,125.34 L 138.74,126.5 L 138.42,127.64 L 138.04,128.75 L 137.61,129.84 L 137.13,130.9 L 136.6,131.94 L 136.03,132.94 L 135.4,133.92 L 134.73,134.86 L 134.02,135.77 L 133.26,136.64 L 132.47,137.47 L 131.64,138.26 L 130.77,139.02 L 129.86,139.73 L 128.92,140.4 L 127.94,141.03 L 126.94,141.6 L 125.9,142.13 L 124.84,142.61 L 123.75,143.04 L 122.64,143.42 L 121.5,143.74 L 120.34,144.01 L 119.15,144.22 L 117.95,144.38 L 116.73,144.47 L 115.5,144.5 C 102.25,144.5 91.5,133.75 91.5,120.5 C 91.5,107.25 102.25,96.5 115.5,96.5 C 128.75,96.5 139.5,107.25 139.5,120.5 z "
   style="fill:#ffffff;fill-rule:nonzero;stroke:#ffffff;stroke-width:0;stroke-linecap:round;stroke-linejoin:round"
   id="path7180" />
<path
   d="M 139.5,120.5 L 139.47,121.73 L 139.38,122.95 L 139.22,124.15 L 139.01,125.34 L 138.74,126.5 L 138.42,127.64 L 138.04,128.75 L 137.61,129.84 L 137.13,130.9 L 136.6,131.94 L 136.03,132.94 L 135.4,133.92 L 134.73,134.86 L 134.02,135.77 L 133.26,136.64 L 132.47,137.47 L 131.64,138.26 L 130.77,139.02 L 129.86,139.73 L 128.92,140.4 L 127.94,141.03 L 126.94,141.6 L 125.9,142.13 L 124.84,142.61 L 123.75,143.04 L 122.64,143.42 L 121.5,143.74 L 120.34,144.01 L 119.15,144.22 L 117.95,144.38 L 116.73,144.47 L 115.5,144.5 C 102.25,144.5 91.5,133.75 91.5,120.5 C 91.5,107.25 102.25,96.5 115.5,96.5 C 128.75,96.5 139.5,107.25 139.5,120.5 z "
   style="stroke:#ffffff;stroke-width:6;stroke-linecap:round;stroke-linejoin:round"
   id="path7182" />
<path
   d="M 139.5,40.5 L 139.47,41.735 L 139.38,42.954 L 139.22,44.155 L 139.01,45.337 L 138.74,46.498 L 138.42,47.637 L 138.04,48.752 L 137.61,49.841 L 137.13,50.905 L 136.6,51.939 L 136.03,52.944 L 135.4,53.918 L 134.73,54.859 L 134.02,55.766 L 133.26,56.637 L 132.47,57.47 L 131.64,58.265 L 130.77,59.019 L 129.86,59.732 L 128.92,60.401 L 127.94,61.025 L 126.94,61.603 L 125.9,62.133 L 124.84,62.614 L 123.75,63.044 L 122.64,63.421 L 121.5,63.744 L 120.34,64.012 L 119.15,64.223 L 117.95,64.376 L 116.73,64.469 L 115.5,64.5 C 102.25,64.5 91.5,53.754 91.5,40.5 C 91.5,27.246 102.25,16.5 115.5,16.5 C 128.75,16.5 139.5,27.246 139.5,40.5 z "
   style="fill:#ffffff;fill-rule:nonzero;stroke:#ffffff;stroke-width:0;stroke-linecap:round;stroke-linejoin:round"
   id="path7184" />
<path
   d="M 139.5,40.5 L 139.47,41.735 L 139.38,42.954 L 139.22,44.155 L 139.01,45.337 L 138.74,46.498 L 138.42,47.637 L 138.04,48.752 L 137.61,49.841 L 137.13,50.905 L 136.6,51.939 L 136.03,52.944 L 135.4,53.918 L 134.73,54.859 L 134.02,55.766 L 133.26,56.637 L 132.47,57.47 L 131.64,58.265 L 130.77,59.019 L 129.86,59.732 L 128.92,60.401 L 127.94,61.025 L 126.94,61.603 L 125.9,62.133 L 124.84,62.614 L 123.75,63.044 L 122.64,63.421 L 121.5,63.744 L 120.34,64.012 L 119.15,64.223 L 117.95,64.376 L 116.73,64.469 L 115.5,64.5 C 102.25,64.5 91.5,53.754 91.5,40.5 C 91.5,27.246 102.25,16.5 115.5,16.5 C 128.75,16.5 139.5,27.246 139.5,40.5 z "
   style="stroke:#ffffff;stroke-width:6;stroke-linecap:round;stroke-linejoin:round"
   id="path7186" />
<path
   d="M 70.5,80.5 L 70.469,81.735 L 70.376,82.954 L 70.223,84.155 L 70.012,85.337 L 69.744,86.498 L 69.421,87.637 L 69.044,88.752 L 68.614,89.841 L 68.133,90.905 L 67.603,91.939 L 67.025,92.944 L 66.401,93.918 L 65.732,94.859 L 65.019,95.766 L 64.265,96.637 L 63.47,97.47 L 62.637,98.265 L 61.766,99.019 L 60.859,99.732 L 59.918,100.4 L 58.944,101.03 L 57.939,101.6 L 56.905,102.13 L 55.841,102.61 L 54.752,103.04 L 53.637,103.42 L 52.498,103.74 L 51.337,104.01 L 50.155,104.22 L 48.954,104.38 L 47.735,104.47 L 46.5,104.5 C 33.246,104.5 22.5,93.754 22.5,80.5 C 22.5,67.246 33.246,56.5 46.5,56.5 C 59.754,56.5 70.5,67.246 70.5,80.5 z "
   style="fill:#ffffff;fill-rule:nonzero;stroke:#ffffff;stroke-width:0;stroke-linecap:round;stroke-linejoin:round"
   id="path7188" />
<path
   d="M 70.5,80.5 L 70.469,81.735 L 70.376,82.954 L 70.223,84.155 L 70.012,85.337 L 69.744,86.498 L 69.421,87.637 L 69.044,88.752 L 68.614,89.841 L 68.133,90.905 L 67.603,91.939 L 67.025,92.944 L 66.401,93.918 L 65.732,94.859 L 65.019,95.766 L 64.265,96.637 L 63.47,97.47 L 62.637,98.265 L 61.766,99.019 L 60.859,99.732 L 59.918,100.4 L 58.944,101.03 L 57.939,101.6 L 56.905,102.13 L 55.841,102.61 L 54.752,103.04 L 53.637,103.42 L 52.498,103.74 L 51.337,104.01 L 50.155,104.22 L 48.954,104.38 L 47.735,104.47 L 46.5,104.5 C 33.246,104.5 22.5,93.754 22.5,80.5 C 22.5,67.246 33.246,56.5 46.5,56.5 C 59.754,56.5 70.5,67.246 70.5,80.5 z "
   style="stroke:#ffffff;stroke-width:6;stroke-linecap:round;stroke-linejoin:round"
   id="path7190" />
<path
   d="M 92.5,160.5 L 92.5,160.5 C 92.5,144.04 101.3,128.83 115.57,120.62"
   style="stroke:#ffffff;stroke-width:16;stroke-linecap:round;stroke-linejoin:round"
   id="path7192" />
<path
   d="M 161.5,40.5 L 161.43,40.375 C 154.46,44.387 146.55,46.5 138.5,46.5 C 130.46,46.5 122.55,44.387 115.57,40.379"
   style="stroke:#ffffff;stroke-width:16;stroke-linecap:round;stroke-linejoin:round"
   id="path7194" />
<path
   d="M 23.5,40.5 L 23.434,40.625 C 37.703,48.828 46.5,64.039 46.5,80.5"
   style="stroke:#ffffff;stroke-width:16;stroke-linecap:round;stroke-linejoin:round"
   id="path7196" />
<path
   d="M 46.5,80.5 L 46.5,80.5 C 46.5,96.961 37.703,112.17 23.434,120.38"
   style="stroke:#ffffff;stroke-width:16;stroke-linecap:round;stroke-linejoin:round"
   id="path7198" />
<path
   d="M 92.5,160.5 L 92.5,160.5 C 92.5,144.04 101.3,128.83 115.57,120.62"
   style="stroke-width:12;stroke-linecap:round;stroke-linejoin:round"
   id="path7200" />
<path
   d="M 161.5,40.5 L 161.43,40.375 C 154.46,44.387 146.55,46.5 138.5,46.5 C 130.46,46.5 122.55,44.387 115.57,40.379"
   style="stroke-width:12;stroke-linecap:round;stroke-linejoin:round"
   id="path7202" />
<path
   d="M 23.5,40.5 L 23.434,40.625 C 37.703,48.828 46.5,64.039 46.5,80.5"
   style="stroke-width:12;stroke-linecap:round;stroke-linejoin:round"
   id="path7204" />
<path
   d="M 46.5,80.5 L 46.5,80.5 C 46.5,96.961 37.703,112.17 23.434,120.38"
   style="stroke-width:12;stroke-linecap:round;stroke-linejoin:round"
   id="path7206" />
<path
   d="M 139.5,120.5 L 139.47,121.73 L 139.38,122.95 L 139.22,124.15 L 139.01,125.34 L 138.74,126.5 L 138.42,127.64 L 138.04,128.75 L 137.61,129.84 L 137.13,130.9 L 136.6,131.94 L 136.03,132.94 L 135.4,133.92 L 134.73,134.86 L 134.02,135.77 L 133.26,136.64 L 132.47,137.47 L 131.64,138.26 L 130.77,139.02 L 129.86,139.73 L 128.92,140.4 L 127.94,141.03 L 126.94,141.6 L 125.9,142.13 L 124.84,142.61 L 123.75,143.04 L 122.64,143.42 L 121.5,143.74 L 120.34,144.01 L 119.15,144.22 L 117.95,144.38 L 116.73,144.47 L 115.5,144.5 C 102.25,144.5 91.5,133.75 91.5,120.5 C 91.5,107.25 102.25,96.5 115.5,96.5 C 128.75,96.5 139.5,107.25 139.5,120.5 z "
   style="fill:#ffffff;fill-rule:nonzero;stroke:#ffffff;stroke-width:0;stroke-linecap:round;stroke-linejoin:round"
   id="path7208" />
<path
   d="M 139.5,120.5 L 139.47,121.73 L 139.38,122.95 L 139.22,124.15 L 139.01,125.34 L 138.74,126.5 L 138.42,127.64 L 138.04,128.75 L 137.61,129.84 L 137.13,130.9 L 136.6,131.94 L 136.03,132.94 L 135.4,133.92 L 134.73,134.86 L 134.02,135.77 L 133.26,136.64 L 132.47,137.47 L 131.64,138.26 L 130.77,139.02 L 129.86,139.73 L 128.92,140.4 L 127.94,141.03 L 126.94,141.6 L 125.9,142.13 L 124.84,142.61 L 123.75,143.04 L 122.64,143.42 L 121.5,143.74 L 120.34,144.01 L 119.15,144.22 L 117.95,144.38 L 116.73,144.47 L 115.5,144.5 C 102.25,144.5 91.5,133.75 91.5,120.5 C 91.5,107.25 102.25,96.5 115.5,96.5 C 128.75,96.5 139.5,107.25 139.5,120.5 z "
   style="stroke-width:2;stroke-linecap:round;stroke-linejoin:round"
   id="path7210" />
<path
   d="M 66.992,140.5 L 66.981,140.72 L 66.948,140.93 L 66.894,141.14 L 66.82,141.35 L 66.725,141.56 L 66.61,141.76 L 66.477,141.95 L 66.324,142.15 L 66.154,142.33 L 65.967,142.52 L 65.762,142.69 L 65.541,142.87 L 65.304,143.03 L 65.052,143.19 L 64.785,143.35 L 64.504,143.49 L 64.209,143.63 L 63.901,143.77 L 63.58,143.89 L 63.247,144.01 L 62.902,144.12 L 62.547,144.22 L 62.181,144.32 L 61.804,144.4 L 61.419,144.48 L 61.024,144.54 L 60.621,144.6 L 60.211,144.65 L 59.793,144.69 L 59.368,144.71 L 58.937,144.73 L 58.5,144.73 C 53.812,144.73 50.008,142.84 50.008,140.5 C 50.008,138.16 53.812,136.27 58.5,136.27 C 63.188,136.27 66.992,138.16 66.992,140.5 z "
   style="fill:#ffffff;fill-rule:nonzero;stroke:#ffffff;stroke-width:0;stroke-linecap:round;stroke-linejoin:round"
   id="path7212" />
<path
   d="M 66.992,140.5 L 66.981,140.72 L 66.948,140.93 L 66.894,141.14 L 66.82,141.35 L 66.725,141.56 L 66.61,141.76 L 66.477,141.95 L 66.324,142.15 L 66.154,142.33 L 65.967,142.52 L 65.762,142.69 L 65.541,142.87 L 65.304,143.03 L 65.052,143.19 L 64.785,143.35 L 64.504,143.49 L 64.209,143.63 L 63.901,143.77 L 63.58,143.89 L 63.247,144.01 L 62.902,144.12 L 62.547,144.22 L 62.181,144.32 L 61.804,144.4 L 61.419,144.48 L 61.024,144.54 L 60.621,144.6 L 60.211,144.65 L 59.793,144.69 L 59.368,144.71 L 58.937,144.73 L 58.5,144.73 C 53.812,144.73 50.008,142.84 50.008,140.5 C 50.008,138.16 53.812,136.27 58.5,136.27 C 63.188,136.27 66.992,138.16 66.992,140.5 z "
   style="stroke-width:0.84906;stroke-linecap:round;stroke-linejoin:round"
   id="path7214" />
<text
   transform="matrix(1,0,0,-1,53.191,137.85)"
   style="font-size:8px;fill:#000000;stroke:none;font-family:&quot;Helvetica&quot;, sans-serif"
   id="text7216">50</text>

<path
   d="M 139.5,40.5 L 139.47,41.735 L 139.38,42.954 L 139.22,44.155 L 139.01,45.337 L 138.74,46.498 L 138.42,47.637 L 138.04,48.752 L 137.61,49.841 L 137.13,50.905 L 136.6,51.939 L 136.03,52.944 L 135.4,53.918 L 134.73,54.859 L 134.02,55.766 L 133.26,56.637 L 132.47,57.47 L 131.64,58.265 L 130.77,59.019 L 129.86,59.732 L 128.92,60.401 L 127.94,61.025 L 126.94,61.603 L 125.9,62.133 L 124.84,62.614 L 123.75,63.044 L 122.64,63.421 L 121.5,63.744 L 120.34,64.012 L 119.15,64.223 L 117.95,64.376 L 116.73,64.469 L 115.5,64.5 C 102.25,64.5 91.5,53.754 91.5,40.5 C 91.5,27.246 102.25,16.5 115.5,16.5 C 128.75,16.5 139.5,27.246 139.5,40.5 z "
   style="fill:#ffffff;fill-rule:nonzero;stroke:#ffffff;stroke-width:0;stroke-linecap:round;stroke-linejoin:round"
   id="path7218" />
<path
   d="M 139.5,40.5 L 139.47,41.735 L 139.38,42.954 L 139.22,44.155 L 139.01,45.337 L 138.74,46.498 L 138.42,47.637 L 138.04,48.752 L 137.61,49.841 L 137.13,50.905 L 136.6,51.939 L 136.03,52.944 L 135.4,53.918 L 134.73,54.859 L 134.02,55.766 L 133.26,56.637 L 132.47,57.47 L 131.64,58.265 L 130.77,59.019 L 129.86,59.732 L 128.92,60.401 L 127.94,61.025 L 126.94,61.603 L 125.9,62.133 L 124.84,62.614 L 123.75,63.044 L 122.64,63.421 L 121.5,63.744 L 120.34,64.012 L 119.15,64.223 L 117.95,64.376 L 116.73,64.469 L 115.5,64.5 C 102.25,64.5 91.5,53.754 91.5,40.5 C 91.5,27.246 102.25,16.5 115.5,16.5 C 128.75,16.5 139.5,27.246 139.5,40.5 z "
   style="stroke-width:2;stroke-linecap:round;stroke-linejoin:round"
   id="path7220" />
<path
   d="M 66.992,140.5 L 66.981,140.72 L 66.948,140.93 L 66.894,141.14 L 66.82,141.35 L 66.725,141.56 L 66.61,141.76 L 66.477,141.95 L 66.324,142.15 L 66.154,142.33 L 65.967,142.52 L 65.762,142.69 L 65.541,142.87 L 65.304,143.03 L 65.052,143.19 L 64.785,143.35 L 64.504,143.49 L 64.209,143.63 L 63.901,143.77 L 63.58,143.89 L 63.247,144.01 L 62.902,144.12 L 62.547,144.22 L 62.181,144.32 L 61.804,144.4 L 61.419,144.48 L 61.024,144.54 L 60.621,144.6 L 60.211,144.65 L 59.793,144.69 L 59.368,144.71 L 58.937,144.73 L 58.5,144.73 C 53.812,144.73 50.008,142.84 50.008,140.5 C 50.008,138.16 53.812,136.27 58.5,136.27 C 63.188,136.27 66.992,138.16 66.992,140.5 z "
   style="fill:#ffffff;fill-rule:nonzero;stroke:#ffffff;stroke-width:0;stroke-linecap:round;stroke-linejoin:round"
   id="path7222" />
<path
   d="M 66.992,140.5 L 66.981,140.72 L 66.948,140.93 L 66.894,141.14 L 66.82,141.35 L 66.725,141.56 L 66.61,141.76 L 66.477,141.95 L 66.324,142.15 L 66.154,142.33 L 65.967,142.52 L 65.762,142.69 L 65.541,142.87 L 65.304,143.03 L 65.052,143.19 L 64.785,143.35 L 64.504,143.49 L 64.209,143.63 L 63.901,143.77 L 63.58,143.89 L 63.247,144.01 L 62.902,144.12 L 62.547,144.22 L 62.181,144.32 L 61.804,144.4 L 61.419,144.48 L 61.024,144.54 L 60.621,144.6 L 60.211,144.65 L 59.793,144.69 L 59.368,144.71 L 58.937,144.73 L 58.5,144.73 C 53.812,144.73 50.008,142.84 50.008,140.5 C 50.008,138.16 53.812,136.27 58.5,136.27 C 63.188,136.27 66.992,138.16 66.992,140.5 z "
   style="stroke-width:0.84906;stroke-linecap:round;stroke-linejoin:round"
   id="path7224" />
<text
   transform="matrix(1,0,0,-1,53.191,137.85)"
   style="font-size:8px;fill:#000000;stroke:none;font-family:&quot;Helvetica&quot;, sans-serif"
   id="text7226">50</text>

<path
   d="M 70.5,80.5 L 70.469,81.735 L 70.376,82.954 L 70.223,84.155 L 70.012,85.337 L 69.744,86.498 L 69.421,87.637 L 69.044,88.752 L 68.614,89.841 L 68.133,90.905 L 67.603,91.939 L 67.025,92.944 L 66.401,93.918 L 65.732,94.859 L 65.019,95.766 L 64.265,96.637 L 63.47,97.47 L 62.637,98.265 L 61.766,99.019 L 60.859,99.732 L 59.918,100.4 L 58.944,101.03 L 57.939,101.6 L 56.905,102.13 L 55.841,102.61 L 54.752,103.04 L 53.637,103.42 L 52.498,103.74 L 51.337,104.01 L 50.155,104.22 L 48.954,104.38 L 47.735,104.47 L 46.5,104.5 C 33.246,104.5 22.5,93.754 22.5,80.5 C 22.5,67.246 33.246,56.5 46.5,56.5 C 59.754,56.5 70.5,67.246 70.5,80.5 z "
   style="fill:#ffffff;fill-rule:nonzero;stroke:#ffffff;stroke-width:0;stroke-linecap:round;stroke-linejoin:round"
   id="path7228" />
<path
   d="M 70.5,80.5 L 70.469,81.735 L 70.376,82.954 L 70.223,84.155 L 70.012,85.337 L 69.744,86.498 L 69.421,87.637 L 69.044,88.752 L 68.614,89.841 L 68.133,90.905 L 67.603,91.939 L 67.025,92.944 L 66.401,93.918 L 65.732,94.859 L 65.019,95.766 L 64.265,96.637 L 63.47,97.47 L 62.637,98.265 L 61.766,99.019 L 60.859,99.732 L 59.918,100.4 L 58.944,101.03 L 57.939,101.6 L 56.905,102.13 L 55.841,102.61 L 54.752,103.04 L 53.637,103.42 L 52.498,103.74 L 51.337,104.01 L 50.155,104.22 L 48.954,104.38 L 47.735,104.47 L 46.5,104.5 C 33.246,104.5 22.5,93.754 22.5,80.5 C 22.5,67.246 33.246,56.5 46.5,56.5 C 59.754,56.5 70.5,67.246 70.5,80.5 z "
   style="stroke-width:2;stroke-linecap:round;stroke-linejoin:round"
   id="path7230" />
<path
   d="M 66.992,140.5 L 66.981,140.72 L 66.948,140.93 L 66.894,141.14 L 66.82,141.35 L 66.725,141.56 L 66.61,141.76 L 66.477,141.95 L 66.324,142.15 L 66.154,142.33 L 65.967,142.52 L 65.762,142.69 L 65.541,142.87 L 65.304,143.03 L 65.052,143.19 L 64.785,143.35 L 64.504,143.49 L 64.209,143.63 L 63.901,143.77 L 63.58,143.89 L 63.247,144.01 L 62.902,144.12 L 62.547,144.22 L 62.181,144.32 L 61.804,144.4 L 61.419,144.48 L 61.024,144.54 L 60.621,144.6 L 60.211,144.65 L 59.793,144.69 L 59.368,144.71 L 58.937,144.73 L 58.5,144.73 C 53.812,144.73 50.008,142.84 50.008,140.5 C 50.008,138.16 53.812,136.27 58.5,136.27 C 63.188,136.27 66.992,138.16 66.992,140.5 z "
   style="fill:#ffffff;fill-rule:nonzero;stroke:#ffffff;stroke-width:0;stroke-linecap:round;stroke-linejoin:round"
   id="path7232" />
<path
   d="M 66.992,140.5 L 66.981,140.72 L 66.948,140.93 L 66.894,141.14 L 66.82,141.35 L 66.725,141.56 L 66.61,141.76 L 66.477,141.95 L 66.324,142.15 L 66.154,142.33 L 65.967,142.52 L 65.762,142.69 L 65.541,142.87 L 65.304,143.03 L 65.052,143.19 L 64.785,143.35 L 64.504,143.49 L 64.209,143.63 L 63.901,143.77 L 63.58,143.89 L 63.247,144.01 L 62.902,144.12 L 62.547,144.22 L 62.181,144.32 L 61.804,144.4 L 61.419,144.48 L 61.024,144.54 L 60.621,144.6 L 60.211,144.65 L 59.793,144.69 L 59.368,144.71 L 58.937,144.73 L 58.5,144.73 C 53.812,144.73 50.008,142.84 50.008,140.5 C 50.008,138.16 53.812,136.27 58.5,136.27 C 63.188,136.27 66.992,138.16 66.992,140.5 z "
   style="stroke-width:0.84906;stroke-linecap:round;stroke-linejoin:round"
   id="path7234" />
<text
   transform="matrix(1,0,0,-1,53.191,137.85)"
   style="font-size:8px;fill:#000000;stroke:none;font-family:&quot;Helvetica&quot;, sans-serif"
   id="text7236">50</text>

<text
   transform="matrix(1,0,0,-1,150.49,74.918)"
   style="font-size:16px;fill:#000000;stroke:none;font-family:&quot;Helvetica&quot;, sans-serif"
   id="text7238">HH</text>

<polygon
   points="46.5,160.5 138.5,160.5 184.5,80.5 138.5,0.5 46.5,0.5 0.5,80.5 46.5,160.5 "
   style="stroke-width:1;stroke-linejoin:round"
   id="polygon7240" />
</g></svg>
