<?xml version="1.0" encoding="UTF-8" standalone="no"?>
<svg
   xmlns:dc="http://purl.org/dc/elements/1.1/"
   xmlns:cc="http://web.resource.org/cc/"
   xmlns:rdf="http://www.w3.org/1999/02/22-rdf-syntax-ns#"
   xmlns:svg="http://www.w3.org/2000/svg"
   xmlns="http://www.w3.org/2000/svg"
   xmlns:sodipodi="http://sodipodi.sourceforge.net/DTD/sodipodi-0.dtd"
   xmlns:inkscape="http://www.inkscape.org/namespaces/inkscape"
   width="100"
   height="100"
   viewBox="0 0 1 1"
   preserveAspectRatio="none"
   id="svg3173"
   sodipodi:version="0.32"
   inkscape:version="0.45.1"
   sodipodi:docname="tile21.svg"
   sodipodi:docbase="C:\Documents and Settings\Brett\workspace\18xx\tiles\svg"
   version="1.0"
   inkscape:output_extension="org.inkscape.output.svg.inkscape">
  <metadata
     id="metadata3200">
    <rdf:RDF>
      <cc:Work
         rdf:about="">
        <dc:format>image/svg+xml</dc:format>
        <dc:type
           rdf:resource="http://purl.org/dc/dcmitype/StillImage" />
      </cc:Work>
    </rdf:RDF>
  </metadata>
  <defs
     id="defs3198" />
  <sodipodi:namedview
     inkscape:window-height="579"
     inkscape:window-width="749"
     inkscape:pageshadow="2"
     inkscape:pageopacity="0.0"
     borderopacity="1.0"
     bordercolor="#666666"
     pagecolor="#ffffff"
     id="base"
     inkscape:zoom="2.5777541"
     inkscape:cx="21.859209"
     inkscape:cy="40.719466"
     inkscape:window-x="176"
     inkscape:window-y="176"
     inkscape:current-layer="svg3173" />
  <title
     id="title3175">SVG drawing</title>
  <desc
     id="desc3177">This was produced by version 4.1 of GNU libplot, a free library for exporting 2-D vector graphics.</desc>
  <g
     transform="matrix(5.4169201e-3,0,0,-6.2023177e-3,-1.0651297e-3,1.0008684)"
     xml:space="preserve"
     style="font-style:normal;font-variant:normal;font-weight:normal;font-stretch:normal;letter-spacing:normal;word-spacing:normal;text-anchor:start;fill:none;fill-opacity:1;stroke:#000000;stroke-linecap:butt;stroke-linejoin:miter;stroke-miterlimit:10.43299961;stroke-dasharray:none;stroke-dashoffset:0;stroke-opacity:1"
     id="g3181">
<polygon
   points="46.5,160.5 138.5,160.5 184.5,80.5 138.5,0.5 46.5,0.5 0.5,80.5 46.5,160.5 "
   style="fill:#38ac00;fill-rule:nonzero;stroke:#38ac00;stroke-width:0;stroke-linejoin:round"
   id="polygon3183" />
<text
   transform="matrix(1,0,0,-1,111.86,7.9141)"
   style="font-size:8px;fill:#000000;stroke:none;font-family:&quot;Helvetica&quot;, sans-serif"
   id="text3185">21</text>


<path
   d="M 23.5,120.5 L 23.57,120.62 C 30.547,116.61 38.457,114.5 46.5,114.5 C 71.902,114.5 92.5,135.1 92.5,160.5"
   style="stroke:#ffffff;stroke-width:16;stroke-linecap:round;stroke-linejoin:round"
   id="path3187" />
<path
   d="M 161.5,40.5 L 161.3,40.129 C 140.37,52.164 116.64,58.5 92.5,58.5 C 68.359,58.5 44.637,52.164 23.711,40.133"
   style="stroke:#ffffff;stroke-width:16;stroke-linecap:round;stroke-linejoin:round"
   id="path3189" />
<path
   d="M 23.5,120.5 L 23.57,120.62 C 30.547,116.61 38.457,114.5 46.5,114.5 C 71.902,114.5 92.5,135.1 92.5,160.5"
   style="stroke-width:12;stroke-linecap:round;stroke-linejoin:round"
   id="path3191" />
<path
   d="M 161.5,40.5 L 161.3,40.129 C 140.37,52.164 116.64,58.5 92.5,58.5 C 68.359,58.5 44.637,52.164 23.711,40.133"
   style="stroke-width:12;stroke-linecap:round;stroke-linejoin:round"
   id="path3193" />
<polygon
   points="46.5,160.5 138.5,160.5 184.5,80.5 138.5,0.5 46.5,0.5 0.5,80.5 46.5,160.5 "
   style="stroke-width:1;stroke-linejoin:round"
   id="polygon3195" />
</g></svg>
