<?xml version="1.0" encoding="UTF-8" standalone="no"?>
<svg
   xmlns:dc="http://purl.org/dc/elements/1.1/"
   xmlns:cc="http://web.resource.org/cc/"
   xmlns:rdf="http://www.w3.org/1999/02/22-rdf-syntax-ns#"
   xmlns:svg="http://www.w3.org/2000/svg"
   xmlns="http://www.w3.org/2000/svg"
   xmlns:sodipodi="http://sodipodi.sourceforge.net/DTD/sodipodi-0.dtd"
   xmlns:inkscape="http://www.inkscape.org/namespaces/inkscape"
   width="100"
   height="100"
   viewBox="0 0 1 1"
   preserveAspectRatio="none"
   id="svg3780"
   sodipodi:version="0.32"
   inkscape:version="0.45.1"
   sodipodi:docname="tile34.svg"
   sodipodi:docbase="C:\Documents and Settings\Brett\workspace\18xx\tiles\svg"
   version="1.0"
   inkscape:output_extension="org.inkscape.output.svg.inkscape">
  <metadata
     id="metadata3859">
    <rdf:RDF>
      <cc:Work
         rdf:about="">
        <dc:format>image/svg+xml</dc:format>
        <dc:type
           rdf:resource="http://purl.org/dc/dcmitype/StillImage" />
      </cc:Work>
    </rdf:RDF>
  </metadata>
  <defs
     id="defs3857" />
  <sodipodi:namedview
     inkscape:window-height="579"
     inkscape:window-width="749"
     inkscape:pageshadow="2"
     inkscape:pageopacity="0.0"
     borderopacity="1.0"
     bordercolor="#666666"
     pagecolor="#ffffff"
     id="base"
     inkscape:zoom="3.1416667"
     inkscape:cx="53.474801"
     inkscape:cy="50.61008"
     inkscape:window-x="88"
     inkscape:window-y="88"
     inkscape:current-layer="svg3780" />
  <title
     id="title3782">SVG drawing</title>
  <desc
     id="desc3784">This was produced by version 4.1 of GNU libplot, a free library for exporting 2-D vector graphics.</desc>
  <g
     transform="matrix(5.4169381e-3,0,0,-6.195198e-3,-1.0667978e-3,1.0008665)"
     xml:space="preserve"
     style="font-style:normal;font-variant:normal;font-weight:normal;font-stretch:normal;letter-spacing:normal;word-spacing:normal;text-anchor:start;fill:none;fill-opacity:1;stroke:#000000;stroke-linecap:butt;stroke-linejoin:miter;stroke-miterlimit:10.43299961;stroke-dasharray:none;stroke-dashoffset:0;stroke-opacity:1"
     id="g3788">
<polygon
   points="46.5,160.5 138.5,160.5 184.5,80.5 138.5,0.5 46.5,0.5 0.5,80.5 46.5,160.5 "
   style="fill:#b46301;fill-rule:nonzero;stroke:#b46301;stroke-width:0;stroke-linejoin:round"
   id="polygon3790" />
<text
   transform="matrix(1,0,0,-1,111.17,7.9141)"
   style="font-size:8px;fill:#000000;stroke:none;font-family:&quot;Helvetica&quot;, sans-serif"
   id="text3792">34</text>


<path
   d="M 93.5,40.5 L 93.469,41.735 L 93.376,42.954 L 93.223,44.155 L 93.012,45.337 L 92.744,46.498 L 92.421,47.637 L 92.044,48.752 L 91.614,49.841 L 91.133,50.905 L 90.603,51.939 L 90.025,52.944 L 89.401,53.918 L 88.732,54.859 L 88.019,55.766 L 87.265,56.637 L 86.47,57.47 L 85.637,58.265 L 84.766,59.019 L 83.859,59.732 L 82.918,60.401 L 81.944,61.025 L 80.939,61.603 L 79.905,62.133 L 78.841,62.614 L 77.752,63.044 L 76.637,63.421 L 75.498,63.744 L 74.337,64.012 L 73.155,64.223 L 71.954,64.376 L 70.735,64.469 L 69.5,64.5 C 56.246,64.5 45.5,53.754 45.5,40.5 C 45.5,27.246 56.246,16.5 69.5,16.5 C 82.754,16.5 93.5,27.246 93.5,40.5 z "
   style="fill:#ffffff;fill-rule:nonzero;stroke:#ffffff;stroke-width:0;stroke-linecap:round;stroke-linejoin:round"
   id="path3794" />
<path
   d="M 93.5,40.5 L 93.469,41.735 L 93.376,42.954 L 93.223,44.155 L 93.012,45.337 L 92.744,46.498 L 92.421,47.637 L 92.044,48.752 L 91.614,49.841 L 91.133,50.905 L 90.603,51.939 L 90.025,52.944 L 89.401,53.918 L 88.732,54.859 L 88.019,55.766 L 87.265,56.637 L 86.47,57.47 L 85.637,58.265 L 84.766,59.019 L 83.859,59.732 L 82.918,60.401 L 81.944,61.025 L 80.939,61.603 L 79.905,62.133 L 78.841,62.614 L 77.752,63.044 L 76.637,63.421 L 75.498,63.744 L 74.337,64.012 L 73.155,64.223 L 71.954,64.376 L 70.735,64.469 L 69.5,64.5 C 56.246,64.5 45.5,53.754 45.5,40.5 C 45.5,27.246 56.246,16.5 69.5,16.5 C 82.754,16.5 93.5,27.246 93.5,40.5 z "
   style="stroke:#ffffff;stroke-width:6;stroke-linecap:round;stroke-linejoin:round"
   id="path3796" />
<path
   d="M 139.5,120.5 L 139.47,121.73 L 139.38,122.95 L 139.22,124.15 L 139.01,125.34 L 138.74,126.5 L 138.42,127.64 L 138.04,128.75 L 137.61,129.84 L 137.13,130.9 L 136.6,131.94 L 136.03,132.94 L 135.4,133.92 L 134.73,134.86 L 134.02,135.77 L 133.26,136.64 L 132.47,137.47 L 131.64,138.26 L 130.77,139.02 L 129.86,139.73 L 128.92,140.4 L 127.94,141.03 L 126.94,141.6 L 125.9,142.13 L 124.84,142.61 L 123.75,143.04 L 122.64,143.42 L 121.5,143.74 L 120.34,144.01 L 119.15,144.22 L 117.95,144.38 L 116.73,144.47 L 115.5,144.5 C 102.25,144.5 91.5,133.75 91.5,120.5 C 91.5,107.25 102.25,96.5 115.5,96.5 C 128.75,96.5 139.5,107.25 139.5,120.5 z "
   style="fill:#ffffff;fill-rule:nonzero;stroke:#ffffff;stroke-width:0;stroke-linecap:round;stroke-linejoin:round"
   id="path3798" />
<path
   d="M 139.5,120.5 L 139.47,121.73 L 139.38,122.95 L 139.22,124.15 L 139.01,125.34 L 138.74,126.5 L 138.42,127.64 L 138.04,128.75 L 137.61,129.84 L 137.13,130.9 L 136.6,131.94 L 136.03,132.94 L 135.4,133.92 L 134.73,134.86 L 134.02,135.77 L 133.26,136.64 L 132.47,137.47 L 131.64,138.26 L 130.77,139.02 L 129.86,139.73 L 128.92,140.4 L 127.94,141.03 L 126.94,141.6 L 125.9,142.13 L 124.84,142.61 L 123.75,143.04 L 122.64,143.42 L 121.5,143.74 L 120.34,144.01 L 119.15,144.22 L 117.95,144.38 L 116.73,144.47 L 115.5,144.5 C 102.25,144.5 91.5,133.75 91.5,120.5 C 91.5,107.25 102.25,96.5 115.5,96.5 C 128.75,96.5 139.5,107.25 139.5,120.5 z "
   style="stroke:#ffffff;stroke-width:6;stroke-linecap:round;stroke-linejoin:round"
   id="path3800" />
<path
   d="M 82.5,100.5 L 82.469,101.73 L 82.376,102.95 L 82.223,104.15 L 82.012,105.34 L 81.744,106.5 L 81.421,107.64 L 81.044,108.75 L 80.614,109.84 L 80.133,110.9 L 79.603,111.94 L 79.025,112.94 L 78.401,113.92 L 77.732,114.86 L 77.019,115.77 L 76.265,116.64 L 75.47,117.47 L 74.637,118.26 L 73.766,119.02 L 72.859,119.73 L 71.918,120.4 L 70.944,121.03 L 69.939,121.6 L 68.905,122.13 L 67.841,122.61 L 66.752,123.04 L 65.637,123.42 L 64.498,123.74 L 63.337,124.01 L 62.155,124.22 L 60.954,124.38 L 59.735,124.47 L 58.5,124.5 C 45.246,124.5 34.5,113.75 34.5,100.5 C 34.5,87.246 45.246,76.5 58.5,76.5 C 71.754,76.5 82.5,87.246 82.5,100.5 z "
   style="fill:#ffffff;fill-rule:nonzero;stroke:#ffffff;stroke-width:0;stroke-linecap:round;stroke-linejoin:round"
   id="path3802" />
<path
   d="M 82.5,100.5 L 82.469,101.73 L 82.376,102.95 L 82.223,104.15 L 82.012,105.34 L 81.744,106.5 L 81.421,107.64 L 81.044,108.75 L 80.614,109.84 L 80.133,110.9 L 79.603,111.94 L 79.025,112.94 L 78.401,113.92 L 77.732,114.86 L 77.019,115.77 L 76.265,116.64 L 75.47,117.47 L 74.637,118.26 L 73.766,119.02 L 72.859,119.73 L 71.918,120.4 L 70.944,121.03 L 69.939,121.6 L 68.905,122.13 L 67.841,122.61 L 66.752,123.04 L 65.637,123.42 L 64.498,123.74 L 63.337,124.01 L 62.155,124.22 L 60.954,124.38 L 59.735,124.47 L 58.5,124.5 C 45.246,124.5 34.5,113.75 34.5,100.5 C 34.5,87.246 45.246,76.5 58.5,76.5 C 71.754,76.5 82.5,87.246 82.5,100.5 z "
   style="stroke:#ffffff;stroke-width:6;stroke-linecap:round;stroke-linejoin:round"
   id="path3804" />
<path
   d="M 92.5,160.5 L 92.5,160.5 C 92.5,144.04 101.3,128.83 115.57,120.62"
   style="stroke:#ffffff;stroke-width:16;stroke-linecap:round;stroke-linejoin:round"
   id="path3806" />
<path
   d="M 69.5,40.5 L 69.434,40.375 C 62.457,44.387 54.547,46.5 46.5,46.5 C 38.457,46.5 30.547,44.387 23.57,40.379"
   style="stroke:#ffffff;stroke-width:16;stroke-linecap:round;stroke-linejoin:round"
   id="path3808" />
<line
   x1="58.5"
   y1="100.5"
   x2="161.5"
   y2="40.5"
   style="stroke:#ffffff;stroke-width:16;stroke-linecap:round"
   id="line3810" />
<line
   x1="58.5"
   y1="100.5"
   x2="23.5"
   y2="120.5"
   style="stroke:#ffffff;stroke-width:16;stroke-linecap:round"
   id="line3812" />
<path
   d="M 92.5,160.5 L 92.5,160.5 C 92.5,144.04 101.3,128.83 115.57,120.62"
   style="stroke-width:12;stroke-linecap:round;stroke-linejoin:round"
   id="path3814" />
<path
   d="M 69.5,40.5 L 69.434,40.375 C 62.457,44.387 54.547,46.5 46.5,46.5 C 38.457,46.5 30.547,44.387 23.57,40.379"
   style="stroke-width:12;stroke-linecap:round;stroke-linejoin:round"
   id="path3816" />
<line
   x1="58.5"
   y1="100.5"
   x2="161.5"
   y2="40.5"
   style="stroke-width:12;stroke-linecap:round"
   id="line3818" />
<line
   x1="58.5"
   y1="100.5"
   x2="23.5"
   y2="120.5"
   style="stroke-width:12;stroke-linecap:round"
   id="line3820" />
<path
   d="M 93.5,40.5 L 93.469,41.735 L 93.376,42.954 L 93.223,44.155 L 93.012,45.337 L 92.744,46.498 L 92.421,47.637 L 92.044,48.752 L 91.614,49.841 L 91.133,50.905 L 90.603,51.939 L 90.025,52.944 L 89.401,53.918 L 88.732,54.859 L 88.019,55.766 L 87.265,56.637 L 86.47,57.47 L 85.637,58.265 L 84.766,59.019 L 83.859,59.732 L 82.918,60.401 L 81.944,61.025 L 80.939,61.603 L 79.905,62.133 L 78.841,62.614 L 77.752,63.044 L 76.637,63.421 L 75.498,63.744 L 74.337,64.012 L 73.155,64.223 L 71.954,64.376 L 70.735,64.469 L 69.5,64.5 C 56.246,64.5 45.5,53.754 45.5,40.5 C 45.5,27.246 56.246,16.5 69.5,16.5 C 82.754,16.5 93.5,27.246 93.5,40.5 z "
   style="fill:#ffffff;fill-rule:nonzero;stroke:#ffffff;stroke-width:0;stroke-linecap:round;stroke-linejoin:round"
   id="path3822" />
<path
   d="M 93.5,40.5 L 93.469,41.735 L 93.376,42.954 L 93.223,44.155 L 93.012,45.337 L 92.744,46.498 L 92.421,47.637 L 92.044,48.752 L 91.614,49.841 L 91.133,50.905 L 90.603,51.939 L 90.025,52.944 L 89.401,53.918 L 88.732,54.859 L 88.019,55.766 L 87.265,56.637 L 86.47,57.47 L 85.637,58.265 L 84.766,59.019 L 83.859,59.732 L 82.918,60.401 L 81.944,61.025 L 80.939,61.603 L 79.905,62.133 L 78.841,62.614 L 77.752,63.044 L 76.637,63.421 L 75.498,63.744 L 74.337,64.012 L 73.155,64.223 L 71.954,64.376 L 70.735,64.469 L 69.5,64.5 C 56.246,64.5 45.5,53.754 45.5,40.5 C 45.5,27.246 56.246,16.5 69.5,16.5 C 82.754,16.5 93.5,27.246 93.5,40.5 z "
   style="stroke-width:2;stroke-linecap:round;stroke-linejoin:round"
   id="path3824" />
<path
   d="M 169.99,80.5 L 169.98,80.718 L 169.95,80.932 L 169.89,81.144 L 169.82,81.353 L 169.72,81.557 L 169.61,81.758 L 169.48,81.955 L 169.32,82.147 L 169.15,82.335 L 168.97,82.517 L 168.76,82.694 L 168.54,82.866 L 168.3,83.032 L 168.05,83.192 L 167.79,83.346 L 167.5,83.493 L 167.21,83.633 L 166.9,83.767 L 166.58,83.892 L 166.25,84.011 L 165.9,84.121 L 165.55,84.223 L 165.18,84.316 L 164.8,84.401 L 164.42,84.477 L 164.02,84.544 L 163.62,84.601 L 163.21,84.648 L 162.79,84.686 L 162.37,84.713 L 161.94,84.729 L 161.5,84.734 C 156.81,84.734 153.01,82.836 153.01,80.5 C 153.01,78.164 156.81,76.266 161.5,76.266 C 166.19,76.266 169.99,78.164 169.99,80.5 z "
   style="fill:#ffffff;fill-rule:nonzero;stroke:#ffffff;stroke-width:0;stroke-linecap:round;stroke-linejoin:round"
   id="path3826" />
<path
   d="M 169.99,80.5 L 169.98,80.718 L 169.95,80.932 L 169.89,81.144 L 169.82,81.353 L 169.72,81.557 L 169.61,81.758 L 169.48,81.955 L 169.32,82.147 L 169.15,82.335 L 168.97,82.517 L 168.76,82.694 L 168.54,82.866 L 168.3,83.032 L 168.05,83.192 L 167.79,83.346 L 167.5,83.493 L 167.21,83.633 L 166.9,83.767 L 166.58,83.892 L 166.25,84.011 L 165.9,84.121 L 165.55,84.223 L 165.18,84.316 L 164.8,84.401 L 164.42,84.477 L 164.02,84.544 L 163.62,84.601 L 163.21,84.648 L 162.79,84.686 L 162.37,84.713 L 161.94,84.729 L 161.5,84.734 C 156.81,84.734 153.01,82.836 153.01,80.5 C 153.01,78.164 156.81,76.266 161.5,76.266 C 166.19,76.266 169.99,78.164 169.99,80.5 z "
   style="stroke-width:0.84906;stroke-linecap:round;stroke-linejoin:round"
   id="path3828" />
<text
   transform="matrix(1,0,0,-1,156.19,77.855)"
   style="font-size:8px;fill:#000000;stroke:none;font-family:&quot;Helvetica&quot;, sans-serif"
   id="text3830">50</text>


<path
   d="M 139.5,120.5 L 139.47,121.73 L 139.38,122.95 L 139.22,124.15 L 139.01,125.34 L 138.74,126.5 L 138.42,127.64 L 138.04,128.75 L 137.61,129.84 L 137.13,130.9 L 136.6,131.94 L 136.03,132.94 L 135.4,133.92 L 134.73,134.86 L 134.02,135.77 L 133.26,136.64 L 132.47,137.47 L 131.64,138.26 L 130.77,139.02 L 129.86,139.73 L 128.92,140.4 L 127.94,141.03 L 126.94,141.6 L 125.9,142.13 L 124.84,142.61 L 123.75,143.04 L 122.64,143.42 L 121.5,143.74 L 120.34,144.01 L 119.15,144.22 L 117.95,144.38 L 116.73,144.47 L 115.5,144.5 C 102.25,144.5 91.5,133.75 91.5,120.5 C 91.5,107.25 102.25,96.5 115.5,96.5 C 128.75,96.5 139.5,107.25 139.5,120.5 z "
   style="fill:#ffffff;fill-rule:nonzero;stroke:#ffffff;stroke-width:0;stroke-linecap:round;stroke-linejoin:round"
   id="path3832" />
<path
   d="M 139.5,120.5 L 139.47,121.73 L 139.38,122.95 L 139.22,124.15 L 139.01,125.34 L 138.74,126.5 L 138.42,127.64 L 138.04,128.75 L 137.61,129.84 L 137.13,130.9 L 136.6,131.94 L 136.03,132.94 L 135.4,133.92 L 134.73,134.86 L 134.02,135.77 L 133.26,136.64 L 132.47,137.47 L 131.64,138.26 L 130.77,139.02 L 129.86,139.73 L 128.92,140.4 L 127.94,141.03 L 126.94,141.6 L 125.9,142.13 L 124.84,142.61 L 123.75,143.04 L 122.64,143.42 L 121.5,143.74 L 120.34,144.01 L 119.15,144.22 L 117.95,144.38 L 116.73,144.47 L 115.5,144.5 C 102.25,144.5 91.5,133.75 91.5,120.5 C 91.5,107.25 102.25,96.5 115.5,96.5 C 128.75,96.5 139.5,107.25 139.5,120.5 z "
   style="stroke-width:2;stroke-linecap:round;stroke-linejoin:round"
   id="path3834" />
<path
   d="M 169.99,80.5 L 169.98,80.718 L 169.95,80.932 L 169.89,81.144 L 169.82,81.353 L 169.72,81.557 L 169.61,81.758 L 169.48,81.955 L 169.32,82.147 L 169.15,82.335 L 168.97,82.517 L 168.76,82.694 L 168.54,82.866 L 168.3,83.032 L 168.05,83.192 L 167.79,83.346 L 167.5,83.493 L 167.21,83.633 L 166.9,83.767 L 166.58,83.892 L 166.25,84.011 L 165.9,84.121 L 165.55,84.223 L 165.18,84.316 L 164.8,84.401 L 164.42,84.477 L 164.02,84.544 L 163.62,84.601 L 163.21,84.648 L 162.79,84.686 L 162.37,84.713 L 161.94,84.729 L 161.5,84.734 C 156.81,84.734 153.01,82.836 153.01,80.5 C 153.01,78.164 156.81,76.266 161.5,76.266 C 166.19,76.266 169.99,78.164 169.99,80.5 z "
   style="fill:#ffffff;fill-rule:nonzero;stroke:#ffffff;stroke-width:0;stroke-linecap:round;stroke-linejoin:round"
   id="path3836" />
<path
   d="M 169.99,80.5 L 169.98,80.718 L 169.95,80.932 L 169.89,81.144 L 169.82,81.353 L 169.72,81.557 L 169.61,81.758 L 169.48,81.955 L 169.32,82.147 L 169.15,82.335 L 168.97,82.517 L 168.76,82.694 L 168.54,82.866 L 168.3,83.032 L 168.05,83.192 L 167.79,83.346 L 167.5,83.493 L 167.21,83.633 L 166.9,83.767 L 166.58,83.892 L 166.25,84.011 L 165.9,84.121 L 165.55,84.223 L 165.18,84.316 L 164.8,84.401 L 164.42,84.477 L 164.02,84.544 L 163.62,84.601 L 163.21,84.648 L 162.79,84.686 L 162.37,84.713 L 161.94,84.729 L 161.5,84.734 C 156.81,84.734 153.01,82.836 153.01,80.5 C 153.01,78.164 156.81,76.266 161.5,76.266 C 166.19,76.266 169.99,78.164 169.99,80.5 z "
   style="stroke-width:0.84906;stroke-linecap:round;stroke-linejoin:round"
   id="path3838" />
<text
   transform="matrix(1,0,0,-1,156.19,77.855)"
   style="font-size:8px;fill:#000000;stroke:none;font-family:&quot;Helvetica&quot;, sans-serif"
   id="text3840">50</text>


<path
   d="M 82.5,100.5 L 82.469,101.73 L 82.376,102.95 L 82.223,104.15 L 82.012,105.34 L 81.744,106.5 L 81.421,107.64 L 81.044,108.75 L 80.614,109.84 L 80.133,110.9 L 79.603,111.94 L 79.025,112.94 L 78.401,113.92 L 77.732,114.86 L 77.019,115.77 L 76.265,116.64 L 75.47,117.47 L 74.637,118.26 L 73.766,119.02 L 72.859,119.73 L 71.918,120.4 L 70.944,121.03 L 69.939,121.6 L 68.905,122.13 L 67.841,122.61 L 66.752,123.04 L 65.637,123.42 L 64.498,123.74 L 63.337,124.01 L 62.155,124.22 L 60.954,124.38 L 59.735,124.47 L 58.5,124.5 C 45.246,124.5 34.5,113.75 34.5,100.5 C 34.5,87.246 45.246,76.5 58.5,76.5 C 71.754,76.5 82.5,87.246 82.5,100.5 z "
   style="fill:#ffffff;fill-rule:nonzero;stroke:#ffffff;stroke-width:0;stroke-linecap:round;stroke-linejoin:round"
   id="path3842" />
<path
   d="M 82.5,100.5 L 82.469,101.73 L 82.376,102.95 L 82.223,104.15 L 82.012,105.34 L 81.744,106.5 L 81.421,107.64 L 81.044,108.75 L 80.614,109.84 L 80.133,110.9 L 79.603,111.94 L 79.025,112.94 L 78.401,113.92 L 77.732,114.86 L 77.019,115.77 L 76.265,116.64 L 75.47,117.47 L 74.637,118.26 L 73.766,119.02 L 72.859,119.73 L 71.918,120.4 L 70.944,121.03 L 69.939,121.6 L 68.905,122.13 L 67.841,122.61 L 66.752,123.04 L 65.637,123.42 L 64.498,123.74 L 63.337,124.01 L 62.155,124.22 L 60.954,124.38 L 59.735,124.47 L 58.5,124.5 C 45.246,124.5 34.5,113.75 34.5,100.5 C 34.5,87.246 45.246,76.5 58.5,76.5 C 71.754,76.5 82.5,87.246 82.5,100.5 z "
   style="stroke-width:2;stroke-linecap:round;stroke-linejoin:round"
   id="path3844" />
<path
   d="M 169.99,80.5 L 169.98,80.718 L 169.95,80.932 L 169.89,81.144 L 169.82,81.353 L 169.72,81.557 L 169.61,81.758 L 169.48,81.955 L 169.32,82.147 L 169.15,82.335 L 168.97,82.517 L 168.76,82.694 L 168.54,82.866 L 168.3,83.032 L 168.05,83.192 L 167.79,83.346 L 167.5,83.493 L 167.21,83.633 L 166.9,83.767 L 166.58,83.892 L 166.25,84.011 L 165.9,84.121 L 165.55,84.223 L 165.18,84.316 L 164.8,84.401 L 164.42,84.477 L 164.02,84.544 L 163.62,84.601 L 163.21,84.648 L 162.79,84.686 L 162.37,84.713 L 161.94,84.729 L 161.5,84.734 C 156.81,84.734 153.01,82.836 153.01,80.5 C 153.01,78.164 156.81,76.266 161.5,76.266 C 166.19,76.266 169.99,78.164 169.99,80.5 z "
   style="fill:#ffffff;fill-rule:nonzero;stroke:#ffffff;stroke-width:0;stroke-linecap:round;stroke-linejoin:round"
   id="path3846" />
<path
   d="M 169.99,80.5 L 169.98,80.718 L 169.95,80.932 L 169.89,81.144 L 169.82,81.353 L 169.72,81.557 L 169.61,81.758 L 169.48,81.955 L 169.32,82.147 L 169.15,82.335 L 168.97,82.517 L 168.76,82.694 L 168.54,82.866 L 168.3,83.032 L 168.05,83.192 L 167.79,83.346 L 167.5,83.493 L 167.21,83.633 L 166.9,83.767 L 166.58,83.892 L 166.25,84.011 L 165.9,84.121 L 165.55,84.223 L 165.18,84.316 L 164.8,84.401 L 164.42,84.477 L 164.02,84.544 L 163.62,84.601 L 163.21,84.648 L 162.79,84.686 L 162.37,84.713 L 161.94,84.729 L 161.5,84.734 C 156.81,84.734 153.01,82.836 153.01,80.5 C 153.01,78.164 156.81,76.266 161.5,76.266 C 166.19,76.266 169.99,78.164 169.99,80.5 z "
   style="stroke-width:0.84906;stroke-linecap:round;stroke-linejoin:round"
   id="path3848" />
<text
   transform="matrix(1,0,0,-1,156.19,77.855)"
   style="font-size:8px;fill:#000000;stroke:none;font-family:&quot;Helvetica&quot;, sans-serif"
   id="text3850">50</text>


<text
   transform="matrix(1,0,0,-1,5.543,74.824)"
   style="font-size:16px;fill:#000000;stroke:none;font-family:&quot;Helvetica&quot;, sans-serif"
   id="text3852">BGM</text>


<polygon
   points="46.5,160.5 138.5,160.5 184.5,80.5 138.5,0.5 46.5,0.5 0.5,80.5 46.5,160.5 "
   style="stroke-width:1;stroke-linejoin:round"
   id="polygon3854" />
</g></svg>
