<?xml version="1.0" encoding="UTF-8" standalone="no"?>
<svg
   xmlns:dc="http://purl.org/dc/elements/1.1/"
   xmlns:cc="http://web.resource.org/cc/"
   xmlns:rdf="http://www.w3.org/1999/02/22-rdf-syntax-ns#"
   xmlns:svg="http://www.w3.org/2000/svg"
   xmlns="http://www.w3.org/2000/svg"
   xmlns:sodipodi="http://inkscape.sourceforge.net/DTD/sodipodi-0.dtd"
   xmlns:inkscape="http://www.inkscape.org/namespaces/inkscape"
   width="100"
   height="100"
   viewBox="0 0 1 1"
   preserveAspectRatio="none"
   id="svg1598"
   sodipodi:version="0.32"
   inkscape:version="0.43"
   sodipodi:docname="tile601.svg"
   sodipodi:docbase="C:\Documents and Settings\lentz\Desktop\TileDesigner"
   version="1.0">
  <metadata
     id="metadata1655">
    <rdf:RDF>
      <cc:Work
         rdf:about="">
        <dc:format>image/svg+xml</dc:format>
        <dc:type
           rdf:resource="http://purl.org/dc/dcmitype/StillImage" />
      </cc:Work>
    </rdf:RDF>
  </metadata>
  <defs
     id="defs1653" />
  <sodipodi:namedview
     inkscape:window-height="540"
     inkscape:window-width="749"
     inkscape:pageshadow="2"
     inkscape:pageopacity="0.0"
     borderopacity="1.0"
     bordercolor="#666666"
     pagecolor="#ffffff"
     id="base"
     inkscape:zoom="0.52361111"
     inkscape:cx="360"
     inkscape:cy="360"
     inkscape:window-x="44"
     inkscape:window-y="44"
     inkscape:current-layer="svg1598" />
  <title
     id="title1600">SVG drawing</title>
  <desc
     id="desc1602">This was produced by version 4.1 of GNU libplot, a free library for exporting 2-D vector graphics.</desc>
  <rect
     x="0"
     y="0"
     width="1"
     height="1"
     style="fill:#ffffff;stroke:none"
     id="rect1604" />
  <g
     transform="matrix(5.418114e-3,0,0,-5.739835e-3,-1.175565e-3,0.934679)"
     xml:space="preserve"
     style="font-style:normal;font-variant:normal;font-weight:normal;font-stretch:normal;letter-spacing:normal;word-spacing:normal;text-anchor:start;fill:none;fill-opacity:1;stroke:#000000;stroke-linecap:butt;stroke-linejoin:miter;stroke-miterlimit:10.43299961;stroke-dasharray:none;stroke-dashoffset:0;stroke-opacity:1"
     id="g1606">
<polygon
   points="46.5,160.5 138.5,160.5 184.5,80.5 138.5,0.5 46.5,0.5 0.5,80.5 46.5,160.5 "
   style="fill:#ffff00;fill-rule:nonzero;stroke:#ffff00;stroke-width:0;stroke-linejoin:round"
   id="polygon1608" />
<text
   transform="matrix(1,0,0,-1,109.86,7.9141)"
   style="font-size:8px;fill:#000000;stroke:none;font-family:&quot;Helvetica&quot;, sans-serif"
   id="text1610">601</text>

<line
   x1="133.5"
   y1="88.5"
   x2="119.5"
   y2="112.5"
   style="stroke:#ffffff;stroke-width:16"
   id="line1612" />
<path
   d="M 90.5,65.5 L 90.469,66.735 L 90.376,67.954 L 90.223,69.155 L 90.012,70.337 L 89.744,71.498 L 89.421,72.637 L 89.044,73.752 L 88.614,74.841 L 88.133,75.905 L 87.603,76.939 L 87.025,77.944 L 86.401,78.918 L 85.732,79.859 L 85.019,80.766 L 84.265,81.637 L 83.47,82.47 L 82.637,83.265 L 81.766,84.019 L 80.859,84.732 L 79.918,85.401 L 78.944,86.025 L 77.939,86.603 L 76.905,87.133 L 75.841,87.614 L 74.752,88.044 L 73.637,88.421 L 72.498,88.744 L 71.337,89.012 L 70.155,89.223 L 68.954,89.376 L 67.735,89.469 L 66.5,89.5 C 53.246,89.5 42.5,78.754 42.5,65.5 C 42.5,52.246 53.246,41.5 66.5,41.5 C 79.754,41.5 90.5,52.246 90.5,65.5 z "
   style="fill:#ffffff;fill-rule:nonzero;stroke:#ffffff;stroke-width:0;stroke-linecap:round;stroke-linejoin:round"
   id="path1614" />
<path
   d="M 90.5,65.5 L 90.469,66.735 L 90.376,67.954 L 90.223,69.155 L 90.012,70.337 L 89.744,71.498 L 89.421,72.637 L 89.044,73.752 L 88.614,74.841 L 88.133,75.905 L 87.603,76.939 L 87.025,77.944 L 86.401,78.918 L 85.732,79.859 L 85.019,80.766 L 84.265,81.637 L 83.47,82.47 L 82.637,83.265 L 81.766,84.019 L 80.859,84.732 L 79.918,85.401 L 78.944,86.025 L 77.939,86.603 L 76.905,87.133 L 75.841,87.614 L 74.752,88.044 L 73.637,88.421 L 72.498,88.744 L 71.337,89.012 L 70.155,89.223 L 68.954,89.376 L 67.735,89.469 L 66.5,89.5 C 53.246,89.5 42.5,78.754 42.5,65.5 C 42.5,52.246 53.246,41.5 66.5,41.5 C 79.754,41.5 90.5,52.246 90.5,65.5 z "
   style="stroke:#ffffff;stroke-width:6;stroke-linecap:round;stroke-linejoin:round"
   id="path1616" />
<line
   x1="126.5"
   y1="100.5"
   x2="161.5"
   y2="120.5"
   style="stroke:#ffffff;stroke-width:16;stroke-linecap:round"
   id="line1618" />
<line
   x1="73.5"
   y1="69.5"
   x2="126.5"
   y2="100.5"
   style="stroke:#ffffff;stroke-width:16;stroke-linecap:round"
   id="line1620" />
<path
   d="M 92.5,0.5 L 92.5,0.5 C 92.5,24.809 86.074,48.691 73.883,69.719"
   style="stroke:#ffffff;stroke-width:16;stroke-linecap:round;stroke-linejoin:round"
   id="path1622" />
<line
   x1="126.5"
   y1="100.5"
   x2="161.5"
   y2="120.5"
   style="stroke-width:12;stroke-linecap:round"
   id="line1624" />
<line
   x1="73.5"
   y1="69.5"
   x2="126.5"
   y2="100.5"
   style="stroke-width:12;stroke-linecap:round"
   id="line1626" />
<path
   d="M 92.5,0.5 L 92.5,0.5 C 92.5,24.809 86.074,48.691 73.883,69.719"
   style="stroke-width:12;stroke-linecap:round;stroke-linejoin:round"
   id="path1628" />
<line
   x1="132.5"
   y1="90.5"
   x2="120.5"
   y2="110.5"
   style="stroke-width:12"
   id="line1630" />
<path
   d="M 134.99,140.5 L 134.98,140.71 L 134.95,140.91 L 134.89,141.11 L 134.82,141.31 L 134.72,141.51 L 134.61,141.7 L 134.48,141.89 L 134.32,142.07 L 134.15,142.25 L 133.97,142.42 L 133.76,142.59 L 133.54,142.76 L 133.3,142.92 L 133.05,143.07 L 132.79,143.22 L 132.5,143.36 L 132.21,143.49 L 131.9,143.62 L 131.58,143.74 L 131.25,143.85 L 130.9,143.95 L 130.55,144.05 L 130.18,144.14 L 129.8,144.22 L 129.42,144.29 L 129.02,144.36 L 128.62,144.41 L 128.21,144.46 L 127.79,144.49 L 127.37,144.52 L 126.94,144.53 L 126.5,144.54 C 121.81,144.54 118.01,142.73 118.01,140.5 C 118.01,138.27 121.81,136.46 126.5,136.46 C 131.19,136.46 134.99,138.27 134.99,140.5 z "
   style="fill:#ffffff;fill-rule:nonzero;stroke:#ffffff;stroke-width:0;stroke-linecap:round;stroke-linejoin:round"
   id="path1632" />
<path
   d="M 134.99,140.5 L 134.98,140.71 L 134.95,140.91 L 134.89,141.11 L 134.82,141.31 L 134.72,141.51 L 134.61,141.7 L 134.48,141.89 L 134.32,142.07 L 134.15,142.25 L 133.97,142.42 L 133.76,142.59 L 133.54,142.76 L 133.3,142.92 L 133.05,143.07 L 132.79,143.22 L 132.5,143.36 L 132.21,143.49 L 131.9,143.62 L 131.58,143.74 L 131.25,143.85 L 130.9,143.95 L 130.55,144.05 L 130.18,144.14 L 129.8,144.22 L 129.42,144.29 L 129.02,144.36 L 128.62,144.41 L 128.21,144.46 L 127.79,144.49 L 127.37,144.52 L 126.94,144.53 L 126.5,144.54 C 121.81,144.54 118.01,142.73 118.01,140.5 C 118.01,138.27 121.81,136.46 126.5,136.46 C 131.19,136.46 134.99,138.27 134.99,140.5 z "
   style="stroke-width:0.84906;stroke-linecap:round;stroke-linejoin:round"
   id="path1634" />
<text
   transform="matrix(1,0,0,-1,121.19,137.98)"
   style="font-size:8px;fill:#000000;stroke:none;font-family:&quot;Helvetica&quot;, sans-serif"
   id="text1636">20</text>

<path
   d="M 90.5,65.5 L 90.469,66.735 L 90.376,67.954 L 90.223,69.155 L 90.012,70.337 L 89.744,71.498 L 89.421,72.637 L 89.044,73.752 L 88.614,74.841 L 88.133,75.905 L 87.603,76.939 L 87.025,77.944 L 86.401,78.918 L 85.732,79.859 L 85.019,80.766 L 84.265,81.637 L 83.47,82.47 L 82.637,83.265 L 81.766,84.019 L 80.859,84.732 L 79.918,85.401 L 78.944,86.025 L 77.939,86.603 L 76.905,87.133 L 75.841,87.614 L 74.752,88.044 L 73.637,88.421 L 72.498,88.744 L 71.337,89.012 L 70.155,89.223 L 68.954,89.376 L 67.735,89.469 L 66.5,89.5 C 53.246,89.5 42.5,78.754 42.5,65.5 C 42.5,52.246 53.246,41.5 66.5,41.5 C 79.754,41.5 90.5,52.246 90.5,65.5 z "
   style="fill:#ffffff;fill-rule:nonzero;stroke:#ffffff;stroke-width:0;stroke-linecap:round;stroke-linejoin:round"
   id="path1638" />
<path
   d="M 90.5,65.5 L 90.469,66.735 L 90.376,67.954 L 90.223,69.155 L 90.012,70.337 L 89.744,71.498 L 89.421,72.637 L 89.044,73.752 L 88.614,74.841 L 88.133,75.905 L 87.603,76.939 L 87.025,77.944 L 86.401,78.918 L 85.732,79.859 L 85.019,80.766 L 84.265,81.637 L 83.47,82.47 L 82.637,83.265 L 81.766,84.019 L 80.859,84.732 L 79.918,85.401 L 78.944,86.025 L 77.939,86.603 L 76.905,87.133 L 75.841,87.614 L 74.752,88.044 L 73.637,88.421 L 72.498,88.744 L 71.337,89.012 L 70.155,89.223 L 68.954,89.376 L 67.735,89.469 L 66.5,89.5 C 53.246,89.5 42.5,78.754 42.5,65.5 C 42.5,52.246 53.246,41.5 66.5,41.5 C 79.754,41.5 90.5,52.246 90.5,65.5 z "
   style="stroke-width:2;stroke-linecap:round;stroke-linejoin:round"
   id="path1640" />
<path
   d="M 66.992,20.5 L 66.981,20.708 L 66.948,20.913 L 66.894,21.115 L 66.82,21.314 L 66.725,21.509 L 66.61,21.701 L 66.477,21.889 L 66.324,22.072 L 66.154,22.251 L 65.967,22.425 L 65.762,22.594 L 65.541,22.758 L 65.304,22.917 L 65.052,23.069 L 64.785,23.216 L 64.504,23.356 L 64.209,23.49 L 63.901,23.617 L 63.58,23.737 L 63.247,23.849 L 62.902,23.954 L 62.547,24.052 L 62.181,24.141 L 61.804,24.222 L 61.419,24.294 L 61.024,24.357 L 60.621,24.412 L 60.211,24.457 L 59.793,24.493 L 59.368,24.518 L 58.937,24.534 L 58.5,24.539 C 53.812,24.539 50.008,22.73 50.008,20.5 C 50.008,18.27 53.812,16.461 58.5,16.461 C 63.188,16.461 66.992,18.27 66.992,20.5 z "
   style="fill:#ffffff;fill-rule:nonzero;stroke:#ffffff;stroke-width:0;stroke-linecap:round;stroke-linejoin:round"
   id="path1642" />
<path
   d="M 66.992,20.5 L 66.981,20.708 L 66.948,20.913 L 66.894,21.115 L 66.82,21.314 L 66.725,21.509 L 66.61,21.701 L 66.477,21.889 L 66.324,22.072 L 66.154,22.251 L 65.967,22.425 L 65.762,22.594 L 65.541,22.758 L 65.304,22.917 L 65.052,23.069 L 64.785,23.216 L 64.504,23.356 L 64.209,23.49 L 63.901,23.617 L 63.58,23.737 L 63.247,23.849 L 62.902,23.954 L 62.547,24.052 L 62.181,24.141 L 61.804,24.222 L 61.419,24.294 L 61.024,24.357 L 60.621,24.412 L 60.211,24.457 L 59.793,24.493 L 59.368,24.518 L 58.937,24.534 L 58.5,24.539 C 53.812,24.539 50.008,22.73 50.008,20.5 C 50.008,18.27 53.812,16.461 58.5,16.461 C 63.188,16.461 66.992,18.27 66.992,20.5 z "
   style="stroke-width:0.84906;stroke-linecap:round;stroke-linejoin:round"
   id="path1644" />
<text
   transform="matrix(1,0,0,-1,53.191,17.977)"
   style="font-size:8px;fill:#000000;stroke:none;font-family:&quot;Helvetica&quot;, sans-serif"
   id="text1646">10</text>

<text
   transform="matrix(1,0,0,-1,53.074,134.92)"
   style="font-size:16px;fill:#000000;stroke:none;font-family:&quot;Helvetica&quot;, sans-serif"
   id="text1648">V</text>

<polygon
   points="46.5,160.5 138.5,160.5 184.5,80.5 138.5,0.5 46.5,0.5 0.5,80.5 46.5,160.5 "
   style="stroke-width:1;stroke-linejoin:round"
   id="polygon1650" />
</g></svg>
