<?xml version="1.0" encoding="UTF-8" standalone="no"?>
<svg
   xmlns:dc="http://purl.org/dc/elements/1.1/"
   xmlns:cc="http://web.resource.org/cc/"
   xmlns:rdf="http://www.w3.org/1999/02/22-rdf-syntax-ns#"
   xmlns:svg="http://www.w3.org/2000/svg"
   xmlns="http://www.w3.org/2000/svg"
   xmlns:sodipodi="http://inkscape.sourceforge.net/DTD/sodipodi-0.dtd"
   xmlns:inkscape="http://www.inkscape.org/namespaces/inkscape"
   width="100"
   height="100"
   viewBox="0 0 1 1"
   preserveAspectRatio="none"
   id="svg6195"
   sodipodi:version="0.32"
   inkscape:version="0.43"
   sodipodi:docname="tile213.svg"
   sodipodi:docbase="C:\Documents and Settings\lentz\Desktop\TileDesigner"
   version="1.0">
  <metadata
     id="metadata6260">
    <rdf:RDF>
      <cc:Work
         rdf:about="">
        <dc:format>image/svg+xml</dc:format>
        <dc:type
           rdf:resource="http://purl.org/dc/dcmitype/StillImage" />
      </cc:Work>
    </rdf:RDF>
  </metadata>
  <defs
     id="defs6258" />
  <sodipodi:namedview
     inkscape:window-height="540"
     inkscape:window-width="749"
     inkscape:pageshadow="2"
     inkscape:pageopacity="0.0"
     borderopacity="1.0"
     bordercolor="#666666"
     pagecolor="#ffffff"
     id="base"
     inkscape:zoom="0.52361111"
     inkscape:cx="360"
     inkscape:cy="360"
     inkscape:window-x="242"
     inkscape:window-y="242"
     inkscape:current-layer="svg6195" />
  <title
     id="title6197">SVG drawing</title>
  <desc
     id="desc6199">This was produced by version 4.1 of GNU libplot, a free library for exporting 2-D vector graphics.</desc>
  <g
     transform="matrix(5.418114e-3,0,0,-5.739835e-3,-1.175565e-3,1.000747)"
     xml:space="preserve"
     style="font-style:normal;font-variant:normal;font-weight:normal;font-stretch:normal;letter-spacing:normal;word-spacing:normal;text-anchor:start;fill:none;fill-opacity:1;stroke:#000000;stroke-linecap:butt;stroke-linejoin:miter;stroke-miterlimit:10.43299961;stroke-dasharray:none;stroke-dashoffset:0;stroke-opacity:1"
     id="g6203">
<polygon
   points="46.5,160.5 138.5,160.5 184.5,80.5 138.5,0.5 46.5,0.5 0.5,80.5 46.5,160.5 "
   style="fill:#38ac00;fill-rule:nonzero;stroke:#38ac00;stroke-width:0;stroke-linejoin:round"
   id="polygon6205" />
<text
   transform="matrix(1,0,0,-1,109.23,7.9141)"
   style="font-size:8px;fill:#000000;stroke:none;font-family:&quot;Helvetica&quot;, sans-serif"
   id="text6207">213</text>

<path
   d="M 150.5,80.5 L 150.47,81.735 L 150.38,82.954 L 150.22,84.155 L 150.01,85.337 L 149.74,86.498 L 149.42,87.637 L 149.04,88.752 L 148.61,89.841 L 148.13,90.905 L 147.6,91.939 L 147.03,92.944 L 146.4,93.918 L 145.73,94.859 L 145.02,95.766 L 144.26,96.637 L 143.47,97.47 L 142.64,98.265 L 141.77,99.019 L 140.86,99.732 L 139.92,100.4 L 138.94,101.03 L 137.94,101.6 L 136.9,102.13 L 135.84,102.61 L 134.75,103.04 L 133.64,103.42 L 132.5,103.74 L 131.34,104.01 L 130.15,104.22 L 128.95,104.38 L 127.73,104.47 L 126.5,104.5 C 113.25,104.5 102.5,93.754 102.5,80.5 C 102.5,67.246 113.25,56.5 126.5,56.5 C 139.75,56.5 150.5,67.246 150.5,80.5 z "
   style="fill:#ffffff;fill-rule:nonzero;stroke:#ffffff;stroke-width:0;stroke-linecap:round;stroke-linejoin:round"
   id="path6209" />
<path
   d="M 150.5,80.5 L 150.47,81.735 L 150.38,82.954 L 150.22,84.155 L 150.01,85.337 L 149.74,86.498 L 149.42,87.637 L 149.04,88.752 L 148.61,89.841 L 148.13,90.905 L 147.6,91.939 L 147.03,92.944 L 146.4,93.918 L 145.73,94.859 L 145.02,95.766 L 144.26,96.637 L 143.47,97.47 L 142.64,98.265 L 141.77,99.019 L 140.86,99.732 L 139.92,100.4 L 138.94,101.03 L 137.94,101.6 L 136.9,102.13 L 135.84,102.61 L 134.75,103.04 L 133.64,103.42 L 132.5,103.74 L 131.34,104.01 L 130.15,104.22 L 128.95,104.38 L 127.73,104.47 L 126.5,104.5 C 113.25,104.5 102.5,93.754 102.5,80.5 C 102.5,67.246 113.25,56.5 126.5,56.5 C 139.75,56.5 150.5,67.246 150.5,80.5 z "
   style="stroke:#ffffff;stroke-width:6;stroke-linecap:round;stroke-linejoin:round"
   id="path6211" />
<path
   d="M 70.5,80.5 L 70.469,81.735 L 70.376,82.954 L 70.223,84.155 L 70.012,85.337 L 69.744,86.498 L 69.421,87.637 L 69.044,88.752 L 68.614,89.841 L 68.133,90.905 L 67.603,91.939 L 67.025,92.944 L 66.401,93.918 L 65.732,94.859 L 65.019,95.766 L 64.265,96.637 L 63.47,97.47 L 62.637,98.265 L 61.766,99.019 L 60.859,99.732 L 59.918,100.4 L 58.944,101.03 L 57.939,101.6 L 56.905,102.13 L 55.841,102.61 L 54.752,103.04 L 53.637,103.42 L 52.498,103.74 L 51.337,104.01 L 50.155,104.22 L 48.954,104.38 L 47.735,104.47 L 46.5,104.5 C 33.246,104.5 22.5,93.754 22.5,80.5 C 22.5,67.246 33.246,56.5 46.5,56.5 C 59.754,56.5 70.5,67.246 70.5,80.5 z "
   style="fill:#ffffff;fill-rule:nonzero;stroke:#ffffff;stroke-width:0;stroke-linecap:round;stroke-linejoin:round"
   id="path6213" />
<path
   d="M 70.5,80.5 L 70.469,81.735 L 70.376,82.954 L 70.223,84.155 L 70.012,85.337 L 69.744,86.498 L 69.421,87.637 L 69.044,88.752 L 68.614,89.841 L 68.133,90.905 L 67.603,91.939 L 67.025,92.944 L 66.401,93.918 L 65.732,94.859 L 65.019,95.766 L 64.265,96.637 L 63.47,97.47 L 62.637,98.265 L 61.766,99.019 L 60.859,99.732 L 59.918,100.4 L 58.944,101.03 L 57.939,101.6 L 56.905,102.13 L 55.841,102.61 L 54.752,103.04 L 53.637,103.42 L 52.498,103.74 L 51.337,104.01 L 50.155,104.22 L 48.954,104.38 L 47.735,104.47 L 46.5,104.5 C 33.246,104.5 22.5,93.754 22.5,80.5 C 22.5,67.246 33.246,56.5 46.5,56.5 C 59.754,56.5 70.5,67.246 70.5,80.5 z "
   style="stroke:#ffffff;stroke-width:6;stroke-linecap:round;stroke-linejoin:round"
   id="path6215" />
<path
   d="M 92.5,160.5 L 92.5,160.5 C 92.5,132.33 101.12,104.82 117.21,81.695"
   style="stroke:#ffffff;stroke-width:16;stroke-linecap:round;stroke-linejoin:round"
   id="path6217" />
<path
   d="M 115.5,80.5 L 117.22,81.688 C 128.85,64.965 144.05,51.02 161.71,40.867"
   style="stroke:#ffffff;stroke-width:16;stroke-linecap:round;stroke-linejoin:round"
   id="path6219" />
<path
   d="M 23.5,40.5 L 23.434,40.625 C 37.703,48.828 46.5,64.039 46.5,80.5"
   style="stroke:#ffffff;stroke-width:16;stroke-linecap:round;stroke-linejoin:round"
   id="path6221" />
<path
   d="M 46.5,80.5 L 46.5,80.5 C 46.5,96.961 37.703,112.17 23.434,120.38"
   style="stroke:#ffffff;stroke-width:16;stroke-linecap:round;stroke-linejoin:round"
   id="path6223" />
<path
   d="M 92.5,160.5 L 92.5,160.5 C 92.5,132.33 101.12,104.82 117.21,81.695"
   style="stroke-width:12;stroke-linecap:round;stroke-linejoin:round"
   id="path6225" />
<path
   d="M 115.5,80.5 L 117.22,81.688 C 128.85,64.965 144.05,51.02 161.71,40.867"
   style="stroke-width:12;stroke-linecap:round;stroke-linejoin:round"
   id="path6227" />
<path
   d="M 23.5,40.5 L 23.434,40.625 C 37.703,48.828 46.5,64.039 46.5,80.5"
   style="stroke-width:12;stroke-linecap:round;stroke-linejoin:round"
   id="path6229" />
<path
   d="M 46.5,80.5 L 46.5,80.5 C 46.5,96.961 37.703,112.17 23.434,120.38"
   style="stroke-width:12;stroke-linecap:round;stroke-linejoin:round"
   id="path6231" />
<path
   d="M 150.5,80.5 L 150.47,81.735 L 150.38,82.954 L 150.22,84.155 L 150.01,85.337 L 149.74,86.498 L 149.42,87.637 L 149.04,88.752 L 148.61,89.841 L 148.13,90.905 L 147.6,91.939 L 147.03,92.944 L 146.4,93.918 L 145.73,94.859 L 145.02,95.766 L 144.26,96.637 L 143.47,97.47 L 142.64,98.265 L 141.77,99.019 L 140.86,99.732 L 139.92,100.4 L 138.94,101.03 L 137.94,101.6 L 136.9,102.13 L 135.84,102.61 L 134.75,103.04 L 133.64,103.42 L 132.5,103.74 L 131.34,104.01 L 130.15,104.22 L 128.95,104.38 L 127.73,104.47 L 126.5,104.5 C 113.25,104.5 102.5,93.754 102.5,80.5 C 102.5,67.246 113.25,56.5 126.5,56.5 C 139.75,56.5 150.5,67.246 150.5,80.5 z "
   style="fill:#ffffff;fill-rule:nonzero;stroke:#ffffff;stroke-width:0;stroke-linecap:round;stroke-linejoin:round"
   id="path6233" />
<path
   d="M 150.5,80.5 L 150.47,81.735 L 150.38,82.954 L 150.22,84.155 L 150.01,85.337 L 149.74,86.498 L 149.42,87.637 L 149.04,88.752 L 148.61,89.841 L 148.13,90.905 L 147.6,91.939 L 147.03,92.944 L 146.4,93.918 L 145.73,94.859 L 145.02,95.766 L 144.26,96.637 L 143.47,97.47 L 142.64,98.265 L 141.77,99.019 L 140.86,99.732 L 139.92,100.4 L 138.94,101.03 L 137.94,101.6 L 136.9,102.13 L 135.84,102.61 L 134.75,103.04 L 133.64,103.42 L 132.5,103.74 L 131.34,104.01 L 130.15,104.22 L 128.95,104.38 L 127.73,104.47 L 126.5,104.5 C 113.25,104.5 102.5,93.754 102.5,80.5 C 102.5,67.246 113.25,56.5 126.5,56.5 C 139.75,56.5 150.5,67.246 150.5,80.5 z "
   style="stroke-width:2;stroke-linecap:round;stroke-linejoin:round"
   id="path6235" />
<path
   d="M 134.99,140.5 L 134.98,140.71 L 134.95,140.91 L 134.89,141.11 L 134.82,141.31 L 134.72,141.51 L 134.61,141.7 L 134.48,141.89 L 134.32,142.07 L 134.15,142.25 L 133.97,142.42 L 133.76,142.59 L 133.54,142.76 L 133.3,142.92 L 133.05,143.07 L 132.79,143.22 L 132.5,143.36 L 132.21,143.49 L 131.9,143.62 L 131.58,143.74 L 131.25,143.85 L 130.9,143.95 L 130.55,144.05 L 130.18,144.14 L 129.8,144.22 L 129.42,144.29 L 129.02,144.36 L 128.62,144.41 L 128.21,144.46 L 127.79,144.49 L 127.37,144.52 L 126.94,144.53 L 126.5,144.54 C 121.81,144.54 118.01,142.73 118.01,140.5 C 118.01,138.27 121.81,136.46 126.5,136.46 C 131.19,136.46 134.99,138.27 134.99,140.5 z "
   style="fill:#ffffff;fill-rule:nonzero;stroke:#ffffff;stroke-width:0;stroke-linecap:round;stroke-linejoin:round"
   id="path6237" />
<path
   d="M 134.99,140.5 L 134.98,140.71 L 134.95,140.91 L 134.89,141.11 L 134.82,141.31 L 134.72,141.51 L 134.61,141.7 L 134.48,141.89 L 134.32,142.07 L 134.15,142.25 L 133.97,142.42 L 133.76,142.59 L 133.54,142.76 L 133.3,142.92 L 133.05,143.07 L 132.79,143.22 L 132.5,143.36 L 132.21,143.49 L 131.9,143.62 L 131.58,143.74 L 131.25,143.85 L 130.9,143.95 L 130.55,144.05 L 130.18,144.14 L 129.8,144.22 L 129.42,144.29 L 129.02,144.36 L 128.62,144.41 L 128.21,144.46 L 127.79,144.49 L 127.37,144.52 L 126.94,144.53 L 126.5,144.54 C 121.81,144.54 118.01,142.73 118.01,140.5 C 118.01,138.27 121.81,136.46 126.5,136.46 C 131.19,136.46 134.99,138.27 134.99,140.5 z "
   style="stroke-width:0.84906;stroke-linecap:round;stroke-linejoin:round"
   id="path6239" />
<text
   transform="matrix(1,0,0,-1,121.19,137.98)"
   style="font-size:8px;fill:#000000;stroke:none;font-family:&quot;Helvetica&quot;, sans-serif"
   id="text6241">30</text>

<path
   d="M 70.5,80.5 L 70.469,81.735 L 70.376,82.954 L 70.223,84.155 L 70.012,85.337 L 69.744,86.498 L 69.421,87.637 L 69.044,88.752 L 68.614,89.841 L 68.133,90.905 L 67.603,91.939 L 67.025,92.944 L 66.401,93.918 L 65.732,94.859 L 65.019,95.766 L 64.265,96.637 L 63.47,97.47 L 62.637,98.265 L 61.766,99.019 L 60.859,99.732 L 59.918,100.4 L 58.944,101.03 L 57.939,101.6 L 56.905,102.13 L 55.841,102.61 L 54.752,103.04 L 53.637,103.42 L 52.498,103.74 L 51.337,104.01 L 50.155,104.22 L 48.954,104.38 L 47.735,104.47 L 46.5,104.5 C 33.246,104.5 22.5,93.754 22.5,80.5 C 22.5,67.246 33.246,56.5 46.5,56.5 C 59.754,56.5 70.5,67.246 70.5,80.5 z "
   style="fill:#ffffff;fill-rule:nonzero;stroke:#ffffff;stroke-width:0;stroke-linecap:round;stroke-linejoin:round"
   id="path6243" />
<path
   d="M 70.5,80.5 L 70.469,81.735 L 70.376,82.954 L 70.223,84.155 L 70.012,85.337 L 69.744,86.498 L 69.421,87.637 L 69.044,88.752 L 68.614,89.841 L 68.133,90.905 L 67.603,91.939 L 67.025,92.944 L 66.401,93.918 L 65.732,94.859 L 65.019,95.766 L 64.265,96.637 L 63.47,97.47 L 62.637,98.265 L 61.766,99.019 L 60.859,99.732 L 59.918,100.4 L 58.944,101.03 L 57.939,101.6 L 56.905,102.13 L 55.841,102.61 L 54.752,103.04 L 53.637,103.42 L 52.498,103.74 L 51.337,104.01 L 50.155,104.22 L 48.954,104.38 L 47.735,104.47 L 46.5,104.5 C 33.246,104.5 22.5,93.754 22.5,80.5 C 22.5,67.246 33.246,56.5 46.5,56.5 C 59.754,56.5 70.5,67.246 70.5,80.5 z "
   style="stroke-width:2;stroke-linecap:round;stroke-linejoin:round"
   id="path6245" />
<path
   d="M 66.992,140.5 L 66.981,140.71 L 66.948,140.91 L 66.894,141.11 L 66.82,141.31 L 66.725,141.51 L 66.61,141.7 L 66.477,141.89 L 66.324,142.07 L 66.154,142.25 L 65.967,142.42 L 65.762,142.59 L 65.541,142.76 L 65.304,142.92 L 65.052,143.07 L 64.785,143.22 L 64.504,143.36 L 64.209,143.49 L 63.901,143.62 L 63.58,143.74 L 63.247,143.85 L 62.902,143.95 L 62.547,144.05 L 62.181,144.14 L 61.804,144.22 L 61.419,144.29 L 61.024,144.36 L 60.621,144.41 L 60.211,144.46 L 59.793,144.49 L 59.368,144.52 L 58.937,144.53 L 58.5,144.54 C 53.812,144.54 50.008,142.73 50.008,140.5 C 50.008,138.27 53.812,136.46 58.5,136.46 C 63.188,136.46 66.992,138.27 66.992,140.5 z "
   style="fill:#ffffff;fill-rule:nonzero;stroke:#ffffff;stroke-width:0;stroke-linecap:round;stroke-linejoin:round"
   id="path6247" />
<path
   d="M 66.992,140.5 L 66.981,140.71 L 66.948,140.91 L 66.894,141.11 L 66.82,141.31 L 66.725,141.51 L 66.61,141.7 L 66.477,141.89 L 66.324,142.07 L 66.154,142.25 L 65.967,142.42 L 65.762,142.59 L 65.541,142.76 L 65.304,142.92 L 65.052,143.07 L 64.785,143.22 L 64.504,143.36 L 64.209,143.49 L 63.901,143.62 L 63.58,143.74 L 63.247,143.85 L 62.902,143.95 L 62.547,144.05 L 62.181,144.14 L 61.804,144.22 L 61.419,144.29 L 61.024,144.36 L 60.621,144.41 L 60.211,144.46 L 59.793,144.49 L 59.368,144.52 L 58.937,144.53 L 58.5,144.54 C 53.812,144.54 50.008,142.73 50.008,140.5 C 50.008,138.27 53.812,136.46 58.5,136.46 C 63.188,136.46 66.992,138.27 66.992,140.5 z "
   style="stroke-width:0.84906;stroke-linecap:round;stroke-linejoin:round"
   id="path6249" />
<text
   transform="matrix(1,0,0,-1,53.191,137.98)"
   style="font-size:8px;fill:#000000;stroke:none;font-family:&quot;Helvetica&quot;, sans-serif"
   id="text6251">30</text>

<text
   transform="matrix(1,0,0,-1,48.023,14.918)"
   style="font-size:16px;fill:#000000;stroke:none;font-family:&quot;Helvetica&quot;, sans-serif"
   id="text6253">XX</text>

<polygon
   points="46.5,160.5 138.5,160.5 184.5,80.5 138.5,0.5 46.5,0.5 0.5,80.5 46.5,160.5 "
   style="stroke-width:1;stroke-linejoin:round"
   id="polygon6255" />
</g></svg>
