<?xml version="1.0" encoding="UTF-8" standalone="no"?>
<svg
   xmlns:dc="http://purl.org/dc/elements/1.1/"
   xmlns:cc="http://web.resource.org/cc/"
   xmlns:rdf="http://www.w3.org/1999/02/22-rdf-syntax-ns#"
   xmlns:svg="http://www.w3.org/2000/svg"
   xmlns="http://www.w3.org/2000/svg"
   xmlns:sodipodi="http://sodipodi.sourceforge.net/DTD/sodipodi-0.dtd"
   xmlns:inkscape="http://www.inkscape.org/namespaces/inkscape"
   width="100"
   height="100"
   viewBox="0 0 1 1"
   preserveAspectRatio="none"
   id="svg9567"
   sodipodi:version="0.32"
   inkscape:version="0.45.1"
   sodipodi:docname="tile393.svg"
   sodipodi:docbase="C:\Documents and Settings\Brett\workspace\18xx\tiles\svg"
   version="1.0"
   inkscape:output_extension="org.inkscape.output.svg.inkscape">
  <metadata
     id="metadata9634">
    <rdf:RDF>
      <cc:Work
         rdf:about="">
        <dc:format>image/svg+xml</dc:format>
        <dc:type
           rdf:resource="http://purl.org/dc/dcmitype/StillImage" />
      </cc:Work>
    </rdf:RDF>
  </metadata>
  <defs
     id="defs9632" />
  <sodipodi:namedview
     inkscape:window-height="579"
     inkscape:window-width="749"
     inkscape:pageshadow="2"
     inkscape:pageopacity="0.0"
     borderopacity="1.0"
     bordercolor="#666666"
     pagecolor="#ffffff"
     id="base"
     inkscape:zoom="2.5375"
     inkscape:cx="53.474801"
     inkscape:cy="35.80144"
     inkscape:window-x="110"
     inkscape:window-y="110"
     inkscape:current-layer="svg9567" />
  <title
     id="title9569">SVG drawing</title>
  <desc
     id="desc9571">This was produced by version 4.1 of GNU libplot, a free library for exporting 2-D vector graphics.</desc>
  <g
     transform="matrix(5.4170804e-3,0,0,-6.1391785e-3,-1.0799565e-3,0.9988687)"
     xml:space="preserve"
     style="font-style:normal;font-variant:normal;font-weight:normal;font-stretch:normal;letter-spacing:normal;word-spacing:normal;text-anchor:start;fill:none;fill-opacity:1;stroke:#000000;stroke-linecap:butt;stroke-linejoin:miter;stroke-miterlimit:10.43299961;stroke-dasharray:none;stroke-dashoffset:0;stroke-opacity:1"
     id="g9575">
<polygon
   points="46.5,160.5 138.5,160.5 184.5,80.5 138.5,0.5 46.5,0.5 0.5,80.5 46.5,160.5 "
   style="fill:#38ac00;fill-rule:nonzero;stroke:#38ac00;stroke-width:0;stroke-linejoin:round"
   id="polygon9577" />
<text
   transform="matrix(1,0,0,-1,109.23,7.9141)"
   style="font-size:8px;fill:#000000;stroke:none;font-family:&quot;Helvetica&quot;, sans-serif"
   id="text9579">393</text>


<polygon
   points="68.5,56.5 116.5,56.5 116.5,104.5 68.5,104.5 68.5,56.5 "
   style="fill:#ffffff;fill-rule:nonzero;stroke:#ffffff;stroke-width:0;stroke-linejoin:round"
   id="polygon9581" />
<polygon
   points="68.5,56.5 116.5,56.5 116.5,104.5 68.5,104.5 68.5,56.5 "
   style="stroke:#ffffff;stroke-width:6;stroke-linejoin:round"
   id="polygon9583" />
<path
   d="M 92.5,80.5 L 92.469,81.735 L 92.376,82.954 L 92.223,84.155 L 92.012,85.337 L 91.744,86.498 L 91.421,87.637 L 91.044,88.752 L 90.614,89.841 L 90.133,90.905 L 89.603,91.939 L 89.025,92.944 L 88.401,93.918 L 87.732,94.859 L 87.019,95.766 L 86.265,96.637 L 85.47,97.47 L 84.637,98.265 L 83.766,99.019 L 82.859,99.732 L 81.918,100.4 L 80.944,101.03 L 79.939,101.6 L 78.905,102.13 L 77.841,102.61 L 76.752,103.04 L 75.637,103.42 L 74.498,103.74 L 73.337,104.01 L 72.155,104.22 L 70.954,104.38 L 69.735,104.47 L 68.5,104.5 C 55.246,104.5 44.5,93.754 44.5,80.5 C 44.5,67.246 55.246,56.5 68.5,56.5 C 81.754,56.5 92.5,67.246 92.5,80.5 z "
   style="fill:#ffffff;fill-rule:nonzero;stroke:#ffffff;stroke-width:0;stroke-linecap:round;stroke-linejoin:round"
   id="path9585" />
<path
   d="M 92.5,80.5 L 92.469,81.735 L 92.376,82.954 L 92.223,84.155 L 92.012,85.337 L 91.744,86.498 L 91.421,87.637 L 91.044,88.752 L 90.614,89.841 L 90.133,90.905 L 89.603,91.939 L 89.025,92.944 L 88.401,93.918 L 87.732,94.859 L 87.019,95.766 L 86.265,96.637 L 85.47,97.47 L 84.637,98.265 L 83.766,99.019 L 82.859,99.732 L 81.918,100.4 L 80.944,101.03 L 79.939,101.6 L 78.905,102.13 L 77.841,102.61 L 76.752,103.04 L 75.637,103.42 L 74.498,103.74 L 73.337,104.01 L 72.155,104.22 L 70.954,104.38 L 69.735,104.47 L 68.5,104.5 C 55.246,104.5 44.5,93.754 44.5,80.5 C 44.5,67.246 55.246,56.5 68.5,56.5 C 81.754,56.5 92.5,67.246 92.5,80.5 z "
   style="stroke:#ffffff;stroke-width:6;stroke-linecap:round;stroke-linejoin:round"
   id="path9587" />
<path
   d="M 140.5,80.5 L 140.47,81.735 L 140.38,82.954 L 140.22,84.155 L 140.01,85.337 L 139.74,86.498 L 139.42,87.637 L 139.04,88.752 L 138.61,89.841 L 138.13,90.905 L 137.6,91.939 L 137.03,92.944 L 136.4,93.918 L 135.73,94.859 L 135.02,95.766 L 134.26,96.637 L 133.47,97.47 L 132.64,98.265 L 131.77,99.019 L 130.86,99.732 L 129.92,100.4 L 128.94,101.03 L 127.94,101.6 L 126.9,102.13 L 125.84,102.61 L 124.75,103.04 L 123.64,103.42 L 122.5,103.74 L 121.34,104.01 L 120.15,104.22 L 118.95,104.38 L 117.73,104.47 L 116.5,104.5 C 103.25,104.5 92.5,93.754 92.5,80.5 C 92.5,67.246 103.25,56.5 116.5,56.5 C 129.75,56.5 140.5,67.246 140.5,80.5 z "
   style="fill:#ffffff;fill-rule:nonzero;stroke:#ffffff;stroke-width:0;stroke-linecap:round;stroke-linejoin:round"
   id="path9589" />
<path
   d="M 140.5,80.5 L 140.47,81.735 L 140.38,82.954 L 140.22,84.155 L 140.01,85.337 L 139.74,86.498 L 139.42,87.637 L 139.04,88.752 L 138.61,89.841 L 138.13,90.905 L 137.6,91.939 L 137.03,92.944 L 136.4,93.918 L 135.73,94.859 L 135.02,95.766 L 134.26,96.637 L 133.47,97.47 L 132.64,98.265 L 131.77,99.019 L 130.86,99.732 L 129.92,100.4 L 128.94,101.03 L 127.94,101.6 L 126.9,102.13 L 125.84,102.61 L 124.75,103.04 L 123.64,103.42 L 122.5,103.74 L 121.34,104.01 L 120.15,104.22 L 118.95,104.38 L 117.73,104.47 L 116.5,104.5 C 103.25,104.5 92.5,93.754 92.5,80.5 C 92.5,67.246 103.25,56.5 116.5,56.5 C 129.75,56.5 140.5,67.246 140.5,80.5 z "
   style="stroke:#ffffff;stroke-width:6;stroke-linecap:round;stroke-linejoin:round"
   id="path9591" />
<line
   x1="92.5"
   y1="80.5"
   x2="23.5"
   y2="120.5"
   style="stroke:#ffffff;stroke-width:16;stroke-linecap:round"
   id="line9593" />
<line
   x1="92.5"
   y1="80.5"
   x2="161.5"
   y2="40.5"
   style="stroke:#ffffff;stroke-width:16;stroke-linecap:round"
   id="line9595" />
<line
   x1="92.5"
   y1="80.5"
   x2="92.5"
   y2="0.5"
   style="stroke:#ffffff;stroke-width:16;stroke-linecap:round"
   id="line9597" />
<line
   x1="92.5"
   y1="80.5"
   x2="23.5"
   y2="40.5"
   style="stroke:#ffffff;stroke-width:16;stroke-linecap:round"
   id="line9599" />
<line
   x1="92.5"
   y1="80.5"
   x2="23.5"
   y2="120.5"
   style="stroke-width:12;stroke-linecap:round"
   id="line9601" />
<line
   x1="92.5"
   y1="80.5"
   x2="161.5"
   y2="40.5"
   style="stroke-width:12;stroke-linecap:round"
   id="line9603" />
<line
   x1="92.5"
   y1="80.5"
   x2="92.5"
   y2="0.5"
   style="stroke-width:12;stroke-linecap:round"
   id="line9605" />
<line
   x1="92.5"
   y1="80.5"
   x2="23.5"
   y2="40.5"
   style="stroke-width:12;stroke-linecap:round"
   id="line9607" />
<polygon
   points="68.5,56.5 116.5,56.5 116.5,104.5 68.5,104.5 68.5,56.5 "
   style="fill:#ffffff;fill-rule:nonzero;stroke:#ffffff;stroke-width:0;stroke-linejoin:round"
   id="polygon9609" />
<polygon
   points="68.5,56.5 116.5,56.5 116.5,104.5 68.5,104.5 68.5,56.5 "
   style="stroke-width:2;stroke-linejoin:round"
   id="polygon9611" />
<path
   d="M 92.5,80.5 L 92.469,81.735 L 92.376,82.954 L 92.223,84.155 L 92.012,85.337 L 91.744,86.498 L 91.421,87.637 L 91.044,88.752 L 90.614,89.841 L 90.133,90.905 L 89.603,91.939 L 89.025,92.944 L 88.401,93.918 L 87.732,94.859 L 87.019,95.766 L 86.265,96.637 L 85.47,97.47 L 84.637,98.265 L 83.766,99.019 L 82.859,99.732 L 81.918,100.4 L 80.944,101.03 L 79.939,101.6 L 78.905,102.13 L 77.841,102.61 L 76.752,103.04 L 75.637,103.42 L 74.498,103.74 L 73.337,104.01 L 72.155,104.22 L 70.954,104.38 L 69.735,104.47 L 68.5,104.5 C 55.246,104.5 44.5,93.754 44.5,80.5 C 44.5,67.246 55.246,56.5 68.5,56.5 C 81.754,56.5 92.5,67.246 92.5,80.5 z "
   style="fill:#ffffff;fill-rule:nonzero;stroke:#ffffff;stroke-width:0;stroke-linecap:round;stroke-linejoin:round"
   id="path9613" />
<path
   d="M 92.5,80.5 L 92.469,81.735 L 92.376,82.954 L 92.223,84.155 L 92.012,85.337 L 91.744,86.498 L 91.421,87.637 L 91.044,88.752 L 90.614,89.841 L 90.133,90.905 L 89.603,91.939 L 89.025,92.944 L 88.401,93.918 L 87.732,94.859 L 87.019,95.766 L 86.265,96.637 L 85.47,97.47 L 84.637,98.265 L 83.766,99.019 L 82.859,99.732 L 81.918,100.4 L 80.944,101.03 L 79.939,101.6 L 78.905,102.13 L 77.841,102.61 L 76.752,103.04 L 75.637,103.42 L 74.498,103.74 L 73.337,104.01 L 72.155,104.22 L 70.954,104.38 L 69.735,104.47 L 68.5,104.5 C 55.246,104.5 44.5,93.754 44.5,80.5 C 44.5,67.246 55.246,56.5 68.5,56.5 C 81.754,56.5 92.5,67.246 92.5,80.5 z "
   style="stroke-width:2;stroke-linecap:round;stroke-linejoin:round"
   id="path9615" />
<path
   d="M 140.5,80.5 L 140.47,81.735 L 140.38,82.954 L 140.22,84.155 L 140.01,85.337 L 139.74,86.498 L 139.42,87.637 L 139.04,88.752 L 138.61,89.841 L 138.13,90.905 L 137.6,91.939 L 137.03,92.944 L 136.4,93.918 L 135.73,94.859 L 135.02,95.766 L 134.26,96.637 L 133.47,97.47 L 132.64,98.265 L 131.77,99.019 L 130.86,99.732 L 129.92,100.4 L 128.94,101.03 L 127.94,101.6 L 126.9,102.13 L 125.84,102.61 L 124.75,103.04 L 123.64,103.42 L 122.5,103.74 L 121.34,104.01 L 120.15,104.22 L 118.95,104.38 L 117.73,104.47 L 116.5,104.5 C 103.25,104.5 92.5,93.754 92.5,80.5 C 92.5,67.246 103.25,56.5 116.5,56.5 C 129.75,56.5 140.5,67.246 140.5,80.5 z "
   style="fill:#ffffff;fill-rule:nonzero;stroke:#ffffff;stroke-width:0;stroke-linecap:round;stroke-linejoin:round"
   id="path9617" />
<path
   d="M 140.5,80.5 L 140.47,81.735 L 140.38,82.954 L 140.22,84.155 L 140.01,85.337 L 139.74,86.498 L 139.42,87.637 L 139.04,88.752 L 138.61,89.841 L 138.13,90.905 L 137.6,91.939 L 137.03,92.944 L 136.4,93.918 L 135.73,94.859 L 135.02,95.766 L 134.26,96.637 L 133.47,97.47 L 132.64,98.265 L 131.77,99.019 L 130.86,99.732 L 129.92,100.4 L 128.94,101.03 L 127.94,101.6 L 126.9,102.13 L 125.84,102.61 L 124.75,103.04 L 123.64,103.42 L 122.5,103.74 L 121.34,104.01 L 120.15,104.22 L 118.95,104.38 L 117.73,104.47 L 116.5,104.5 C 103.25,104.5 92.5,93.754 92.5,80.5 C 92.5,67.246 103.25,56.5 116.5,56.5 C 129.75,56.5 140.5,67.246 140.5,80.5 z "
   style="stroke-width:2;stroke-linecap:round;stroke-linejoin:round"
   id="path9619" />
<path
   d="M 66.992,140.5 L 66.981,140.71 L 66.948,140.91 L 66.894,141.11 L 66.82,141.31 L 66.725,141.51 L 66.61,141.7 L 66.477,141.89 L 66.324,142.07 L 66.154,142.25 L 65.967,142.42 L 65.762,142.59 L 65.541,142.76 L 65.304,142.92 L 65.052,143.07 L 64.785,143.22 L 64.504,143.36 L 64.209,143.49 L 63.901,143.62 L 63.58,143.74 L 63.247,143.85 L 62.902,143.95 L 62.547,144.05 L 62.181,144.14 L 61.804,144.22 L 61.419,144.29 L 61.024,144.36 L 60.621,144.41 L 60.211,144.46 L 59.793,144.49 L 59.368,144.52 L 58.937,144.53 L 58.5,144.54 C 53.812,144.54 50.008,142.73 50.008,140.5 C 50.008,138.27 53.812,136.46 58.5,136.46 C 63.188,136.46 66.992,138.27 66.992,140.5 z "
   style="fill:#ffffff;fill-rule:nonzero;stroke:#ffffff;stroke-width:0;stroke-linecap:round;stroke-linejoin:round"
   id="path9621" />
<path
   d="M 66.992,140.5 L 66.981,140.71 L 66.948,140.91 L 66.894,141.11 L 66.82,141.31 L 66.725,141.51 L 66.61,141.7 L 66.477,141.89 L 66.324,142.07 L 66.154,142.25 L 65.967,142.42 L 65.762,142.59 L 65.541,142.76 L 65.304,142.92 L 65.052,143.07 L 64.785,143.22 L 64.504,143.36 L 64.209,143.49 L 63.901,143.62 L 63.58,143.74 L 63.247,143.85 L 62.902,143.95 L 62.547,144.05 L 62.181,144.14 L 61.804,144.22 L 61.419,144.29 L 61.024,144.36 L 60.621,144.41 L 60.211,144.46 L 59.793,144.49 L 59.368,144.52 L 58.937,144.53 L 58.5,144.54 C 53.812,144.54 50.008,142.73 50.008,140.5 C 50.008,138.27 53.812,136.46 58.5,136.46 C 63.188,136.46 66.992,138.27 66.992,140.5 z "
   style="stroke-width:0.84906;stroke-linecap:round;stroke-linejoin:round"
   id="path9623" />
<text
   transform="matrix(1,0,0,-1,53.191,137.98)"
   style="font-size:8px;fill:#000000;stroke:none;font-family:&quot;Helvetica&quot;, sans-serif"
   id="text9625">30</text>


<text
   transform="matrix(1,0,0,-1,8.4219,74.918)"
   style="font-size:16px;fill:#000000;stroke:none;font-family:&quot;Helvetica&quot;, sans-serif"
   id="text9627">Aug</text>


<polygon
   points="46.5,160.5 138.5,160.5 184.5,80.5 138.5,0.5 46.5,0.5 0.5,80.5 46.5,160.5 "
   style="stroke-width:1;stroke-linejoin:round"
   id="polygon9629" />
</g></svg>
