<?xml version="1.0" encoding="UTF-8" standalone="no"?>
<svg
   xmlns:dc="http://purl.org/dc/elements/1.1/"
   xmlns:cc="http://web.resource.org/cc/"
   xmlns:rdf="http://www.w3.org/1999/02/22-rdf-syntax-ns#"
   xmlns:svg="http://www.w3.org/2000/svg"
   xmlns="http://www.w3.org/2000/svg"
   xmlns:sodipodi="http://inkscape.sourceforge.net/DTD/sodipodi-0.dtd"
   xmlns:inkscape="http://www.inkscape.org/namespaces/inkscape"
   width="80pt"
   height="80pt"
   viewBox="0 0 1 1"
   preserveAspectRatio="none"
   id="svg2"
   sodipodi:version="0.32"
   inkscape:version="0.43"
   sodipodi:docname="tile-810.svg"
   sodipodi:docbase="C:\Documents and Settings\lentz\Desktop\Brett\TileDesigner\images\TileDictionary"
   version="1.0">
  <metadata
     id="metadata89">
    <rdf:RDF>
      <cc:Work
         rdf:about="">
        <dc:format>image/svg+xml</dc:format>
        <dc:type
           rdf:resource="http://purl.org/dc/dcmitype/StillImage" />
      </cc:Work>
    </rdf:RDF>
  </metadata>
  <defs
     id="defs87" />
  <sodipodi:namedview
     inkscape:window-height="540"
     inkscape:window-width="749"
     inkscape:pageshadow="2"
     inkscape:pageopacity="0.0"
     borderopacity="1.0"
     bordercolor="#666666"
     pagecolor="#ffffff"
     id="base"
     inkscape:zoom="0.52361111"
     inkscape:cx="360"
     inkscape:cy="360"
     inkscape:window-x="154"
     inkscape:window-y="154"
     inkscape:current-layer="svg2" />
  <title
     id="title4">SVG drawing</title>
  <desc
     id="desc6">This was produced by version 4.1 of GNU libplot, a free library for exporting 2-D vector graphics.</desc>
  <g
     transform="matrix(5.418114e-3,0,0,-5.333139e-3,-1.175565e-3,0.939964)"
     xml:space="preserve"
     style="font-style:normal;font-variant:normal;font-weight:normal;font-stretch:normal;letter-spacing:normal;word-spacing:normal;text-anchor:start;fill:none;fill-opacity:1;stroke:#000000;stroke-linecap:butt;stroke-linejoin:miter;stroke-miterlimit:10.43299961;stroke-dasharray:none;stroke-dashoffset:0;stroke-opacity:1"
     id="g10">
<polygon
   points="46.5,160.5 138.5,160.5 184.5,80.5 138.5,0.5 46.5,0.5 0.5,80.5 46.5,160.5 "
   style="fill:#38ac00;fill-rule:nonzero;stroke:#38ac00;stroke-width:0;stroke-linejoin:round"
   id="polygon12" />
<polygon
   points="108.37,9.9219 110.27,9.9219 110.27,10.496 108.37,10.496 108.37,9.9219 "
   style="fill:#000000;stroke-width:0;stroke-linejoin:round"
   id="polygon14" />
<path
   d="M 113.13,10.984 L 113.18,11.017 L 113.23,11.05 L 113.28,11.082 L 113.33,11.114 L 113.37,11.146 L 113.42,11.178 L 113.46,11.209 L 113.5,11.241 L 113.53,11.273 L 113.57,11.305 L 113.6,11.337 L 113.63,11.37 L 113.66,11.403 L 113.69,11.436 L 113.71,11.469 L 113.73,11.503 L 113.76,11.538 L 113.78,11.573 L 113.79,11.609 L 113.81,11.646 L 113.83,11.683 L 113.84,11.721 L 113.85,11.76 L 113.86,11.8 L 113.87,11.841 L 113.88,11.883 L 113.89,11.926 L 113.89,11.97 L 113.9,12.016 L 113.9,12.063 L 113.9,12.111 L 113.9,12.16 C 113.9,13.047 113.21,13.672 112.2,13.672 C 111.2,13.672 110.5,13.047 110.5,12.16 C 110.5,11.633 110.69,11.344 111.27,10.984 C 110.62,10.672 110.3,10.199 110.3,9.5742 C 110.3,8.5352 111.08,7.8164 112.2,7.8164 C 113.32,7.8164 114.11,8.5352 114.11,9.5664 C 114.11,10.199 113.79,10.672 113.13,10.984 z "
   style="fill:#000000;stroke-width:0;stroke-linecap:round;stroke-linejoin:round"
   id="path16" />
<path
   d="M 112.2,13.047 L 112.25,13.046 L 112.31,13.043 L 112.36,13.038 L 112.41,13.031 L 112.46,13.022 L 112.51,13.011 L 112.56,12.998 L 112.61,12.983 L 112.65,12.967 L 112.69,12.949 L 112.74,12.928 L 112.78,12.907 L 112.81,12.883 L 112.85,12.858 L 112.88,12.831 L 112.92,12.802 L 112.95,12.772 L 112.98,12.74 L 113.01,12.707 L 113.03,12.672 L 113.05,12.636 L 113.08,12.598 L 113.1,12.559 L 113.11,12.518 L 113.13,12.476 L 113.14,12.432 L 113.16,12.388 L 113.17,12.341 L 113.17,12.294 L 113.18,12.245 L 113.18,12.196 L 113.18,12.144 C 113.18,11.617 112.79,11.266 112.2,11.266 C 111.61,11.266 111.21,11.617 111.21,12.152 C 111.21,12.695 111.61,13.047 112.2,13.047 z "
   style="fill:#000000;stroke-width:0;stroke-linecap:round;stroke-linejoin:round"
   id="path18" />
<path
   d="M 112.2,10.672 L 112.26,10.671 L 112.33,10.667 L 112.39,10.66 L 112.45,10.651 L 112.51,10.64 L 112.57,10.626 L 112.63,10.61 L 112.68,10.591 L 112.73,10.571 L 112.79,10.547 L 112.83,10.522 L 112.88,10.495 L 112.93,10.465 L 112.97,10.434 L 113.01,10.4 L 113.05,10.364 L 113.09,10.327 L 113.13,10.287 L 113.16,10.246 L 113.19,10.203 L 113.22,10.158 L 113.25,10.111 L 113.27,10.063 L 113.3,10.013 L 113.32,9.9611 L 113.33,9.9079 L 113.35,9.8533 L 113.36,9.7971 L 113.37,9.7395 L 113.38,9.6805 L 113.38,9.6202 L 113.38,9.5586 C 113.38,8.8867 112.9,8.4414 112.18,8.4414 C 111.5,8.4414 111.02,8.8945 111.02,9.5586 C 111.02,10.223 111.5,10.672 112.2,10.672 z "
   style="fill:#000000;stroke-width:0;stroke-linecap:round;stroke-linejoin:round"
   id="path20" />
<path
   d="M 117.07,12.039 L 117.07,8 L 117.78,8 L 117.78,13.672 L 117.31,13.672 C 117.06,12.801 116.9,12.68 115.82,12.543 L 115.82,12.039 L 117.07,12.039 z "
   style="fill:#000000;stroke-width:0;stroke-linecap:round;stroke-linejoin:round"
   id="path22" />
<path
   d="M 121.2,13.672 L 121.15,13.671 L 121.1,13.669 L 121.05,13.666 L 121,13.661 L 120.96,13.655 L 120.91,13.648 L 120.86,13.64 L 120.81,13.63 L 120.77,13.619 L 120.72,13.606 L 120.68,13.593 L 120.63,13.578 L 120.59,13.562 L 120.55,13.545 L 120.5,13.527 L 120.46,13.507 L 120.42,13.487 L 120.38,13.465 L 120.34,13.442 L 120.3,13.418 L 120.26,13.393 L 120.22,13.367 L 120.19,13.339 L 120.15,13.311 L 120.11,13.282 L 120.08,13.251 L 120.05,13.22 L 120.01,13.187 L 119.98,13.153 L 119.95,13.119 L 119.92,13.083 L 119.89,13.047 C 119.53,12.551 119.34,11.793 119.34,10.742 C 119.34,8.832 119.98,7.8164 121.2,7.8164 C 122.4,7.8164 123.06,8.832 123.06,10.695 C 123.06,11.801 122.88,12.535 122.5,13.047 C 122.21,13.449 121.73,13.672 121.2,13.672 z "
   style="fill:#000000;stroke-width:0;stroke-linecap:round;stroke-linejoin:round"
   id="path24" />
<path
   d="M 121.2,13.047 L 121.27,13.045 L 121.34,13.038 L 121.4,13.027 L 121.47,13.011 L 121.53,12.991 L 121.59,12.966 L 121.64,12.937 L 121.7,12.904 L 121.75,12.865 L 121.8,12.823 L 121.85,12.776 L 121.89,12.724 L 121.94,12.669 L 121.98,12.608 L 122.02,12.543 L 122.05,12.474 L 122.09,12.4 L 122.12,12.322 L 122.15,12.24 L 122.18,12.153 L 122.2,12.061 L 122.23,11.965 L 122.25,11.865 L 122.27,11.76 L 122.28,11.651 L 122.3,11.537 L 122.31,11.419 L 122.32,11.296 L 122.33,11.169 L 122.33,11.038 L 122.33,10.902 L 122.34,10.762 C 122.34,9.1523 121.97,8.3984 121.18,8.3984 C 120.44,8.3984 120.06,9.1836 120.06,10.734 C 120.06,12.289 120.44,13.047 121.2,13.047 z "
   style="fill:#000000;stroke-width:0;stroke-linecap:round;stroke-linejoin:round"
   id="path26" />
<path
   d="M 93.5,120.5 L 93.469,121.73 L 93.376,122.95 L 93.223,124.15 L 93.012,125.34 L 92.744,126.5 L 92.421,127.64 L 92.044,128.75 L 91.614,129.84 L 91.133,130.9 L 90.603,131.94 L 90.025,132.94 L 89.401,133.92 L 88.732,134.86 L 88.019,135.77 L 87.265,136.64 L 86.47,137.47 L 85.637,138.26 L 84.766,139.02 L 83.859,139.73 L 82.918,140.4 L 81.944,141.03 L 80.939,141.6 L 79.905,142.13 L 78.841,142.61 L 77.752,143.04 L 76.637,143.42 L 75.498,143.74 L 74.337,144.01 L 73.155,144.22 L 71.954,144.38 L 70.735,144.47 L 69.5,144.5 C 56.246,144.5 45.5,133.75 45.5,120.5 C 45.5,107.25 56.246,96.5 69.5,96.5 C 82.754,96.5 93.5,107.25 93.5,120.5 z "
   style="fill:#ffffff;fill-rule:nonzero;stroke:#ffffff;stroke-width:0;stroke-linecap:round;stroke-linejoin:round"
   id="path28" />
<path
   d="M 93.5,120.5 L 93.469,121.73 L 93.376,122.95 L 93.223,124.15 L 93.012,125.34 L 92.744,126.5 L 92.421,127.64 L 92.044,128.75 L 91.614,129.84 L 91.133,130.9 L 90.603,131.94 L 90.025,132.94 L 89.401,133.92 L 88.732,134.86 L 88.019,135.77 L 87.265,136.64 L 86.47,137.47 L 85.637,138.26 L 84.766,139.02 L 83.859,139.73 L 82.918,140.4 L 81.944,141.03 L 80.939,141.6 L 79.905,142.13 L 78.841,142.61 L 77.752,143.04 L 76.637,143.42 L 75.498,143.74 L 74.337,144.01 L 73.155,144.22 L 71.954,144.38 L 70.735,144.47 L 69.5,144.5 C 56.246,144.5 45.5,133.75 45.5,120.5 C 45.5,107.25 56.246,96.5 69.5,96.5 C 82.754,96.5 93.5,107.25 93.5,120.5 z "
   style="stroke:#ffffff;stroke-width:6;stroke-linecap:round;stroke-linejoin:round"
   id="path30" />
<path
   d="M 139.5,40.5 L 139.47,41.735 L 139.38,42.954 L 139.22,44.155 L 139.01,45.337 L 138.74,46.498 L 138.42,47.637 L 138.04,48.752 L 137.61,49.841 L 137.13,50.905 L 136.6,51.939 L 136.03,52.944 L 135.4,53.918 L 134.73,54.859 L 134.02,55.766 L 133.26,56.637 L 132.47,57.47 L 131.64,58.265 L 130.77,59.019 L 129.86,59.732 L 128.92,60.401 L 127.94,61.025 L 126.94,61.603 L 125.9,62.133 L 124.84,62.614 L 123.75,63.044 L 122.64,63.421 L 121.5,63.744 L 120.34,64.012 L 119.15,64.223 L 117.95,64.376 L 116.73,64.469 L 115.5,64.5 C 102.25,64.5 91.5,53.754 91.5,40.5 C 91.5,27.246 102.25,16.5 115.5,16.5 C 128.75,16.5 139.5,27.246 139.5,40.5 z "
   style="fill:#ffffff;fill-rule:nonzero;stroke:#ffffff;stroke-width:0;stroke-linecap:round;stroke-linejoin:round"
   id="path32" />
<path
   d="M 139.5,40.5 L 139.47,41.735 L 139.38,42.954 L 139.22,44.155 L 139.01,45.337 L 138.74,46.498 L 138.42,47.637 L 138.04,48.752 L 137.61,49.841 L 137.13,50.905 L 136.6,51.939 L 136.03,52.944 L 135.4,53.918 L 134.73,54.859 L 134.02,55.766 L 133.26,56.637 L 132.47,57.47 L 131.64,58.265 L 130.77,59.019 L 129.86,59.732 L 128.92,60.401 L 127.94,61.025 L 126.94,61.603 L 125.9,62.133 L 124.84,62.614 L 123.75,63.044 L 122.64,63.421 L 121.5,63.744 L 120.34,64.012 L 119.15,64.223 L 117.95,64.376 L 116.73,64.469 L 115.5,64.5 C 102.25,64.5 91.5,53.754 91.5,40.5 C 91.5,27.246 102.25,16.5 115.5,16.5 C 128.75,16.5 139.5,27.246 139.5,40.5 z "
   style="stroke:#ffffff;stroke-width:6;stroke-linecap:round;stroke-linejoin:round"
   id="path34" />
<path
   d="M 69.5,120.5 L 69.434,120.62 C 83.703,128.83 92.5,144.04 92.5,160.5"
   style="stroke:#ffffff;stroke-width:16;stroke-linecap:round;stroke-linejoin:round"
   id="path36" />
<path
   d="M 23.5,120.5 L 23.57,120.62 C 30.547,116.61 38.457,114.5 46.5,114.5 C 54.547,114.5 62.457,116.61 69.434,120.62"
   style="stroke:#ffffff;stroke-width:16;stroke-linecap:round;stroke-linejoin:round"
   id="path38" />
<path
   d="M 161.5,40.5 L 161.43,40.375 C 154.46,44.387 146.55,46.5 138.5,46.5 C 130.46,46.5 122.55,44.387 115.57,40.379"
   style="stroke:#ffffff;stroke-width:16;stroke-linecap:round;stroke-linejoin:round"
   id="path40" />
<path
   d="M 115.5,40.5 L 115.57,40.379 C 101.3,32.176 92.5,16.961 92.5,0.5"
   style="stroke:#ffffff;stroke-width:16;stroke-linecap:round;stroke-linejoin:round"
   id="path42" />
<path
   d="M 69.5,120.5 L 69.434,120.62 C 83.703,128.83 92.5,144.04 92.5,160.5"
   style="stroke-width:12;stroke-linecap:round;stroke-linejoin:round"
   id="path44" />
<path
   d="M 23.5,120.5 L 23.57,120.62 C 30.547,116.61 38.457,114.5 46.5,114.5 C 54.547,114.5 62.457,116.61 69.434,120.62"
   style="stroke-width:12;stroke-linecap:round;stroke-linejoin:round"
   id="path46" />
<path
   d="M 161.5,40.5 L 161.43,40.375 C 154.46,44.387 146.55,46.5 138.5,46.5 C 130.46,46.5 122.55,44.387 115.57,40.379"
   style="stroke-width:12;stroke-linecap:round;stroke-linejoin:round"
   id="path48" />
<path
   d="M 115.5,40.5 L 115.57,40.379 C 101.3,32.176 92.5,16.961 92.5,0.5"
   style="stroke-width:12;stroke-linecap:round;stroke-linejoin:round"
   id="path50" />
<path
   d="M 93.5,120.5 L 93.469,121.73 L 93.376,122.95 L 93.223,124.15 L 93.012,125.34 L 92.744,126.5 L 92.421,127.64 L 92.044,128.75 L 91.614,129.84 L 91.133,130.9 L 90.603,131.94 L 90.025,132.94 L 89.401,133.92 L 88.732,134.86 L 88.019,135.77 L 87.265,136.64 L 86.47,137.47 L 85.637,138.26 L 84.766,139.02 L 83.859,139.73 L 82.918,140.4 L 81.944,141.03 L 80.939,141.6 L 79.905,142.13 L 78.841,142.61 L 77.752,143.04 L 76.637,143.42 L 75.498,143.74 L 74.337,144.01 L 73.155,144.22 L 71.954,144.38 L 70.735,144.47 L 69.5,144.5 C 56.246,144.5 45.5,133.75 45.5,120.5 C 45.5,107.25 56.246,96.5 69.5,96.5 C 82.754,96.5 93.5,107.25 93.5,120.5 z "
   style="fill:#ffffff;fill-rule:nonzero;stroke:#ffffff;stroke-width:0;stroke-linecap:round;stroke-linejoin:round"
   id="path52" />
<path
   d="M 93.5,120.5 L 93.469,121.73 L 93.376,122.95 L 93.223,124.15 L 93.012,125.34 L 92.744,126.5 L 92.421,127.64 L 92.044,128.75 L 91.614,129.84 L 91.133,130.9 L 90.603,131.94 L 90.025,132.94 L 89.401,133.92 L 88.732,134.86 L 88.019,135.77 L 87.265,136.64 L 86.47,137.47 L 85.637,138.26 L 84.766,139.02 L 83.859,139.73 L 82.918,140.4 L 81.944,141.03 L 80.939,141.6 L 79.905,142.13 L 78.841,142.61 L 77.752,143.04 L 76.637,143.42 L 75.498,143.74 L 74.337,144.01 L 73.155,144.22 L 71.954,144.38 L 70.735,144.47 L 69.5,144.5 C 56.246,144.5 45.5,133.75 45.5,120.5 C 45.5,107.25 56.246,96.5 69.5,96.5 C 82.754,96.5 93.5,107.25 93.5,120.5 z "
   style="stroke-width:2;stroke-linecap:round;stroke-linejoin:round"
   id="path54" />
<path
   d="M 134.99,140.5 L 134.98,140.71 L 134.95,140.91 L 134.89,141.11 L 134.82,141.31 L 134.72,141.51 L 134.61,141.7 L 134.48,141.89 L 134.32,142.07 L 134.15,142.25 L 133.97,142.42 L 133.76,142.59 L 133.54,142.76 L 133.3,142.92 L 133.05,143.07 L 132.79,143.22 L 132.5,143.36 L 132.21,143.49 L 131.9,143.62 L 131.58,143.74 L 131.25,143.85 L 130.9,143.95 L 130.55,144.05 L 130.18,144.14 L 129.8,144.22 L 129.42,144.29 L 129.02,144.36 L 128.62,144.41 L 128.21,144.46 L 127.79,144.49 L 127.37,144.52 L 126.94,144.53 L 126.5,144.54 C 121.81,144.54 118.01,142.73 118.01,140.5 C 118.01,138.27 121.81,136.46 126.5,136.46 C 131.19,136.46 134.99,138.27 134.99,140.5 z "
   style="fill:#ffffff;fill-rule:nonzero;stroke:#ffffff;stroke-width:0;stroke-linecap:round;stroke-linejoin:round"
   id="path56" />
<path
   d="M 134.99,140.5 L 134.98,140.71 L 134.95,140.91 L 134.89,141.11 L 134.82,141.31 L 134.72,141.51 L 134.61,141.7 L 134.48,141.89 L 134.32,142.07 L 134.15,142.25 L 133.97,142.42 L 133.76,142.59 L 133.54,142.76 L 133.3,142.92 L 133.05,143.07 L 132.79,143.22 L 132.5,143.36 L 132.21,143.49 L 131.9,143.62 L 131.58,143.74 L 131.25,143.85 L 130.9,143.95 L 130.55,144.05 L 130.18,144.14 L 129.8,144.22 L 129.42,144.29 L 129.02,144.36 L 128.62,144.41 L 128.21,144.46 L 127.79,144.49 L 127.37,144.52 L 126.94,144.53 L 126.5,144.54 C 121.81,144.54 118.01,142.73 118.01,140.5 C 118.01,138.27 121.81,136.46 126.5,136.46 C 131.19,136.46 134.99,138.27 134.99,140.5 z "
   style="stroke-width:0.84906;stroke-linecap:round;stroke-linejoin:round"
   id="path58" />
<path
   d="M 122.91,140.59 L 122.92,140.59 L 122.94,140.59 L 122.95,140.59 L 122.96,140.59 L 122.97,140.59 L 122.98,140.59 L 122.99,140.59 L 123,140.59 L 123.01,140.59 L 123.02,140.59 L 123.03,140.59 L 123.04,140.59 L 123.06,140.59 L 123.08,140.59 L 123.1,140.59 L 123.11,140.59 L 123.13,140.59 L 123.15,140.59 L 123.16,140.59 L 123.18,140.59 L 123.19,140.59 L 123.21,140.59 C 123.62,140.59 123.94,140.53 124.12,140.4 C 124.34,140.25 124.48,139.94 124.48,139.6 C 124.48,139 124.09,138.63 123.46,138.63 C 123.01,138.63 122.59,138.82 122.59,139.02 C 122.59,139.03 122.6,139.05 122.61,139.08 C 122.67,139.25 122.67,139.26 122.67,139.35 C 122.67,139.7 122.37,139.96 121.98,139.96 C 121.59,139.96 121.3,139.64 121.3,139.22 C 121.3,138.46 122.22,137.9 123.46,137.9 C 124.22,137.9 124.95,138.1 125.41,138.44 C 125.79,138.72 126.05,139.22 126.05,139.67 C 126.05,140.32 125.63,140.79 124.89,140.97 C 125.44,141.17 125.79,141.6 125.79,142.08 C 125.79,142.95 124.9,143.55 123.65,143.55 C 122.4,143.55 121.47,142.95 121.47,142.11 C 121.47,141.7 121.74,141.41 122.15,141.41 C 122.54,141.41 122.85,141.66 122.85,142 C 122.85,142.1 122.82,142.21 122.77,142.29 C 122.73,142.37 122.71,142.4 122.71,142.44 C 122.71,142.62 123.11,142.82 123.46,142.82 C 123.94,142.82 124.26,142.55 124.26,142.15 C 124.26,141.85 124.11,141.57 123.88,141.43 C 123.73,141.35 123.43,141.3 123.14,141.3 L 123.05,141.3 L 122.91,141.3 L 122.91,140.59 z "
   style="fill:#000000;stroke-width:0;stroke-linecap:round;stroke-linejoin:round"
   id="path60" />
<path
   d="M 128.71,143.55 L 128.64,143.55 L 128.58,143.55 L 128.51,143.54 L 128.45,143.54 L 128.38,143.53 L 128.32,143.52 L 128.25,143.51 L 128.19,143.5 L 128.13,143.49 L 128.07,143.47 L 128.01,143.46 L 127.94,143.44 L 127.88,143.42 L 127.83,143.4 L 127.77,143.38 L 127.71,143.36 L 127.65,143.33 L 127.6,143.31 L 127.54,143.28 L 127.49,143.25 L 127.44,143.22 L 127.39,143.19 L 127.34,143.15 L 127.29,143.12 L 127.24,143.09 L 127.19,143.05 L 127.15,143.01 L 127.1,142.97 L 127.06,142.93 L 127.02,142.89 L 126.98,142.85 L 126.94,142.8 C 126.5,142.3 126.24,141.51 126.24,140.69 C 126.24,138.97 127.18,137.9 128.67,137.9 C 130.16,137.9 131.11,139 131.11,140.74 C 131.11,142.44 130.16,143.55 128.71,143.55 z "
   style="fill:#000000;stroke-width:0;stroke-linecap:round;stroke-linejoin:round"
   id="path62" />
<path
   d="M 128.67,142.82 L 128.73,142.81 L 128.78,142.81 L 128.84,142.8 L 128.89,142.78 L 128.94,142.76 L 128.99,142.74 L 129.03,142.71 L 129.08,142.68 L 129.12,142.64 L 129.16,142.6 L 129.2,142.55 L 129.24,142.5 L 129.27,142.45 L 129.31,142.39 L 129.34,142.33 L 129.37,142.27 L 129.4,142.2 L 129.43,142.13 L 129.45,142.05 L 129.48,141.97 L 129.5,141.89 L 129.52,141.8 L 129.54,141.71 L 129.55,141.61 L 129.57,141.51 L 129.58,141.41 L 129.59,141.3 L 129.6,141.19 L 129.61,141.08 L 129.61,140.96 L 129.62,140.84 L 129.62,140.72 C 129.62,139.38 129.28,138.63 128.67,138.63 C 128.06,138.63 127.73,139.38 127.73,140.75 C 127.73,142.06 128.08,142.82 128.67,142.82 z "
   style="fill:#000000;stroke-width:0;stroke-linecap:round;stroke-linejoin:round"
   id="path64" />
<path
   d="M 139.5,40.5 L 139.47,41.735 L 139.38,42.954 L 139.22,44.155 L 139.01,45.337 L 138.74,46.498 L 138.42,47.637 L 138.04,48.752 L 137.61,49.841 L 137.13,50.905 L 136.6,51.939 L 136.03,52.944 L 135.4,53.918 L 134.73,54.859 L 134.02,55.766 L 133.26,56.637 L 132.47,57.47 L 131.64,58.265 L 130.77,59.019 L 129.86,59.732 L 128.92,60.401 L 127.94,61.025 L 126.94,61.603 L 125.9,62.133 L 124.84,62.614 L 123.75,63.044 L 122.64,63.421 L 121.5,63.744 L 120.34,64.012 L 119.15,64.223 L 117.95,64.376 L 116.73,64.469 L 115.5,64.5 C 102.25,64.5 91.5,53.754 91.5,40.5 C 91.5,27.246 102.25,16.5 115.5,16.5 C 128.75,16.5 139.5,27.246 139.5,40.5 z "
   style="fill:#ffffff;fill-rule:nonzero;stroke:#ffffff;stroke-width:0;stroke-linecap:round;stroke-linejoin:round"
   id="path66" />
<path
   d="M 139.5,40.5 L 139.47,41.735 L 139.38,42.954 L 139.22,44.155 L 139.01,45.337 L 138.74,46.498 L 138.42,47.637 L 138.04,48.752 L 137.61,49.841 L 137.13,50.905 L 136.6,51.939 L 136.03,52.944 L 135.4,53.918 L 134.73,54.859 L 134.02,55.766 L 133.26,56.637 L 132.47,57.47 L 131.64,58.265 L 130.77,59.019 L 129.86,59.732 L 128.92,60.401 L 127.94,61.025 L 126.94,61.603 L 125.9,62.133 L 124.84,62.614 L 123.75,63.044 L 122.64,63.421 L 121.5,63.744 L 120.34,64.012 L 119.15,64.223 L 117.95,64.376 L 116.73,64.469 L 115.5,64.5 C 102.25,64.5 91.5,53.754 91.5,40.5 C 91.5,27.246 102.25,16.5 115.5,16.5 C 128.75,16.5 139.5,27.246 139.5,40.5 z "
   style="stroke-width:2;stroke-linecap:round;stroke-linejoin:round"
   id="path68" />
<path
   d="M 66.992,20.5 L 66.981,20.708 L 66.948,20.913 L 66.894,21.115 L 66.82,21.314 L 66.725,21.509 L 66.61,21.701 L 66.477,21.889 L 66.324,22.072 L 66.154,22.251 L 65.967,22.425 L 65.762,22.594 L 65.541,22.758 L 65.304,22.917 L 65.052,23.069 L 64.785,23.216 L 64.504,23.356 L 64.209,23.49 L 63.901,23.617 L 63.58,23.737 L 63.247,23.849 L 62.902,23.954 L 62.547,24.052 L 62.181,24.141 L 61.804,24.222 L 61.419,24.294 L 61.024,24.357 L 60.621,24.412 L 60.211,24.457 L 59.793,24.493 L 59.368,24.518 L 58.937,24.534 L 58.5,24.539 C 53.812,24.539 50.008,22.73 50.008,20.5 C 50.008,18.27 53.812,16.461 58.5,16.461 C 63.188,16.461 66.992,18.27 66.992,20.5 z "
   style="fill:#ffffff;fill-rule:nonzero;stroke:#ffffff;stroke-width:0;stroke-linecap:round;stroke-linejoin:round"
   id="path70" />
<path
   d="M 66.992,20.5 L 66.981,20.708 L 66.948,20.913 L 66.894,21.115 L 66.82,21.314 L 66.725,21.509 L 66.61,21.701 L 66.477,21.889 L 66.324,22.072 L 66.154,22.251 L 65.967,22.425 L 65.762,22.594 L 65.541,22.758 L 65.304,22.917 L 65.052,23.069 L 64.785,23.216 L 64.504,23.356 L 64.209,23.49 L 63.901,23.617 L 63.58,23.737 L 63.247,23.849 L 62.902,23.954 L 62.547,24.052 L 62.181,24.141 L 61.804,24.222 L 61.419,24.294 L 61.024,24.357 L 60.621,24.412 L 60.211,24.457 L 59.793,24.493 L 59.368,24.518 L 58.937,24.534 L 58.5,24.539 C 53.812,24.539 50.008,22.73 50.008,20.5 C 50.008,18.27 53.812,16.461 58.5,16.461 C 63.188,16.461 66.992,18.27 66.992,20.5 z "
   style="stroke-width:0.84906;stroke-linecap:round;stroke-linejoin:round"
   id="path72" />
<path
   d="M 54.91,20.586 L 54.923,20.587 L 54.935,20.587 L 54.947,20.588 L 54.959,20.589 L 54.97,20.589 L 54.982,20.59 L 54.993,20.59 L 55.003,20.59 L 55.014,20.591 L 55.024,20.591 L 55.034,20.592 L 55.044,20.592 L 55.062,20.592 L 55.081,20.593 L 55.098,20.593 L 55.115,20.593 L 55.131,20.594 L 55.147,20.594 L 55.162,20.594 L 55.177,20.594 L 55.192,20.594 L 55.207,20.594 C 55.617,20.594 55.938,20.527 56.121,20.398 C 56.336,20.246 56.48,19.938 56.48,19.602 C 56.48,19 56.09,18.633 55.457,18.633 C 55.008,18.633 54.594,18.816 54.594,19.016 C 54.594,19.031 54.602,19.055 54.609,19.078 C 54.672,19.246 54.672,19.258 54.672,19.352 C 54.672,19.695 54.367,19.961 53.984,19.961 C 53.594,19.961 53.297,19.641 53.297,19.223 C 53.297,18.465 54.223,17.895 55.457,17.895 C 56.223,17.895 56.953,18.098 57.406,18.441 C 57.793,18.719 58.047,19.223 58.047,19.672 C 58.047,20.32 57.633,20.785 56.887,20.969 C 57.441,21.168 57.793,21.602 57.793,22.078 C 57.793,22.945 56.902,23.551 55.648,23.551 C 54.398,23.551 53.473,22.945 53.473,22.113 C 53.473,21.695 53.742,21.406 54.152,21.406 C 54.543,21.406 54.848,21.664 54.848,22 C 54.848,22.098 54.816,22.207 54.77,22.289 C 54.727,22.367 54.711,22.398 54.711,22.441 C 54.711,22.617 55.113,22.816 55.457,22.816 C 55.945,22.816 56.258,22.551 56.258,22.145 C 56.258,21.848 56.105,21.566 55.879,21.434 C 55.734,21.352 55.434,21.297 55.137,21.297 L 55.047,21.297 L 54.91,21.305 L 54.91,20.586 z "
   style="fill:#000000;stroke-width:0;stroke-linecap:round;stroke-linejoin:round"
   id="path74" />
<path
   d="M 60.711,23.551 L 60.644,23.55 L 60.578,23.548 L 60.513,23.544 L 60.447,23.538 L 60.382,23.531 L 60.318,23.523 L 60.254,23.513 L 60.191,23.501 L 60.128,23.488 L 60.066,23.474 L 60.005,23.458 L 59.945,23.44 L 59.885,23.421 L 59.826,23.401 L 59.767,23.379 L 59.71,23.356 L 59.653,23.331 L 59.598,23.305 L 59.543,23.278 L 59.49,23.249 L 59.437,23.219 L 59.386,23.188 L 59.335,23.155 L 59.286,23.121 L 59.238,23.085 L 59.191,23.048 L 59.146,23.01 L 59.101,22.971 L 59.058,22.93 L 59.017,22.888 L 58.976,22.845 L 58.938,22.801 C 58.504,22.305 58.238,21.512 58.238,20.688 C 58.238,18.969 59.176,17.895 60.672,17.895 C 62.16,17.895 63.113,19 63.113,20.742 C 63.113,22.441 62.16,23.551 60.711,23.551 z "
   style="fill:#000000;stroke-width:0;stroke-linecap:round;stroke-linejoin:round"
   id="path76" />
<path
   d="M 60.672,22.816 L 60.728,22.814 L 60.783,22.808 L 60.836,22.796 L 60.887,22.781 L 60.937,22.761 L 60.985,22.737 L 61.032,22.709 L 61.077,22.677 L 61.12,22.64 L 61.161,22.599 L 61.201,22.554 L 61.239,22.505 L 61.275,22.452 L 61.309,22.395 L 61.342,22.334 L 61.373,22.269 L 61.402,22.2 L 61.43,22.127 L 61.455,22.05 L 61.479,21.97 L 61.501,21.885 L 61.521,21.797 L 61.539,21.706 L 61.555,21.61 L 61.57,21.511 L 61.582,21.408 L 61.593,21.302 L 61.602,21.192 L 61.608,21.079 L 61.613,20.963 L 61.616,20.842 L 61.617,20.719 C 61.617,19.383 61.281,18.633 60.672,18.633 C 60.062,18.633 59.734,19.383 59.734,20.754 C 59.734,22.062 60.078,22.816 60.672,22.816 z "
   style="fill:#000000;stroke-width:0;stroke-linecap:round;stroke-linejoin:round"
   id="path78" />
<polygon
   points="19.703,80.953 23.305,86.664 20.52,86.664 18.375,82.824 16.328,86.664 13.481,86.664 17.031,80.871 13.352,75 16.137,75 18.359,79.047 20.602,75 23.449,75 19.703,80.953 "
   style="fill:#000000;stroke-width:0;stroke-linejoin:round"
   id="polygon80" />
<polygon
   points="30.703,80.953 34.305,86.664 31.52,86.664 29.375,82.824 27.328,86.664 24.48,86.664 28.031,80.871 24.352,75 27.137,75 29.359,79.047 31.602,75 34.449,75 30.703,80.953 "
   style="fill:#000000;stroke-width:0;stroke-linejoin:round"
   id="polygon82" />
<polygon
   points="46.5,160.5 138.5,160.5 184.5,80.5 138.5,0.5 46.5,0.5 0.5,80.5 46.5,160.5 "
   style="stroke-width:1;stroke-linejoin:round"
   id="polygon84" />
</g></svg>
