<?xml version="1.0" encoding="UTF-8" standalone="no"?>
<svg
   xmlns:dc="http://purl.org/dc/elements/1.1/"
   xmlns:cc="http://web.resource.org/cc/"
   xmlns:rdf="http://www.w3.org/1999/02/22-rdf-syntax-ns#"
   xmlns:svg="http://www.w3.org/2000/svg"
   xmlns="http://www.w3.org/2000/svg"
   xmlns:sodipodi="http://sodipodi.sourceforge.net/DTD/sodipodi-0.dtd"
   xmlns:inkscape="http://www.inkscape.org/namespaces/inkscape"
   width="100"
   height="100"
   viewBox="0 0 1 1"
   preserveAspectRatio="none"
   id="svg4325"
   sodipodi:version="0.32"
   inkscape:version="0.45.1"
   sodipodi:docname="tile41.svg"
   sodipodi:docbase="C:\Documents and Settings\Brett\workspace\18xx\tiles\svg"
   version="1.0"
   inkscape:output_extension="org.inkscape.output.svg.inkscape">
  <metadata
     id="metadata4356">
    <rdf:RDF>
      <cc:Work
         rdf:about="">
        <dc:format>image/svg+xml</dc:format>
        <dc:type
           rdf:resource="http://purl.org/dc/dcmitype/StillImage" />
      </cc:Work>
    </rdf:RDF>
  </metadata>
  <defs
     id="defs4354" />
  <sodipodi:namedview
     inkscape:window-height="579"
     inkscape:window-width="749"
     inkscape:pageshadow="2"
     inkscape:pageopacity="0.0"
     borderopacity="1.0"
     bordercolor="#666666"
     pagecolor="#ffffff"
     id="base"
     inkscape:zoom="3.6830029"
     inkscape:cx="61.215123"
     inkscape:cy="88.312181"
     inkscape:window-x="154"
     inkscape:window-y="154"
     inkscape:current-layer="svg4325" />
  <title
     id="title4327">SVG drawing</title>
  <desc
     id="desc4329">This was produced by version 4.1 of GNU libplot, a free library for exporting 2-D vector graphics.</desc>
  <g
     transform="matrix(5.4159527e-3,0,0,-6.1538983e-3,-9.7564032e-4,0.996532)"
     xml:space="preserve"
     style="font-style:normal;font-variant:normal;font-weight:normal;font-stretch:normal;letter-spacing:normal;word-spacing:normal;text-anchor:start;fill:none;fill-opacity:1;stroke:#000000;stroke-linecap:butt;stroke-linejoin:miter;stroke-miterlimit:10.43299961;stroke-dasharray:none;stroke-dashoffset:0;stroke-opacity:1"
     id="g4333">
<polygon
   points="46.5,160.5 138.5,160.5 184.5,80.5 138.5,0.5 46.5,0.5 0.5,80.5 46.5,160.5 "
   style="fill:#b46301;fill-rule:nonzero;stroke:#b46301;stroke-width:0;stroke-linejoin:round"
   id="polygon4335" />
<text
   transform="matrix(1,0,0,-1,111.86,7.9141)"
   style="font-size:8px;fill:#000000;stroke:none;font-family:&quot;Helvetica&quot;, sans-serif"
   id="text4337">41</text>


<path
   d="M 23.5,40.5 L 23.297,40.871 C 66.105,65.488 92.5,111.11 92.5,160.5"
   style="stroke:#ffffff;stroke-width:16;stroke-linecap:round;stroke-linejoin:round"
   id="path4339" />
<path
   d="M 92.5,0.5 L 92.5,0.5 C 92.5,25.902 71.902,46.5 46.5,46.5 C 38.457,46.5 30.547,44.387 23.57,40.379"
   style="stroke:#ffffff;stroke-width:16;stroke-linecap:round;stroke-linejoin:round"
   id="path4341" />
<line
   x1="92.5"
   y1="160.5"
   x2="92.5"
   y2="0.5"
   style="stroke:#ffffff;stroke-width:16;stroke-linecap:round"
   id="line4343" />
<path
   d="M 23.5,40.5 L 23.297,40.871 C 66.105,65.488 92.5,111.11 92.5,160.5"
   style="stroke-width:12;stroke-linecap:round;stroke-linejoin:round"
   id="path4345" />
<path
   d="M 92.5,0.5 L 92.5,0.5 C 92.5,25.902 71.902,46.5 46.5,46.5 C 38.457,46.5 30.547,44.387 23.57,40.379"
   style="stroke-width:12;stroke-linecap:round;stroke-linejoin:round"
   id="path4347" />
<line
   x1="92.5"
   y1="160.5"
   x2="92.5"
   y2="0.5"
   style="stroke-width:12;stroke-linecap:round"
   id="line4349" />
<polygon
   points="46.5,160.5 138.5,160.5 184.5,80.5 138.5,0.5 46.5,0.5 0.5,80.5 46.5,160.5 "
   style="stroke-width:1;stroke-linejoin:round"
   id="polygon4351" />
</g></svg>
