<?xml version="1.0" encoding="UTF-8" standalone="no"?>
<svg
   xmlns:dc="http://purl.org/dc/elements/1.1/"
   xmlns:cc="http://web.resource.org/cc/"
   xmlns:rdf="http://www.w3.org/1999/02/22-rdf-syntax-ns#"
   xmlns:svg="http://www.w3.org/2000/svg"
   xmlns="http://www.w3.org/2000/svg"
   xmlns:sodipodi="http://inkscape.sourceforge.net/DTD/sodipodi-0.dtd"
   xmlns:inkscape="http://www.inkscape.org/namespaces/inkscape"
   width="80pt"
   height="80pt"
   viewBox="0 0 1 1"
   preserveAspectRatio="none"
   id="svg2"
   sodipodi:version="0.32"
   inkscape:version="0.43"
   sodipodi:docname="tile-806.svg"
   sodipodi:docbase="C:\Documents and Settings\lentz\Desktop\Brett\TileDesigner\images\TileDictionary"
   version="1.0">
  <metadata
     id="metadata85">
    <rdf:RDF>
      <cc:Work
         rdf:about="">
        <dc:format>image/svg+xml</dc:format>
        <dc:type
           rdf:resource="http://purl.org/dc/dcmitype/StillImage" />
      </cc:Work>
    </rdf:RDF>
  </metadata>
  <defs
     id="defs83" />
  <sodipodi:namedview
     inkscape:window-height="540"
     inkscape:window-width="749"
     inkscape:pageshadow="2"
     inkscape:pageopacity="0.0"
     borderopacity="1.0"
     bordercolor="#666666"
     pagecolor="#ffffff"
     id="base"
     inkscape:zoom="0.52361111"
     inkscape:cx="360"
     inkscape:cy="360"
     inkscape:window-x="22"
     inkscape:window-y="22"
     inkscape:current-layer="svg2" />
  <title
     id="title4">SVG drawing</title>
  <desc
     id="desc6">This was produced by version 4.1 of GNU libplot, a free library for exporting 2-D vector graphics.</desc>
  <g
     transform="matrix(5.418114e-3,0,0,-6.213736e-3,-1.175565e-3,1.000871)"
     xml:space="preserve"
     style="font-style:normal;font-variant:normal;font-weight:normal;font-stretch:normal;letter-spacing:normal;word-spacing:normal;text-anchor:start;fill:none;fill-opacity:1;stroke:#000000;stroke-linecap:butt;stroke-linejoin:miter;stroke-miterlimit:10.43299961;stroke-dasharray:none;stroke-dashoffset:0;stroke-opacity:1"
     id="g10">
<polygon
   points="46.5,160.5 138.5,160.5 184.5,80.5 138.5,0.5 46.5,0.5 0.5,80.5 46.5,160.5 "
   style="fill:#ffff00;fill-rule:nonzero;stroke:#ffff00;stroke-width:0;stroke-linejoin:round"
   id="polygon12" />
<polygon
   points="108.37,9.9219 110.27,9.9219 110.27,10.496 108.37,10.496 108.37,9.9219 "
   style="fill:#000000;stroke-width:0;stroke-linejoin:round"
   id="polygon14" />
<path
   d="M 113.13,10.984 L 113.18,11.017 L 113.23,11.05 L 113.28,11.082 L 113.33,11.114 L 113.37,11.146 L 113.42,11.178 L 113.46,11.209 L 113.5,11.241 L 113.53,11.273 L 113.57,11.305 L 113.6,11.337 L 113.63,11.37 L 113.66,11.403 L 113.69,11.436 L 113.71,11.469 L 113.73,11.503 L 113.76,11.538 L 113.78,11.573 L 113.79,11.609 L 113.81,11.646 L 113.83,11.683 L 113.84,11.721 L 113.85,11.76 L 113.86,11.8 L 113.87,11.841 L 113.88,11.883 L 113.89,11.926 L 113.89,11.97 L 113.9,12.016 L 113.9,12.063 L 113.9,12.111 L 113.9,12.16 C 113.9,13.047 113.21,13.672 112.2,13.672 C 111.2,13.672 110.5,13.047 110.5,12.16 C 110.5,11.633 110.69,11.344 111.27,10.984 C 110.62,10.672 110.3,10.199 110.3,9.5742 C 110.3,8.5352 111.08,7.8164 112.2,7.8164 C 113.32,7.8164 114.11,8.5352 114.11,9.5664 C 114.11,10.199 113.79,10.672 113.13,10.984 z "
   style="fill:#000000;stroke-width:0;stroke-linecap:round;stroke-linejoin:round"
   id="path16" />
<path
   d="M 112.2,13.047 L 112.25,13.046 L 112.31,13.043 L 112.36,13.038 L 112.41,13.031 L 112.46,13.022 L 112.51,13.011 L 112.56,12.998 L 112.61,12.983 L 112.65,12.967 L 112.69,12.949 L 112.74,12.928 L 112.78,12.907 L 112.81,12.883 L 112.85,12.858 L 112.88,12.831 L 112.92,12.802 L 112.95,12.772 L 112.98,12.74 L 113.01,12.707 L 113.03,12.672 L 113.05,12.636 L 113.08,12.598 L 113.1,12.559 L 113.11,12.518 L 113.13,12.476 L 113.14,12.432 L 113.16,12.388 L 113.17,12.341 L 113.17,12.294 L 113.18,12.245 L 113.18,12.196 L 113.18,12.144 C 113.18,11.617 112.79,11.266 112.2,11.266 C 111.61,11.266 111.21,11.617 111.21,12.152 C 111.21,12.695 111.61,13.047 112.2,13.047 z "
   style="fill:#000000;stroke-width:0;stroke-linecap:round;stroke-linejoin:round"
   id="path18" />
<path
   d="M 112.2,10.672 L 112.26,10.671 L 112.33,10.667 L 112.39,10.66 L 112.45,10.651 L 112.51,10.64 L 112.57,10.626 L 112.63,10.61 L 112.68,10.591 L 112.73,10.571 L 112.79,10.547 L 112.83,10.522 L 112.88,10.495 L 112.93,10.465 L 112.97,10.434 L 113.01,10.4 L 113.05,10.364 L 113.09,10.327 L 113.13,10.287 L 113.16,10.246 L 113.19,10.203 L 113.22,10.158 L 113.25,10.111 L 113.27,10.063 L 113.3,10.013 L 113.32,9.9611 L 113.33,9.9079 L 113.35,9.8533 L 113.36,9.7971 L 113.37,9.7395 L 113.38,9.6805 L 113.38,9.6202 L 113.38,9.5586 C 113.38,8.8867 112.9,8.4414 112.18,8.4414 C 111.5,8.4414 111.02,8.8945 111.02,9.5586 C 111.02,10.223 111.5,10.672 112.2,10.672 z "
   style="fill:#000000;stroke-width:0;stroke-linecap:round;stroke-linejoin:round"
   id="path20" />
<path
   d="M 117.2,13.672 L 117.15,13.671 L 117.1,13.669 L 117.05,13.666 L 117,13.661 L 116.96,13.655 L 116.91,13.648 L 116.86,13.64 L 116.81,13.63 L 116.77,13.619 L 116.72,13.606 L 116.68,13.593 L 116.63,13.578 L 116.59,13.562 L 116.55,13.545 L 116.5,13.527 L 116.46,13.507 L 116.42,13.487 L 116.38,13.465 L 116.34,13.442 L 116.3,13.418 L 116.26,13.393 L 116.22,13.367 L 116.19,13.339 L 116.15,13.311 L 116.11,13.282 L 116.08,13.251 L 116.05,13.22 L 116.01,13.187 L 115.98,13.153 L 115.95,13.119 L 115.92,13.083 L 115.89,13.047 C 115.53,12.551 115.34,11.793 115.34,10.742 C 115.34,8.832 115.98,7.8164 117.2,7.8164 C 118.4,7.8164 119.06,8.832 119.06,10.695 C 119.06,11.801 118.88,12.535 118.5,13.047 C 118.21,13.449 117.73,13.672 117.2,13.672 z "
   style="fill:#000000;stroke-width:0;stroke-linecap:round;stroke-linejoin:round"
   id="path22" />
<path
   d="M 117.2,13.047 L 117.27,13.045 L 117.34,13.038 L 117.4,13.027 L 117.47,13.011 L 117.53,12.991 L 117.59,12.966 L 117.64,12.937 L 117.7,12.904 L 117.75,12.865 L 117.8,12.823 L 117.85,12.776 L 117.89,12.724 L 117.94,12.669 L 117.98,12.608 L 118.02,12.543 L 118.05,12.474 L 118.09,12.4 L 118.12,12.322 L 118.15,12.24 L 118.18,12.153 L 118.2,12.061 L 118.23,11.965 L 118.25,11.865 L 118.27,11.76 L 118.28,11.651 L 118.3,11.537 L 118.31,11.419 L 118.32,11.296 L 118.33,11.169 L 118.33,11.038 L 118.33,10.902 L 118.34,10.762 C 118.34,9.1523 117.97,8.3984 117.18,8.3984 C 116.44,8.3984 116.06,9.1836 116.06,10.734 C 116.06,12.289 116.44,13.047 117.2,13.047 z "
   style="fill:#000000;stroke-width:0;stroke-linecap:round;stroke-linejoin:round"
   id="path24" />
<path
   d="M 122.98,12.191 L 122.97,12.277 L 122.95,12.361 L 122.93,12.443 L 122.91,12.522 L 122.89,12.599 L 122.86,12.673 L 122.83,12.745 L 122.8,12.815 L 122.76,12.882 L 122.72,12.947 L 122.68,13.009 L 122.64,13.068 L 122.6,13.125 L 122.55,13.18 L 122.5,13.231 L 122.45,13.28 L 122.4,13.327 L 122.34,13.37 L 122.29,13.411 L 122.23,13.449 L 122.17,13.484 L 122.1,13.516 L 122.04,13.545 L 121.97,13.571 L 121.9,13.595 L 121.83,13.615 L 121.76,13.632 L 121.69,13.646 L 121.61,13.658 L 121.53,13.665 L 121.46,13.67 L 121.38,13.672 C 120.75,13.672 120.19,13.367 119.86,12.863 C 119.5,12.312 119.34,11.617 119.34,10.586 C 119.34,9.6328 119.49,9.0234 119.82,8.5195 C 120.13,8.0625 120.62,7.8164 121.25,7.8164 C 122.33,7.8164 123.11,8.6172 123.11,9.7266 C 123.11,10.785 122.38,11.527 121.37,11.527 C 120.81,11.527 120.37,11.312 120.06,10.894 C 120.07,12.281 120.52,13.047 121.33,13.047 C 121.82,13.047 122.17,12.734 122.28,12.191 L 122.98,12.191 z "
   style="fill:#000000;stroke-width:0;stroke-linecap:round;stroke-linejoin:round"
   id="path26" />
<path
   d="M 121.28,10.902 L 121.34,10.901 L 121.41,10.897 L 121.47,10.89 L 121.52,10.881 L 121.58,10.869 L 121.64,10.854 L 121.69,10.837 L 121.74,10.817 L 121.79,10.795 L 121.84,10.77 L 121.88,10.743 L 121.93,10.714 L 121.97,10.682 L 122.01,10.648 L 122.05,10.611 L 122.09,10.573 L 122.12,10.532 L 122.15,10.489 L 122.19,10.443 L 122.21,10.396 L 122.24,10.346 L 122.26,10.295 L 122.29,10.241 L 122.31,10.185 L 122.32,10.128 L 122.34,10.068 L 122.35,10.007 L 122.36,9.9434 L 122.37,9.8782 L 122.38,9.8112 L 122.38,9.7424 L 122.38,9.6719 C 122.38,8.9609 121.9,8.4414 121.26,8.4414 C 120.6,8.4414 120.11,8.9844 120.11,9.7109 C 120.11,10.414 120.59,10.902 121.28,10.902 z "
   style="fill:#000000;stroke-width:0;stroke-linecap:round;stroke-linejoin:round"
   id="path28" />
<path
   d="M 82.5,60.5 L 82.469,61.735 L 82.376,62.954 L 82.223,64.155 L 82.012,65.337 L 81.744,66.498 L 81.421,67.637 L 81.044,68.752 L 80.614,69.841 L 80.133,70.905 L 79.603,71.939 L 79.025,72.944 L 78.401,73.918 L 77.732,74.859 L 77.019,75.766 L 76.265,76.637 L 75.47,77.47 L 74.637,78.265 L 73.766,79.019 L 72.859,79.732 L 71.918,80.401 L 70.944,81.025 L 69.939,81.603 L 68.905,82.133 L 67.841,82.614 L 66.752,83.044 L 65.637,83.421 L 64.498,83.744 L 63.337,84.012 L 62.155,84.223 L 60.954,84.376 L 59.735,84.469 L 58.5,84.5 C 45.246,84.5 34.5,73.754 34.5,60.5 C 34.5,47.246 45.246,36.5 58.5,36.5 C 71.754,36.5 82.5,47.246 82.5,60.5 z "
   style="fill:#ffffff;fill-rule:nonzero;stroke:#ffffff;stroke-width:0;stroke-linecap:round;stroke-linejoin:round"
   id="path30" />
<path
   d="M 82.5,60.5 L 82.469,61.735 L 82.376,62.954 L 82.223,64.155 L 82.012,65.337 L 81.744,66.498 L 81.421,67.637 L 81.044,68.752 L 80.614,69.841 L 80.133,70.905 L 79.603,71.939 L 79.025,72.944 L 78.401,73.918 L 77.732,74.859 L 77.019,75.766 L 76.265,76.637 L 75.47,77.47 L 74.637,78.265 L 73.766,79.019 L 72.859,79.732 L 71.918,80.401 L 70.944,81.025 L 69.939,81.603 L 68.905,82.133 L 67.841,82.614 L 66.752,83.044 L 65.637,83.421 L 64.498,83.744 L 63.337,84.012 L 62.155,84.223 L 60.954,84.376 L 59.735,84.469 L 58.5,84.5 C 45.246,84.5 34.5,73.754 34.5,60.5 C 34.5,47.246 45.246,36.5 58.5,36.5 C 71.754,36.5 82.5,47.246 82.5,60.5 z "
   style="stroke:#ffffff;stroke-width:6;stroke-linecap:round;stroke-linejoin:round"
   id="path32" />
<path
   d="M 116.5,111.5 L 116.47,112.73 L 116.38,113.95 L 116.22,115.15 L 116.01,116.34 L 115.74,117.5 L 115.42,118.64 L 115.04,119.75 L 114.61,120.84 L 114.13,121.9 L 113.6,122.94 L 113.03,123.94 L 112.4,124.92 L 111.73,125.86 L 111.02,126.77 L 110.26,127.64 L 109.47,128.47 L 108.64,129.26 L 107.77,130.02 L 106.86,130.73 L 105.92,131.4 L 104.94,132.03 L 103.94,132.6 L 102.9,133.13 L 101.84,133.61 L 100.75,134.04 L 99.637,134.42 L 98.498,134.74 L 97.337,135.01 L 96.155,135.22 L 94.954,135.38 L 93.735,135.47 L 92.5,135.5 C 79.246,135.5 68.5,124.75 68.5,111.5 C 68.5,98.246 79.246,87.5 92.5,87.5 C 105.75,87.5 116.5,98.246 116.5,111.5 z "
   style="fill:#ffffff;fill-rule:nonzero;stroke:#ffffff;stroke-width:0;stroke-linecap:round;stroke-linejoin:round"
   id="path34" />
<path
   d="M 116.5,111.5 L 116.47,112.73 L 116.38,113.95 L 116.22,115.15 L 116.01,116.34 L 115.74,117.5 L 115.42,118.64 L 115.04,119.75 L 114.61,120.84 L 114.13,121.9 L 113.6,122.94 L 113.03,123.94 L 112.4,124.92 L 111.73,125.86 L 111.02,126.77 L 110.26,127.64 L 109.47,128.47 L 108.64,129.26 L 107.77,130.02 L 106.86,130.73 L 105.92,131.4 L 104.94,132.03 L 103.94,132.6 L 102.9,133.13 L 101.84,133.61 L 100.75,134.04 L 99.637,134.42 L 98.498,134.74 L 97.337,135.01 L 96.155,135.22 L 94.954,135.38 L 93.735,135.47 L 92.5,135.5 C 79.246,135.5 68.5,124.75 68.5,111.5 C 68.5,98.246 79.246,87.5 92.5,87.5 C 105.75,87.5 116.5,98.246 116.5,111.5 z "
   style="stroke:#ffffff;stroke-width:6;stroke-linecap:round;stroke-linejoin:round"
   id="path36" />
<line
   x1="58.5"
   y1="60.5"
   x2="23.5"
   y2="40.5"
   style="stroke:#ffffff;stroke-width:16;stroke-linecap:round"
   id="line38" />
<path
   d="M 23.5,120.5 L 23.711,120.87 C 44.637,108.84 68.359,102.5 92.5,102.5"
   style="stroke:#ffffff;stroke-width:16;stroke-linecap:round;stroke-linejoin:round"
   id="path40" />
<line
   x1="58.5"
   y1="60.5"
   x2="23.5"
   y2="40.5"
   style="stroke-width:12;stroke-linecap:round"
   id="line42" />
<path
   d="M 23.5,120.5 L 23.711,120.87 C 44.637,108.84 68.359,102.5 92.5,102.5"
   style="stroke-width:12;stroke-linecap:round;stroke-linejoin:round"
   id="path44" />
<path
   d="M 82.5,60.5 L 82.469,61.735 L 82.376,62.954 L 82.223,64.155 L 82.012,65.337 L 81.744,66.498 L 81.421,67.637 L 81.044,68.752 L 80.614,69.841 L 80.133,70.905 L 79.603,71.939 L 79.025,72.944 L 78.401,73.918 L 77.732,74.859 L 77.019,75.766 L 76.265,76.637 L 75.47,77.47 L 74.637,78.265 L 73.766,79.019 L 72.859,79.732 L 71.918,80.401 L 70.944,81.025 L 69.939,81.603 L 68.905,82.133 L 67.841,82.614 L 66.752,83.044 L 65.637,83.421 L 64.498,83.744 L 63.337,84.012 L 62.155,84.223 L 60.954,84.376 L 59.735,84.469 L 58.5,84.5 C 45.246,84.5 34.5,73.754 34.5,60.5 C 34.5,47.246 45.246,36.5 58.5,36.5 C 71.754,36.5 82.5,47.246 82.5,60.5 z "
   style="fill:#ffffff;fill-rule:nonzero;stroke:#ffffff;stroke-width:0;stroke-linecap:round;stroke-linejoin:round"
   id="path46" />
<path
   d="M 82.5,60.5 L 82.469,61.735 L 82.376,62.954 L 82.223,64.155 L 82.012,65.337 L 81.744,66.498 L 81.421,67.637 L 81.044,68.752 L 80.614,69.841 L 80.133,70.905 L 79.603,71.939 L 79.025,72.944 L 78.401,73.918 L 77.732,74.859 L 77.019,75.766 L 76.265,76.637 L 75.47,77.47 L 74.637,78.265 L 73.766,79.019 L 72.859,79.732 L 71.918,80.401 L 70.944,81.025 L 69.939,81.603 L 68.905,82.133 L 67.841,82.614 L 66.752,83.044 L 65.637,83.421 L 64.498,83.744 L 63.337,84.012 L 62.155,84.223 L 60.954,84.376 L 59.735,84.469 L 58.5,84.5 C 45.246,84.5 34.5,73.754 34.5,60.5 C 34.5,47.246 45.246,36.5 58.5,36.5 C 71.754,36.5 82.5,47.246 82.5,60.5 z "
   style="stroke-width:2;stroke-linecap:round;stroke-linejoin:round"
   id="path48" />
<path
   d="M 119.99,69.5 L 119.98,69.708 L 119.95,69.913 L 119.89,70.115 L 119.82,70.314 L 119.72,70.509 L 119.61,70.701 L 119.48,70.889 L 119.32,71.072 L 119.15,71.251 L 118.97,71.425 L 118.76,71.594 L 118.54,71.758 L 118.3,71.917 L 118.05,72.069 L 117.79,72.216 L 117.5,72.356 L 117.21,72.49 L 116.9,72.617 L 116.58,72.737 L 116.25,72.849 L 115.9,72.954 L 115.55,73.052 L 115.18,73.141 L 114.8,73.222 L 114.42,73.294 L 114.02,73.357 L 113.62,73.412 L 113.21,73.457 L 112.79,73.493 L 112.37,73.518 L 111.94,73.534 L 111.5,73.539 C 106.81,73.539 103.01,71.73 103.01,69.5 C 103.01,67.27 106.81,65.461 111.5,65.461 C 116.19,65.461 119.99,67.27 119.99,69.5 z "
   style="fill:#ffffff;fill-rule:nonzero;stroke:#ffffff;stroke-width:0;stroke-linecap:round;stroke-linejoin:round"
   id="path50" />
<path
   d="M 119.99,69.5 L 119.98,69.708 L 119.95,69.913 L 119.89,70.115 L 119.82,70.314 L 119.72,70.509 L 119.61,70.701 L 119.48,70.889 L 119.32,71.072 L 119.15,71.251 L 118.97,71.425 L 118.76,71.594 L 118.54,71.758 L 118.3,71.917 L 118.05,72.069 L 117.79,72.216 L 117.5,72.356 L 117.21,72.49 L 116.9,72.617 L 116.58,72.737 L 116.25,72.849 L 115.9,72.954 L 115.55,73.052 L 115.18,73.141 L 114.8,73.222 L 114.42,73.294 L 114.02,73.357 L 113.62,73.412 L 113.21,73.457 L 112.79,73.493 L 112.37,73.518 L 111.94,73.534 L 111.5,73.539 C 106.81,73.539 103.01,71.73 103.01,69.5 C 103.01,67.27 106.81,65.461 111.5,65.461 C 116.19,65.461 119.99,67.27 119.99,69.5 z "
   style="stroke-width:0.84906;stroke-linecap:round;stroke-linejoin:round"
   id="path52" />
<path
   d="M 107.91,69.586 L 107.92,69.587 L 107.94,69.587 L 107.95,69.588 L 107.96,69.589 L 107.97,69.589 L 107.98,69.59 L 107.99,69.59 L 108,69.59 L 108.01,69.591 L 108.02,69.591 L 108.03,69.592 L 108.04,69.592 L 108.06,69.592 L 108.08,69.593 L 108.1,69.593 L 108.11,69.593 L 108.13,69.594 L 108.15,69.594 L 108.16,69.594 L 108.18,69.594 L 108.19,69.594 L 108.21,69.594 C 108.62,69.594 108.94,69.527 109.12,69.398 C 109.34,69.246 109.48,68.938 109.48,68.602 C 109.48,68 109.09,67.633 108.46,67.633 C 108.01,67.633 107.59,67.816 107.59,68.016 C 107.59,68.031 107.6,68.055 107.61,68.078 C 107.67,68.246 107.67,68.258 107.67,68.352 C 107.67,68.695 107.37,68.961 106.98,68.961 C 106.59,68.961 106.3,68.641 106.3,68.223 C 106.3,67.465 107.22,66.895 108.46,66.895 C 109.22,66.895 109.95,67.098 110.41,67.441 C 110.79,67.719 111.05,68.223 111.05,68.672 C 111.05,69.32 110.63,69.785 109.89,69.969 C 110.44,70.168 110.79,70.602 110.79,71.078 C 110.79,71.945 109.9,72.551 108.65,72.551 C 107.4,72.551 106.47,71.945 106.47,71.113 C 106.47,70.695 106.74,70.406 107.15,70.406 C 107.54,70.406 107.85,70.664 107.85,71 C 107.85,71.098 107.82,71.207 107.77,71.289 C 107.73,71.367 107.71,71.398 107.71,71.441 C 107.71,71.617 108.11,71.816 108.46,71.816 C 108.94,71.816 109.26,71.551 109.26,71.145 C 109.26,70.848 109.11,70.566 108.88,70.434 C 108.73,70.352 108.43,70.297 108.14,70.297 L 108.05,70.297 L 107.91,70.305 L 107.91,69.586 z "
   style="fill:#000000;stroke-width:0;stroke-linecap:round;stroke-linejoin:round"
   id="path54" />
<path
   d="M 113.71,72.551 L 113.64,72.55 L 113.58,72.548 L 113.51,72.544 L 113.45,72.538 L 113.38,72.531 L 113.32,72.523 L 113.25,72.513 L 113.19,72.501 L 113.13,72.488 L 113.07,72.474 L 113.01,72.458 L 112.94,72.44 L 112.88,72.421 L 112.83,72.401 L 112.77,72.379 L 112.71,72.356 L 112.65,72.331 L 112.6,72.305 L 112.54,72.278 L 112.49,72.249 L 112.44,72.219 L 112.39,72.188 L 112.34,72.155 L 112.29,72.121 L 112.24,72.085 L 112.19,72.048 L 112.15,72.01 L 112.1,71.971 L 112.06,71.93 L 112.02,71.888 L 111.98,71.845 L 111.94,71.801 C 111.5,71.305 111.24,70.512 111.24,69.688 C 111.24,67.969 112.18,66.895 113.67,66.895 C 115.16,66.895 116.11,68 116.11,69.742 C 116.11,71.441 115.16,72.551 113.71,72.551 z "
   style="fill:#000000;stroke-width:0;stroke-linecap:round;stroke-linejoin:round"
   id="path56" />
<path
   d="M 113.67,71.816 L 113.73,71.814 L 113.78,71.808 L 113.84,71.796 L 113.89,71.781 L 113.94,71.761 L 113.99,71.737 L 114.03,71.709 L 114.08,71.677 L 114.12,71.64 L 114.16,71.599 L 114.2,71.554 L 114.24,71.505 L 114.27,71.452 L 114.31,71.395 L 114.34,71.334 L 114.37,71.269 L 114.4,71.2 L 114.43,71.127 L 114.45,71.05 L 114.48,70.97 L 114.5,70.885 L 114.52,70.797 L 114.54,70.706 L 114.55,70.61 L 114.57,70.511 L 114.58,70.408 L 114.59,70.302 L 114.6,70.192 L 114.61,70.079 L 114.61,69.963 L 114.62,69.842 L 114.62,69.719 C 114.62,68.383 114.28,67.633 113.67,67.633 C 113.06,67.633 112.73,68.383 112.73,69.754 C 112.73,71.062 113.08,71.816 113.67,71.816 z "
   style="fill:#000000;stroke-width:0;stroke-linecap:round;stroke-linejoin:round"
   id="path58" />
<path
   d="M 116.5,111.5 L 116.47,112.73 L 116.38,113.95 L 116.22,115.15 L 116.01,116.34 L 115.74,117.5 L 115.42,118.64 L 115.04,119.75 L 114.61,120.84 L 114.13,121.9 L 113.6,122.94 L 113.03,123.94 L 112.4,124.92 L 111.73,125.86 L 111.02,126.77 L 110.26,127.64 L 109.47,128.47 L 108.64,129.26 L 107.77,130.02 L 106.86,130.73 L 105.92,131.4 L 104.94,132.03 L 103.94,132.6 L 102.9,133.13 L 101.84,133.61 L 100.75,134.04 L 99.637,134.42 L 98.498,134.74 L 97.337,135.01 L 96.155,135.22 L 94.954,135.38 L 93.735,135.47 L 92.5,135.5 C 79.246,135.5 68.5,124.75 68.5,111.5 C 68.5,98.246 79.246,87.5 92.5,87.5 C 105.75,87.5 116.5,98.246 116.5,111.5 z "
   style="fill:#ffffff;fill-rule:nonzero;stroke:#ffffff;stroke-width:0;stroke-linecap:round;stroke-linejoin:round"
   id="path60" />
<path
   d="M 116.5,111.5 L 116.47,112.73 L 116.38,113.95 L 116.22,115.15 L 116.01,116.34 L 115.74,117.5 L 115.42,118.64 L 115.04,119.75 L 114.61,120.84 L 114.13,121.9 L 113.6,122.94 L 113.03,123.94 L 112.4,124.92 L 111.73,125.86 L 111.02,126.77 L 110.26,127.64 L 109.47,128.47 L 108.64,129.26 L 107.77,130.02 L 106.86,130.73 L 105.92,131.4 L 104.94,132.03 L 103.94,132.6 L 102.9,133.13 L 101.84,133.61 L 100.75,134.04 L 99.637,134.42 L 98.498,134.74 L 97.337,135.01 L 96.155,135.22 L 94.954,135.38 L 93.735,135.47 L 92.5,135.5 C 79.246,135.5 68.5,124.75 68.5,111.5 C 68.5,98.246 79.246,87.5 92.5,87.5 C 105.75,87.5 116.5,98.246 116.5,111.5 z "
   style="stroke-width:2;stroke-linecap:round;stroke-linejoin:round"
   id="path62" />
<path
   d="M 119.99,69.5 L 119.98,69.708 L 119.95,69.913 L 119.89,70.115 L 119.82,70.314 L 119.72,70.509 L 119.61,70.701 L 119.48,70.889 L 119.32,71.072 L 119.15,71.251 L 118.97,71.425 L 118.76,71.594 L 118.54,71.758 L 118.3,71.917 L 118.05,72.069 L 117.79,72.216 L 117.5,72.356 L 117.21,72.49 L 116.9,72.617 L 116.58,72.737 L 116.25,72.849 L 115.9,72.954 L 115.55,73.052 L 115.18,73.141 L 114.8,73.222 L 114.42,73.294 L 114.02,73.357 L 113.62,73.412 L 113.21,73.457 L 112.79,73.493 L 112.37,73.518 L 111.94,73.534 L 111.5,73.539 C 106.81,73.539 103.01,71.73 103.01,69.5 C 103.01,67.27 106.81,65.461 111.5,65.461 C 116.19,65.461 119.99,67.27 119.99,69.5 z "
   style="fill:#ffffff;fill-rule:nonzero;stroke:#ffffff;stroke-width:0;stroke-linecap:round;stroke-linejoin:round"
   id="path64" />
<path
   d="M 119.99,69.5 L 119.98,69.708 L 119.95,69.913 L 119.89,70.115 L 119.82,70.314 L 119.72,70.509 L 119.61,70.701 L 119.48,70.889 L 119.32,71.072 L 119.15,71.251 L 118.97,71.425 L 118.76,71.594 L 118.54,71.758 L 118.3,71.917 L 118.05,72.069 L 117.79,72.216 L 117.5,72.356 L 117.21,72.49 L 116.9,72.617 L 116.58,72.737 L 116.25,72.849 L 115.9,72.954 L 115.55,73.052 L 115.18,73.141 L 114.8,73.222 L 114.42,73.294 L 114.02,73.357 L 113.62,73.412 L 113.21,73.457 L 112.79,73.493 L 112.37,73.518 L 111.94,73.534 L 111.5,73.539 C 106.81,73.539 103.01,71.73 103.01,69.5 C 103.01,67.27 106.81,65.461 111.5,65.461 C 116.19,65.461 119.99,67.27 119.99,69.5 z "
   style="stroke-width:0.84906;stroke-linecap:round;stroke-linejoin:round"
   id="path66" />
<path
   d="M 107.91,69.586 L 107.92,69.587 L 107.94,69.587 L 107.95,69.588 L 107.96,69.589 L 107.97,69.589 L 107.98,69.59 L 107.99,69.59 L 108,69.59 L 108.01,69.591 L 108.02,69.591 L 108.03,69.592 L 108.04,69.592 L 108.06,69.592 L 108.08,69.593 L 108.1,69.593 L 108.11,69.593 L 108.13,69.594 L 108.15,69.594 L 108.16,69.594 L 108.18,69.594 L 108.19,69.594 L 108.21,69.594 C 108.62,69.594 108.94,69.527 109.12,69.398 C 109.34,69.246 109.48,68.938 109.48,68.602 C 109.48,68 109.09,67.633 108.46,67.633 C 108.01,67.633 107.59,67.816 107.59,68.016 C 107.59,68.031 107.6,68.055 107.61,68.078 C 107.67,68.246 107.67,68.258 107.67,68.352 C 107.67,68.695 107.37,68.961 106.98,68.961 C 106.59,68.961 106.3,68.641 106.3,68.223 C 106.3,67.465 107.22,66.895 108.46,66.895 C 109.22,66.895 109.95,67.098 110.41,67.441 C 110.79,67.719 111.05,68.223 111.05,68.672 C 111.05,69.32 110.63,69.785 109.89,69.969 C 110.44,70.168 110.79,70.602 110.79,71.078 C 110.79,71.945 109.9,72.551 108.65,72.551 C 107.4,72.551 106.47,71.945 106.47,71.113 C 106.47,70.695 106.74,70.406 107.15,70.406 C 107.54,70.406 107.85,70.664 107.85,71 C 107.85,71.098 107.82,71.207 107.77,71.289 C 107.73,71.367 107.71,71.398 107.71,71.441 C 107.71,71.617 108.11,71.816 108.46,71.816 C 108.94,71.816 109.26,71.551 109.26,71.145 C 109.26,70.848 109.11,70.566 108.88,70.434 C 108.73,70.352 108.43,70.297 108.14,70.297 L 108.05,70.297 L 107.91,70.305 L 107.91,69.586 z "
   style="fill:#000000;stroke-width:0;stroke-linecap:round;stroke-linejoin:round"
   id="path68" />
<path
   d="M 113.71,72.551 L 113.64,72.55 L 113.58,72.548 L 113.51,72.544 L 113.45,72.538 L 113.38,72.531 L 113.32,72.523 L 113.25,72.513 L 113.19,72.501 L 113.13,72.488 L 113.07,72.474 L 113.01,72.458 L 112.94,72.44 L 112.88,72.421 L 112.83,72.401 L 112.77,72.379 L 112.71,72.356 L 112.65,72.331 L 112.6,72.305 L 112.54,72.278 L 112.49,72.249 L 112.44,72.219 L 112.39,72.188 L 112.34,72.155 L 112.29,72.121 L 112.24,72.085 L 112.19,72.048 L 112.15,72.01 L 112.1,71.971 L 112.06,71.93 L 112.02,71.888 L 111.98,71.845 L 111.94,71.801 C 111.5,71.305 111.24,70.512 111.24,69.688 C 111.24,67.969 112.18,66.895 113.67,66.895 C 115.16,66.895 116.11,68 116.11,69.742 C 116.11,71.441 115.16,72.551 113.71,72.551 z "
   style="fill:#000000;stroke-width:0;stroke-linecap:round;stroke-linejoin:round"
   id="path70" />
<path
   d="M 113.67,71.816 L 113.73,71.814 L 113.78,71.808 L 113.84,71.796 L 113.89,71.781 L 113.94,71.761 L 113.99,71.737 L 114.03,71.709 L 114.08,71.677 L 114.12,71.64 L 114.16,71.599 L 114.2,71.554 L 114.24,71.505 L 114.27,71.452 L 114.31,71.395 L 114.34,71.334 L 114.37,71.269 L 114.4,71.2 L 114.43,71.127 L 114.45,71.05 L 114.48,70.97 L 114.5,70.885 L 114.52,70.797 L 114.54,70.706 L 114.55,70.61 L 114.57,70.511 L 114.58,70.408 L 114.59,70.302 L 114.6,70.192 L 114.61,70.079 L 114.61,69.963 L 114.62,69.842 L 114.62,69.719 C 114.62,68.383 114.28,67.633 113.67,67.633 C 113.06,67.633 112.73,68.383 112.73,69.754 C 112.73,71.062 113.08,71.816 113.67,71.816 z "
   style="fill:#000000;stroke-width:0;stroke-linecap:round;stroke-linejoin:round"
   id="path72" />
<path
   d="M 19.312,75 L 24.559,75 C 25.902,75 26.801,75.258 27.504,75.848 C 28.207,76.441 28.656,77.434 28.656,78.359 C 28.656,79.512 28.031,80.426 26.719,81.191 C 27.871,81.93 28.32,82.602 28.32,83.594 C 28.32,84.391 27.922,85.238 27.266,85.816 C 26.574,86.406 25.762,86.664 24.512,86.664 L 19.312,86.664 L 19.312,75 z "
   style="fill:#000000;stroke-width:0;stroke-linecap:round;stroke-linejoin:round"
   id="path74" />
<path
   d="M 21.711,84.664 L 24.32,84.664 C 25.426,84.664 26.016,84.199 26.016,83.336 C 26.016,82.488 25.426,82.023 24.32,82.023 L 21.711,82.023 L 21.711,84.664 z "
   style="fill:#000000;stroke-width:0;stroke-linecap:round;stroke-linejoin:round"
   id="path76" />
<path
   d="M 21.711,80.023 L 24.574,80.023 C 25.742,80.023 26.352,79.496 26.352,78.504 C 26.352,77.527 25.742,77 24.574,77 L 21.711,77 L 21.711,80.023 z "
   style="fill:#000000;stroke-width:0;stroke-linecap:round;stroke-linejoin:round"
   id="path78" />
<polygon
   points="46.5,160.5 138.5,160.5 184.5,80.5 138.5,0.5 46.5,0.5 0.5,80.5 46.5,160.5 "
   style="stroke-width:1;stroke-linejoin:round"
   id="polygon80" />
</g></svg>
