<?xml version="1.0" encoding="UTF-8" standalone="no"?>
<svg
   xmlns:dc="http://purl.org/dc/elements/1.1/"
   xmlns:cc="http://web.resource.org/cc/"
   xmlns:rdf="http://www.w3.org/1999/02/22-rdf-syntax-ns#"
   xmlns:svg="http://www.w3.org/2000/svg"
   xmlns="http://www.w3.org/2000/svg"
   xmlns:sodipodi="http://sodipodi.sourceforge.net/DTD/sodipodi-0.dtd"
   xmlns:inkscape="http://www.inkscape.org/namespaces/inkscape"
   width="100"
   height="100"
   viewBox="0 0 1 1"
   preserveAspectRatio="none"
   id="svg7715"
   sodipodi:version="0.32"
   inkscape:version="0.45.1"
   sodipodi:docname="tile62.svg"
   sodipodi:docbase="C:\Documents and Settings\Brett\workspace\18xx\tiles\svg"
   version="1.0"
   inkscape:output_extension="org.inkscape.output.svg.inkscape">
  <metadata
     id="metadata7812">
    <rdf:RDF>
      <cc:Work
         rdf:about="">
        <dc:format>image/svg+xml</dc:format>
        <dc:type
           rdf:resource="http://purl.org/dc/dcmitype/StillImage" />
      </cc:Work>
    </rdf:RDF>
  </metadata>
  <defs
     id="defs7810" />
  <sodipodi:namedview
     inkscape:window-height="579"
     inkscape:window-width="749"
     inkscape:pageshadow="2"
     inkscape:pageopacity="0.0"
     borderopacity="1.0"
     bordercolor="#666666"
     pagecolor="#ffffff"
     id="base"
     inkscape:zoom="3.0424806"
     inkscape:cx="67.757196"
     inkscape:cy="48.079395"
     inkscape:window-x="198"
     inkscape:window-y="198"
     inkscape:current-layer="svg7715" />
  <title
     id="title7717">SVG drawing</title>
  <desc
     id="desc7719">This was produced by version 4.1 of GNU libplot, a free library for exporting 2-D vector graphics.</desc>
  <g
     transform="matrix(5.4159423e-3,0,0,-6.1579774e-3,-9.746814e-4,0.9997899)"
     xml:space="preserve"
     style="font-style:normal;font-variant:normal;font-weight:normal;font-stretch:normal;letter-spacing:normal;word-spacing:normal;text-anchor:start;fill:none;fill-opacity:1;stroke:#000000;stroke-linecap:butt;stroke-linejoin:miter;stroke-miterlimit:10.43299961;stroke-dasharray:none;stroke-dashoffset:0;stroke-opacity:1"
     id="g7723">
<polygon
   points="46.5,160.5 138.5,160.5 184.5,80.5 138.5,0.5 46.5,0.5 0.5,80.5 46.5,160.5 "
   style="fill:#b46301;fill-rule:nonzero;stroke:#b46301;stroke-width:0;stroke-linejoin:round"
   id="polygon7725" />
<text
   transform="matrix(1,0,0,-1,111.2,7.9141)"
   style="font-size:8px;fill:#000000;stroke:none;font-family:&quot;Helvetica&quot;, sans-serif"
   id="text7727">62</text>


<polygon
   points="68.5,16.5 116.5,16.5 116.5,64.5 68.5,64.5 68.5,16.5 "
   style="fill:#ffffff;fill-rule:nonzero;stroke:#ffffff;stroke-width:0;stroke-linejoin:round"
   id="polygon7729" />
<polygon
   points="68.5,16.5 116.5,16.5 116.5,64.5 68.5,64.5 68.5,16.5 "
   style="stroke:#ffffff;stroke-width:6;stroke-linejoin:round"
   id="polygon7731" />
<path
   d="M 140.5,40.5 L 140.47,41.735 L 140.38,42.954 L 140.22,44.155 L 140.01,45.337 L 139.74,46.498 L 139.42,47.637 L 139.04,48.752 L 138.61,49.841 L 138.13,50.905 L 137.6,51.939 L 137.03,52.944 L 136.4,53.918 L 135.73,54.859 L 135.02,55.766 L 134.26,56.637 L 133.47,57.47 L 132.64,58.265 L 131.77,59.019 L 130.86,59.732 L 129.92,60.401 L 128.94,61.025 L 127.94,61.603 L 126.9,62.133 L 125.84,62.614 L 124.75,63.044 L 123.64,63.421 L 122.5,63.744 L 121.34,64.012 L 120.15,64.223 L 118.95,64.376 L 117.73,64.469 L 116.5,64.5 C 103.25,64.5 92.5,53.754 92.5,40.5 C 92.5,27.246 103.25,16.5 116.5,16.5 C 129.75,16.5 140.5,27.246 140.5,40.5 z "
   style="fill:#ffffff;fill-rule:nonzero;stroke:#ffffff;stroke-width:0;stroke-linecap:round;stroke-linejoin:round"
   id="path7733" />
<path
   d="M 140.5,40.5 L 140.47,41.735 L 140.38,42.954 L 140.22,44.155 L 140.01,45.337 L 139.74,46.498 L 139.42,47.637 L 139.04,48.752 L 138.61,49.841 L 138.13,50.905 L 137.6,51.939 L 137.03,52.944 L 136.4,53.918 L 135.73,54.859 L 135.02,55.766 L 134.26,56.637 L 133.47,57.47 L 132.64,58.265 L 131.77,59.019 L 130.86,59.732 L 129.92,60.401 L 128.94,61.025 L 127.94,61.603 L 126.9,62.133 L 125.84,62.614 L 124.75,63.044 L 123.64,63.421 L 122.5,63.744 L 121.34,64.012 L 120.15,64.223 L 118.95,64.376 L 117.73,64.469 L 116.5,64.5 C 103.25,64.5 92.5,53.754 92.5,40.5 C 92.5,27.246 103.25,16.5 116.5,16.5 C 129.75,16.5 140.5,27.246 140.5,40.5 z "
   style="stroke:#ffffff;stroke-width:6;stroke-linecap:round;stroke-linejoin:round"
   id="path7735" />
<path
   d="M 92.5,40.5 L 92.469,41.735 L 92.376,42.954 L 92.223,44.155 L 92.012,45.337 L 91.744,46.498 L 91.421,47.637 L 91.044,48.752 L 90.614,49.841 L 90.133,50.905 L 89.603,51.939 L 89.025,52.944 L 88.401,53.918 L 87.732,54.859 L 87.019,55.766 L 86.265,56.637 L 85.47,57.47 L 84.637,58.265 L 83.766,59.019 L 82.859,59.732 L 81.918,60.401 L 80.944,61.025 L 79.939,61.603 L 78.905,62.133 L 77.841,62.614 L 76.752,63.044 L 75.637,63.421 L 74.498,63.744 L 73.337,64.012 L 72.155,64.223 L 70.954,64.376 L 69.735,64.469 L 68.5,64.5 C 55.246,64.5 44.5,53.754 44.5,40.5 C 44.5,27.246 55.246,16.5 68.5,16.5 C 81.754,16.5 92.5,27.246 92.5,40.5 z "
   style="fill:#ffffff;fill-rule:nonzero;stroke:#ffffff;stroke-width:0;stroke-linecap:round;stroke-linejoin:round"
   id="path7737" />
<path
   d="M 92.5,40.5 L 92.469,41.735 L 92.376,42.954 L 92.223,44.155 L 92.012,45.337 L 91.744,46.498 L 91.421,47.637 L 91.044,48.752 L 90.614,49.841 L 90.133,50.905 L 89.603,51.939 L 89.025,52.944 L 88.401,53.918 L 87.732,54.859 L 87.019,55.766 L 86.265,56.637 L 85.47,57.47 L 84.637,58.265 L 83.766,59.019 L 82.859,59.732 L 81.918,60.401 L 80.944,61.025 L 79.939,61.603 L 78.905,62.133 L 77.841,62.614 L 76.752,63.044 L 75.637,63.421 L 74.498,63.744 L 73.337,64.012 L 72.155,64.223 L 70.954,64.376 L 69.735,64.469 L 68.5,64.5 C 55.246,64.5 44.5,53.754 44.5,40.5 C 44.5,27.246 55.246,16.5 68.5,16.5 C 81.754,16.5 92.5,27.246 92.5,40.5 z "
   style="stroke:#ffffff;stroke-width:6;stroke-linecap:round;stroke-linejoin:round"
   id="path7739" />
<polygon
   points="68.5,96.5 116.5,96.5 116.5,144.5 68.5,144.5 68.5,96.5 "
   style="fill:#ffffff;fill-rule:nonzero;stroke:#ffffff;stroke-width:0;stroke-linejoin:round"
   id="polygon7741" />
<polygon
   points="68.5,96.5 116.5,96.5 116.5,144.5 68.5,144.5 68.5,96.5 "
   style="stroke:#ffffff;stroke-width:6;stroke-linejoin:round"
   id="polygon7743" />
<path
   d="M 92.5,120.5 L 92.469,121.73 L 92.376,122.95 L 92.223,124.15 L 92.012,125.34 L 91.744,126.5 L 91.421,127.64 L 91.044,128.75 L 90.614,129.84 L 90.133,130.9 L 89.603,131.94 L 89.025,132.94 L 88.401,133.92 L 87.732,134.86 L 87.019,135.77 L 86.265,136.64 L 85.47,137.47 L 84.637,138.26 L 83.766,139.02 L 82.859,139.73 L 81.918,140.4 L 80.944,141.03 L 79.939,141.6 L 78.905,142.13 L 77.841,142.61 L 76.752,143.04 L 75.637,143.42 L 74.498,143.74 L 73.337,144.01 L 72.155,144.22 L 70.954,144.38 L 69.735,144.47 L 68.5,144.5 C 55.246,144.5 44.5,133.75 44.5,120.5 C 44.5,107.25 55.246,96.5 68.5,96.5 C 81.754,96.5 92.5,107.25 92.5,120.5 z "
   style="fill:#ffffff;fill-rule:nonzero;stroke:#ffffff;stroke-width:0;stroke-linecap:round;stroke-linejoin:round"
   id="path7745" />
<path
   d="M 92.5,120.5 L 92.469,121.73 L 92.376,122.95 L 92.223,124.15 L 92.012,125.34 L 91.744,126.5 L 91.421,127.64 L 91.044,128.75 L 90.614,129.84 L 90.133,130.9 L 89.603,131.94 L 89.025,132.94 L 88.401,133.92 L 87.732,134.86 L 87.019,135.77 L 86.265,136.64 L 85.47,137.47 L 84.637,138.26 L 83.766,139.02 L 82.859,139.73 L 81.918,140.4 L 80.944,141.03 L 79.939,141.6 L 78.905,142.13 L 77.841,142.61 L 76.752,143.04 L 75.637,143.42 L 74.498,143.74 L 73.337,144.01 L 72.155,144.22 L 70.954,144.38 L 69.735,144.47 L 68.5,144.5 C 55.246,144.5 44.5,133.75 44.5,120.5 C 44.5,107.25 55.246,96.5 68.5,96.5 C 81.754,96.5 92.5,107.25 92.5,120.5 z "
   style="stroke:#ffffff;stroke-width:6;stroke-linecap:round;stroke-linejoin:round"
   id="path7747" />
<path
   d="M 140.5,120.5 L 140.47,121.73 L 140.38,122.95 L 140.22,124.15 L 140.01,125.34 L 139.74,126.5 L 139.42,127.64 L 139.04,128.75 L 138.61,129.84 L 138.13,130.9 L 137.6,131.94 L 137.03,132.94 L 136.4,133.92 L 135.73,134.86 L 135.02,135.77 L 134.26,136.64 L 133.47,137.47 L 132.64,138.26 L 131.77,139.02 L 130.86,139.73 L 129.92,140.4 L 128.94,141.03 L 127.94,141.6 L 126.9,142.13 L 125.84,142.61 L 124.75,143.04 L 123.64,143.42 L 122.5,143.74 L 121.34,144.01 L 120.15,144.22 L 118.95,144.38 L 117.73,144.47 L 116.5,144.5 C 103.25,144.5 92.5,133.75 92.5,120.5 C 92.5,107.25 103.25,96.5 116.5,96.5 C 129.75,96.5 140.5,107.25 140.5,120.5 z "
   style="fill:#ffffff;fill-rule:nonzero;stroke:#ffffff;stroke-width:0;stroke-linecap:round;stroke-linejoin:round"
   id="path7749" />
<path
   d="M 140.5,120.5 L 140.47,121.73 L 140.38,122.95 L 140.22,124.15 L 140.01,125.34 L 139.74,126.5 L 139.42,127.64 L 139.04,128.75 L 138.61,129.84 L 138.13,130.9 L 137.6,131.94 L 137.03,132.94 L 136.4,133.92 L 135.73,134.86 L 135.02,135.77 L 134.26,136.64 L 133.47,137.47 L 132.64,138.26 L 131.77,139.02 L 130.86,139.73 L 129.92,140.4 L 128.94,141.03 L 127.94,141.6 L 126.9,142.13 L 125.84,142.61 L 124.75,143.04 L 123.64,143.42 L 122.5,143.74 L 121.34,144.01 L 120.15,144.22 L 118.95,144.38 L 117.73,144.47 L 116.5,144.5 C 103.25,144.5 92.5,133.75 92.5,120.5 C 92.5,107.25 103.25,96.5 116.5,96.5 C 129.75,96.5 140.5,107.25 140.5,120.5 z "
   style="stroke:#ffffff;stroke-width:6;stroke-linecap:round;stroke-linejoin:round"
   id="path7751" />
<line
   x1="92.5"
   y1="40.5"
   x2="92.5"
   y2="0.5"
   style="stroke:#ffffff;stroke-width:16;stroke-linecap:round"
   id="line7753" />
<path
   d="M 23.5,40.5 L 23.57,40.379 C 30.547,44.387 38.457,46.5 46.5,46.5 C 54.547,46.5 62.457,44.387 69.434,40.375 L 92.5,40.5"
   style="stroke:#ffffff;stroke-width:16;stroke-linecap:round;stroke-linejoin:round"
   id="path7755" />
<path
   d="M 23.5,120.5 L 23.57,120.62 C 30.547,116.61 38.457,114.5 46.5,114.5 C 54.547,114.5 62.457,116.61 69.434,120.62 L 92.5,120.5"
   style="stroke:#ffffff;stroke-width:16;stroke-linecap:round;stroke-linejoin:round"
   id="path7757" />
<line
   x1="92.5"
   y1="120.5"
   x2="92.5"
   y2="160.5"
   style="stroke:#ffffff;stroke-width:16;stroke-linecap:round"
   id="line7759" />
<line
   x1="92.5"
   y1="40.5"
   x2="92.5"
   y2="0.5"
   style="stroke-width:12;stroke-linecap:round"
   id="line7761" />
<path
   d="M 23.5,40.5 L 23.57,40.379 C 30.547,44.387 38.457,46.5 46.5,46.5 C 54.547,46.5 62.457,44.387 69.434,40.375 L 92.5,40.5"
   style="stroke-width:12;stroke-linecap:round;stroke-linejoin:round"
   id="path7763" />
<path
   d="M 23.5,120.5 L 23.57,120.62 C 30.547,116.61 38.457,114.5 46.5,114.5 C 54.547,114.5 62.457,116.61 69.434,120.62 L 92.5,120.5"
   style="stroke-width:12;stroke-linecap:round;stroke-linejoin:round"
   id="path7765" />
<line
   x1="92.5"
   y1="120.5"
   x2="92.5"
   y2="160.5"
   style="stroke-width:12;stroke-linecap:round"
   id="line7767" />
<polygon
   points="68.5,16.5 116.5,16.5 116.5,64.5 68.5,64.5 68.5,16.5 "
   style="fill:#ffffff;fill-rule:nonzero;stroke:#ffffff;stroke-width:0;stroke-linejoin:round"
   id="polygon7769" />
<polygon
   points="68.5,16.5 116.5,16.5 116.5,64.5 68.5,64.5 68.5,16.5 "
   style="stroke-width:2;stroke-linejoin:round"
   id="polygon7771" />
<path
   d="M 140.5,40.5 L 140.47,41.735 L 140.38,42.954 L 140.22,44.155 L 140.01,45.337 L 139.74,46.498 L 139.42,47.637 L 139.04,48.752 L 138.61,49.841 L 138.13,50.905 L 137.6,51.939 L 137.03,52.944 L 136.4,53.918 L 135.73,54.859 L 135.02,55.766 L 134.26,56.637 L 133.47,57.47 L 132.64,58.265 L 131.77,59.019 L 130.86,59.732 L 129.92,60.401 L 128.94,61.025 L 127.94,61.603 L 126.9,62.133 L 125.84,62.614 L 124.75,63.044 L 123.64,63.421 L 122.5,63.744 L 121.34,64.012 L 120.15,64.223 L 118.95,64.376 L 117.73,64.469 L 116.5,64.5 C 103.25,64.5 92.5,53.754 92.5,40.5 C 92.5,27.246 103.25,16.5 116.5,16.5 C 129.75,16.5 140.5,27.246 140.5,40.5 z "
   style="fill:#ffffff;fill-rule:nonzero;stroke:#ffffff;stroke-width:0;stroke-linecap:round;stroke-linejoin:round"
   id="path7773" />
<path
   d="M 140.5,40.5 L 140.47,41.735 L 140.38,42.954 L 140.22,44.155 L 140.01,45.337 L 139.74,46.498 L 139.42,47.637 L 139.04,48.752 L 138.61,49.841 L 138.13,50.905 L 137.6,51.939 L 137.03,52.944 L 136.4,53.918 L 135.73,54.859 L 135.02,55.766 L 134.26,56.637 L 133.47,57.47 L 132.64,58.265 L 131.77,59.019 L 130.86,59.732 L 129.92,60.401 L 128.94,61.025 L 127.94,61.603 L 126.9,62.133 L 125.84,62.614 L 124.75,63.044 L 123.64,63.421 L 122.5,63.744 L 121.34,64.012 L 120.15,64.223 L 118.95,64.376 L 117.73,64.469 L 116.5,64.5 C 103.25,64.5 92.5,53.754 92.5,40.5 C 92.5,27.246 103.25,16.5 116.5,16.5 C 129.75,16.5 140.5,27.246 140.5,40.5 z "
   style="stroke-width:2;stroke-linecap:round;stroke-linejoin:round"
   id="path7775" />
<path
   d="M 92.5,40.5 L 92.469,41.735 L 92.376,42.954 L 92.223,44.155 L 92.012,45.337 L 91.744,46.498 L 91.421,47.637 L 91.044,48.752 L 90.614,49.841 L 90.133,50.905 L 89.603,51.939 L 89.025,52.944 L 88.401,53.918 L 87.732,54.859 L 87.019,55.766 L 86.265,56.637 L 85.47,57.47 L 84.637,58.265 L 83.766,59.019 L 82.859,59.732 L 81.918,60.401 L 80.944,61.025 L 79.939,61.603 L 78.905,62.133 L 77.841,62.614 L 76.752,63.044 L 75.637,63.421 L 74.498,63.744 L 73.337,64.012 L 72.155,64.223 L 70.954,64.376 L 69.735,64.469 L 68.5,64.5 C 55.246,64.5 44.5,53.754 44.5,40.5 C 44.5,27.246 55.246,16.5 68.5,16.5 C 81.754,16.5 92.5,27.246 92.5,40.5 z "
   style="fill:#ffffff;fill-rule:nonzero;stroke:#ffffff;stroke-width:0;stroke-linecap:round;stroke-linejoin:round"
   id="path7777" />
<path
   d="M 92.5,40.5 L 92.469,41.735 L 92.376,42.954 L 92.223,44.155 L 92.012,45.337 L 91.744,46.498 L 91.421,47.637 L 91.044,48.752 L 90.614,49.841 L 90.133,50.905 L 89.603,51.939 L 89.025,52.944 L 88.401,53.918 L 87.732,54.859 L 87.019,55.766 L 86.265,56.637 L 85.47,57.47 L 84.637,58.265 L 83.766,59.019 L 82.859,59.732 L 81.918,60.401 L 80.944,61.025 L 79.939,61.603 L 78.905,62.133 L 77.841,62.614 L 76.752,63.044 L 75.637,63.421 L 74.498,63.744 L 73.337,64.012 L 72.155,64.223 L 70.954,64.376 L 69.735,64.469 L 68.5,64.5 C 55.246,64.5 44.5,53.754 44.5,40.5 C 44.5,27.246 55.246,16.5 68.5,16.5 C 81.754,16.5 92.5,27.246 92.5,40.5 z "
   style="stroke-width:2;stroke-linecap:round;stroke-linejoin:round"
   id="path7779" />
<path
   d="M 31.992,80.5 L 31.981,80.708 L 31.948,80.913 L 31.894,81.115 L 31.82,81.314 L 31.725,81.509 L 31.61,81.701 L 31.477,81.889 L 31.324,82.072 L 31.154,82.251 L 30.967,82.425 L 30.762,82.594 L 30.541,82.758 L 30.304,82.917 L 30.052,83.069 L 29.785,83.216 L 29.504,83.356 L 29.209,83.49 L 28.901,83.617 L 28.58,83.737 L 28.247,83.849 L 27.902,83.954 L 27.547,84.052 L 27.181,84.141 L 26.804,84.222 L 26.419,84.294 L 26.024,84.357 L 25.621,84.412 L 25.211,84.457 L 24.793,84.493 L 24.368,84.518 L 23.937,84.534 L 23.5,84.539 C 18.812,84.539 15.008,82.73 15.008,80.5 C 15.008,78.27 18.812,76.461 23.5,76.461 C 28.188,76.461 31.992,78.27 31.992,80.5 z "
   style="fill:#ffffff;fill-rule:nonzero;stroke:#ffffff;stroke-width:0;stroke-linecap:round;stroke-linejoin:round"
   id="path7781" />
<path
   d="M 31.992,80.5 L 31.981,80.708 L 31.948,80.913 L 31.894,81.115 L 31.82,81.314 L 31.725,81.509 L 31.61,81.701 L 31.477,81.889 L 31.324,82.072 L 31.154,82.251 L 30.967,82.425 L 30.762,82.594 L 30.541,82.758 L 30.304,82.917 L 30.052,83.069 L 29.785,83.216 L 29.504,83.356 L 29.209,83.49 L 28.901,83.617 L 28.58,83.737 L 28.247,83.849 L 27.902,83.954 L 27.547,84.052 L 27.181,84.141 L 26.804,84.222 L 26.419,84.294 L 26.024,84.357 L 25.621,84.412 L 25.211,84.457 L 24.793,84.493 L 24.368,84.518 L 23.937,84.534 L 23.5,84.539 C 18.812,84.539 15.008,82.73 15.008,80.5 C 15.008,78.27 18.812,76.461 23.5,76.461 C 28.188,76.461 31.992,78.27 31.992,80.5 z "
   style="stroke-width:0.84906;stroke-linecap:round;stroke-linejoin:round"
   id="path7783" />
<text
   transform="matrix(1,0,0,-1,18.191,77.977)"
   style="font-size:8px;fill:#000000;stroke:none;font-family:&quot;Helvetica&quot;, sans-serif"
   id="text7785">80</text>


<polygon
   points="68.5,96.5 116.5,96.5 116.5,144.5 68.5,144.5 68.5,96.5 "
   style="fill:#ffffff;fill-rule:nonzero;stroke:#ffffff;stroke-width:0;stroke-linejoin:round"
   id="polygon7787" />
<polygon
   points="68.5,96.5 116.5,96.5 116.5,144.5 68.5,144.5 68.5,96.5 "
   style="stroke-width:2;stroke-linejoin:round"
   id="polygon7789" />
<path
   d="M 92.5,120.5 L 92.469,121.73 L 92.376,122.95 L 92.223,124.15 L 92.012,125.34 L 91.744,126.5 L 91.421,127.64 L 91.044,128.75 L 90.614,129.84 L 90.133,130.9 L 89.603,131.94 L 89.025,132.94 L 88.401,133.92 L 87.732,134.86 L 87.019,135.77 L 86.265,136.64 L 85.47,137.47 L 84.637,138.26 L 83.766,139.02 L 82.859,139.73 L 81.918,140.4 L 80.944,141.03 L 79.939,141.6 L 78.905,142.13 L 77.841,142.61 L 76.752,143.04 L 75.637,143.42 L 74.498,143.74 L 73.337,144.01 L 72.155,144.22 L 70.954,144.38 L 69.735,144.47 L 68.5,144.5 C 55.246,144.5 44.5,133.75 44.5,120.5 C 44.5,107.25 55.246,96.5 68.5,96.5 C 81.754,96.5 92.5,107.25 92.5,120.5 z "
   style="fill:#ffffff;fill-rule:nonzero;stroke:#ffffff;stroke-width:0;stroke-linecap:round;stroke-linejoin:round"
   id="path7791" />
<path
   d="M 92.5,120.5 L 92.469,121.73 L 92.376,122.95 L 92.223,124.15 L 92.012,125.34 L 91.744,126.5 L 91.421,127.64 L 91.044,128.75 L 90.614,129.84 L 90.133,130.9 L 89.603,131.94 L 89.025,132.94 L 88.401,133.92 L 87.732,134.86 L 87.019,135.77 L 86.265,136.64 L 85.47,137.47 L 84.637,138.26 L 83.766,139.02 L 82.859,139.73 L 81.918,140.4 L 80.944,141.03 L 79.939,141.6 L 78.905,142.13 L 77.841,142.61 L 76.752,143.04 L 75.637,143.42 L 74.498,143.74 L 73.337,144.01 L 72.155,144.22 L 70.954,144.38 L 69.735,144.47 L 68.5,144.5 C 55.246,144.5 44.5,133.75 44.5,120.5 C 44.5,107.25 55.246,96.5 68.5,96.5 C 81.754,96.5 92.5,107.25 92.5,120.5 z "
   style="stroke-width:2;stroke-linecap:round;stroke-linejoin:round"
   id="path7793" />
<path
   d="M 140.5,120.5 L 140.47,121.73 L 140.38,122.95 L 140.22,124.15 L 140.01,125.34 L 139.74,126.5 L 139.42,127.64 L 139.04,128.75 L 138.61,129.84 L 138.13,130.9 L 137.6,131.94 L 137.03,132.94 L 136.4,133.92 L 135.73,134.86 L 135.02,135.77 L 134.26,136.64 L 133.47,137.47 L 132.64,138.26 L 131.77,139.02 L 130.86,139.73 L 129.92,140.4 L 128.94,141.03 L 127.94,141.6 L 126.9,142.13 L 125.84,142.61 L 124.75,143.04 L 123.64,143.42 L 122.5,143.74 L 121.34,144.01 L 120.15,144.22 L 118.95,144.38 L 117.73,144.47 L 116.5,144.5 C 103.25,144.5 92.5,133.75 92.5,120.5 C 92.5,107.25 103.25,96.5 116.5,96.5 C 129.75,96.5 140.5,107.25 140.5,120.5 z "
   style="fill:#ffffff;fill-rule:nonzero;stroke:#ffffff;stroke-width:0;stroke-linecap:round;stroke-linejoin:round"
   id="path7795" />
<path
   d="M 140.5,120.5 L 140.47,121.73 L 140.38,122.95 L 140.22,124.15 L 140.01,125.34 L 139.74,126.5 L 139.42,127.64 L 139.04,128.75 L 138.61,129.84 L 138.13,130.9 L 137.6,131.94 L 137.03,132.94 L 136.4,133.92 L 135.73,134.86 L 135.02,135.77 L 134.26,136.64 L 133.47,137.47 L 132.64,138.26 L 131.77,139.02 L 130.86,139.73 L 129.92,140.4 L 128.94,141.03 L 127.94,141.6 L 126.9,142.13 L 125.84,142.61 L 124.75,143.04 L 123.64,143.42 L 122.5,143.74 L 121.34,144.01 L 120.15,144.22 L 118.95,144.38 L 117.73,144.47 L 116.5,144.5 C 103.25,144.5 92.5,133.75 92.5,120.5 C 92.5,107.25 103.25,96.5 116.5,96.5 C 129.75,96.5 140.5,107.25 140.5,120.5 z "
   style="stroke-width:2;stroke-linecap:round;stroke-linejoin:round"
   id="path7797" />
<path
   d="M 31.992,80.5 L 31.981,80.708 L 31.948,80.913 L 31.894,81.115 L 31.82,81.314 L 31.725,81.509 L 31.61,81.701 L 31.477,81.889 L 31.324,82.072 L 31.154,82.251 L 30.967,82.425 L 30.762,82.594 L 30.541,82.758 L 30.304,82.917 L 30.052,83.069 L 29.785,83.216 L 29.504,83.356 L 29.209,83.49 L 28.901,83.617 L 28.58,83.737 L 28.247,83.849 L 27.902,83.954 L 27.547,84.052 L 27.181,84.141 L 26.804,84.222 L 26.419,84.294 L 26.024,84.357 L 25.621,84.412 L 25.211,84.457 L 24.793,84.493 L 24.368,84.518 L 23.937,84.534 L 23.5,84.539 C 18.812,84.539 15.008,82.73 15.008,80.5 C 15.008,78.27 18.812,76.461 23.5,76.461 C 28.188,76.461 31.992,78.27 31.992,80.5 z "
   style="fill:#ffffff;fill-rule:nonzero;stroke:#ffffff;stroke-width:0;stroke-linecap:round;stroke-linejoin:round"
   id="path7799" />
<path
   d="M 31.992,80.5 L 31.981,80.708 L 31.948,80.913 L 31.894,81.115 L 31.82,81.314 L 31.725,81.509 L 31.61,81.701 L 31.477,81.889 L 31.324,82.072 L 31.154,82.251 L 30.967,82.425 L 30.762,82.594 L 30.541,82.758 L 30.304,82.917 L 30.052,83.069 L 29.785,83.216 L 29.504,83.356 L 29.209,83.49 L 28.901,83.617 L 28.58,83.737 L 28.247,83.849 L 27.902,83.954 L 27.547,84.052 L 27.181,84.141 L 26.804,84.222 L 26.419,84.294 L 26.024,84.357 L 25.621,84.412 L 25.211,84.457 L 24.793,84.493 L 24.368,84.518 L 23.937,84.534 L 23.5,84.539 C 18.812,84.539 15.008,82.73 15.008,80.5 C 15.008,78.27 18.812,76.461 23.5,76.461 C 28.188,76.461 31.992,78.27 31.992,80.5 z "
   style="stroke-width:0.84906;stroke-linecap:round;stroke-linejoin:round"
   id="path7801" />
<text
   transform="matrix(1,0,0,-1,18.191,77.977)"
   style="font-size:8px;fill:#000000;stroke:none;font-family:&quot;Helvetica&quot;, sans-serif"
   id="text7803">80</text>


<text
   transform="matrix(1,0,0,-1,150.55,74.918)"
   style="font-size:16px;fill:#000000;stroke:none;font-family:&quot;Helvetica&quot;, sans-serif"
   id="text7805">NY</text>


<polygon
   points="46.5,160.5 138.5,160.5 184.5,80.5 138.5,0.5 46.5,0.5 0.5,80.5 46.5,160.5 "
   style="stroke-width:1;stroke-linejoin:round"
   id="polygon7807" />
</g></svg>
