<?xml version="1.0" encoding="UTF-8" standalone="no"?>
<svg
   xmlns:dc="http://purl.org/dc/elements/1.1/"
   xmlns:cc="http://web.resource.org/cc/"
   xmlns:rdf="http://www.w3.org/1999/02/22-rdf-syntax-ns#"
   xmlns:svg="http://www.w3.org/2000/svg"
   xmlns="http://www.w3.org/2000/svg"
   xmlns:sodipodi="http://sodipodi.sourceforge.net/DTD/sodipodi-0.dtd"
   xmlns:inkscape="http://www.inkscape.org/namespaces/inkscape"
   version="1.0"
   baseProfile="full"
   id="body"
   width="100"
   height="100"
   viewBox="0 0 1 1"
   preserveAspectRatio="none"
   sodipodi:version="0.32"
   inkscape:version="0.45.1"
   inkscape:output_extension="org.inkscape.output.svg.inkscape"
   sodipodi:docbase="/home/blentz/Desktop/18EU_Tiles"
   sodipodi:docname="tile-6.svg">
  <metadata
     id="metadata876">
    <rdf:RDF>
      <cc:Work
         rdf:about="">
        <dc:format>image/svg+xml</dc:format>
        <dc:type
           rdf:resource="http://purl.org/dc/dcmitype/StillImage" />
      </cc:Work>
    </rdf:RDF>
  </metadata>
  <defs
     id="defs874" />
  <sodipodi:namedview
     inkscape:window-height="592"
     inkscape:window-width="822"
     inkscape:pageshadow="2"
     inkscape:pageopacity="0.0"
     guidetolerance="10.0"
     gridtolerance="10.0"
     objecttolerance="10.0"
     borderopacity="1.0"
     bordercolor="#666666"
     pagecolor="#ffffff"
     id="base"
     width="100px"
     height="100px"
     inkscape:zoom="0.52638889"
     inkscape:cx="360"
     inkscape:cy="360"
     inkscape:window-x="55"
     inkscape:window-y="49"
     inkscape:current-layer="body" />
  <title
     id="title825">SVG drawing</title>
  <desc
     id="desc827">This was produced by version 4.2 of GNU libplot, a free library for exporting 2-D vector graphics.</desc>
  <g
     id="content"
     transform="matrix(5.4032914e-3,0,0,-6.2137851e-3,1.9554655e-4,1.0002097)"
     xml:space="preserve"
     stroke-miterlimit="10.433"
     fill-rule="even-odd"
     font-style="normal"
     font-variant="normal"
     font-weight="normal"
     font-stretch="normal"
     font-size-adjust="none"
     letter-spacing="normal"
     word-spacing="normal"
     style="font-style:normal;font-variant:normal;font-weight:normal;font-stretch:normal;letter-spacing:normal;word-spacing:normal;text-anchor:start;fill:none;fill-opacity:1;stroke:#000000;stroke-linecap:butt;stroke-linejoin:miter;stroke-miterlimit:10.43299961;stroke-dasharray:none;stroke-dashoffset:0;stroke-opacity:1">
<polygon
   points="46.5,160.5 138.5,160.5 184.5,80.5 138.5,0.5 46.5,0.5 0.5,80.5 46.5,160.5 "
   id="polygon831"
   style="fill:#ffff00;fill-rule:nonzero;stroke:#ffff00;stroke-width:0;stroke-linejoin:round" />
<path
   d="M 116.5,120.5 L 116.47,121.73 L 116.38,122.95 L 116.22,124.15 L 116.01,125.34 L 115.74,126.5 L 115.42,127.64 L 115.04,128.75 L 114.61,129.84 L 114.13,130.9 L 113.6,131.94 L 113.03,132.94 L 112.4,133.92 L 111.73,134.86 L 111.02,135.77 L 110.26,136.64 L 109.47,137.47 L 108.64,138.26 L 107.77,139.02 L 106.86,139.73 L 105.92,140.4 L 104.94,141.03 L 103.94,141.6 L 102.9,142.13 L 101.84,142.61 L 100.75,143.04 L 99.637,143.42 L 98.498,143.74 L 97.337,144.01 L 96.155,144.22 L 94.954,144.38 L 93.735,144.47 L 92.5,144.5 C 79.246,144.5 68.5,133.75 68.5,120.5 C 68.5,107.25 79.246,96.5 92.5,96.5 C 105.75,96.5 116.5,107.25 116.5,120.5 z "
   id="path833"
   style="fill:#ffffff;fill-rule:nonzero;stroke:#ffffff;stroke-width:0;stroke-linecap:round;stroke-linejoin:round" />
<path
   d="M 116.5,120.5 L 116.47,121.73 L 116.38,122.95 L 116.22,124.15 L 116.01,125.34 L 115.74,126.5 L 115.42,127.64 L 115.04,128.75 L 114.61,129.84 L 114.13,130.9 L 113.6,131.94 L 113.03,132.94 L 112.4,133.92 L 111.73,134.86 L 111.02,135.77 L 110.26,136.64 L 109.47,137.47 L 108.64,138.26 L 107.77,139.02 L 106.86,139.73 L 105.92,140.4 L 104.94,141.03 L 103.94,141.6 L 102.9,142.13 L 101.84,142.61 L 100.75,143.04 L 99.637,143.42 L 98.498,143.74 L 97.337,144.01 L 96.155,144.22 L 94.954,144.38 L 93.735,144.47 L 92.5,144.5 C 79.246,144.5 68.5,133.75 68.5,120.5 C 68.5,107.25 79.246,96.5 92.5,96.5 C 105.75,96.5 116.5,107.25 116.5,120.5 z "
   id="path835"
   style="stroke:#ffffff;stroke-width:6;stroke-linecap:round;stroke-linejoin:round" />
<path
   d="M 116.5,40.5 L 116.47,41.735 L 116.38,42.954 L 116.22,44.155 L 116.01,45.337 L 115.74,46.498 L 115.42,47.637 L 115.04,48.752 L 114.61,49.841 L 114.13,50.905 L 113.6,51.939 L 113.03,52.944 L 112.4,53.918 L 111.73,54.859 L 111.02,55.766 L 110.26,56.637 L 109.47,57.47 L 108.64,58.265 L 107.77,59.019 L 106.86,59.732 L 105.92,60.401 L 104.94,61.025 L 103.94,61.603 L 102.9,62.133 L 101.84,62.614 L 100.75,63.044 L 99.637,63.421 L 98.498,63.744 L 97.337,64.012 L 96.155,64.223 L 94.954,64.376 L 93.735,64.469 L 92.5,64.5 C 79.246,64.5 68.5,53.754 68.5,40.5 C 68.5,27.246 79.246,16.5 92.5,16.5 C 105.75,16.5 116.5,27.246 116.5,40.5 z "
   id="path837"
   style="fill:#ffffff;fill-rule:nonzero;stroke:#ffffff;stroke-width:0;stroke-linecap:round;stroke-linejoin:round" />
<path
   d="M 116.5,40.5 L 116.47,41.735 L 116.38,42.954 L 116.22,44.155 L 116.01,45.337 L 115.74,46.498 L 115.42,47.637 L 115.04,48.752 L 114.61,49.841 L 114.13,50.905 L 113.6,51.939 L 113.03,52.944 L 112.4,53.918 L 111.73,54.859 L 111.02,55.766 L 110.26,56.637 L 109.47,57.47 L 108.64,58.265 L 107.77,59.019 L 106.86,59.732 L 105.92,60.401 L 104.94,61.025 L 103.94,61.603 L 102.9,62.133 L 101.84,62.614 L 100.75,63.044 L 99.637,63.421 L 98.498,63.744 L 97.337,64.012 L 96.155,64.223 L 94.954,64.376 L 93.735,64.469 L 92.5,64.5 C 79.246,64.5 68.5,53.754 68.5,40.5 C 68.5,27.246 79.246,16.5 92.5,16.5 C 105.75,16.5 116.5,27.246 116.5,40.5 z "
   id="path839"
   style="stroke:#ffffff;stroke-width:6;stroke-linecap:round;stroke-linejoin:round" />
<path
   d="M 161.5,120.5 L 161.43,120.62 C 154.45,116.61 146.54,114.5 138.5,114.5 C 130.45,114.5 122.54,116.61 115.57,120.62 L 92.5,120.5"
   id="path841"
   style="stroke:#ffffff;stroke-width:16;stroke-linecap:round;stroke-linejoin:round" />
<path
   d="M 161.5,40.5 L 161.43,40.379 C 154.45,44.387 146.54,46.5 138.5,46.5 C 130.45,46.5 122.54,44.387 115.57,40.379 L 92.5,40.5"
   id="path843"
   style="stroke:#ffffff;stroke-width:16;stroke-linecap:round;stroke-linejoin:round" />
<path
   d="M 161.5,120.5 L 161.43,120.62 C 154.45,116.61 146.54,114.5 138.5,114.5 C 130.45,114.5 122.54,116.61 115.57,120.62 L 92.5,120.5"
   id="path845"
   style="stroke-width:12;stroke-linecap:round;stroke-linejoin:round" />
<path
   d="M 161.5,40.5 L 161.43,40.379 C 154.45,44.387 146.54,46.5 138.5,46.5 C 130.45,46.5 122.54,44.387 115.57,40.379 L 92.5,40.5"
   id="path847"
   style="stroke-width:12;stroke-linecap:round;stroke-linejoin:round" />
<path
   d="M 116.5,120.5 L 116.47,121.73 L 116.38,122.95 L 116.22,124.15 L 116.01,125.34 L 115.74,126.5 L 115.42,127.64 L 115.04,128.75 L 114.61,129.84 L 114.13,130.9 L 113.6,131.94 L 113.03,132.94 L 112.4,133.92 L 111.73,134.86 L 111.02,135.77 L 110.26,136.64 L 109.47,137.47 L 108.64,138.26 L 107.77,139.02 L 106.86,139.73 L 105.92,140.4 L 104.94,141.03 L 103.94,141.6 L 102.9,142.13 L 101.84,142.61 L 100.75,143.04 L 99.637,143.42 L 98.498,143.74 L 97.337,144.01 L 96.155,144.22 L 94.954,144.38 L 93.735,144.47 L 92.5,144.5 C 79.246,144.5 68.5,133.75 68.5,120.5 C 68.5,107.25 79.246,96.5 92.5,96.5 C 105.75,96.5 116.5,107.25 116.5,120.5 z "
   id="path849"
   style="fill:#ffffff;fill-rule:nonzero;stroke:#ffffff;stroke-width:0;stroke-linecap:round;stroke-linejoin:round" />
<path
   d="M 116.5,120.5 L 116.47,121.73 L 116.38,122.95 L 116.22,124.15 L 116.01,125.34 L 115.74,126.5 L 115.42,127.64 L 115.04,128.75 L 114.61,129.84 L 114.13,130.9 L 113.6,131.94 L 113.03,132.94 L 112.4,133.92 L 111.73,134.86 L 111.02,135.77 L 110.26,136.64 L 109.47,137.47 L 108.64,138.26 L 107.77,139.02 L 106.86,139.73 L 105.92,140.4 L 104.94,141.03 L 103.94,141.6 L 102.9,142.13 L 101.84,142.61 L 100.75,143.04 L 99.637,143.42 L 98.498,143.74 L 97.337,144.01 L 96.155,144.22 L 94.954,144.38 L 93.735,144.47 L 92.5,144.5 C 79.246,144.5 68.5,133.75 68.5,120.5 C 68.5,107.25 79.246,96.5 92.5,96.5 C 105.75,96.5 116.5,107.25 116.5,120.5 z "
   id="path851"
   style="stroke-width:2;stroke-linecap:round;stroke-linejoin:round" />
<path
   d="M 54.988,80.5 L 54.977,80.708 L 54.944,80.913 L 54.89,81.115 L 54.816,81.314 L 54.721,81.509 L 54.607,81.701 L 54.473,81.889 L 54.321,82.072 L 54.151,82.251 L 53.964,82.425 L 53.759,82.594 L 53.539,82.758 L 53.302,82.917 L 53.05,83.069 L 52.783,83.216 L 52.502,83.356 L 52.207,83.49 L 51.899,83.617 L 51.578,83.737 L 51.246,83.849 L 50.901,83.954 L 50.546,84.052 L 50.18,84.141 L 49.804,84.222 L 49.418,84.294 L 49.024,84.357 L 48.621,84.412 L 48.211,84.457 L 47.793,84.493 L 47.368,84.518 L 46.937,84.534 L 46.5,84.539 C 41.812,84.539 38.012,82.73 38.012,80.5 C 38.012,78.27 41.812,76.461 46.5,76.461 C 51.188,76.461 54.988,78.27 54.988,80.5 z "
   id="path853"
   style="fill:#ffffff;fill-rule:nonzero;stroke:#ffffff;stroke-width:0;stroke-linecap:round;stroke-linejoin:round" />
<path
   d="M 54.988,80.5 L 54.977,80.708 L 54.944,80.913 L 54.89,81.115 L 54.816,81.314 L 54.721,81.509 L 54.607,81.701 L 54.473,81.889 L 54.321,82.072 L 54.151,82.251 L 53.964,82.425 L 53.759,82.594 L 53.539,82.758 L 53.302,82.917 L 53.05,83.069 L 52.783,83.216 L 52.502,83.356 L 52.207,83.49 L 51.899,83.617 L 51.578,83.737 L 51.246,83.849 L 50.901,83.954 L 50.546,84.052 L 50.18,84.141 L 49.804,84.222 L 49.418,84.294 L 49.024,84.357 L 48.621,84.412 L 48.211,84.457 L 47.793,84.493 L 47.368,84.518 L 46.937,84.534 L 46.5,84.539 C 41.812,84.539 38.012,82.73 38.012,80.5 C 38.012,78.27 41.812,76.461 46.5,76.461 C 51.188,76.461 54.988,78.27 54.988,80.5 z "
   id="path855"
   style="stroke-width:0.84906;stroke-linecap:round;stroke-linejoin:round" />
<text
   transform="matrix(0.4,0,0,-0.4,41.195,77.977)"
   font-size="20px"
   id="text857"
   style="font-size:20px;fill:#000000;stroke:none;font-family:Helvetica, sans-serif">40</text>

<path
   d="M 116.5,40.5 L 116.47,41.735 L 116.38,42.954 L 116.22,44.155 L 116.01,45.337 L 115.74,46.498 L 115.42,47.637 L 115.04,48.752 L 114.61,49.841 L 114.13,50.905 L 113.6,51.939 L 113.03,52.944 L 112.4,53.918 L 111.73,54.859 L 111.02,55.766 L 110.26,56.637 L 109.47,57.47 L 108.64,58.265 L 107.77,59.019 L 106.86,59.732 L 105.92,60.401 L 104.94,61.025 L 103.94,61.603 L 102.9,62.133 L 101.84,62.614 L 100.75,63.044 L 99.637,63.421 L 98.498,63.744 L 97.337,64.012 L 96.155,64.223 L 94.954,64.376 L 93.735,64.469 L 92.5,64.5 C 79.246,64.5 68.5,53.754 68.5,40.5 C 68.5,27.246 79.246,16.5 92.5,16.5 C 105.75,16.5 116.5,27.246 116.5,40.5 z "
   id="path859"
   style="fill:#ffffff;fill-rule:nonzero;stroke:#ffffff;stroke-width:0;stroke-linecap:round;stroke-linejoin:round" />
<path
   d="M 116.5,40.5 L 116.47,41.735 L 116.38,42.954 L 116.22,44.155 L 116.01,45.337 L 115.74,46.498 L 115.42,47.637 L 115.04,48.752 L 114.61,49.841 L 114.13,50.905 L 113.6,51.939 L 113.03,52.944 L 112.4,53.918 L 111.73,54.859 L 111.02,55.766 L 110.26,56.637 L 109.47,57.47 L 108.64,58.265 L 107.77,59.019 L 106.86,59.732 L 105.92,60.401 L 104.94,61.025 L 103.94,61.603 L 102.9,62.133 L 101.84,62.614 L 100.75,63.044 L 99.637,63.421 L 98.498,63.744 L 97.337,64.012 L 96.155,64.223 L 94.954,64.376 L 93.735,64.469 L 92.5,64.5 C 79.246,64.5 68.5,53.754 68.5,40.5 C 68.5,27.246 79.246,16.5 92.5,16.5 C 105.75,16.5 116.5,27.246 116.5,40.5 z "
   id="path861"
   style="stroke-width:2;stroke-linecap:round;stroke-linejoin:round" />
<path
   d="M 54.988,80.5 L 54.977,80.708 L 54.944,80.913 L 54.89,81.115 L 54.816,81.314 L 54.721,81.509 L 54.607,81.701 L 54.473,81.889 L 54.321,82.072 L 54.151,82.251 L 53.964,82.425 L 53.759,82.594 L 53.539,82.758 L 53.302,82.917 L 53.05,83.069 L 52.783,83.216 L 52.502,83.356 L 52.207,83.49 L 51.899,83.617 L 51.578,83.737 L 51.246,83.849 L 50.901,83.954 L 50.546,84.052 L 50.18,84.141 L 49.804,84.222 L 49.418,84.294 L 49.024,84.357 L 48.621,84.412 L 48.211,84.457 L 47.793,84.493 L 47.368,84.518 L 46.937,84.534 L 46.5,84.539 C 41.812,84.539 38.012,82.73 38.012,80.5 C 38.012,78.27 41.812,76.461 46.5,76.461 C 51.188,76.461 54.988,78.27 54.988,80.5 z "
   id="path863"
   style="fill:#ffffff;fill-rule:nonzero;stroke:#ffffff;stroke-width:0;stroke-linecap:round;stroke-linejoin:round" />
<path
   d="M 54.988,80.5 L 54.977,80.708 L 54.944,80.913 L 54.89,81.115 L 54.816,81.314 L 54.721,81.509 L 54.607,81.701 L 54.473,81.889 L 54.321,82.072 L 54.151,82.251 L 53.964,82.425 L 53.759,82.594 L 53.539,82.758 L 53.302,82.917 L 53.05,83.069 L 52.783,83.216 L 52.502,83.356 L 52.207,83.49 L 51.899,83.617 L 51.578,83.737 L 51.246,83.849 L 50.901,83.954 L 50.546,84.052 L 50.18,84.141 L 49.804,84.222 L 49.418,84.294 L 49.024,84.357 L 48.621,84.412 L 48.211,84.457 L 47.793,84.493 L 47.368,84.518 L 46.937,84.534 L 46.5,84.539 C 41.812,84.539 38.012,82.73 38.012,80.5 C 38.012,78.27 41.812,76.461 46.5,76.461 C 51.188,76.461 54.988,78.27 54.988,80.5 z "
   id="path865"
   style="stroke-width:0.84906;stroke-linecap:round;stroke-linejoin:round" />
<text
   transform="matrix(0.4,0,0,-0.4,41.195,77.977)"
   font-size="20px"
   id="text867"
   style="font-size:20px;fill:#000000;stroke:none;font-family:Helvetica, sans-serif">40</text>

<text
   transform="matrix(0.8,0,0,-0.8,156.19,74.918)"
   font-size="20px"
   id="text869"
   style="font-size:20px;fill:#000000;stroke:none;font-family:Helvetica, sans-serif">P</text>

<polygon
   points="46.5,160.5 138.5,160.5 184.5,80.5 138.5,0.5 46.5,0.5 0.5,80.5 46.5,160.5 "
   id="polygon871"
   style="stroke-width:1;stroke-linejoin:round" />
</g></svg>
